M48
; DRILL file {KiCad 9.0.3} date 2026-04-01T11:47:16+0530
; FORMAT={-:-/ absolute / metric / decimal}
; #@! TF.CreationDate,2026-04-01T11:47:16+05:30
; #@! TF.GenerationSoftware,Kicad,Pcbnew,9.0.3
; #@! TF.FileFunction,Plated,1,2,PTH
FMAT,2
METRIC
; #@! TA.AperFunction,Plated,PTH,ViaDrill
T1C0.300
; #@! TA.AperFunction,Plated,PTH,ViaDrill
T2C0.400
; #@! TA.AperFunction,Plated,PTH,ViaDrill
T3C0.500
; #@! TA.AperFunction,Plated,PTH,ComponentDrill
T4C0.800
; #@! TA.AperFunction,Plated,PTH,ComponentDrill
T5C0.950
; #@! TA.AperFunction,Plated,PTH,ComponentDrill
T6C1.000
; #@! TA.AperFunction,Plated,PTH,ComponentDrill
T7C1.300
%
G90
G05
T1
X49.92Y-44.61
X66.92Y-85.39
X172.17Y-64.29
T2
X51.34Y-42.09
X51.34Y-44.96
X51.5Y-88.03
X76.82Y-40.9
X83.99Y-25.49
X84.235Y-65.105
X84.74Y-62.14
X92.55Y-37.41
X93.68Y-27.02
X94.37Y-34.63
X94.915Y-32.345
X118.69Y-30.52
X122.32Y-67.61
X125.35Y-62.1
X125.58Y-64.79
X126.96Y-51.35
X130.98Y-36.66
X131.16Y-66.52
X131.19Y-50.38
X131.22Y-54.26
X132.98Y-67.61
X133.8Y-68.95
X133.87Y-51.79
X137.775Y-68.665
X149.93Y-56.05
X152.72Y-60.86
X153.24Y-76.07
X153.71Y-31.79
X154.68Y-61.31
X156.4Y-67.45
X159.06Y-31.7
X159.51Y-83.8
X159.56Y-88.26
X163.44Y-52.24
X177.83Y-58.46
X178.77Y-64.33
X180.1Y-42.41
T3
X41.79Y-81.37
X41.79Y-82.79
X46.84Y-85.22
X46.84Y-86.61
X49.19Y-91.07
X49.19Y-92.72
X49.76Y-84.38
X49.78Y-85.41
X70.03Y-86.8
X70.03Y-87.92
X70.09Y-26.35
X72.9Y-26.34
X76.1Y-59.84
X76.56Y-78.31
X76.56Y-79.34
X76.56Y-82.48
X76.56Y-83.77
X77.52Y-59.84
X80.77Y-59.84
X81.86Y-59.84
X85.895Y-97.78
X85.895Y-99.11
X86.07Y-59.84
X86.644Y-82.444
X87.19Y-59.84
X87.84Y-88.37
X87.87Y-93.48
X90.88Y-71.84
X90.88Y-72.74
X90.88Y-75.13
X90.88Y-76.33
X92.4Y-76.05
X92.81Y-73.43
X102.2Y-60.48
X104.04Y-60.48
X123.55Y-48.75
X123.76Y-50.54
X125.74Y-32.98
X125.74Y-33.8
X129.87Y-80.17
X129.87Y-81.39
X130.985Y-51.76
X132.24Y-51.77
X138.1Y-62.27
X139.38Y-62.27
X143.94Y-62.27
X145.2Y-58.36
X146.78Y-69.73
X146.78Y-70.5
X150.86Y-53.8
X150.86Y-54.79
X151.74Y-64.11
X153.05Y-64.11
X157.83Y-64.11
X158.92Y-64.11
X159.63Y-68.11
X159.63Y-69.3
X160.05Y-56.21
X161.96Y-115.34
X162.04Y-56.21
X162.39Y-63.66
X163.4Y-63.67
X166.31Y-115.33
X169.4Y-52.02
X170.66Y-52.02
X170.95Y-64.29
X173.365Y-55.86
X174.02Y-52.02
X175.11Y-52.01
X176.73Y-64.29
T4
X107.865Y-51.955
X107.865Y-54.495
X115.485Y-51.955
X115.485Y-54.495
X137.295Y-51.425
X137.295Y-53.965
X144.915Y-51.425
X144.915Y-53.965
X165.745Y-57.415
X165.745Y-59.955
X173.365Y-57.415
X173.365Y-59.955
T5
X70.87Y-108.08
X73.37Y-108.08
X75.87Y-108.08
X78.37Y-108.08
X80.87Y-108.08
X83.37Y-108.08
X93.01Y-108.05
X95.51Y-108.05
X98.01Y-108.05
X100.51Y-108.05
X103.01Y-108.05
X105.51Y-108.05
X114.74Y-108.08
X117.24Y-108.08
X119.74Y-108.08
X122.24Y-108.08
X124.74Y-108.08
X127.24Y-108.08
X136.37Y-108.11
X138.87Y-108.11
X141.37Y-108.11
X143.87Y-108.11
X146.37Y-108.11
X148.87Y-108.11
X157.05Y-108.68
X158.71Y-27.03
X159.55Y-108.68
X161.21Y-27.03
X162.05Y-108.68
X163.71Y-27.03
X164.55Y-108.68
X166.21Y-27.03
X167.05Y-108.68
X169.55Y-108.68
X175.44Y-85.75
X175.44Y-88.25
X175.44Y-90.75
X175.44Y-93.25
X175.44Y-95.75
X175.44Y-98.25
T6
X46.84Y-46.31
X46.84Y-48.85
X46.84Y-51.39
X46.84Y-53.93
X46.84Y-56.47
X46.84Y-59.01
X46.84Y-61.55
X46.84Y-64.09
X46.84Y-66.63
X46.84Y-69.17
X46.84Y-71.71
X46.84Y-74.25
X46.84Y-76.79
X58.78Y-40.89
X58.78Y-43.43
X58.78Y-45.97
X58.78Y-48.51
X58.78Y-51.05
X58.78Y-53.59
X58.78Y-56.13
X58.78Y-58.67
X58.78Y-61.21
X58.78Y-63.75
X58.78Y-66.29
X58.78Y-68.83
X58.78Y-71.37
X58.78Y-73.91
X58.78Y-76.45
X58.78Y-78.99
X58.78Y-81.53
X58.78Y-84.07
X58.78Y-86.61
X58.78Y-89.15
X61.32Y-40.89
X61.32Y-43.43
X61.32Y-45.97
X61.32Y-48.51
X61.32Y-51.05
X61.32Y-53.59
X61.32Y-56.13
X61.32Y-58.67
X61.32Y-61.21
X61.32Y-63.75
X61.32Y-66.29
X61.32Y-68.83
X61.32Y-71.37
X61.32Y-73.91
X61.32Y-76.45
X61.32Y-78.99
X61.32Y-81.53
X61.32Y-84.07
X61.32Y-86.61
X61.32Y-89.15
X73.18Y-43.43
X73.18Y-45.97
X73.18Y-48.51
X73.18Y-51.05
X73.18Y-53.59
X73.18Y-56.13
X73.18Y-58.67
X73.18Y-61.21
X73.18Y-63.75
X73.18Y-66.29
X73.18Y-68.83
X73.18Y-71.37
X73.18Y-73.91
X73.18Y-76.45
X81.43Y-28.88
X81.43Y-31.42
X83.97Y-28.88
X83.97Y-31.42
X86.51Y-28.88
X86.51Y-31.42
X89.05Y-28.88
X89.05Y-31.42
X91.59Y-28.88
X91.59Y-31.42
X94.89Y-82.6
X94.89Y-85.14
X94.89Y-87.68
X94.89Y-90.22
X99.02Y-72.46
X99.02Y-75.0
X99.02Y-77.54
X99.02Y-80.08
X99.02Y-82.62
X99.02Y-85.16
X99.02Y-87.7
X99.02Y-89.96
X99.02Y-92.38
X99.02Y-94.92
X99.02Y-97.46
X99.02Y-100.0
X106.44Y-34.09
X106.44Y-46.09
X116.98Y-72.58
X116.98Y-75.0
X116.98Y-77.54
X116.98Y-80.08
X116.98Y-82.62
X116.98Y-85.16
X116.98Y-87.7
X116.98Y-89.96
X116.98Y-92.38
X116.98Y-94.92
X116.98Y-97.46
X116.98Y-100.0
X122.52Y-72.54
X122.52Y-75.08
X122.52Y-77.62
X122.52Y-80.16
X122.52Y-82.7
X122.52Y-85.24
X122.52Y-87.78
X122.52Y-90.32
X133.56Y-78.68
X136.1Y-78.68
X138.64Y-78.68
X140.235Y-71.29
X140.27Y-101.11
X141.18Y-78.68
X142.77Y-101.11
X142.775Y-71.29
X143.72Y-78.68
X146.26Y-78.68
X148.19Y-34.04
X148.19Y-46.04
X148.8Y-78.68
X158.75Y-22.99
X161.29Y-22.99
X163.83Y-22.99
X166.37Y-22.99
X167.112Y-71.515
X167.112Y-74.055
X174.332Y-68.52
X174.83Y-35.42
X174.83Y-47.42
X176.873Y-68.52
T7
X104.49Y-40.04
X118.64Y-46.09
X118.69Y-34.04
X135.94Y-46.09
X135.99Y-34.04
X150.14Y-40.09
X162.58Y-47.47
X162.63Y-35.42
X175.732Y-73.875
X175.732Y-78.955
X176.78Y-41.47
M30
