%TF.GenerationSoftware,KiCad,Pcbnew,9.0.3*%
%TF.CreationDate,2026-04-01T11:47:13+05:30*%
%TF.ProjectId,Nova_Transducer_PCB_V1P0,4e6f7661-5f54-4726-916e-736475636572,rev?*%
%TF.SameCoordinates,Original*%
%TF.FileFunction,Soldermask,Bot*%
%TF.FilePolarity,Negative*%
%FSLAX46Y46*%
G04 Gerber Fmt 4.6, Leading zero omitted, Abs format (unit mm)*
G04 Created by KiCad (PCBNEW 9.0.3) date 2026-04-01 11:47:13*
%MOMM*%
%LPD*%
G01*
G04 APERTURE LIST*
G04 Aperture macros list*
%AMRoundRect*
0 Rectangle with rounded corners*
0 $1 Rounding radius*
0 $2 $3 $4 $5 $6 $7 $8 $9 X,Y pos of 4 corners*
0 Add a 4 corners polygon primitive as box body*
4,1,4,$2,$3,$4,$5,$6,$7,$8,$9,$2,$3,0*
0 Add four circle primitives for the rounded corners*
1,1,$1+$1,$2,$3*
1,1,$1+$1,$4,$5*
1,1,$1+$1,$6,$7*
1,1,$1+$1,$8,$9*
0 Add four rect primitives between the rounded corners*
20,1,$1+$1,$2,$3,$4,$5,0*
20,1,$1+$1,$4,$5,$6,$7,0*
20,1,$1+$1,$6,$7,$8,$9,0*
20,1,$1+$1,$8,$9,$2,$3,0*%
G04 Aperture macros list end*
%ADD10RoundRect,0.250000X0.600000X0.725000X-0.600000X0.725000X-0.600000X-0.725000X0.600000X-0.725000X0*%
%ADD11O,1.700000X1.950000*%
%ADD12C,3.000000*%
%ADD13C,2.500000*%
%ADD14RoundRect,0.250000X0.600000X0.750000X-0.600000X0.750000X-0.600000X-0.750000X0.600000X-0.750000X0*%
%ADD15O,1.700000X2.000000*%
%ADD16R,1.700000X1.700000*%
%ADD17C,1.700000*%
%ADD18C,2.032000*%
%ADD19RoundRect,0.250000X-0.600000X-0.725000X0.600000X-0.725000X0.600000X0.725000X-0.600000X0.725000X0*%
%ADD20C,3.200000*%
%ADD21RoundRect,0.250000X0.550000X0.550000X-0.550000X0.550000X-0.550000X-0.550000X0.550000X-0.550000X0*%
%ADD22C,1.600000*%
%ADD23RoundRect,0.250000X-0.600000X-0.600000X0.600000X-0.600000X0.600000X0.600000X-0.600000X0.600000X0*%
%ADD24RoundRect,0.250000X1.050000X-1.050000X1.050000X1.050000X-1.050000X1.050000X-1.050000X-1.050000X0*%
%ADD25C,2.600000*%
%ADD26RoundRect,0.250000X0.600000X0.600000X-0.600000X0.600000X-0.600000X-0.600000X0.600000X-0.600000X0*%
%ADD27RoundRect,0.250000X0.725000X-0.600000X0.725000X0.600000X-0.725000X0.600000X-0.725000X-0.600000X0*%
%ADD28O,1.950000X1.700000*%
%ADD29RoundRect,0.250000X-0.550000X-0.550000X0.550000X-0.550000X0.550000X0.550000X-0.550000X0.550000X0*%
G04 APERTURE END LIST*
D10*
%TO.C,J4*%
X169550000Y-108680000D03*
D11*
X167050000Y-108680000D03*
X164550000Y-108680000D03*
X162050000Y-108680000D03*
X159550000Y-108680000D03*
X157050000Y-108680000D03*
%TD*%
D12*
%TO.C,K3*%
X104490000Y-40040000D03*
D13*
X106440000Y-46090000D03*
D12*
X118640000Y-46090000D03*
X118690000Y-34040000D03*
D13*
X106440000Y-34090000D03*
%TD*%
D14*
%TO.C,J19*%
X142770000Y-101110000D03*
D15*
X140270000Y-101110000D03*
%TD*%
D16*
%TO.C,J12*%
X167112500Y-74055000D03*
D17*
X167112500Y-71515000D03*
%TD*%
D16*
%TO.C,J1*%
X94890000Y-82600000D03*
D17*
X94890000Y-85140000D03*
X94890000Y-87680000D03*
X94890000Y-90220000D03*
%TD*%
D18*
%TO.C,MAX98357A1*%
X133560000Y-78680000D03*
X136100000Y-78680000D03*
X138640000Y-78680000D03*
X141180000Y-78680000D03*
X143720000Y-78680000D03*
X146260000Y-78680000D03*
X148800000Y-78680000D03*
%TD*%
D19*
%TO.C,J7*%
X70870000Y-108080000D03*
D11*
X73370000Y-108080000D03*
X75870000Y-108080000D03*
X78370000Y-108080000D03*
X80870000Y-108080000D03*
X83370000Y-108080000D03*
%TD*%
D16*
%TO.C,J18*%
X158750000Y-22990000D03*
D17*
X161290000Y-22990000D03*
X163830000Y-22990000D03*
X166370000Y-22990000D03*
%TD*%
D20*
%TO.C,H3*%
X177810000Y-114530000D03*
%TD*%
D19*
%TO.C,J16*%
X136370000Y-108110000D03*
D11*
X138870000Y-108110000D03*
X141370000Y-108110000D03*
X143870000Y-108110000D03*
X146370000Y-108110000D03*
X148870000Y-108110000D03*
%TD*%
D12*
%TO.C,K2*%
X176780000Y-41470000D03*
D13*
X174830000Y-35420000D03*
D12*
X162630000Y-35420000D03*
X162580000Y-47470000D03*
D13*
X174830000Y-47420000D03*
%TD*%
D19*
%TO.C,J8*%
X93010000Y-108050000D03*
D11*
X95510000Y-108050000D03*
X98010000Y-108050000D03*
X100510000Y-108050000D03*
X103010000Y-108050000D03*
X105510000Y-108050000D03*
%TD*%
D21*
%TO.C,U2*%
X144915000Y-53965000D03*
D22*
X144915000Y-51425000D03*
X137295000Y-51425000D03*
X137295000Y-53965000D03*
%TD*%
D20*
%TO.C,H2*%
X177680000Y-23830000D03*
%TD*%
%TO.C,H1*%
X43030000Y-23840000D03*
%TD*%
D23*
%TO.C,U1*%
X99020000Y-72460000D03*
D17*
X99020000Y-75000000D03*
X99020000Y-77540000D03*
X99020000Y-80080000D03*
X99020000Y-82620000D03*
X99020000Y-85160000D03*
X99020000Y-87700000D03*
X99020000Y-89960000D03*
X99020000Y-92380000D03*
X99020000Y-94920000D03*
X99020000Y-97460000D03*
X99020000Y-100000000D03*
X116980000Y-100000000D03*
X116980000Y-97460000D03*
X116980000Y-94920000D03*
X116980000Y-92380000D03*
X116980000Y-89960000D03*
X116980000Y-87700000D03*
X116980000Y-85160000D03*
X116980000Y-82620000D03*
X116980000Y-80080000D03*
X116980000Y-77540000D03*
X116980000Y-75000000D03*
X116980000Y-72580000D03*
%TD*%
D24*
%TO.C,J11*%
X175732500Y-78955000D03*
D25*
X175732500Y-73875000D03*
%TD*%
D12*
%TO.C,K1*%
X150140000Y-40090000D03*
D13*
X148190000Y-34040000D03*
D12*
X135990000Y-34040000D03*
X135940000Y-46090000D03*
D13*
X148190000Y-46040000D03*
%TD*%
D20*
%TO.C,H4*%
X43080000Y-114480000D03*
%TD*%
D16*
%TO.C,J9*%
X46840000Y-76790000D03*
D17*
X46840000Y-74250000D03*
X46840000Y-71710000D03*
X46840000Y-69170000D03*
X46840000Y-66630000D03*
X46840000Y-64090000D03*
X46840000Y-61550000D03*
X46840000Y-59010000D03*
X46840000Y-56470000D03*
X46840000Y-53930000D03*
X46840000Y-51390000D03*
X46840000Y-48850000D03*
X46840000Y-46310000D03*
%TD*%
D26*
%TO.C,J5*%
X61320000Y-89150000D03*
D17*
X58780000Y-89150000D03*
X61320000Y-86610000D03*
X58780000Y-86610000D03*
X61320000Y-84070000D03*
X58780000Y-84070000D03*
X61320000Y-81530000D03*
X58780000Y-81530000D03*
X61320000Y-78990000D03*
X58780000Y-78990000D03*
X61320000Y-76450000D03*
X58780000Y-76450000D03*
X61320000Y-73910000D03*
X58780000Y-73910000D03*
X61320000Y-71370000D03*
X58780000Y-71370000D03*
X61320000Y-68830000D03*
X58780000Y-68830000D03*
X61320000Y-66290000D03*
X58780000Y-66290000D03*
X61320000Y-63750000D03*
X58780000Y-63750000D03*
X61320000Y-61210000D03*
X58780000Y-61210000D03*
X61320000Y-58670000D03*
X58780000Y-58670000D03*
X61320000Y-56130000D03*
X58780000Y-56130000D03*
X61320000Y-53590000D03*
X58780000Y-53590000D03*
X61320000Y-51050000D03*
X58780000Y-51050000D03*
X61320000Y-48510000D03*
X58780000Y-48510000D03*
X61320000Y-45970000D03*
X58780000Y-45970000D03*
X61320000Y-43430000D03*
X58780000Y-43430000D03*
X61320000Y-40890000D03*
X58780000Y-40890000D03*
%TD*%
D21*
%TO.C,U4*%
X115485000Y-54495000D03*
D22*
X115485000Y-51955000D03*
X107865000Y-51955000D03*
X107865000Y-54495000D03*
%TD*%
D27*
%TO.C,J3*%
X175440000Y-98250000D03*
D28*
X175440000Y-95750000D03*
X175440000Y-93250000D03*
X175440000Y-90750000D03*
X175440000Y-88250000D03*
X175440000Y-85750000D03*
%TD*%
D16*
%TO.C,J14*%
X81430000Y-31420000D03*
D17*
X81430000Y-28880000D03*
X83970000Y-31420000D03*
X83970000Y-28880000D03*
X86510000Y-31420000D03*
X86510000Y-28880000D03*
X89050000Y-31420000D03*
X89050000Y-28880000D03*
X91590000Y-31420000D03*
X91590000Y-28880000D03*
%TD*%
D16*
%TO.C,J10*%
X140235000Y-71290000D03*
D17*
X142775000Y-71290000D03*
%TD*%
D19*
%TO.C,J17*%
X158710000Y-27030000D03*
D11*
X161210000Y-27030000D03*
X163710000Y-27030000D03*
X166210000Y-27030000D03*
%TD*%
D16*
%TO.C,J13*%
X174332500Y-68520000D03*
D17*
X176872500Y-68520000D03*
%TD*%
D16*
%TO.C,J2*%
X73180000Y-76450000D03*
D17*
X73180000Y-73910000D03*
X73180000Y-71370000D03*
X73180000Y-68830000D03*
X73180000Y-66290000D03*
X73180000Y-63750000D03*
X73180000Y-61210000D03*
X73180000Y-58670000D03*
X73180000Y-56130000D03*
X73180000Y-53590000D03*
X73180000Y-51050000D03*
X73180000Y-48510000D03*
X73180000Y-45970000D03*
X73180000Y-43430000D03*
%TD*%
D29*
%TO.C,U3*%
X165745000Y-57415000D03*
D22*
X165745000Y-59955000D03*
X173365000Y-59955000D03*
X173365000Y-57415000D03*
%TD*%
D19*
%TO.C,J15*%
X114740000Y-108080000D03*
D11*
X117240000Y-108080000D03*
X119740000Y-108080000D03*
X122240000Y-108080000D03*
X124740000Y-108080000D03*
X127240000Y-108080000D03*
%TD*%
D16*
%TO.C,J6*%
X122520000Y-72540000D03*
D17*
X122520000Y-75080000D03*
X122520000Y-77620000D03*
X122520000Y-80160000D03*
X122520000Y-82700000D03*
X122520000Y-85240000D03*
X122520000Y-87780000D03*
X122520000Y-90320000D03*
%TD*%
M02*
