%TF.GenerationSoftware,KiCad,Pcbnew,9.0.3*%
%TF.CreationDate,2026-04-01T11:47:12+05:30*%
%TF.ProjectId,Nova_Transducer_PCB_V1P0,4e6f7661-5f54-4726-916e-736475636572,rev?*%
%TF.SameCoordinates,Original*%
%TF.FileFunction,Paste,Top*%
%TF.FilePolarity,Positive*%
%FSLAX46Y46*%
G04 Gerber Fmt 4.6, Leading zero omitted, Abs format (unit mm)*
G04 Created by KiCad (PCBNEW 9.0.3) date 2026-04-01 11:47:12*
%MOMM*%
%LPD*%
G01*
G04 APERTURE LIST*
G04 Aperture macros list*
%AMRoundRect*
0 Rectangle with rounded corners*
0 $1 Rounding radius*
0 $2 $3 $4 $5 $6 $7 $8 $9 X,Y pos of 4 corners*
0 Add a 4 corners polygon primitive as box body*
4,1,4,$2,$3,$4,$5,$6,$7,$8,$9,$2,$3,0*
0 Add four circle primitives for the rounded corners*
1,1,$1+$1,$2,$3*
1,1,$1+$1,$4,$5*
1,1,$1+$1,$6,$7*
1,1,$1+$1,$8,$9*
0 Add four rect primitives between the rounded corners*
20,1,$1+$1,$2,$3,$4,$5,0*
20,1,$1+$1,$4,$5,$6,$7,0*
20,1,$1+$1,$6,$7,$8,$9,0*
20,1,$1+$1,$8,$9,$2,$3,0*%
G04 Aperture macros list end*
%ADD10R,0.905600X1.000000*%
%ADD11RoundRect,0.200000X0.275000X-0.200000X0.275000X0.200000X-0.275000X0.200000X-0.275000X-0.200000X0*%
%ADD12RoundRect,0.200000X0.200000X0.275000X-0.200000X0.275000X-0.200000X-0.275000X0.200000X-0.275000X0*%
%ADD13RoundRect,0.218750X-0.218750X-0.256250X0.218750X-0.256250X0.218750X0.256250X-0.218750X0.256250X0*%
%ADD14RoundRect,0.150000X0.150000X-0.587500X0.150000X0.587500X-0.150000X0.587500X-0.150000X-0.587500X0*%
%ADD15RoundRect,0.200000X-0.200000X-0.275000X0.200000X-0.275000X0.200000X0.275000X-0.200000X0.275000X0*%
%ADD16RoundRect,0.150000X0.200000X-0.150000X0.200000X0.150000X-0.200000X0.150000X-0.200000X-0.150000X0*%
%ADD17RoundRect,0.150000X0.587500X0.150000X-0.587500X0.150000X-0.587500X-0.150000X0.587500X-0.150000X0*%
%ADD18RoundRect,0.150000X-0.150000X-0.200000X0.150000X-0.200000X0.150000X0.200000X-0.150000X0.200000X0*%
%ADD19R,1.000000X0.905600*%
%ADD20RoundRect,0.200000X-0.275000X0.200000X-0.275000X-0.200000X0.275000X-0.200000X0.275000X0.200000X0*%
%ADD21RoundRect,0.218750X0.218750X0.256250X-0.218750X0.256250X-0.218750X-0.256250X0.218750X-0.256250X0*%
%ADD22RoundRect,0.218750X0.256250X-0.218750X0.256250X0.218750X-0.256250X0.218750X-0.256250X-0.218750X0*%
G04 APERTURE END LIST*
D10*
%TO.C,C9*%
X75160000Y-26340000D03*
X76765600Y-26340000D03*
%TD*%
%TO.C,C15*%
X173640000Y-64290000D03*
X175245600Y-64290000D03*
%TD*%
D11*
%TO.C,R2*%
X90880000Y-79320000D03*
X90880000Y-77670000D03*
%TD*%
D12*
%TO.C,R4*%
X89510000Y-80740000D03*
X87860000Y-80740000D03*
%TD*%
D13*
%TO.C,D4*%
X132392500Y-50220000D03*
X133967500Y-50220000D03*
%TD*%
D14*
%TO.C,Q2*%
X148960000Y-52190000D03*
X150860000Y-52190000D03*
X149910000Y-50315000D03*
%TD*%
D15*
%TO.C,R15*%
X176825000Y-51990000D03*
X178475000Y-51990000D03*
%TD*%
D16*
%TO.C,D7*%
X128720000Y-34870000D03*
X128720000Y-36270000D03*
%TD*%
D17*
%TO.C,Q3*%
X122197500Y-52440000D03*
X122197500Y-50540000D03*
X120322500Y-51490000D03*
%TD*%
D18*
%TO.C,D8*%
X166330000Y-53100000D03*
X164930000Y-53100000D03*
%TD*%
D10*
%TO.C,C12*%
X136470000Y-113180000D03*
X138075600Y-113180000D03*
%TD*%
D15*
%TO.C,R12*%
X160435000Y-58170000D03*
X162085000Y-58170000D03*
%TD*%
D11*
%TO.C,R22*%
X120830000Y-57545000D03*
X120830000Y-55895000D03*
%TD*%
D10*
%TO.C,C4*%
X172184400Y-103350000D03*
X173790000Y-103350000D03*
%TD*%
D15*
%TO.C,R20*%
X132185000Y-54860000D03*
X133835000Y-54860000D03*
%TD*%
D13*
%TO.C,D2*%
X164705000Y-63670000D03*
X166280000Y-63670000D03*
%TD*%
D19*
%TO.C,C8*%
X129870000Y-77632800D03*
X129870000Y-76027200D03*
%TD*%
D12*
%TO.C,R7*%
X89535000Y-92270000D03*
X87885000Y-92270000D03*
%TD*%
D10*
%TO.C,C11*%
X114730000Y-113030000D03*
X116335600Y-113030000D03*
%TD*%
%TO.C,C10*%
X75174400Y-23590000D03*
X76780000Y-23590000D03*
%TD*%
D19*
%TO.C,C2*%
X76810000Y-70510000D03*
X76810000Y-72115600D03*
%TD*%
D11*
%TO.C,R10*%
X146780000Y-73485000D03*
X146780000Y-71835000D03*
%TD*%
D10*
%TO.C,C7*%
X70854400Y-113240000D03*
X72460000Y-113240000D03*
%TD*%
D15*
%TO.C,R14*%
X137625000Y-57010000D03*
X139275000Y-57010000D03*
%TD*%
D17*
%TO.C,Q1*%
X129467500Y-53342500D03*
X129467500Y-51442500D03*
X127592500Y-52392500D03*
%TD*%
D12*
%TO.C,R6*%
X89530000Y-85220000D03*
X87880000Y-85220000D03*
%TD*%
D11*
%TO.C,R9*%
X150290000Y-73475000D03*
X150290000Y-71825000D03*
%TD*%
D16*
%TO.C,D9*%
X99910000Y-40042500D03*
X99910000Y-41442500D03*
%TD*%
D10*
%TO.C,C6*%
X92947200Y-113210000D03*
X94552800Y-113210000D03*
%TD*%
D12*
%TO.C,R18*%
X161995000Y-54400000D03*
X160345000Y-54400000D03*
%TD*%
D20*
%TO.C,R19*%
X100480000Y-45825000D03*
X100480000Y-47475000D03*
%TD*%
D21*
%TO.C,D3*%
X113150000Y-59550000D03*
X111575000Y-59550000D03*
%TD*%
D12*
%TO.C,R17*%
X134645000Y-57570000D03*
X132995000Y-57570000D03*
%TD*%
D19*
%TO.C,C1*%
X95830000Y-73620000D03*
X95830000Y-72014400D03*
%TD*%
D12*
%TO.C,R8*%
X89475000Y-90320000D03*
X87825000Y-90320000D03*
%TD*%
D21*
%TO.C,D1*%
X145197500Y-57060000D03*
X143622500Y-57060000D03*
%TD*%
D12*
%TO.C,R3*%
X89510000Y-82470000D03*
X87860000Y-82470000D03*
%TD*%
D19*
%TO.C,C13*%
X102050000Y-58145600D03*
X102050000Y-56540000D03*
%TD*%
D10*
%TO.C,C5*%
X47574400Y-89500000D03*
X49180000Y-89500000D03*
%TD*%
D12*
%TO.C,R11*%
X148965000Y-59740000D03*
X147315000Y-59740000D03*
%TD*%
D15*
%TO.C,R13*%
X151385000Y-59750000D03*
X153035000Y-59750000D03*
%TD*%
D11*
%TO.C,R1*%
X93170000Y-79340000D03*
X93170000Y-77690000D03*
%TD*%
D12*
%TO.C,R5*%
X89510000Y-87150000D03*
X87860000Y-87150000D03*
%TD*%
D10*
%TO.C,C3*%
X176017200Y-103310000D03*
X177622800Y-103310000D03*
%TD*%
D22*
%TO.C,D6*%
X104410000Y-51047500D03*
X104410000Y-49472500D03*
%TD*%
D21*
%TO.C,D5*%
X161555000Y-52240000D03*
X159980000Y-52240000D03*
%TD*%
D10*
%TO.C,C14*%
X142402800Y-62270000D03*
X140797200Y-62270000D03*
%TD*%
D11*
%TO.C,R21*%
X148860000Y-56355000D03*
X148860000Y-54705000D03*
%TD*%
D15*
%TO.C,R16*%
X107585000Y-59010000D03*
X109235000Y-59010000D03*
%TD*%
M02*
