%TF.GenerationSoftware,KiCad,Pcbnew,9.0.3*%
%TF.CreationDate,2026-04-01T11:47:12+05:30*%
%TF.ProjectId,Nova_Transducer_PCB_V1P0,4e6f7661-5f54-4726-916e-736475636572,rev?*%
%TF.SameCoordinates,Original*%
%TF.FileFunction,Soldermask,Top*%
%TF.FilePolarity,Negative*%
%FSLAX46Y46*%
G04 Gerber Fmt 4.6, Leading zero omitted, Abs format (unit mm)*
G04 Created by KiCad (PCBNEW 9.0.3) date 2026-04-01 11:47:12*
%MOMM*%
%LPD*%
G01*
G04 APERTURE LIST*
G04 Aperture macros list*
%AMRoundRect*
0 Rectangle with rounded corners*
0 $1 Rounding radius*
0 $2 $3 $4 $5 $6 $7 $8 $9 X,Y pos of 4 corners*
0 Add a 4 corners polygon primitive as box body*
4,1,4,$2,$3,$4,$5,$6,$7,$8,$9,$2,$3,0*
0 Add four circle primitives for the rounded corners*
1,1,$1+$1,$2,$3*
1,1,$1+$1,$4,$5*
1,1,$1+$1,$6,$7*
1,1,$1+$1,$8,$9*
0 Add four rect primitives between the rounded corners*
20,1,$1+$1,$2,$3,$4,$5,0*
20,1,$1+$1,$4,$5,$6,$7,0*
20,1,$1+$1,$6,$7,$8,$9,0*
20,1,$1+$1,$8,$9,$2,$3,0*%
G04 Aperture macros list end*
%ADD10R,0.905600X1.000000*%
%ADD11RoundRect,0.200000X0.275000X-0.200000X0.275000X0.200000X-0.275000X0.200000X-0.275000X-0.200000X0*%
%ADD12RoundRect,0.200000X0.200000X0.275000X-0.200000X0.275000X-0.200000X-0.275000X0.200000X-0.275000X0*%
%ADD13RoundRect,0.250000X0.600000X0.725000X-0.600000X0.725000X-0.600000X-0.725000X0.600000X-0.725000X0*%
%ADD14O,1.700000X1.950000*%
%ADD15RoundRect,0.218750X-0.218750X-0.256250X0.218750X-0.256250X0.218750X0.256250X-0.218750X0.256250X0*%
%ADD16RoundRect,0.150000X0.150000X-0.587500X0.150000X0.587500X-0.150000X0.587500X-0.150000X-0.587500X0*%
%ADD17RoundRect,0.200000X-0.200000X-0.275000X0.200000X-0.275000X0.200000X0.275000X-0.200000X0.275000X0*%
%ADD18RoundRect,0.150000X0.200000X-0.150000X0.200000X0.150000X-0.200000X0.150000X-0.200000X-0.150000X0*%
%ADD19C,3.000000*%
%ADD20C,2.500000*%
%ADD21RoundRect,0.150000X0.587500X0.150000X-0.587500X0.150000X-0.587500X-0.150000X0.587500X-0.150000X0*%
%ADD22RoundRect,0.150000X-0.150000X-0.200000X0.150000X-0.200000X0.150000X0.200000X-0.150000X0.200000X0*%
%ADD23RoundRect,0.250000X0.600000X0.750000X-0.600000X0.750000X-0.600000X-0.750000X0.600000X-0.750000X0*%
%ADD24O,1.700000X2.000000*%
%ADD25R,1.700000X1.700000*%
%ADD26C,1.700000*%
%ADD27C,2.032000*%
%ADD28RoundRect,0.250000X-0.600000X-0.725000X0.600000X-0.725000X0.600000X0.725000X-0.600000X0.725000X0*%
%ADD29C,3.200000*%
%ADD30RoundRect,0.250000X0.550000X0.550000X-0.550000X0.550000X-0.550000X-0.550000X0.550000X-0.550000X0*%
%ADD31C,1.600000*%
%ADD32R,1.000000X0.905600*%
%ADD33RoundRect,0.250000X-0.600000X-0.600000X0.600000X-0.600000X0.600000X0.600000X-0.600000X0.600000X0*%
%ADD34RoundRect,0.250000X1.050000X-1.050000X1.050000X1.050000X-1.050000X1.050000X-1.050000X-1.050000X0*%
%ADD35C,2.600000*%
%ADD36RoundRect,0.250000X0.600000X0.600000X-0.600000X0.600000X-0.600000X-0.600000X0.600000X-0.600000X0*%
%ADD37RoundRect,0.250000X0.725000X-0.600000X0.725000X0.600000X-0.725000X0.600000X-0.725000X-0.600000X0*%
%ADD38O,1.950000X1.700000*%
%ADD39RoundRect,0.200000X-0.275000X0.200000X-0.275000X-0.200000X0.275000X-0.200000X0.275000X0.200000X0*%
%ADD40RoundRect,0.218750X0.218750X0.256250X-0.218750X0.256250X-0.218750X-0.256250X0.218750X-0.256250X0*%
%ADD41RoundRect,0.250000X-0.550000X-0.550000X0.550000X-0.550000X0.550000X0.550000X-0.550000X0.550000X0*%
%ADD42RoundRect,0.218750X0.256250X-0.218750X0.256250X0.218750X-0.256250X0.218750X-0.256250X-0.218750X0*%
G04 APERTURE END LIST*
D10*
%TO.C,C9*%
X75160000Y-26340000D03*
X76765600Y-26340000D03*
%TD*%
%TO.C,C15*%
X173640000Y-64290000D03*
X175245600Y-64290000D03*
%TD*%
D11*
%TO.C,R2*%
X90880000Y-79320000D03*
X90880000Y-77670000D03*
%TD*%
D12*
%TO.C,R4*%
X89510000Y-80740000D03*
X87860000Y-80740000D03*
%TD*%
D13*
%TO.C,J4*%
X169550000Y-108680000D03*
D14*
X167050000Y-108680000D03*
X164550000Y-108680000D03*
X162050000Y-108680000D03*
X159550000Y-108680000D03*
X157050000Y-108680000D03*
%TD*%
D15*
%TO.C,D4*%
X132392500Y-50220000D03*
X133967500Y-50220000D03*
%TD*%
D16*
%TO.C,Q2*%
X148960000Y-52190000D03*
X150860000Y-52190000D03*
X149910000Y-50315000D03*
%TD*%
D17*
%TO.C,R15*%
X176825000Y-51990000D03*
X178475000Y-51990000D03*
%TD*%
D18*
%TO.C,D7*%
X128720000Y-34870000D03*
X128720000Y-36270000D03*
%TD*%
D19*
%TO.C,K3*%
X104490000Y-40040000D03*
D20*
X106440000Y-46090000D03*
D19*
X118640000Y-46090000D03*
X118690000Y-34040000D03*
D20*
X106440000Y-34090000D03*
%TD*%
D21*
%TO.C,Q3*%
X122197500Y-52440000D03*
X122197500Y-50540000D03*
X120322500Y-51490000D03*
%TD*%
D22*
%TO.C,D8*%
X166330000Y-53100000D03*
X164930000Y-53100000D03*
%TD*%
D23*
%TO.C,J19*%
X142770000Y-101110000D03*
D24*
X140270000Y-101110000D03*
%TD*%
D25*
%TO.C,J12*%
X167112500Y-74055000D03*
D26*
X167112500Y-71515000D03*
%TD*%
D10*
%TO.C,C12*%
X136470000Y-113180000D03*
X138075600Y-113180000D03*
%TD*%
D25*
%TO.C,J1*%
X94890000Y-82600000D03*
D26*
X94890000Y-85140000D03*
X94890000Y-87680000D03*
X94890000Y-90220000D03*
%TD*%
D17*
%TO.C,R12*%
X160435000Y-58170000D03*
X162085000Y-58170000D03*
%TD*%
D27*
%TO.C,MAX98357A1*%
X133560000Y-78680000D03*
X136100000Y-78680000D03*
X138640000Y-78680000D03*
X141180000Y-78680000D03*
X143720000Y-78680000D03*
X146260000Y-78680000D03*
X148800000Y-78680000D03*
%TD*%
D28*
%TO.C,J7*%
X70870000Y-108080000D03*
D14*
X73370000Y-108080000D03*
X75870000Y-108080000D03*
X78370000Y-108080000D03*
X80870000Y-108080000D03*
X83370000Y-108080000D03*
%TD*%
D25*
%TO.C,J18*%
X158750000Y-22990000D03*
D26*
X161290000Y-22990000D03*
X163830000Y-22990000D03*
X166370000Y-22990000D03*
%TD*%
D29*
%TO.C,H3*%
X177810000Y-114530000D03*
%TD*%
D11*
%TO.C,R22*%
X120830000Y-57545000D03*
X120830000Y-55895000D03*
%TD*%
D28*
%TO.C,J16*%
X136370000Y-108110000D03*
D14*
X138870000Y-108110000D03*
X141370000Y-108110000D03*
X143870000Y-108110000D03*
X146370000Y-108110000D03*
X148870000Y-108110000D03*
%TD*%
D19*
%TO.C,K2*%
X176780000Y-41470000D03*
D20*
X174830000Y-35420000D03*
D19*
X162630000Y-35420000D03*
X162580000Y-47470000D03*
D20*
X174830000Y-47420000D03*
%TD*%
D10*
%TO.C,C4*%
X172184400Y-103350000D03*
X173790000Y-103350000D03*
%TD*%
D28*
%TO.C,J8*%
X93010000Y-108050000D03*
D14*
X95510000Y-108050000D03*
X98010000Y-108050000D03*
X100510000Y-108050000D03*
X103010000Y-108050000D03*
X105510000Y-108050000D03*
%TD*%
D17*
%TO.C,R20*%
X132185000Y-54860000D03*
X133835000Y-54860000D03*
%TD*%
D30*
%TO.C,U2*%
X144915000Y-53965000D03*
D31*
X144915000Y-51425000D03*
X137295000Y-51425000D03*
X137295000Y-53965000D03*
%TD*%
D15*
%TO.C,D2*%
X164705000Y-63670000D03*
X166280000Y-63670000D03*
%TD*%
D32*
%TO.C,C8*%
X129870000Y-77632800D03*
X129870000Y-76027200D03*
%TD*%
D29*
%TO.C,H2*%
X177680000Y-23830000D03*
%TD*%
D12*
%TO.C,R7*%
X89535000Y-92270000D03*
X87885000Y-92270000D03*
%TD*%
D29*
%TO.C,H1*%
X43030000Y-23840000D03*
%TD*%
D10*
%TO.C,C11*%
X114730000Y-113030000D03*
X116335600Y-113030000D03*
%TD*%
%TO.C,C10*%
X75174400Y-23590000D03*
X76780000Y-23590000D03*
%TD*%
D32*
%TO.C,C2*%
X76810000Y-70510000D03*
X76810000Y-72115600D03*
%TD*%
D33*
%TO.C,U1*%
X99020000Y-72460000D03*
D26*
X99020000Y-75000000D03*
X99020000Y-77540000D03*
X99020000Y-80080000D03*
X99020000Y-82620000D03*
X99020000Y-85160000D03*
X99020000Y-87700000D03*
X99020000Y-89960000D03*
X99020000Y-92380000D03*
X99020000Y-94920000D03*
X99020000Y-97460000D03*
X99020000Y-100000000D03*
X116980000Y-100000000D03*
X116980000Y-97460000D03*
X116980000Y-94920000D03*
X116980000Y-89960000D03*
X116980000Y-87700000D03*
X116980000Y-85160000D03*
X116980000Y-82620000D03*
X116980000Y-80080000D03*
X116980000Y-77540000D03*
X116980000Y-75000000D03*
X116980000Y-72580000D03*
%TD*%
D11*
%TO.C,R10*%
X146780000Y-73485000D03*
X146780000Y-71835000D03*
%TD*%
D10*
%TO.C,C7*%
X70854400Y-113240000D03*
X72460000Y-113240000D03*
%TD*%
D34*
%TO.C,J11*%
X175732500Y-78955000D03*
D35*
X175732500Y-73875000D03*
%TD*%
D19*
%TO.C,K1*%
X150140000Y-40090000D03*
D20*
X148190000Y-34040000D03*
D19*
X135990000Y-34040000D03*
X135940000Y-46090000D03*
D20*
X148190000Y-46040000D03*
%TD*%
D29*
%TO.C,H4*%
X43080000Y-114480000D03*
%TD*%
D25*
%TO.C,J9*%
X46840000Y-76790000D03*
D26*
X46840000Y-74250000D03*
X46840000Y-71710000D03*
X46840000Y-69170000D03*
X46840000Y-66630000D03*
X46840000Y-64090000D03*
X46840000Y-61550000D03*
X46840000Y-59010000D03*
X46840000Y-56470000D03*
X46840000Y-53930000D03*
X46840000Y-51390000D03*
X46840000Y-48850000D03*
X46840000Y-46310000D03*
%TD*%
D17*
%TO.C,R14*%
X137625000Y-57010000D03*
X139275000Y-57010000D03*
%TD*%
D21*
%TO.C,Q1*%
X129467500Y-53342500D03*
X129467500Y-51442500D03*
X127592500Y-52392500D03*
%TD*%
D12*
%TO.C,R6*%
X89530000Y-85220000D03*
X87880000Y-85220000D03*
%TD*%
D36*
%TO.C,J5*%
X61320000Y-89150000D03*
D26*
X58780000Y-89150000D03*
X61320000Y-86610000D03*
X58780000Y-86610000D03*
X61320000Y-84070000D03*
X58780000Y-84070000D03*
X61320000Y-81530000D03*
X58780000Y-81530000D03*
X61320000Y-78990000D03*
X58780000Y-78990000D03*
X61320000Y-76450000D03*
X58780000Y-76450000D03*
X61320000Y-73910000D03*
X58780000Y-73910000D03*
X61320000Y-71370000D03*
X58780000Y-71370000D03*
X61320000Y-68830000D03*
X58780000Y-68830000D03*
X61320000Y-66290000D03*
X58780000Y-66290000D03*
X61320000Y-63750000D03*
X58780000Y-63750000D03*
X61320000Y-61210000D03*
X58780000Y-61210000D03*
X61320000Y-58670000D03*
X58780000Y-58670000D03*
X61320000Y-56130000D03*
X58780000Y-56130000D03*
X61320000Y-53590000D03*
X58780000Y-53590000D03*
X61320000Y-51050000D03*
X58780000Y-51050000D03*
X61320000Y-48510000D03*
X58780000Y-48510000D03*
X61320000Y-45970000D03*
X58780000Y-45970000D03*
X61320000Y-43430000D03*
X58780000Y-43430000D03*
X61320000Y-40890000D03*
X58780000Y-40890000D03*
%TD*%
D30*
%TO.C,U4*%
X115485000Y-54495000D03*
D31*
X115485000Y-51955000D03*
X107865000Y-51955000D03*
X107865000Y-54495000D03*
%TD*%
D37*
%TO.C,J3*%
X175440000Y-98250000D03*
D38*
X175440000Y-95750000D03*
X175440000Y-93250000D03*
X175440000Y-90750000D03*
X175440000Y-88250000D03*
X175440000Y-85750000D03*
%TD*%
D25*
%TO.C,J14*%
X81430000Y-31420000D03*
D26*
X81430000Y-28880000D03*
X83970000Y-31420000D03*
X83970000Y-28880000D03*
X86510000Y-31420000D03*
X86510000Y-28880000D03*
X89050000Y-31420000D03*
X89050000Y-28880000D03*
X91590000Y-31420000D03*
X91590000Y-28880000D03*
%TD*%
D11*
%TO.C,R9*%
X150290000Y-73475000D03*
X150290000Y-71825000D03*
%TD*%
D25*
%TO.C,J10*%
X140235000Y-71290000D03*
D26*
X142775000Y-71290000D03*
%TD*%
D18*
%TO.C,D9*%
X99910000Y-40042500D03*
X99910000Y-41442500D03*
%TD*%
D28*
%TO.C,J17*%
X158710000Y-27030000D03*
D14*
X161210000Y-27030000D03*
X163710000Y-27030000D03*
X166210000Y-27030000D03*
%TD*%
D10*
%TO.C,C6*%
X92947200Y-113210000D03*
X94552800Y-113210000D03*
%TD*%
D12*
%TO.C,R18*%
X161995000Y-54400000D03*
X160345000Y-54400000D03*
%TD*%
D39*
%TO.C,R19*%
X100480000Y-45825000D03*
X100480000Y-47475000D03*
%TD*%
D40*
%TO.C,D3*%
X113150000Y-59550000D03*
X111575000Y-59550000D03*
%TD*%
D12*
%TO.C,R17*%
X134645000Y-57570000D03*
X132995000Y-57570000D03*
%TD*%
D32*
%TO.C,C1*%
X95830000Y-73620000D03*
X95830000Y-72014400D03*
%TD*%
D25*
%TO.C,J13*%
X174332500Y-68520000D03*
D26*
X176872500Y-68520000D03*
%TD*%
D12*
%TO.C,R8*%
X89475000Y-90320000D03*
X87825000Y-90320000D03*
%TD*%
D40*
%TO.C,D1*%
X145197500Y-57060000D03*
X143622500Y-57060000D03*
%TD*%
D12*
%TO.C,R3*%
X89510000Y-82470000D03*
X87860000Y-82470000D03*
%TD*%
D32*
%TO.C,C13*%
X102050000Y-58145600D03*
X102050000Y-56540000D03*
%TD*%
D25*
%TO.C,J2*%
X73180000Y-76450000D03*
D26*
X73180000Y-73910000D03*
X73180000Y-71370000D03*
X73180000Y-68830000D03*
X73180000Y-66290000D03*
X73180000Y-63750000D03*
X73180000Y-61210000D03*
X73180000Y-58670000D03*
X73180000Y-56130000D03*
X73180000Y-53590000D03*
X73180000Y-51050000D03*
X73180000Y-48510000D03*
X73180000Y-45970000D03*
X73180000Y-43430000D03*
%TD*%
D10*
%TO.C,C5*%
X47574400Y-89500000D03*
X49180000Y-89500000D03*
%TD*%
D12*
%TO.C,R11*%
X148965000Y-59740000D03*
X147315000Y-59740000D03*
%TD*%
D17*
%TO.C,R13*%
X151385000Y-59750000D03*
X153035000Y-59750000D03*
%TD*%
D41*
%TO.C,U3*%
X165745000Y-57415000D03*
D31*
X165745000Y-59955000D03*
X173365000Y-59955000D03*
X173365000Y-57415000D03*
%TD*%
D11*
%TO.C,R1*%
X93170000Y-79340000D03*
X93170000Y-77690000D03*
%TD*%
D12*
%TO.C,R5*%
X89510000Y-87150000D03*
X87860000Y-87150000D03*
%TD*%
D10*
%TO.C,C3*%
X176017200Y-103310000D03*
X177622800Y-103310000D03*
%TD*%
D42*
%TO.C,D6*%
X104410000Y-51047500D03*
X104410000Y-49472500D03*
%TD*%
D28*
%TO.C,J15*%
X114740000Y-108080000D03*
D14*
X117240000Y-108080000D03*
X119740000Y-108080000D03*
X122240000Y-108080000D03*
X124740000Y-108080000D03*
X127240000Y-108080000D03*
%TD*%
D25*
%TO.C,J6*%
X122520000Y-72540000D03*
D26*
X122520000Y-75080000D03*
X122520000Y-77620000D03*
X122520000Y-80160000D03*
X122520000Y-82700000D03*
X122520000Y-85240000D03*
X122520000Y-87780000D03*
X122520000Y-90320000D03*
%TD*%
D40*
%TO.C,D5*%
X161555000Y-52240000D03*
X159980000Y-52240000D03*
%TD*%
D10*
%TO.C,C14*%
X142402800Y-62270000D03*
X140797200Y-62270000D03*
%TD*%
D11*
%TO.C,R21*%
X148860000Y-56355000D03*
X148860000Y-54705000D03*
%TD*%
D17*
%TO.C,R16*%
X107585000Y-59010000D03*
X109235000Y-59010000D03*
%TD*%
M02*
