%TF.GenerationSoftware,KiCad,Pcbnew,9.0.3*%
%TF.CreationDate,2026-04-13T10:36:32+05:30*%
%TF.ProjectId,USBC_FEMALE,55534243-5f46-4454-9d41-4c452e6b6963,rev?*%
%TF.SameCoordinates,Original*%
%TF.FileFunction,Paste,Top*%
%TF.FilePolarity,Positive*%
%FSLAX46Y46*%
G04 Gerber Fmt 4.6, Leading zero omitted, Abs format (unit mm)*
G04 Created by KiCad (PCBNEW 9.0.3) date 2026-04-13 10:36:32*
%MOMM*%
%LPD*%
G01*
G04 APERTURE LIST*
%ADD10R,0.300000X1.691000*%
%ADD11R,0.305000X1.691000*%
%ADD12R,0.297000X1.691000*%
%ADD13R,0.800000X1.900000*%
G04 APERTURE END LIST*
D10*
%TO.C,J1*%
X124400000Y-160940500D03*
X124900000Y-160940500D03*
D11*
X125397500Y-160940500D03*
D12*
X125901500Y-160940500D03*
D10*
X126400000Y-160940500D03*
X126900000Y-160940500D03*
X127400000Y-160940500D03*
X127900000Y-160940500D03*
X128400000Y-160940500D03*
X128900000Y-160940500D03*
X129400000Y-160940500D03*
X129900000Y-160940500D03*
D13*
X122908418Y-161625779D03*
X131385526Y-161625779D03*
%TD*%
D10*
%TO.C,J1*%
X209960000Y-118970500D03*
X210460000Y-118970500D03*
D11*
X210957500Y-118970500D03*
D12*
X211461500Y-118970500D03*
D10*
X211960000Y-118970500D03*
X212460000Y-118970500D03*
X212960000Y-118970500D03*
X213460000Y-118970500D03*
X213960000Y-118970500D03*
X214460000Y-118970500D03*
X214960000Y-118970500D03*
X215460000Y-118970500D03*
D13*
X208468418Y-119655779D03*
X216945526Y-119655779D03*
%TD*%
D10*
%TO.C,J1*%
X81620000Y-35030500D03*
X82120000Y-35030500D03*
D11*
X82617500Y-35030500D03*
D12*
X83121500Y-35030500D03*
D10*
X83620000Y-35030500D03*
X84120000Y-35030500D03*
X84620000Y-35030500D03*
X85120000Y-35030500D03*
X85620000Y-35030500D03*
X86120000Y-35030500D03*
X86620000Y-35030500D03*
X87120000Y-35030500D03*
D13*
X80128418Y-35715779D03*
X88605526Y-35715779D03*
%TD*%
D10*
%TO.C,J1*%
X209960000Y-160940500D03*
X210460000Y-160940500D03*
D11*
X210957500Y-160940500D03*
D12*
X211461500Y-160940500D03*
D10*
X211960000Y-160940500D03*
X212460000Y-160940500D03*
X212960000Y-160940500D03*
X213460000Y-160940500D03*
X213960000Y-160940500D03*
X214460000Y-160940500D03*
X214960000Y-160940500D03*
X215460000Y-160940500D03*
D13*
X208468418Y-161625779D03*
X216945526Y-161625779D03*
%TD*%
D10*
%TO.C,J1*%
X81620000Y-77000500D03*
X82120000Y-77000500D03*
D11*
X82617500Y-77000500D03*
D12*
X83121500Y-77000500D03*
D10*
X83620000Y-77000500D03*
X84120000Y-77000500D03*
X84620000Y-77000500D03*
X85120000Y-77000500D03*
X85620000Y-77000500D03*
X86120000Y-77000500D03*
X86620000Y-77000500D03*
X87120000Y-77000500D03*
D13*
X80128418Y-77685779D03*
X88605526Y-77685779D03*
%TD*%
D10*
%TO.C,J1*%
X167180000Y-118970500D03*
X167680000Y-118970500D03*
D11*
X168177500Y-118970500D03*
D12*
X168681500Y-118970500D03*
D10*
X169180000Y-118970500D03*
X169680000Y-118970500D03*
X170180000Y-118970500D03*
X170680000Y-118970500D03*
X171180000Y-118970500D03*
X171680000Y-118970500D03*
X172180000Y-118970500D03*
X172680000Y-118970500D03*
D13*
X165688418Y-119655779D03*
X174165526Y-119655779D03*
%TD*%
D10*
%TO.C,J1*%
X209960000Y-35030500D03*
X210460000Y-35030500D03*
D11*
X210957500Y-35030500D03*
D12*
X211461500Y-35030500D03*
D10*
X211960000Y-35030500D03*
X212460000Y-35030500D03*
X212960000Y-35030500D03*
X213460000Y-35030500D03*
X213960000Y-35030500D03*
X214460000Y-35030500D03*
X214960000Y-35030500D03*
X215460000Y-35030500D03*
D13*
X208468418Y-35715779D03*
X216945526Y-35715779D03*
%TD*%
D10*
%TO.C,J1*%
X124400000Y-77000500D03*
X124900000Y-77000500D03*
D11*
X125397500Y-77000500D03*
D12*
X125901500Y-77000500D03*
D10*
X126400000Y-77000500D03*
X126900000Y-77000500D03*
X127400000Y-77000500D03*
X127900000Y-77000500D03*
X128400000Y-77000500D03*
X128900000Y-77000500D03*
X129400000Y-77000500D03*
X129900000Y-77000500D03*
D13*
X122908418Y-77685779D03*
X131385526Y-77685779D03*
%TD*%
D10*
%TO.C,J1*%
X209960000Y-77000500D03*
X210460000Y-77000500D03*
D11*
X210957500Y-77000500D03*
D12*
X211461500Y-77000500D03*
D10*
X211960000Y-77000500D03*
X212460000Y-77000500D03*
X212960000Y-77000500D03*
X213460000Y-77000500D03*
X213960000Y-77000500D03*
X214460000Y-77000500D03*
X214960000Y-77000500D03*
X215460000Y-77000500D03*
D13*
X208468418Y-77685779D03*
X216945526Y-77685779D03*
%TD*%
D10*
%TO.C,J1*%
X81620000Y-118970500D03*
X82120000Y-118970500D03*
D11*
X82617500Y-118970500D03*
D12*
X83121500Y-118970500D03*
D10*
X83620000Y-118970500D03*
X84120000Y-118970500D03*
X84620000Y-118970500D03*
X85120000Y-118970500D03*
X85620000Y-118970500D03*
X86120000Y-118970500D03*
X86620000Y-118970500D03*
X87120000Y-118970500D03*
D13*
X80128418Y-119655779D03*
X88605526Y-119655779D03*
%TD*%
D10*
%TO.C,J1*%
X167180000Y-160940500D03*
X167680000Y-160940500D03*
D11*
X168177500Y-160940500D03*
D12*
X168681500Y-160940500D03*
D10*
X169180000Y-160940500D03*
X169680000Y-160940500D03*
X170180000Y-160940500D03*
X170680000Y-160940500D03*
X171180000Y-160940500D03*
X171680000Y-160940500D03*
X172180000Y-160940500D03*
X172680000Y-160940500D03*
D13*
X165688418Y-161625779D03*
X174165526Y-161625779D03*
%TD*%
D10*
%TO.C,J1*%
X124400000Y-35030500D03*
X124900000Y-35030500D03*
D11*
X125397500Y-35030500D03*
D12*
X125901500Y-35030500D03*
D10*
X126400000Y-35030500D03*
X126900000Y-35030500D03*
X127400000Y-35030500D03*
X127900000Y-35030500D03*
X128400000Y-35030500D03*
X128900000Y-35030500D03*
X129400000Y-35030500D03*
X129900000Y-35030500D03*
D13*
X122908418Y-35715779D03*
X131385526Y-35715779D03*
%TD*%
D10*
%TO.C,J1*%
X81620000Y-160940500D03*
X82120000Y-160940500D03*
D11*
X82617500Y-160940500D03*
D12*
X83121500Y-160940500D03*
D10*
X83620000Y-160940500D03*
X84120000Y-160940500D03*
X84620000Y-160940500D03*
X85120000Y-160940500D03*
X85620000Y-160940500D03*
X86120000Y-160940500D03*
X86620000Y-160940500D03*
X87120000Y-160940500D03*
D13*
X80128418Y-161625779D03*
X88605526Y-161625779D03*
%TD*%
D10*
%TO.C,J1*%
X124400000Y-118970500D03*
X124900000Y-118970500D03*
D11*
X125397500Y-118970500D03*
D12*
X125901500Y-118970500D03*
D10*
X126400000Y-118970500D03*
X126900000Y-118970500D03*
X127400000Y-118970500D03*
X127900000Y-118970500D03*
X128400000Y-118970500D03*
X128900000Y-118970500D03*
X129400000Y-118970500D03*
X129900000Y-118970500D03*
D13*
X122908418Y-119655779D03*
X131385526Y-119655779D03*
%TD*%
D10*
%TO.C,J1*%
X167180000Y-35030500D03*
X167680000Y-35030500D03*
D11*
X168177500Y-35030500D03*
D12*
X168681500Y-35030500D03*
D10*
X169180000Y-35030500D03*
X169680000Y-35030500D03*
X170180000Y-35030500D03*
X170680000Y-35030500D03*
X171180000Y-35030500D03*
X171680000Y-35030500D03*
X172180000Y-35030500D03*
X172680000Y-35030500D03*
D13*
X165688418Y-35715779D03*
X174165526Y-35715779D03*
%TD*%
D10*
%TO.C,J1*%
X167180000Y-77000500D03*
X167680000Y-77000500D03*
D11*
X168177500Y-77000500D03*
D12*
X168681500Y-77000500D03*
D10*
X169180000Y-77000500D03*
X169680000Y-77000500D03*
X170180000Y-77000500D03*
X170680000Y-77000500D03*
X171180000Y-77000500D03*
X171680000Y-77000500D03*
X172180000Y-77000500D03*
X172680000Y-77000500D03*
D13*
X165688418Y-77685779D03*
X174165526Y-77685779D03*
%TD*%
M02*
