%TF.GenerationSoftware,KiCad,Pcbnew,9.0.3*%
%TF.CreationDate,2026-04-13T10:36:32+05:30*%
%TF.ProjectId,USBC_FEMALE,55534243-5f46-4454-9d41-4c452e6b6963,rev?*%
%TF.SameCoordinates,Original*%
%TF.FileFunction,OtherDrawing,Comment*%
%FSLAX46Y46*%
G04 Gerber Fmt 4.6, Leading zero omitted, Abs format (unit mm)*
G04 Created by KiCad (PCBNEW 9.0.3) date 2026-04-13 10:36:32*
%MOMM*%
%LPD*%
G01*
G04 APERTURE LIST*
%ADD10C,0.100000*%
G04 APERTURE END LIST*
D10*
%TO.C,J1*%
X124092000Y-160516000D02*
X122451000Y-160516000D01*
X124097000Y-159908000D02*
X124092000Y-160516000D01*
X130203000Y-159908000D02*
X124097000Y-159908000D01*
X130203000Y-159908000D02*
X130203000Y-160516000D01*
X130203000Y-160516000D02*
X131849000Y-160516000D01*
X209652000Y-118546000D02*
X208011000Y-118546000D01*
X209657000Y-117938000D02*
X209652000Y-118546000D01*
X215763000Y-117938000D02*
X209657000Y-117938000D01*
X215763000Y-117938000D02*
X215763000Y-118546000D01*
X215763000Y-118546000D02*
X217409000Y-118546000D01*
X81312000Y-34606000D02*
X79671000Y-34606000D01*
X81317000Y-33998000D02*
X81312000Y-34606000D01*
X87423000Y-33998000D02*
X81317000Y-33998000D01*
X87423000Y-33998000D02*
X87423000Y-34606000D01*
X87423000Y-34606000D02*
X89069000Y-34606000D01*
X209652000Y-160516000D02*
X208011000Y-160516000D01*
X209657000Y-159908000D02*
X209652000Y-160516000D01*
X215763000Y-159908000D02*
X209657000Y-159908000D01*
X215763000Y-159908000D02*
X215763000Y-160516000D01*
X215763000Y-160516000D02*
X217409000Y-160516000D01*
X81312000Y-76576000D02*
X79671000Y-76576000D01*
X81317000Y-75968000D02*
X81312000Y-76576000D01*
X87423000Y-75968000D02*
X81317000Y-75968000D01*
X87423000Y-75968000D02*
X87423000Y-76576000D01*
X87423000Y-76576000D02*
X89069000Y-76576000D01*
X166872000Y-118546000D02*
X165231000Y-118546000D01*
X166877000Y-117938000D02*
X166872000Y-118546000D01*
X172983000Y-117938000D02*
X166877000Y-117938000D01*
X172983000Y-117938000D02*
X172983000Y-118546000D01*
X172983000Y-118546000D02*
X174629000Y-118546000D01*
X209652000Y-34606000D02*
X208011000Y-34606000D01*
X209657000Y-33998000D02*
X209652000Y-34606000D01*
X215763000Y-33998000D02*
X209657000Y-33998000D01*
X215763000Y-33998000D02*
X215763000Y-34606000D01*
X215763000Y-34606000D02*
X217409000Y-34606000D01*
X124092000Y-76576000D02*
X122451000Y-76576000D01*
X124097000Y-75968000D02*
X124092000Y-76576000D01*
X130203000Y-75968000D02*
X124097000Y-75968000D01*
X130203000Y-75968000D02*
X130203000Y-76576000D01*
X130203000Y-76576000D02*
X131849000Y-76576000D01*
X209652000Y-76576000D02*
X208011000Y-76576000D01*
X209657000Y-75968000D02*
X209652000Y-76576000D01*
X215763000Y-75968000D02*
X209657000Y-75968000D01*
X215763000Y-75968000D02*
X215763000Y-76576000D01*
X215763000Y-76576000D02*
X217409000Y-76576000D01*
X81312000Y-118546000D02*
X79671000Y-118546000D01*
X81317000Y-117938000D02*
X81312000Y-118546000D01*
X87423000Y-117938000D02*
X81317000Y-117938000D01*
X87423000Y-117938000D02*
X87423000Y-118546000D01*
X87423000Y-118546000D02*
X89069000Y-118546000D01*
X166872000Y-160516000D02*
X165231000Y-160516000D01*
X166877000Y-159908000D02*
X166872000Y-160516000D01*
X172983000Y-159908000D02*
X166877000Y-159908000D01*
X172983000Y-159908000D02*
X172983000Y-160516000D01*
X172983000Y-160516000D02*
X174629000Y-160516000D01*
X124092000Y-34606000D02*
X122451000Y-34606000D01*
X124097000Y-33998000D02*
X124092000Y-34606000D01*
X130203000Y-33998000D02*
X124097000Y-33998000D01*
X130203000Y-33998000D02*
X130203000Y-34606000D01*
X130203000Y-34606000D02*
X131849000Y-34606000D01*
X81312000Y-160516000D02*
X79671000Y-160516000D01*
X81317000Y-159908000D02*
X81312000Y-160516000D01*
X87423000Y-159908000D02*
X81317000Y-159908000D01*
X87423000Y-159908000D02*
X87423000Y-160516000D01*
X87423000Y-160516000D02*
X89069000Y-160516000D01*
X124092000Y-118546000D02*
X122451000Y-118546000D01*
X124097000Y-117938000D02*
X124092000Y-118546000D01*
X130203000Y-117938000D02*
X124097000Y-117938000D01*
X130203000Y-117938000D02*
X130203000Y-118546000D01*
X130203000Y-118546000D02*
X131849000Y-118546000D01*
X166872000Y-34606000D02*
X165231000Y-34606000D01*
X166877000Y-33998000D02*
X166872000Y-34606000D01*
X172983000Y-33998000D02*
X166877000Y-33998000D01*
X172983000Y-33998000D02*
X172983000Y-34606000D01*
X172983000Y-34606000D02*
X174629000Y-34606000D01*
X166872000Y-76576000D02*
X165231000Y-76576000D01*
X166877000Y-75968000D02*
X166872000Y-76576000D01*
X172983000Y-75968000D02*
X166877000Y-75968000D01*
X172983000Y-75968000D02*
X172983000Y-76576000D01*
X172983000Y-76576000D02*
X174629000Y-76576000D01*
%TD*%
M02*
