%TF.GenerationSoftware,KiCad,Pcbnew,9.0.3*%
%TF.CreationDate,2026-04-13T10:36:32+05:30*%
%TF.ProjectId,USBC_FEMALE,55534243-5f46-4454-9d41-4c452e6b6963,rev?*%
%TF.SameCoordinates,Original*%
%TF.FileFunction,Profile,NP*%
%FSLAX46Y46*%
G04 Gerber Fmt 4.6, Leading zero omitted, Abs format (unit mm)*
G04 Created by KiCad (PCBNEW 9.0.3) date 2026-04-13 10:36:32*
%MOMM*%
%LPD*%
G01*
G04 APERTURE LIST*
%TA.AperFunction,Profile*%
%ADD10C,0.100000*%
%TD*%
G04 APERTURE END LIST*
D10*
X203270000Y-147910000D02*
X203270000Y-138902217D01*
X200270000Y-54961329D02*
X200270000Y-63970000D01*
X166870000Y-160516000D02*
X160420000Y-160516000D01*
X96910000Y-118529369D02*
X96910000Y-108940000D01*
X192780000Y-79850000D02*
X195780000Y-79850000D01*
X144000000Y-121820000D02*
X147000000Y-121820000D01*
X229560000Y-96820000D02*
X231560000Y-96820000D01*
X144000000Y-138790000D02*
X147000000Y-138790000D01*
X225250000Y-160499369D02*
X225250000Y-150910000D01*
X160420000Y-160516000D02*
X160420000Y-150910000D01*
X110220000Y-138680000D02*
X110220000Y-138900000D01*
X65440000Y-118820000D02*
X65440000Y-108940000D01*
X192780000Y-138680000D02*
X195780000Y-138680000D01*
X114710000Y-63970000D02*
X107220000Y-63970000D01*
X229560000Y-180880000D02*
X229560000Y-180760000D01*
X147000000Y-177760000D02*
X144000000Y-177760000D01*
X209650000Y-75970000D02*
X209650000Y-76576000D01*
X144000000Y-51850000D02*
X144000000Y-37880000D01*
X67440000Y-121820000D02*
X67440000Y-135680000D01*
X166870000Y-159910000D02*
X166870000Y-160516000D01*
X136710000Y-180877841D02*
X136710000Y-189880000D01*
X87420000Y-118550000D02*
X87420000Y-117940000D01*
X117710000Y-189880000D02*
X117710000Y-180872217D01*
X147000000Y-63970000D02*
X139710000Y-63970000D01*
X101220000Y-177760000D02*
X101220000Y-163790000D01*
X225250000Y-76559369D02*
X225250000Y-66970000D01*
X104220000Y-189880000D02*
X96930000Y-189880000D01*
X114640000Y-34606000D02*
X110220000Y-34606000D01*
X229560000Y-34880000D02*
X229560000Y-34580000D01*
X65440000Y-51740000D02*
X65440000Y-37880000D01*
X203200000Y-150910000D02*
X222250000Y-150910000D01*
X87420000Y-34000000D02*
X81310000Y-34000000D01*
X195780000Y-54960000D02*
X200270000Y-54961329D01*
X136690000Y-25000000D02*
X136690000Y-34595891D01*
X110220000Y-180650000D02*
X110220000Y-180870000D01*
X104220000Y-160790000D02*
X101220000Y-160790000D01*
X67440000Y-177650000D02*
X65440000Y-177650000D01*
X67440000Y-76850000D02*
X65440000Y-76850000D01*
X160420000Y-25000000D02*
X179470000Y-25000000D01*
X192780000Y-96710000D02*
X195780000Y-96710000D01*
X189780000Y-135790000D02*
X186780000Y-135790000D01*
X114640000Y-108940000D02*
X114640000Y-118546000D01*
X153000000Y-160790000D02*
X150000000Y-160790000D01*
X110220000Y-160516000D02*
X110220000Y-160790000D01*
X65440000Y-138680000D02*
X67440000Y-138680000D01*
X110220000Y-138900000D02*
X114710000Y-138901329D01*
X107220000Y-76850000D02*
X107220000Y-66970000D01*
X110220000Y-180870000D02*
X114710000Y-180871329D01*
X130200000Y-75970000D02*
X124090000Y-75970000D01*
X195780000Y-96710000D02*
X195780000Y-96930000D01*
X139690000Y-150910000D02*
X147000000Y-150910000D01*
X182490000Y-180878730D02*
X186780000Y-180880000D01*
X101220000Y-34880000D02*
X101220000Y-34580000D01*
X114710000Y-189880000D02*
X107220000Y-189880000D01*
X81310000Y-75970000D02*
X81310000Y-76576000D01*
X229560000Y-76550000D02*
X225250000Y-76559369D01*
X81310000Y-118546000D02*
X74860000Y-118546000D01*
X144000000Y-37880000D02*
X147000000Y-37880000D01*
X222250000Y-150910000D02*
X222250000Y-160505891D01*
X93930000Y-63970000D02*
X74930000Y-63970000D01*
X186780000Y-34880000D02*
X186780000Y-34580000D01*
X139710000Y-54968730D02*
X144000000Y-54970000D01*
X200200000Y-160516000D02*
X195780000Y-160516000D01*
X157490000Y-138901329D02*
X157490000Y-147910000D01*
X147000000Y-121820000D02*
X147000000Y-135790000D01*
X87420000Y-34610000D02*
X87420000Y-34000000D01*
X231560000Y-108940000D02*
X231560000Y-118820000D01*
X130200000Y-34610000D02*
X130200000Y-34000000D01*
X130200000Y-76580000D02*
X130200000Y-75970000D01*
X114710000Y-96931329D02*
X114710000Y-105940000D01*
X195780000Y-118546000D02*
X195780000Y-118820000D01*
X229560000Y-118820000D02*
X229560000Y-118520000D01*
X117640000Y-76576000D02*
X117640000Y-66970000D01*
X200200000Y-150910000D02*
X200200000Y-160516000D01*
X157490000Y-105940000D02*
X150000000Y-105940000D01*
X195780000Y-93710000D02*
X192780000Y-93710000D01*
X87420000Y-117940000D02*
X81310000Y-117940000D01*
X93930000Y-147910000D02*
X74930000Y-147910000D01*
X203270000Y-105940000D02*
X203270000Y-96932217D01*
X136690000Y-34595891D02*
X130200000Y-34610000D01*
X231560000Y-163790000D02*
X231560000Y-177760000D01*
X153000000Y-34880000D02*
X150000000Y-34880000D01*
X195780000Y-135680000D02*
X192780000Y-135680000D01*
X147000000Y-96820000D02*
X147000000Y-105940000D01*
X203270000Y-189880000D02*
X203270000Y-180872217D01*
X114710000Y-180871329D02*
X114710000Y-189880000D01*
X114640000Y-160516000D02*
X110220000Y-160516000D01*
X147000000Y-51850000D02*
X144000000Y-51850000D01*
X231560000Y-160790000D02*
X229560000Y-160790000D01*
X150000000Y-34000000D02*
X150000000Y-25000500D01*
X104220000Y-180760000D02*
X104220000Y-180880000D01*
X107220000Y-34000000D02*
X107220000Y-25000500D01*
X182470000Y-150910000D02*
X189780000Y-150910000D01*
X65440000Y-147910000D02*
X65440000Y-138680000D01*
X203200000Y-108940000D02*
X222250000Y-108940000D01*
X231560000Y-150910000D02*
X231560000Y-160790000D01*
X144000000Y-76850000D02*
X144000000Y-76550000D01*
X65440000Y-63970000D02*
X65440000Y-54740000D01*
X67440000Y-105940000D02*
X65440000Y-105940000D01*
X150000000Y-177650000D02*
X150000000Y-163790000D01*
X225270000Y-105940000D02*
X225270000Y-96938730D01*
X139710000Y-189880000D02*
X139710000Y-180878730D01*
X67440000Y-96710000D02*
X67440000Y-96930000D01*
X229560000Y-79850000D02*
X231560000Y-79850000D01*
X74930000Y-147910000D02*
X74930000Y-138902217D01*
X104220000Y-93820000D02*
X101220000Y-93820000D01*
X153000000Y-135680000D02*
X150000000Y-135680000D01*
X195780000Y-160790000D02*
X192780000Y-160790000D01*
X81310000Y-159910000D02*
X81310000Y-160516000D01*
X107220000Y-180880000D02*
X107220000Y-180650000D01*
X186780000Y-118520000D02*
X182470000Y-118529369D01*
X195780000Y-96930000D02*
X200270000Y-96931329D01*
X192780000Y-105940000D02*
X192780000Y-96710000D01*
X71860000Y-34606000D02*
X67440000Y-34606000D01*
X189780000Y-96820000D02*
X189780000Y-105940000D01*
X186780000Y-93820000D02*
X186780000Y-79850000D01*
X209650000Y-159910000D02*
X209650000Y-160516000D01*
X96910000Y-66970000D02*
X104220000Y-66970000D01*
X101220000Y-76850000D02*
X101220000Y-76550000D01*
X71930000Y-180871329D02*
X71930000Y-189880000D01*
X67440000Y-163790000D02*
X67440000Y-177650000D01*
X117710000Y-147910000D02*
X117710000Y-138902217D01*
X153000000Y-177650000D02*
X150000000Y-177650000D01*
X189780000Y-63970000D02*
X182490000Y-63970000D01*
X189780000Y-79850000D02*
X189780000Y-93820000D01*
X229560000Y-138910000D02*
X229560000Y-138790000D01*
X67440000Y-51740000D02*
X65440000Y-51740000D01*
X189780000Y-93820000D02*
X186780000Y-93820000D01*
X150000000Y-138680000D02*
X153000000Y-138680000D01*
X144000000Y-135790000D02*
X144000000Y-121820000D01*
X195780000Y-34880000D02*
X192780000Y-34880000D01*
X172980000Y-118550000D02*
X172980000Y-117940000D01*
X96910000Y-160499369D02*
X96910000Y-150910000D01*
X153000000Y-180870000D02*
X157490000Y-180871329D01*
X67440000Y-160790000D02*
X65440000Y-160790000D01*
X203270000Y-138902217D02*
X222270000Y-138907841D01*
X209650000Y-160516000D02*
X203200000Y-160516000D01*
X96910000Y-108940000D02*
X104220000Y-108940000D01*
X114640000Y-25000000D02*
X114640000Y-34606000D01*
X101220000Y-76550000D02*
X96910000Y-76559369D01*
X186780000Y-96820000D02*
X189780000Y-96820000D01*
X231560000Y-177760000D02*
X229560000Y-177760000D01*
X186780000Y-54850000D02*
X189780000Y-54850000D01*
X186780000Y-37880000D02*
X189780000Y-37880000D01*
X117710000Y-63970000D02*
X117710000Y-54962217D01*
X144000000Y-93820000D02*
X144000000Y-79850000D01*
X65440000Y-189880000D02*
X65440000Y-180650000D01*
X153000000Y-93710000D02*
X150000000Y-93710000D01*
X195780000Y-138680000D02*
X195780000Y-138900000D01*
X195780000Y-138900000D02*
X200270000Y-138901329D01*
X136710000Y-105940000D02*
X117710000Y-105940000D01*
X179490000Y-138907841D02*
X179490000Y-147910000D01*
X182470000Y-25000000D02*
X200200000Y-25000000D01*
X222270000Y-189880000D02*
X203270000Y-189880000D01*
X215760000Y-34000000D02*
X209650000Y-34000000D01*
X192780000Y-121820000D02*
X195780000Y-121820000D01*
X153000000Y-54960000D02*
X157490000Y-54961329D01*
X124090000Y-34000000D02*
X124090000Y-34606000D01*
X101220000Y-118820000D02*
X101220000Y-118520000D01*
X200270000Y-105940000D02*
X192780000Y-105940000D01*
X110220000Y-163790000D02*
X110220000Y-177650000D01*
X192780000Y-147910000D02*
X192780000Y-138680000D01*
X203200000Y-34606000D02*
X203200000Y-25000000D01*
X166870000Y-76576000D02*
X160420000Y-76576000D01*
X222250000Y-25000000D02*
X222250000Y-34595891D01*
X153000000Y-96930000D02*
X157490000Y-96931329D01*
X209650000Y-34606000D02*
X203200000Y-34606000D01*
X222250000Y-118535891D02*
X215760000Y-118550000D01*
X136710000Y-54967841D02*
X136710000Y-63970000D01*
X189780000Y-180880000D02*
X189780000Y-189880000D01*
X65440000Y-135680000D02*
X65440000Y-121820000D01*
X153000000Y-118546000D02*
X153000000Y-118820000D01*
X231560000Y-147910000D02*
X229560000Y-147910000D01*
X136690000Y-150910000D02*
X136690000Y-160505891D01*
X136690000Y-160505891D02*
X130200000Y-160520000D01*
X160420000Y-118546000D02*
X160420000Y-108940000D01*
X147000000Y-54850000D02*
X147000000Y-63970000D01*
X189780000Y-160790000D02*
X186780000Y-160790000D01*
X107220000Y-93710000D02*
X107220000Y-79850000D01*
X144000000Y-138910000D02*
X144000000Y-138790000D01*
X139710000Y-63970000D02*
X139710000Y-54968730D01*
X139690000Y-25000000D02*
X157420000Y-25000000D01*
X93910000Y-108940000D02*
X93910000Y-118535891D01*
X192780000Y-25000500D02*
X189780000Y-25000500D01*
X153000000Y-34606000D02*
X153000000Y-34880000D01*
X124090000Y-160516000D02*
X117640000Y-160516000D01*
X182470000Y-66970000D02*
X189780000Y-66970000D01*
X222250000Y-160505891D02*
X215760000Y-160520000D01*
X229560000Y-54970000D02*
X229560000Y-54850000D01*
X124090000Y-34606000D02*
X117640000Y-34606000D01*
X186780000Y-121820000D02*
X189780000Y-121820000D01*
X160490000Y-180872217D02*
X179490000Y-180877841D01*
X101220000Y-135790000D02*
X101220000Y-121820000D01*
X225250000Y-25000000D02*
X231560000Y-25000000D01*
X222270000Y-180877841D02*
X222270000Y-189880000D01*
X189780000Y-147910000D02*
X182490000Y-147910000D01*
X104220000Y-121820000D02*
X104220000Y-135790000D01*
X186780000Y-135790000D02*
X186780000Y-121820000D01*
X104220000Y-63970000D02*
X96930000Y-63970000D01*
X104220000Y-96820000D02*
X104220000Y-105940000D01*
X186780000Y-177760000D02*
X186780000Y-163790000D01*
X195780000Y-180650000D02*
X195780000Y-180870000D01*
X150000000Y-93710000D02*
X150000000Y-79850000D01*
X189780000Y-189880000D02*
X182490000Y-189880000D01*
X96930000Y-63970000D02*
X96930000Y-54968730D01*
X189780000Y-105940000D02*
X182490000Y-105940000D01*
X139690000Y-160499369D02*
X139690000Y-150910000D01*
X192780000Y-180880000D02*
X192780000Y-180650000D01*
X166870000Y-117940000D02*
X166870000Y-118546000D01*
X96910000Y-76559369D02*
X96910000Y-66970000D01*
X166870000Y-118546000D02*
X160420000Y-118546000D01*
X179490000Y-63970000D02*
X160490000Y-63970000D01*
X136710000Y-63970000D02*
X117710000Y-63970000D01*
X147000000Y-34880000D02*
X144000000Y-34880000D01*
X110220000Y-96710000D02*
X110220000Y-96930000D01*
X107220000Y-121820000D02*
X110220000Y-121820000D01*
X71860000Y-160516000D02*
X67440000Y-160516000D01*
X147000000Y-93820000D02*
X144000000Y-93820000D01*
X107220000Y-37880000D02*
X110220000Y-37880000D01*
X93930000Y-105940000D02*
X74930000Y-105940000D01*
X200200000Y-66970000D02*
X200200000Y-76576000D01*
X81310000Y-117940000D02*
X81310000Y-118546000D01*
X139710000Y-105940000D02*
X139710000Y-96938730D01*
X189780000Y-34880000D02*
X186780000Y-34880000D01*
X150000000Y-147910000D02*
X150000000Y-138680000D01*
X157420000Y-160516000D02*
X153000000Y-160516000D01*
X104220000Y-34880000D02*
X101220000Y-34880000D01*
X160420000Y-66970000D02*
X179470000Y-66970000D01*
X229560000Y-66970000D02*
X231560000Y-66970000D01*
X150000000Y-25000500D02*
X147000000Y-25000500D01*
X222270000Y-54967841D02*
X222270000Y-63970000D01*
X231560000Y-118820000D02*
X229560000Y-118820000D01*
X229560000Y-135790000D02*
X229560000Y-121820000D01*
X107220000Y-66970000D02*
X114640000Y-66970000D01*
X93910000Y-34595891D02*
X87420000Y-34610000D01*
X157420000Y-76576000D02*
X153000000Y-76576000D01*
X107220000Y-96710000D02*
X110220000Y-96710000D01*
X215760000Y-34610000D02*
X215760000Y-34000000D01*
X136690000Y-118535891D02*
X130200000Y-118550000D01*
X225250000Y-150910000D02*
X229560000Y-150910000D01*
X71930000Y-138901329D02*
X71930000Y-147910000D01*
X231560000Y-51850000D02*
X229560000Y-51850000D01*
X87420000Y-76580000D02*
X87420000Y-75970000D01*
X67440000Y-138680000D02*
X67440000Y-138900000D01*
X229560000Y-63970000D02*
X225270000Y-63970000D01*
X182490000Y-147910000D02*
X182490000Y-138908730D01*
X74930000Y-105940000D02*
X74930000Y-96932217D01*
X147000000Y-108940000D02*
X147000000Y-118820000D01*
X229560000Y-121820000D02*
X231560000Y-121820000D01*
X157490000Y-63970000D02*
X150000000Y-63970000D01*
X186780000Y-76550000D02*
X182470000Y-76559369D01*
X186780000Y-96940000D02*
X186780000Y-96820000D01*
X215760000Y-117940000D02*
X209650000Y-117940000D01*
X225250000Y-66970000D02*
X229560000Y-66970000D01*
X215760000Y-75970000D02*
X209650000Y-75970000D01*
X222250000Y-34595891D02*
X215760000Y-34610000D01*
X124090000Y-118546000D02*
X117640000Y-118546000D01*
X130200000Y-159910000D02*
X124090000Y-159910000D01*
X71930000Y-54961329D02*
X71930000Y-63970000D01*
X144000000Y-180760000D02*
X147000000Y-180760000D01*
X147000000Y-118820000D02*
X144000000Y-118820000D01*
X189780000Y-163790000D02*
X189780000Y-177760000D01*
X71930000Y-189880000D02*
X65440000Y-189880000D01*
X160490000Y-105940000D02*
X160490000Y-96932217D01*
X107220000Y-189880000D02*
X107220000Y-180880000D01*
X67440000Y-160516000D02*
X67440000Y-160790000D01*
X65440000Y-25000000D02*
X71860000Y-25000000D01*
X147000000Y-34000000D02*
X147000000Y-34880000D01*
X157490000Y-54961329D02*
X157490000Y-63970000D01*
X96910000Y-150910000D02*
X104220000Y-150910000D01*
X74860000Y-118546000D02*
X74860000Y-108940000D01*
X192780000Y-108940000D02*
X200200000Y-108940000D01*
X192780000Y-150910000D02*
X200200000Y-150910000D01*
X150000000Y-135680000D02*
X150000000Y-121820000D01*
X172980000Y-34610000D02*
X172980000Y-34000000D01*
X71860000Y-66970000D02*
X71860000Y-76576000D01*
X189780000Y-118820000D02*
X186780000Y-118820000D01*
X117710000Y-138902217D02*
X136710000Y-138907841D01*
X186780000Y-138910000D02*
X186780000Y-138790000D01*
X195780000Y-79850000D02*
X195780000Y-93710000D01*
X200270000Y-96931329D02*
X200270000Y-105940000D01*
X186780000Y-160490000D02*
X182470000Y-160499369D01*
X229560000Y-138790000D02*
X231560000Y-138790000D01*
X104220000Y-105940000D02*
X96930000Y-105940000D01*
X124090000Y-75970000D02*
X124090000Y-76576000D01*
X225270000Y-189880000D02*
X225270000Y-180878730D01*
X192780000Y-34000000D02*
X192780000Y-25000500D01*
X65440000Y-54740000D02*
X67440000Y-54740000D01*
X74860000Y-66970000D02*
X93910000Y-66970000D01*
X101220000Y-138790000D02*
X104220000Y-138790000D01*
X179470000Y-150910000D02*
X179470000Y-160505891D01*
X107220000Y-147910000D02*
X107220000Y-138680000D01*
X114710000Y-105940000D02*
X107220000Y-105940000D01*
X166870000Y-75970000D02*
X166870000Y-76576000D01*
X71930000Y-63970000D02*
X67440000Y-63970000D01*
X150000000Y-51740000D02*
X150000000Y-37880000D01*
X139710000Y-138908730D02*
X144000000Y-138910000D01*
X110220000Y-160790000D02*
X107220000Y-160790000D01*
X179470000Y-108940000D02*
X179470000Y-118535891D01*
X101220000Y-160790000D02*
X101220000Y-160490000D01*
X200200000Y-118546000D02*
X195780000Y-118546000D01*
X67440000Y-76576000D02*
X67440000Y-76850000D01*
X96910000Y-34589369D02*
X96910000Y-25000000D01*
X65440000Y-34880000D02*
X65440000Y-25000000D01*
X117640000Y-150910000D02*
X136690000Y-150910000D01*
X150000000Y-180650000D02*
X153000000Y-180650000D01*
X96930000Y-147910000D02*
X96930000Y-138908730D01*
X157420000Y-108940000D02*
X157420000Y-118546000D01*
X74860000Y-150910000D02*
X93910000Y-150910000D01*
X189780000Y-108940000D02*
X189780000Y-118820000D01*
X231560000Y-189880000D02*
X225270000Y-189880000D01*
X186780000Y-180760000D02*
X189780000Y-180760000D01*
X229560000Y-93820000D02*
X229560000Y-79850000D01*
X229560000Y-54850000D02*
X231560000Y-54850000D01*
X153000000Y-138900000D02*
X157490000Y-138901329D01*
X203270000Y-54962217D02*
X222270000Y-54967841D01*
X96930000Y-105940000D02*
X96930000Y-96938730D01*
X136690000Y-66970000D02*
X136690000Y-76565891D01*
X144000000Y-177760000D02*
X144000000Y-163790000D01*
X74930000Y-96932217D02*
X93930000Y-96937841D01*
X157490000Y-147910000D02*
X150000000Y-147910000D01*
X71860000Y-150910000D02*
X71860000Y-160516000D01*
X222270000Y-147910000D02*
X203270000Y-147910000D01*
X147000000Y-147910000D02*
X139710000Y-147910000D01*
X104220000Y-79850000D02*
X104220000Y-93820000D01*
X150000000Y-63970000D02*
X150000000Y-54740000D01*
X229560000Y-76850000D02*
X229560000Y-76550000D01*
X144000000Y-54850000D02*
X147000000Y-54850000D01*
X136710000Y-96937841D02*
X136710000Y-105940000D01*
X215760000Y-76580000D02*
X215760000Y-75970000D01*
X203200000Y-25000000D02*
X222250000Y-25000000D01*
X153000000Y-118820000D02*
X150000000Y-118820000D01*
X93910000Y-150910000D02*
X93910000Y-160505891D01*
X150000000Y-163790000D02*
X153000000Y-163790000D01*
X65440000Y-96710000D02*
X67440000Y-96710000D01*
X225250000Y-118529369D02*
X225250000Y-108940000D01*
X74860000Y-76576000D02*
X74860000Y-66970000D01*
X186780000Y-118820000D02*
X186780000Y-118520000D01*
X229560000Y-163790000D02*
X231560000Y-163790000D01*
X71860000Y-118546000D02*
X67440000Y-118546000D01*
X107220000Y-63970000D02*
X107220000Y-54740000D01*
X67440000Y-34880000D02*
X65440000Y-34880000D01*
X96930000Y-189880000D02*
X96930000Y-180878730D01*
X67440000Y-135680000D02*
X65440000Y-135680000D01*
X153000000Y-121820000D02*
X153000000Y-135680000D01*
X93930000Y-54967841D02*
X93930000Y-63970000D01*
X104220000Y-150910000D02*
X104220000Y-160790000D01*
X189780000Y-37880000D02*
X189780000Y-51850000D01*
X136710000Y-138907841D02*
X136710000Y-147910000D01*
X139690000Y-76559369D02*
X139690000Y-66970000D01*
X200270000Y-189880000D02*
X192780000Y-189880000D01*
X114640000Y-66970000D02*
X114640000Y-76576000D01*
X67440000Y-93710000D02*
X65440000Y-93710000D01*
X136710000Y-189880000D02*
X117710000Y-189880000D01*
X139690000Y-118529369D02*
X139690000Y-108940000D01*
X229560000Y-147910000D02*
X225270000Y-147910000D01*
X231560000Y-135790000D02*
X229560000Y-135790000D01*
X130200000Y-34000000D02*
X124090000Y-34000000D01*
X150000000Y-121820000D02*
X153000000Y-121820000D01*
X104220000Y-163790000D02*
X104220000Y-177760000D01*
X179470000Y-25000000D02*
X179470000Y-34595891D01*
X117710000Y-96932217D02*
X136710000Y-96937841D01*
X74860000Y-108940000D02*
X93910000Y-108940000D01*
X67440000Y-147910000D02*
X65440000Y-147910000D01*
X104220000Y-147910000D02*
X96930000Y-147910000D01*
X96910000Y-25000000D02*
X114640000Y-25000000D01*
X186780000Y-76850000D02*
X186780000Y-76550000D01*
X110220000Y-51740000D02*
X107220000Y-51740000D01*
X231560000Y-138790000D02*
X231560000Y-147910000D01*
X110220000Y-121820000D02*
X110220000Y-135680000D01*
X147000000Y-163790000D02*
X147000000Y-177760000D01*
X96930000Y-96938730D02*
X101220000Y-96940000D01*
X222270000Y-105940000D02*
X203270000Y-105940000D01*
X65440000Y-163790000D02*
X67440000Y-163790000D01*
X189780000Y-150910000D02*
X189780000Y-160790000D01*
X87420000Y-159910000D02*
X81310000Y-159910000D01*
X67440000Y-66970000D02*
X71860000Y-66970000D01*
X150000000Y-108940000D02*
X157420000Y-108940000D01*
X139710000Y-96938730D02*
X144000000Y-96940000D01*
X114640000Y-150910000D02*
X114640000Y-160516000D01*
X179470000Y-66970000D02*
X179470000Y-76565891D01*
X160420000Y-150910000D02*
X179470000Y-150910000D01*
X74930000Y-63970000D02*
X74930000Y-54962217D01*
X192780000Y-189880000D02*
X192780000Y-180880000D01*
X87420000Y-160520000D02*
X87420000Y-159910000D01*
X229560000Y-118520000D02*
X225250000Y-118529369D01*
X192780000Y-37880000D02*
X195780000Y-37880000D01*
X192780000Y-118820000D02*
X192780000Y-108940000D01*
X147000000Y-66970000D02*
X147000000Y-76850000D01*
X107220000Y-163790000D02*
X110220000Y-163790000D01*
X172980000Y-34000000D02*
X166870000Y-34000000D01*
X222270000Y-138907841D02*
X222270000Y-147910000D01*
X107220000Y-79850000D02*
X110220000Y-79850000D01*
X65440000Y-108940000D02*
X67440000Y-108940000D01*
X104220000Y-108940000D02*
X104220000Y-118820000D01*
X231560000Y-25000000D02*
X231560000Y-34880000D01*
X179470000Y-160505891D02*
X172980000Y-160520000D01*
X179490000Y-189880000D02*
X160490000Y-189880000D01*
X67440000Y-138900000D02*
X71930000Y-138901329D01*
X225270000Y-138908730D02*
X229560000Y-138910000D01*
X67440000Y-108940000D02*
X71860000Y-108940000D01*
X157490000Y-189880000D02*
X150000000Y-189880000D01*
X71930000Y-96931329D02*
X71930000Y-105940000D01*
X182470000Y-76559369D02*
X182470000Y-66970000D01*
X117640000Y-25000000D02*
X136690000Y-25000000D01*
X81310000Y-76576000D02*
X74860000Y-76576000D01*
X150000000Y-118820000D02*
X150000000Y-108940000D01*
X225270000Y-63970000D02*
X225270000Y-54968730D01*
X104220000Y-66970000D02*
X104220000Y-76850000D01*
X136710000Y-147910000D02*
X117710000Y-147910000D01*
X157420000Y-118546000D02*
X153000000Y-118546000D01*
X101220000Y-93820000D02*
X101220000Y-79850000D01*
X144000000Y-160790000D02*
X144000000Y-160490000D01*
X147000000Y-37880000D02*
X147000000Y-51850000D01*
X231560000Y-93820000D02*
X229560000Y-93820000D01*
X147000000Y-79850000D02*
X147000000Y-93820000D01*
X200200000Y-34606000D02*
X195780000Y-34606000D01*
X139690000Y-66970000D02*
X147000000Y-66970000D01*
X124090000Y-159910000D02*
X124090000Y-160516000D01*
X160420000Y-34606000D02*
X160420000Y-25000000D01*
X189780000Y-54850000D02*
X189780000Y-63970000D01*
X229560000Y-177760000D02*
X229560000Y-163790000D01*
X144000000Y-118520000D02*
X139690000Y-118529369D01*
X186780000Y-163790000D02*
X189780000Y-163790000D01*
X65440000Y-105940000D02*
X65440000Y-96710000D01*
X186780000Y-79850000D02*
X189780000Y-79850000D01*
X110220000Y-118546000D02*
X110220000Y-118820000D01*
X93910000Y-66970000D02*
X93910000Y-76565891D01*
X231560000Y-105940000D02*
X229560000Y-105940000D01*
X236560000Y-20000000D02*
X60440000Y-20000000D01*
X101220000Y-163790000D02*
X104220000Y-163790000D01*
X104220000Y-118820000D02*
X101220000Y-118820000D01*
X192780000Y-180650000D02*
X195780000Y-180650000D01*
X71860000Y-108940000D02*
X71860000Y-118546000D01*
X104220000Y-138790000D02*
X104220000Y-147910000D01*
X203200000Y-118546000D02*
X203200000Y-108940000D01*
X74930000Y-138902217D02*
X93930000Y-138907841D01*
X101220000Y-54850000D02*
X104220000Y-54850000D01*
X160490000Y-96932217D02*
X179490000Y-96937841D01*
X93910000Y-76565891D02*
X87420000Y-76580000D01*
X147000000Y-160790000D02*
X144000000Y-160790000D01*
X182490000Y-54968730D02*
X186780000Y-54970000D01*
X110220000Y-76576000D02*
X110220000Y-76850000D01*
X104220000Y-34000000D02*
X104220000Y-34880000D01*
X231560000Y-180760000D02*
X231560000Y-189880000D01*
X65440000Y-37880000D02*
X67440000Y-37880000D01*
X144000000Y-163790000D02*
X147000000Y-163790000D01*
X139710000Y-147910000D02*
X139710000Y-138908730D01*
X203270000Y-63970000D02*
X203270000Y-54962217D01*
X209650000Y-34000000D02*
X209650000Y-34606000D01*
X93930000Y-96937841D02*
X93930000Y-105940000D01*
X104220000Y-25000500D02*
X104220000Y-34000000D01*
X236560000Y-194880000D02*
X236560000Y-20000000D01*
X225270000Y-147910000D02*
X225270000Y-138908730D01*
X153000000Y-76850000D02*
X150000000Y-76850000D01*
X87420000Y-75970000D02*
X81310000Y-75970000D01*
X229560000Y-150910000D02*
X231560000Y-150910000D01*
X117710000Y-105940000D02*
X117710000Y-96932217D01*
X74930000Y-180872217D02*
X93930000Y-180877841D01*
X189780000Y-51850000D02*
X186780000Y-51850000D01*
X195780000Y-121820000D02*
X195780000Y-135680000D01*
X144000000Y-54970000D02*
X144000000Y-54850000D01*
X209650000Y-118546000D02*
X203200000Y-118546000D01*
X67440000Y-54740000D02*
X67440000Y-54960000D01*
X110220000Y-135680000D02*
X107220000Y-135680000D01*
X153000000Y-76576000D02*
X153000000Y-76850000D01*
X203200000Y-160516000D02*
X203200000Y-150910000D01*
X200200000Y-76576000D02*
X195780000Y-76576000D01*
X186780000Y-34580000D02*
X182470000Y-34589369D01*
X192780000Y-63970000D02*
X192780000Y-54740000D01*
X203200000Y-76576000D02*
X203200000Y-66970000D01*
X144000000Y-96940000D02*
X144000000Y-96820000D01*
X192780000Y-160790000D02*
X192780000Y-150910000D01*
X114710000Y-147910000D02*
X107220000Y-147910000D01*
X153000000Y-96710000D02*
X153000000Y-96930000D01*
X147000000Y-138790000D02*
X147000000Y-147910000D01*
X182470000Y-34589369D02*
X182470000Y-25000000D01*
X93910000Y-25000000D02*
X93910000Y-34595891D01*
X153000000Y-180650000D02*
X153000000Y-180870000D01*
X144000000Y-79850000D02*
X147000000Y-79850000D01*
X74930000Y-189880000D02*
X74930000Y-180872217D01*
X153000000Y-51740000D02*
X150000000Y-51740000D01*
X74860000Y-25000000D02*
X93910000Y-25000000D01*
X147000000Y-25000500D02*
X147000000Y-34000000D01*
X153000000Y-54740000D02*
X153000000Y-54960000D01*
X104220000Y-180880000D02*
X104220000Y-189880000D01*
X144000000Y-34580000D02*
X139690000Y-34589369D01*
X107220000Y-138680000D02*
X110220000Y-138680000D01*
X200200000Y-108940000D02*
X200200000Y-118546000D01*
X231560000Y-37880000D02*
X231560000Y-51850000D01*
X229560000Y-51850000D02*
X229560000Y-37880000D01*
X179490000Y-180877841D02*
X179490000Y-189880000D01*
X117710000Y-54962217D02*
X136710000Y-54967841D01*
X101220000Y-96940000D02*
X101220000Y-96820000D01*
X65440000Y-76850000D02*
X65440000Y-66970000D01*
X195780000Y-34606000D02*
X195780000Y-34880000D01*
X231560000Y-76850000D02*
X229560000Y-76850000D01*
X172980000Y-159910000D02*
X166870000Y-159910000D01*
X65440000Y-160790000D02*
X65440000Y-150910000D01*
X101220000Y-121820000D02*
X104220000Y-121820000D01*
X179470000Y-118535891D02*
X172980000Y-118550000D01*
X96930000Y-138908730D02*
X101220000Y-138910000D01*
X172980000Y-117940000D02*
X166870000Y-117940000D01*
X114640000Y-118546000D02*
X110220000Y-118546000D01*
X144000000Y-34880000D02*
X144000000Y-34580000D01*
X160490000Y-189880000D02*
X160490000Y-180872217D01*
X139710000Y-180878730D02*
X144000000Y-180880000D01*
X101220000Y-160490000D02*
X96910000Y-160499369D01*
X110220000Y-76850000D02*
X107220000Y-76850000D01*
X117640000Y-108940000D02*
X136690000Y-108940000D01*
X93930000Y-180877841D02*
X93930000Y-189880000D01*
X74860000Y-34606000D02*
X74860000Y-25000000D01*
X195780000Y-180870000D02*
X200270000Y-180871329D01*
X150000000Y-37880000D02*
X153000000Y-37880000D01*
X192780000Y-93710000D02*
X192780000Y-79850000D01*
X182470000Y-108940000D02*
X189780000Y-108940000D01*
X166870000Y-34000000D02*
X166870000Y-34606000D01*
X182490000Y-63970000D02*
X182490000Y-54968730D01*
X225270000Y-96938730D02*
X229560000Y-96940000D01*
X101220000Y-96820000D02*
X104220000Y-96820000D01*
X153000000Y-163790000D02*
X153000000Y-177650000D01*
X231560000Y-54850000D02*
X231560000Y-63970000D01*
X225270000Y-54968730D02*
X229560000Y-54970000D01*
X172980000Y-75970000D02*
X166870000Y-75970000D01*
X150000000Y-160790000D02*
X150000000Y-150910000D01*
X71860000Y-25000000D02*
X71860000Y-34606000D01*
X65440000Y-177650000D02*
X65440000Y-163790000D01*
X107220000Y-108940000D02*
X114640000Y-108940000D01*
X144000000Y-96820000D02*
X147000000Y-96820000D01*
X67440000Y-118546000D02*
X67440000Y-118820000D01*
X172980000Y-76580000D02*
X172980000Y-75970000D01*
X110220000Y-118820000D02*
X107220000Y-118820000D01*
X200200000Y-25000000D02*
X200200000Y-34606000D01*
X139690000Y-34589369D02*
X139690000Y-25000000D01*
X157490000Y-96931329D02*
X157490000Y-105940000D01*
X144000000Y-180880000D02*
X144000000Y-180760000D01*
X192780000Y-135680000D02*
X192780000Y-121820000D01*
X110220000Y-54960000D02*
X114710000Y-54961329D01*
X104220000Y-135790000D02*
X101220000Y-135790000D01*
X110220000Y-34880000D02*
X107220000Y-34880000D01*
X67440000Y-96930000D02*
X71930000Y-96931329D01*
X203270000Y-96932217D02*
X222270000Y-96937841D01*
X110220000Y-54740000D02*
X110220000Y-54960000D01*
X189780000Y-76850000D02*
X186780000Y-76850000D01*
X104220000Y-51850000D02*
X101220000Y-51850000D01*
X179470000Y-34595891D02*
X172980000Y-34610000D01*
X153000000Y-160516000D02*
X153000000Y-160790000D01*
X160490000Y-147910000D02*
X160490000Y-138902217D01*
X186780000Y-54970000D02*
X186780000Y-54850000D01*
X71930000Y-147910000D02*
X67440000Y-147910000D01*
X229560000Y-160490000D02*
X225250000Y-160499369D01*
X192780000Y-177650000D02*
X192780000Y-163790000D01*
X93930000Y-189880000D02*
X74930000Y-189880000D01*
X209650000Y-76576000D02*
X203200000Y-76576000D01*
X182470000Y-118529369D02*
X182470000Y-108940000D01*
X203200000Y-66970000D02*
X222250000Y-66970000D01*
X189780000Y-180760000D02*
X189780000Y-180880000D01*
X71930000Y-105940000D02*
X67440000Y-105940000D01*
X60440000Y-194880000D02*
X236560000Y-194880000D01*
X93910000Y-160505891D02*
X87420000Y-160520000D01*
X67440000Y-79850000D02*
X67440000Y-93710000D01*
X124090000Y-117940000D02*
X124090000Y-118546000D01*
X225250000Y-108940000D02*
X229560000Y-108940000D01*
X101220000Y-51850000D02*
X101220000Y-37880000D01*
X101220000Y-118520000D02*
X96910000Y-118529369D01*
X81310000Y-160516000D02*
X74860000Y-160516000D01*
X215760000Y-159910000D02*
X209650000Y-159910000D01*
X107220000Y-105940000D02*
X107220000Y-96710000D01*
X147000000Y-105940000D02*
X139710000Y-105940000D01*
X231560000Y-63970000D02*
X229560000Y-63970000D01*
X65440000Y-180650000D02*
X67440000Y-180650000D01*
X195780000Y-76850000D02*
X192780000Y-76850000D01*
X160490000Y-63970000D02*
X160490000Y-54962217D01*
X117640000Y-160516000D02*
X117640000Y-150910000D01*
X117640000Y-118546000D02*
X117640000Y-108940000D01*
X209650000Y-117940000D02*
X209650000Y-118546000D01*
X101220000Y-138910000D02*
X101220000Y-138790000D01*
X172980000Y-160520000D02*
X172980000Y-159910000D01*
X114640000Y-76576000D02*
X110220000Y-76576000D01*
X231560000Y-66970000D02*
X231560000Y-76850000D01*
X136690000Y-108940000D02*
X136690000Y-118535891D01*
X195780000Y-160516000D02*
X195780000Y-160790000D01*
X93910000Y-118535891D02*
X87420000Y-118550000D01*
X147000000Y-189880000D02*
X139710000Y-189880000D01*
X229560000Y-34580000D02*
X225250000Y-34589369D01*
X195780000Y-54740000D02*
X195780000Y-54960000D01*
X195780000Y-76576000D02*
X195780000Y-76850000D01*
X215760000Y-160520000D02*
X215760000Y-159910000D01*
X160420000Y-108940000D02*
X179470000Y-108940000D01*
X231560000Y-121820000D02*
X231560000Y-135790000D01*
X189780000Y-34000000D02*
X189780000Y-34880000D01*
X153000000Y-79850000D02*
X153000000Y-93710000D01*
X65440000Y-121820000D02*
X67440000Y-121820000D01*
X130200000Y-118550000D02*
X130200000Y-117940000D01*
X222250000Y-76565891D02*
X215760000Y-76580000D01*
X189780000Y-121820000D02*
X189780000Y-135790000D01*
X189780000Y-177760000D02*
X186780000Y-177760000D01*
X166870000Y-34606000D02*
X160420000Y-34606000D01*
X195780000Y-177650000D02*
X192780000Y-177650000D01*
X144000000Y-118820000D02*
X144000000Y-118520000D01*
X117710000Y-180872217D02*
X136710000Y-180877841D01*
X160420000Y-76576000D02*
X160420000Y-66970000D01*
X179490000Y-147910000D02*
X160490000Y-147910000D01*
X192780000Y-54740000D02*
X195780000Y-54740000D01*
X231560000Y-79850000D02*
X231560000Y-93820000D01*
X67440000Y-63970000D02*
X65440000Y-63970000D01*
X222270000Y-63970000D02*
X203270000Y-63970000D01*
X104220000Y-177760000D02*
X101220000Y-177760000D01*
X104220000Y-37880000D02*
X104220000Y-51850000D01*
X114710000Y-138901329D02*
X114710000Y-147910000D01*
X182470000Y-160499369D02*
X182470000Y-150910000D01*
X67440000Y-150910000D02*
X71860000Y-150910000D01*
X222250000Y-108940000D02*
X222250000Y-118535891D01*
X101220000Y-34580000D02*
X96910000Y-34589369D01*
X229560000Y-105940000D02*
X225270000Y-105940000D01*
X67440000Y-34606000D02*
X67440000Y-34880000D01*
X150000000Y-34880000D02*
X150000000Y-34000000D01*
X96930000Y-180878730D02*
X101220000Y-180880000D01*
X147000000Y-180760000D02*
X147000000Y-180880000D01*
X179490000Y-54967841D02*
X179490000Y-63970000D01*
X60440000Y-20000000D02*
X60440000Y-194880000D01*
X229560000Y-96940000D02*
X229560000Y-96820000D01*
X144000000Y-76550000D02*
X139690000Y-76559369D01*
X215760000Y-118550000D02*
X215760000Y-117940000D01*
X144000000Y-160490000D02*
X139690000Y-160499369D01*
X150000000Y-189880000D02*
X150000000Y-180880000D01*
X107220000Y-150910000D02*
X114640000Y-150910000D01*
X147000000Y-150910000D02*
X147000000Y-160790000D01*
X147000000Y-180880000D02*
X147000000Y-189880000D01*
X139690000Y-108940000D02*
X147000000Y-108940000D01*
X192780000Y-66970000D02*
X200200000Y-66970000D01*
X150000000Y-180880000D02*
X150000000Y-180650000D01*
X101220000Y-54970000D02*
X101220000Y-54850000D01*
X67440000Y-54960000D02*
X71930000Y-54961329D01*
X222270000Y-96937841D02*
X222270000Y-105940000D01*
X101220000Y-79850000D02*
X104220000Y-79850000D01*
X229560000Y-180760000D02*
X231560000Y-180760000D01*
X130200000Y-160520000D02*
X130200000Y-159910000D01*
X186780000Y-51850000D02*
X186780000Y-37880000D01*
X110220000Y-79850000D02*
X110220000Y-93710000D01*
X107220000Y-34880000D02*
X107220000Y-34000000D01*
X67440000Y-180870000D02*
X71930000Y-180871329D01*
X65440000Y-93710000D02*
X65440000Y-79850000D01*
X114710000Y-54961329D02*
X114710000Y-63970000D01*
X101220000Y-37880000D02*
X104220000Y-37880000D01*
X107220000Y-135680000D02*
X107220000Y-121820000D01*
X107220000Y-54740000D02*
X110220000Y-54740000D01*
X110220000Y-93710000D02*
X107220000Y-93710000D01*
X157420000Y-150910000D02*
X157420000Y-160516000D01*
X225250000Y-34589369D02*
X225250000Y-25000000D01*
X182490000Y-189880000D02*
X182490000Y-180878730D01*
X107220000Y-160790000D02*
X107220000Y-150910000D01*
X67440000Y-37880000D02*
X67440000Y-51740000D01*
X189780000Y-138790000D02*
X189780000Y-147910000D01*
X189780000Y-66970000D02*
X189780000Y-76850000D01*
X179470000Y-76565891D02*
X172980000Y-76580000D01*
X192780000Y-51740000D02*
X192780000Y-37880000D01*
X222250000Y-66970000D02*
X222250000Y-76565891D01*
X189780000Y-25000500D02*
X189780000Y-34000000D01*
X150000000Y-105940000D02*
X150000000Y-96710000D01*
X81310000Y-34606000D02*
X74860000Y-34606000D01*
X192780000Y-76850000D02*
X192780000Y-66970000D01*
X104220000Y-54850000D02*
X104220000Y-63970000D01*
X81310000Y-34000000D02*
X81310000Y-34606000D01*
X65440000Y-79850000D02*
X67440000Y-79850000D01*
X150000000Y-96710000D02*
X153000000Y-96710000D01*
X195780000Y-163790000D02*
X195780000Y-177650000D01*
X110220000Y-177650000D02*
X107220000Y-177650000D01*
X186780000Y-138790000D02*
X189780000Y-138790000D01*
X117640000Y-34606000D02*
X117640000Y-25000000D01*
X104220000Y-76850000D02*
X101220000Y-76850000D01*
X182490000Y-138908730D02*
X186780000Y-138910000D01*
X74930000Y-54962217D02*
X93930000Y-54967841D01*
X182490000Y-105940000D02*
X182490000Y-96938730D01*
X147000000Y-76850000D02*
X144000000Y-76850000D01*
X107220000Y-180650000D02*
X110220000Y-180650000D01*
X192780000Y-163790000D02*
X195780000Y-163790000D01*
X153000000Y-37880000D02*
X153000000Y-51740000D01*
X200270000Y-138901329D02*
X200270000Y-147910000D01*
X186780000Y-160790000D02*
X186780000Y-160490000D01*
X107220000Y-177650000D02*
X107220000Y-163790000D01*
X150000000Y-79850000D02*
X153000000Y-79850000D01*
X231560000Y-96820000D02*
X231560000Y-105940000D01*
X195780000Y-118820000D02*
X192780000Y-118820000D01*
X179490000Y-96937841D02*
X179490000Y-105940000D01*
X130200000Y-117940000D02*
X124090000Y-117940000D01*
X101220000Y-180880000D02*
X101220000Y-180760000D01*
X110220000Y-34606000D02*
X110220000Y-34880000D01*
X107220000Y-51740000D02*
X107220000Y-37880000D01*
X160490000Y-54962217D02*
X179490000Y-54967841D01*
X231560000Y-34880000D02*
X229560000Y-34880000D01*
X107220000Y-118820000D02*
X107220000Y-108940000D01*
X200270000Y-180871329D02*
X200270000Y-189880000D01*
X117640000Y-66970000D02*
X136690000Y-66970000D01*
X229560000Y-108940000D02*
X231560000Y-108940000D01*
X182490000Y-96938730D02*
X186780000Y-96940000D01*
X179490000Y-105940000D02*
X160490000Y-105940000D01*
X96930000Y-54968730D02*
X101220000Y-54970000D01*
X195780000Y-51740000D02*
X192780000Y-51740000D01*
X150000000Y-54740000D02*
X153000000Y-54740000D01*
X200270000Y-63970000D02*
X192780000Y-63970000D01*
X229560000Y-37880000D02*
X231560000Y-37880000D01*
X65440000Y-66970000D02*
X67440000Y-66970000D01*
X150000000Y-76850000D02*
X150000000Y-66970000D01*
X200270000Y-147910000D02*
X192780000Y-147910000D01*
X147000000Y-135790000D02*
X144000000Y-135790000D01*
X195780000Y-37880000D02*
X195780000Y-51740000D01*
X160490000Y-138902217D02*
X179490000Y-138907841D01*
X67440000Y-118820000D02*
X65440000Y-118820000D01*
X150000000Y-150910000D02*
X157420000Y-150910000D01*
X186780000Y-180880000D02*
X186780000Y-180760000D01*
X74860000Y-160516000D02*
X74860000Y-150910000D01*
X110220000Y-37880000D02*
X110220000Y-51740000D01*
X229560000Y-160790000D02*
X229560000Y-160490000D01*
X101220000Y-180760000D02*
X104220000Y-180760000D01*
X225270000Y-180878730D02*
X229560000Y-180880000D01*
X192780000Y-34880000D02*
X192780000Y-34000000D01*
X157490000Y-180871329D02*
X157490000Y-189880000D01*
X71860000Y-76576000D02*
X67440000Y-76576000D01*
X157420000Y-25000000D02*
X157420000Y-34606000D01*
X110220000Y-96930000D02*
X114710000Y-96931329D01*
X65440000Y-150910000D02*
X67440000Y-150910000D01*
X67440000Y-180650000D02*
X67440000Y-180870000D01*
X157420000Y-66970000D02*
X157420000Y-76576000D01*
X203270000Y-180872217D02*
X222270000Y-180877841D01*
X93930000Y-138907841D02*
X93930000Y-147910000D01*
X136690000Y-76565891D02*
X130200000Y-76580000D01*
X107220000Y-25000500D02*
X104220000Y-25000500D01*
X157420000Y-34606000D02*
X153000000Y-34606000D01*
X124090000Y-76576000D02*
X117640000Y-76576000D01*
X153000000Y-138680000D02*
X153000000Y-138900000D01*
X150000000Y-66970000D02*
X157420000Y-66970000D01*
M02*
