M48
; DRILL file {KiCad 9.0.3} date 2026-04-13T10:36:52+0530
; FORMAT={-:-/ absolute / metric / decimal}
; #@! TF.CreationDate,2026-04-13T10:36:52+05:30
; #@! TF.GenerationSoftware,Kicad,Pcbnew,9.0.3
; #@! TF.FileFunction,NonPlated,1,2,NPTH
FMAT,2
METRIC
; #@! TA.AperFunction,NonPlated,NPTH,ComponentDrill
T1C0.500
; #@! TA.AperFunction,NonPlated,NPTH,ComponentDrill
T2C2.000
; #@! TA.AperFunction,NonPlated,NPTH,ComponentDrill
T3C3.000
%
G90
G05
T1
X60.44Y-34.0
X60.44Y-180.88
X61.44Y-34.0
X61.44Y-180.88
X62.44Y-34.0
X62.44Y-180.88
X63.44Y-34.0
X63.44Y-180.88
X64.44Y-34.0
X64.44Y-180.88
X65.44Y-34.0
X65.44Y-180.88
X67.24Y-34.88
X67.24Y-35.88
X67.24Y-36.88
X67.24Y-37.88
X67.24Y-51.74
X67.24Y-52.74
X67.24Y-53.74
X67.24Y-54.74
X67.24Y-76.85
X67.24Y-77.85
X67.24Y-78.85
X67.24Y-79.85
X67.24Y-93.71
X67.24Y-94.71
X67.24Y-95.71
X67.24Y-96.71
X67.24Y-118.82
X67.24Y-119.82
X67.24Y-120.82
X67.24Y-121.82
X67.24Y-135.68
X67.24Y-136.68
X67.24Y-137.68
X67.24Y-138.68
X67.24Y-160.79
X67.24Y-161.79
X67.24Y-162.79
X67.24Y-163.79
X67.24Y-177.65
X67.24Y-178.65
X67.24Y-179.65
X67.24Y-180.65
X67.44Y-20.0
X67.44Y-21.0
X67.44Y-22.0
X67.44Y-23.0
X67.44Y-24.0
X67.44Y-25.0
X67.44Y-63.97
X67.44Y-64.97
X67.44Y-65.97
X67.44Y-66.97
X67.44Y-105.94
X67.44Y-106.94
X67.44Y-107.94
X67.44Y-108.94
X67.44Y-147.91
X67.44Y-148.91
X67.44Y-149.91
X67.44Y-150.91
X67.44Y-189.88
X67.44Y-190.88
X67.44Y-191.88
X67.44Y-192.88
X67.44Y-193.88
X67.44Y-194.88
X71.86Y-34.406
X71.86Y-76.376
X71.86Y-118.346
X71.86Y-160.316
X71.93Y-55.161
X71.93Y-97.131
X71.93Y-139.101
X71.93Y-181.071
X72.86Y-34.406
X72.86Y-76.376
X72.86Y-118.346
X72.86Y-160.316
X72.93Y-55.162
X72.93Y-97.132
X72.93Y-139.102
X72.93Y-181.072
X73.86Y-34.406
X73.86Y-76.376
X73.86Y-118.346
X73.86Y-160.316
X73.93Y-55.162
X73.93Y-97.132
X73.93Y-139.102
X73.93Y-181.072
X74.86Y-34.406
X74.86Y-76.376
X74.86Y-118.346
X74.86Y-160.316
X74.93Y-55.162
X74.93Y-97.132
X74.93Y-139.102
X74.93Y-181.072
X93.91Y-34.396
X93.91Y-76.366
X93.91Y-118.336
X93.91Y-160.306
X93.93Y-55.168
X93.93Y-97.138
X93.93Y-139.108
X93.93Y-181.078
X94.91Y-34.394
X94.91Y-76.364
X94.91Y-118.334
X94.91Y-160.304
X94.93Y-55.168
X94.93Y-97.138
X94.93Y-139.108
X94.93Y-181.078
X95.91Y-34.392
X95.91Y-76.362
X95.91Y-118.332
X95.91Y-160.302
X95.93Y-55.168
X95.93Y-97.138
X95.93Y-139.108
X95.93Y-181.078
X96.91Y-34.389
X96.91Y-76.359
X96.91Y-118.329
X96.91Y-160.299
X96.93Y-55.169
X96.93Y-97.139
X96.93Y-139.109
X96.93Y-181.079
X101.42Y-34.88
X101.42Y-35.88
X101.42Y-36.88
X101.42Y-37.88
X101.42Y-51.85
X101.42Y-52.85
X101.42Y-53.85
X101.42Y-54.85
X101.42Y-76.85
X101.42Y-77.85
X101.42Y-78.85
X101.42Y-79.85
X101.42Y-93.82
X101.42Y-94.82
X101.42Y-95.82
X101.42Y-96.82
X101.42Y-118.82
X101.42Y-119.82
X101.42Y-120.82
X101.42Y-121.82
X101.42Y-135.79
X101.42Y-136.79
X101.42Y-137.79
X101.42Y-138.79
X101.42Y-160.79
X101.42Y-161.79
X101.42Y-162.79
X101.42Y-163.79
X101.42Y-177.76
X101.42Y-178.76
X101.42Y-179.76
X101.42Y-180.76
X104.22Y-63.97
X104.22Y-64.97
X104.22Y-65.97
X104.22Y-66.97
X104.22Y-105.94
X104.22Y-106.94
X104.22Y-107.94
X104.22Y-108.94
X104.22Y-147.91
X104.22Y-148.91
X104.22Y-149.91
X104.22Y-150.91
X107.22Y-63.97
X107.22Y-64.97
X107.22Y-65.97
X107.22Y-66.97
X107.22Y-105.94
X107.22Y-106.94
X107.22Y-107.94
X107.22Y-108.94
X107.22Y-147.91
X107.22Y-148.91
X107.22Y-149.91
X107.22Y-150.91
X110.02Y-34.88
X110.02Y-35.88
X110.02Y-36.88
X110.02Y-37.88
X110.02Y-51.74
X110.02Y-52.74
X110.02Y-53.74
X110.02Y-54.74
X110.02Y-76.85
X110.02Y-77.85
X110.02Y-78.85
X110.02Y-79.85
X110.02Y-93.71
X110.02Y-94.71
X110.02Y-95.71
X110.02Y-96.71
X110.02Y-118.82
X110.02Y-119.82
X110.02Y-120.82
X110.02Y-121.82
X110.02Y-135.68
X110.02Y-136.68
X110.02Y-137.68
X110.02Y-138.68
X110.02Y-160.79
X110.02Y-161.79
X110.02Y-162.79
X110.02Y-163.79
X110.02Y-177.65
X110.02Y-178.65
X110.02Y-179.65
X110.02Y-180.65
X114.64Y-34.406
X114.64Y-76.376
X114.64Y-118.346
X114.64Y-160.316
X114.71Y-55.161
X114.71Y-97.131
X114.71Y-139.101
X114.71Y-181.071
X115.64Y-34.406
X115.64Y-76.376
X115.64Y-118.346
X115.64Y-160.316
X115.71Y-55.162
X115.71Y-97.132
X115.71Y-139.102
X115.71Y-181.072
X116.64Y-34.406
X116.64Y-76.376
X116.64Y-118.346
X116.64Y-160.316
X116.71Y-55.162
X116.71Y-97.132
X116.71Y-139.102
X116.71Y-181.072
X117.64Y-34.406
X117.64Y-76.376
X117.64Y-118.346
X117.64Y-160.316
X117.71Y-55.162
X117.71Y-97.132
X117.71Y-139.102
X117.71Y-181.072
X136.69Y-34.396
X136.69Y-76.366
X136.69Y-118.336
X136.69Y-160.306
X136.71Y-55.168
X136.71Y-97.138
X136.71Y-139.108
X136.71Y-181.078
X137.69Y-34.394
X137.69Y-76.364
X137.69Y-118.334
X137.69Y-160.304
X137.71Y-55.168
X137.71Y-97.138
X137.71Y-139.108
X137.71Y-181.078
X138.69Y-34.392
X138.69Y-76.362
X138.69Y-118.332
X138.69Y-160.302
X138.71Y-55.168
X138.71Y-97.138
X138.71Y-139.108
X138.71Y-181.078
X139.69Y-34.389
X139.69Y-76.359
X139.69Y-118.329
X139.69Y-160.299
X139.71Y-55.169
X139.71Y-97.139
X139.71Y-139.109
X139.71Y-181.079
X144.2Y-34.88
X144.2Y-35.88
X144.2Y-36.88
X144.2Y-37.88
X144.2Y-51.85
X144.2Y-52.85
X144.2Y-53.85
X144.2Y-54.85
X144.2Y-76.85
X144.2Y-77.85
X144.2Y-78.85
X144.2Y-79.85
X144.2Y-93.82
X144.2Y-94.82
X144.2Y-95.82
X144.2Y-96.82
X144.2Y-118.82
X144.2Y-119.82
X144.2Y-120.82
X144.2Y-121.82
X144.2Y-135.79
X144.2Y-136.79
X144.2Y-137.79
X144.2Y-138.79
X144.2Y-160.79
X144.2Y-161.79
X144.2Y-162.79
X144.2Y-163.79
X144.2Y-177.76
X144.2Y-178.76
X144.2Y-179.76
X144.2Y-180.76
X147.0Y-63.97
X147.0Y-64.97
X147.0Y-65.97
X147.0Y-66.97
X147.0Y-105.94
X147.0Y-106.94
X147.0Y-107.94
X147.0Y-108.94
X147.0Y-147.91
X147.0Y-148.91
X147.0Y-149.91
X147.0Y-150.91
X150.0Y-63.97
X150.0Y-64.97
X150.0Y-65.97
X150.0Y-66.97
X150.0Y-105.94
X150.0Y-106.94
X150.0Y-107.94
X150.0Y-108.94
X150.0Y-147.91
X150.0Y-148.91
X150.0Y-149.91
X150.0Y-150.91
X152.8Y-34.88
X152.8Y-35.88
X152.8Y-36.88
X152.8Y-37.88
X152.8Y-51.74
X152.8Y-52.74
X152.8Y-53.74
X152.8Y-54.74
X152.8Y-76.85
X152.8Y-77.85
X152.8Y-78.85
X152.8Y-79.85
X152.8Y-93.71
X152.8Y-94.71
X152.8Y-95.71
X152.8Y-96.71
X152.8Y-118.82
X152.8Y-119.82
X152.8Y-120.82
X152.8Y-121.82
X152.8Y-135.68
X152.8Y-136.68
X152.8Y-137.68
X152.8Y-138.68
X152.8Y-160.79
X152.8Y-161.79
X152.8Y-162.79
X152.8Y-163.79
X152.8Y-177.65
X152.8Y-178.65
X152.8Y-179.65
X152.8Y-180.65
X157.42Y-34.406
X157.42Y-76.376
X157.42Y-118.346
X157.42Y-160.316
X157.49Y-55.161
X157.49Y-97.131
X157.49Y-139.101
X157.49Y-181.071
X158.42Y-34.406
X158.42Y-76.376
X158.42Y-118.346
X158.42Y-160.316
X158.49Y-55.162
X158.49Y-97.132
X158.49Y-139.102
X158.49Y-181.072
X159.42Y-34.406
X159.42Y-76.376
X159.42Y-118.346
X159.42Y-160.316
X159.49Y-55.162
X159.49Y-97.132
X159.49Y-139.102
X159.49Y-181.072
X160.42Y-34.406
X160.42Y-76.376
X160.42Y-118.346
X160.42Y-160.316
X160.49Y-55.162
X160.49Y-97.132
X160.49Y-139.102
X160.49Y-181.072
X179.47Y-34.396
X179.47Y-76.366
X179.47Y-118.336
X179.47Y-160.306
X179.49Y-55.168
X179.49Y-97.138
X179.49Y-139.108
X179.49Y-181.078
X180.47Y-34.394
X180.47Y-76.364
X180.47Y-118.334
X180.47Y-160.304
X180.49Y-55.168
X180.49Y-97.138
X180.49Y-139.108
X180.49Y-181.078
X181.47Y-34.392
X181.47Y-76.362
X181.47Y-118.332
X181.47Y-160.302
X181.49Y-55.168
X181.49Y-97.138
X181.49Y-139.108
X181.49Y-181.078
X182.47Y-34.389
X182.47Y-76.359
X182.47Y-118.329
X182.47Y-160.299
X182.49Y-55.169
X182.49Y-97.139
X182.49Y-139.109
X182.49Y-181.079
X186.98Y-34.88
X186.98Y-35.88
X186.98Y-36.88
X186.98Y-37.88
X186.98Y-51.85
X186.98Y-52.85
X186.98Y-53.85
X186.98Y-54.85
X186.98Y-76.85
X186.98Y-77.85
X186.98Y-78.85
X186.98Y-79.85
X186.98Y-93.82
X186.98Y-94.82
X186.98Y-95.82
X186.98Y-96.82
X186.98Y-118.82
X186.98Y-119.82
X186.98Y-120.82
X186.98Y-121.82
X186.98Y-135.79
X186.98Y-136.79
X186.98Y-137.79
X186.98Y-138.79
X186.98Y-160.79
X186.98Y-161.79
X186.98Y-162.79
X186.98Y-163.79
X186.98Y-177.76
X186.98Y-178.76
X186.98Y-179.76
X186.98Y-180.76
X189.78Y-63.97
X189.78Y-64.97
X189.78Y-65.97
X189.78Y-66.97
X189.78Y-105.94
X189.78Y-106.94
X189.78Y-107.94
X189.78Y-108.94
X189.78Y-147.91
X189.78Y-148.91
X189.78Y-149.91
X189.78Y-150.91
X192.78Y-63.97
X192.78Y-64.97
X192.78Y-65.97
X192.78Y-66.97
X192.78Y-105.94
X192.78Y-106.94
X192.78Y-107.94
X192.78Y-108.94
X192.78Y-147.91
X192.78Y-148.91
X192.78Y-149.91
X192.78Y-150.91
X195.58Y-34.88
X195.58Y-35.88
X195.58Y-36.88
X195.58Y-37.88
X195.58Y-51.74
X195.58Y-52.74
X195.58Y-53.74
X195.58Y-54.74
X195.58Y-76.85
X195.58Y-77.85
X195.58Y-78.85
X195.58Y-79.85
X195.58Y-93.71
X195.58Y-94.71
X195.58Y-95.71
X195.58Y-96.71
X195.58Y-118.82
X195.58Y-119.82
X195.58Y-120.82
X195.58Y-121.82
X195.58Y-135.68
X195.58Y-136.68
X195.58Y-137.68
X195.58Y-138.68
X195.58Y-160.79
X195.58Y-161.79
X195.58Y-162.79
X195.58Y-163.79
X195.58Y-177.65
X195.58Y-178.65
X195.58Y-179.65
X195.58Y-180.65
X200.2Y-34.406
X200.2Y-76.376
X200.2Y-118.346
X200.2Y-160.316
X200.27Y-55.161
X200.27Y-97.131
X200.27Y-139.101
X200.27Y-181.071
X201.2Y-34.406
X201.2Y-76.376
X201.2Y-118.346
X201.2Y-160.316
X201.27Y-55.162
X201.27Y-97.132
X201.27Y-139.102
X201.27Y-181.072
X202.2Y-34.406
X202.2Y-76.376
X202.2Y-118.346
X202.2Y-160.316
X202.27Y-55.162
X202.27Y-97.132
X202.27Y-139.102
X202.27Y-181.072
X203.2Y-34.406
X203.2Y-76.376
X203.2Y-118.346
X203.2Y-160.316
X203.27Y-55.162
X203.27Y-97.132
X203.27Y-139.102
X203.27Y-181.072
X222.25Y-34.396
X222.25Y-76.366
X222.25Y-118.336
X222.25Y-160.306
X222.27Y-55.168
X222.27Y-97.138
X222.27Y-139.108
X222.27Y-181.078
X223.25Y-34.394
X223.25Y-76.364
X223.25Y-118.334
X223.25Y-160.304
X223.27Y-55.168
X223.27Y-97.138
X223.27Y-139.108
X223.27Y-181.078
X224.25Y-34.392
X224.25Y-76.362
X224.25Y-118.332
X224.25Y-160.302
X224.27Y-55.168
X224.27Y-97.138
X224.27Y-139.108
X224.27Y-181.078
X225.25Y-34.389
X225.25Y-76.359
X225.25Y-118.329
X225.25Y-160.299
X225.27Y-55.169
X225.27Y-97.139
X225.27Y-139.109
X225.27Y-181.079
X229.56Y-20.0
X229.56Y-21.0
X229.56Y-22.0
X229.56Y-23.0
X229.56Y-24.0
X229.56Y-25.0
X229.56Y-63.97
X229.56Y-64.97
X229.56Y-65.97
X229.56Y-66.97
X229.56Y-105.94
X229.56Y-106.94
X229.56Y-107.94
X229.56Y-108.94
X229.56Y-147.91
X229.56Y-148.91
X229.56Y-149.91
X229.56Y-150.91
X229.56Y-189.88
X229.56Y-190.88
X229.56Y-191.88
X229.56Y-192.88
X229.56Y-193.88
X229.56Y-194.88
X229.76Y-34.88
X229.76Y-35.88
X229.76Y-36.88
X229.76Y-37.88
X229.76Y-51.85
X229.76Y-52.85
X229.76Y-53.85
X229.76Y-54.85
X229.76Y-76.85
X229.76Y-77.85
X229.76Y-78.85
X229.76Y-79.85
X229.76Y-93.82
X229.76Y-94.82
X229.76Y-95.82
X229.76Y-96.82
X229.76Y-118.82
X229.76Y-119.82
X229.76Y-120.82
X229.76Y-121.82
X229.76Y-135.79
X229.76Y-136.79
X229.76Y-137.79
X229.76Y-138.79
X229.76Y-160.79
X229.76Y-161.79
X229.76Y-162.79
X229.76Y-163.79
X229.76Y-177.76
X229.76Y-178.76
X229.76Y-179.76
X229.76Y-180.76
X231.56Y-34.0
X231.56Y-180.88
X232.56Y-34.0
X232.56Y-180.88
X233.56Y-34.0
X233.56Y-180.88
X234.56Y-34.0
X234.56Y-180.88
X235.56Y-34.0
X235.56Y-180.88
X236.56Y-34.0
X236.56Y-180.88
T2
X72.24Y-22.4
X72.24Y-192.48
X224.76Y-22.4
X224.76Y-192.48
T3
X71.17Y-37.96
X71.17Y-79.93
X71.17Y-121.9
X71.17Y-163.87
X97.51Y-37.96
X97.51Y-79.93
X97.51Y-121.9
X97.51Y-163.87
X113.95Y-37.96
X113.95Y-79.93
X113.95Y-121.9
X113.95Y-163.87
X140.29Y-37.96
X140.29Y-79.93
X140.29Y-121.9
X140.29Y-163.87
X156.73Y-37.96
X156.73Y-79.93
X156.73Y-121.9
X156.73Y-163.87
X183.07Y-37.96
X183.07Y-79.93
X183.07Y-121.9
X183.07Y-163.87
X199.51Y-37.96
X199.51Y-79.93
X199.51Y-121.9
X199.51Y-163.87
X225.85Y-37.96
X225.85Y-79.93
X225.85Y-121.9
X225.85Y-163.87
M30
