%TF.GenerationSoftware,KiCad,Pcbnew,9.0.3*%
%TF.CreationDate,2026-04-13T10:36:32+05:30*%
%TF.ProjectId,USBC_FEMALE,55534243-5f46-4454-9d41-4c452e6b6963,rev?*%
%TF.SameCoordinates,Original*%
%TF.FileFunction,Soldermask,Bot*%
%TF.FilePolarity,Negative*%
%FSLAX46Y46*%
G04 Gerber Fmt 4.6, Leading zero omitted, Abs format (unit mm)*
G04 Created by KiCad (PCBNEW 9.0.3) date 2026-04-13 10:36:32*
%MOMM*%
%LPD*%
G01*
G04 APERTURE LIST*
G04 Aperture macros list*
%AMOutline4P*
0 Free polygon, 4 corners , with rotation*
0 The origin of the aperture is its center*
0 number of corners: always 4*
0 $1 to $8 corner X, Y*
0 $9 Rotation angle, in degrees counterclockwise*
0 create outline with 4 corners*
4,1,4,$1,$2,$3,$4,$5,$6,$7,$8,$1,$2,$9*%
%AMOutline5P*
0 Free polygon, 5 corners , with rotation*
0 The origin of the aperture is its center*
0 number of corners: always 5*
0 $1 to $10 corner X, Y*
0 $11 Rotation angle, in degrees counterclockwise*
0 create outline with 5 corners*
4,1,5,$1,$2,$3,$4,$5,$6,$7,$8,$9,$10,$1,$2,$11*%
%AMOutline6P*
0 Free polygon, 6 corners , with rotation*
0 The origin of the aperture is its center*
0 number of corners: always 6*
0 $1 to $12 corner X, Y*
0 $13 Rotation angle, in degrees counterclockwise*
0 create outline with 6 corners*
4,1,6,$1,$2,$3,$4,$5,$6,$7,$8,$9,$10,$11,$12,$1,$2,$13*%
%AMOutline7P*
0 Free polygon, 7 corners , with rotation*
0 The origin of the aperture is its center*
0 number of corners: always 7*
0 $1 to $14 corner X, Y*
0 $15 Rotation angle, in degrees counterclockwise*
0 create outline with 7 corners*
4,1,7,$1,$2,$3,$4,$5,$6,$7,$8,$9,$10,$11,$12,$13,$14,$1,$2,$15*%
%AMOutline8P*
0 Free polygon, 8 corners , with rotation*
0 The origin of the aperture is its center*
0 number of corners: always 8*
0 $1 to $16 corner X, Y*
0 $17 Rotation angle, in degrees counterclockwise*
0 create outline with 8 corners*
4,1,8,$1,$2,$3,$4,$5,$6,$7,$8,$9,$10,$11,$12,$13,$14,$15,$16,$1,$2,$17*%
G04 Aperture macros list end*
%ADD10C,0.500000*%
%ADD11R,0.300000X1.691000*%
%ADD12R,0.305000X1.691000*%
%ADD13R,0.313000X1.691000*%
%ADD14R,0.800000X1.900000*%
%ADD15C,3.000000*%
%ADD16C,2.000000*%
%ADD17Outline5P,-0.827500X1.047500X0.827500X1.047500X0.827500X-1.047500X-0.496500X-1.047500X-0.827500X-0.716500X180.000000*%
%ADD18Outline4P,-0.792500X-1.042500X0.792500X-1.042500X0.792500X1.042500X-0.792500X1.042500X180.000000*%
%ADD19R,1.670000X2.095000*%
%ADD20R,1.645000X2.085000*%
%ADD21R,1.655000X2.105000*%
%ADD22R,1.625000X2.075000*%
%ADD23R,1.675000X2.105000*%
%ADD24R,1.615000X2.085000*%
%ADD25R,1.665000X2.075000*%
%ADD26R,1.665000X2.095000*%
%ADD27R,1.695000X2.085000*%
%ADD28R,1.675000X2.095000*%
%ADD29R,1.655000X2.085000*%
%ADD30R,1.685000X2.095000*%
%ADD31R,1.635000X2.085000*%
%ADD32R,1.685000X2.085000*%
%ADD33R,1.685000X2.065000*%
%ADD34C,1.000000*%
G04 APERTURE END LIST*
D10*
%TO.C,KiKit_MB_37_2*%
X73929941Y-97131921D03*
%TD*%
%TO.C,KiKit_MB_76_1*%
X144200000Y-135790000D03*
%TD*%
D11*
%TO.C,J1*%
X129900000Y-160940500D03*
X129400000Y-160940500D03*
X128900000Y-160940500D03*
X128400000Y-160940500D03*
X127900000Y-160940500D03*
X127400000Y-160940500D03*
X126900000Y-160940500D03*
X126400000Y-160940500D03*
X125900000Y-160940500D03*
D12*
X125397500Y-160940500D03*
D13*
X124893500Y-160940500D03*
D11*
X124400000Y-160940500D03*
D14*
X122908418Y-161625779D03*
X131383557Y-161625779D03*
%TD*%
D10*
%TO.C,KiKit_MB_26_1*%
X222249565Y-34395891D03*
%TD*%
%TO.C,KiKit_MB_125_1*%
X203269940Y-181072217D03*
%TD*%
%TO.C,KiKit_MB_123_4*%
X195580000Y-177650000D03*
%TD*%
%TO.C,KiKit_MB_107_1*%
X110020000Y-180650000D03*
%TD*%
D15*
%TO.C,H1*%
X97510000Y-163870000D03*
%TD*%
D10*
%TO.C,KiKit_MB_49_1*%
X182489940Y-97138730D03*
%TD*%
%TO.C,KiKit_MB_98_4*%
X96909565Y-160299370D03*
%TD*%
%TO.C,KiKit_MB_36_3*%
X101420000Y-95820000D03*
%TD*%
%TO.C,KiKit_MB_37_1*%
X74929941Y-97132217D03*
%TD*%
%TO.C,KiKit_MB_92_2*%
X229760000Y-136790000D03*
%TD*%
%TO.C,KiKit_MB_10_3*%
X138689565Y-34391543D03*
%TD*%
%TO.C,KiKit_MB_67_4*%
X67240000Y-135680000D03*
%TD*%
%TO.C,KiKit_MB_85_3*%
X158489940Y-139101625D03*
%TD*%
%TO.C,KiKit_MB_58_4*%
X225249565Y-76359370D03*
%TD*%
%TO.C,KiKit_MB_146_2*%
X104220000Y-106940000D03*
%TD*%
D11*
%TO.C,J1*%
X215460000Y-118970500D03*
X214960000Y-118970500D03*
X214460000Y-118970500D03*
X213960000Y-118970500D03*
X213460000Y-118970500D03*
X212960000Y-118970500D03*
X212460000Y-118970500D03*
X211960000Y-118970500D03*
X211460000Y-118970500D03*
D12*
X210957500Y-118970500D03*
D13*
X210453500Y-118970500D03*
D11*
X209960000Y-118970500D03*
D14*
X208468418Y-119655779D03*
X216943557Y-119655779D03*
%TD*%
D10*
%TO.C,KiKit_MB_119_4*%
X160420000Y-160316000D03*
%TD*%
%TO.C,KiKit_MB_138_1*%
X104220000Y-147910000D03*
%TD*%
%TO.C,KiKit_MB_80_4*%
X110020000Y-118820000D03*
%TD*%
%TO.C,KiKit_MB_65_3*%
X94929940Y-139108137D03*
%TD*%
%TO.C,KiKit_MB_24_2*%
X152800000Y-36880000D03*
%TD*%
%TO.C,KiKit_MB_103_1*%
X71860000Y-160316000D03*
%TD*%
%TO.C,KiKit_MB_141_3*%
X107220000Y-64970000D03*
%TD*%
%TO.C,KiKit_MB_76_3*%
X144200000Y-137790000D03*
%TD*%
%TO.C,KiKit_MB_41_3*%
X137709940Y-97138137D03*
%TD*%
%TO.C,KiKit_MB_11_2*%
X110020000Y-53740000D03*
%TD*%
%TO.C,KiKit_MB_108_3*%
X144200000Y-179760000D03*
%TD*%
%TO.C,KiKit_MB_92_1*%
X229760000Y-135790000D03*
%TD*%
%TO.C,KiKit_MB_34_2*%
X94909565Y-76363717D03*
%TD*%
%TO.C,KiKit_MB_22_2*%
X186980000Y-35880000D03*
%TD*%
D15*
%TO.C,H2*%
X199510000Y-163870000D03*
%TD*%
D10*
%TO.C,KiKit_MB_39_2*%
X72860000Y-76376000D03*
%TD*%
%TO.C,KiKit_MB_158_1*%
X60440000Y-180880000D03*
%TD*%
%TO.C,KiKit_MB_31_3*%
X202200000Y-34406000D03*
%TD*%
%TO.C,KiKit_MB_95_4*%
X203200000Y-118346000D03*
%TD*%
%TO.C,KiKit_MB_135_2*%
X150000000Y-65970000D03*
%TD*%
%TO.C,KiKit_MB_35_1*%
X67240000Y-96710000D03*
%TD*%
%TO.C,KiKit_MB_134_2*%
X104220000Y-64970000D03*
%TD*%
%TO.C,KiKit_MB_2_2*%
X94909565Y-34393717D03*
%TD*%
%TO.C,KiKit_MB_104_4*%
X67240000Y-160790000D03*
%TD*%
%TO.C,KiKit_MB_78_3*%
X144200000Y-120820000D03*
%TD*%
%TO.C,KiKit_MB_40_1*%
X67240000Y-79850000D03*
%TD*%
%TO.C,KiKit_MB_32_3*%
X195580000Y-35880000D03*
%TD*%
D15*
%TO.C,H1*%
X140290000Y-121900000D03*
%TD*%
D10*
%TO.C,KiKit_MB_54_3*%
X186980000Y-78850000D03*
%TD*%
%TO.C,KiKit_MB_118_3*%
X186980000Y-162790000D03*
%TD*%
D11*
%TO.C,J1*%
X87120000Y-35030500D03*
X86620000Y-35030500D03*
X86120000Y-35030500D03*
X85620000Y-35030500D03*
X85120000Y-35030500D03*
X84620000Y-35030500D03*
X84120000Y-35030500D03*
X83620000Y-35030500D03*
X83120000Y-35030500D03*
D12*
X82617500Y-35030500D03*
D13*
X82113500Y-35030500D03*
D11*
X81620000Y-35030500D03*
D14*
X80128418Y-35715779D03*
X88603557Y-35715779D03*
%TD*%
D10*
%TO.C,KiKit_MB_145_1*%
X67440000Y-105940000D03*
%TD*%
%TO.C,KiKit_MB_150_3*%
X189780000Y-107940000D03*
%TD*%
D11*
%TO.C,J1*%
X215460000Y-160940500D03*
X214960000Y-160940500D03*
X214460000Y-160940500D03*
X213960000Y-160940500D03*
X213460000Y-160940500D03*
X212960000Y-160940500D03*
X212460000Y-160940500D03*
X211960000Y-160940500D03*
X211460000Y-160940500D03*
D12*
X210957500Y-160940500D03*
D13*
X210453500Y-160940500D03*
D11*
X209960000Y-160940500D03*
D14*
X208468418Y-161625779D03*
X216943557Y-161625779D03*
%TD*%
D11*
%TO.C,J1*%
X87120000Y-77000500D03*
X86620000Y-77000500D03*
X86120000Y-77000500D03*
X85620000Y-77000500D03*
X85120000Y-77000500D03*
X84620000Y-77000500D03*
X84120000Y-77000500D03*
X83620000Y-77000500D03*
X83120000Y-77000500D03*
D12*
X82617500Y-77000500D03*
D13*
X82113500Y-77000500D03*
D11*
X81620000Y-77000500D03*
D14*
X80128418Y-77685779D03*
X88603557Y-77685779D03*
%TD*%
D10*
%TO.C,KiKit_MB_149_4*%
X150000000Y-105940000D03*
%TD*%
%TO.C,KiKit_MB_29_4*%
X200269940Y-55161329D03*
%TD*%
%TO.C,KiKit_MB_119_3*%
X159420000Y-160316000D03*
%TD*%
%TO.C,KiKit_MB_66_2*%
X94909565Y-118333717D03*
%TD*%
%TO.C,KiKit_MB_89_3*%
X223269940Y-139108137D03*
%TD*%
%TO.C,KiKit_MB_45_1*%
X117709940Y-97132217D03*
%TD*%
%TO.C,KiKit_MB_120_3*%
X152800000Y-161790000D03*
%TD*%
%TO.C,KiKit_MB_120_2*%
X152800000Y-162790000D03*
%TD*%
%TO.C,KiKit_MB_134_4*%
X104220000Y-66970000D03*
%TD*%
%TO.C,KiKit_MB_61_4*%
X200269940Y-97131329D03*
%TD*%
%TO.C,KiKit_MB_4_4*%
X101420000Y-54850000D03*
%TD*%
%TO.C,KiKit_MB_138_4*%
X104220000Y-150910000D03*
%TD*%
%TO.C,KiKit_MB_42_1*%
X136689565Y-76365891D03*
%TD*%
%TO.C,KiKit_MB_88_1*%
X152800000Y-121820000D03*
%TD*%
D15*
%TO.C,H1*%
X183070000Y-79930000D03*
%TD*%
D10*
%TO.C,KiKit_MB_126_2*%
X229760000Y-161790000D03*
%TD*%
%TO.C,KiKit_MB_155_1*%
X67440000Y-189880000D03*
%TD*%
%TO.C,KiKit_MB_4_2*%
X101420000Y-52850000D03*
%TD*%
%TO.C,KiKit_MB_86_4*%
X186980000Y-121820000D03*
%TD*%
%TO.C,KiKit_MB_22_3*%
X186980000Y-36880000D03*
%TD*%
%TO.C,KiKit_MB_132_3*%
X147000000Y-107940000D03*
%TD*%
D11*
%TO.C,J1*%
X172680000Y-118970500D03*
X172180000Y-118970500D03*
X171680000Y-118970500D03*
X171180000Y-118970500D03*
X170680000Y-118970500D03*
X170180000Y-118970500D03*
X169680000Y-118970500D03*
X169180000Y-118970500D03*
X168680000Y-118970500D03*
D12*
X168177500Y-118970500D03*
D13*
X167673500Y-118970500D03*
D11*
X167180000Y-118970500D03*
D14*
X165688418Y-119655779D03*
X174163557Y-119655779D03*
%TD*%
D10*
%TO.C,KiKit_MB_42_2*%
X137689565Y-76363717D03*
%TD*%
%TO.C,KiKit_MB_111_3*%
X116640000Y-160316000D03*
%TD*%
%TO.C,KiKit_MB_59_4*%
X195580000Y-93710000D03*
%TD*%
%TO.C,KiKit_MB_140_3*%
X189780000Y-149910000D03*
%TD*%
%TO.C,KiKit_MB_43_3*%
X110020000Y-94710000D03*
%TD*%
%TO.C,KiKit_MB_120_4*%
X152800000Y-160790000D03*
%TD*%
%TO.C,KiKit_MB_129_3*%
X192780000Y-64970000D03*
%TD*%
%TO.C,KiKit_MB_49_3*%
X180489940Y-97138137D03*
%TD*%
%TO.C,KiKit_MB_47_1*%
X114640000Y-76376000D03*
%TD*%
%TO.C,KiKit_MB_62_2*%
X229760000Y-77850000D03*
%TD*%
%TO.C,KiKit_MB_86_2*%
X186980000Y-119820000D03*
%TD*%
%TO.C,KiKit_MB_119_1*%
X157420000Y-160316000D03*
%TD*%
%TO.C,KiKit_MB_52_3*%
X186980000Y-95820000D03*
%TD*%
%TO.C,KiKit_MB_34_4*%
X96909565Y-76359370D03*
%TD*%
%TO.C,KiKit_MB_148_1*%
X147000000Y-147910000D03*
%TD*%
%TO.C,KiKit_MB_3_3*%
X67240000Y-52740000D03*
%TD*%
%TO.C,KiKit_MB_75_1*%
X110020000Y-138680000D03*
%TD*%
%TO.C,KiKit_MB_57_3*%
X223269940Y-97138137D03*
%TD*%
%TO.C,KiKit_MB_83_2*%
X152800000Y-137680000D03*
%TD*%
%TO.C,KiKit_MB_50_1*%
X179469565Y-76365891D03*
%TD*%
%TO.C,KiKit_MB_159_2*%
X232560000Y-34000000D03*
%TD*%
%TO.C,KiKit_MB_152_1*%
X229560000Y-147910000D03*
%TD*%
%TO.C,KiKit_MB_52_4*%
X186980000Y-96820000D03*
%TD*%
%TO.C,KiKit_MB_98_3*%
X95909565Y-160301543D03*
%TD*%
%TO.C,KiKit_MB_151_4*%
X192780000Y-147910000D03*
%TD*%
%TO.C,KiKit_MB_52_2*%
X186980000Y-94820000D03*
%TD*%
%TO.C,KiKit_MB_115_1*%
X152800000Y-180650000D03*
%TD*%
%TO.C,KiKit_MB_157_6*%
X65440000Y-34000000D03*
%TD*%
%TO.C,KiKit_MB_109_3*%
X115709940Y-181071625D03*
%TD*%
%TO.C,KiKit_MB_133_3*%
X67440000Y-65970000D03*
%TD*%
%TO.C,KiKit_MB_69_3*%
X72929941Y-139101625D03*
%TD*%
%TO.C,KiKit_MB_74_2*%
X137689565Y-118333717D03*
%TD*%
D15*
%TO.C,H1*%
X97510000Y-79930000D03*
%TD*%
D10*
%TO.C,KiKit_MB_106_4*%
X139689565Y-160299370D03*
%TD*%
%TO.C,KiKit_MB_101_2*%
X73929941Y-181071921D03*
%TD*%
%TO.C,KiKit_MB_124_3*%
X229760000Y-179760000D03*
%TD*%
%TO.C,KiKit_MB_154_4*%
X229560000Y-23000000D03*
%TD*%
%TO.C,KiKit_MB_137_2*%
X67440000Y-148910000D03*
%TD*%
%TO.C,KiKit_MB_97_1*%
X96929940Y-181078730D03*
%TD*%
%TO.C,KiKit_MB_5_4*%
X71929941Y-55161329D03*
%TD*%
%TO.C,KiKit_MB_69_4*%
X71929941Y-139101329D03*
%TD*%
%TO.C,KiKit_MB_74_1*%
X136689565Y-118335891D03*
%TD*%
%TO.C,KiKit_MB_111_4*%
X117640000Y-160316000D03*
%TD*%
%TO.C,KiKit_MB_158_2*%
X61440000Y-180880000D03*
%TD*%
%TO.C,KiKit_MB_3_1*%
X67240000Y-54740000D03*
%TD*%
%TO.C,KiKit_MB_62_3*%
X229760000Y-78850000D03*
%TD*%
%TO.C,KiKit_MB_59_3*%
X195580000Y-94710000D03*
%TD*%
%TO.C,KiKit_MB_158_3*%
X62440000Y-180880000D03*
%TD*%
D11*
%TO.C,J1*%
X215460000Y-35030500D03*
X214960000Y-35030500D03*
X214460000Y-35030500D03*
X213960000Y-35030500D03*
X213460000Y-35030500D03*
X212960000Y-35030500D03*
X212460000Y-35030500D03*
X211960000Y-35030500D03*
X211460000Y-35030500D03*
D12*
X210957500Y-35030500D03*
D13*
X210453500Y-35030500D03*
D11*
X209960000Y-35030500D03*
D14*
X208468418Y-35715779D03*
X216943557Y-35715779D03*
%TD*%
D10*
%TO.C,KiKit_MB_136_4*%
X189780000Y-66970000D03*
%TD*%
%TO.C,KiKit_MB_113_4*%
X179489940Y-181077841D03*
%TD*%
%TO.C,KiKit_MB_5_2*%
X73929941Y-55161921D03*
%TD*%
%TO.C,KiKit_MB_137_1*%
X67440000Y-147910000D03*
%TD*%
%TO.C,KiKit_MB_24_1*%
X152800000Y-37880000D03*
%TD*%
%TO.C,KiKit_MB_73_2*%
X138709940Y-139108433D03*
%TD*%
%TO.C,KiKit_MB_18_4*%
X182469565Y-34389370D03*
%TD*%
%TO.C,KiKit_MB_61_1*%
X203269940Y-97132217D03*
%TD*%
%TO.C,KiKit_MB_141_2*%
X107220000Y-65970000D03*
%TD*%
%TO.C,KiKit_MB_90_2*%
X223249565Y-118333717D03*
%TD*%
%TO.C,KiKit_MB_60_1*%
X229760000Y-93820000D03*
%TD*%
%TO.C,KiKit_MB_147_2*%
X107220000Y-149910000D03*
%TD*%
%TO.C,KiKit_MB_5_1*%
X74929941Y-55162217D03*
%TD*%
%TO.C,KiKit_MB_142_2*%
X147000000Y-64970000D03*
%TD*%
%TO.C,KiKit_MB_131_3*%
X107220000Y-106940000D03*
%TD*%
%TO.C,KiKit_MB_2_3*%
X95909565Y-34391543D03*
%TD*%
%TO.C,KiKit_MB_13_3*%
X115709940Y-55161625D03*
%TD*%
%TO.C,KiKit_MB_49_4*%
X179489940Y-97137841D03*
%TD*%
%TO.C,KiKit_MB_68_1*%
X101420000Y-135790000D03*
%TD*%
%TO.C,KiKit_MB_53_3*%
X158489940Y-97131625D03*
%TD*%
%TO.C,KiKit_MB_116_1*%
X186980000Y-177760000D03*
%TD*%
%TO.C,KiKit_MB_137_3*%
X67440000Y-149910000D03*
%TD*%
%TO.C,KiKit_MB_135_1*%
X150000000Y-66970000D03*
%TD*%
%TO.C,KiKit_MB_9_3*%
X137709940Y-55168137D03*
%TD*%
%TO.C,KiKit_MB_142_4*%
X147000000Y-66970000D03*
%TD*%
%TO.C,KiKit_MB_13_2*%
X116709940Y-55161921D03*
%TD*%
%TO.C,KiKit_MB_85_2*%
X159489940Y-139101921D03*
%TD*%
%TO.C,KiKit_MB_48_1*%
X110020000Y-79850000D03*
%TD*%
%TO.C,KiKit_MB_43_1*%
X110020000Y-96710000D03*
%TD*%
%TO.C,KiKit_MB_80_2*%
X110020000Y-120820000D03*
%TD*%
%TO.C,KiKit_MB_109_1*%
X117709940Y-181072217D03*
%TD*%
%TO.C,KiKit_MB_160_1*%
X231560000Y-180880000D03*
%TD*%
%TO.C,KiKit_MB_88_4*%
X152800000Y-118820000D03*
%TD*%
%TO.C,KiKit_MB_14_2*%
X144200000Y-35880000D03*
%TD*%
%TO.C,KiKit_MB_132_2*%
X147000000Y-106940000D03*
%TD*%
%TO.C,KiKit_MB_154_5*%
X229560000Y-24000000D03*
%TD*%
%TO.C,KiKit_MB_63_1*%
X200200000Y-76376000D03*
%TD*%
%TO.C,KiKit_MB_97_4*%
X93929940Y-181077841D03*
%TD*%
%TO.C,KiKit_MB_50_4*%
X182469565Y-76359370D03*
%TD*%
%TO.C,KiKit_MB_159_4*%
X234560000Y-34000000D03*
%TD*%
%TO.C,KiKit_MB_160_4*%
X234560000Y-180880000D03*
%TD*%
%TO.C,KiKit_MB_129_4*%
X192780000Y-63970000D03*
%TD*%
%TO.C,KiKit_MB_12_4*%
X144200000Y-54850000D03*
%TD*%
%TO.C,KiKit_MB_51_1*%
X152800000Y-96710000D03*
%TD*%
%TO.C,KiKit_MB_69_1*%
X74929941Y-139102217D03*
%TD*%
%TO.C,KiKit_MB_117_2*%
X159489940Y-181071921D03*
%TD*%
%TO.C,KiKit_MB_19_1*%
X152800000Y-54740000D03*
%TD*%
%TO.C,KiKit_MB_76_4*%
X144200000Y-138790000D03*
%TD*%
%TO.C,KiKit_MB_105_1*%
X139709940Y-181078730D03*
%TD*%
%TO.C,KiKit_MB_118_4*%
X186980000Y-163790000D03*
%TD*%
%TO.C,KiKit_MB_140_4*%
X189780000Y-150910000D03*
%TD*%
%TO.C,KiKit_MB_22_1*%
X186980000Y-34880000D03*
%TD*%
%TO.C,KiKit_MB_56_1*%
X152800000Y-79850000D03*
%TD*%
%TO.C,KiKit_MB_8_3*%
X67240000Y-35880000D03*
%TD*%
%TO.C,KiKit_MB_147_1*%
X107220000Y-150910000D03*
%TD*%
%TO.C,KiKit_MB_37_3*%
X72929941Y-97131625D03*
%TD*%
%TO.C,KiKit_MB_89_2*%
X224269940Y-139108433D03*
%TD*%
%TO.C,KiKit_MB_90_4*%
X225249565Y-118329370D03*
%TD*%
%TO.C,KiKit_MB_39_1*%
X71860000Y-76376000D03*
%TD*%
%TO.C,KiKit_MB_128_2*%
X195580000Y-162790000D03*
%TD*%
%TO.C,KiKit_MB_105_2*%
X138709940Y-181078433D03*
%TD*%
%TO.C,KiKit_MB_8_1*%
X67240000Y-37880000D03*
%TD*%
%TO.C,KiKit_MB_7_3*%
X73860000Y-34406000D03*
%TD*%
%TO.C,KiKit_MB_102_2*%
X101420000Y-161790000D03*
%TD*%
D16*
%TO.C,KiKit_TO_4*%
X224760000Y-192480000D03*
%TD*%
D10*
%TO.C,KiKit_MB_139_2*%
X150000000Y-149910000D03*
%TD*%
%TO.C,KiKit_MB_16_4*%
X110020000Y-34880000D03*
%TD*%
%TO.C,KiKit_MB_89_1*%
X225269940Y-139108730D03*
%TD*%
%TO.C,KiKit_MB_159_3*%
X233560000Y-34000000D03*
%TD*%
%TO.C,KiKit_MB_99_1*%
X67240000Y-180650000D03*
%TD*%
%TO.C,KiKit_MB_144_2*%
X229560000Y-106940000D03*
%TD*%
%TO.C,KiKit_MB_91_2*%
X195580000Y-137680000D03*
%TD*%
%TO.C,KiKit_MB_27_4*%
X195580000Y-51740000D03*
%TD*%
%TO.C,KiKit_MB_111_2*%
X115640000Y-160316000D03*
%TD*%
%TO.C,KiKit_MB_50_3*%
X181469565Y-76361543D03*
%TD*%
%TO.C,KiKit_MB_108_4*%
X144200000Y-180760000D03*
%TD*%
%TO.C,KiKit_MB_8_4*%
X67240000Y-34880000D03*
%TD*%
%TO.C,KiKit_MB_153_2*%
X67440000Y-21000000D03*
%TD*%
%TO.C,KiKit_MB_60_3*%
X229760000Y-95820000D03*
%TD*%
%TO.C,KiKit_MB_98_2*%
X94909565Y-160303717D03*
%TD*%
%TO.C,KiKit_MB_61_3*%
X201269940Y-97131625D03*
%TD*%
%TO.C,KiKit_MB_14_1*%
X144200000Y-34880000D03*
%TD*%
%TO.C,KiKit_MB_65_1*%
X96929940Y-139108730D03*
%TD*%
%TO.C,KiKit_MB_122_1*%
X222249565Y-160305891D03*
%TD*%
%TO.C,KiKit_MB_107_2*%
X110020000Y-179650000D03*
%TD*%
%TO.C,KiKit_MB_129_2*%
X192780000Y-65970000D03*
%TD*%
%TO.C,KiKit_MB_67_3*%
X67240000Y-136680000D03*
%TD*%
%TO.C,KiKit_MB_106_1*%
X136689565Y-160305891D03*
%TD*%
%TO.C,KiKit_MB_103_4*%
X74860000Y-160316000D03*
%TD*%
%TO.C,KiKit_MB_41_4*%
X136709940Y-97137841D03*
%TD*%
%TO.C,KiKit_MB_83_3*%
X152800000Y-136680000D03*
%TD*%
%TO.C,KiKit_MB_159_5*%
X235560000Y-34000000D03*
%TD*%
%TO.C,KiKit_MB_28_3*%
X229760000Y-53850000D03*
%TD*%
%TO.C,KiKit_MB_157_4*%
X63440000Y-34000000D03*
%TD*%
%TO.C,KiKit_MB_117_1*%
X160489940Y-181072217D03*
%TD*%
%TO.C,KiKit_MB_80_1*%
X110020000Y-121820000D03*
%TD*%
%TO.C,KiKit_MB_67_1*%
X67240000Y-138680000D03*
%TD*%
%TO.C,KiKit_MB_30_2*%
X229760000Y-35880000D03*
%TD*%
%TO.C,KiKit_MB_64_2*%
X195580000Y-78850000D03*
%TD*%
%TO.C,KiKit_MB_43_2*%
X110020000Y-95710000D03*
%TD*%
%TO.C,KiKit_MB_128_1*%
X195580000Y-163790000D03*
%TD*%
%TO.C,KiKit_MB_66_3*%
X95909565Y-118331543D03*
%TD*%
%TO.C,KiKit_MB_34_3*%
X95909565Y-76361543D03*
%TD*%
%TO.C,KiKit_MB_93_3*%
X201269940Y-139101625D03*
%TD*%
D16*
%TO.C,KiKit_TO_1*%
X72240000Y-22400000D03*
%TD*%
D10*
%TO.C,KiKit_MB_157_5*%
X64440000Y-34000000D03*
%TD*%
%TO.C,KiKit_MB_6_1*%
X101420000Y-34880000D03*
%TD*%
%TO.C,KiKit_MB_8_2*%
X67240000Y-36880000D03*
%TD*%
%TO.C,KiKit_MB_6_4*%
X101420000Y-37880000D03*
%TD*%
%TO.C,KiKit_MB_99_2*%
X67240000Y-179650000D03*
%TD*%
%TO.C,KiKit_MB_20_3*%
X186980000Y-53850000D03*
%TD*%
%TO.C,KiKit_MB_60_2*%
X229760000Y-94820000D03*
%TD*%
%TO.C,KiKit_MB_16_2*%
X110020000Y-36880000D03*
%TD*%
%TO.C,KiKit_MB_151_2*%
X192780000Y-149910000D03*
%TD*%
%TO.C,KiKit_MB_15_2*%
X115640000Y-34406000D03*
%TD*%
D11*
%TO.C,J1*%
X129900000Y-77000500D03*
X129400000Y-77000500D03*
X128900000Y-77000500D03*
X128400000Y-77000500D03*
X127900000Y-77000500D03*
X127400000Y-77000500D03*
X126900000Y-77000500D03*
X126400000Y-77000500D03*
X125900000Y-77000500D03*
D12*
X125397500Y-77000500D03*
D13*
X124893500Y-77000500D03*
D11*
X124400000Y-77000500D03*
D14*
X122908418Y-77685779D03*
X131383557Y-77685779D03*
%TD*%
D10*
%TO.C,KiKit_MB_144_4*%
X229560000Y-108940000D03*
%TD*%
%TO.C,KiKit_MB_160_2*%
X232560000Y-180880000D03*
%TD*%
%TO.C,KiKit_MB_156_6*%
X229560000Y-194880000D03*
%TD*%
%TO.C,KiKit_MB_92_4*%
X229760000Y-138790000D03*
%TD*%
%TO.C,KiKit_MB_2_4*%
X96909565Y-34389370D03*
%TD*%
%TO.C,KiKit_MB_18_2*%
X180469565Y-34393717D03*
%TD*%
%TO.C,KiKit_MB_55_4*%
X160420000Y-76376000D03*
%TD*%
%TO.C,KiKit_MB_124_4*%
X229760000Y-180760000D03*
%TD*%
%TO.C,KiKit_MB_110_4*%
X144200000Y-163790000D03*
%TD*%
%TO.C,KiKit_MB_143_1*%
X192780000Y-108940000D03*
%TD*%
D11*
%TO.C,J1*%
X215460000Y-77000500D03*
X214960000Y-77000500D03*
X214460000Y-77000500D03*
X213960000Y-77000500D03*
X213460000Y-77000500D03*
X212960000Y-77000500D03*
X212460000Y-77000500D03*
X211960000Y-77000500D03*
X211460000Y-77000500D03*
D12*
X210957500Y-77000500D03*
D13*
X210453500Y-77000500D03*
D11*
X209960000Y-77000500D03*
D14*
X208468418Y-77685779D03*
X216943557Y-77685779D03*
%TD*%
D10*
%TO.C,KiKit_MB_38_1*%
X101420000Y-76850000D03*
%TD*%
D15*
%TO.C,H2*%
X199510000Y-79930000D03*
%TD*%
D10*
%TO.C,KiKit_MB_52_1*%
X186980000Y-93820000D03*
%TD*%
%TO.C,KiKit_MB_24_3*%
X152800000Y-35880000D03*
%TD*%
%TO.C,KiKit_MB_93_2*%
X202269940Y-139101921D03*
%TD*%
%TO.C,KiKit_MB_4_3*%
X101420000Y-53850000D03*
%TD*%
%TO.C,KiKit_MB_146_4*%
X104220000Y-108940000D03*
%TD*%
%TO.C,KiKit_MB_53_2*%
X159489940Y-97131921D03*
%TD*%
%TO.C,KiKit_MB_75_2*%
X110020000Y-137680000D03*
%TD*%
%TO.C,KiKit_MB_77_4*%
X114709940Y-139101329D03*
%TD*%
%TO.C,KiKit_MB_54_1*%
X186980000Y-76850000D03*
%TD*%
%TO.C,KiKit_MB_41_2*%
X138709940Y-97138433D03*
%TD*%
%TO.C,KiKit_MB_20_4*%
X186980000Y-54850000D03*
%TD*%
%TO.C,KiKit_MB_19_2*%
X152800000Y-53740000D03*
%TD*%
%TO.C,KiKit_MB_87_2*%
X158420000Y-118346000D03*
%TD*%
%TO.C,KiKit_MB_105_4*%
X136709940Y-181077841D03*
%TD*%
%TO.C,KiKit_MB_121_3*%
X223269940Y-181078137D03*
%TD*%
%TO.C,KiKit_MB_100_1*%
X101420000Y-177760000D03*
%TD*%
%TO.C,KiKit_MB_121_2*%
X224269940Y-181078433D03*
%TD*%
%TO.C,KiKit_MB_29_2*%
X202269940Y-55161921D03*
%TD*%
%TO.C,KiKit_MB_25_2*%
X224269940Y-55168433D03*
%TD*%
%TO.C,KiKit_MB_35_2*%
X67240000Y-95710000D03*
%TD*%
%TO.C,KiKit_MB_36_1*%
X101420000Y-93820000D03*
%TD*%
%TO.C,KiKit_MB_95_1*%
X200200000Y-118346000D03*
%TD*%
D16*
%TO.C,KiKit_TO_3*%
X72240000Y-192480000D03*
%TD*%
D10*
%TO.C,KiKit_MB_77_2*%
X116709940Y-139101921D03*
%TD*%
%TO.C,KiKit_MB_117_4*%
X157489940Y-181071329D03*
%TD*%
%TO.C,KiKit_MB_123_3*%
X195580000Y-178650000D03*
%TD*%
%TO.C,KiKit_MB_127_2*%
X201200000Y-160316000D03*
%TD*%
%TO.C,KiKit_MB_67_2*%
X67240000Y-137680000D03*
%TD*%
%TO.C,KiKit_MB_147_4*%
X107220000Y-147910000D03*
%TD*%
%TO.C,KiKit_MB_104_2*%
X67240000Y-162790000D03*
%TD*%
%TO.C,KiKit_MB_32_1*%
X195580000Y-37880000D03*
%TD*%
%TO.C,KiKit_MB_55_2*%
X158420000Y-76376000D03*
%TD*%
%TO.C,KiKit_MB_152_3*%
X229560000Y-149910000D03*
%TD*%
%TO.C,KiKit_MB_42_3*%
X138689565Y-76361543D03*
%TD*%
%TO.C,KiKit_MB_53_1*%
X160489940Y-97132217D03*
%TD*%
%TO.C,KiKit_MB_26_3*%
X224249565Y-34391543D03*
%TD*%
%TO.C,KiKit_MB_133_1*%
X67440000Y-63970000D03*
%TD*%
%TO.C,KiKit_MB_5_3*%
X72929941Y-55161625D03*
%TD*%
%TO.C,KiKit_MB_94_4*%
X229760000Y-121820000D03*
%TD*%
%TO.C,KiKit_MB_45_3*%
X115709940Y-97131625D03*
%TD*%
%TO.C,KiKit_MB_95_3*%
X202200000Y-118346000D03*
%TD*%
%TO.C,KiKit_MB_158_4*%
X63440000Y-180880000D03*
%TD*%
%TO.C,KiKit_MB_130_3*%
X229560000Y-65970000D03*
%TD*%
%TO.C,KiKit_MB_82_4*%
X182469565Y-118329370D03*
%TD*%
%TO.C,KiKit_MB_125_4*%
X200269940Y-181071329D03*
%TD*%
%TO.C,KiKit_MB_158_6*%
X65440000Y-180880000D03*
%TD*%
%TO.C,KiKit_MB_15_3*%
X116640000Y-34406000D03*
%TD*%
%TO.C,KiKit_MB_31_2*%
X201200000Y-34406000D03*
%TD*%
%TO.C,KiKit_MB_134_3*%
X104220000Y-65970000D03*
%TD*%
%TO.C,KiKit_MB_3_2*%
X67240000Y-53740000D03*
%TD*%
%TO.C,KiKit_MB_112_2*%
X110020000Y-162790000D03*
%TD*%
D15*
%TO.C,H2*%
X113950000Y-37960000D03*
%TD*%
D10*
%TO.C,KiKit_MB_77_1*%
X117709940Y-139102217D03*
%TD*%
%TO.C,KiKit_MB_132_1*%
X147000000Y-105940000D03*
%TD*%
%TO.C,KiKit_MB_79_3*%
X116640000Y-118346000D03*
%TD*%
%TO.C,KiKit_MB_131_4*%
X107220000Y-105940000D03*
%TD*%
%TO.C,KiKit_MB_91_1*%
X195580000Y-138680000D03*
%TD*%
%TO.C,KiKit_MB_107_3*%
X110020000Y-178650000D03*
%TD*%
%TO.C,KiKit_MB_102_3*%
X101420000Y-162790000D03*
%TD*%
%TO.C,KiKit_MB_15_1*%
X114640000Y-34406000D03*
%TD*%
%TO.C,KiKit_MB_17_1*%
X182489940Y-55168730D03*
%TD*%
%TO.C,KiKit_MB_46_2*%
X144200000Y-77850000D03*
%TD*%
%TO.C,KiKit_MB_153_4*%
X67440000Y-23000000D03*
%TD*%
%TO.C,KiKit_MB_70_1*%
X101420000Y-118820000D03*
%TD*%
%TO.C,KiKit_MB_144_1*%
X229560000Y-105940000D03*
%TD*%
%TO.C,KiKit_MB_102_4*%
X101420000Y-163790000D03*
%TD*%
%TO.C,KiKit_MB_39_4*%
X74860000Y-76376000D03*
%TD*%
D11*
%TO.C,J1*%
X87120000Y-118970500D03*
X86620000Y-118970500D03*
X86120000Y-118970500D03*
X85620000Y-118970500D03*
X85120000Y-118970500D03*
X84620000Y-118970500D03*
X84120000Y-118970500D03*
X83620000Y-118970500D03*
X83120000Y-118970500D03*
D12*
X82617500Y-118970500D03*
D13*
X82113500Y-118970500D03*
D11*
X81620000Y-118970500D03*
D14*
X80128418Y-119655779D03*
X88603557Y-119655779D03*
%TD*%
D10*
%TO.C,KiKit_MB_99_4*%
X67240000Y-177650000D03*
%TD*%
%TO.C,KiKit_MB_48_2*%
X110020000Y-78850000D03*
%TD*%
%TO.C,KiKit_MB_6_2*%
X101420000Y-35880000D03*
%TD*%
D15*
%TO.C,H2*%
X71170000Y-121900000D03*
%TD*%
D10*
%TO.C,KiKit_MB_56_3*%
X152800000Y-77850000D03*
%TD*%
%TO.C,KiKit_MB_38_4*%
X101420000Y-79850000D03*
%TD*%
%TO.C,KiKit_MB_101_3*%
X72929941Y-181071625D03*
%TD*%
%TO.C,KiKit_MB_160_5*%
X235560000Y-180880000D03*
%TD*%
%TO.C,KiKit_MB_143_3*%
X192780000Y-106940000D03*
%TD*%
%TO.C,KiKit_MB_66_4*%
X96909565Y-118329370D03*
%TD*%
%TO.C,KiKit_MB_9_2*%
X138709940Y-55168433D03*
%TD*%
D15*
%TO.C,H1*%
X140290000Y-163870000D03*
%TD*%
D10*
%TO.C,KiKit_MB_25_1*%
X225269940Y-55168730D03*
%TD*%
%TO.C,KiKit_MB_85_4*%
X157489940Y-139101329D03*
%TD*%
%TO.C,KiKit_MB_54_4*%
X186980000Y-79850000D03*
%TD*%
D15*
%TO.C,H2*%
X113950000Y-163870000D03*
%TD*%
D10*
%TO.C,KiKit_MB_44_1*%
X144200000Y-93820000D03*
%TD*%
%TO.C,KiKit_MB_121_1*%
X225269940Y-181078730D03*
%TD*%
%TO.C,KiKit_MB_78_4*%
X144200000Y-121820000D03*
%TD*%
%TO.C,KiKit_MB_30_4*%
X229760000Y-37880000D03*
%TD*%
D15*
%TO.C,H2*%
X156730000Y-79930000D03*
%TD*%
D10*
%TO.C,KiKit_MB_150_2*%
X189780000Y-106940000D03*
%TD*%
%TO.C,KiKit_MB_133_2*%
X67440000Y-64970000D03*
%TD*%
%TO.C,KiKit_MB_137_4*%
X67440000Y-150910000D03*
%TD*%
%TO.C,KiKit_MB_32_4*%
X195580000Y-34880000D03*
%TD*%
%TO.C,KiKit_MB_84_3*%
X186980000Y-137790000D03*
%TD*%
%TO.C,KiKit_MB_10_2*%
X137689565Y-34393717D03*
%TD*%
%TO.C,KiKit_MB_118_1*%
X186980000Y-160790000D03*
%TD*%
%TO.C,KiKit_MB_7_4*%
X74860000Y-34406000D03*
%TD*%
%TO.C,KiKit_MB_100_4*%
X101420000Y-180760000D03*
%TD*%
%TO.C,KiKit_MB_156_3*%
X229560000Y-191880000D03*
%TD*%
%TO.C,KiKit_MB_97_3*%
X94929940Y-181078137D03*
%TD*%
%TO.C,KiKit_MB_115_4*%
X152800000Y-177650000D03*
%TD*%
%TO.C,KiKit_MB_87_4*%
X160420000Y-118346000D03*
%TD*%
%TO.C,KiKit_MB_130_1*%
X229560000Y-63970000D03*
%TD*%
%TO.C,KiKit_MB_155_4*%
X67440000Y-192880000D03*
%TD*%
%TO.C,KiKit_MB_112_4*%
X110020000Y-160790000D03*
%TD*%
%TO.C,KiKit_MB_72_1*%
X67240000Y-121820000D03*
%TD*%
%TO.C,KiKit_MB_125_3*%
X201269940Y-181071625D03*
%TD*%
%TO.C,KiKit_MB_104_3*%
X67240000Y-161790000D03*
%TD*%
%TO.C,KiKit_MB_115_2*%
X152800000Y-179650000D03*
%TD*%
%TO.C,KiKit_MB_151_1*%
X192780000Y-150910000D03*
%TD*%
%TO.C,KiKit_MB_42_4*%
X139689565Y-76359370D03*
%TD*%
%TO.C,KiKit_MB_135_4*%
X150000000Y-63970000D03*
%TD*%
D15*
%TO.C,H2*%
X71170000Y-37960000D03*
%TD*%
D10*
%TO.C,KiKit_MB_106_3*%
X138689565Y-160301543D03*
%TD*%
%TO.C,KiKit_MB_72_3*%
X67240000Y-119820000D03*
%TD*%
%TO.C,KiKit_MB_96_2*%
X195580000Y-120820000D03*
%TD*%
%TO.C,KiKit_MB_56_2*%
X152800000Y-78850000D03*
%TD*%
%TO.C,KiKit_MB_87_1*%
X157420000Y-118346000D03*
%TD*%
%TO.C,KiKit_MB_114_1*%
X179469565Y-160305891D03*
%TD*%
%TO.C,KiKit_MB_154_2*%
X229560000Y-21000000D03*
%TD*%
%TO.C,KiKit_MB_40_3*%
X67240000Y-77850000D03*
%TD*%
%TO.C,KiKit_MB_119_2*%
X158420000Y-160316000D03*
%TD*%
%TO.C,KiKit_MB_110_1*%
X144200000Y-160790000D03*
%TD*%
D11*
%TO.C,J1*%
X172680000Y-160940500D03*
X172180000Y-160940500D03*
X171680000Y-160940500D03*
X171180000Y-160940500D03*
X170680000Y-160940500D03*
X170180000Y-160940500D03*
X169680000Y-160940500D03*
X169180000Y-160940500D03*
X168680000Y-160940500D03*
D12*
X168177500Y-160940500D03*
D13*
X167673500Y-160940500D03*
D11*
X167180000Y-160940500D03*
D14*
X165688418Y-161625779D03*
X174163557Y-161625779D03*
%TD*%
D10*
%TO.C,KiKit_MB_38_2*%
X101420000Y-77850000D03*
%TD*%
%TO.C,KiKit_MB_96_4*%
X195580000Y-118820000D03*
%TD*%
%TO.C,KiKit_MB_41_1*%
X139709940Y-97138730D03*
%TD*%
%TO.C,KiKit_MB_61_2*%
X202269940Y-97131921D03*
%TD*%
%TO.C,KiKit_MB_26_4*%
X225249565Y-34389370D03*
%TD*%
%TO.C,KiKit_MB_68_3*%
X101420000Y-137790000D03*
%TD*%
%TO.C,KiKit_MB_36_2*%
X101420000Y-94820000D03*
%TD*%
%TO.C,KiKit_MB_131_2*%
X107220000Y-107940000D03*
%TD*%
%TO.C,KiKit_MB_75_3*%
X110020000Y-136680000D03*
%TD*%
%TO.C,KiKit_MB_159_6*%
X236560000Y-34000000D03*
%TD*%
%TO.C,KiKit_MB_80_3*%
X110020000Y-119820000D03*
%TD*%
%TO.C,KiKit_MB_148_2*%
X147000000Y-148910000D03*
%TD*%
%TO.C,KiKit_MB_49_2*%
X181489940Y-97138433D03*
%TD*%
%TO.C,KiKit_MB_141_1*%
X107220000Y-66970000D03*
%TD*%
D15*
%TO.C,H2*%
X199510000Y-121900000D03*
%TD*%
%TO.C,H1*%
X140290000Y-79930000D03*
%TD*%
D10*
%TO.C,KiKit_MB_151_3*%
X192780000Y-148910000D03*
%TD*%
%TO.C,KiKit_MB_114_3*%
X181469565Y-160301543D03*
%TD*%
%TO.C,KiKit_MB_27_1*%
X195580000Y-54740000D03*
%TD*%
%TO.C,KiKit_MB_55_1*%
X157420000Y-76376000D03*
%TD*%
%TO.C,KiKit_MB_123_1*%
X195580000Y-180650000D03*
%TD*%
%TO.C,KiKit_MB_83_1*%
X152800000Y-138680000D03*
%TD*%
%TO.C,KiKit_MB_40_2*%
X67240000Y-78850000D03*
%TD*%
%TO.C,KiKit_MB_157_2*%
X61440000Y-34000000D03*
%TD*%
%TO.C,KiKit_MB_11_4*%
X110020000Y-51740000D03*
%TD*%
%TO.C,KiKit_MB_47_2*%
X115640000Y-76376000D03*
%TD*%
%TO.C,KiKit_MB_139_4*%
X150000000Y-147910000D03*
%TD*%
%TO.C,KiKit_MB_155_5*%
X67440000Y-193880000D03*
%TD*%
%TO.C,KiKit_MB_68_2*%
X101420000Y-136790000D03*
%TD*%
%TO.C,KiKit_MB_33_2*%
X95929940Y-97138433D03*
%TD*%
%TO.C,KiKit_MB_18_1*%
X179469565Y-34395891D03*
%TD*%
%TO.C,KiKit_MB_23_4*%
X160420000Y-34406000D03*
%TD*%
%TO.C,KiKit_MB_4_1*%
X101420000Y-51850000D03*
%TD*%
%TO.C,KiKit_MB_102_1*%
X101420000Y-160790000D03*
%TD*%
%TO.C,KiKit_MB_30_1*%
X229760000Y-34880000D03*
%TD*%
%TO.C,KiKit_MB_20_2*%
X186980000Y-52850000D03*
%TD*%
%TO.C,KiKit_MB_146_1*%
X104220000Y-105940000D03*
%TD*%
D16*
%TO.C,KiKit_TO_2*%
X224760000Y-22400000D03*
%TD*%
D10*
%TO.C,KiKit_MB_153_1*%
X67440000Y-20000000D03*
%TD*%
%TO.C,KiKit_MB_130_4*%
X229560000Y-66970000D03*
%TD*%
%TO.C,KiKit_MB_33_1*%
X96929940Y-97138730D03*
%TD*%
%TO.C,KiKit_MB_82_3*%
X181469565Y-118331543D03*
%TD*%
%TO.C,KiKit_MB_22_4*%
X186980000Y-37880000D03*
%TD*%
%TO.C,KiKit_MB_136_1*%
X189780000Y-63970000D03*
%TD*%
D11*
%TO.C,J1*%
X129900000Y-35030500D03*
X129400000Y-35030500D03*
X128900000Y-35030500D03*
X128400000Y-35030500D03*
X127900000Y-35030500D03*
X127400000Y-35030500D03*
X126900000Y-35030500D03*
X126400000Y-35030500D03*
X125900000Y-35030500D03*
D12*
X125397500Y-35030500D03*
D13*
X124893500Y-35030500D03*
D11*
X124400000Y-35030500D03*
D14*
X122908418Y-35715779D03*
X131383557Y-35715779D03*
%TD*%
D10*
%TO.C,KiKit_MB_160_3*%
X233560000Y-180880000D03*
%TD*%
%TO.C,KiKit_MB_141_4*%
X107220000Y-63970000D03*
%TD*%
%TO.C,KiKit_MB_2_1*%
X93909565Y-34395891D03*
%TD*%
%TO.C,KiKit_MB_111_1*%
X114640000Y-160316000D03*
%TD*%
%TO.C,KiKit_MB_77_3*%
X115709940Y-139101625D03*
%TD*%
%TO.C,KiKit_MB_71_3*%
X73860000Y-118346000D03*
%TD*%
%TO.C,KiKit_MB_28_2*%
X229760000Y-52850000D03*
%TD*%
%TO.C,KiKit_MB_23_2*%
X158420000Y-34406000D03*
%TD*%
%TO.C,KiKit_MB_155_6*%
X67440000Y-194880000D03*
%TD*%
%TO.C,KiKit_MB_21_4*%
X157489940Y-55161329D03*
%TD*%
%TO.C,KiKit_MB_57_1*%
X225269940Y-97138730D03*
%TD*%
%TO.C,KiKit_MB_66_1*%
X93909565Y-118335891D03*
%TD*%
%TO.C,KiKit_MB_27_3*%
X195580000Y-52740000D03*
%TD*%
D15*
%TO.C,H2*%
X156730000Y-163870000D03*
%TD*%
D10*
%TO.C,KiKit_MB_57_2*%
X224269940Y-97138433D03*
%TD*%
%TO.C,KiKit_MB_148_4*%
X147000000Y-150910000D03*
%TD*%
%TO.C,KiKit_MB_14_4*%
X144200000Y-37880000D03*
%TD*%
%TO.C,KiKit_MB_145_2*%
X67440000Y-106940000D03*
%TD*%
%TO.C,KiKit_MB_153_3*%
X67440000Y-22000000D03*
%TD*%
%TO.C,KiKit_MB_158_5*%
X64440000Y-180880000D03*
%TD*%
%TO.C,KiKit_MB_59_1*%
X195580000Y-96710000D03*
%TD*%
%TO.C,KiKit_MB_88_3*%
X152800000Y-119820000D03*
%TD*%
%TO.C,KiKit_MB_6_3*%
X101420000Y-36880000D03*
%TD*%
%TO.C,KiKit_MB_109_2*%
X116709940Y-181071921D03*
%TD*%
%TO.C,KiKit_MB_153_6*%
X67440000Y-25000000D03*
%TD*%
%TO.C,KiKit_MB_29_1*%
X203269940Y-55162217D03*
%TD*%
%TO.C,KiKit_MB_155_3*%
X67440000Y-191880000D03*
%TD*%
%TO.C,KiKit_MB_126_3*%
X229760000Y-162790000D03*
%TD*%
%TO.C,KiKit_MB_32_2*%
X195580000Y-36880000D03*
%TD*%
%TO.C,KiKit_MB_12_1*%
X144200000Y-51850000D03*
%TD*%
%TO.C,KiKit_MB_11_1*%
X110020000Y-54740000D03*
%TD*%
%TO.C,KiKit_MB_135_3*%
X150000000Y-64970000D03*
%TD*%
D15*
%TO.C,H1*%
X225850000Y-79930000D03*
%TD*%
D10*
%TO.C,KiKit_MB_70_2*%
X101420000Y-119820000D03*
%TD*%
D15*
%TO.C,H1*%
X225850000Y-37960000D03*
%TD*%
D10*
%TO.C,KiKit_MB_18_3*%
X181469565Y-34391543D03*
%TD*%
%TO.C,KiKit_MB_19_4*%
X152800000Y-51740000D03*
%TD*%
%TO.C,KiKit_MB_13_4*%
X114709940Y-55161329D03*
%TD*%
%TO.C,KiKit_MB_96_3*%
X195580000Y-119820000D03*
%TD*%
%TO.C,KiKit_MB_24_4*%
X152800000Y-34880000D03*
%TD*%
%TO.C,KiKit_MB_103_3*%
X73860000Y-160316000D03*
%TD*%
%TO.C,KiKit_MB_157_3*%
X62440000Y-34000000D03*
%TD*%
%TO.C,KiKit_MB_100_3*%
X101420000Y-179760000D03*
%TD*%
%TO.C,KiKit_MB_128_4*%
X195580000Y-160790000D03*
%TD*%
%TO.C,KiKit_MB_57_4*%
X222269940Y-97137841D03*
%TD*%
%TO.C,KiKit_MB_64_1*%
X195580000Y-79850000D03*
%TD*%
%TO.C,KiKit_MB_21_2*%
X159489940Y-55161921D03*
%TD*%
%TO.C,KiKit_MB_81_2*%
X181489940Y-139108433D03*
%TD*%
D15*
%TO.C,H2*%
X156730000Y-121900000D03*
%TD*%
D10*
%TO.C,KiKit_MB_108_2*%
X144200000Y-178760000D03*
%TD*%
%TO.C,KiKit_MB_48_4*%
X110020000Y-76850000D03*
%TD*%
%TO.C,KiKit_MB_89_4*%
X222269940Y-139107841D03*
%TD*%
%TO.C,KiKit_MB_43_4*%
X110020000Y-93710000D03*
%TD*%
%TO.C,KiKit_MB_142_1*%
X147000000Y-63970000D03*
%TD*%
%TO.C,KiKit_MB_101_4*%
X71929941Y-181071329D03*
%TD*%
%TO.C,KiKit_MB_58_1*%
X222249565Y-76365891D03*
%TD*%
%TO.C,KiKit_MB_56_4*%
X152800000Y-76850000D03*
%TD*%
%TO.C,KiKit_MB_115_3*%
X152800000Y-178650000D03*
%TD*%
%TO.C,KiKit_MB_72_2*%
X67240000Y-120820000D03*
%TD*%
%TO.C,KiKit_MB_128_3*%
X195580000Y-161790000D03*
%TD*%
%TO.C,KiKit_MB_51_4*%
X152800000Y-93710000D03*
%TD*%
%TO.C,KiKit_MB_153_5*%
X67440000Y-24000000D03*
%TD*%
%TO.C,KiKit_MB_46_1*%
X144200000Y-76850000D03*
%TD*%
%TO.C,KiKit_MB_156_4*%
X229560000Y-192880000D03*
%TD*%
%TO.C,KiKit_MB_82_2*%
X180469565Y-118333717D03*
%TD*%
%TO.C,KiKit_MB_36_4*%
X101420000Y-96820000D03*
%TD*%
%TO.C,KiKit_MB_150_1*%
X189780000Y-105940000D03*
%TD*%
%TO.C,KiKit_MB_11_3*%
X110020000Y-52740000D03*
%TD*%
%TO.C,KiKit_MB_72_4*%
X67240000Y-118820000D03*
%TD*%
%TO.C,KiKit_MB_104_1*%
X67240000Y-163790000D03*
%TD*%
%TO.C,KiKit_MB_113_2*%
X181489940Y-181078433D03*
%TD*%
%TO.C,KiKit_MB_35_3*%
X67240000Y-94710000D03*
%TD*%
%TO.C,KiKit_MB_44_4*%
X144200000Y-96820000D03*
%TD*%
%TO.C,KiKit_MB_63_2*%
X201200000Y-76376000D03*
%TD*%
D15*
%TO.C,H2*%
X113950000Y-121900000D03*
%TD*%
D10*
%TO.C,KiKit_MB_19_3*%
X152800000Y-52740000D03*
%TD*%
%TO.C,KiKit_MB_122_3*%
X224249565Y-160301543D03*
%TD*%
%TO.C,KiKit_MB_93_1*%
X203269940Y-139102217D03*
%TD*%
%TO.C,KiKit_MB_65_2*%
X95929940Y-139108433D03*
%TD*%
%TO.C,KiKit_MB_7_2*%
X72860000Y-34406000D03*
%TD*%
%TO.C,KiKit_MB_148_3*%
X147000000Y-149910000D03*
%TD*%
%TO.C,KiKit_MB_160_6*%
X236560000Y-180880000D03*
%TD*%
%TO.C,KiKit_MB_103_2*%
X72860000Y-160316000D03*
%TD*%
%TO.C,KiKit_MB_13_1*%
X117709940Y-55162217D03*
%TD*%
%TO.C,KiKit_MB_116_3*%
X186980000Y-179760000D03*
%TD*%
%TO.C,KiKit_MB_9_4*%
X136709940Y-55167841D03*
%TD*%
%TO.C,KiKit_MB_70_3*%
X101420000Y-120820000D03*
%TD*%
%TO.C,KiKit_MB_44_3*%
X144200000Y-95820000D03*
%TD*%
%TO.C,KiKit_MB_152_2*%
X229560000Y-148910000D03*
%TD*%
%TO.C,KiKit_MB_81_4*%
X179489940Y-139107841D03*
%TD*%
%TO.C,KiKit_MB_75_4*%
X110020000Y-135680000D03*
%TD*%
%TO.C,KiKit_MB_73_1*%
X139709940Y-139108730D03*
%TD*%
%TO.C,KiKit_MB_154_1*%
X229560000Y-20000000D03*
%TD*%
%TO.C,KiKit_MB_44_2*%
X144200000Y-94820000D03*
%TD*%
%TO.C,KiKit_MB_123_2*%
X195580000Y-179650000D03*
%TD*%
%TO.C,KiKit_MB_110_2*%
X144200000Y-161790000D03*
%TD*%
%TO.C,KiKit_MB_145_4*%
X67440000Y-108940000D03*
%TD*%
%TO.C,KiKit_MB_45_2*%
X116709940Y-97131921D03*
%TD*%
%TO.C,KiKit_MB_126_1*%
X229760000Y-160790000D03*
%TD*%
%TO.C,KiKit_MB_73_4*%
X136709940Y-139107841D03*
%TD*%
%TO.C,KiKit_MB_31_4*%
X203200000Y-34406000D03*
%TD*%
%TO.C,KiKit_MB_86_3*%
X186980000Y-120820000D03*
%TD*%
D11*
%TO.C,J1*%
X87120000Y-160940500D03*
X86620000Y-160940500D03*
X86120000Y-160940500D03*
X85620000Y-160940500D03*
X85120000Y-160940500D03*
X84620000Y-160940500D03*
X84120000Y-160940500D03*
X83620000Y-160940500D03*
X83120000Y-160940500D03*
D12*
X82617500Y-160940500D03*
D13*
X82113500Y-160940500D03*
D11*
X81620000Y-160940500D03*
D14*
X80128418Y-161625779D03*
X88603557Y-161625779D03*
%TD*%
D11*
%TO.C,J1*%
X129900000Y-118970500D03*
X129400000Y-118970500D03*
X128900000Y-118970500D03*
X128400000Y-118970500D03*
X127900000Y-118970500D03*
X127400000Y-118970500D03*
X126900000Y-118970500D03*
X126400000Y-118970500D03*
X125900000Y-118970500D03*
D12*
X125397500Y-118970500D03*
D13*
X124893500Y-118970500D03*
D11*
X124400000Y-118970500D03*
D14*
X122908418Y-119655779D03*
X131383557Y-119655779D03*
%TD*%
D10*
%TO.C,KiKit_MB_91_3*%
X195580000Y-136680000D03*
%TD*%
%TO.C,KiKit_MB_9_1*%
X139709940Y-55168730D03*
%TD*%
%TO.C,KiKit_MB_100_2*%
X101420000Y-178760000D03*
%TD*%
%TO.C,KiKit_MB_152_4*%
X229560000Y-150910000D03*
%TD*%
%TO.C,KiKit_MB_134_1*%
X104220000Y-63970000D03*
%TD*%
%TO.C,KiKit_MB_156_1*%
X229560000Y-189880000D03*
%TD*%
D15*
%TO.C,H1*%
X225850000Y-163870000D03*
%TD*%
D10*
%TO.C,KiKit_MB_1_1*%
X96929940Y-55168730D03*
%TD*%
%TO.C,KiKit_MB_29_3*%
X201269940Y-55161625D03*
%TD*%
%TO.C,KiKit_MB_156_2*%
X229560000Y-190880000D03*
%TD*%
%TO.C,KiKit_MB_17_2*%
X181489940Y-55168433D03*
%TD*%
%TO.C,KiKit_MB_94_2*%
X229760000Y-119820000D03*
%TD*%
%TO.C,KiKit_MB_140_1*%
X189780000Y-147910000D03*
%TD*%
%TO.C,KiKit_MB_149_2*%
X150000000Y-107940000D03*
%TD*%
%TO.C,KiKit_MB_143_4*%
X192780000Y-105940000D03*
%TD*%
%TO.C,KiKit_MB_73_3*%
X137709940Y-139108137D03*
%TD*%
%TO.C,KiKit_MB_108_1*%
X144200000Y-177760000D03*
%TD*%
%TO.C,KiKit_MB_50_2*%
X180469565Y-76363717D03*
%TD*%
%TO.C,KiKit_MB_84_4*%
X186980000Y-138790000D03*
%TD*%
%TO.C,KiKit_MB_26_2*%
X223249565Y-34393717D03*
%TD*%
%TO.C,KiKit_MB_150_4*%
X189780000Y-108940000D03*
%TD*%
%TO.C,KiKit_MB_78_2*%
X144200000Y-119820000D03*
%TD*%
%TO.C,KiKit_MB_23_3*%
X159420000Y-34406000D03*
%TD*%
%TO.C,KiKit_MB_76_2*%
X144200000Y-136790000D03*
%TD*%
%TO.C,KiKit_MB_78_1*%
X144200000Y-118820000D03*
%TD*%
%TO.C,KiKit_MB_10_4*%
X139689565Y-34389370D03*
%TD*%
%TO.C,KiKit_MB_138_2*%
X104220000Y-148910000D03*
%TD*%
%TO.C,KiKit_MB_33_3*%
X94929940Y-97138137D03*
%TD*%
%TO.C,KiKit_MB_107_4*%
X110020000Y-177650000D03*
%TD*%
%TO.C,KiKit_MB_91_4*%
X195580000Y-135680000D03*
%TD*%
%TO.C,KiKit_MB_94_1*%
X229760000Y-118820000D03*
%TD*%
%TO.C,KiKit_MB_46_3*%
X144200000Y-78850000D03*
%TD*%
%TO.C,KiKit_MB_145_3*%
X67440000Y-107940000D03*
%TD*%
%TO.C,KiKit_MB_81_3*%
X180489940Y-139108137D03*
%TD*%
%TO.C,KiKit_MB_39_3*%
X73860000Y-76376000D03*
%TD*%
D15*
%TO.C,H1*%
X140290000Y-37960000D03*
%TD*%
D10*
%TO.C,KiKit_MB_114_2*%
X180469565Y-160303717D03*
%TD*%
D15*
%TO.C,H1*%
X225850000Y-121900000D03*
%TD*%
D10*
%TO.C,KiKit_MB_15_4*%
X117640000Y-34406000D03*
%TD*%
%TO.C,KiKit_MB_105_3*%
X137709940Y-181078137D03*
%TD*%
%TO.C,KiKit_MB_144_3*%
X229560000Y-107940000D03*
%TD*%
%TO.C,KiKit_MB_149_3*%
X150000000Y-106940000D03*
%TD*%
%TO.C,KiKit_MB_149_1*%
X150000000Y-108940000D03*
%TD*%
%TO.C,KiKit_MB_97_2*%
X95929940Y-181078433D03*
%TD*%
%TO.C,KiKit_MB_133_4*%
X67440000Y-66970000D03*
%TD*%
%TO.C,KiKit_MB_17_4*%
X179489940Y-55167841D03*
%TD*%
%TO.C,KiKit_MB_37_4*%
X71929941Y-97131329D03*
%TD*%
%TO.C,KiKit_MB_130_2*%
X229560000Y-64970000D03*
%TD*%
%TO.C,KiKit_MB_7_1*%
X71860000Y-34406000D03*
%TD*%
%TO.C,KiKit_MB_10_1*%
X136689565Y-34395891D03*
%TD*%
%TO.C,KiKit_MB_155_2*%
X67440000Y-190880000D03*
%TD*%
%TO.C,KiKit_MB_64_4*%
X195580000Y-76850000D03*
%TD*%
%TO.C,KiKit_MB_47_4*%
X117640000Y-76376000D03*
%TD*%
%TO.C,KiKit_MB_90_1*%
X222249565Y-118335891D03*
%TD*%
%TO.C,KiKit_MB_82_1*%
X179469565Y-118335891D03*
%TD*%
%TO.C,KiKit_MB_96_1*%
X195580000Y-121820000D03*
%TD*%
%TO.C,KiKit_MB_74_4*%
X139689565Y-118329370D03*
%TD*%
%TO.C,KiKit_MB_79_1*%
X114640000Y-118346000D03*
%TD*%
%TO.C,KiKit_MB_121_4*%
X222269940Y-181077841D03*
%TD*%
%TO.C,KiKit_MB_23_1*%
X157420000Y-34406000D03*
%TD*%
%TO.C,KiKit_MB_120_1*%
X152800000Y-163790000D03*
%TD*%
%TO.C,KiKit_MB_147_3*%
X107220000Y-148910000D03*
%TD*%
%TO.C,KiKit_MB_87_3*%
X159420000Y-118346000D03*
%TD*%
%TO.C,KiKit_MB_27_2*%
X195580000Y-53740000D03*
%TD*%
%TO.C,KiKit_MB_48_3*%
X110020000Y-77850000D03*
%TD*%
%TO.C,KiKit_MB_47_3*%
X116640000Y-76376000D03*
%TD*%
%TO.C,KiKit_MB_117_3*%
X158489940Y-181071625D03*
%TD*%
%TO.C,KiKit_MB_71_4*%
X74860000Y-118346000D03*
%TD*%
%TO.C,KiKit_MB_84_1*%
X186980000Y-135790000D03*
%TD*%
%TO.C,KiKit_MB_116_2*%
X186980000Y-178760000D03*
%TD*%
%TO.C,KiKit_MB_112_3*%
X110020000Y-161790000D03*
%TD*%
%TO.C,KiKit_MB_159_1*%
X231560000Y-34000000D03*
%TD*%
%TO.C,KiKit_MB_154_3*%
X229560000Y-22000000D03*
%TD*%
%TO.C,KiKit_MB_40_4*%
X67240000Y-76850000D03*
%TD*%
%TO.C,KiKit_MB_35_4*%
X67240000Y-93710000D03*
%TD*%
%TO.C,KiKit_MB_132_4*%
X147000000Y-108940000D03*
%TD*%
D15*
%TO.C,H1*%
X97510000Y-121900000D03*
%TD*%
D10*
%TO.C,KiKit_MB_136_3*%
X189780000Y-65970000D03*
%TD*%
%TO.C,KiKit_MB_70_4*%
X101420000Y-121820000D03*
%TD*%
%TO.C,KiKit_MB_45_4*%
X114709940Y-97131329D03*
%TD*%
%TO.C,KiKit_MB_46_4*%
X144200000Y-79850000D03*
%TD*%
%TO.C,KiKit_MB_112_1*%
X110020000Y-163790000D03*
%TD*%
%TO.C,KiKit_MB_113_3*%
X180489940Y-181078137D03*
%TD*%
%TO.C,KiKit_MB_71_2*%
X72860000Y-118346000D03*
%TD*%
%TO.C,KiKit_MB_127_3*%
X202200000Y-160316000D03*
%TD*%
%TO.C,KiKit_MB_63_3*%
X202200000Y-76376000D03*
%TD*%
%TO.C,KiKit_MB_127_4*%
X203200000Y-160316000D03*
%TD*%
%TO.C,KiKit_MB_122_2*%
X223249565Y-160303717D03*
%TD*%
D15*
%TO.C,H2*%
X156730000Y-37960000D03*
%TD*%
D10*
%TO.C,KiKit_MB_55_3*%
X159420000Y-76376000D03*
%TD*%
%TO.C,KiKit_MB_139_3*%
X150000000Y-148910000D03*
%TD*%
%TO.C,KiKit_MB_64_3*%
X195580000Y-77850000D03*
%TD*%
%TO.C,KiKit_MB_1_2*%
X95929940Y-55168433D03*
%TD*%
%TO.C,KiKit_MB_74_3*%
X138689565Y-118331543D03*
%TD*%
%TO.C,KiKit_MB_146_3*%
X104220000Y-107940000D03*
%TD*%
%TO.C,KiKit_MB_81_1*%
X182489940Y-139108730D03*
%TD*%
%TO.C,KiKit_MB_125_2*%
X202269940Y-181071921D03*
%TD*%
%TO.C,KiKit_MB_136_2*%
X189780000Y-64970000D03*
%TD*%
%TO.C,KiKit_MB_95_2*%
X201200000Y-118346000D03*
%TD*%
%TO.C,KiKit_MB_16_1*%
X110020000Y-37880000D03*
%TD*%
%TO.C,KiKit_MB_124_1*%
X229760000Y-177760000D03*
%TD*%
%TO.C,KiKit_MB_62_1*%
X229760000Y-76850000D03*
%TD*%
%TO.C,KiKit_MB_28_4*%
X229760000Y-54850000D03*
%TD*%
%TO.C,KiKit_MB_118_2*%
X186980000Y-161790000D03*
%TD*%
%TO.C,KiKit_MB_127_1*%
X200200000Y-160316000D03*
%TD*%
%TO.C,KiKit_MB_140_2*%
X189780000Y-148910000D03*
%TD*%
%TO.C,KiKit_MB_62_4*%
X229760000Y-79850000D03*
%TD*%
%TO.C,KiKit_MB_156_5*%
X229560000Y-193880000D03*
%TD*%
%TO.C,KiKit_MB_68_4*%
X101420000Y-138790000D03*
%TD*%
%TO.C,KiKit_MB_21_3*%
X158489940Y-55161625D03*
%TD*%
%TO.C,KiKit_MB_79_4*%
X117640000Y-118346000D03*
%TD*%
%TO.C,KiKit_MB_21_1*%
X160489940Y-55162217D03*
%TD*%
%TO.C,KiKit_MB_16_3*%
X110020000Y-35880000D03*
%TD*%
%TO.C,KiKit_MB_54_2*%
X186980000Y-77850000D03*
%TD*%
%TO.C,KiKit_MB_90_3*%
X224249565Y-118331543D03*
%TD*%
%TO.C,KiKit_MB_143_2*%
X192780000Y-107940000D03*
%TD*%
%TO.C,KiKit_MB_53_4*%
X157489940Y-97131329D03*
%TD*%
%TO.C,KiKit_MB_71_1*%
X71860000Y-118346000D03*
%TD*%
%TO.C,KiKit_MB_139_1*%
X150000000Y-150910000D03*
%TD*%
D15*
%TO.C,H1*%
X183070000Y-37960000D03*
%TD*%
D10*
%TO.C,KiKit_MB_30_3*%
X229760000Y-36880000D03*
%TD*%
D15*
%TO.C,H2*%
X113950000Y-79930000D03*
%TD*%
D10*
%TO.C,KiKit_MB_94_3*%
X229760000Y-120820000D03*
%TD*%
%TO.C,KiKit_MB_12_3*%
X144200000Y-53850000D03*
%TD*%
%TO.C,KiKit_MB_131_1*%
X107220000Y-108940000D03*
%TD*%
%TO.C,KiKit_MB_33_4*%
X93929940Y-97137841D03*
%TD*%
%TO.C,KiKit_MB_122_4*%
X225249565Y-160299370D03*
%TD*%
%TO.C,KiKit_MB_25_4*%
X222269940Y-55167841D03*
%TD*%
D15*
%TO.C,H2*%
X199510000Y-37960000D03*
%TD*%
%TO.C,H2*%
X71170000Y-79930000D03*
%TD*%
D10*
%TO.C,KiKit_MB_99_3*%
X67240000Y-178650000D03*
%TD*%
D15*
%TO.C,H1*%
X183070000Y-121900000D03*
%TD*%
D10*
%TO.C,KiKit_MB_85_1*%
X160489940Y-139102217D03*
%TD*%
%TO.C,KiKit_MB_14_3*%
X144200000Y-36880000D03*
%TD*%
%TO.C,KiKit_MB_25_3*%
X223269940Y-55168137D03*
%TD*%
%TO.C,KiKit_MB_106_2*%
X137689565Y-160303717D03*
%TD*%
%TO.C,KiKit_MB_63_4*%
X203200000Y-76376000D03*
%TD*%
%TO.C,KiKit_MB_28_1*%
X229760000Y-51850000D03*
%TD*%
%TO.C,KiKit_MB_93_4*%
X200269940Y-139101329D03*
%TD*%
%TO.C,KiKit_MB_124_2*%
X229760000Y-178760000D03*
%TD*%
%TO.C,KiKit_MB_60_4*%
X229760000Y-96820000D03*
%TD*%
%TO.C,KiKit_MB_3_4*%
X67240000Y-51740000D03*
%TD*%
%TO.C,KiKit_MB_51_3*%
X152800000Y-94710000D03*
%TD*%
D11*
%TO.C,J1*%
X172680000Y-35030500D03*
X172180000Y-35030500D03*
X171680000Y-35030500D03*
X171180000Y-35030500D03*
X170680000Y-35030500D03*
X170180000Y-35030500D03*
X169680000Y-35030500D03*
X169180000Y-35030500D03*
X168680000Y-35030500D03*
D12*
X168177500Y-35030500D03*
D13*
X167673500Y-35030500D03*
D11*
X167180000Y-35030500D03*
D14*
X165688418Y-35715779D03*
X174163557Y-35715779D03*
%TD*%
D10*
%TO.C,KiKit_MB_86_1*%
X186980000Y-118820000D03*
%TD*%
%TO.C,KiKit_MB_51_2*%
X152800000Y-95710000D03*
%TD*%
%TO.C,KiKit_MB_59_2*%
X195580000Y-95710000D03*
%TD*%
%TO.C,KiKit_MB_58_2*%
X223249565Y-76363717D03*
%TD*%
%TO.C,KiKit_MB_17_3*%
X180489940Y-55168137D03*
%TD*%
%TO.C,KiKit_MB_114_4*%
X182469565Y-160299370D03*
%TD*%
%TO.C,KiKit_MB_157_1*%
X60440000Y-34000000D03*
%TD*%
%TO.C,KiKit_MB_116_4*%
X186980000Y-180760000D03*
%TD*%
D15*
%TO.C,H1*%
X97510000Y-37960000D03*
%TD*%
D10*
%TO.C,KiKit_MB_126_4*%
X229760000Y-163790000D03*
%TD*%
%TO.C,KiKit_MB_20_1*%
X186980000Y-51850000D03*
%TD*%
%TO.C,KiKit_MB_31_1*%
X200200000Y-34406000D03*
%TD*%
D15*
%TO.C,H2*%
X71170000Y-163870000D03*
%TD*%
D10*
%TO.C,KiKit_MB_88_2*%
X152800000Y-120820000D03*
%TD*%
%TO.C,KiKit_MB_58_3*%
X224249565Y-76361543D03*
%TD*%
%TO.C,KiKit_MB_34_1*%
X93909565Y-76365891D03*
%TD*%
D15*
%TO.C,H1*%
X183070000Y-163870000D03*
%TD*%
D10*
%TO.C,KiKit_MB_83_4*%
X152800000Y-135680000D03*
%TD*%
%TO.C,KiKit_MB_110_3*%
X144200000Y-162790000D03*
%TD*%
%TO.C,KiKit_MB_12_2*%
X144200000Y-52850000D03*
%TD*%
%TO.C,KiKit_MB_138_3*%
X104220000Y-149910000D03*
%TD*%
%TO.C,KiKit_MB_65_4*%
X93929940Y-139107841D03*
%TD*%
%TO.C,KiKit_MB_38_3*%
X101420000Y-78850000D03*
%TD*%
%TO.C,KiKit_MB_84_2*%
X186980000Y-136790000D03*
%TD*%
%TO.C,KiKit_MB_1_3*%
X94929940Y-55168137D03*
%TD*%
D11*
%TO.C,J1*%
X172680000Y-77000500D03*
X172180000Y-77000500D03*
X171680000Y-77000500D03*
X171180000Y-77000500D03*
X170680000Y-77000500D03*
X170180000Y-77000500D03*
X169680000Y-77000500D03*
X169180000Y-77000500D03*
X168680000Y-77000500D03*
D12*
X168177500Y-77000500D03*
D13*
X167673500Y-77000500D03*
D11*
X167180000Y-77000500D03*
D14*
X165688418Y-77685779D03*
X174163557Y-77685779D03*
%TD*%
D10*
%TO.C,KiKit_MB_1_4*%
X93929940Y-55167841D03*
%TD*%
%TO.C,KiKit_MB_129_1*%
X192780000Y-66970000D03*
%TD*%
%TO.C,KiKit_MB_142_3*%
X147000000Y-65970000D03*
%TD*%
%TO.C,KiKit_MB_98_1*%
X93909565Y-160305891D03*
%TD*%
%TO.C,KiKit_MB_101_1*%
X74929941Y-181072217D03*
%TD*%
%TO.C,KiKit_MB_109_4*%
X114709940Y-181071329D03*
%TD*%
%TO.C,KiKit_MB_154_6*%
X229560000Y-25000000D03*
%TD*%
%TO.C,KiKit_MB_113_1*%
X182489940Y-181078730D03*
%TD*%
%TO.C,KiKit_MB_69_2*%
X73929941Y-139101921D03*
%TD*%
%TO.C,KiKit_MB_92_3*%
X229760000Y-137790000D03*
%TD*%
%TO.C,KiKit_MB_79_2*%
X115640000Y-118346000D03*
%TD*%
D17*
%TO.C,J2*%
X98337500Y-136352500D03*
D18*
X98372500Y-133392500D03*
D19*
X95790000Y-136352500D03*
D20*
X95782500Y-133392500D03*
D21*
X93257500Y-136357500D03*
D22*
X93272500Y-133397500D03*
D23*
X90707500Y-136357500D03*
D24*
X90737500Y-133392500D03*
D19*
X88170000Y-136352500D03*
D25*
X88172500Y-133397500D03*
D26*
X85632500Y-136352500D03*
D27*
X85617500Y-133392500D03*
D28*
X83087500Y-136352500D03*
D29*
X83097500Y-133392500D03*
D28*
X80547500Y-136352500D03*
D20*
X80562500Y-133392500D03*
D30*
X78002500Y-136352500D03*
D31*
X78027500Y-133392500D03*
D26*
X75472500Y-136352500D03*
D30*
X75462500Y-133387500D03*
D28*
X72927500Y-136352500D03*
D32*
X72922500Y-133392500D03*
D19*
X70390000Y-136352500D03*
D33*
X70382500Y-133402500D03*
%TD*%
D17*
%TO.C,J2*%
X141117500Y-94382500D03*
D18*
X141152500Y-91422500D03*
D19*
X138570000Y-94382500D03*
D20*
X138562500Y-91422500D03*
D21*
X136037500Y-94387500D03*
D22*
X136052500Y-91427500D03*
D23*
X133487500Y-94387500D03*
D24*
X133517500Y-91422500D03*
D19*
X130950000Y-94382500D03*
D25*
X130952500Y-91427500D03*
D26*
X128412500Y-94382500D03*
D27*
X128397500Y-91422500D03*
D28*
X125867500Y-94382500D03*
D29*
X125877500Y-91422500D03*
D28*
X123327500Y-94382500D03*
D20*
X123342500Y-91422500D03*
D30*
X120782500Y-94382500D03*
D31*
X120807500Y-91422500D03*
D26*
X118252500Y-94382500D03*
D30*
X118242500Y-91417500D03*
D28*
X115707500Y-94382500D03*
D32*
X115702500Y-91422500D03*
D19*
X113170000Y-94382500D03*
D33*
X113162500Y-91432500D03*
%TD*%
D17*
%TO.C,J2*%
X226677500Y-178322500D03*
D18*
X226712500Y-175362500D03*
D19*
X224130000Y-178322500D03*
D20*
X224122500Y-175362500D03*
D21*
X221597500Y-178327500D03*
D22*
X221612500Y-175367500D03*
D23*
X219047500Y-178327500D03*
D24*
X219077500Y-175362500D03*
D19*
X216510000Y-178322500D03*
D25*
X216512500Y-175367500D03*
D26*
X213972500Y-178322500D03*
D27*
X213957500Y-175362500D03*
D28*
X211427500Y-178322500D03*
D29*
X211437500Y-175362500D03*
D28*
X208887500Y-178322500D03*
D20*
X208902500Y-175362500D03*
D30*
X206342500Y-178322500D03*
D31*
X206367500Y-175362500D03*
D26*
X203812500Y-178322500D03*
D30*
X203802500Y-175357500D03*
D28*
X201267500Y-178322500D03*
D32*
X201262500Y-175362500D03*
D19*
X198730000Y-178322500D03*
D33*
X198722500Y-175372500D03*
%TD*%
D17*
%TO.C,J2*%
X141117500Y-52412500D03*
D18*
X141152500Y-49452500D03*
D19*
X138570000Y-52412500D03*
D20*
X138562500Y-49452500D03*
D21*
X136037500Y-52417500D03*
D22*
X136052500Y-49457500D03*
D23*
X133487500Y-52417500D03*
D24*
X133517500Y-49452500D03*
D19*
X130950000Y-52412500D03*
D25*
X130952500Y-49457500D03*
D26*
X128412500Y-52412500D03*
D27*
X128397500Y-49452500D03*
D28*
X125867500Y-52412500D03*
D29*
X125877500Y-49452500D03*
D28*
X123327500Y-52412500D03*
D20*
X123342500Y-49452500D03*
D30*
X120782500Y-52412500D03*
D31*
X120807500Y-49452500D03*
D26*
X118252500Y-52412500D03*
D30*
X118242500Y-49447500D03*
D28*
X115707500Y-52412500D03*
D32*
X115702500Y-49452500D03*
D19*
X113170000Y-52412500D03*
D33*
X113162500Y-49462500D03*
%TD*%
D17*
%TO.C,J2*%
X226677500Y-136352500D03*
D18*
X226712500Y-133392500D03*
D19*
X224130000Y-136352500D03*
D20*
X224122500Y-133392500D03*
D21*
X221597500Y-136357500D03*
D22*
X221612500Y-133397500D03*
D23*
X219047500Y-136357500D03*
D24*
X219077500Y-133392500D03*
D19*
X216510000Y-136352500D03*
D25*
X216512500Y-133397500D03*
D26*
X213972500Y-136352500D03*
D27*
X213957500Y-133392500D03*
D28*
X211427500Y-136352500D03*
D29*
X211437500Y-133392500D03*
D28*
X208887500Y-136352500D03*
D20*
X208902500Y-133392500D03*
D30*
X206342500Y-136352500D03*
D31*
X206367500Y-133392500D03*
D26*
X203812500Y-136352500D03*
D30*
X203802500Y-133387500D03*
D28*
X201267500Y-136352500D03*
D32*
X201262500Y-133392500D03*
D19*
X198730000Y-136352500D03*
D33*
X198722500Y-133402500D03*
%TD*%
D17*
%TO.C,J2*%
X98337500Y-52412500D03*
D18*
X98372500Y-49452500D03*
D19*
X95790000Y-52412500D03*
D20*
X95782500Y-49452500D03*
D21*
X93257500Y-52417500D03*
D22*
X93272500Y-49457500D03*
D23*
X90707500Y-52417500D03*
D24*
X90737500Y-49452500D03*
D19*
X88170000Y-52412500D03*
D25*
X88172500Y-49457500D03*
D26*
X85632500Y-52412500D03*
D27*
X85617500Y-49452500D03*
D28*
X83087500Y-52412500D03*
D29*
X83097500Y-49452500D03*
D28*
X80547500Y-52412500D03*
D20*
X80562500Y-49452500D03*
D30*
X78002500Y-52412500D03*
D31*
X78027500Y-49452500D03*
D26*
X75472500Y-52412500D03*
D30*
X75462500Y-49447500D03*
D28*
X72927500Y-52412500D03*
D32*
X72922500Y-49452500D03*
D19*
X70390000Y-52412500D03*
D33*
X70382500Y-49462500D03*
%TD*%
D17*
%TO.C,J2*%
X183897500Y-52412500D03*
D18*
X183932500Y-49452500D03*
D19*
X181350000Y-52412500D03*
D20*
X181342500Y-49452500D03*
D21*
X178817500Y-52417500D03*
D22*
X178832500Y-49457500D03*
D23*
X176267500Y-52417500D03*
D24*
X176297500Y-49452500D03*
D19*
X173730000Y-52412500D03*
D25*
X173732500Y-49457500D03*
D26*
X171192500Y-52412500D03*
D27*
X171177500Y-49452500D03*
D28*
X168647500Y-52412500D03*
D29*
X168657500Y-49452500D03*
D28*
X166107500Y-52412500D03*
D20*
X166122500Y-49452500D03*
D30*
X163562500Y-52412500D03*
D31*
X163587500Y-49452500D03*
D26*
X161032500Y-52412500D03*
D30*
X161022500Y-49447500D03*
D28*
X158487500Y-52412500D03*
D32*
X158482500Y-49452500D03*
D19*
X155950000Y-52412500D03*
D33*
X155942500Y-49462500D03*
%TD*%
D17*
%TO.C,J2*%
X98337500Y-178322500D03*
D18*
X98372500Y-175362500D03*
D19*
X95790000Y-178322500D03*
D20*
X95782500Y-175362500D03*
D21*
X93257500Y-178327500D03*
D22*
X93272500Y-175367500D03*
D23*
X90707500Y-178327500D03*
D24*
X90737500Y-175362500D03*
D19*
X88170000Y-178322500D03*
D25*
X88172500Y-175367500D03*
D26*
X85632500Y-178322500D03*
D27*
X85617500Y-175362500D03*
D28*
X83087500Y-178322500D03*
D29*
X83097500Y-175362500D03*
D28*
X80547500Y-178322500D03*
D20*
X80562500Y-175362500D03*
D30*
X78002500Y-178322500D03*
D31*
X78027500Y-175362500D03*
D26*
X75472500Y-178322500D03*
D30*
X75462500Y-175357500D03*
D28*
X72927500Y-178322500D03*
D32*
X72922500Y-175362500D03*
D19*
X70390000Y-178322500D03*
D33*
X70382500Y-175372500D03*
%TD*%
D34*
%TO.C,KiKit_FID_B_2*%
X218760000Y-22450000D03*
%TD*%
D17*
%TO.C,J2*%
X98337500Y-94382500D03*
D18*
X98372500Y-91422500D03*
D19*
X95790000Y-94382500D03*
D20*
X95782500Y-91422500D03*
D21*
X93257500Y-94387500D03*
D22*
X93272500Y-91427500D03*
D23*
X90707500Y-94387500D03*
D24*
X90737500Y-91422500D03*
D19*
X88170000Y-94382500D03*
D25*
X88172500Y-91427500D03*
D26*
X85632500Y-94382500D03*
D27*
X85617500Y-91422500D03*
D28*
X83087500Y-94382500D03*
D29*
X83097500Y-91422500D03*
D28*
X80547500Y-94382500D03*
D20*
X80562500Y-91422500D03*
D30*
X78002500Y-94382500D03*
D31*
X78027500Y-91422500D03*
D26*
X75472500Y-94382500D03*
D30*
X75462500Y-91417500D03*
D28*
X72927500Y-94382500D03*
D32*
X72922500Y-91422500D03*
D19*
X70390000Y-94382500D03*
D33*
X70382500Y-91432500D03*
%TD*%
D17*
%TO.C,J2*%
X226677500Y-52412500D03*
D18*
X226712500Y-49452500D03*
D19*
X224130000Y-52412500D03*
D20*
X224122500Y-49452500D03*
D21*
X221597500Y-52417500D03*
D22*
X221612500Y-49457500D03*
D23*
X219047500Y-52417500D03*
D24*
X219077500Y-49452500D03*
D19*
X216510000Y-52412500D03*
D25*
X216512500Y-49457500D03*
D26*
X213972500Y-52412500D03*
D27*
X213957500Y-49452500D03*
D28*
X211427500Y-52412500D03*
D29*
X211437500Y-49452500D03*
D28*
X208887500Y-52412500D03*
D20*
X208902500Y-49452500D03*
D30*
X206342500Y-52412500D03*
D31*
X206367500Y-49452500D03*
D26*
X203812500Y-52412500D03*
D30*
X203802500Y-49447500D03*
D28*
X201267500Y-52412500D03*
D32*
X201262500Y-49452500D03*
D19*
X198730000Y-52412500D03*
D33*
X198722500Y-49462500D03*
%TD*%
D17*
%TO.C,J2*%
X141117500Y-178322500D03*
D18*
X141152500Y-175362500D03*
D19*
X138570000Y-178322500D03*
D20*
X138562500Y-175362500D03*
D21*
X136037500Y-178327500D03*
D22*
X136052500Y-175367500D03*
D23*
X133487500Y-178327500D03*
D24*
X133517500Y-175362500D03*
D19*
X130950000Y-178322500D03*
D25*
X130952500Y-175367500D03*
D26*
X128412500Y-178322500D03*
D27*
X128397500Y-175362500D03*
D28*
X125867500Y-178322500D03*
D29*
X125877500Y-175362500D03*
D28*
X123327500Y-178322500D03*
D20*
X123342500Y-175362500D03*
D30*
X120782500Y-178322500D03*
D31*
X120807500Y-175362500D03*
D26*
X118252500Y-178322500D03*
D30*
X118242500Y-175357500D03*
D28*
X115707500Y-178322500D03*
D32*
X115702500Y-175362500D03*
D19*
X113170000Y-178322500D03*
D33*
X113162500Y-175372500D03*
%TD*%
D17*
%TO.C,J2*%
X183897500Y-178322500D03*
D18*
X183932500Y-175362500D03*
D19*
X181350000Y-178322500D03*
D20*
X181342500Y-175362500D03*
D21*
X178817500Y-178327500D03*
D22*
X178832500Y-175367500D03*
D23*
X176267500Y-178327500D03*
D24*
X176297500Y-175362500D03*
D19*
X173730000Y-178322500D03*
D25*
X173732500Y-175367500D03*
D26*
X171192500Y-178322500D03*
D27*
X171177500Y-175362500D03*
D28*
X168647500Y-178322500D03*
D29*
X168657500Y-175362500D03*
D28*
X166107500Y-178322500D03*
D20*
X166122500Y-175362500D03*
D30*
X163562500Y-178322500D03*
D31*
X163587500Y-175362500D03*
D26*
X161032500Y-178322500D03*
D30*
X161022500Y-175357500D03*
D28*
X158487500Y-178322500D03*
D32*
X158482500Y-175362500D03*
D19*
X155950000Y-178322500D03*
D33*
X155942500Y-175372500D03*
%TD*%
D34*
%TO.C,KiKit_FID_B_3*%
X78240000Y-192430000D03*
%TD*%
%TO.C,KiKit_FID_B_1*%
X78240000Y-22450000D03*
%TD*%
D17*
%TO.C,J2*%
X183897500Y-94382500D03*
D18*
X183932500Y-91422500D03*
D19*
X181350000Y-94382500D03*
D20*
X181342500Y-91422500D03*
D21*
X178817500Y-94387500D03*
D22*
X178832500Y-91427500D03*
D23*
X176267500Y-94387500D03*
D24*
X176297500Y-91422500D03*
D19*
X173730000Y-94382500D03*
D25*
X173732500Y-91427500D03*
D26*
X171192500Y-94382500D03*
D27*
X171177500Y-91422500D03*
D28*
X168647500Y-94382500D03*
D29*
X168657500Y-91422500D03*
D28*
X166107500Y-94382500D03*
D20*
X166122500Y-91422500D03*
D30*
X163562500Y-94382500D03*
D31*
X163587500Y-91422500D03*
D26*
X161032500Y-94382500D03*
D30*
X161022500Y-91417500D03*
D28*
X158487500Y-94382500D03*
D32*
X158482500Y-91422500D03*
D19*
X155950000Y-94382500D03*
D33*
X155942500Y-91432500D03*
%TD*%
D17*
%TO.C,J2*%
X226677500Y-94382500D03*
D18*
X226712500Y-91422500D03*
D19*
X224130000Y-94382500D03*
D20*
X224122500Y-91422500D03*
D21*
X221597500Y-94387500D03*
D22*
X221612500Y-91427500D03*
D23*
X219047500Y-94387500D03*
D24*
X219077500Y-91422500D03*
D19*
X216510000Y-94382500D03*
D25*
X216512500Y-91427500D03*
D26*
X213972500Y-94382500D03*
D27*
X213957500Y-91422500D03*
D28*
X211427500Y-94382500D03*
D29*
X211437500Y-91422500D03*
D28*
X208887500Y-94382500D03*
D20*
X208902500Y-91422500D03*
D30*
X206342500Y-94382500D03*
D31*
X206367500Y-91422500D03*
D26*
X203812500Y-94382500D03*
D30*
X203802500Y-91417500D03*
D28*
X201267500Y-94382500D03*
D32*
X201262500Y-91422500D03*
D19*
X198730000Y-94382500D03*
D33*
X198722500Y-91432500D03*
%TD*%
D17*
%TO.C,J2*%
X183897500Y-136352500D03*
D18*
X183932500Y-133392500D03*
D19*
X181350000Y-136352500D03*
D20*
X181342500Y-133392500D03*
D21*
X178817500Y-136357500D03*
D22*
X178832500Y-133397500D03*
D23*
X176267500Y-136357500D03*
D24*
X176297500Y-133392500D03*
D19*
X173730000Y-136352500D03*
D25*
X173732500Y-133397500D03*
D26*
X171192500Y-136352500D03*
D27*
X171177500Y-133392500D03*
D28*
X168647500Y-136352500D03*
D29*
X168657500Y-133392500D03*
D28*
X166107500Y-136352500D03*
D20*
X166122500Y-133392500D03*
D30*
X163562500Y-136352500D03*
D31*
X163587500Y-133392500D03*
D26*
X161032500Y-136352500D03*
D30*
X161022500Y-133387500D03*
D28*
X158487500Y-136352500D03*
D32*
X158482500Y-133392500D03*
D19*
X155950000Y-136352500D03*
D33*
X155942500Y-133402500D03*
%TD*%
D17*
%TO.C,J2*%
X141117500Y-136352500D03*
D18*
X141152500Y-133392500D03*
D19*
X138570000Y-136352500D03*
D20*
X138562500Y-133392500D03*
D21*
X136037500Y-136357500D03*
D22*
X136052500Y-133397500D03*
D23*
X133487500Y-136357500D03*
D24*
X133517500Y-133392500D03*
D19*
X130950000Y-136352500D03*
D25*
X130952500Y-133397500D03*
D26*
X128412500Y-136352500D03*
D27*
X128397500Y-133392500D03*
D28*
X125867500Y-136352500D03*
D29*
X125877500Y-133392500D03*
D28*
X123327500Y-136352500D03*
D20*
X123342500Y-133392500D03*
D30*
X120782500Y-136352500D03*
D31*
X120807500Y-133392500D03*
D26*
X118252500Y-136352500D03*
D30*
X118242500Y-133387500D03*
D28*
X115707500Y-136352500D03*
D32*
X115702500Y-133392500D03*
D19*
X113170000Y-136352500D03*
D33*
X113162500Y-133402500D03*
%TD*%
M02*
