%TF.GenerationSoftware,KiCad,Pcbnew,9.0.3*%
%TF.CreationDate,2026-04-13T10:36:31+05:30*%
%TF.ProjectId,USBC_FEMALE,55534243-5f46-4454-9d41-4c452e6b6963,rev?*%
%TF.SameCoordinates,Original*%
%TF.FileFunction,Copper,L1,Top*%
%TF.FilePolarity,Positive*%
%FSLAX46Y46*%
G04 Gerber Fmt 4.6, Leading zero omitted, Abs format (unit mm)*
G04 Created by KiCad (PCBNEW 9.0.3) date 2026-04-13 10:36:31*
%MOMM*%
%LPD*%
G01*
G04 APERTURE LIST*
G04 Aperture macros list*
%AMOutline4P*
0 Free polygon, 4 corners , with rotation*
0 The origin of the aperture is its center*
0 number of corners: always 4*
0 $1 to $8 corner X, Y*
0 $9 Rotation angle, in degrees counterclockwise*
0 create outline with 4 corners*
4,1,4,$1,$2,$3,$4,$5,$6,$7,$8,$1,$2,$9*%
%AMOutline5P*
0 Free polygon, 5 corners , with rotation*
0 The origin of the aperture is its center*
0 number of corners: always 5*
0 $1 to $10 corner X, Y*
0 $11 Rotation angle, in degrees counterclockwise*
0 create outline with 5 corners*
4,1,5,$1,$2,$3,$4,$5,$6,$7,$8,$9,$10,$1,$2,$11*%
%AMOutline6P*
0 Free polygon, 6 corners , with rotation*
0 The origin of the aperture is its center*
0 number of corners: always 6*
0 $1 to $12 corner X, Y*
0 $13 Rotation angle, in degrees counterclockwise*
0 create outline with 6 corners*
4,1,6,$1,$2,$3,$4,$5,$6,$7,$8,$9,$10,$11,$12,$1,$2,$13*%
%AMOutline7P*
0 Free polygon, 7 corners , with rotation*
0 The origin of the aperture is its center*
0 number of corners: always 7*
0 $1 to $14 corner X, Y*
0 $15 Rotation angle, in degrees counterclockwise*
0 create outline with 7 corners*
4,1,7,$1,$2,$3,$4,$5,$6,$7,$8,$9,$10,$11,$12,$13,$14,$1,$2,$15*%
%AMOutline8P*
0 Free polygon, 8 corners , with rotation*
0 The origin of the aperture is its center*
0 number of corners: always 8*
0 $1 to $16 corner X, Y*
0 $17 Rotation angle, in degrees counterclockwise*
0 create outline with 8 corners*
4,1,8,$1,$2,$3,$4,$5,$6,$7,$8,$9,$10,$11,$12,$13,$14,$15,$16,$1,$2,$17*%
G04 Aperture macros list end*
%TA.AperFunction,SMDPad,CuDef*%
%ADD10R,0.300000X1.691000*%
%TD*%
%TA.AperFunction,SMDPad,CuDef*%
%ADD11R,0.305000X1.691000*%
%TD*%
%TA.AperFunction,SMDPad,CuDef*%
%ADD12R,0.297000X1.691000*%
%TD*%
%TA.AperFunction,SMDPad,CuDef*%
%ADD13R,0.800000X1.900000*%
%TD*%
%TA.AperFunction,SMDPad,CuDef*%
%ADD14C,1.000000*%
%TD*%
%TA.AperFunction,ComponentPad*%
%ADD15Outline5P,-0.827500X1.047500X0.827500X1.047500X0.827500X-1.047500X-0.496500X-1.047500X-0.827500X-0.716500X180.000000*%
%TD*%
%TA.AperFunction,ComponentPad*%
%ADD16Outline4P,-0.792500X-1.042500X0.792500X-1.042500X0.792500X1.042500X-0.792500X1.042500X180.000000*%
%TD*%
%TA.AperFunction,ComponentPad*%
%ADD17R,1.670000X2.095000*%
%TD*%
%TA.AperFunction,ComponentPad*%
%ADD18R,1.645000X2.085000*%
%TD*%
%TA.AperFunction,ComponentPad*%
%ADD19R,1.655000X2.105000*%
%TD*%
%TA.AperFunction,ComponentPad*%
%ADD20R,1.625000X2.075000*%
%TD*%
%TA.AperFunction,ComponentPad*%
%ADD21R,1.675000X2.105000*%
%TD*%
%TA.AperFunction,ComponentPad*%
%ADD22R,1.615000X2.085000*%
%TD*%
%TA.AperFunction,ComponentPad*%
%ADD23R,1.665000X2.075000*%
%TD*%
%TA.AperFunction,ComponentPad*%
%ADD24R,1.665000X2.095000*%
%TD*%
%TA.AperFunction,ComponentPad*%
%ADD25R,1.695000X2.085000*%
%TD*%
%TA.AperFunction,ComponentPad*%
%ADD26R,1.675000X2.095000*%
%TD*%
%TA.AperFunction,ComponentPad*%
%ADD27R,1.655000X2.085000*%
%TD*%
%TA.AperFunction,ComponentPad*%
%ADD28R,1.685000X2.095000*%
%TD*%
%TA.AperFunction,ComponentPad*%
%ADD29R,1.635000X2.085000*%
%TD*%
%TA.AperFunction,ComponentPad*%
%ADD30R,1.685000X2.085000*%
%TD*%
%TA.AperFunction,ComponentPad*%
%ADD31R,1.685000X2.065000*%
%TD*%
%TA.AperFunction,Conductor*%
%ADD32C,0.200000*%
%TD*%
G04 APERTURE END LIST*
D10*
%TO.P,J1,A1,GNDA*%
%TO.N,Board_13-/A1*%
X124400000Y-160940500D03*
%TO.P,J1,A2,TX1_P*%
%TO.N,Board_13-/A2*%
X124900000Y-160940500D03*
D11*
%TO.P,J1,A3,TX1_N*%
%TO.N,Board_13-/A3*%
X125397500Y-160940500D03*
D12*
%TO.P,J1,A4,VBUS_A*%
%TO.N,Board_13-/A4*%
X125901500Y-160940500D03*
D10*
%TO.P,J1,A5,CC1*%
%TO.N,Board_13-/A5*%
X126400000Y-160940500D03*
%TO.P,J1,A6,DA_P*%
%TO.N,Board_13-/A6*%
X126900000Y-160940500D03*
%TO.P,J1,A7,DA_N*%
%TO.N,Board_13-/A7*%
X127400000Y-160940500D03*
%TO.P,J1,A8,SBU1*%
%TO.N,Board_13-/A8*%
X127900000Y-160940500D03*
%TO.P,J1,A9,VBUS_A*%
%TO.N,Board_13-/A9*%
X128400000Y-160940500D03*
%TO.P,J1,A10,RX2_N*%
%TO.N,Board_13-/A10*%
X128900000Y-160940500D03*
%TO.P,J1,A11,RX2_P*%
%TO.N,Board_13-/A11*%
X129400000Y-160940500D03*
%TO.P,J1,A12,GNDA*%
%TO.N,Board_13-/A12*%
X129900000Y-160940500D03*
D13*
%TO.P,J1,S1*%
%TO.N,N/C*%
X122908418Y-161625779D03*
%TO.P,J1,S2*%
X131385526Y-161625779D03*
%TD*%
D10*
%TO.P,J1,A1,GNDA*%
%TO.N,Board_11-/A1*%
X209960000Y-118970500D03*
%TO.P,J1,A2,TX1_P*%
%TO.N,Board_11-/A2*%
X210460000Y-118970500D03*
D11*
%TO.P,J1,A3,TX1_N*%
%TO.N,Board_11-/A3*%
X210957500Y-118970500D03*
D12*
%TO.P,J1,A4,VBUS_A*%
%TO.N,Board_11-/A4*%
X211461500Y-118970500D03*
D10*
%TO.P,J1,A5,CC1*%
%TO.N,Board_11-/A5*%
X211960000Y-118970500D03*
%TO.P,J1,A6,DA_P*%
%TO.N,Board_11-/A6*%
X212460000Y-118970500D03*
%TO.P,J1,A7,DA_N*%
%TO.N,Board_11-/A7*%
X212960000Y-118970500D03*
%TO.P,J1,A8,SBU1*%
%TO.N,Board_11-/A8*%
X213460000Y-118970500D03*
%TO.P,J1,A9,VBUS_A*%
%TO.N,Board_11-/A9*%
X213960000Y-118970500D03*
%TO.P,J1,A10,RX2_N*%
%TO.N,Board_11-/A10*%
X214460000Y-118970500D03*
%TO.P,J1,A11,RX2_P*%
%TO.N,Board_11-/A11*%
X214960000Y-118970500D03*
%TO.P,J1,A12,GNDA*%
%TO.N,Board_11-/A12*%
X215460000Y-118970500D03*
D13*
%TO.P,J1,S1*%
%TO.N,N/C*%
X208468418Y-119655779D03*
%TO.P,J1,S2*%
X216945526Y-119655779D03*
%TD*%
D10*
%TO.P,J1,A1,GNDA*%
%TO.N,Board_0-/A1*%
X81620000Y-35030500D03*
%TO.P,J1,A2,TX1_P*%
%TO.N,Board_0-/A2*%
X82120000Y-35030500D03*
D11*
%TO.P,J1,A3,TX1_N*%
%TO.N,Board_0-/A3*%
X82617500Y-35030500D03*
D12*
%TO.P,J1,A4,VBUS_A*%
%TO.N,Board_0-/A4*%
X83121500Y-35030500D03*
D10*
%TO.P,J1,A5,CC1*%
%TO.N,Board_0-/A5*%
X83620000Y-35030500D03*
%TO.P,J1,A6,DA_P*%
%TO.N,Board_0-/A6*%
X84120000Y-35030500D03*
%TO.P,J1,A7,DA_N*%
%TO.N,Board_0-/A7*%
X84620000Y-35030500D03*
%TO.P,J1,A8,SBU1*%
%TO.N,Board_0-/A8*%
X85120000Y-35030500D03*
%TO.P,J1,A9,VBUS_A*%
%TO.N,Board_0-/A9*%
X85620000Y-35030500D03*
%TO.P,J1,A10,RX2_N*%
%TO.N,Board_0-/A10*%
X86120000Y-35030500D03*
%TO.P,J1,A11,RX2_P*%
%TO.N,Board_0-/A11*%
X86620000Y-35030500D03*
%TO.P,J1,A12,GNDA*%
%TO.N,Board_0-/A12*%
X87120000Y-35030500D03*
D13*
%TO.P,J1,S1*%
%TO.N,N/C*%
X80128418Y-35715779D03*
%TO.P,J1,S2*%
X88605526Y-35715779D03*
%TD*%
D10*
%TO.P,J1,A1,GNDA*%
%TO.N,Board_15-/A1*%
X209960000Y-160940500D03*
%TO.P,J1,A2,TX1_P*%
%TO.N,Board_15-/A2*%
X210460000Y-160940500D03*
D11*
%TO.P,J1,A3,TX1_N*%
%TO.N,Board_15-/A3*%
X210957500Y-160940500D03*
D12*
%TO.P,J1,A4,VBUS_A*%
%TO.N,Board_15-/A4*%
X211461500Y-160940500D03*
D10*
%TO.P,J1,A5,CC1*%
%TO.N,Board_15-/A5*%
X211960000Y-160940500D03*
%TO.P,J1,A6,DA_P*%
%TO.N,Board_15-/A6*%
X212460000Y-160940500D03*
%TO.P,J1,A7,DA_N*%
%TO.N,Board_15-/A7*%
X212960000Y-160940500D03*
%TO.P,J1,A8,SBU1*%
%TO.N,Board_15-/A8*%
X213460000Y-160940500D03*
%TO.P,J1,A9,VBUS_A*%
%TO.N,Board_15-/A9*%
X213960000Y-160940500D03*
%TO.P,J1,A10,RX2_N*%
%TO.N,Board_15-/A10*%
X214460000Y-160940500D03*
%TO.P,J1,A11,RX2_P*%
%TO.N,Board_15-/A11*%
X214960000Y-160940500D03*
%TO.P,J1,A12,GNDA*%
%TO.N,Board_15-/A12*%
X215460000Y-160940500D03*
D13*
%TO.P,J1,S1*%
%TO.N,N/C*%
X208468418Y-161625779D03*
%TO.P,J1,S2*%
X216945526Y-161625779D03*
%TD*%
D10*
%TO.P,J1,A1,GNDA*%
%TO.N,Board_4-/A1*%
X81620000Y-77000500D03*
%TO.P,J1,A2,TX1_P*%
%TO.N,Board_4-/A2*%
X82120000Y-77000500D03*
D11*
%TO.P,J1,A3,TX1_N*%
%TO.N,Board_4-/A3*%
X82617500Y-77000500D03*
D12*
%TO.P,J1,A4,VBUS_A*%
%TO.N,Board_4-/A4*%
X83121500Y-77000500D03*
D10*
%TO.P,J1,A5,CC1*%
%TO.N,Board_4-/A5*%
X83620000Y-77000500D03*
%TO.P,J1,A6,DA_P*%
%TO.N,Board_4-/A6*%
X84120000Y-77000500D03*
%TO.P,J1,A7,DA_N*%
%TO.N,Board_4-/A7*%
X84620000Y-77000500D03*
%TO.P,J1,A8,SBU1*%
%TO.N,Board_4-/A8*%
X85120000Y-77000500D03*
%TO.P,J1,A9,VBUS_A*%
%TO.N,Board_4-/A9*%
X85620000Y-77000500D03*
%TO.P,J1,A10,RX2_N*%
%TO.N,Board_4-/A10*%
X86120000Y-77000500D03*
%TO.P,J1,A11,RX2_P*%
%TO.N,Board_4-/A11*%
X86620000Y-77000500D03*
%TO.P,J1,A12,GNDA*%
%TO.N,Board_4-/A12*%
X87120000Y-77000500D03*
D13*
%TO.P,J1,S1*%
%TO.N,N/C*%
X80128418Y-77685779D03*
%TO.P,J1,S2*%
X88605526Y-77685779D03*
%TD*%
D14*
%TO.P,KiKit_FID_T_3,*%
%TO.N,*%
X78240000Y-192430000D03*
%TD*%
D10*
%TO.P,J1,A1,GNDA*%
%TO.N,Board_10-/A1*%
X167180000Y-118970500D03*
%TO.P,J1,A2,TX1_P*%
%TO.N,Board_10-/A2*%
X167680000Y-118970500D03*
D11*
%TO.P,J1,A3,TX1_N*%
%TO.N,Board_10-/A3*%
X168177500Y-118970500D03*
D12*
%TO.P,J1,A4,VBUS_A*%
%TO.N,Board_10-/A4*%
X168681500Y-118970500D03*
D10*
%TO.P,J1,A5,CC1*%
%TO.N,Board_10-/A5*%
X169180000Y-118970500D03*
%TO.P,J1,A6,DA_P*%
%TO.N,Board_10-/A6*%
X169680000Y-118970500D03*
%TO.P,J1,A7,DA_N*%
%TO.N,Board_10-/A7*%
X170180000Y-118970500D03*
%TO.P,J1,A8,SBU1*%
%TO.N,Board_10-/A8*%
X170680000Y-118970500D03*
%TO.P,J1,A9,VBUS_A*%
%TO.N,Board_10-/A9*%
X171180000Y-118970500D03*
%TO.P,J1,A10,RX2_N*%
%TO.N,Board_10-/A10*%
X171680000Y-118970500D03*
%TO.P,J1,A11,RX2_P*%
%TO.N,Board_10-/A11*%
X172180000Y-118970500D03*
%TO.P,J1,A12,GNDA*%
%TO.N,Board_10-/A12*%
X172680000Y-118970500D03*
D13*
%TO.P,J1,S1*%
%TO.N,N/C*%
X165688418Y-119655779D03*
%TO.P,J1,S2*%
X174165526Y-119655779D03*
%TD*%
D10*
%TO.P,J1,A1,GNDA*%
%TO.N,Board_3-/A1*%
X209960000Y-35030500D03*
%TO.P,J1,A2,TX1_P*%
%TO.N,Board_3-/A2*%
X210460000Y-35030500D03*
D11*
%TO.P,J1,A3,TX1_N*%
%TO.N,Board_3-/A3*%
X210957500Y-35030500D03*
D12*
%TO.P,J1,A4,VBUS_A*%
%TO.N,Board_3-/A4*%
X211461500Y-35030500D03*
D10*
%TO.P,J1,A5,CC1*%
%TO.N,Board_3-/A5*%
X211960000Y-35030500D03*
%TO.P,J1,A6,DA_P*%
%TO.N,Board_3-/A6*%
X212460000Y-35030500D03*
%TO.P,J1,A7,DA_N*%
%TO.N,Board_3-/A7*%
X212960000Y-35030500D03*
%TO.P,J1,A8,SBU1*%
%TO.N,Board_3-/A8*%
X213460000Y-35030500D03*
%TO.P,J1,A9,VBUS_A*%
%TO.N,Board_3-/A9*%
X213960000Y-35030500D03*
%TO.P,J1,A10,RX2_N*%
%TO.N,Board_3-/A10*%
X214460000Y-35030500D03*
%TO.P,J1,A11,RX2_P*%
%TO.N,Board_3-/A11*%
X214960000Y-35030500D03*
%TO.P,J1,A12,GNDA*%
%TO.N,Board_3-/A12*%
X215460000Y-35030500D03*
D13*
%TO.P,J1,S1*%
%TO.N,N/C*%
X208468418Y-35715779D03*
%TO.P,J1,S2*%
X216945526Y-35715779D03*
%TD*%
D10*
%TO.P,J1,A1,GNDA*%
%TO.N,Board_5-/A1*%
X124400000Y-77000500D03*
%TO.P,J1,A2,TX1_P*%
%TO.N,Board_5-/A2*%
X124900000Y-77000500D03*
D11*
%TO.P,J1,A3,TX1_N*%
%TO.N,Board_5-/A3*%
X125397500Y-77000500D03*
D12*
%TO.P,J1,A4,VBUS_A*%
%TO.N,Board_5-/A4*%
X125901500Y-77000500D03*
D10*
%TO.P,J1,A5,CC1*%
%TO.N,Board_5-/A5*%
X126400000Y-77000500D03*
%TO.P,J1,A6,DA_P*%
%TO.N,Board_5-/A6*%
X126900000Y-77000500D03*
%TO.P,J1,A7,DA_N*%
%TO.N,Board_5-/A7*%
X127400000Y-77000500D03*
%TO.P,J1,A8,SBU1*%
%TO.N,Board_5-/A8*%
X127900000Y-77000500D03*
%TO.P,J1,A9,VBUS_A*%
%TO.N,Board_5-/A9*%
X128400000Y-77000500D03*
%TO.P,J1,A10,RX2_N*%
%TO.N,Board_5-/A10*%
X128900000Y-77000500D03*
%TO.P,J1,A11,RX2_P*%
%TO.N,Board_5-/A11*%
X129400000Y-77000500D03*
%TO.P,J1,A12,GNDA*%
%TO.N,Board_5-/A12*%
X129900000Y-77000500D03*
D13*
%TO.P,J1,S1*%
%TO.N,N/C*%
X122908418Y-77685779D03*
%TO.P,J1,S2*%
X131385526Y-77685779D03*
%TD*%
D10*
%TO.P,J1,A1,GNDA*%
%TO.N,Board_7-/A1*%
X209960000Y-77000500D03*
%TO.P,J1,A2,TX1_P*%
%TO.N,Board_7-/A2*%
X210460000Y-77000500D03*
D11*
%TO.P,J1,A3,TX1_N*%
%TO.N,Board_7-/A3*%
X210957500Y-77000500D03*
D12*
%TO.P,J1,A4,VBUS_A*%
%TO.N,Board_7-/A4*%
X211461500Y-77000500D03*
D10*
%TO.P,J1,A5,CC1*%
%TO.N,Board_7-/A5*%
X211960000Y-77000500D03*
%TO.P,J1,A6,DA_P*%
%TO.N,Board_7-/A6*%
X212460000Y-77000500D03*
%TO.P,J1,A7,DA_N*%
%TO.N,Board_7-/A7*%
X212960000Y-77000500D03*
%TO.P,J1,A8,SBU1*%
%TO.N,Board_7-/A8*%
X213460000Y-77000500D03*
%TO.P,J1,A9,VBUS_A*%
%TO.N,Board_7-/A9*%
X213960000Y-77000500D03*
%TO.P,J1,A10,RX2_N*%
%TO.N,Board_7-/A10*%
X214460000Y-77000500D03*
%TO.P,J1,A11,RX2_P*%
%TO.N,Board_7-/A11*%
X214960000Y-77000500D03*
%TO.P,J1,A12,GNDA*%
%TO.N,Board_7-/A12*%
X215460000Y-77000500D03*
D13*
%TO.P,J1,S1*%
%TO.N,N/C*%
X208468418Y-77685779D03*
%TO.P,J1,S2*%
X216945526Y-77685779D03*
%TD*%
D14*
%TO.P,KiKit_FID_T_1,*%
%TO.N,*%
X78240000Y-22450000D03*
%TD*%
D10*
%TO.P,J1,A1,GNDA*%
%TO.N,Board_8-/A1*%
X81620000Y-118970500D03*
%TO.P,J1,A2,TX1_P*%
%TO.N,Board_8-/A2*%
X82120000Y-118970500D03*
D11*
%TO.P,J1,A3,TX1_N*%
%TO.N,Board_8-/A3*%
X82617500Y-118970500D03*
D12*
%TO.P,J1,A4,VBUS_A*%
%TO.N,Board_8-/A4*%
X83121500Y-118970500D03*
D10*
%TO.P,J1,A5,CC1*%
%TO.N,Board_8-/A5*%
X83620000Y-118970500D03*
%TO.P,J1,A6,DA_P*%
%TO.N,Board_8-/A6*%
X84120000Y-118970500D03*
%TO.P,J1,A7,DA_N*%
%TO.N,Board_8-/A7*%
X84620000Y-118970500D03*
%TO.P,J1,A8,SBU1*%
%TO.N,Board_8-/A8*%
X85120000Y-118970500D03*
%TO.P,J1,A9,VBUS_A*%
%TO.N,Board_8-/A9*%
X85620000Y-118970500D03*
%TO.P,J1,A10,RX2_N*%
%TO.N,Board_8-/A10*%
X86120000Y-118970500D03*
%TO.P,J1,A11,RX2_P*%
%TO.N,Board_8-/A11*%
X86620000Y-118970500D03*
%TO.P,J1,A12,GNDA*%
%TO.N,Board_8-/A12*%
X87120000Y-118970500D03*
D13*
%TO.P,J1,S1*%
%TO.N,N/C*%
X80128418Y-119655779D03*
%TO.P,J1,S2*%
X88605526Y-119655779D03*
%TD*%
D14*
%TO.P,KiKit_FID_T_2,*%
%TO.N,*%
X218760000Y-22450000D03*
%TD*%
D10*
%TO.P,J1,A1,GNDA*%
%TO.N,Board_14-/A1*%
X167180000Y-160940500D03*
%TO.P,J1,A2,TX1_P*%
%TO.N,Board_14-/A2*%
X167680000Y-160940500D03*
D11*
%TO.P,J1,A3,TX1_N*%
%TO.N,Board_14-/A3*%
X168177500Y-160940500D03*
D12*
%TO.P,J1,A4,VBUS_A*%
%TO.N,Board_14-/A4*%
X168681500Y-160940500D03*
D10*
%TO.P,J1,A5,CC1*%
%TO.N,Board_14-/A5*%
X169180000Y-160940500D03*
%TO.P,J1,A6,DA_P*%
%TO.N,Board_14-/A6*%
X169680000Y-160940500D03*
%TO.P,J1,A7,DA_N*%
%TO.N,Board_14-/A7*%
X170180000Y-160940500D03*
%TO.P,J1,A8,SBU1*%
%TO.N,Board_14-/A8*%
X170680000Y-160940500D03*
%TO.P,J1,A9,VBUS_A*%
%TO.N,Board_14-/A9*%
X171180000Y-160940500D03*
%TO.P,J1,A10,RX2_N*%
%TO.N,Board_14-/A10*%
X171680000Y-160940500D03*
%TO.P,J1,A11,RX2_P*%
%TO.N,Board_14-/A11*%
X172180000Y-160940500D03*
%TO.P,J1,A12,GNDA*%
%TO.N,Board_14-/A12*%
X172680000Y-160940500D03*
D13*
%TO.P,J1,S1*%
%TO.N,N/C*%
X165688418Y-161625779D03*
%TO.P,J1,S2*%
X174165526Y-161625779D03*
%TD*%
D10*
%TO.P,J1,A1,GNDA*%
%TO.N,Board_1-/A1*%
X124400000Y-35030500D03*
%TO.P,J1,A2,TX1_P*%
%TO.N,Board_1-/A2*%
X124900000Y-35030500D03*
D11*
%TO.P,J1,A3,TX1_N*%
%TO.N,Board_1-/A3*%
X125397500Y-35030500D03*
D12*
%TO.P,J1,A4,VBUS_A*%
%TO.N,Board_1-/A4*%
X125901500Y-35030500D03*
D10*
%TO.P,J1,A5,CC1*%
%TO.N,Board_1-/A5*%
X126400000Y-35030500D03*
%TO.P,J1,A6,DA_P*%
%TO.N,Board_1-/A6*%
X126900000Y-35030500D03*
%TO.P,J1,A7,DA_N*%
%TO.N,Board_1-/A7*%
X127400000Y-35030500D03*
%TO.P,J1,A8,SBU1*%
%TO.N,Board_1-/A8*%
X127900000Y-35030500D03*
%TO.P,J1,A9,VBUS_A*%
%TO.N,Board_1-/A9*%
X128400000Y-35030500D03*
%TO.P,J1,A10,RX2_N*%
%TO.N,Board_1-/A10*%
X128900000Y-35030500D03*
%TO.P,J1,A11,RX2_P*%
%TO.N,Board_1-/A11*%
X129400000Y-35030500D03*
%TO.P,J1,A12,GNDA*%
%TO.N,Board_1-/A12*%
X129900000Y-35030500D03*
D13*
%TO.P,J1,S1*%
%TO.N,N/C*%
X122908418Y-35715779D03*
%TO.P,J1,S2*%
X131385526Y-35715779D03*
%TD*%
D10*
%TO.P,J1,A1,GNDA*%
%TO.N,Board_12-/A1*%
X81620000Y-160940500D03*
%TO.P,J1,A2,TX1_P*%
%TO.N,Board_12-/A2*%
X82120000Y-160940500D03*
D11*
%TO.P,J1,A3,TX1_N*%
%TO.N,Board_12-/A3*%
X82617500Y-160940500D03*
D12*
%TO.P,J1,A4,VBUS_A*%
%TO.N,Board_12-/A4*%
X83121500Y-160940500D03*
D10*
%TO.P,J1,A5,CC1*%
%TO.N,Board_12-/A5*%
X83620000Y-160940500D03*
%TO.P,J1,A6,DA_P*%
%TO.N,Board_12-/A6*%
X84120000Y-160940500D03*
%TO.P,J1,A7,DA_N*%
%TO.N,Board_12-/A7*%
X84620000Y-160940500D03*
%TO.P,J1,A8,SBU1*%
%TO.N,Board_12-/A8*%
X85120000Y-160940500D03*
%TO.P,J1,A9,VBUS_A*%
%TO.N,Board_12-/A9*%
X85620000Y-160940500D03*
%TO.P,J1,A10,RX2_N*%
%TO.N,Board_12-/A10*%
X86120000Y-160940500D03*
%TO.P,J1,A11,RX2_P*%
%TO.N,Board_12-/A11*%
X86620000Y-160940500D03*
%TO.P,J1,A12,GNDA*%
%TO.N,Board_12-/A12*%
X87120000Y-160940500D03*
D13*
%TO.P,J1,S1*%
%TO.N,N/C*%
X80128418Y-161625779D03*
%TO.P,J1,S2*%
X88605526Y-161625779D03*
%TD*%
D10*
%TO.P,J1,A1,GNDA*%
%TO.N,Board_9-/A1*%
X124400000Y-118970500D03*
%TO.P,J1,A2,TX1_P*%
%TO.N,Board_9-/A2*%
X124900000Y-118970500D03*
D11*
%TO.P,J1,A3,TX1_N*%
%TO.N,Board_9-/A3*%
X125397500Y-118970500D03*
D12*
%TO.P,J1,A4,VBUS_A*%
%TO.N,Board_9-/A4*%
X125901500Y-118970500D03*
D10*
%TO.P,J1,A5,CC1*%
%TO.N,Board_9-/A5*%
X126400000Y-118970500D03*
%TO.P,J1,A6,DA_P*%
%TO.N,Board_9-/A6*%
X126900000Y-118970500D03*
%TO.P,J1,A7,DA_N*%
%TO.N,Board_9-/A7*%
X127400000Y-118970500D03*
%TO.P,J1,A8,SBU1*%
%TO.N,Board_9-/A8*%
X127900000Y-118970500D03*
%TO.P,J1,A9,VBUS_A*%
%TO.N,Board_9-/A9*%
X128400000Y-118970500D03*
%TO.P,J1,A10,RX2_N*%
%TO.N,Board_9-/A10*%
X128900000Y-118970500D03*
%TO.P,J1,A11,RX2_P*%
%TO.N,Board_9-/A11*%
X129400000Y-118970500D03*
%TO.P,J1,A12,GNDA*%
%TO.N,Board_9-/A12*%
X129900000Y-118970500D03*
D13*
%TO.P,J1,S1*%
%TO.N,N/C*%
X122908418Y-119655779D03*
%TO.P,J1,S2*%
X131385526Y-119655779D03*
%TD*%
D10*
%TO.P,J1,A1,GNDA*%
%TO.N,Board_2-/A1*%
X167180000Y-35030500D03*
%TO.P,J1,A2,TX1_P*%
%TO.N,Board_2-/A2*%
X167680000Y-35030500D03*
D11*
%TO.P,J1,A3,TX1_N*%
%TO.N,Board_2-/A3*%
X168177500Y-35030500D03*
D12*
%TO.P,J1,A4,VBUS_A*%
%TO.N,Board_2-/A4*%
X168681500Y-35030500D03*
D10*
%TO.P,J1,A5,CC1*%
%TO.N,Board_2-/A5*%
X169180000Y-35030500D03*
%TO.P,J1,A6,DA_P*%
%TO.N,Board_2-/A6*%
X169680000Y-35030500D03*
%TO.P,J1,A7,DA_N*%
%TO.N,Board_2-/A7*%
X170180000Y-35030500D03*
%TO.P,J1,A8,SBU1*%
%TO.N,Board_2-/A8*%
X170680000Y-35030500D03*
%TO.P,J1,A9,VBUS_A*%
%TO.N,Board_2-/A9*%
X171180000Y-35030500D03*
%TO.P,J1,A10,RX2_N*%
%TO.N,Board_2-/A10*%
X171680000Y-35030500D03*
%TO.P,J1,A11,RX2_P*%
%TO.N,Board_2-/A11*%
X172180000Y-35030500D03*
%TO.P,J1,A12,GNDA*%
%TO.N,Board_2-/A12*%
X172680000Y-35030500D03*
D13*
%TO.P,J1,S1*%
%TO.N,N/C*%
X165688418Y-35715779D03*
%TO.P,J1,S2*%
X174165526Y-35715779D03*
%TD*%
D10*
%TO.P,J1,A1,GNDA*%
%TO.N,Board_6-/A1*%
X167180000Y-77000500D03*
%TO.P,J1,A2,TX1_P*%
%TO.N,Board_6-/A2*%
X167680000Y-77000500D03*
D11*
%TO.P,J1,A3,TX1_N*%
%TO.N,Board_6-/A3*%
X168177500Y-77000500D03*
D12*
%TO.P,J1,A4,VBUS_A*%
%TO.N,Board_6-/A4*%
X168681500Y-77000500D03*
D10*
%TO.P,J1,A5,CC1*%
%TO.N,Board_6-/A5*%
X169180000Y-77000500D03*
%TO.P,J1,A6,DA_P*%
%TO.N,Board_6-/A6*%
X169680000Y-77000500D03*
%TO.P,J1,A7,DA_N*%
%TO.N,Board_6-/A7*%
X170180000Y-77000500D03*
%TO.P,J1,A8,SBU1*%
%TO.N,Board_6-/A8*%
X170680000Y-77000500D03*
%TO.P,J1,A9,VBUS_A*%
%TO.N,Board_6-/A9*%
X171180000Y-77000500D03*
%TO.P,J1,A10,RX2_N*%
%TO.N,Board_6-/A10*%
X171680000Y-77000500D03*
%TO.P,J1,A11,RX2_P*%
%TO.N,Board_6-/A11*%
X172180000Y-77000500D03*
%TO.P,J1,A12,GNDA*%
%TO.N,Board_6-/A12*%
X172680000Y-77000500D03*
D13*
%TO.P,J1,S1*%
%TO.N,N/C*%
X165688418Y-77685779D03*
%TO.P,J1,S2*%
X174165526Y-77685779D03*
%TD*%
D15*
%TO.P,J2,1,Pin_1*%
%TO.N,Board_8-/B1*%
X98337500Y-136352500D03*
D16*
%TO.P,J2,2,Pin_2*%
%TO.N,Board_8-/A12*%
X98372500Y-133392500D03*
D17*
%TO.P,J2,3,Pin_3*%
%TO.N,Board_8-/B2*%
X95790000Y-136352500D03*
D18*
%TO.P,J2,4,Pin_4*%
%TO.N,Board_8-/A11*%
X95782500Y-133392500D03*
D19*
%TO.P,J2,5,Pin_5*%
%TO.N,Board_8-/B3*%
X93257500Y-136357500D03*
D20*
%TO.P,J2,6,Pin_6*%
%TO.N,Board_8-/A10*%
X93272500Y-133397500D03*
D21*
%TO.P,J2,7,Pin_7*%
%TO.N,Board_8-/B4*%
X90707500Y-136357500D03*
D22*
%TO.P,J2,8,Pin_8*%
%TO.N,Board_8-/A9*%
X90737500Y-133392500D03*
D17*
%TO.P,J2,9,Pin_9*%
%TO.N,Board_8-/B5*%
X88170000Y-136352500D03*
D23*
%TO.P,J2,10,Pin_10*%
%TO.N,Board_8-/A8*%
X88172500Y-133397500D03*
D24*
%TO.P,J2,11,Pin_11*%
%TO.N,Board_8-/B6*%
X85632500Y-136352500D03*
D25*
%TO.P,J2,12,Pin_12*%
%TO.N,Board_8-/A7*%
X85617500Y-133392500D03*
D26*
%TO.P,J2,13,Pin_13*%
%TO.N,Board_8-/B7*%
X83087500Y-136352500D03*
D27*
%TO.P,J2,14,Pin_14*%
%TO.N,Board_8-/A6*%
X83097500Y-133392500D03*
D26*
%TO.P,J2,15,Pin_15*%
%TO.N,Board_8-/B8*%
X80547500Y-136352500D03*
D18*
%TO.P,J2,16,Pin_16*%
%TO.N,Board_8-/A5*%
X80562500Y-133392500D03*
D28*
%TO.P,J2,17,Pin_17*%
%TO.N,Board_8-/B9*%
X78002500Y-136352500D03*
D29*
%TO.P,J2,18,Pin_18*%
%TO.N,Board_8-/A4*%
X78027500Y-133392500D03*
D24*
%TO.P,J2,19,Pin_19*%
%TO.N,Board_8-/B10*%
X75472500Y-136352500D03*
D28*
%TO.P,J2,20,Pin_20*%
%TO.N,Board_8-/A3*%
X75462500Y-133387500D03*
D26*
%TO.P,J2,21,Pin_21*%
%TO.N,Board_8-/B11*%
X72927500Y-136352500D03*
D30*
%TO.P,J2,22,Pin_22*%
%TO.N,Board_8-/A2*%
X72922500Y-133392500D03*
D17*
%TO.P,J2,23,Pin_23*%
%TO.N,Board_8-/B12*%
X70390000Y-136352500D03*
D31*
%TO.P,J2,24,Pin_24*%
%TO.N,Board_8-/A1*%
X70382500Y-133402500D03*
%TD*%
D15*
%TO.P,J2,1,Pin_1*%
%TO.N,Board_5-/B1*%
X141117500Y-94382500D03*
D16*
%TO.P,J2,2,Pin_2*%
%TO.N,Board_5-/A12*%
X141152500Y-91422500D03*
D17*
%TO.P,J2,3,Pin_3*%
%TO.N,Board_5-/B2*%
X138570000Y-94382500D03*
D18*
%TO.P,J2,4,Pin_4*%
%TO.N,Board_5-/A11*%
X138562500Y-91422500D03*
D19*
%TO.P,J2,5,Pin_5*%
%TO.N,Board_5-/B3*%
X136037500Y-94387500D03*
D20*
%TO.P,J2,6,Pin_6*%
%TO.N,Board_5-/A10*%
X136052500Y-91427500D03*
D21*
%TO.P,J2,7,Pin_7*%
%TO.N,Board_5-/B4*%
X133487500Y-94387500D03*
D22*
%TO.P,J2,8,Pin_8*%
%TO.N,Board_5-/A9*%
X133517500Y-91422500D03*
D17*
%TO.P,J2,9,Pin_9*%
%TO.N,Board_5-/B5*%
X130950000Y-94382500D03*
D23*
%TO.P,J2,10,Pin_10*%
%TO.N,Board_5-/A8*%
X130952500Y-91427500D03*
D24*
%TO.P,J2,11,Pin_11*%
%TO.N,Board_5-/B6*%
X128412500Y-94382500D03*
D25*
%TO.P,J2,12,Pin_12*%
%TO.N,Board_5-/A7*%
X128397500Y-91422500D03*
D26*
%TO.P,J2,13,Pin_13*%
%TO.N,Board_5-/B7*%
X125867500Y-94382500D03*
D27*
%TO.P,J2,14,Pin_14*%
%TO.N,Board_5-/A6*%
X125877500Y-91422500D03*
D26*
%TO.P,J2,15,Pin_15*%
%TO.N,Board_5-/B8*%
X123327500Y-94382500D03*
D18*
%TO.P,J2,16,Pin_16*%
%TO.N,Board_5-/A5*%
X123342500Y-91422500D03*
D28*
%TO.P,J2,17,Pin_17*%
%TO.N,Board_5-/B9*%
X120782500Y-94382500D03*
D29*
%TO.P,J2,18,Pin_18*%
%TO.N,Board_5-/A4*%
X120807500Y-91422500D03*
D24*
%TO.P,J2,19,Pin_19*%
%TO.N,Board_5-/B10*%
X118252500Y-94382500D03*
D28*
%TO.P,J2,20,Pin_20*%
%TO.N,Board_5-/A3*%
X118242500Y-91417500D03*
D26*
%TO.P,J2,21,Pin_21*%
%TO.N,Board_5-/B11*%
X115707500Y-94382500D03*
D30*
%TO.P,J2,22,Pin_22*%
%TO.N,Board_5-/A2*%
X115702500Y-91422500D03*
D17*
%TO.P,J2,23,Pin_23*%
%TO.N,Board_5-/B12*%
X113170000Y-94382500D03*
D31*
%TO.P,J2,24,Pin_24*%
%TO.N,Board_5-/A1*%
X113162500Y-91432500D03*
%TD*%
D15*
%TO.P,J2,1,Pin_1*%
%TO.N,Board_15-/B1*%
X226677500Y-178322500D03*
D16*
%TO.P,J2,2,Pin_2*%
%TO.N,Board_15-/A12*%
X226712500Y-175362500D03*
D17*
%TO.P,J2,3,Pin_3*%
%TO.N,Board_15-/B2*%
X224130000Y-178322500D03*
D18*
%TO.P,J2,4,Pin_4*%
%TO.N,Board_15-/A11*%
X224122500Y-175362500D03*
D19*
%TO.P,J2,5,Pin_5*%
%TO.N,Board_15-/B3*%
X221597500Y-178327500D03*
D20*
%TO.P,J2,6,Pin_6*%
%TO.N,Board_15-/A10*%
X221612500Y-175367500D03*
D21*
%TO.P,J2,7,Pin_7*%
%TO.N,Board_15-/B4*%
X219047500Y-178327500D03*
D22*
%TO.P,J2,8,Pin_8*%
%TO.N,Board_15-/A9*%
X219077500Y-175362500D03*
D17*
%TO.P,J2,9,Pin_9*%
%TO.N,Board_15-/B5*%
X216510000Y-178322500D03*
D23*
%TO.P,J2,10,Pin_10*%
%TO.N,Board_15-/A8*%
X216512500Y-175367500D03*
D24*
%TO.P,J2,11,Pin_11*%
%TO.N,Board_15-/B6*%
X213972500Y-178322500D03*
D25*
%TO.P,J2,12,Pin_12*%
%TO.N,Board_15-/A7*%
X213957500Y-175362500D03*
D26*
%TO.P,J2,13,Pin_13*%
%TO.N,Board_15-/B7*%
X211427500Y-178322500D03*
D27*
%TO.P,J2,14,Pin_14*%
%TO.N,Board_15-/A6*%
X211437500Y-175362500D03*
D26*
%TO.P,J2,15,Pin_15*%
%TO.N,Board_15-/B8*%
X208887500Y-178322500D03*
D18*
%TO.P,J2,16,Pin_16*%
%TO.N,Board_15-/A5*%
X208902500Y-175362500D03*
D28*
%TO.P,J2,17,Pin_17*%
%TO.N,Board_15-/B9*%
X206342500Y-178322500D03*
D29*
%TO.P,J2,18,Pin_18*%
%TO.N,Board_15-/A4*%
X206367500Y-175362500D03*
D24*
%TO.P,J2,19,Pin_19*%
%TO.N,Board_15-/B10*%
X203812500Y-178322500D03*
D28*
%TO.P,J2,20,Pin_20*%
%TO.N,Board_15-/A3*%
X203802500Y-175357500D03*
D26*
%TO.P,J2,21,Pin_21*%
%TO.N,Board_15-/B11*%
X201267500Y-178322500D03*
D30*
%TO.P,J2,22,Pin_22*%
%TO.N,Board_15-/A2*%
X201262500Y-175362500D03*
D17*
%TO.P,J2,23,Pin_23*%
%TO.N,Board_15-/B12*%
X198730000Y-178322500D03*
D31*
%TO.P,J2,24,Pin_24*%
%TO.N,Board_15-/A1*%
X198722500Y-175372500D03*
%TD*%
D15*
%TO.P,J2,1,Pin_1*%
%TO.N,Board_1-/B1*%
X141117500Y-52412500D03*
D16*
%TO.P,J2,2,Pin_2*%
%TO.N,Board_1-/A12*%
X141152500Y-49452500D03*
D17*
%TO.P,J2,3,Pin_3*%
%TO.N,Board_1-/B2*%
X138570000Y-52412500D03*
D18*
%TO.P,J2,4,Pin_4*%
%TO.N,Board_1-/A11*%
X138562500Y-49452500D03*
D19*
%TO.P,J2,5,Pin_5*%
%TO.N,Board_1-/B3*%
X136037500Y-52417500D03*
D20*
%TO.P,J2,6,Pin_6*%
%TO.N,Board_1-/A10*%
X136052500Y-49457500D03*
D21*
%TO.P,J2,7,Pin_7*%
%TO.N,Board_1-/B4*%
X133487500Y-52417500D03*
D22*
%TO.P,J2,8,Pin_8*%
%TO.N,Board_1-/A9*%
X133517500Y-49452500D03*
D17*
%TO.P,J2,9,Pin_9*%
%TO.N,Board_1-/B5*%
X130950000Y-52412500D03*
D23*
%TO.P,J2,10,Pin_10*%
%TO.N,Board_1-/A8*%
X130952500Y-49457500D03*
D24*
%TO.P,J2,11,Pin_11*%
%TO.N,Board_1-/B6*%
X128412500Y-52412500D03*
D25*
%TO.P,J2,12,Pin_12*%
%TO.N,Board_1-/A7*%
X128397500Y-49452500D03*
D26*
%TO.P,J2,13,Pin_13*%
%TO.N,Board_1-/B7*%
X125867500Y-52412500D03*
D27*
%TO.P,J2,14,Pin_14*%
%TO.N,Board_1-/A6*%
X125877500Y-49452500D03*
D26*
%TO.P,J2,15,Pin_15*%
%TO.N,Board_1-/B8*%
X123327500Y-52412500D03*
D18*
%TO.P,J2,16,Pin_16*%
%TO.N,Board_1-/A5*%
X123342500Y-49452500D03*
D28*
%TO.P,J2,17,Pin_17*%
%TO.N,Board_1-/B9*%
X120782500Y-52412500D03*
D29*
%TO.P,J2,18,Pin_18*%
%TO.N,Board_1-/A4*%
X120807500Y-49452500D03*
D24*
%TO.P,J2,19,Pin_19*%
%TO.N,Board_1-/B10*%
X118252500Y-52412500D03*
D28*
%TO.P,J2,20,Pin_20*%
%TO.N,Board_1-/A3*%
X118242500Y-49447500D03*
D26*
%TO.P,J2,21,Pin_21*%
%TO.N,Board_1-/B11*%
X115707500Y-52412500D03*
D30*
%TO.P,J2,22,Pin_22*%
%TO.N,Board_1-/A2*%
X115702500Y-49452500D03*
D17*
%TO.P,J2,23,Pin_23*%
%TO.N,Board_1-/B12*%
X113170000Y-52412500D03*
D31*
%TO.P,J2,24,Pin_24*%
%TO.N,Board_1-/A1*%
X113162500Y-49462500D03*
%TD*%
D15*
%TO.P,J2,1,Pin_1*%
%TO.N,Board_11-/B1*%
X226677500Y-136352500D03*
D16*
%TO.P,J2,2,Pin_2*%
%TO.N,Board_11-/A12*%
X226712500Y-133392500D03*
D17*
%TO.P,J2,3,Pin_3*%
%TO.N,Board_11-/B2*%
X224130000Y-136352500D03*
D18*
%TO.P,J2,4,Pin_4*%
%TO.N,Board_11-/A11*%
X224122500Y-133392500D03*
D19*
%TO.P,J2,5,Pin_5*%
%TO.N,Board_11-/B3*%
X221597500Y-136357500D03*
D20*
%TO.P,J2,6,Pin_6*%
%TO.N,Board_11-/A10*%
X221612500Y-133397500D03*
D21*
%TO.P,J2,7,Pin_7*%
%TO.N,Board_11-/B4*%
X219047500Y-136357500D03*
D22*
%TO.P,J2,8,Pin_8*%
%TO.N,Board_11-/A9*%
X219077500Y-133392500D03*
D17*
%TO.P,J2,9,Pin_9*%
%TO.N,Board_11-/B5*%
X216510000Y-136352500D03*
D23*
%TO.P,J2,10,Pin_10*%
%TO.N,Board_11-/A8*%
X216512500Y-133397500D03*
D24*
%TO.P,J2,11,Pin_11*%
%TO.N,Board_11-/B6*%
X213972500Y-136352500D03*
D25*
%TO.P,J2,12,Pin_12*%
%TO.N,Board_11-/A7*%
X213957500Y-133392500D03*
D26*
%TO.P,J2,13,Pin_13*%
%TO.N,Board_11-/B7*%
X211427500Y-136352500D03*
D27*
%TO.P,J2,14,Pin_14*%
%TO.N,Board_11-/A6*%
X211437500Y-133392500D03*
D26*
%TO.P,J2,15,Pin_15*%
%TO.N,Board_11-/B8*%
X208887500Y-136352500D03*
D18*
%TO.P,J2,16,Pin_16*%
%TO.N,Board_11-/A5*%
X208902500Y-133392500D03*
D28*
%TO.P,J2,17,Pin_17*%
%TO.N,Board_11-/B9*%
X206342500Y-136352500D03*
D29*
%TO.P,J2,18,Pin_18*%
%TO.N,Board_11-/A4*%
X206367500Y-133392500D03*
D24*
%TO.P,J2,19,Pin_19*%
%TO.N,Board_11-/B10*%
X203812500Y-136352500D03*
D28*
%TO.P,J2,20,Pin_20*%
%TO.N,Board_11-/A3*%
X203802500Y-133387500D03*
D26*
%TO.P,J2,21,Pin_21*%
%TO.N,Board_11-/B11*%
X201267500Y-136352500D03*
D30*
%TO.P,J2,22,Pin_22*%
%TO.N,Board_11-/A2*%
X201262500Y-133392500D03*
D17*
%TO.P,J2,23,Pin_23*%
%TO.N,Board_11-/B12*%
X198730000Y-136352500D03*
D31*
%TO.P,J2,24,Pin_24*%
%TO.N,Board_11-/A1*%
X198722500Y-133402500D03*
%TD*%
D15*
%TO.P,J2,1,Pin_1*%
%TO.N,Board_0-/B1*%
X98337500Y-52412500D03*
D16*
%TO.P,J2,2,Pin_2*%
%TO.N,Board_0-/A12*%
X98372500Y-49452500D03*
D17*
%TO.P,J2,3,Pin_3*%
%TO.N,Board_0-/B2*%
X95790000Y-52412500D03*
D18*
%TO.P,J2,4,Pin_4*%
%TO.N,Board_0-/A11*%
X95782500Y-49452500D03*
D19*
%TO.P,J2,5,Pin_5*%
%TO.N,Board_0-/B3*%
X93257500Y-52417500D03*
D20*
%TO.P,J2,6,Pin_6*%
%TO.N,Board_0-/A10*%
X93272500Y-49457500D03*
D21*
%TO.P,J2,7,Pin_7*%
%TO.N,Board_0-/B4*%
X90707500Y-52417500D03*
D22*
%TO.P,J2,8,Pin_8*%
%TO.N,Board_0-/A9*%
X90737500Y-49452500D03*
D17*
%TO.P,J2,9,Pin_9*%
%TO.N,Board_0-/B5*%
X88170000Y-52412500D03*
D23*
%TO.P,J2,10,Pin_10*%
%TO.N,Board_0-/A8*%
X88172500Y-49457500D03*
D24*
%TO.P,J2,11,Pin_11*%
%TO.N,Board_0-/B6*%
X85632500Y-52412500D03*
D25*
%TO.P,J2,12,Pin_12*%
%TO.N,Board_0-/A7*%
X85617500Y-49452500D03*
D26*
%TO.P,J2,13,Pin_13*%
%TO.N,Board_0-/B7*%
X83087500Y-52412500D03*
D27*
%TO.P,J2,14,Pin_14*%
%TO.N,Board_0-/A6*%
X83097500Y-49452500D03*
D26*
%TO.P,J2,15,Pin_15*%
%TO.N,Board_0-/B8*%
X80547500Y-52412500D03*
D18*
%TO.P,J2,16,Pin_16*%
%TO.N,Board_0-/A5*%
X80562500Y-49452500D03*
D28*
%TO.P,J2,17,Pin_17*%
%TO.N,Board_0-/B9*%
X78002500Y-52412500D03*
D29*
%TO.P,J2,18,Pin_18*%
%TO.N,Board_0-/A4*%
X78027500Y-49452500D03*
D24*
%TO.P,J2,19,Pin_19*%
%TO.N,Board_0-/B10*%
X75472500Y-52412500D03*
D28*
%TO.P,J2,20,Pin_20*%
%TO.N,Board_0-/A3*%
X75462500Y-49447500D03*
D26*
%TO.P,J2,21,Pin_21*%
%TO.N,Board_0-/B11*%
X72927500Y-52412500D03*
D30*
%TO.P,J2,22,Pin_22*%
%TO.N,Board_0-/A2*%
X72922500Y-49452500D03*
D17*
%TO.P,J2,23,Pin_23*%
%TO.N,Board_0-/B12*%
X70390000Y-52412500D03*
D31*
%TO.P,J2,24,Pin_24*%
%TO.N,Board_0-/A1*%
X70382500Y-49462500D03*
%TD*%
D15*
%TO.P,J2,1,Pin_1*%
%TO.N,Board_2-/B1*%
X183897500Y-52412500D03*
D16*
%TO.P,J2,2,Pin_2*%
%TO.N,Board_2-/A12*%
X183932500Y-49452500D03*
D17*
%TO.P,J2,3,Pin_3*%
%TO.N,Board_2-/B2*%
X181350000Y-52412500D03*
D18*
%TO.P,J2,4,Pin_4*%
%TO.N,Board_2-/A11*%
X181342500Y-49452500D03*
D19*
%TO.P,J2,5,Pin_5*%
%TO.N,Board_2-/B3*%
X178817500Y-52417500D03*
D20*
%TO.P,J2,6,Pin_6*%
%TO.N,Board_2-/A10*%
X178832500Y-49457500D03*
D21*
%TO.P,J2,7,Pin_7*%
%TO.N,Board_2-/B4*%
X176267500Y-52417500D03*
D22*
%TO.P,J2,8,Pin_8*%
%TO.N,Board_2-/A9*%
X176297500Y-49452500D03*
D17*
%TO.P,J2,9,Pin_9*%
%TO.N,Board_2-/B5*%
X173730000Y-52412500D03*
D23*
%TO.P,J2,10,Pin_10*%
%TO.N,Board_2-/A8*%
X173732500Y-49457500D03*
D24*
%TO.P,J2,11,Pin_11*%
%TO.N,Board_2-/B6*%
X171192500Y-52412500D03*
D25*
%TO.P,J2,12,Pin_12*%
%TO.N,Board_2-/A7*%
X171177500Y-49452500D03*
D26*
%TO.P,J2,13,Pin_13*%
%TO.N,Board_2-/B7*%
X168647500Y-52412500D03*
D27*
%TO.P,J2,14,Pin_14*%
%TO.N,Board_2-/A6*%
X168657500Y-49452500D03*
D26*
%TO.P,J2,15,Pin_15*%
%TO.N,Board_2-/B8*%
X166107500Y-52412500D03*
D18*
%TO.P,J2,16,Pin_16*%
%TO.N,Board_2-/A5*%
X166122500Y-49452500D03*
D28*
%TO.P,J2,17,Pin_17*%
%TO.N,Board_2-/B9*%
X163562500Y-52412500D03*
D29*
%TO.P,J2,18,Pin_18*%
%TO.N,Board_2-/A4*%
X163587500Y-49452500D03*
D24*
%TO.P,J2,19,Pin_19*%
%TO.N,Board_2-/B10*%
X161032500Y-52412500D03*
D28*
%TO.P,J2,20,Pin_20*%
%TO.N,Board_2-/A3*%
X161022500Y-49447500D03*
D26*
%TO.P,J2,21,Pin_21*%
%TO.N,Board_2-/B11*%
X158487500Y-52412500D03*
D30*
%TO.P,J2,22,Pin_22*%
%TO.N,Board_2-/A2*%
X158482500Y-49452500D03*
D17*
%TO.P,J2,23,Pin_23*%
%TO.N,Board_2-/B12*%
X155950000Y-52412500D03*
D31*
%TO.P,J2,24,Pin_24*%
%TO.N,Board_2-/A1*%
X155942500Y-49462500D03*
%TD*%
D15*
%TO.P,J2,1,Pin_1*%
%TO.N,Board_12-/B1*%
X98337500Y-178322500D03*
D16*
%TO.P,J2,2,Pin_2*%
%TO.N,Board_12-/A12*%
X98372500Y-175362500D03*
D17*
%TO.P,J2,3,Pin_3*%
%TO.N,Board_12-/B2*%
X95790000Y-178322500D03*
D18*
%TO.P,J2,4,Pin_4*%
%TO.N,Board_12-/A11*%
X95782500Y-175362500D03*
D19*
%TO.P,J2,5,Pin_5*%
%TO.N,Board_12-/B3*%
X93257500Y-178327500D03*
D20*
%TO.P,J2,6,Pin_6*%
%TO.N,Board_12-/A10*%
X93272500Y-175367500D03*
D21*
%TO.P,J2,7,Pin_7*%
%TO.N,Board_12-/B4*%
X90707500Y-178327500D03*
D22*
%TO.P,J2,8,Pin_8*%
%TO.N,Board_12-/A9*%
X90737500Y-175362500D03*
D17*
%TO.P,J2,9,Pin_9*%
%TO.N,Board_12-/B5*%
X88170000Y-178322500D03*
D23*
%TO.P,J2,10,Pin_10*%
%TO.N,Board_12-/A8*%
X88172500Y-175367500D03*
D24*
%TO.P,J2,11,Pin_11*%
%TO.N,Board_12-/B6*%
X85632500Y-178322500D03*
D25*
%TO.P,J2,12,Pin_12*%
%TO.N,Board_12-/A7*%
X85617500Y-175362500D03*
D26*
%TO.P,J2,13,Pin_13*%
%TO.N,Board_12-/B7*%
X83087500Y-178322500D03*
D27*
%TO.P,J2,14,Pin_14*%
%TO.N,Board_12-/A6*%
X83097500Y-175362500D03*
D26*
%TO.P,J2,15,Pin_15*%
%TO.N,Board_12-/B8*%
X80547500Y-178322500D03*
D18*
%TO.P,J2,16,Pin_16*%
%TO.N,Board_12-/A5*%
X80562500Y-175362500D03*
D28*
%TO.P,J2,17,Pin_17*%
%TO.N,Board_12-/B9*%
X78002500Y-178322500D03*
D29*
%TO.P,J2,18,Pin_18*%
%TO.N,Board_12-/A4*%
X78027500Y-175362500D03*
D24*
%TO.P,J2,19,Pin_19*%
%TO.N,Board_12-/B10*%
X75472500Y-178322500D03*
D28*
%TO.P,J2,20,Pin_20*%
%TO.N,Board_12-/A3*%
X75462500Y-175357500D03*
D26*
%TO.P,J2,21,Pin_21*%
%TO.N,Board_12-/B11*%
X72927500Y-178322500D03*
D30*
%TO.P,J2,22,Pin_22*%
%TO.N,Board_12-/A2*%
X72922500Y-175362500D03*
D17*
%TO.P,J2,23,Pin_23*%
%TO.N,Board_12-/B12*%
X70390000Y-178322500D03*
D31*
%TO.P,J2,24,Pin_24*%
%TO.N,Board_12-/A1*%
X70382500Y-175372500D03*
%TD*%
D15*
%TO.P,J2,1,Pin_1*%
%TO.N,Board_4-/B1*%
X98337500Y-94382500D03*
D16*
%TO.P,J2,2,Pin_2*%
%TO.N,Board_4-/A12*%
X98372500Y-91422500D03*
D17*
%TO.P,J2,3,Pin_3*%
%TO.N,Board_4-/B2*%
X95790000Y-94382500D03*
D18*
%TO.P,J2,4,Pin_4*%
%TO.N,Board_4-/A11*%
X95782500Y-91422500D03*
D19*
%TO.P,J2,5,Pin_5*%
%TO.N,Board_4-/B3*%
X93257500Y-94387500D03*
D20*
%TO.P,J2,6,Pin_6*%
%TO.N,Board_4-/A10*%
X93272500Y-91427500D03*
D21*
%TO.P,J2,7,Pin_7*%
%TO.N,Board_4-/B4*%
X90707500Y-94387500D03*
D22*
%TO.P,J2,8,Pin_8*%
%TO.N,Board_4-/A9*%
X90737500Y-91422500D03*
D17*
%TO.P,J2,9,Pin_9*%
%TO.N,Board_4-/B5*%
X88170000Y-94382500D03*
D23*
%TO.P,J2,10,Pin_10*%
%TO.N,Board_4-/A8*%
X88172500Y-91427500D03*
D24*
%TO.P,J2,11,Pin_11*%
%TO.N,Board_4-/B6*%
X85632500Y-94382500D03*
D25*
%TO.P,J2,12,Pin_12*%
%TO.N,Board_4-/A7*%
X85617500Y-91422500D03*
D26*
%TO.P,J2,13,Pin_13*%
%TO.N,Board_4-/B7*%
X83087500Y-94382500D03*
D27*
%TO.P,J2,14,Pin_14*%
%TO.N,Board_4-/A6*%
X83097500Y-91422500D03*
D26*
%TO.P,J2,15,Pin_15*%
%TO.N,Board_4-/B8*%
X80547500Y-94382500D03*
D18*
%TO.P,J2,16,Pin_16*%
%TO.N,Board_4-/A5*%
X80562500Y-91422500D03*
D28*
%TO.P,J2,17,Pin_17*%
%TO.N,Board_4-/B9*%
X78002500Y-94382500D03*
D29*
%TO.P,J2,18,Pin_18*%
%TO.N,Board_4-/A4*%
X78027500Y-91422500D03*
D24*
%TO.P,J2,19,Pin_19*%
%TO.N,Board_4-/B10*%
X75472500Y-94382500D03*
D28*
%TO.P,J2,20,Pin_20*%
%TO.N,Board_4-/A3*%
X75462500Y-91417500D03*
D26*
%TO.P,J2,21,Pin_21*%
%TO.N,Board_4-/B11*%
X72927500Y-94382500D03*
D30*
%TO.P,J2,22,Pin_22*%
%TO.N,Board_4-/A2*%
X72922500Y-91422500D03*
D17*
%TO.P,J2,23,Pin_23*%
%TO.N,Board_4-/B12*%
X70390000Y-94382500D03*
D31*
%TO.P,J2,24,Pin_24*%
%TO.N,Board_4-/A1*%
X70382500Y-91432500D03*
%TD*%
D15*
%TO.P,J2,1,Pin_1*%
%TO.N,Board_3-/B1*%
X226677500Y-52412500D03*
D16*
%TO.P,J2,2,Pin_2*%
%TO.N,Board_3-/A12*%
X226712500Y-49452500D03*
D17*
%TO.P,J2,3,Pin_3*%
%TO.N,Board_3-/B2*%
X224130000Y-52412500D03*
D18*
%TO.P,J2,4,Pin_4*%
%TO.N,Board_3-/A11*%
X224122500Y-49452500D03*
D19*
%TO.P,J2,5,Pin_5*%
%TO.N,Board_3-/B3*%
X221597500Y-52417500D03*
D20*
%TO.P,J2,6,Pin_6*%
%TO.N,Board_3-/A10*%
X221612500Y-49457500D03*
D21*
%TO.P,J2,7,Pin_7*%
%TO.N,Board_3-/B4*%
X219047500Y-52417500D03*
D22*
%TO.P,J2,8,Pin_8*%
%TO.N,Board_3-/A9*%
X219077500Y-49452500D03*
D17*
%TO.P,J2,9,Pin_9*%
%TO.N,Board_3-/B5*%
X216510000Y-52412500D03*
D23*
%TO.P,J2,10,Pin_10*%
%TO.N,Board_3-/A8*%
X216512500Y-49457500D03*
D24*
%TO.P,J2,11,Pin_11*%
%TO.N,Board_3-/B6*%
X213972500Y-52412500D03*
D25*
%TO.P,J2,12,Pin_12*%
%TO.N,Board_3-/A7*%
X213957500Y-49452500D03*
D26*
%TO.P,J2,13,Pin_13*%
%TO.N,Board_3-/B7*%
X211427500Y-52412500D03*
D27*
%TO.P,J2,14,Pin_14*%
%TO.N,Board_3-/A6*%
X211437500Y-49452500D03*
D26*
%TO.P,J2,15,Pin_15*%
%TO.N,Board_3-/B8*%
X208887500Y-52412500D03*
D18*
%TO.P,J2,16,Pin_16*%
%TO.N,Board_3-/A5*%
X208902500Y-49452500D03*
D28*
%TO.P,J2,17,Pin_17*%
%TO.N,Board_3-/B9*%
X206342500Y-52412500D03*
D29*
%TO.P,J2,18,Pin_18*%
%TO.N,Board_3-/A4*%
X206367500Y-49452500D03*
D24*
%TO.P,J2,19,Pin_19*%
%TO.N,Board_3-/B10*%
X203812500Y-52412500D03*
D28*
%TO.P,J2,20,Pin_20*%
%TO.N,Board_3-/A3*%
X203802500Y-49447500D03*
D26*
%TO.P,J2,21,Pin_21*%
%TO.N,Board_3-/B11*%
X201267500Y-52412500D03*
D30*
%TO.P,J2,22,Pin_22*%
%TO.N,Board_3-/A2*%
X201262500Y-49452500D03*
D17*
%TO.P,J2,23,Pin_23*%
%TO.N,Board_3-/B12*%
X198730000Y-52412500D03*
D31*
%TO.P,J2,24,Pin_24*%
%TO.N,Board_3-/A1*%
X198722500Y-49462500D03*
%TD*%
D15*
%TO.P,J2,1,Pin_1*%
%TO.N,Board_13-/B1*%
X141117500Y-178322500D03*
D16*
%TO.P,J2,2,Pin_2*%
%TO.N,Board_13-/A12*%
X141152500Y-175362500D03*
D17*
%TO.P,J2,3,Pin_3*%
%TO.N,Board_13-/B2*%
X138570000Y-178322500D03*
D18*
%TO.P,J2,4,Pin_4*%
%TO.N,Board_13-/A11*%
X138562500Y-175362500D03*
D19*
%TO.P,J2,5,Pin_5*%
%TO.N,Board_13-/B3*%
X136037500Y-178327500D03*
D20*
%TO.P,J2,6,Pin_6*%
%TO.N,Board_13-/A10*%
X136052500Y-175367500D03*
D21*
%TO.P,J2,7,Pin_7*%
%TO.N,Board_13-/B4*%
X133487500Y-178327500D03*
D22*
%TO.P,J2,8,Pin_8*%
%TO.N,Board_13-/A9*%
X133517500Y-175362500D03*
D17*
%TO.P,J2,9,Pin_9*%
%TO.N,Board_13-/B5*%
X130950000Y-178322500D03*
D23*
%TO.P,J2,10,Pin_10*%
%TO.N,Board_13-/A8*%
X130952500Y-175367500D03*
D24*
%TO.P,J2,11,Pin_11*%
%TO.N,Board_13-/B6*%
X128412500Y-178322500D03*
D25*
%TO.P,J2,12,Pin_12*%
%TO.N,Board_13-/A7*%
X128397500Y-175362500D03*
D26*
%TO.P,J2,13,Pin_13*%
%TO.N,Board_13-/B7*%
X125867500Y-178322500D03*
D27*
%TO.P,J2,14,Pin_14*%
%TO.N,Board_13-/A6*%
X125877500Y-175362500D03*
D26*
%TO.P,J2,15,Pin_15*%
%TO.N,Board_13-/B8*%
X123327500Y-178322500D03*
D18*
%TO.P,J2,16,Pin_16*%
%TO.N,Board_13-/A5*%
X123342500Y-175362500D03*
D28*
%TO.P,J2,17,Pin_17*%
%TO.N,Board_13-/B9*%
X120782500Y-178322500D03*
D29*
%TO.P,J2,18,Pin_18*%
%TO.N,Board_13-/A4*%
X120807500Y-175362500D03*
D24*
%TO.P,J2,19,Pin_19*%
%TO.N,Board_13-/B10*%
X118252500Y-178322500D03*
D28*
%TO.P,J2,20,Pin_20*%
%TO.N,Board_13-/A3*%
X118242500Y-175357500D03*
D26*
%TO.P,J2,21,Pin_21*%
%TO.N,Board_13-/B11*%
X115707500Y-178322500D03*
D30*
%TO.P,J2,22,Pin_22*%
%TO.N,Board_13-/A2*%
X115702500Y-175362500D03*
D17*
%TO.P,J2,23,Pin_23*%
%TO.N,Board_13-/B12*%
X113170000Y-178322500D03*
D31*
%TO.P,J2,24,Pin_24*%
%TO.N,Board_13-/A1*%
X113162500Y-175372500D03*
%TD*%
D15*
%TO.P,J2,1,Pin_1*%
%TO.N,Board_14-/B1*%
X183897500Y-178322500D03*
D16*
%TO.P,J2,2,Pin_2*%
%TO.N,Board_14-/A12*%
X183932500Y-175362500D03*
D17*
%TO.P,J2,3,Pin_3*%
%TO.N,Board_14-/B2*%
X181350000Y-178322500D03*
D18*
%TO.P,J2,4,Pin_4*%
%TO.N,Board_14-/A11*%
X181342500Y-175362500D03*
D19*
%TO.P,J2,5,Pin_5*%
%TO.N,Board_14-/B3*%
X178817500Y-178327500D03*
D20*
%TO.P,J2,6,Pin_6*%
%TO.N,Board_14-/A10*%
X178832500Y-175367500D03*
D21*
%TO.P,J2,7,Pin_7*%
%TO.N,Board_14-/B4*%
X176267500Y-178327500D03*
D22*
%TO.P,J2,8,Pin_8*%
%TO.N,Board_14-/A9*%
X176297500Y-175362500D03*
D17*
%TO.P,J2,9,Pin_9*%
%TO.N,Board_14-/B5*%
X173730000Y-178322500D03*
D23*
%TO.P,J2,10,Pin_10*%
%TO.N,Board_14-/A8*%
X173732500Y-175367500D03*
D24*
%TO.P,J2,11,Pin_11*%
%TO.N,Board_14-/B6*%
X171192500Y-178322500D03*
D25*
%TO.P,J2,12,Pin_12*%
%TO.N,Board_14-/A7*%
X171177500Y-175362500D03*
D26*
%TO.P,J2,13,Pin_13*%
%TO.N,Board_14-/B7*%
X168647500Y-178322500D03*
D27*
%TO.P,J2,14,Pin_14*%
%TO.N,Board_14-/A6*%
X168657500Y-175362500D03*
D26*
%TO.P,J2,15,Pin_15*%
%TO.N,Board_14-/B8*%
X166107500Y-178322500D03*
D18*
%TO.P,J2,16,Pin_16*%
%TO.N,Board_14-/A5*%
X166122500Y-175362500D03*
D28*
%TO.P,J2,17,Pin_17*%
%TO.N,Board_14-/B9*%
X163562500Y-178322500D03*
D29*
%TO.P,J2,18,Pin_18*%
%TO.N,Board_14-/A4*%
X163587500Y-175362500D03*
D24*
%TO.P,J2,19,Pin_19*%
%TO.N,Board_14-/B10*%
X161032500Y-178322500D03*
D28*
%TO.P,J2,20,Pin_20*%
%TO.N,Board_14-/A3*%
X161022500Y-175357500D03*
D26*
%TO.P,J2,21,Pin_21*%
%TO.N,Board_14-/B11*%
X158487500Y-178322500D03*
D30*
%TO.P,J2,22,Pin_22*%
%TO.N,Board_14-/A2*%
X158482500Y-175362500D03*
D17*
%TO.P,J2,23,Pin_23*%
%TO.N,Board_14-/B12*%
X155950000Y-178322500D03*
D31*
%TO.P,J2,24,Pin_24*%
%TO.N,Board_14-/A1*%
X155942500Y-175372500D03*
%TD*%
D15*
%TO.P,J2,1,Pin_1*%
%TO.N,Board_6-/B1*%
X183897500Y-94382500D03*
D16*
%TO.P,J2,2,Pin_2*%
%TO.N,Board_6-/A12*%
X183932500Y-91422500D03*
D17*
%TO.P,J2,3,Pin_3*%
%TO.N,Board_6-/B2*%
X181350000Y-94382500D03*
D18*
%TO.P,J2,4,Pin_4*%
%TO.N,Board_6-/A11*%
X181342500Y-91422500D03*
D19*
%TO.P,J2,5,Pin_5*%
%TO.N,Board_6-/B3*%
X178817500Y-94387500D03*
D20*
%TO.P,J2,6,Pin_6*%
%TO.N,Board_6-/A10*%
X178832500Y-91427500D03*
D21*
%TO.P,J2,7,Pin_7*%
%TO.N,Board_6-/B4*%
X176267500Y-94387500D03*
D22*
%TO.P,J2,8,Pin_8*%
%TO.N,Board_6-/A9*%
X176297500Y-91422500D03*
D17*
%TO.P,J2,9,Pin_9*%
%TO.N,Board_6-/B5*%
X173730000Y-94382500D03*
D23*
%TO.P,J2,10,Pin_10*%
%TO.N,Board_6-/A8*%
X173732500Y-91427500D03*
D24*
%TO.P,J2,11,Pin_11*%
%TO.N,Board_6-/B6*%
X171192500Y-94382500D03*
D25*
%TO.P,J2,12,Pin_12*%
%TO.N,Board_6-/A7*%
X171177500Y-91422500D03*
D26*
%TO.P,J2,13,Pin_13*%
%TO.N,Board_6-/B7*%
X168647500Y-94382500D03*
D27*
%TO.P,J2,14,Pin_14*%
%TO.N,Board_6-/A6*%
X168657500Y-91422500D03*
D26*
%TO.P,J2,15,Pin_15*%
%TO.N,Board_6-/B8*%
X166107500Y-94382500D03*
D18*
%TO.P,J2,16,Pin_16*%
%TO.N,Board_6-/A5*%
X166122500Y-91422500D03*
D28*
%TO.P,J2,17,Pin_17*%
%TO.N,Board_6-/B9*%
X163562500Y-94382500D03*
D29*
%TO.P,J2,18,Pin_18*%
%TO.N,Board_6-/A4*%
X163587500Y-91422500D03*
D24*
%TO.P,J2,19,Pin_19*%
%TO.N,Board_6-/B10*%
X161032500Y-94382500D03*
D28*
%TO.P,J2,20,Pin_20*%
%TO.N,Board_6-/A3*%
X161022500Y-91417500D03*
D26*
%TO.P,J2,21,Pin_21*%
%TO.N,Board_6-/B11*%
X158487500Y-94382500D03*
D30*
%TO.P,J2,22,Pin_22*%
%TO.N,Board_6-/A2*%
X158482500Y-91422500D03*
D17*
%TO.P,J2,23,Pin_23*%
%TO.N,Board_6-/B12*%
X155950000Y-94382500D03*
D31*
%TO.P,J2,24,Pin_24*%
%TO.N,Board_6-/A1*%
X155942500Y-91432500D03*
%TD*%
D15*
%TO.P,J2,1,Pin_1*%
%TO.N,Board_7-/B1*%
X226677500Y-94382500D03*
D16*
%TO.P,J2,2,Pin_2*%
%TO.N,Board_7-/A12*%
X226712500Y-91422500D03*
D17*
%TO.P,J2,3,Pin_3*%
%TO.N,Board_7-/B2*%
X224130000Y-94382500D03*
D18*
%TO.P,J2,4,Pin_4*%
%TO.N,Board_7-/A11*%
X224122500Y-91422500D03*
D19*
%TO.P,J2,5,Pin_5*%
%TO.N,Board_7-/B3*%
X221597500Y-94387500D03*
D20*
%TO.P,J2,6,Pin_6*%
%TO.N,Board_7-/A10*%
X221612500Y-91427500D03*
D21*
%TO.P,J2,7,Pin_7*%
%TO.N,Board_7-/B4*%
X219047500Y-94387500D03*
D22*
%TO.P,J2,8,Pin_8*%
%TO.N,Board_7-/A9*%
X219077500Y-91422500D03*
D17*
%TO.P,J2,9,Pin_9*%
%TO.N,Board_7-/B5*%
X216510000Y-94382500D03*
D23*
%TO.P,J2,10,Pin_10*%
%TO.N,Board_7-/A8*%
X216512500Y-91427500D03*
D24*
%TO.P,J2,11,Pin_11*%
%TO.N,Board_7-/B6*%
X213972500Y-94382500D03*
D25*
%TO.P,J2,12,Pin_12*%
%TO.N,Board_7-/A7*%
X213957500Y-91422500D03*
D26*
%TO.P,J2,13,Pin_13*%
%TO.N,Board_7-/B7*%
X211427500Y-94382500D03*
D27*
%TO.P,J2,14,Pin_14*%
%TO.N,Board_7-/A6*%
X211437500Y-91422500D03*
D26*
%TO.P,J2,15,Pin_15*%
%TO.N,Board_7-/B8*%
X208887500Y-94382500D03*
D18*
%TO.P,J2,16,Pin_16*%
%TO.N,Board_7-/A5*%
X208902500Y-91422500D03*
D28*
%TO.P,J2,17,Pin_17*%
%TO.N,Board_7-/B9*%
X206342500Y-94382500D03*
D29*
%TO.P,J2,18,Pin_18*%
%TO.N,Board_7-/A4*%
X206367500Y-91422500D03*
D24*
%TO.P,J2,19,Pin_19*%
%TO.N,Board_7-/B10*%
X203812500Y-94382500D03*
D28*
%TO.P,J2,20,Pin_20*%
%TO.N,Board_7-/A3*%
X203802500Y-91417500D03*
D26*
%TO.P,J2,21,Pin_21*%
%TO.N,Board_7-/B11*%
X201267500Y-94382500D03*
D30*
%TO.P,J2,22,Pin_22*%
%TO.N,Board_7-/A2*%
X201262500Y-91422500D03*
D17*
%TO.P,J2,23,Pin_23*%
%TO.N,Board_7-/B12*%
X198730000Y-94382500D03*
D31*
%TO.P,J2,24,Pin_24*%
%TO.N,Board_7-/A1*%
X198722500Y-91432500D03*
%TD*%
D15*
%TO.P,J2,1,Pin_1*%
%TO.N,Board_10-/B1*%
X183897500Y-136352500D03*
D16*
%TO.P,J2,2,Pin_2*%
%TO.N,Board_10-/A12*%
X183932500Y-133392500D03*
D17*
%TO.P,J2,3,Pin_3*%
%TO.N,Board_10-/B2*%
X181350000Y-136352500D03*
D18*
%TO.P,J2,4,Pin_4*%
%TO.N,Board_10-/A11*%
X181342500Y-133392500D03*
D19*
%TO.P,J2,5,Pin_5*%
%TO.N,Board_10-/B3*%
X178817500Y-136357500D03*
D20*
%TO.P,J2,6,Pin_6*%
%TO.N,Board_10-/A10*%
X178832500Y-133397500D03*
D21*
%TO.P,J2,7,Pin_7*%
%TO.N,Board_10-/B4*%
X176267500Y-136357500D03*
D22*
%TO.P,J2,8,Pin_8*%
%TO.N,Board_10-/A9*%
X176297500Y-133392500D03*
D17*
%TO.P,J2,9,Pin_9*%
%TO.N,Board_10-/B5*%
X173730000Y-136352500D03*
D23*
%TO.P,J2,10,Pin_10*%
%TO.N,Board_10-/A8*%
X173732500Y-133397500D03*
D24*
%TO.P,J2,11,Pin_11*%
%TO.N,Board_10-/B6*%
X171192500Y-136352500D03*
D25*
%TO.P,J2,12,Pin_12*%
%TO.N,Board_10-/A7*%
X171177500Y-133392500D03*
D26*
%TO.P,J2,13,Pin_13*%
%TO.N,Board_10-/B7*%
X168647500Y-136352500D03*
D27*
%TO.P,J2,14,Pin_14*%
%TO.N,Board_10-/A6*%
X168657500Y-133392500D03*
D26*
%TO.P,J2,15,Pin_15*%
%TO.N,Board_10-/B8*%
X166107500Y-136352500D03*
D18*
%TO.P,J2,16,Pin_16*%
%TO.N,Board_10-/A5*%
X166122500Y-133392500D03*
D28*
%TO.P,J2,17,Pin_17*%
%TO.N,Board_10-/B9*%
X163562500Y-136352500D03*
D29*
%TO.P,J2,18,Pin_18*%
%TO.N,Board_10-/A4*%
X163587500Y-133392500D03*
D24*
%TO.P,J2,19,Pin_19*%
%TO.N,Board_10-/B10*%
X161032500Y-136352500D03*
D28*
%TO.P,J2,20,Pin_20*%
%TO.N,Board_10-/A3*%
X161022500Y-133387500D03*
D26*
%TO.P,J2,21,Pin_21*%
%TO.N,Board_10-/B11*%
X158487500Y-136352500D03*
D30*
%TO.P,J2,22,Pin_22*%
%TO.N,Board_10-/A2*%
X158482500Y-133392500D03*
D17*
%TO.P,J2,23,Pin_23*%
%TO.N,Board_10-/B12*%
X155950000Y-136352500D03*
D31*
%TO.P,J2,24,Pin_24*%
%TO.N,Board_10-/A1*%
X155942500Y-133402500D03*
%TD*%
D15*
%TO.P,J2,1,Pin_1*%
%TO.N,Board_9-/B1*%
X141117500Y-136352500D03*
D16*
%TO.P,J2,2,Pin_2*%
%TO.N,Board_9-/A12*%
X141152500Y-133392500D03*
D17*
%TO.P,J2,3,Pin_3*%
%TO.N,Board_9-/B2*%
X138570000Y-136352500D03*
D18*
%TO.P,J2,4,Pin_4*%
%TO.N,Board_9-/A11*%
X138562500Y-133392500D03*
D19*
%TO.P,J2,5,Pin_5*%
%TO.N,Board_9-/B3*%
X136037500Y-136357500D03*
D20*
%TO.P,J2,6,Pin_6*%
%TO.N,Board_9-/A10*%
X136052500Y-133397500D03*
D21*
%TO.P,J2,7,Pin_7*%
%TO.N,Board_9-/B4*%
X133487500Y-136357500D03*
D22*
%TO.P,J2,8,Pin_8*%
%TO.N,Board_9-/A9*%
X133517500Y-133392500D03*
D17*
%TO.P,J2,9,Pin_9*%
%TO.N,Board_9-/B5*%
X130950000Y-136352500D03*
D23*
%TO.P,J2,10,Pin_10*%
%TO.N,Board_9-/A8*%
X130952500Y-133397500D03*
D24*
%TO.P,J2,11,Pin_11*%
%TO.N,Board_9-/B6*%
X128412500Y-136352500D03*
D25*
%TO.P,J2,12,Pin_12*%
%TO.N,Board_9-/A7*%
X128397500Y-133392500D03*
D26*
%TO.P,J2,13,Pin_13*%
%TO.N,Board_9-/B7*%
X125867500Y-136352500D03*
D27*
%TO.P,J2,14,Pin_14*%
%TO.N,Board_9-/A6*%
X125877500Y-133392500D03*
D26*
%TO.P,J2,15,Pin_15*%
%TO.N,Board_9-/B8*%
X123327500Y-136352500D03*
D18*
%TO.P,J2,16,Pin_16*%
%TO.N,Board_9-/A5*%
X123342500Y-133392500D03*
D28*
%TO.P,J2,17,Pin_17*%
%TO.N,Board_9-/B9*%
X120782500Y-136352500D03*
D29*
%TO.P,J2,18,Pin_18*%
%TO.N,Board_9-/A4*%
X120807500Y-133392500D03*
D24*
%TO.P,J2,19,Pin_19*%
%TO.N,Board_9-/B10*%
X118252500Y-136352500D03*
D28*
%TO.P,J2,20,Pin_20*%
%TO.N,Board_9-/A3*%
X118242500Y-133387500D03*
D26*
%TO.P,J2,21,Pin_21*%
%TO.N,Board_9-/B11*%
X115707500Y-136352500D03*
D30*
%TO.P,J2,22,Pin_22*%
%TO.N,Board_9-/A2*%
X115702500Y-133392500D03*
D17*
%TO.P,J2,23,Pin_23*%
%TO.N,Board_9-/B12*%
X113170000Y-136352500D03*
D31*
%TO.P,J2,24,Pin_24*%
%TO.N,Board_9-/A1*%
X113162500Y-133402500D03*
%TD*%
D32*
%TO.N,Board_0-/A1*%
X70410000Y-49590000D02*
X81669000Y-38331000D01*
X70410000Y-49670000D02*
X70410000Y-49590000D01*
X81669000Y-38331000D02*
X81669000Y-35108942D01*
%TO.N,Board_0-/A10*%
X86160000Y-35070500D02*
X86120000Y-35030500D01*
X93270000Y-49670000D02*
X93270000Y-45724200D01*
X86160000Y-38614200D02*
X86160000Y-35070500D01*
X93270000Y-45724200D02*
X86160000Y-38614200D01*
%TO.N,Board_0-/A11*%
X86660000Y-38547100D02*
X86660000Y-35070500D01*
X95810000Y-47697100D02*
X86660000Y-38547100D01*
X86660000Y-35070500D02*
X86620000Y-35030500D01*
X95810000Y-49670000D02*
X95810000Y-47697100D01*
%TO.N,Board_0-/A12*%
X87120000Y-35879000D02*
X87111000Y-35870000D01*
X87120000Y-36010000D02*
X87120000Y-35879000D01*
X87120000Y-36010000D02*
X87120000Y-35030500D01*
X98350000Y-49670000D02*
X87120000Y-38440000D01*
X87120000Y-38440000D02*
X87120000Y-36010000D01*
%TO.N,Board_0-/A2*%
X72950000Y-47697100D02*
X82120000Y-38527100D01*
X82120000Y-38527100D02*
X82120000Y-35030500D01*
X72950000Y-49670000D02*
X72950000Y-47697100D01*
%TO.N,Board_0-/A3*%
X82617500Y-38596700D02*
X82617500Y-35030500D01*
X75490000Y-45724200D02*
X82617500Y-38596700D01*
X75490000Y-49670000D02*
X75490000Y-45724200D01*
%TO.N,Board_0-/A4*%
X83111000Y-35041000D02*
X83121500Y-35030500D01*
X78030000Y-43751300D02*
X83111000Y-38670300D01*
X78030000Y-49670000D02*
X78030000Y-43751300D01*
X83111000Y-38670300D02*
X83111000Y-35041000D01*
%TO.N,Board_0-/A5*%
X83660000Y-38688400D02*
X83660000Y-35070500D01*
X80570000Y-41778400D02*
X83660000Y-38688400D01*
X80570000Y-49670000D02*
X80570000Y-41778400D01*
X83660000Y-35070500D02*
X83620000Y-35030500D01*
%TO.N,Board_0-/A6*%
X83110000Y-49670000D02*
X83110000Y-39805500D01*
X84160000Y-35070500D02*
X84120000Y-35030500D01*
X84160000Y-38755500D02*
X84160000Y-35070500D01*
X83110000Y-39805500D02*
X84160000Y-38755500D01*
%TO.N,Board_0-/A7*%
X85650000Y-39805500D02*
X84660000Y-38815500D01*
X84660000Y-35070500D02*
X84620000Y-35030500D01*
X85650000Y-49670000D02*
X85650000Y-39805500D01*
X84660000Y-38815500D02*
X84660000Y-35070500D01*
%TO.N,Board_0-/A8*%
X88190000Y-49670000D02*
X88190000Y-41778400D01*
X85160000Y-38748400D02*
X85160000Y-35070500D01*
X85160000Y-35070500D02*
X85120000Y-35030500D01*
X88190000Y-41778400D02*
X85160000Y-38748400D01*
%TO.N,Board_0-/A9*%
X85709000Y-38730300D02*
X85709000Y-35119500D01*
X85709000Y-35119500D02*
X85620000Y-35030500D01*
X90730000Y-49670000D02*
X90730000Y-43751300D01*
X90730000Y-43751300D02*
X85709000Y-38730300D01*
%TO.N,Board_1-/A1*%
X113190000Y-49590000D02*
X124449000Y-38331000D01*
X113190000Y-49670000D02*
X113190000Y-49590000D01*
X124449000Y-38331000D02*
X124449000Y-35108942D01*
%TO.N,Board_1-/A10*%
X128940000Y-35070500D02*
X128900000Y-35030500D01*
X136050000Y-45724200D02*
X128940000Y-38614200D01*
X128940000Y-38614200D02*
X128940000Y-35070500D01*
X136050000Y-49670000D02*
X136050000Y-45724200D01*
%TO.N,Board_1-/A11*%
X129440000Y-38547100D02*
X129440000Y-35070500D01*
X138590000Y-49670000D02*
X138590000Y-47697100D01*
X138590000Y-47697100D02*
X129440000Y-38547100D01*
X129440000Y-35070500D02*
X129400000Y-35030500D01*
%TO.N,Board_1-/A12*%
X129900000Y-36010000D02*
X129900000Y-35879000D01*
X129900000Y-38440000D02*
X129900000Y-36010000D01*
X141130000Y-49670000D02*
X129900000Y-38440000D01*
X129900000Y-36010000D02*
X129900000Y-35030500D01*
X129900000Y-35879000D02*
X129891000Y-35870000D01*
%TO.N,Board_1-/A2*%
X115730000Y-49670000D02*
X115730000Y-47697100D01*
X115730000Y-47697100D02*
X124900000Y-38527100D01*
X124900000Y-38527100D02*
X124900000Y-35030500D01*
%TO.N,Board_1-/A3*%
X118270000Y-45724200D02*
X125397500Y-38596700D01*
X118270000Y-49670000D02*
X118270000Y-45724200D01*
X125397500Y-38596700D02*
X125397500Y-35030500D01*
%TO.N,Board_1-/A4*%
X125891000Y-35041000D02*
X125901500Y-35030500D01*
X120810000Y-49670000D02*
X120810000Y-43751300D01*
X125891000Y-38670300D02*
X125891000Y-35041000D01*
X120810000Y-43751300D02*
X125891000Y-38670300D01*
%TO.N,Board_1-/A5*%
X123350000Y-41778400D02*
X126440000Y-38688400D01*
X126440000Y-35070500D02*
X126400000Y-35030500D01*
X123350000Y-49670000D02*
X123350000Y-41778400D01*
X126440000Y-38688400D02*
X126440000Y-35070500D01*
%TO.N,Board_1-/A6*%
X125890000Y-39805500D02*
X126940000Y-38755500D01*
X126940000Y-35070500D02*
X126900000Y-35030500D01*
X126940000Y-38755500D02*
X126940000Y-35070500D01*
X125890000Y-49670000D02*
X125890000Y-39805500D01*
%TO.N,Board_1-/A7*%
X127440000Y-35070500D02*
X127400000Y-35030500D01*
X128430000Y-39805500D02*
X127440000Y-38815500D01*
X127440000Y-38815500D02*
X127440000Y-35070500D01*
X128430000Y-49670000D02*
X128430000Y-39805500D01*
%TO.N,Board_1-/A8*%
X127940000Y-38748400D02*
X127940000Y-35070500D01*
X127940000Y-35070500D02*
X127900000Y-35030500D01*
X130970000Y-41778400D02*
X127940000Y-38748400D01*
X130970000Y-49670000D02*
X130970000Y-41778400D01*
%TO.N,Board_1-/A9*%
X128489000Y-38730300D02*
X128489000Y-35119500D01*
X133510000Y-43751300D02*
X128489000Y-38730300D01*
X128489000Y-35119500D02*
X128400000Y-35030500D01*
X133510000Y-49670000D02*
X133510000Y-43751300D01*
%TO.N,Board_2-/A1*%
X155970000Y-49590000D02*
X167229000Y-38331000D01*
X167229000Y-38331000D02*
X167229000Y-35108942D01*
X155970000Y-49670000D02*
X155970000Y-49590000D01*
%TO.N,Board_2-/A10*%
X178830000Y-45724200D02*
X171720000Y-38614200D01*
X171720000Y-35070500D02*
X171680000Y-35030500D01*
X171720000Y-38614200D02*
X171720000Y-35070500D01*
X178830000Y-49670000D02*
X178830000Y-45724200D01*
%TO.N,Board_2-/A11*%
X181370000Y-47697100D02*
X172220000Y-38547100D01*
X172220000Y-35070500D02*
X172180000Y-35030500D01*
X172220000Y-38547100D02*
X172220000Y-35070500D01*
X181370000Y-49670000D02*
X181370000Y-47697100D01*
%TO.N,Board_2-/A12*%
X183910000Y-49670000D02*
X172680000Y-38440000D01*
X172680000Y-35879000D02*
X172671000Y-35870000D01*
X172680000Y-38440000D02*
X172680000Y-36010000D01*
X172680000Y-36010000D02*
X172680000Y-35030500D01*
X172680000Y-36010000D02*
X172680000Y-35879000D01*
%TO.N,Board_2-/A2*%
X158510000Y-47697100D02*
X167680000Y-38527100D01*
X158510000Y-49670000D02*
X158510000Y-47697100D01*
X167680000Y-38527100D02*
X167680000Y-35030500D01*
%TO.N,Board_2-/A3*%
X168177500Y-38596700D02*
X168177500Y-35030500D01*
X161050000Y-45724200D02*
X168177500Y-38596700D01*
X161050000Y-49670000D02*
X161050000Y-45724200D01*
%TO.N,Board_2-/A4*%
X168671000Y-35041000D02*
X168681500Y-35030500D01*
X163590000Y-43751300D02*
X168671000Y-38670300D01*
X163590000Y-49670000D02*
X163590000Y-43751300D01*
X168671000Y-38670300D02*
X168671000Y-35041000D01*
%TO.N,Board_2-/A5*%
X169220000Y-35070500D02*
X169180000Y-35030500D01*
X166130000Y-41778400D02*
X169220000Y-38688400D01*
X169220000Y-38688400D02*
X169220000Y-35070500D01*
X166130000Y-49670000D02*
X166130000Y-41778400D01*
%TO.N,Board_2-/A6*%
X169720000Y-35070500D02*
X169680000Y-35030500D01*
X169720000Y-38755500D02*
X169720000Y-35070500D01*
X168670000Y-39805500D02*
X169720000Y-38755500D01*
X168670000Y-49670000D02*
X168670000Y-39805500D01*
%TO.N,Board_2-/A7*%
X171210000Y-49670000D02*
X171210000Y-39805500D01*
X171210000Y-39805500D02*
X170220000Y-38815500D01*
X170220000Y-35070500D02*
X170180000Y-35030500D01*
X170220000Y-38815500D02*
X170220000Y-35070500D01*
%TO.N,Board_2-/A8*%
X173750000Y-49670000D02*
X173750000Y-41778400D01*
X173750000Y-41778400D02*
X170720000Y-38748400D01*
X170720000Y-38748400D02*
X170720000Y-35070500D01*
X170720000Y-35070500D02*
X170680000Y-35030500D01*
%TO.N,Board_2-/A9*%
X176290000Y-43751300D02*
X171269000Y-38730300D01*
X171269000Y-38730300D02*
X171269000Y-35119500D01*
X176290000Y-49670000D02*
X176290000Y-43751300D01*
X171269000Y-35119500D02*
X171180000Y-35030500D01*
%TO.N,Board_3-/A1*%
X198750000Y-49590000D02*
X210009000Y-38331000D01*
X210009000Y-38331000D02*
X210009000Y-35108942D01*
X198750000Y-49670000D02*
X198750000Y-49590000D01*
%TO.N,Board_3-/A10*%
X214500000Y-35070500D02*
X214460000Y-35030500D01*
X221610000Y-49670000D02*
X221610000Y-45724200D01*
X214500000Y-38614200D02*
X214500000Y-35070500D01*
X221610000Y-45724200D02*
X214500000Y-38614200D01*
%TO.N,Board_3-/A11*%
X215000000Y-38547100D02*
X215000000Y-35070500D01*
X224150000Y-47697100D02*
X215000000Y-38547100D01*
X215000000Y-35070500D02*
X214960000Y-35030500D01*
X224150000Y-49670000D02*
X224150000Y-47697100D01*
%TO.N,Board_3-/A12*%
X215460000Y-38440000D02*
X215460000Y-36010000D01*
X226690000Y-49670000D02*
X215460000Y-38440000D01*
X215460000Y-36010000D02*
X215460000Y-35030500D01*
X215460000Y-36010000D02*
X215460000Y-35879000D01*
X215460000Y-35879000D02*
X215451000Y-35870000D01*
%TO.N,Board_3-/A2*%
X201290000Y-49670000D02*
X201290000Y-47697100D01*
X201290000Y-47697100D02*
X210460000Y-38527100D01*
X210460000Y-38527100D02*
X210460000Y-35030500D01*
%TO.N,Board_3-/A3*%
X203830000Y-49670000D02*
X203830000Y-45724200D01*
X203830000Y-45724200D02*
X210957500Y-38596700D01*
X210957500Y-38596700D02*
X210957500Y-35030500D01*
%TO.N,Board_3-/A4*%
X206370000Y-49670000D02*
X206370000Y-43751300D01*
X206370000Y-43751300D02*
X211451000Y-38670300D01*
X211451000Y-38670300D02*
X211451000Y-35041000D01*
X211451000Y-35041000D02*
X211461500Y-35030500D01*
%TO.N,Board_3-/A5*%
X208910000Y-41778400D02*
X212000000Y-38688400D01*
X212000000Y-38688400D02*
X212000000Y-35070500D01*
X208910000Y-49670000D02*
X208910000Y-41778400D01*
X212000000Y-35070500D02*
X211960000Y-35030500D01*
%TO.N,Board_3-/A6*%
X211450000Y-49670000D02*
X211450000Y-39805500D01*
X211450000Y-39805500D02*
X212500000Y-38755500D01*
X212500000Y-38755500D02*
X212500000Y-35070500D01*
X212500000Y-35070500D02*
X212460000Y-35030500D01*
%TO.N,Board_3-/A7*%
X213990000Y-39805500D02*
X213000000Y-38815500D01*
X213000000Y-38815500D02*
X213000000Y-35070500D01*
X213000000Y-35070500D02*
X212960000Y-35030500D01*
X213990000Y-49670000D02*
X213990000Y-39805500D01*
%TO.N,Board_3-/A8*%
X216530000Y-41778400D02*
X213500000Y-38748400D01*
X216530000Y-49670000D02*
X216530000Y-41778400D01*
X213500000Y-35070500D02*
X213460000Y-35030500D01*
X213500000Y-38748400D02*
X213500000Y-35070500D01*
%TO.N,Board_3-/A9*%
X214049000Y-35119500D02*
X213960000Y-35030500D01*
X214049000Y-38730300D02*
X214049000Y-35119500D01*
X219070000Y-43751300D02*
X214049000Y-38730300D01*
X219070000Y-49670000D02*
X219070000Y-43751300D01*
%TO.N,Board_4-/A1*%
X70410000Y-91560000D02*
X81669000Y-80301000D01*
X81669000Y-80301000D02*
X81669000Y-77078942D01*
X70410000Y-91640000D02*
X70410000Y-91560000D01*
%TO.N,Board_4-/A10*%
X93270000Y-91640000D02*
X93270000Y-87694200D01*
X93270000Y-87694200D02*
X86160000Y-80584200D01*
X86160000Y-80584200D02*
X86160000Y-77040500D01*
X86160000Y-77040500D02*
X86120000Y-77000500D01*
%TO.N,Board_4-/A11*%
X86660000Y-80517100D02*
X86660000Y-77040500D01*
X86660000Y-77040500D02*
X86620000Y-77000500D01*
X95810000Y-91640000D02*
X95810000Y-89667100D01*
X95810000Y-89667100D02*
X86660000Y-80517100D01*
%TO.N,Board_4-/A12*%
X87120000Y-77849000D02*
X87111000Y-77840000D01*
X87120000Y-80410000D02*
X87120000Y-77980000D01*
X98350000Y-91640000D02*
X87120000Y-80410000D01*
X87120000Y-77980000D02*
X87120000Y-77000500D01*
X87120000Y-77980000D02*
X87120000Y-77849000D01*
%TO.N,Board_4-/A2*%
X72950000Y-89667100D02*
X82120000Y-80497100D01*
X72950000Y-91640000D02*
X72950000Y-89667100D01*
X82120000Y-80497100D02*
X82120000Y-77000500D01*
%TO.N,Board_4-/A3*%
X75490000Y-87694200D02*
X82617500Y-80566700D01*
X82617500Y-80566700D02*
X82617500Y-77000500D01*
X75490000Y-91640000D02*
X75490000Y-87694200D01*
%TO.N,Board_4-/A4*%
X78030000Y-85721300D02*
X83111000Y-80640300D01*
X83111000Y-77011000D02*
X83121500Y-77000500D01*
X78030000Y-91640000D02*
X78030000Y-85721300D01*
X83111000Y-80640300D02*
X83111000Y-77011000D01*
%TO.N,Board_4-/A5*%
X83660000Y-80658400D02*
X83660000Y-77040500D01*
X83660000Y-77040500D02*
X83620000Y-77000500D01*
X80570000Y-91640000D02*
X80570000Y-83748400D01*
X80570000Y-83748400D02*
X83660000Y-80658400D01*
%TO.N,Board_4-/A6*%
X84160000Y-80725500D02*
X84160000Y-77040500D01*
X84160000Y-77040500D02*
X84120000Y-77000500D01*
X83110000Y-91640000D02*
X83110000Y-81775500D01*
X83110000Y-81775500D02*
X84160000Y-80725500D01*
%TO.N,Board_4-/A7*%
X84660000Y-77040500D02*
X84620000Y-77000500D01*
X85650000Y-91640000D02*
X85650000Y-81775500D01*
X85650000Y-81775500D02*
X84660000Y-80785500D01*
X84660000Y-80785500D02*
X84660000Y-77040500D01*
%TO.N,Board_4-/A8*%
X88190000Y-83748400D02*
X85160000Y-80718400D01*
X85160000Y-80718400D02*
X85160000Y-77040500D01*
X88190000Y-91640000D02*
X88190000Y-83748400D01*
X85160000Y-77040500D02*
X85120000Y-77000500D01*
%TO.N,Board_4-/A9*%
X85709000Y-80700300D02*
X85709000Y-77089500D01*
X85709000Y-77089500D02*
X85620000Y-77000500D01*
X90730000Y-85721300D02*
X85709000Y-80700300D01*
X90730000Y-91640000D02*
X90730000Y-85721300D01*
%TO.N,Board_5-/A1*%
X113190000Y-91560000D02*
X124449000Y-80301000D01*
X113190000Y-91640000D02*
X113190000Y-91560000D01*
X124449000Y-80301000D02*
X124449000Y-77078942D01*
%TO.N,Board_5-/A10*%
X128940000Y-77040500D02*
X128900000Y-77000500D01*
X128940000Y-80584200D02*
X128940000Y-77040500D01*
X136050000Y-91640000D02*
X136050000Y-87694200D01*
X136050000Y-87694200D02*
X128940000Y-80584200D01*
%TO.N,Board_5-/A11*%
X138590000Y-91640000D02*
X138590000Y-89667100D01*
X129440000Y-80517100D02*
X129440000Y-77040500D01*
X138590000Y-89667100D02*
X129440000Y-80517100D01*
X129440000Y-77040500D02*
X129400000Y-77000500D01*
%TO.N,Board_5-/A12*%
X129900000Y-77980000D02*
X129900000Y-77000500D01*
X141130000Y-91640000D02*
X129900000Y-80410000D01*
X129900000Y-80410000D02*
X129900000Y-77980000D01*
X129900000Y-77849000D02*
X129891000Y-77840000D01*
X129900000Y-77980000D02*
X129900000Y-77849000D01*
%TO.N,Board_5-/A2*%
X115730000Y-91640000D02*
X115730000Y-89667100D01*
X115730000Y-89667100D02*
X124900000Y-80497100D01*
X124900000Y-80497100D02*
X124900000Y-77000500D01*
%TO.N,Board_5-/A3*%
X125397500Y-80566700D02*
X125397500Y-77000500D01*
X118270000Y-87694200D02*
X125397500Y-80566700D01*
X118270000Y-91640000D02*
X118270000Y-87694200D01*
%TO.N,Board_5-/A4*%
X120810000Y-85721300D02*
X125891000Y-80640300D01*
X120810000Y-91640000D02*
X120810000Y-85721300D01*
X125891000Y-77011000D02*
X125901500Y-77000500D01*
X125891000Y-80640300D02*
X125891000Y-77011000D01*
%TO.N,Board_5-/A5*%
X123350000Y-91640000D02*
X123350000Y-83748400D01*
X126440000Y-77040500D02*
X126400000Y-77000500D01*
X123350000Y-83748400D02*
X126440000Y-80658400D01*
X126440000Y-80658400D02*
X126440000Y-77040500D01*
%TO.N,Board_5-/A6*%
X125890000Y-81775500D02*
X126940000Y-80725500D01*
X126940000Y-80725500D02*
X126940000Y-77040500D01*
X125890000Y-91640000D02*
X125890000Y-81775500D01*
X126940000Y-77040500D02*
X126900000Y-77000500D01*
%TO.N,Board_5-/A7*%
X127440000Y-80785500D02*
X127440000Y-77040500D01*
X128430000Y-81775500D02*
X127440000Y-80785500D01*
X128430000Y-91640000D02*
X128430000Y-81775500D01*
X127440000Y-77040500D02*
X127400000Y-77000500D01*
%TO.N,Board_5-/A8*%
X127940000Y-80718400D02*
X127940000Y-77040500D01*
X130970000Y-91640000D02*
X130970000Y-83748400D01*
X127940000Y-77040500D02*
X127900000Y-77000500D01*
X130970000Y-83748400D02*
X127940000Y-80718400D01*
%TO.N,Board_5-/A9*%
X133510000Y-85721300D02*
X128489000Y-80700300D01*
X128489000Y-80700300D02*
X128489000Y-77089500D01*
X133510000Y-91640000D02*
X133510000Y-85721300D01*
X128489000Y-77089500D02*
X128400000Y-77000500D01*
%TO.N,Board_6-/A1*%
X155970000Y-91560000D02*
X167229000Y-80301000D01*
X167229000Y-80301000D02*
X167229000Y-77078942D01*
X155970000Y-91640000D02*
X155970000Y-91560000D01*
%TO.N,Board_6-/A10*%
X178830000Y-87694200D02*
X171720000Y-80584200D01*
X171720000Y-77040500D02*
X171680000Y-77000500D01*
X178830000Y-91640000D02*
X178830000Y-87694200D01*
X171720000Y-80584200D02*
X171720000Y-77040500D01*
%TO.N,Board_6-/A11*%
X172220000Y-80517100D02*
X172220000Y-77040500D01*
X181370000Y-91640000D02*
X181370000Y-89667100D01*
X172220000Y-77040500D02*
X172180000Y-77000500D01*
X181370000Y-89667100D02*
X172220000Y-80517100D01*
%TO.N,Board_6-/A12*%
X172680000Y-77849000D02*
X172671000Y-77840000D01*
X183910000Y-91640000D02*
X172680000Y-80410000D01*
X172680000Y-77980000D02*
X172680000Y-77000500D01*
X172680000Y-77980000D02*
X172680000Y-77849000D01*
X172680000Y-80410000D02*
X172680000Y-77980000D01*
%TO.N,Board_6-/A2*%
X167680000Y-80497100D02*
X167680000Y-77000500D01*
X158510000Y-91640000D02*
X158510000Y-89667100D01*
X158510000Y-89667100D02*
X167680000Y-80497100D01*
%TO.N,Board_6-/A3*%
X168177500Y-80566700D02*
X168177500Y-77000500D01*
X161050000Y-91640000D02*
X161050000Y-87694200D01*
X161050000Y-87694200D02*
X168177500Y-80566700D01*
%TO.N,Board_6-/A4*%
X163590000Y-85721300D02*
X168671000Y-80640300D01*
X168671000Y-77011000D02*
X168681500Y-77000500D01*
X163590000Y-91640000D02*
X163590000Y-85721300D01*
X168671000Y-80640300D02*
X168671000Y-77011000D01*
%TO.N,Board_6-/A5*%
X166130000Y-83748400D02*
X169220000Y-80658400D01*
X169220000Y-77040500D02*
X169180000Y-77000500D01*
X166130000Y-91640000D02*
X166130000Y-83748400D01*
X169220000Y-80658400D02*
X169220000Y-77040500D01*
%TO.N,Board_6-/A6*%
X169720000Y-80725500D02*
X169720000Y-77040500D01*
X169720000Y-77040500D02*
X169680000Y-77000500D01*
X168670000Y-91640000D02*
X168670000Y-81775500D01*
X168670000Y-81775500D02*
X169720000Y-80725500D01*
%TO.N,Board_6-/A7*%
X170220000Y-80785500D02*
X170220000Y-77040500D01*
X171210000Y-81775500D02*
X170220000Y-80785500D01*
X170220000Y-77040500D02*
X170180000Y-77000500D01*
X171210000Y-91640000D02*
X171210000Y-81775500D01*
%TO.N,Board_6-/A8*%
X170720000Y-80718400D02*
X170720000Y-77040500D01*
X173750000Y-91640000D02*
X173750000Y-83748400D01*
X170720000Y-77040500D02*
X170680000Y-77000500D01*
X173750000Y-83748400D02*
X170720000Y-80718400D01*
%TO.N,Board_6-/A9*%
X171269000Y-80700300D02*
X171269000Y-77089500D01*
X176290000Y-91640000D02*
X176290000Y-85721300D01*
X176290000Y-85721300D02*
X171269000Y-80700300D01*
X171269000Y-77089500D02*
X171180000Y-77000500D01*
%TO.N,Board_7-/A1*%
X210009000Y-80301000D02*
X210009000Y-77078942D01*
X198750000Y-91640000D02*
X198750000Y-91560000D01*
X198750000Y-91560000D02*
X210009000Y-80301000D01*
%TO.N,Board_7-/A10*%
X214500000Y-77040500D02*
X214460000Y-77000500D01*
X214500000Y-80584200D02*
X214500000Y-77040500D01*
X221610000Y-91640000D02*
X221610000Y-87694200D01*
X221610000Y-87694200D02*
X214500000Y-80584200D01*
%TO.N,Board_7-/A11*%
X224150000Y-89667100D02*
X215000000Y-80517100D01*
X224150000Y-91640000D02*
X224150000Y-89667100D01*
X215000000Y-77040500D02*
X214960000Y-77000500D01*
X215000000Y-80517100D02*
X215000000Y-77040500D01*
%TO.N,Board_7-/A12*%
X215460000Y-80410000D02*
X215460000Y-77980000D01*
X215460000Y-77980000D02*
X215460000Y-77000500D01*
X215460000Y-77849000D02*
X215451000Y-77840000D01*
X215460000Y-77980000D02*
X215460000Y-77849000D01*
X226690000Y-91640000D02*
X215460000Y-80410000D01*
%TO.N,Board_7-/A2*%
X201290000Y-91640000D02*
X201290000Y-89667100D01*
X210460000Y-80497100D02*
X210460000Y-77000500D01*
X201290000Y-89667100D02*
X210460000Y-80497100D01*
%TO.N,Board_7-/A3*%
X203830000Y-87694200D02*
X210957500Y-80566700D01*
X203830000Y-91640000D02*
X203830000Y-87694200D01*
X210957500Y-80566700D02*
X210957500Y-77000500D01*
%TO.N,Board_7-/A4*%
X211451000Y-80640300D02*
X211451000Y-77011000D01*
X211451000Y-77011000D02*
X211461500Y-77000500D01*
X206370000Y-85721300D02*
X211451000Y-80640300D01*
X206370000Y-91640000D02*
X206370000Y-85721300D01*
%TO.N,Board_7-/A5*%
X212000000Y-77040500D02*
X211960000Y-77000500D01*
X212000000Y-80658400D02*
X212000000Y-77040500D01*
X208910000Y-83748400D02*
X212000000Y-80658400D01*
X208910000Y-91640000D02*
X208910000Y-83748400D01*
%TO.N,Board_7-/A6*%
X212500000Y-80725500D02*
X212500000Y-77040500D01*
X211450000Y-81775500D02*
X212500000Y-80725500D01*
X212500000Y-77040500D02*
X212460000Y-77000500D01*
X211450000Y-91640000D02*
X211450000Y-81775500D01*
%TO.N,Board_7-/A7*%
X213990000Y-91640000D02*
X213990000Y-81775500D01*
X213990000Y-81775500D02*
X213000000Y-80785500D01*
X213000000Y-80785500D02*
X213000000Y-77040500D01*
X213000000Y-77040500D02*
X212960000Y-77000500D01*
%TO.N,Board_7-/A8*%
X216530000Y-91640000D02*
X216530000Y-83748400D01*
X213500000Y-77040500D02*
X213460000Y-77000500D01*
X216530000Y-83748400D02*
X213500000Y-80718400D01*
X213500000Y-80718400D02*
X213500000Y-77040500D01*
%TO.N,Board_7-/A9*%
X219070000Y-91640000D02*
X219070000Y-85721300D01*
X214049000Y-77089500D02*
X213960000Y-77000500D01*
X214049000Y-80700300D02*
X214049000Y-77089500D01*
X219070000Y-85721300D02*
X214049000Y-80700300D01*
%TO.N,Board_8-/A1*%
X70410000Y-133610000D02*
X70410000Y-133530000D01*
X70410000Y-133530000D02*
X81669000Y-122271000D01*
X81669000Y-122271000D02*
X81669000Y-119048942D01*
%TO.N,Board_8-/A10*%
X93270000Y-129664200D02*
X86160000Y-122554200D01*
X86160000Y-119010500D02*
X86120000Y-118970500D01*
X86160000Y-122554200D02*
X86160000Y-119010500D01*
X93270000Y-133610000D02*
X93270000Y-129664200D01*
%TO.N,Board_8-/A11*%
X95810000Y-131637100D02*
X86660000Y-122487100D01*
X86660000Y-122487100D02*
X86660000Y-119010500D01*
X86660000Y-119010500D02*
X86620000Y-118970500D01*
X95810000Y-133610000D02*
X95810000Y-131637100D01*
%TO.N,Board_8-/A12*%
X98350000Y-133610000D02*
X87120000Y-122380000D01*
X87120000Y-119950000D02*
X87120000Y-119819000D01*
X87120000Y-122380000D02*
X87120000Y-119950000D01*
X87120000Y-119950000D02*
X87120000Y-118970500D01*
X87120000Y-119819000D02*
X87111000Y-119810000D01*
%TO.N,Board_8-/A2*%
X72950000Y-131637100D02*
X82120000Y-122467100D01*
X82120000Y-122467100D02*
X82120000Y-118970500D01*
X72950000Y-133610000D02*
X72950000Y-131637100D01*
%TO.N,Board_8-/A3*%
X75490000Y-129664200D02*
X82617500Y-122536700D01*
X75490000Y-133610000D02*
X75490000Y-129664200D01*
X82617500Y-122536700D02*
X82617500Y-118970500D01*
%TO.N,Board_8-/A4*%
X78030000Y-127691300D02*
X83111000Y-122610300D01*
X78030000Y-133610000D02*
X78030000Y-127691300D01*
X83111000Y-122610300D02*
X83111000Y-118981000D01*
X83111000Y-118981000D02*
X83121500Y-118970500D01*
%TO.N,Board_8-/A5*%
X83660000Y-119010500D02*
X83620000Y-118970500D01*
X80570000Y-125718400D02*
X83660000Y-122628400D01*
X80570000Y-133610000D02*
X80570000Y-125718400D01*
X83660000Y-122628400D02*
X83660000Y-119010500D01*
%TO.N,Board_8-/A6*%
X83110000Y-123745500D02*
X84160000Y-122695500D01*
X83110000Y-133610000D02*
X83110000Y-123745500D01*
X84160000Y-122695500D02*
X84160000Y-119010500D01*
X84160000Y-119010500D02*
X84120000Y-118970500D01*
%TO.N,Board_8-/A7*%
X84660000Y-122755500D02*
X84660000Y-119010500D01*
X85650000Y-123745500D02*
X84660000Y-122755500D01*
X85650000Y-133610000D02*
X85650000Y-123745500D01*
X84660000Y-119010500D02*
X84620000Y-118970500D01*
%TO.N,Board_8-/A8*%
X88190000Y-125718400D02*
X85160000Y-122688400D01*
X85160000Y-122688400D02*
X85160000Y-119010500D01*
X88190000Y-133610000D02*
X88190000Y-125718400D01*
X85160000Y-119010500D02*
X85120000Y-118970500D01*
%TO.N,Board_8-/A9*%
X85709000Y-122670300D02*
X85709000Y-119059500D01*
X90730000Y-133610000D02*
X90730000Y-127691300D01*
X90730000Y-127691300D02*
X85709000Y-122670300D01*
X85709000Y-119059500D02*
X85620000Y-118970500D01*
%TO.N,Board_9-/A1*%
X124449000Y-122271000D02*
X124449000Y-119048942D01*
X113190000Y-133530000D02*
X124449000Y-122271000D01*
X113190000Y-133610000D02*
X113190000Y-133530000D01*
%TO.N,Board_9-/A10*%
X136050000Y-129664200D02*
X128940000Y-122554200D01*
X128940000Y-119010500D02*
X128900000Y-118970500D01*
X128940000Y-122554200D02*
X128940000Y-119010500D01*
X136050000Y-133610000D02*
X136050000Y-129664200D01*
%TO.N,Board_9-/A11*%
X129440000Y-122487100D02*
X129440000Y-119010500D01*
X138590000Y-133610000D02*
X138590000Y-131637100D01*
X129440000Y-119010500D02*
X129400000Y-118970500D01*
X138590000Y-131637100D02*
X129440000Y-122487100D01*
%TO.N,Board_9-/A12*%
X129900000Y-122380000D02*
X129900000Y-119950000D01*
X129900000Y-119950000D02*
X129900000Y-119819000D01*
X129900000Y-119950000D02*
X129900000Y-118970500D01*
X129900000Y-119819000D02*
X129891000Y-119810000D01*
X141130000Y-133610000D02*
X129900000Y-122380000D01*
%TO.N,Board_9-/A2*%
X124900000Y-122467100D02*
X124900000Y-118970500D01*
X115730000Y-133610000D02*
X115730000Y-131637100D01*
X115730000Y-131637100D02*
X124900000Y-122467100D01*
%TO.N,Board_9-/A3*%
X125397500Y-122536700D02*
X125397500Y-118970500D01*
X118270000Y-129664200D02*
X125397500Y-122536700D01*
X118270000Y-133610000D02*
X118270000Y-129664200D01*
%TO.N,Board_9-/A4*%
X125891000Y-118981000D02*
X125901500Y-118970500D01*
X125891000Y-122610300D02*
X125891000Y-118981000D01*
X120810000Y-133610000D02*
X120810000Y-127691300D01*
X120810000Y-127691300D02*
X125891000Y-122610300D01*
%TO.N,Board_9-/A5*%
X123350000Y-125718400D02*
X126440000Y-122628400D01*
X126440000Y-122628400D02*
X126440000Y-119010500D01*
X126440000Y-119010500D02*
X126400000Y-118970500D01*
X123350000Y-133610000D02*
X123350000Y-125718400D01*
%TO.N,Board_9-/A6*%
X125890000Y-123745500D02*
X126940000Y-122695500D01*
X126940000Y-119010500D02*
X126900000Y-118970500D01*
X126940000Y-122695500D02*
X126940000Y-119010500D01*
X125890000Y-133610000D02*
X125890000Y-123745500D01*
%TO.N,Board_9-/A7*%
X127440000Y-122755500D02*
X127440000Y-119010500D01*
X127440000Y-119010500D02*
X127400000Y-118970500D01*
X128430000Y-133610000D02*
X128430000Y-123745500D01*
X128430000Y-123745500D02*
X127440000Y-122755500D01*
%TO.N,Board_9-/A8*%
X130970000Y-133610000D02*
X130970000Y-125718400D01*
X130970000Y-125718400D02*
X127940000Y-122688400D01*
X127940000Y-122688400D02*
X127940000Y-119010500D01*
X127940000Y-119010500D02*
X127900000Y-118970500D01*
%TO.N,Board_9-/A9*%
X133510000Y-133610000D02*
X133510000Y-127691300D01*
X133510000Y-127691300D02*
X128489000Y-122670300D01*
X128489000Y-122670300D02*
X128489000Y-119059500D01*
X128489000Y-119059500D02*
X128400000Y-118970500D01*
%TO.N,Board_10-/A1*%
X155970000Y-133610000D02*
X155970000Y-133530000D01*
X155970000Y-133530000D02*
X167229000Y-122271000D01*
X167229000Y-122271000D02*
X167229000Y-119048942D01*
%TO.N,Board_10-/A10*%
X178830000Y-133610000D02*
X178830000Y-129664200D01*
X171720000Y-119010500D02*
X171680000Y-118970500D01*
X178830000Y-129664200D02*
X171720000Y-122554200D01*
X171720000Y-122554200D02*
X171720000Y-119010500D01*
%TO.N,Board_10-/A11*%
X181370000Y-131637100D02*
X172220000Y-122487100D01*
X172220000Y-119010500D02*
X172180000Y-118970500D01*
X181370000Y-133610000D02*
X181370000Y-131637100D01*
X172220000Y-122487100D02*
X172220000Y-119010500D01*
%TO.N,Board_10-/A12*%
X172680000Y-119950000D02*
X172680000Y-118970500D01*
X172680000Y-119950000D02*
X172680000Y-119819000D01*
X172680000Y-119819000D02*
X172671000Y-119810000D01*
X172680000Y-122380000D02*
X172680000Y-119950000D01*
X183910000Y-133610000D02*
X172680000Y-122380000D01*
%TO.N,Board_10-/A2*%
X167680000Y-122467100D02*
X167680000Y-118970500D01*
X158510000Y-131637100D02*
X167680000Y-122467100D01*
X158510000Y-133610000D02*
X158510000Y-131637100D01*
%TO.N,Board_10-/A3*%
X168177500Y-122536700D02*
X168177500Y-118970500D01*
X161050000Y-133610000D02*
X161050000Y-129664200D01*
X161050000Y-129664200D02*
X168177500Y-122536700D01*
%TO.N,Board_10-/A4*%
X168671000Y-122610300D02*
X168671000Y-118981000D01*
X168671000Y-118981000D02*
X168681500Y-118970500D01*
X163590000Y-127691300D02*
X168671000Y-122610300D01*
X163590000Y-133610000D02*
X163590000Y-127691300D01*
%TO.N,Board_10-/A5*%
X166130000Y-133610000D02*
X166130000Y-125718400D01*
X166130000Y-125718400D02*
X169220000Y-122628400D01*
X169220000Y-119010500D02*
X169180000Y-118970500D01*
X169220000Y-122628400D02*
X169220000Y-119010500D01*
%TO.N,Board_10-/A6*%
X168670000Y-133610000D02*
X168670000Y-123745500D01*
X168670000Y-123745500D02*
X169720000Y-122695500D01*
X169720000Y-119010500D02*
X169680000Y-118970500D01*
X169720000Y-122695500D02*
X169720000Y-119010500D01*
%TO.N,Board_10-/A7*%
X170220000Y-122755500D02*
X170220000Y-119010500D01*
X171210000Y-123745500D02*
X170220000Y-122755500D01*
X171210000Y-133610000D02*
X171210000Y-123745500D01*
X170220000Y-119010500D02*
X170180000Y-118970500D01*
%TO.N,Board_10-/A8*%
X173750000Y-125718400D02*
X170720000Y-122688400D01*
X173750000Y-133610000D02*
X173750000Y-125718400D01*
X170720000Y-119010500D02*
X170680000Y-118970500D01*
X170720000Y-122688400D02*
X170720000Y-119010500D01*
%TO.N,Board_10-/A9*%
X171269000Y-122670300D02*
X171269000Y-119059500D01*
X176290000Y-133610000D02*
X176290000Y-127691300D01*
X176290000Y-127691300D02*
X171269000Y-122670300D01*
X171269000Y-119059500D02*
X171180000Y-118970500D01*
%TO.N,Board_11-/A1*%
X198750000Y-133530000D02*
X210009000Y-122271000D01*
X210009000Y-122271000D02*
X210009000Y-119048942D01*
X198750000Y-133610000D02*
X198750000Y-133530000D01*
%TO.N,Board_11-/A10*%
X221610000Y-129664200D02*
X214500000Y-122554200D01*
X214500000Y-119010500D02*
X214460000Y-118970500D01*
X221610000Y-133610000D02*
X221610000Y-129664200D01*
X214500000Y-122554200D02*
X214500000Y-119010500D01*
%TO.N,Board_11-/A11*%
X224150000Y-131637100D02*
X215000000Y-122487100D01*
X224150000Y-133610000D02*
X224150000Y-131637100D01*
X215000000Y-119010500D02*
X214960000Y-118970500D01*
X215000000Y-122487100D02*
X215000000Y-119010500D01*
%TO.N,Board_11-/A12*%
X215460000Y-119950000D02*
X215460000Y-118970500D01*
X215460000Y-119819000D02*
X215451000Y-119810000D01*
X215460000Y-122380000D02*
X215460000Y-119950000D01*
X226690000Y-133610000D02*
X215460000Y-122380000D01*
X215460000Y-119950000D02*
X215460000Y-119819000D01*
%TO.N,Board_11-/A2*%
X210460000Y-122467100D02*
X210460000Y-118970500D01*
X201290000Y-131637100D02*
X210460000Y-122467100D01*
X201290000Y-133610000D02*
X201290000Y-131637100D01*
%TO.N,Board_11-/A3*%
X210957500Y-122536700D02*
X210957500Y-118970500D01*
X203830000Y-133610000D02*
X203830000Y-129664200D01*
X203830000Y-129664200D02*
X210957500Y-122536700D01*
%TO.N,Board_11-/A4*%
X206370000Y-127691300D02*
X211451000Y-122610300D01*
X211451000Y-118981000D02*
X211461500Y-118970500D01*
X206370000Y-133610000D02*
X206370000Y-127691300D01*
X211451000Y-122610300D02*
X211451000Y-118981000D01*
%TO.N,Board_11-/A5*%
X208910000Y-133610000D02*
X208910000Y-125718400D01*
X212000000Y-119010500D02*
X211960000Y-118970500D01*
X208910000Y-125718400D02*
X212000000Y-122628400D01*
X212000000Y-122628400D02*
X212000000Y-119010500D01*
%TO.N,Board_11-/A6*%
X211450000Y-133610000D02*
X211450000Y-123745500D01*
X212500000Y-122695500D02*
X212500000Y-119010500D01*
X212500000Y-119010500D02*
X212460000Y-118970500D01*
X211450000Y-123745500D02*
X212500000Y-122695500D01*
%TO.N,Board_11-/A7*%
X213990000Y-123745500D02*
X213000000Y-122755500D01*
X213000000Y-119010500D02*
X212960000Y-118970500D01*
X213000000Y-122755500D02*
X213000000Y-119010500D01*
X213990000Y-133610000D02*
X213990000Y-123745500D01*
%TO.N,Board_11-/A8*%
X213500000Y-122688400D02*
X213500000Y-119010500D01*
X213500000Y-119010500D02*
X213460000Y-118970500D01*
X216530000Y-125718400D02*
X213500000Y-122688400D01*
X216530000Y-133610000D02*
X216530000Y-125718400D01*
%TO.N,Board_11-/A9*%
X214049000Y-119059500D02*
X213960000Y-118970500D01*
X219070000Y-133610000D02*
X219070000Y-127691300D01*
X219070000Y-127691300D02*
X214049000Y-122670300D01*
X214049000Y-122670300D02*
X214049000Y-119059500D01*
%TO.N,Board_12-/A1*%
X70410000Y-175580000D02*
X70410000Y-175500000D01*
X81669000Y-164241000D02*
X81669000Y-161018942D01*
X70410000Y-175500000D02*
X81669000Y-164241000D01*
%TO.N,Board_12-/A10*%
X86160000Y-164524200D02*
X86160000Y-160980500D01*
X86160000Y-160980500D02*
X86120000Y-160940500D01*
X93270000Y-175580000D02*
X93270000Y-171634200D01*
X93270000Y-171634200D02*
X86160000Y-164524200D01*
%TO.N,Board_12-/A11*%
X95810000Y-173607100D02*
X86660000Y-164457100D01*
X86660000Y-160980500D02*
X86620000Y-160940500D01*
X86660000Y-164457100D02*
X86660000Y-160980500D01*
X95810000Y-175580000D02*
X95810000Y-173607100D01*
%TO.N,Board_12-/A12*%
X87120000Y-161789000D02*
X87111000Y-161780000D01*
X87120000Y-161920000D02*
X87120000Y-160940500D01*
X87120000Y-164350000D02*
X87120000Y-161920000D01*
X98350000Y-175580000D02*
X87120000Y-164350000D01*
X87120000Y-161920000D02*
X87120000Y-161789000D01*
%TO.N,Board_12-/A2*%
X72950000Y-173607100D02*
X82120000Y-164437100D01*
X72950000Y-175580000D02*
X72950000Y-173607100D01*
X82120000Y-164437100D02*
X82120000Y-160940500D01*
%TO.N,Board_12-/A3*%
X82617500Y-164506700D02*
X82617500Y-160940500D01*
X75490000Y-171634200D02*
X82617500Y-164506700D01*
X75490000Y-175580000D02*
X75490000Y-171634200D01*
%TO.N,Board_12-/A4*%
X78030000Y-175580000D02*
X78030000Y-169661300D01*
X83111000Y-164580300D02*
X83111000Y-160951000D01*
X78030000Y-169661300D02*
X83111000Y-164580300D01*
X83111000Y-160951000D02*
X83121500Y-160940500D01*
%TO.N,Board_12-/A5*%
X83660000Y-160980500D02*
X83620000Y-160940500D01*
X80570000Y-175580000D02*
X80570000Y-167688400D01*
X80570000Y-167688400D02*
X83660000Y-164598400D01*
X83660000Y-164598400D02*
X83660000Y-160980500D01*
%TO.N,Board_12-/A6*%
X84160000Y-160980500D02*
X84120000Y-160940500D01*
X83110000Y-175580000D02*
X83110000Y-165715500D01*
X84160000Y-164665500D02*
X84160000Y-160980500D01*
X83110000Y-165715500D02*
X84160000Y-164665500D01*
%TO.N,Board_12-/A7*%
X84660000Y-160980500D02*
X84620000Y-160940500D01*
X85650000Y-165715500D02*
X84660000Y-164725500D01*
X85650000Y-175580000D02*
X85650000Y-165715500D01*
X84660000Y-164725500D02*
X84660000Y-160980500D01*
%TO.N,Board_12-/A8*%
X88190000Y-167688400D02*
X85160000Y-164658400D01*
X88190000Y-175580000D02*
X88190000Y-167688400D01*
X85160000Y-160980500D02*
X85120000Y-160940500D01*
X85160000Y-164658400D02*
X85160000Y-160980500D01*
%TO.N,Board_12-/A9*%
X85709000Y-161029500D02*
X85620000Y-160940500D01*
X85709000Y-164640300D02*
X85709000Y-161029500D01*
X90730000Y-175580000D02*
X90730000Y-169661300D01*
X90730000Y-169661300D02*
X85709000Y-164640300D01*
%TO.N,Board_13-/A1*%
X113190000Y-175500000D02*
X124449000Y-164241000D01*
X124449000Y-164241000D02*
X124449000Y-161018942D01*
X113190000Y-175580000D02*
X113190000Y-175500000D01*
%TO.N,Board_13-/A10*%
X136050000Y-175580000D02*
X136050000Y-171634200D01*
X128940000Y-160980500D02*
X128900000Y-160940500D01*
X136050000Y-171634200D02*
X128940000Y-164524200D01*
X128940000Y-164524200D02*
X128940000Y-160980500D01*
%TO.N,Board_13-/A11*%
X129440000Y-160980500D02*
X129400000Y-160940500D01*
X129440000Y-164457100D02*
X129440000Y-160980500D01*
X138590000Y-175580000D02*
X138590000Y-173607100D01*
X138590000Y-173607100D02*
X129440000Y-164457100D01*
%TO.N,Board_13-/A12*%
X129900000Y-164350000D02*
X129900000Y-161920000D01*
X141130000Y-175580000D02*
X129900000Y-164350000D01*
X129900000Y-161920000D02*
X129900000Y-161789000D01*
X129900000Y-161789000D02*
X129891000Y-161780000D01*
X129900000Y-161920000D02*
X129900000Y-160940500D01*
%TO.N,Board_13-/A2*%
X115730000Y-173607100D02*
X124900000Y-164437100D01*
X115730000Y-175580000D02*
X115730000Y-173607100D01*
X124900000Y-164437100D02*
X124900000Y-160940500D01*
%TO.N,Board_13-/A3*%
X125397500Y-164506700D02*
X125397500Y-160940500D01*
X118270000Y-171634200D02*
X125397500Y-164506700D01*
X118270000Y-175580000D02*
X118270000Y-171634200D01*
%TO.N,Board_13-/A4*%
X125891000Y-164580300D02*
X125891000Y-160951000D01*
X125891000Y-160951000D02*
X125901500Y-160940500D01*
X120810000Y-175580000D02*
X120810000Y-169661300D01*
X120810000Y-169661300D02*
X125891000Y-164580300D01*
%TO.N,Board_13-/A5*%
X123350000Y-175580000D02*
X123350000Y-167688400D01*
X126440000Y-164598400D02*
X126440000Y-160980500D01*
X123350000Y-167688400D02*
X126440000Y-164598400D01*
X126440000Y-160980500D02*
X126400000Y-160940500D01*
%TO.N,Board_13-/A6*%
X125890000Y-175580000D02*
X125890000Y-165715500D01*
X126940000Y-164665500D02*
X126940000Y-160980500D01*
X126940000Y-160980500D02*
X126900000Y-160940500D01*
X125890000Y-165715500D02*
X126940000Y-164665500D01*
%TO.N,Board_13-/A7*%
X128430000Y-165715500D02*
X127440000Y-164725500D01*
X127440000Y-160980500D02*
X127400000Y-160940500D01*
X128430000Y-175580000D02*
X128430000Y-165715500D01*
X127440000Y-164725500D02*
X127440000Y-160980500D01*
%TO.N,Board_13-/A8*%
X130970000Y-167688400D02*
X127940000Y-164658400D01*
X130970000Y-175580000D02*
X130970000Y-167688400D01*
X127940000Y-160980500D02*
X127900000Y-160940500D01*
X127940000Y-164658400D02*
X127940000Y-160980500D01*
%TO.N,Board_13-/A9*%
X133510000Y-169661300D02*
X128489000Y-164640300D01*
X133510000Y-175580000D02*
X133510000Y-169661300D01*
X128489000Y-161029500D02*
X128400000Y-160940500D01*
X128489000Y-164640300D02*
X128489000Y-161029500D01*
%TO.N,Board_14-/A1*%
X155970000Y-175580000D02*
X155970000Y-175500000D01*
X167229000Y-164241000D02*
X167229000Y-161018942D01*
X155970000Y-175500000D02*
X167229000Y-164241000D01*
%TO.N,Board_14-/A10*%
X171720000Y-160980500D02*
X171680000Y-160940500D01*
X171720000Y-164524200D02*
X171720000Y-160980500D01*
X178830000Y-175580000D02*
X178830000Y-171634200D01*
X178830000Y-171634200D02*
X171720000Y-164524200D01*
%TO.N,Board_14-/A11*%
X172220000Y-160980500D02*
X172180000Y-160940500D01*
X181370000Y-175580000D02*
X181370000Y-173607100D01*
X172220000Y-164457100D02*
X172220000Y-160980500D01*
X181370000Y-173607100D02*
X172220000Y-164457100D01*
%TO.N,Board_14-/A12*%
X172680000Y-161789000D02*
X172671000Y-161780000D01*
X183910000Y-175580000D02*
X172680000Y-164350000D01*
X172680000Y-164350000D02*
X172680000Y-161920000D01*
X172680000Y-161920000D02*
X172680000Y-160940500D01*
X172680000Y-161920000D02*
X172680000Y-161789000D01*
%TO.N,Board_14-/A2*%
X158510000Y-173607100D02*
X167680000Y-164437100D01*
X158510000Y-175580000D02*
X158510000Y-173607100D01*
X167680000Y-164437100D02*
X167680000Y-160940500D01*
%TO.N,Board_14-/A3*%
X161050000Y-175580000D02*
X161050000Y-171634200D01*
X161050000Y-171634200D02*
X168177500Y-164506700D01*
X168177500Y-164506700D02*
X168177500Y-160940500D01*
%TO.N,Board_14-/A4*%
X163590000Y-175580000D02*
X163590000Y-169661300D01*
X168671000Y-164580300D02*
X168671000Y-160951000D01*
X168671000Y-160951000D02*
X168681500Y-160940500D01*
X163590000Y-169661300D02*
X168671000Y-164580300D01*
%TO.N,Board_14-/A5*%
X166130000Y-167688400D02*
X169220000Y-164598400D01*
X166130000Y-175580000D02*
X166130000Y-167688400D01*
X169220000Y-164598400D02*
X169220000Y-160980500D01*
X169220000Y-160980500D02*
X169180000Y-160940500D01*
%TO.N,Board_14-/A6*%
X169720000Y-160980500D02*
X169680000Y-160940500D01*
X169720000Y-164665500D02*
X169720000Y-160980500D01*
X168670000Y-165715500D02*
X169720000Y-164665500D01*
X168670000Y-175580000D02*
X168670000Y-165715500D01*
%TO.N,Board_14-/A7*%
X171210000Y-175580000D02*
X171210000Y-165715500D01*
X170220000Y-160980500D02*
X170180000Y-160940500D01*
X171210000Y-165715500D02*
X170220000Y-164725500D01*
X170220000Y-164725500D02*
X170220000Y-160980500D01*
%TO.N,Board_14-/A8*%
X170720000Y-160980500D02*
X170680000Y-160940500D01*
X173750000Y-167688400D02*
X170720000Y-164658400D01*
X173750000Y-175580000D02*
X173750000Y-167688400D01*
X170720000Y-164658400D02*
X170720000Y-160980500D01*
%TO.N,Board_14-/A9*%
X171269000Y-164640300D02*
X171269000Y-161029500D01*
X176290000Y-175580000D02*
X176290000Y-169661300D01*
X171269000Y-161029500D02*
X171180000Y-160940500D01*
X176290000Y-169661300D02*
X171269000Y-164640300D01*
%TO.N,Board_15-/A1*%
X198750000Y-175580000D02*
X198750000Y-175500000D01*
X210009000Y-164241000D02*
X210009000Y-161018942D01*
X198750000Y-175500000D02*
X210009000Y-164241000D01*
%TO.N,Board_15-/A10*%
X214500000Y-164524200D02*
X214500000Y-160980500D01*
X221610000Y-175580000D02*
X221610000Y-171634200D01*
X221610000Y-171634200D02*
X214500000Y-164524200D01*
X214500000Y-160980500D02*
X214460000Y-160940500D01*
%TO.N,Board_15-/A11*%
X224150000Y-175580000D02*
X224150000Y-173607100D01*
X215000000Y-164457100D02*
X215000000Y-160980500D01*
X224150000Y-173607100D02*
X215000000Y-164457100D01*
X215000000Y-160980500D02*
X214960000Y-160940500D01*
%TO.N,Board_15-/A12*%
X215460000Y-161789000D02*
X215451000Y-161780000D01*
X226690000Y-175580000D02*
X215460000Y-164350000D01*
X215460000Y-161920000D02*
X215460000Y-160940500D01*
X215460000Y-164350000D02*
X215460000Y-161920000D01*
X215460000Y-161920000D02*
X215460000Y-161789000D01*
%TO.N,Board_15-/A2*%
X201290000Y-173607100D02*
X210460000Y-164437100D01*
X210460000Y-164437100D02*
X210460000Y-160940500D01*
X201290000Y-175580000D02*
X201290000Y-173607100D01*
%TO.N,Board_15-/A3*%
X203830000Y-175580000D02*
X203830000Y-171634200D01*
X210957500Y-164506700D02*
X210957500Y-160940500D01*
X203830000Y-171634200D02*
X210957500Y-164506700D01*
%TO.N,Board_15-/A4*%
X211451000Y-164580300D02*
X211451000Y-160951000D01*
X211451000Y-160951000D02*
X211461500Y-160940500D01*
X206370000Y-169661300D02*
X211451000Y-164580300D01*
X206370000Y-175580000D02*
X206370000Y-169661300D01*
%TO.N,Board_15-/A5*%
X208910000Y-175580000D02*
X208910000Y-167688400D01*
X212000000Y-160980500D02*
X211960000Y-160940500D01*
X212000000Y-164598400D02*
X212000000Y-160980500D01*
X208910000Y-167688400D02*
X212000000Y-164598400D01*
%TO.N,Board_15-/A6*%
X211450000Y-175580000D02*
X211450000Y-165715500D01*
X212500000Y-164665500D02*
X212500000Y-160980500D01*
X212500000Y-160980500D02*
X212460000Y-160940500D01*
X211450000Y-165715500D02*
X212500000Y-164665500D01*
%TO.N,Board_15-/A7*%
X213000000Y-164725500D02*
X213000000Y-160980500D01*
X213990000Y-165715500D02*
X213000000Y-164725500D01*
X213990000Y-175580000D02*
X213990000Y-165715500D01*
X213000000Y-160980500D02*
X212960000Y-160940500D01*
%TO.N,Board_15-/A8*%
X216530000Y-175580000D02*
X216530000Y-167688400D01*
X213500000Y-160980500D02*
X213460000Y-160940500D01*
X216530000Y-167688400D02*
X213500000Y-164658400D01*
X213500000Y-164658400D02*
X213500000Y-160980500D01*
%TO.N,Board_15-/A9*%
X214049000Y-161029500D02*
X213960000Y-160940500D01*
X219070000Y-175580000D02*
X219070000Y-169661300D01*
X219070000Y-169661300D02*
X214049000Y-164640300D01*
X214049000Y-164640300D02*
X214049000Y-161029500D01*
%TD*%
M02*
