M48
; DRILL file {KiCad 9.0.3} date 2026-04-13T10:36:52+0530
; FORMAT={-:-/ absolute / metric / decimal}
; #@! TF.CreationDate,2026-04-13T10:36:52+05:30
; #@! TF.GenerationSoftware,Kicad,Pcbnew,9.0.3
; #@! TF.FileFunction,Plated,1,2,PTH
FMAT,2
METRIC
; #@! TA.AperFunction,Plated,PTH,ComponentDrill
T1C1.000
%
G90
G05
T1
X70.39Y-49.66
X70.39Y-52.2
X70.39Y-91.63
X70.39Y-94.17
X70.39Y-133.6
X70.39Y-136.14
X70.39Y-175.57
X70.39Y-178.11
X72.93Y-49.66
X72.93Y-52.2
X72.93Y-91.63
X72.93Y-94.17
X72.93Y-133.6
X72.93Y-136.14
X72.93Y-175.57
X72.93Y-178.11
X75.47Y-49.66
X75.47Y-52.2
X75.47Y-91.63
X75.47Y-94.17
X75.47Y-133.6
X75.47Y-136.14
X75.47Y-175.57
X75.47Y-178.11
X78.01Y-49.66
X78.01Y-52.2
X78.01Y-91.63
X78.01Y-94.17
X78.01Y-133.6
X78.01Y-136.14
X78.01Y-175.57
X78.01Y-178.11
X80.55Y-49.66
X80.55Y-52.2
X80.55Y-91.63
X80.55Y-94.17
X80.55Y-133.6
X80.55Y-136.14
X80.55Y-175.57
X80.55Y-178.11
X83.09Y-49.66
X83.09Y-52.2
X83.09Y-91.63
X83.09Y-94.17
X83.09Y-133.6
X83.09Y-136.14
X83.09Y-175.57
X83.09Y-178.11
X85.63Y-49.66
X85.63Y-52.2
X85.63Y-91.63
X85.63Y-94.17
X85.63Y-133.6
X85.63Y-136.14
X85.63Y-175.57
X85.63Y-178.11
X88.17Y-49.66
X88.17Y-52.2
X88.17Y-91.63
X88.17Y-94.17
X88.17Y-133.6
X88.17Y-136.14
X88.17Y-175.57
X88.17Y-178.11
X90.71Y-49.66
X90.71Y-52.2
X90.71Y-91.63
X90.71Y-94.17
X90.71Y-133.6
X90.71Y-136.14
X90.71Y-175.57
X90.71Y-178.11
X93.25Y-49.66
X93.25Y-52.2
X93.25Y-91.63
X93.25Y-94.17
X93.25Y-133.6
X93.25Y-136.14
X93.25Y-175.57
X93.25Y-178.11
X95.77Y-49.66
X95.77Y-91.63
X95.77Y-133.6
X95.77Y-175.57
X95.79Y-52.2
X95.79Y-94.17
X95.79Y-136.14
X95.79Y-178.11
X98.33Y-49.66
X98.33Y-52.2
X98.33Y-91.63
X98.33Y-94.17
X98.33Y-133.6
X98.33Y-136.14
X98.33Y-175.57
X98.33Y-178.11
X113.17Y-49.66
X113.17Y-52.2
X113.17Y-91.63
X113.17Y-94.17
X113.17Y-133.6
X113.17Y-136.14
X113.17Y-175.57
X113.17Y-178.11
X115.71Y-49.66
X115.71Y-52.2
X115.71Y-91.63
X115.71Y-94.17
X115.71Y-133.6
X115.71Y-136.14
X115.71Y-175.57
X115.71Y-178.11
X118.25Y-49.66
X118.25Y-52.2
X118.25Y-91.63
X118.25Y-94.17
X118.25Y-133.6
X118.25Y-136.14
X118.25Y-175.57
X118.25Y-178.11
X120.79Y-49.66
X120.79Y-52.2
X120.79Y-91.63
X120.79Y-94.17
X120.79Y-133.6
X120.79Y-136.14
X120.79Y-175.57
X120.79Y-178.11
X123.33Y-49.66
X123.33Y-52.2
X123.33Y-91.63
X123.33Y-94.17
X123.33Y-133.6
X123.33Y-136.14
X123.33Y-175.57
X123.33Y-178.11
X125.87Y-49.66
X125.87Y-52.2
X125.87Y-91.63
X125.87Y-94.17
X125.87Y-133.6
X125.87Y-136.14
X125.87Y-175.57
X125.87Y-178.11
X128.41Y-49.66
X128.41Y-52.2
X128.41Y-91.63
X128.41Y-94.17
X128.41Y-133.6
X128.41Y-136.14
X128.41Y-175.57
X128.41Y-178.11
X130.95Y-49.66
X130.95Y-52.2
X130.95Y-91.63
X130.95Y-94.17
X130.95Y-133.6
X130.95Y-136.14
X130.95Y-175.57
X130.95Y-178.11
X133.49Y-49.66
X133.49Y-52.2
X133.49Y-91.63
X133.49Y-94.17
X133.49Y-133.6
X133.49Y-136.14
X133.49Y-175.57
X133.49Y-178.11
X136.03Y-49.66
X136.03Y-52.2
X136.03Y-91.63
X136.03Y-94.17
X136.03Y-133.6
X136.03Y-136.14
X136.03Y-175.57
X136.03Y-178.11
X138.55Y-49.66
X138.55Y-91.63
X138.55Y-133.6
X138.55Y-175.57
X138.57Y-52.2
X138.57Y-94.17
X138.57Y-136.14
X138.57Y-178.11
X141.11Y-49.66
X141.11Y-52.2
X141.11Y-91.63
X141.11Y-94.17
X141.11Y-133.6
X141.11Y-136.14
X141.11Y-175.57
X141.11Y-178.11
X155.95Y-49.66
X155.95Y-52.2
X155.95Y-91.63
X155.95Y-94.17
X155.95Y-133.6
X155.95Y-136.14
X155.95Y-175.57
X155.95Y-178.11
X158.49Y-49.66
X158.49Y-52.2
X158.49Y-91.63
X158.49Y-94.17
X158.49Y-133.6
X158.49Y-136.14
X158.49Y-175.57
X158.49Y-178.11
X161.03Y-49.66
X161.03Y-52.2
X161.03Y-91.63
X161.03Y-94.17
X161.03Y-133.6
X161.03Y-136.14
X161.03Y-175.57
X161.03Y-178.11
X163.57Y-49.66
X163.57Y-52.2
X163.57Y-91.63
X163.57Y-94.17
X163.57Y-133.6
X163.57Y-136.14
X163.57Y-175.57
X163.57Y-178.11
X166.11Y-49.66
X166.11Y-52.2
X166.11Y-91.63
X166.11Y-94.17
X166.11Y-133.6
X166.11Y-136.14
X166.11Y-175.57
X166.11Y-178.11
X168.65Y-49.66
X168.65Y-52.2
X168.65Y-91.63
X168.65Y-94.17
X168.65Y-133.6
X168.65Y-136.14
X168.65Y-175.57
X168.65Y-178.11
X171.19Y-49.66
X171.19Y-52.2
X171.19Y-91.63
X171.19Y-94.17
X171.19Y-133.6
X171.19Y-136.14
X171.19Y-175.57
X171.19Y-178.11
X173.73Y-49.66
X173.73Y-52.2
X173.73Y-91.63
X173.73Y-94.17
X173.73Y-133.6
X173.73Y-136.14
X173.73Y-175.57
X173.73Y-178.11
X176.27Y-49.66
X176.27Y-52.2
X176.27Y-91.63
X176.27Y-94.17
X176.27Y-133.6
X176.27Y-136.14
X176.27Y-175.57
X176.27Y-178.11
X178.81Y-49.66
X178.81Y-52.2
X178.81Y-91.63
X178.81Y-94.17
X178.81Y-133.6
X178.81Y-136.14
X178.81Y-175.57
X178.81Y-178.11
X181.33Y-49.66
X181.33Y-91.63
X181.33Y-133.6
X181.33Y-175.57
X181.35Y-52.2
X181.35Y-94.17
X181.35Y-136.14
X181.35Y-178.11
X183.89Y-49.66
X183.89Y-52.2
X183.89Y-91.63
X183.89Y-94.17
X183.89Y-133.6
X183.89Y-136.14
X183.89Y-175.57
X183.89Y-178.11
X198.73Y-49.66
X198.73Y-52.2
X198.73Y-91.63
X198.73Y-94.17
X198.73Y-133.6
X198.73Y-136.14
X198.73Y-175.57
X198.73Y-178.11
X201.27Y-49.66
X201.27Y-52.2
X201.27Y-91.63
X201.27Y-94.17
X201.27Y-133.6
X201.27Y-136.14
X201.27Y-175.57
X201.27Y-178.11
X203.81Y-49.66
X203.81Y-52.2
X203.81Y-91.63
X203.81Y-94.17
X203.81Y-133.6
X203.81Y-136.14
X203.81Y-175.57
X203.81Y-178.11
X206.35Y-49.66
X206.35Y-52.2
X206.35Y-91.63
X206.35Y-94.17
X206.35Y-133.6
X206.35Y-136.14
X206.35Y-175.57
X206.35Y-178.11
X208.89Y-49.66
X208.89Y-52.2
X208.89Y-91.63
X208.89Y-94.17
X208.89Y-133.6
X208.89Y-136.14
X208.89Y-175.57
X208.89Y-178.11
X211.43Y-49.66
X211.43Y-52.2
X211.43Y-91.63
X211.43Y-94.17
X211.43Y-133.6
X211.43Y-136.14
X211.43Y-175.57
X211.43Y-178.11
X213.97Y-49.66
X213.97Y-52.2
X213.97Y-91.63
X213.97Y-94.17
X213.97Y-133.6
X213.97Y-136.14
X213.97Y-175.57
X213.97Y-178.11
X216.51Y-49.66
X216.51Y-52.2
X216.51Y-91.63
X216.51Y-94.17
X216.51Y-133.6
X216.51Y-136.14
X216.51Y-175.57
X216.51Y-178.11
X219.05Y-49.66
X219.05Y-52.2
X219.05Y-91.63
X219.05Y-94.17
X219.05Y-133.6
X219.05Y-136.14
X219.05Y-175.57
X219.05Y-178.11
X221.59Y-49.66
X221.59Y-52.2
X221.59Y-91.63
X221.59Y-94.17
X221.59Y-133.6
X221.59Y-136.14
X221.59Y-175.57
X221.59Y-178.11
X224.11Y-49.66
X224.11Y-91.63
X224.11Y-133.6
X224.11Y-175.57
X224.13Y-52.2
X224.13Y-94.17
X224.13Y-136.14
X224.13Y-178.11
X226.67Y-49.66
X226.67Y-52.2
X226.67Y-91.63
X226.67Y-94.17
X226.67Y-133.6
X226.67Y-136.14
X226.67Y-175.57
X226.67Y-178.11
M30
