%TF.GenerationSoftware,KiCad,Pcbnew,9.0.3*%
%TF.CreationDate,2026-04-13T10:36:32+05:30*%
%TF.ProjectId,USBC_FEMALE,55534243-5f46-4454-9d41-4c452e6b6963,rev?*%
%TF.SameCoordinates,Original*%
%TF.FileFunction,Copper,L2,Bot*%
%TF.FilePolarity,Positive*%
%FSLAX46Y46*%
G04 Gerber Fmt 4.6, Leading zero omitted, Abs format (unit mm)*
G04 Created by KiCad (PCBNEW 9.0.3) date 2026-04-13 10:36:32*
%MOMM*%
%LPD*%
G01*
G04 APERTURE LIST*
G04 Aperture macros list*
%AMOutline4P*
0 Free polygon, 4 corners , with rotation*
0 The origin of the aperture is its center*
0 number of corners: always 4*
0 $1 to $8 corner X, Y*
0 $9 Rotation angle, in degrees counterclockwise*
0 create outline with 4 corners*
4,1,4,$1,$2,$3,$4,$5,$6,$7,$8,$1,$2,$9*%
%AMOutline5P*
0 Free polygon, 5 corners , with rotation*
0 The origin of the aperture is its center*
0 number of corners: always 5*
0 $1 to $10 corner X, Y*
0 $11 Rotation angle, in degrees counterclockwise*
0 create outline with 5 corners*
4,1,5,$1,$2,$3,$4,$5,$6,$7,$8,$9,$10,$1,$2,$11*%
%AMOutline6P*
0 Free polygon, 6 corners , with rotation*
0 The origin of the aperture is its center*
0 number of corners: always 6*
0 $1 to $12 corner X, Y*
0 $13 Rotation angle, in degrees counterclockwise*
0 create outline with 6 corners*
4,1,6,$1,$2,$3,$4,$5,$6,$7,$8,$9,$10,$11,$12,$1,$2,$13*%
%AMOutline7P*
0 Free polygon, 7 corners , with rotation*
0 The origin of the aperture is its center*
0 number of corners: always 7*
0 $1 to $14 corner X, Y*
0 $15 Rotation angle, in degrees counterclockwise*
0 create outline with 7 corners*
4,1,7,$1,$2,$3,$4,$5,$6,$7,$8,$9,$10,$11,$12,$13,$14,$1,$2,$15*%
%AMOutline8P*
0 Free polygon, 8 corners , with rotation*
0 The origin of the aperture is its center*
0 number of corners: always 8*
0 $1 to $16 corner X, Y*
0 $17 Rotation angle, in degrees counterclockwise*
0 create outline with 8 corners*
4,1,8,$1,$2,$3,$4,$5,$6,$7,$8,$9,$10,$11,$12,$13,$14,$15,$16,$1,$2,$17*%
G04 Aperture macros list end*
%TA.AperFunction,SMDPad,CuDef*%
%ADD10R,0.300000X1.691000*%
%TD*%
%TA.AperFunction,SMDPad,CuDef*%
%ADD11R,0.305000X1.691000*%
%TD*%
%TA.AperFunction,SMDPad,CuDef*%
%ADD12R,0.313000X1.691000*%
%TD*%
%TA.AperFunction,SMDPad,CuDef*%
%ADD13R,0.800000X1.900000*%
%TD*%
%TA.AperFunction,ComponentPad*%
%ADD14Outline5P,-0.827500X1.047500X0.827500X1.047500X0.827500X-1.047500X-0.496500X-1.047500X-0.827500X-0.716500X180.000000*%
%TD*%
%TA.AperFunction,ComponentPad*%
%ADD15Outline4P,-0.792500X-1.042500X0.792500X-1.042500X0.792500X1.042500X-0.792500X1.042500X180.000000*%
%TD*%
%TA.AperFunction,ComponentPad*%
%ADD16R,1.670000X2.095000*%
%TD*%
%TA.AperFunction,ComponentPad*%
%ADD17R,1.645000X2.085000*%
%TD*%
%TA.AperFunction,ComponentPad*%
%ADD18R,1.655000X2.105000*%
%TD*%
%TA.AperFunction,ComponentPad*%
%ADD19R,1.625000X2.075000*%
%TD*%
%TA.AperFunction,ComponentPad*%
%ADD20R,1.675000X2.105000*%
%TD*%
%TA.AperFunction,ComponentPad*%
%ADD21R,1.615000X2.085000*%
%TD*%
%TA.AperFunction,ComponentPad*%
%ADD22R,1.665000X2.075000*%
%TD*%
%TA.AperFunction,ComponentPad*%
%ADD23R,1.665000X2.095000*%
%TD*%
%TA.AperFunction,ComponentPad*%
%ADD24R,1.695000X2.085000*%
%TD*%
%TA.AperFunction,ComponentPad*%
%ADD25R,1.675000X2.095000*%
%TD*%
%TA.AperFunction,ComponentPad*%
%ADD26R,1.655000X2.085000*%
%TD*%
%TA.AperFunction,ComponentPad*%
%ADD27R,1.685000X2.095000*%
%TD*%
%TA.AperFunction,ComponentPad*%
%ADD28R,1.635000X2.085000*%
%TD*%
%TA.AperFunction,ComponentPad*%
%ADD29R,1.685000X2.085000*%
%TD*%
%TA.AperFunction,ComponentPad*%
%ADD30R,1.685000X2.065000*%
%TD*%
%TA.AperFunction,SMDPad,CuDef*%
%ADD31C,1.000000*%
%TD*%
%TA.AperFunction,Conductor*%
%ADD32C,0.200000*%
%TD*%
G04 APERTURE END LIST*
D10*
%TO.P,J1,B1,GNDB*%
%TO.N,Board_13-/B1*%
X129900000Y-160940500D03*
%TO.P,J1,B2,TX2_P*%
%TO.N,Board_13-/B2*%
X129400000Y-160940500D03*
%TO.P,J1,B3,TX2_N*%
%TO.N,Board_13-/B3*%
X128900000Y-160940500D03*
%TO.P,J1,B4,VBUS_B*%
%TO.N,Board_13-/B4*%
X128400000Y-160940500D03*
%TO.P,J1,B5,CC2*%
%TO.N,Board_13-/B5*%
X127900000Y-160940500D03*
%TO.P,J1,B6,DB_P*%
%TO.N,Board_13-/B6*%
X127400000Y-160940500D03*
%TO.P,J1,B7,DB_N*%
%TO.N,Board_13-/B7*%
X126900000Y-160940500D03*
%TO.P,J1,B8,SBU2*%
%TO.N,Board_13-/B8*%
X126400000Y-160940500D03*
%TO.P,J1,B9,VBUS_B*%
%TO.N,Board_13-/B9*%
X125900000Y-160940500D03*
D11*
%TO.P,J1,B10,RX1_N*%
%TO.N,Board_13-/B10*%
X125397500Y-160940500D03*
D12*
%TO.P,J1,B11,RX1_P*%
%TO.N,Board_13-/B11*%
X124893500Y-160940500D03*
D10*
%TO.P,J1,B12,GNDB*%
%TO.N,Board_13-/B12*%
X124400000Y-160940500D03*
D13*
%TO.P,J1,S3*%
%TO.N,N/C*%
X122908418Y-161625779D03*
%TO.P,J1,S4*%
X131383557Y-161625779D03*
%TD*%
D10*
%TO.P,J1,B1,GNDB*%
%TO.N,Board_11-/B1*%
X215460000Y-118970500D03*
%TO.P,J1,B2,TX2_P*%
%TO.N,Board_11-/B2*%
X214960000Y-118970500D03*
%TO.P,J1,B3,TX2_N*%
%TO.N,Board_11-/B3*%
X214460000Y-118970500D03*
%TO.P,J1,B4,VBUS_B*%
%TO.N,Board_11-/B4*%
X213960000Y-118970500D03*
%TO.P,J1,B5,CC2*%
%TO.N,Board_11-/B5*%
X213460000Y-118970500D03*
%TO.P,J1,B6,DB_P*%
%TO.N,Board_11-/B6*%
X212960000Y-118970500D03*
%TO.P,J1,B7,DB_N*%
%TO.N,Board_11-/B7*%
X212460000Y-118970500D03*
%TO.P,J1,B8,SBU2*%
%TO.N,Board_11-/B8*%
X211960000Y-118970500D03*
%TO.P,J1,B9,VBUS_B*%
%TO.N,Board_11-/B9*%
X211460000Y-118970500D03*
D11*
%TO.P,J1,B10,RX1_N*%
%TO.N,Board_11-/B10*%
X210957500Y-118970500D03*
D12*
%TO.P,J1,B11,RX1_P*%
%TO.N,Board_11-/B11*%
X210453500Y-118970500D03*
D10*
%TO.P,J1,B12,GNDB*%
%TO.N,Board_11-/B12*%
X209960000Y-118970500D03*
D13*
%TO.P,J1,S3*%
%TO.N,N/C*%
X208468418Y-119655779D03*
%TO.P,J1,S4*%
X216943557Y-119655779D03*
%TD*%
D10*
%TO.P,J1,B1,GNDB*%
%TO.N,Board_0-/B1*%
X87120000Y-35030500D03*
%TO.P,J1,B2,TX2_P*%
%TO.N,Board_0-/B2*%
X86620000Y-35030500D03*
%TO.P,J1,B3,TX2_N*%
%TO.N,Board_0-/B3*%
X86120000Y-35030500D03*
%TO.P,J1,B4,VBUS_B*%
%TO.N,Board_0-/B4*%
X85620000Y-35030500D03*
%TO.P,J1,B5,CC2*%
%TO.N,Board_0-/B5*%
X85120000Y-35030500D03*
%TO.P,J1,B6,DB_P*%
%TO.N,Board_0-/B6*%
X84620000Y-35030500D03*
%TO.P,J1,B7,DB_N*%
%TO.N,Board_0-/B7*%
X84120000Y-35030500D03*
%TO.P,J1,B8,SBU2*%
%TO.N,Board_0-/B8*%
X83620000Y-35030500D03*
%TO.P,J1,B9,VBUS_B*%
%TO.N,Board_0-/B9*%
X83120000Y-35030500D03*
D11*
%TO.P,J1,B10,RX1_N*%
%TO.N,Board_0-/B10*%
X82617500Y-35030500D03*
D12*
%TO.P,J1,B11,RX1_P*%
%TO.N,Board_0-/B11*%
X82113500Y-35030500D03*
D10*
%TO.P,J1,B12,GNDB*%
%TO.N,Board_0-/B12*%
X81620000Y-35030500D03*
D13*
%TO.P,J1,S3*%
%TO.N,N/C*%
X80128418Y-35715779D03*
%TO.P,J1,S4*%
X88603557Y-35715779D03*
%TD*%
D10*
%TO.P,J1,B1,GNDB*%
%TO.N,Board_15-/B1*%
X215460000Y-160940500D03*
%TO.P,J1,B2,TX2_P*%
%TO.N,Board_15-/B2*%
X214960000Y-160940500D03*
%TO.P,J1,B3,TX2_N*%
%TO.N,Board_15-/B3*%
X214460000Y-160940500D03*
%TO.P,J1,B4,VBUS_B*%
%TO.N,Board_15-/B4*%
X213960000Y-160940500D03*
%TO.P,J1,B5,CC2*%
%TO.N,Board_15-/B5*%
X213460000Y-160940500D03*
%TO.P,J1,B6,DB_P*%
%TO.N,Board_15-/B6*%
X212960000Y-160940500D03*
%TO.P,J1,B7,DB_N*%
%TO.N,Board_15-/B7*%
X212460000Y-160940500D03*
%TO.P,J1,B8,SBU2*%
%TO.N,Board_15-/B8*%
X211960000Y-160940500D03*
%TO.P,J1,B9,VBUS_B*%
%TO.N,Board_15-/B9*%
X211460000Y-160940500D03*
D11*
%TO.P,J1,B10,RX1_N*%
%TO.N,Board_15-/B10*%
X210957500Y-160940500D03*
D12*
%TO.P,J1,B11,RX1_P*%
%TO.N,Board_15-/B11*%
X210453500Y-160940500D03*
D10*
%TO.P,J1,B12,GNDB*%
%TO.N,Board_15-/B12*%
X209960000Y-160940500D03*
D13*
%TO.P,J1,S3*%
%TO.N,N/C*%
X208468418Y-161625779D03*
%TO.P,J1,S4*%
X216943557Y-161625779D03*
%TD*%
D10*
%TO.P,J1,B1,GNDB*%
%TO.N,Board_4-/B1*%
X87120000Y-77000500D03*
%TO.P,J1,B2,TX2_P*%
%TO.N,Board_4-/B2*%
X86620000Y-77000500D03*
%TO.P,J1,B3,TX2_N*%
%TO.N,Board_4-/B3*%
X86120000Y-77000500D03*
%TO.P,J1,B4,VBUS_B*%
%TO.N,Board_4-/B4*%
X85620000Y-77000500D03*
%TO.P,J1,B5,CC2*%
%TO.N,Board_4-/B5*%
X85120000Y-77000500D03*
%TO.P,J1,B6,DB_P*%
%TO.N,Board_4-/B6*%
X84620000Y-77000500D03*
%TO.P,J1,B7,DB_N*%
%TO.N,Board_4-/B7*%
X84120000Y-77000500D03*
%TO.P,J1,B8,SBU2*%
%TO.N,Board_4-/B8*%
X83620000Y-77000500D03*
%TO.P,J1,B9,VBUS_B*%
%TO.N,Board_4-/B9*%
X83120000Y-77000500D03*
D11*
%TO.P,J1,B10,RX1_N*%
%TO.N,Board_4-/B10*%
X82617500Y-77000500D03*
D12*
%TO.P,J1,B11,RX1_P*%
%TO.N,Board_4-/B11*%
X82113500Y-77000500D03*
D10*
%TO.P,J1,B12,GNDB*%
%TO.N,Board_4-/B12*%
X81620000Y-77000500D03*
D13*
%TO.P,J1,S3*%
%TO.N,N/C*%
X80128418Y-77685779D03*
%TO.P,J1,S4*%
X88603557Y-77685779D03*
%TD*%
D10*
%TO.P,J1,B1,GNDB*%
%TO.N,Board_10-/B1*%
X172680000Y-118970500D03*
%TO.P,J1,B2,TX2_P*%
%TO.N,Board_10-/B2*%
X172180000Y-118970500D03*
%TO.P,J1,B3,TX2_N*%
%TO.N,Board_10-/B3*%
X171680000Y-118970500D03*
%TO.P,J1,B4,VBUS_B*%
%TO.N,Board_10-/B4*%
X171180000Y-118970500D03*
%TO.P,J1,B5,CC2*%
%TO.N,Board_10-/B5*%
X170680000Y-118970500D03*
%TO.P,J1,B6,DB_P*%
%TO.N,Board_10-/B6*%
X170180000Y-118970500D03*
%TO.P,J1,B7,DB_N*%
%TO.N,Board_10-/B7*%
X169680000Y-118970500D03*
%TO.P,J1,B8,SBU2*%
%TO.N,Board_10-/B8*%
X169180000Y-118970500D03*
%TO.P,J1,B9,VBUS_B*%
%TO.N,Board_10-/B9*%
X168680000Y-118970500D03*
D11*
%TO.P,J1,B10,RX1_N*%
%TO.N,Board_10-/B10*%
X168177500Y-118970500D03*
D12*
%TO.P,J1,B11,RX1_P*%
%TO.N,Board_10-/B11*%
X167673500Y-118970500D03*
D10*
%TO.P,J1,B12,GNDB*%
%TO.N,Board_10-/B12*%
X167180000Y-118970500D03*
D13*
%TO.P,J1,S3*%
%TO.N,N/C*%
X165688418Y-119655779D03*
%TO.P,J1,S4*%
X174163557Y-119655779D03*
%TD*%
D10*
%TO.P,J1,B1,GNDB*%
%TO.N,Board_3-/B1*%
X215460000Y-35030500D03*
%TO.P,J1,B2,TX2_P*%
%TO.N,Board_3-/B2*%
X214960000Y-35030500D03*
%TO.P,J1,B3,TX2_N*%
%TO.N,Board_3-/B3*%
X214460000Y-35030500D03*
%TO.P,J1,B4,VBUS_B*%
%TO.N,Board_3-/B4*%
X213960000Y-35030500D03*
%TO.P,J1,B5,CC2*%
%TO.N,Board_3-/B5*%
X213460000Y-35030500D03*
%TO.P,J1,B6,DB_P*%
%TO.N,Board_3-/B6*%
X212960000Y-35030500D03*
%TO.P,J1,B7,DB_N*%
%TO.N,Board_3-/B7*%
X212460000Y-35030500D03*
%TO.P,J1,B8,SBU2*%
%TO.N,Board_3-/B8*%
X211960000Y-35030500D03*
%TO.P,J1,B9,VBUS_B*%
%TO.N,Board_3-/B9*%
X211460000Y-35030500D03*
D11*
%TO.P,J1,B10,RX1_N*%
%TO.N,Board_3-/B10*%
X210957500Y-35030500D03*
D12*
%TO.P,J1,B11,RX1_P*%
%TO.N,Board_3-/B11*%
X210453500Y-35030500D03*
D10*
%TO.P,J1,B12,GNDB*%
%TO.N,Board_3-/B12*%
X209960000Y-35030500D03*
D13*
%TO.P,J1,S3*%
%TO.N,N/C*%
X208468418Y-35715779D03*
%TO.P,J1,S4*%
X216943557Y-35715779D03*
%TD*%
D10*
%TO.P,J1,B1,GNDB*%
%TO.N,Board_5-/B1*%
X129900000Y-77000500D03*
%TO.P,J1,B2,TX2_P*%
%TO.N,Board_5-/B2*%
X129400000Y-77000500D03*
%TO.P,J1,B3,TX2_N*%
%TO.N,Board_5-/B3*%
X128900000Y-77000500D03*
%TO.P,J1,B4,VBUS_B*%
%TO.N,Board_5-/B4*%
X128400000Y-77000500D03*
%TO.P,J1,B5,CC2*%
%TO.N,Board_5-/B5*%
X127900000Y-77000500D03*
%TO.P,J1,B6,DB_P*%
%TO.N,Board_5-/B6*%
X127400000Y-77000500D03*
%TO.P,J1,B7,DB_N*%
%TO.N,Board_5-/B7*%
X126900000Y-77000500D03*
%TO.P,J1,B8,SBU2*%
%TO.N,Board_5-/B8*%
X126400000Y-77000500D03*
%TO.P,J1,B9,VBUS_B*%
%TO.N,Board_5-/B9*%
X125900000Y-77000500D03*
D11*
%TO.P,J1,B10,RX1_N*%
%TO.N,Board_5-/B10*%
X125397500Y-77000500D03*
D12*
%TO.P,J1,B11,RX1_P*%
%TO.N,Board_5-/B11*%
X124893500Y-77000500D03*
D10*
%TO.P,J1,B12,GNDB*%
%TO.N,Board_5-/B12*%
X124400000Y-77000500D03*
D13*
%TO.P,J1,S3*%
%TO.N,N/C*%
X122908418Y-77685779D03*
%TO.P,J1,S4*%
X131383557Y-77685779D03*
%TD*%
D10*
%TO.P,J1,B1,GNDB*%
%TO.N,Board_7-/B1*%
X215460000Y-77000500D03*
%TO.P,J1,B2,TX2_P*%
%TO.N,Board_7-/B2*%
X214960000Y-77000500D03*
%TO.P,J1,B3,TX2_N*%
%TO.N,Board_7-/B3*%
X214460000Y-77000500D03*
%TO.P,J1,B4,VBUS_B*%
%TO.N,Board_7-/B4*%
X213960000Y-77000500D03*
%TO.P,J1,B5,CC2*%
%TO.N,Board_7-/B5*%
X213460000Y-77000500D03*
%TO.P,J1,B6,DB_P*%
%TO.N,Board_7-/B6*%
X212960000Y-77000500D03*
%TO.P,J1,B7,DB_N*%
%TO.N,Board_7-/B7*%
X212460000Y-77000500D03*
%TO.P,J1,B8,SBU2*%
%TO.N,Board_7-/B8*%
X211960000Y-77000500D03*
%TO.P,J1,B9,VBUS_B*%
%TO.N,Board_7-/B9*%
X211460000Y-77000500D03*
D11*
%TO.P,J1,B10,RX1_N*%
%TO.N,Board_7-/B10*%
X210957500Y-77000500D03*
D12*
%TO.P,J1,B11,RX1_P*%
%TO.N,Board_7-/B11*%
X210453500Y-77000500D03*
D10*
%TO.P,J1,B12,GNDB*%
%TO.N,Board_7-/B12*%
X209960000Y-77000500D03*
D13*
%TO.P,J1,S3*%
%TO.N,N/C*%
X208468418Y-77685779D03*
%TO.P,J1,S4*%
X216943557Y-77685779D03*
%TD*%
D10*
%TO.P,J1,B1,GNDB*%
%TO.N,Board_8-/B1*%
X87120000Y-118970500D03*
%TO.P,J1,B2,TX2_P*%
%TO.N,Board_8-/B2*%
X86620000Y-118970500D03*
%TO.P,J1,B3,TX2_N*%
%TO.N,Board_8-/B3*%
X86120000Y-118970500D03*
%TO.P,J1,B4,VBUS_B*%
%TO.N,Board_8-/B4*%
X85620000Y-118970500D03*
%TO.P,J1,B5,CC2*%
%TO.N,Board_8-/B5*%
X85120000Y-118970500D03*
%TO.P,J1,B6,DB_P*%
%TO.N,Board_8-/B6*%
X84620000Y-118970500D03*
%TO.P,J1,B7,DB_N*%
%TO.N,Board_8-/B7*%
X84120000Y-118970500D03*
%TO.P,J1,B8,SBU2*%
%TO.N,Board_8-/B8*%
X83620000Y-118970500D03*
%TO.P,J1,B9,VBUS_B*%
%TO.N,Board_8-/B9*%
X83120000Y-118970500D03*
D11*
%TO.P,J1,B10,RX1_N*%
%TO.N,Board_8-/B10*%
X82617500Y-118970500D03*
D12*
%TO.P,J1,B11,RX1_P*%
%TO.N,Board_8-/B11*%
X82113500Y-118970500D03*
D10*
%TO.P,J1,B12,GNDB*%
%TO.N,Board_8-/B12*%
X81620000Y-118970500D03*
D13*
%TO.P,J1,S3*%
%TO.N,N/C*%
X80128418Y-119655779D03*
%TO.P,J1,S4*%
X88603557Y-119655779D03*
%TD*%
D10*
%TO.P,J1,B1,GNDB*%
%TO.N,Board_14-/B1*%
X172680000Y-160940500D03*
%TO.P,J1,B2,TX2_P*%
%TO.N,Board_14-/B2*%
X172180000Y-160940500D03*
%TO.P,J1,B3,TX2_N*%
%TO.N,Board_14-/B3*%
X171680000Y-160940500D03*
%TO.P,J1,B4,VBUS_B*%
%TO.N,Board_14-/B4*%
X171180000Y-160940500D03*
%TO.P,J1,B5,CC2*%
%TO.N,Board_14-/B5*%
X170680000Y-160940500D03*
%TO.P,J1,B6,DB_P*%
%TO.N,Board_14-/B6*%
X170180000Y-160940500D03*
%TO.P,J1,B7,DB_N*%
%TO.N,Board_14-/B7*%
X169680000Y-160940500D03*
%TO.P,J1,B8,SBU2*%
%TO.N,Board_14-/B8*%
X169180000Y-160940500D03*
%TO.P,J1,B9,VBUS_B*%
%TO.N,Board_14-/B9*%
X168680000Y-160940500D03*
D11*
%TO.P,J1,B10,RX1_N*%
%TO.N,Board_14-/B10*%
X168177500Y-160940500D03*
D12*
%TO.P,J1,B11,RX1_P*%
%TO.N,Board_14-/B11*%
X167673500Y-160940500D03*
D10*
%TO.P,J1,B12,GNDB*%
%TO.N,Board_14-/B12*%
X167180000Y-160940500D03*
D13*
%TO.P,J1,S3*%
%TO.N,N/C*%
X165688418Y-161625779D03*
%TO.P,J1,S4*%
X174163557Y-161625779D03*
%TD*%
D10*
%TO.P,J1,B1,GNDB*%
%TO.N,Board_1-/B1*%
X129900000Y-35030500D03*
%TO.P,J1,B2,TX2_P*%
%TO.N,Board_1-/B2*%
X129400000Y-35030500D03*
%TO.P,J1,B3,TX2_N*%
%TO.N,Board_1-/B3*%
X128900000Y-35030500D03*
%TO.P,J1,B4,VBUS_B*%
%TO.N,Board_1-/B4*%
X128400000Y-35030500D03*
%TO.P,J1,B5,CC2*%
%TO.N,Board_1-/B5*%
X127900000Y-35030500D03*
%TO.P,J1,B6,DB_P*%
%TO.N,Board_1-/B6*%
X127400000Y-35030500D03*
%TO.P,J1,B7,DB_N*%
%TO.N,Board_1-/B7*%
X126900000Y-35030500D03*
%TO.P,J1,B8,SBU2*%
%TO.N,Board_1-/B8*%
X126400000Y-35030500D03*
%TO.P,J1,B9,VBUS_B*%
%TO.N,Board_1-/B9*%
X125900000Y-35030500D03*
D11*
%TO.P,J1,B10,RX1_N*%
%TO.N,Board_1-/B10*%
X125397500Y-35030500D03*
D12*
%TO.P,J1,B11,RX1_P*%
%TO.N,Board_1-/B11*%
X124893500Y-35030500D03*
D10*
%TO.P,J1,B12,GNDB*%
%TO.N,Board_1-/B12*%
X124400000Y-35030500D03*
D13*
%TO.P,J1,S3*%
%TO.N,N/C*%
X122908418Y-35715779D03*
%TO.P,J1,S4*%
X131383557Y-35715779D03*
%TD*%
D10*
%TO.P,J1,B1,GNDB*%
%TO.N,Board_12-/B1*%
X87120000Y-160940500D03*
%TO.P,J1,B2,TX2_P*%
%TO.N,Board_12-/B2*%
X86620000Y-160940500D03*
%TO.P,J1,B3,TX2_N*%
%TO.N,Board_12-/B3*%
X86120000Y-160940500D03*
%TO.P,J1,B4,VBUS_B*%
%TO.N,Board_12-/B4*%
X85620000Y-160940500D03*
%TO.P,J1,B5,CC2*%
%TO.N,Board_12-/B5*%
X85120000Y-160940500D03*
%TO.P,J1,B6,DB_P*%
%TO.N,Board_12-/B6*%
X84620000Y-160940500D03*
%TO.P,J1,B7,DB_N*%
%TO.N,Board_12-/B7*%
X84120000Y-160940500D03*
%TO.P,J1,B8,SBU2*%
%TO.N,Board_12-/B8*%
X83620000Y-160940500D03*
%TO.P,J1,B9,VBUS_B*%
%TO.N,Board_12-/B9*%
X83120000Y-160940500D03*
D11*
%TO.P,J1,B10,RX1_N*%
%TO.N,Board_12-/B10*%
X82617500Y-160940500D03*
D12*
%TO.P,J1,B11,RX1_P*%
%TO.N,Board_12-/B11*%
X82113500Y-160940500D03*
D10*
%TO.P,J1,B12,GNDB*%
%TO.N,Board_12-/B12*%
X81620000Y-160940500D03*
D13*
%TO.P,J1,S3*%
%TO.N,N/C*%
X80128418Y-161625779D03*
%TO.P,J1,S4*%
X88603557Y-161625779D03*
%TD*%
D10*
%TO.P,J1,B1,GNDB*%
%TO.N,Board_9-/B1*%
X129900000Y-118970500D03*
%TO.P,J1,B2,TX2_P*%
%TO.N,Board_9-/B2*%
X129400000Y-118970500D03*
%TO.P,J1,B3,TX2_N*%
%TO.N,Board_9-/B3*%
X128900000Y-118970500D03*
%TO.P,J1,B4,VBUS_B*%
%TO.N,Board_9-/B4*%
X128400000Y-118970500D03*
%TO.P,J1,B5,CC2*%
%TO.N,Board_9-/B5*%
X127900000Y-118970500D03*
%TO.P,J1,B6,DB_P*%
%TO.N,Board_9-/B6*%
X127400000Y-118970500D03*
%TO.P,J1,B7,DB_N*%
%TO.N,Board_9-/B7*%
X126900000Y-118970500D03*
%TO.P,J1,B8,SBU2*%
%TO.N,Board_9-/B8*%
X126400000Y-118970500D03*
%TO.P,J1,B9,VBUS_B*%
%TO.N,Board_9-/B9*%
X125900000Y-118970500D03*
D11*
%TO.P,J1,B10,RX1_N*%
%TO.N,Board_9-/B10*%
X125397500Y-118970500D03*
D12*
%TO.P,J1,B11,RX1_P*%
%TO.N,Board_9-/B11*%
X124893500Y-118970500D03*
D10*
%TO.P,J1,B12,GNDB*%
%TO.N,Board_9-/B12*%
X124400000Y-118970500D03*
D13*
%TO.P,J1,S3*%
%TO.N,N/C*%
X122908418Y-119655779D03*
%TO.P,J1,S4*%
X131383557Y-119655779D03*
%TD*%
D10*
%TO.P,J1,B1,GNDB*%
%TO.N,Board_2-/B1*%
X172680000Y-35030500D03*
%TO.P,J1,B2,TX2_P*%
%TO.N,Board_2-/B2*%
X172180000Y-35030500D03*
%TO.P,J1,B3,TX2_N*%
%TO.N,Board_2-/B3*%
X171680000Y-35030500D03*
%TO.P,J1,B4,VBUS_B*%
%TO.N,Board_2-/B4*%
X171180000Y-35030500D03*
%TO.P,J1,B5,CC2*%
%TO.N,Board_2-/B5*%
X170680000Y-35030500D03*
%TO.P,J1,B6,DB_P*%
%TO.N,Board_2-/B6*%
X170180000Y-35030500D03*
%TO.P,J1,B7,DB_N*%
%TO.N,Board_2-/B7*%
X169680000Y-35030500D03*
%TO.P,J1,B8,SBU2*%
%TO.N,Board_2-/B8*%
X169180000Y-35030500D03*
%TO.P,J1,B9,VBUS_B*%
%TO.N,Board_2-/B9*%
X168680000Y-35030500D03*
D11*
%TO.P,J1,B10,RX1_N*%
%TO.N,Board_2-/B10*%
X168177500Y-35030500D03*
D12*
%TO.P,J1,B11,RX1_P*%
%TO.N,Board_2-/B11*%
X167673500Y-35030500D03*
D10*
%TO.P,J1,B12,GNDB*%
%TO.N,Board_2-/B12*%
X167180000Y-35030500D03*
D13*
%TO.P,J1,S3*%
%TO.N,N/C*%
X165688418Y-35715779D03*
%TO.P,J1,S4*%
X174163557Y-35715779D03*
%TD*%
D10*
%TO.P,J1,B1,GNDB*%
%TO.N,Board_6-/B1*%
X172680000Y-77000500D03*
%TO.P,J1,B2,TX2_P*%
%TO.N,Board_6-/B2*%
X172180000Y-77000500D03*
%TO.P,J1,B3,TX2_N*%
%TO.N,Board_6-/B3*%
X171680000Y-77000500D03*
%TO.P,J1,B4,VBUS_B*%
%TO.N,Board_6-/B4*%
X171180000Y-77000500D03*
%TO.P,J1,B5,CC2*%
%TO.N,Board_6-/B5*%
X170680000Y-77000500D03*
%TO.P,J1,B6,DB_P*%
%TO.N,Board_6-/B6*%
X170180000Y-77000500D03*
%TO.P,J1,B7,DB_N*%
%TO.N,Board_6-/B7*%
X169680000Y-77000500D03*
%TO.P,J1,B8,SBU2*%
%TO.N,Board_6-/B8*%
X169180000Y-77000500D03*
%TO.P,J1,B9,VBUS_B*%
%TO.N,Board_6-/B9*%
X168680000Y-77000500D03*
D11*
%TO.P,J1,B10,RX1_N*%
%TO.N,Board_6-/B10*%
X168177500Y-77000500D03*
D12*
%TO.P,J1,B11,RX1_P*%
%TO.N,Board_6-/B11*%
X167673500Y-77000500D03*
D10*
%TO.P,J1,B12,GNDB*%
%TO.N,Board_6-/B12*%
X167180000Y-77000500D03*
D13*
%TO.P,J1,S3*%
%TO.N,N/C*%
X165688418Y-77685779D03*
%TO.P,J1,S4*%
X174163557Y-77685779D03*
%TD*%
D14*
%TO.P,J2,1,Pin_1*%
%TO.N,Board_8-/B1*%
X98337500Y-136352500D03*
D15*
%TO.P,J2,2,Pin_2*%
%TO.N,Board_8-/A12*%
X98372500Y-133392500D03*
D16*
%TO.P,J2,3,Pin_3*%
%TO.N,Board_8-/B2*%
X95790000Y-136352500D03*
D17*
%TO.P,J2,4,Pin_4*%
%TO.N,Board_8-/A11*%
X95782500Y-133392500D03*
D18*
%TO.P,J2,5,Pin_5*%
%TO.N,Board_8-/B3*%
X93257500Y-136357500D03*
D19*
%TO.P,J2,6,Pin_6*%
%TO.N,Board_8-/A10*%
X93272500Y-133397500D03*
D20*
%TO.P,J2,7,Pin_7*%
%TO.N,Board_8-/B4*%
X90707500Y-136357500D03*
D21*
%TO.P,J2,8,Pin_8*%
%TO.N,Board_8-/A9*%
X90737500Y-133392500D03*
D16*
%TO.P,J2,9,Pin_9*%
%TO.N,Board_8-/B5*%
X88170000Y-136352500D03*
D22*
%TO.P,J2,10,Pin_10*%
%TO.N,Board_8-/A8*%
X88172500Y-133397500D03*
D23*
%TO.P,J2,11,Pin_11*%
%TO.N,Board_8-/B6*%
X85632500Y-136352500D03*
D24*
%TO.P,J2,12,Pin_12*%
%TO.N,Board_8-/A7*%
X85617500Y-133392500D03*
D25*
%TO.P,J2,13,Pin_13*%
%TO.N,Board_8-/B7*%
X83087500Y-136352500D03*
D26*
%TO.P,J2,14,Pin_14*%
%TO.N,Board_8-/A6*%
X83097500Y-133392500D03*
D25*
%TO.P,J2,15,Pin_15*%
%TO.N,Board_8-/B8*%
X80547500Y-136352500D03*
D17*
%TO.P,J2,16,Pin_16*%
%TO.N,Board_8-/A5*%
X80562500Y-133392500D03*
D27*
%TO.P,J2,17,Pin_17*%
%TO.N,Board_8-/B9*%
X78002500Y-136352500D03*
D28*
%TO.P,J2,18,Pin_18*%
%TO.N,Board_8-/A4*%
X78027500Y-133392500D03*
D23*
%TO.P,J2,19,Pin_19*%
%TO.N,Board_8-/B10*%
X75472500Y-136352500D03*
D27*
%TO.P,J2,20,Pin_20*%
%TO.N,Board_8-/A3*%
X75462500Y-133387500D03*
D25*
%TO.P,J2,21,Pin_21*%
%TO.N,Board_8-/B11*%
X72927500Y-136352500D03*
D29*
%TO.P,J2,22,Pin_22*%
%TO.N,Board_8-/A2*%
X72922500Y-133392500D03*
D16*
%TO.P,J2,23,Pin_23*%
%TO.N,Board_8-/B12*%
X70390000Y-136352500D03*
D30*
%TO.P,J2,24,Pin_24*%
%TO.N,Board_8-/A1*%
X70382500Y-133402500D03*
%TD*%
D14*
%TO.P,J2,1,Pin_1*%
%TO.N,Board_5-/B1*%
X141117500Y-94382500D03*
D15*
%TO.P,J2,2,Pin_2*%
%TO.N,Board_5-/A12*%
X141152500Y-91422500D03*
D16*
%TO.P,J2,3,Pin_3*%
%TO.N,Board_5-/B2*%
X138570000Y-94382500D03*
D17*
%TO.P,J2,4,Pin_4*%
%TO.N,Board_5-/A11*%
X138562500Y-91422500D03*
D18*
%TO.P,J2,5,Pin_5*%
%TO.N,Board_5-/B3*%
X136037500Y-94387500D03*
D19*
%TO.P,J2,6,Pin_6*%
%TO.N,Board_5-/A10*%
X136052500Y-91427500D03*
D20*
%TO.P,J2,7,Pin_7*%
%TO.N,Board_5-/B4*%
X133487500Y-94387500D03*
D21*
%TO.P,J2,8,Pin_8*%
%TO.N,Board_5-/A9*%
X133517500Y-91422500D03*
D16*
%TO.P,J2,9,Pin_9*%
%TO.N,Board_5-/B5*%
X130950000Y-94382500D03*
D22*
%TO.P,J2,10,Pin_10*%
%TO.N,Board_5-/A8*%
X130952500Y-91427500D03*
D23*
%TO.P,J2,11,Pin_11*%
%TO.N,Board_5-/B6*%
X128412500Y-94382500D03*
D24*
%TO.P,J2,12,Pin_12*%
%TO.N,Board_5-/A7*%
X128397500Y-91422500D03*
D25*
%TO.P,J2,13,Pin_13*%
%TO.N,Board_5-/B7*%
X125867500Y-94382500D03*
D26*
%TO.P,J2,14,Pin_14*%
%TO.N,Board_5-/A6*%
X125877500Y-91422500D03*
D25*
%TO.P,J2,15,Pin_15*%
%TO.N,Board_5-/B8*%
X123327500Y-94382500D03*
D17*
%TO.P,J2,16,Pin_16*%
%TO.N,Board_5-/A5*%
X123342500Y-91422500D03*
D27*
%TO.P,J2,17,Pin_17*%
%TO.N,Board_5-/B9*%
X120782500Y-94382500D03*
D28*
%TO.P,J2,18,Pin_18*%
%TO.N,Board_5-/A4*%
X120807500Y-91422500D03*
D23*
%TO.P,J2,19,Pin_19*%
%TO.N,Board_5-/B10*%
X118252500Y-94382500D03*
D27*
%TO.P,J2,20,Pin_20*%
%TO.N,Board_5-/A3*%
X118242500Y-91417500D03*
D25*
%TO.P,J2,21,Pin_21*%
%TO.N,Board_5-/B11*%
X115707500Y-94382500D03*
D29*
%TO.P,J2,22,Pin_22*%
%TO.N,Board_5-/A2*%
X115702500Y-91422500D03*
D16*
%TO.P,J2,23,Pin_23*%
%TO.N,Board_5-/B12*%
X113170000Y-94382500D03*
D30*
%TO.P,J2,24,Pin_24*%
%TO.N,Board_5-/A1*%
X113162500Y-91432500D03*
%TD*%
D14*
%TO.P,J2,1,Pin_1*%
%TO.N,Board_15-/B1*%
X226677500Y-178322500D03*
D15*
%TO.P,J2,2,Pin_2*%
%TO.N,Board_15-/A12*%
X226712500Y-175362500D03*
D16*
%TO.P,J2,3,Pin_3*%
%TO.N,Board_15-/B2*%
X224130000Y-178322500D03*
D17*
%TO.P,J2,4,Pin_4*%
%TO.N,Board_15-/A11*%
X224122500Y-175362500D03*
D18*
%TO.P,J2,5,Pin_5*%
%TO.N,Board_15-/B3*%
X221597500Y-178327500D03*
D19*
%TO.P,J2,6,Pin_6*%
%TO.N,Board_15-/A10*%
X221612500Y-175367500D03*
D20*
%TO.P,J2,7,Pin_7*%
%TO.N,Board_15-/B4*%
X219047500Y-178327500D03*
D21*
%TO.P,J2,8,Pin_8*%
%TO.N,Board_15-/A9*%
X219077500Y-175362500D03*
D16*
%TO.P,J2,9,Pin_9*%
%TO.N,Board_15-/B5*%
X216510000Y-178322500D03*
D22*
%TO.P,J2,10,Pin_10*%
%TO.N,Board_15-/A8*%
X216512500Y-175367500D03*
D23*
%TO.P,J2,11,Pin_11*%
%TO.N,Board_15-/B6*%
X213972500Y-178322500D03*
D24*
%TO.P,J2,12,Pin_12*%
%TO.N,Board_15-/A7*%
X213957500Y-175362500D03*
D25*
%TO.P,J2,13,Pin_13*%
%TO.N,Board_15-/B7*%
X211427500Y-178322500D03*
D26*
%TO.P,J2,14,Pin_14*%
%TO.N,Board_15-/A6*%
X211437500Y-175362500D03*
D25*
%TO.P,J2,15,Pin_15*%
%TO.N,Board_15-/B8*%
X208887500Y-178322500D03*
D17*
%TO.P,J2,16,Pin_16*%
%TO.N,Board_15-/A5*%
X208902500Y-175362500D03*
D27*
%TO.P,J2,17,Pin_17*%
%TO.N,Board_15-/B9*%
X206342500Y-178322500D03*
D28*
%TO.P,J2,18,Pin_18*%
%TO.N,Board_15-/A4*%
X206367500Y-175362500D03*
D23*
%TO.P,J2,19,Pin_19*%
%TO.N,Board_15-/B10*%
X203812500Y-178322500D03*
D27*
%TO.P,J2,20,Pin_20*%
%TO.N,Board_15-/A3*%
X203802500Y-175357500D03*
D25*
%TO.P,J2,21,Pin_21*%
%TO.N,Board_15-/B11*%
X201267500Y-178322500D03*
D29*
%TO.P,J2,22,Pin_22*%
%TO.N,Board_15-/A2*%
X201262500Y-175362500D03*
D16*
%TO.P,J2,23,Pin_23*%
%TO.N,Board_15-/B12*%
X198730000Y-178322500D03*
D30*
%TO.P,J2,24,Pin_24*%
%TO.N,Board_15-/A1*%
X198722500Y-175372500D03*
%TD*%
D14*
%TO.P,J2,1,Pin_1*%
%TO.N,Board_1-/B1*%
X141117500Y-52412500D03*
D15*
%TO.P,J2,2,Pin_2*%
%TO.N,Board_1-/A12*%
X141152500Y-49452500D03*
D16*
%TO.P,J2,3,Pin_3*%
%TO.N,Board_1-/B2*%
X138570000Y-52412500D03*
D17*
%TO.P,J2,4,Pin_4*%
%TO.N,Board_1-/A11*%
X138562500Y-49452500D03*
D18*
%TO.P,J2,5,Pin_5*%
%TO.N,Board_1-/B3*%
X136037500Y-52417500D03*
D19*
%TO.P,J2,6,Pin_6*%
%TO.N,Board_1-/A10*%
X136052500Y-49457500D03*
D20*
%TO.P,J2,7,Pin_7*%
%TO.N,Board_1-/B4*%
X133487500Y-52417500D03*
D21*
%TO.P,J2,8,Pin_8*%
%TO.N,Board_1-/A9*%
X133517500Y-49452500D03*
D16*
%TO.P,J2,9,Pin_9*%
%TO.N,Board_1-/B5*%
X130950000Y-52412500D03*
D22*
%TO.P,J2,10,Pin_10*%
%TO.N,Board_1-/A8*%
X130952500Y-49457500D03*
D23*
%TO.P,J2,11,Pin_11*%
%TO.N,Board_1-/B6*%
X128412500Y-52412500D03*
D24*
%TO.P,J2,12,Pin_12*%
%TO.N,Board_1-/A7*%
X128397500Y-49452500D03*
D25*
%TO.P,J2,13,Pin_13*%
%TO.N,Board_1-/B7*%
X125867500Y-52412500D03*
D26*
%TO.P,J2,14,Pin_14*%
%TO.N,Board_1-/A6*%
X125877500Y-49452500D03*
D25*
%TO.P,J2,15,Pin_15*%
%TO.N,Board_1-/B8*%
X123327500Y-52412500D03*
D17*
%TO.P,J2,16,Pin_16*%
%TO.N,Board_1-/A5*%
X123342500Y-49452500D03*
D27*
%TO.P,J2,17,Pin_17*%
%TO.N,Board_1-/B9*%
X120782500Y-52412500D03*
D28*
%TO.P,J2,18,Pin_18*%
%TO.N,Board_1-/A4*%
X120807500Y-49452500D03*
D23*
%TO.P,J2,19,Pin_19*%
%TO.N,Board_1-/B10*%
X118252500Y-52412500D03*
D27*
%TO.P,J2,20,Pin_20*%
%TO.N,Board_1-/A3*%
X118242500Y-49447500D03*
D25*
%TO.P,J2,21,Pin_21*%
%TO.N,Board_1-/B11*%
X115707500Y-52412500D03*
D29*
%TO.P,J2,22,Pin_22*%
%TO.N,Board_1-/A2*%
X115702500Y-49452500D03*
D16*
%TO.P,J2,23,Pin_23*%
%TO.N,Board_1-/B12*%
X113170000Y-52412500D03*
D30*
%TO.P,J2,24,Pin_24*%
%TO.N,Board_1-/A1*%
X113162500Y-49462500D03*
%TD*%
D14*
%TO.P,J2,1,Pin_1*%
%TO.N,Board_11-/B1*%
X226677500Y-136352500D03*
D15*
%TO.P,J2,2,Pin_2*%
%TO.N,Board_11-/A12*%
X226712500Y-133392500D03*
D16*
%TO.P,J2,3,Pin_3*%
%TO.N,Board_11-/B2*%
X224130000Y-136352500D03*
D17*
%TO.P,J2,4,Pin_4*%
%TO.N,Board_11-/A11*%
X224122500Y-133392500D03*
D18*
%TO.P,J2,5,Pin_5*%
%TO.N,Board_11-/B3*%
X221597500Y-136357500D03*
D19*
%TO.P,J2,6,Pin_6*%
%TO.N,Board_11-/A10*%
X221612500Y-133397500D03*
D20*
%TO.P,J2,7,Pin_7*%
%TO.N,Board_11-/B4*%
X219047500Y-136357500D03*
D21*
%TO.P,J2,8,Pin_8*%
%TO.N,Board_11-/A9*%
X219077500Y-133392500D03*
D16*
%TO.P,J2,9,Pin_9*%
%TO.N,Board_11-/B5*%
X216510000Y-136352500D03*
D22*
%TO.P,J2,10,Pin_10*%
%TO.N,Board_11-/A8*%
X216512500Y-133397500D03*
D23*
%TO.P,J2,11,Pin_11*%
%TO.N,Board_11-/B6*%
X213972500Y-136352500D03*
D24*
%TO.P,J2,12,Pin_12*%
%TO.N,Board_11-/A7*%
X213957500Y-133392500D03*
D25*
%TO.P,J2,13,Pin_13*%
%TO.N,Board_11-/B7*%
X211427500Y-136352500D03*
D26*
%TO.P,J2,14,Pin_14*%
%TO.N,Board_11-/A6*%
X211437500Y-133392500D03*
D25*
%TO.P,J2,15,Pin_15*%
%TO.N,Board_11-/B8*%
X208887500Y-136352500D03*
D17*
%TO.P,J2,16,Pin_16*%
%TO.N,Board_11-/A5*%
X208902500Y-133392500D03*
D27*
%TO.P,J2,17,Pin_17*%
%TO.N,Board_11-/B9*%
X206342500Y-136352500D03*
D28*
%TO.P,J2,18,Pin_18*%
%TO.N,Board_11-/A4*%
X206367500Y-133392500D03*
D23*
%TO.P,J2,19,Pin_19*%
%TO.N,Board_11-/B10*%
X203812500Y-136352500D03*
D27*
%TO.P,J2,20,Pin_20*%
%TO.N,Board_11-/A3*%
X203802500Y-133387500D03*
D25*
%TO.P,J2,21,Pin_21*%
%TO.N,Board_11-/B11*%
X201267500Y-136352500D03*
D29*
%TO.P,J2,22,Pin_22*%
%TO.N,Board_11-/A2*%
X201262500Y-133392500D03*
D16*
%TO.P,J2,23,Pin_23*%
%TO.N,Board_11-/B12*%
X198730000Y-136352500D03*
D30*
%TO.P,J2,24,Pin_24*%
%TO.N,Board_11-/A1*%
X198722500Y-133402500D03*
%TD*%
D14*
%TO.P,J2,1,Pin_1*%
%TO.N,Board_0-/B1*%
X98337500Y-52412500D03*
D15*
%TO.P,J2,2,Pin_2*%
%TO.N,Board_0-/A12*%
X98372500Y-49452500D03*
D16*
%TO.P,J2,3,Pin_3*%
%TO.N,Board_0-/B2*%
X95790000Y-52412500D03*
D17*
%TO.P,J2,4,Pin_4*%
%TO.N,Board_0-/A11*%
X95782500Y-49452500D03*
D18*
%TO.P,J2,5,Pin_5*%
%TO.N,Board_0-/B3*%
X93257500Y-52417500D03*
D19*
%TO.P,J2,6,Pin_6*%
%TO.N,Board_0-/A10*%
X93272500Y-49457500D03*
D20*
%TO.P,J2,7,Pin_7*%
%TO.N,Board_0-/B4*%
X90707500Y-52417500D03*
D21*
%TO.P,J2,8,Pin_8*%
%TO.N,Board_0-/A9*%
X90737500Y-49452500D03*
D16*
%TO.P,J2,9,Pin_9*%
%TO.N,Board_0-/B5*%
X88170000Y-52412500D03*
D22*
%TO.P,J2,10,Pin_10*%
%TO.N,Board_0-/A8*%
X88172500Y-49457500D03*
D23*
%TO.P,J2,11,Pin_11*%
%TO.N,Board_0-/B6*%
X85632500Y-52412500D03*
D24*
%TO.P,J2,12,Pin_12*%
%TO.N,Board_0-/A7*%
X85617500Y-49452500D03*
D25*
%TO.P,J2,13,Pin_13*%
%TO.N,Board_0-/B7*%
X83087500Y-52412500D03*
D26*
%TO.P,J2,14,Pin_14*%
%TO.N,Board_0-/A6*%
X83097500Y-49452500D03*
D25*
%TO.P,J2,15,Pin_15*%
%TO.N,Board_0-/B8*%
X80547500Y-52412500D03*
D17*
%TO.P,J2,16,Pin_16*%
%TO.N,Board_0-/A5*%
X80562500Y-49452500D03*
D27*
%TO.P,J2,17,Pin_17*%
%TO.N,Board_0-/B9*%
X78002500Y-52412500D03*
D28*
%TO.P,J2,18,Pin_18*%
%TO.N,Board_0-/A4*%
X78027500Y-49452500D03*
D23*
%TO.P,J2,19,Pin_19*%
%TO.N,Board_0-/B10*%
X75472500Y-52412500D03*
D27*
%TO.P,J2,20,Pin_20*%
%TO.N,Board_0-/A3*%
X75462500Y-49447500D03*
D25*
%TO.P,J2,21,Pin_21*%
%TO.N,Board_0-/B11*%
X72927500Y-52412500D03*
D29*
%TO.P,J2,22,Pin_22*%
%TO.N,Board_0-/A2*%
X72922500Y-49452500D03*
D16*
%TO.P,J2,23,Pin_23*%
%TO.N,Board_0-/B12*%
X70390000Y-52412500D03*
D30*
%TO.P,J2,24,Pin_24*%
%TO.N,Board_0-/A1*%
X70382500Y-49462500D03*
%TD*%
D14*
%TO.P,J2,1,Pin_1*%
%TO.N,Board_2-/B1*%
X183897500Y-52412500D03*
D15*
%TO.P,J2,2,Pin_2*%
%TO.N,Board_2-/A12*%
X183932500Y-49452500D03*
D16*
%TO.P,J2,3,Pin_3*%
%TO.N,Board_2-/B2*%
X181350000Y-52412500D03*
D17*
%TO.P,J2,4,Pin_4*%
%TO.N,Board_2-/A11*%
X181342500Y-49452500D03*
D18*
%TO.P,J2,5,Pin_5*%
%TO.N,Board_2-/B3*%
X178817500Y-52417500D03*
D19*
%TO.P,J2,6,Pin_6*%
%TO.N,Board_2-/A10*%
X178832500Y-49457500D03*
D20*
%TO.P,J2,7,Pin_7*%
%TO.N,Board_2-/B4*%
X176267500Y-52417500D03*
D21*
%TO.P,J2,8,Pin_8*%
%TO.N,Board_2-/A9*%
X176297500Y-49452500D03*
D16*
%TO.P,J2,9,Pin_9*%
%TO.N,Board_2-/B5*%
X173730000Y-52412500D03*
D22*
%TO.P,J2,10,Pin_10*%
%TO.N,Board_2-/A8*%
X173732500Y-49457500D03*
D23*
%TO.P,J2,11,Pin_11*%
%TO.N,Board_2-/B6*%
X171192500Y-52412500D03*
D24*
%TO.P,J2,12,Pin_12*%
%TO.N,Board_2-/A7*%
X171177500Y-49452500D03*
D25*
%TO.P,J2,13,Pin_13*%
%TO.N,Board_2-/B7*%
X168647500Y-52412500D03*
D26*
%TO.P,J2,14,Pin_14*%
%TO.N,Board_2-/A6*%
X168657500Y-49452500D03*
D25*
%TO.P,J2,15,Pin_15*%
%TO.N,Board_2-/B8*%
X166107500Y-52412500D03*
D17*
%TO.P,J2,16,Pin_16*%
%TO.N,Board_2-/A5*%
X166122500Y-49452500D03*
D27*
%TO.P,J2,17,Pin_17*%
%TO.N,Board_2-/B9*%
X163562500Y-52412500D03*
D28*
%TO.P,J2,18,Pin_18*%
%TO.N,Board_2-/A4*%
X163587500Y-49452500D03*
D23*
%TO.P,J2,19,Pin_19*%
%TO.N,Board_2-/B10*%
X161032500Y-52412500D03*
D27*
%TO.P,J2,20,Pin_20*%
%TO.N,Board_2-/A3*%
X161022500Y-49447500D03*
D25*
%TO.P,J2,21,Pin_21*%
%TO.N,Board_2-/B11*%
X158487500Y-52412500D03*
D29*
%TO.P,J2,22,Pin_22*%
%TO.N,Board_2-/A2*%
X158482500Y-49452500D03*
D16*
%TO.P,J2,23,Pin_23*%
%TO.N,Board_2-/B12*%
X155950000Y-52412500D03*
D30*
%TO.P,J2,24,Pin_24*%
%TO.N,Board_2-/A1*%
X155942500Y-49462500D03*
%TD*%
D14*
%TO.P,J2,1,Pin_1*%
%TO.N,Board_12-/B1*%
X98337500Y-178322500D03*
D15*
%TO.P,J2,2,Pin_2*%
%TO.N,Board_12-/A12*%
X98372500Y-175362500D03*
D16*
%TO.P,J2,3,Pin_3*%
%TO.N,Board_12-/B2*%
X95790000Y-178322500D03*
D17*
%TO.P,J2,4,Pin_4*%
%TO.N,Board_12-/A11*%
X95782500Y-175362500D03*
D18*
%TO.P,J2,5,Pin_5*%
%TO.N,Board_12-/B3*%
X93257500Y-178327500D03*
D19*
%TO.P,J2,6,Pin_6*%
%TO.N,Board_12-/A10*%
X93272500Y-175367500D03*
D20*
%TO.P,J2,7,Pin_7*%
%TO.N,Board_12-/B4*%
X90707500Y-178327500D03*
D21*
%TO.P,J2,8,Pin_8*%
%TO.N,Board_12-/A9*%
X90737500Y-175362500D03*
D16*
%TO.P,J2,9,Pin_9*%
%TO.N,Board_12-/B5*%
X88170000Y-178322500D03*
D22*
%TO.P,J2,10,Pin_10*%
%TO.N,Board_12-/A8*%
X88172500Y-175367500D03*
D23*
%TO.P,J2,11,Pin_11*%
%TO.N,Board_12-/B6*%
X85632500Y-178322500D03*
D24*
%TO.P,J2,12,Pin_12*%
%TO.N,Board_12-/A7*%
X85617500Y-175362500D03*
D25*
%TO.P,J2,13,Pin_13*%
%TO.N,Board_12-/B7*%
X83087500Y-178322500D03*
D26*
%TO.P,J2,14,Pin_14*%
%TO.N,Board_12-/A6*%
X83097500Y-175362500D03*
D25*
%TO.P,J2,15,Pin_15*%
%TO.N,Board_12-/B8*%
X80547500Y-178322500D03*
D17*
%TO.P,J2,16,Pin_16*%
%TO.N,Board_12-/A5*%
X80562500Y-175362500D03*
D27*
%TO.P,J2,17,Pin_17*%
%TO.N,Board_12-/B9*%
X78002500Y-178322500D03*
D28*
%TO.P,J2,18,Pin_18*%
%TO.N,Board_12-/A4*%
X78027500Y-175362500D03*
D23*
%TO.P,J2,19,Pin_19*%
%TO.N,Board_12-/B10*%
X75472500Y-178322500D03*
D27*
%TO.P,J2,20,Pin_20*%
%TO.N,Board_12-/A3*%
X75462500Y-175357500D03*
D25*
%TO.P,J2,21,Pin_21*%
%TO.N,Board_12-/B11*%
X72927500Y-178322500D03*
D29*
%TO.P,J2,22,Pin_22*%
%TO.N,Board_12-/A2*%
X72922500Y-175362500D03*
D16*
%TO.P,J2,23,Pin_23*%
%TO.N,Board_12-/B12*%
X70390000Y-178322500D03*
D30*
%TO.P,J2,24,Pin_24*%
%TO.N,Board_12-/A1*%
X70382500Y-175372500D03*
%TD*%
D31*
%TO.P,KiKit_FID_B_2,*%
%TO.N,*%
X218760000Y-22450000D03*
%TD*%
D14*
%TO.P,J2,1,Pin_1*%
%TO.N,Board_4-/B1*%
X98337500Y-94382500D03*
D15*
%TO.P,J2,2,Pin_2*%
%TO.N,Board_4-/A12*%
X98372500Y-91422500D03*
D16*
%TO.P,J2,3,Pin_3*%
%TO.N,Board_4-/B2*%
X95790000Y-94382500D03*
D17*
%TO.P,J2,4,Pin_4*%
%TO.N,Board_4-/A11*%
X95782500Y-91422500D03*
D18*
%TO.P,J2,5,Pin_5*%
%TO.N,Board_4-/B3*%
X93257500Y-94387500D03*
D19*
%TO.P,J2,6,Pin_6*%
%TO.N,Board_4-/A10*%
X93272500Y-91427500D03*
D20*
%TO.P,J2,7,Pin_7*%
%TO.N,Board_4-/B4*%
X90707500Y-94387500D03*
D21*
%TO.P,J2,8,Pin_8*%
%TO.N,Board_4-/A9*%
X90737500Y-91422500D03*
D16*
%TO.P,J2,9,Pin_9*%
%TO.N,Board_4-/B5*%
X88170000Y-94382500D03*
D22*
%TO.P,J2,10,Pin_10*%
%TO.N,Board_4-/A8*%
X88172500Y-91427500D03*
D23*
%TO.P,J2,11,Pin_11*%
%TO.N,Board_4-/B6*%
X85632500Y-94382500D03*
D24*
%TO.P,J2,12,Pin_12*%
%TO.N,Board_4-/A7*%
X85617500Y-91422500D03*
D25*
%TO.P,J2,13,Pin_13*%
%TO.N,Board_4-/B7*%
X83087500Y-94382500D03*
D26*
%TO.P,J2,14,Pin_14*%
%TO.N,Board_4-/A6*%
X83097500Y-91422500D03*
D25*
%TO.P,J2,15,Pin_15*%
%TO.N,Board_4-/B8*%
X80547500Y-94382500D03*
D17*
%TO.P,J2,16,Pin_16*%
%TO.N,Board_4-/A5*%
X80562500Y-91422500D03*
D27*
%TO.P,J2,17,Pin_17*%
%TO.N,Board_4-/B9*%
X78002500Y-94382500D03*
D28*
%TO.P,J2,18,Pin_18*%
%TO.N,Board_4-/A4*%
X78027500Y-91422500D03*
D23*
%TO.P,J2,19,Pin_19*%
%TO.N,Board_4-/B10*%
X75472500Y-94382500D03*
D27*
%TO.P,J2,20,Pin_20*%
%TO.N,Board_4-/A3*%
X75462500Y-91417500D03*
D25*
%TO.P,J2,21,Pin_21*%
%TO.N,Board_4-/B11*%
X72927500Y-94382500D03*
D29*
%TO.P,J2,22,Pin_22*%
%TO.N,Board_4-/A2*%
X72922500Y-91422500D03*
D16*
%TO.P,J2,23,Pin_23*%
%TO.N,Board_4-/B12*%
X70390000Y-94382500D03*
D30*
%TO.P,J2,24,Pin_24*%
%TO.N,Board_4-/A1*%
X70382500Y-91432500D03*
%TD*%
D14*
%TO.P,J2,1,Pin_1*%
%TO.N,Board_3-/B1*%
X226677500Y-52412500D03*
D15*
%TO.P,J2,2,Pin_2*%
%TO.N,Board_3-/A12*%
X226712500Y-49452500D03*
D16*
%TO.P,J2,3,Pin_3*%
%TO.N,Board_3-/B2*%
X224130000Y-52412500D03*
D17*
%TO.P,J2,4,Pin_4*%
%TO.N,Board_3-/A11*%
X224122500Y-49452500D03*
D18*
%TO.P,J2,5,Pin_5*%
%TO.N,Board_3-/B3*%
X221597500Y-52417500D03*
D19*
%TO.P,J2,6,Pin_6*%
%TO.N,Board_3-/A10*%
X221612500Y-49457500D03*
D20*
%TO.P,J2,7,Pin_7*%
%TO.N,Board_3-/B4*%
X219047500Y-52417500D03*
D21*
%TO.P,J2,8,Pin_8*%
%TO.N,Board_3-/A9*%
X219077500Y-49452500D03*
D16*
%TO.P,J2,9,Pin_9*%
%TO.N,Board_3-/B5*%
X216510000Y-52412500D03*
D22*
%TO.P,J2,10,Pin_10*%
%TO.N,Board_3-/A8*%
X216512500Y-49457500D03*
D23*
%TO.P,J2,11,Pin_11*%
%TO.N,Board_3-/B6*%
X213972500Y-52412500D03*
D24*
%TO.P,J2,12,Pin_12*%
%TO.N,Board_3-/A7*%
X213957500Y-49452500D03*
D25*
%TO.P,J2,13,Pin_13*%
%TO.N,Board_3-/B7*%
X211427500Y-52412500D03*
D26*
%TO.P,J2,14,Pin_14*%
%TO.N,Board_3-/A6*%
X211437500Y-49452500D03*
D25*
%TO.P,J2,15,Pin_15*%
%TO.N,Board_3-/B8*%
X208887500Y-52412500D03*
D17*
%TO.P,J2,16,Pin_16*%
%TO.N,Board_3-/A5*%
X208902500Y-49452500D03*
D27*
%TO.P,J2,17,Pin_17*%
%TO.N,Board_3-/B9*%
X206342500Y-52412500D03*
D28*
%TO.P,J2,18,Pin_18*%
%TO.N,Board_3-/A4*%
X206367500Y-49452500D03*
D23*
%TO.P,J2,19,Pin_19*%
%TO.N,Board_3-/B10*%
X203812500Y-52412500D03*
D27*
%TO.P,J2,20,Pin_20*%
%TO.N,Board_3-/A3*%
X203802500Y-49447500D03*
D25*
%TO.P,J2,21,Pin_21*%
%TO.N,Board_3-/B11*%
X201267500Y-52412500D03*
D29*
%TO.P,J2,22,Pin_22*%
%TO.N,Board_3-/A2*%
X201262500Y-49452500D03*
D16*
%TO.P,J2,23,Pin_23*%
%TO.N,Board_3-/B12*%
X198730000Y-52412500D03*
D30*
%TO.P,J2,24,Pin_24*%
%TO.N,Board_3-/A1*%
X198722500Y-49462500D03*
%TD*%
D14*
%TO.P,J2,1,Pin_1*%
%TO.N,Board_13-/B1*%
X141117500Y-178322500D03*
D15*
%TO.P,J2,2,Pin_2*%
%TO.N,Board_13-/A12*%
X141152500Y-175362500D03*
D16*
%TO.P,J2,3,Pin_3*%
%TO.N,Board_13-/B2*%
X138570000Y-178322500D03*
D17*
%TO.P,J2,4,Pin_4*%
%TO.N,Board_13-/A11*%
X138562500Y-175362500D03*
D18*
%TO.P,J2,5,Pin_5*%
%TO.N,Board_13-/B3*%
X136037500Y-178327500D03*
D19*
%TO.P,J2,6,Pin_6*%
%TO.N,Board_13-/A10*%
X136052500Y-175367500D03*
D20*
%TO.P,J2,7,Pin_7*%
%TO.N,Board_13-/B4*%
X133487500Y-178327500D03*
D21*
%TO.P,J2,8,Pin_8*%
%TO.N,Board_13-/A9*%
X133517500Y-175362500D03*
D16*
%TO.P,J2,9,Pin_9*%
%TO.N,Board_13-/B5*%
X130950000Y-178322500D03*
D22*
%TO.P,J2,10,Pin_10*%
%TO.N,Board_13-/A8*%
X130952500Y-175367500D03*
D23*
%TO.P,J2,11,Pin_11*%
%TO.N,Board_13-/B6*%
X128412500Y-178322500D03*
D24*
%TO.P,J2,12,Pin_12*%
%TO.N,Board_13-/A7*%
X128397500Y-175362500D03*
D25*
%TO.P,J2,13,Pin_13*%
%TO.N,Board_13-/B7*%
X125867500Y-178322500D03*
D26*
%TO.P,J2,14,Pin_14*%
%TO.N,Board_13-/A6*%
X125877500Y-175362500D03*
D25*
%TO.P,J2,15,Pin_15*%
%TO.N,Board_13-/B8*%
X123327500Y-178322500D03*
D17*
%TO.P,J2,16,Pin_16*%
%TO.N,Board_13-/A5*%
X123342500Y-175362500D03*
D27*
%TO.P,J2,17,Pin_17*%
%TO.N,Board_13-/B9*%
X120782500Y-178322500D03*
D28*
%TO.P,J2,18,Pin_18*%
%TO.N,Board_13-/A4*%
X120807500Y-175362500D03*
D23*
%TO.P,J2,19,Pin_19*%
%TO.N,Board_13-/B10*%
X118252500Y-178322500D03*
D27*
%TO.P,J2,20,Pin_20*%
%TO.N,Board_13-/A3*%
X118242500Y-175357500D03*
D25*
%TO.P,J2,21,Pin_21*%
%TO.N,Board_13-/B11*%
X115707500Y-178322500D03*
D29*
%TO.P,J2,22,Pin_22*%
%TO.N,Board_13-/A2*%
X115702500Y-175362500D03*
D16*
%TO.P,J2,23,Pin_23*%
%TO.N,Board_13-/B12*%
X113170000Y-178322500D03*
D30*
%TO.P,J2,24,Pin_24*%
%TO.N,Board_13-/A1*%
X113162500Y-175372500D03*
%TD*%
D14*
%TO.P,J2,1,Pin_1*%
%TO.N,Board_14-/B1*%
X183897500Y-178322500D03*
D15*
%TO.P,J2,2,Pin_2*%
%TO.N,Board_14-/A12*%
X183932500Y-175362500D03*
D16*
%TO.P,J2,3,Pin_3*%
%TO.N,Board_14-/B2*%
X181350000Y-178322500D03*
D17*
%TO.P,J2,4,Pin_4*%
%TO.N,Board_14-/A11*%
X181342500Y-175362500D03*
D18*
%TO.P,J2,5,Pin_5*%
%TO.N,Board_14-/B3*%
X178817500Y-178327500D03*
D19*
%TO.P,J2,6,Pin_6*%
%TO.N,Board_14-/A10*%
X178832500Y-175367500D03*
D20*
%TO.P,J2,7,Pin_7*%
%TO.N,Board_14-/B4*%
X176267500Y-178327500D03*
D21*
%TO.P,J2,8,Pin_8*%
%TO.N,Board_14-/A9*%
X176297500Y-175362500D03*
D16*
%TO.P,J2,9,Pin_9*%
%TO.N,Board_14-/B5*%
X173730000Y-178322500D03*
D22*
%TO.P,J2,10,Pin_10*%
%TO.N,Board_14-/A8*%
X173732500Y-175367500D03*
D23*
%TO.P,J2,11,Pin_11*%
%TO.N,Board_14-/B6*%
X171192500Y-178322500D03*
D24*
%TO.P,J2,12,Pin_12*%
%TO.N,Board_14-/A7*%
X171177500Y-175362500D03*
D25*
%TO.P,J2,13,Pin_13*%
%TO.N,Board_14-/B7*%
X168647500Y-178322500D03*
D26*
%TO.P,J2,14,Pin_14*%
%TO.N,Board_14-/A6*%
X168657500Y-175362500D03*
D25*
%TO.P,J2,15,Pin_15*%
%TO.N,Board_14-/B8*%
X166107500Y-178322500D03*
D17*
%TO.P,J2,16,Pin_16*%
%TO.N,Board_14-/A5*%
X166122500Y-175362500D03*
D27*
%TO.P,J2,17,Pin_17*%
%TO.N,Board_14-/B9*%
X163562500Y-178322500D03*
D28*
%TO.P,J2,18,Pin_18*%
%TO.N,Board_14-/A4*%
X163587500Y-175362500D03*
D23*
%TO.P,J2,19,Pin_19*%
%TO.N,Board_14-/B10*%
X161032500Y-178322500D03*
D27*
%TO.P,J2,20,Pin_20*%
%TO.N,Board_14-/A3*%
X161022500Y-175357500D03*
D25*
%TO.P,J2,21,Pin_21*%
%TO.N,Board_14-/B11*%
X158487500Y-178322500D03*
D29*
%TO.P,J2,22,Pin_22*%
%TO.N,Board_14-/A2*%
X158482500Y-175362500D03*
D16*
%TO.P,J2,23,Pin_23*%
%TO.N,Board_14-/B12*%
X155950000Y-178322500D03*
D30*
%TO.P,J2,24,Pin_24*%
%TO.N,Board_14-/A1*%
X155942500Y-175372500D03*
%TD*%
D31*
%TO.P,KiKit_FID_B_3,*%
%TO.N,*%
X78240000Y-192430000D03*
%TD*%
%TO.P,KiKit_FID_B_1,*%
%TO.N,*%
X78240000Y-22450000D03*
%TD*%
D14*
%TO.P,J2,1,Pin_1*%
%TO.N,Board_6-/B1*%
X183897500Y-94382500D03*
D15*
%TO.P,J2,2,Pin_2*%
%TO.N,Board_6-/A12*%
X183932500Y-91422500D03*
D16*
%TO.P,J2,3,Pin_3*%
%TO.N,Board_6-/B2*%
X181350000Y-94382500D03*
D17*
%TO.P,J2,4,Pin_4*%
%TO.N,Board_6-/A11*%
X181342500Y-91422500D03*
D18*
%TO.P,J2,5,Pin_5*%
%TO.N,Board_6-/B3*%
X178817500Y-94387500D03*
D19*
%TO.P,J2,6,Pin_6*%
%TO.N,Board_6-/A10*%
X178832500Y-91427500D03*
D20*
%TO.P,J2,7,Pin_7*%
%TO.N,Board_6-/B4*%
X176267500Y-94387500D03*
D21*
%TO.P,J2,8,Pin_8*%
%TO.N,Board_6-/A9*%
X176297500Y-91422500D03*
D16*
%TO.P,J2,9,Pin_9*%
%TO.N,Board_6-/B5*%
X173730000Y-94382500D03*
D22*
%TO.P,J2,10,Pin_10*%
%TO.N,Board_6-/A8*%
X173732500Y-91427500D03*
D23*
%TO.P,J2,11,Pin_11*%
%TO.N,Board_6-/B6*%
X171192500Y-94382500D03*
D24*
%TO.P,J2,12,Pin_12*%
%TO.N,Board_6-/A7*%
X171177500Y-91422500D03*
D25*
%TO.P,J2,13,Pin_13*%
%TO.N,Board_6-/B7*%
X168647500Y-94382500D03*
D26*
%TO.P,J2,14,Pin_14*%
%TO.N,Board_6-/A6*%
X168657500Y-91422500D03*
D25*
%TO.P,J2,15,Pin_15*%
%TO.N,Board_6-/B8*%
X166107500Y-94382500D03*
D17*
%TO.P,J2,16,Pin_16*%
%TO.N,Board_6-/A5*%
X166122500Y-91422500D03*
D27*
%TO.P,J2,17,Pin_17*%
%TO.N,Board_6-/B9*%
X163562500Y-94382500D03*
D28*
%TO.P,J2,18,Pin_18*%
%TO.N,Board_6-/A4*%
X163587500Y-91422500D03*
D23*
%TO.P,J2,19,Pin_19*%
%TO.N,Board_6-/B10*%
X161032500Y-94382500D03*
D27*
%TO.P,J2,20,Pin_20*%
%TO.N,Board_6-/A3*%
X161022500Y-91417500D03*
D25*
%TO.P,J2,21,Pin_21*%
%TO.N,Board_6-/B11*%
X158487500Y-94382500D03*
D29*
%TO.P,J2,22,Pin_22*%
%TO.N,Board_6-/A2*%
X158482500Y-91422500D03*
D16*
%TO.P,J2,23,Pin_23*%
%TO.N,Board_6-/B12*%
X155950000Y-94382500D03*
D30*
%TO.P,J2,24,Pin_24*%
%TO.N,Board_6-/A1*%
X155942500Y-91432500D03*
%TD*%
D14*
%TO.P,J2,1,Pin_1*%
%TO.N,Board_7-/B1*%
X226677500Y-94382500D03*
D15*
%TO.P,J2,2,Pin_2*%
%TO.N,Board_7-/A12*%
X226712500Y-91422500D03*
D16*
%TO.P,J2,3,Pin_3*%
%TO.N,Board_7-/B2*%
X224130000Y-94382500D03*
D17*
%TO.P,J2,4,Pin_4*%
%TO.N,Board_7-/A11*%
X224122500Y-91422500D03*
D18*
%TO.P,J2,5,Pin_5*%
%TO.N,Board_7-/B3*%
X221597500Y-94387500D03*
D19*
%TO.P,J2,6,Pin_6*%
%TO.N,Board_7-/A10*%
X221612500Y-91427500D03*
D20*
%TO.P,J2,7,Pin_7*%
%TO.N,Board_7-/B4*%
X219047500Y-94387500D03*
D21*
%TO.P,J2,8,Pin_8*%
%TO.N,Board_7-/A9*%
X219077500Y-91422500D03*
D16*
%TO.P,J2,9,Pin_9*%
%TO.N,Board_7-/B5*%
X216510000Y-94382500D03*
D22*
%TO.P,J2,10,Pin_10*%
%TO.N,Board_7-/A8*%
X216512500Y-91427500D03*
D23*
%TO.P,J2,11,Pin_11*%
%TO.N,Board_7-/B6*%
X213972500Y-94382500D03*
D24*
%TO.P,J2,12,Pin_12*%
%TO.N,Board_7-/A7*%
X213957500Y-91422500D03*
D25*
%TO.P,J2,13,Pin_13*%
%TO.N,Board_7-/B7*%
X211427500Y-94382500D03*
D26*
%TO.P,J2,14,Pin_14*%
%TO.N,Board_7-/A6*%
X211437500Y-91422500D03*
D25*
%TO.P,J2,15,Pin_15*%
%TO.N,Board_7-/B8*%
X208887500Y-94382500D03*
D17*
%TO.P,J2,16,Pin_16*%
%TO.N,Board_7-/A5*%
X208902500Y-91422500D03*
D27*
%TO.P,J2,17,Pin_17*%
%TO.N,Board_7-/B9*%
X206342500Y-94382500D03*
D28*
%TO.P,J2,18,Pin_18*%
%TO.N,Board_7-/A4*%
X206367500Y-91422500D03*
D23*
%TO.P,J2,19,Pin_19*%
%TO.N,Board_7-/B10*%
X203812500Y-94382500D03*
D27*
%TO.P,J2,20,Pin_20*%
%TO.N,Board_7-/A3*%
X203802500Y-91417500D03*
D25*
%TO.P,J2,21,Pin_21*%
%TO.N,Board_7-/B11*%
X201267500Y-94382500D03*
D29*
%TO.P,J2,22,Pin_22*%
%TO.N,Board_7-/A2*%
X201262500Y-91422500D03*
D16*
%TO.P,J2,23,Pin_23*%
%TO.N,Board_7-/B12*%
X198730000Y-94382500D03*
D30*
%TO.P,J2,24,Pin_24*%
%TO.N,Board_7-/A1*%
X198722500Y-91432500D03*
%TD*%
D14*
%TO.P,J2,1,Pin_1*%
%TO.N,Board_10-/B1*%
X183897500Y-136352500D03*
D15*
%TO.P,J2,2,Pin_2*%
%TO.N,Board_10-/A12*%
X183932500Y-133392500D03*
D16*
%TO.P,J2,3,Pin_3*%
%TO.N,Board_10-/B2*%
X181350000Y-136352500D03*
D17*
%TO.P,J2,4,Pin_4*%
%TO.N,Board_10-/A11*%
X181342500Y-133392500D03*
D18*
%TO.P,J2,5,Pin_5*%
%TO.N,Board_10-/B3*%
X178817500Y-136357500D03*
D19*
%TO.P,J2,6,Pin_6*%
%TO.N,Board_10-/A10*%
X178832500Y-133397500D03*
D20*
%TO.P,J2,7,Pin_7*%
%TO.N,Board_10-/B4*%
X176267500Y-136357500D03*
D21*
%TO.P,J2,8,Pin_8*%
%TO.N,Board_10-/A9*%
X176297500Y-133392500D03*
D16*
%TO.P,J2,9,Pin_9*%
%TO.N,Board_10-/B5*%
X173730000Y-136352500D03*
D22*
%TO.P,J2,10,Pin_10*%
%TO.N,Board_10-/A8*%
X173732500Y-133397500D03*
D23*
%TO.P,J2,11,Pin_11*%
%TO.N,Board_10-/B6*%
X171192500Y-136352500D03*
D24*
%TO.P,J2,12,Pin_12*%
%TO.N,Board_10-/A7*%
X171177500Y-133392500D03*
D25*
%TO.P,J2,13,Pin_13*%
%TO.N,Board_10-/B7*%
X168647500Y-136352500D03*
D26*
%TO.P,J2,14,Pin_14*%
%TO.N,Board_10-/A6*%
X168657500Y-133392500D03*
D25*
%TO.P,J2,15,Pin_15*%
%TO.N,Board_10-/B8*%
X166107500Y-136352500D03*
D17*
%TO.P,J2,16,Pin_16*%
%TO.N,Board_10-/A5*%
X166122500Y-133392500D03*
D27*
%TO.P,J2,17,Pin_17*%
%TO.N,Board_10-/B9*%
X163562500Y-136352500D03*
D28*
%TO.P,J2,18,Pin_18*%
%TO.N,Board_10-/A4*%
X163587500Y-133392500D03*
D23*
%TO.P,J2,19,Pin_19*%
%TO.N,Board_10-/B10*%
X161032500Y-136352500D03*
D27*
%TO.P,J2,20,Pin_20*%
%TO.N,Board_10-/A3*%
X161022500Y-133387500D03*
D25*
%TO.P,J2,21,Pin_21*%
%TO.N,Board_10-/B11*%
X158487500Y-136352500D03*
D29*
%TO.P,J2,22,Pin_22*%
%TO.N,Board_10-/A2*%
X158482500Y-133392500D03*
D16*
%TO.P,J2,23,Pin_23*%
%TO.N,Board_10-/B12*%
X155950000Y-136352500D03*
D30*
%TO.P,J2,24,Pin_24*%
%TO.N,Board_10-/A1*%
X155942500Y-133402500D03*
%TD*%
D14*
%TO.P,J2,1,Pin_1*%
%TO.N,Board_9-/B1*%
X141117500Y-136352500D03*
D15*
%TO.P,J2,2,Pin_2*%
%TO.N,Board_9-/A12*%
X141152500Y-133392500D03*
D16*
%TO.P,J2,3,Pin_3*%
%TO.N,Board_9-/B2*%
X138570000Y-136352500D03*
D17*
%TO.P,J2,4,Pin_4*%
%TO.N,Board_9-/A11*%
X138562500Y-133392500D03*
D18*
%TO.P,J2,5,Pin_5*%
%TO.N,Board_9-/B3*%
X136037500Y-136357500D03*
D19*
%TO.P,J2,6,Pin_6*%
%TO.N,Board_9-/A10*%
X136052500Y-133397500D03*
D20*
%TO.P,J2,7,Pin_7*%
%TO.N,Board_9-/B4*%
X133487500Y-136357500D03*
D21*
%TO.P,J2,8,Pin_8*%
%TO.N,Board_9-/A9*%
X133517500Y-133392500D03*
D16*
%TO.P,J2,9,Pin_9*%
%TO.N,Board_9-/B5*%
X130950000Y-136352500D03*
D22*
%TO.P,J2,10,Pin_10*%
%TO.N,Board_9-/A8*%
X130952500Y-133397500D03*
D23*
%TO.P,J2,11,Pin_11*%
%TO.N,Board_9-/B6*%
X128412500Y-136352500D03*
D24*
%TO.P,J2,12,Pin_12*%
%TO.N,Board_9-/A7*%
X128397500Y-133392500D03*
D25*
%TO.P,J2,13,Pin_13*%
%TO.N,Board_9-/B7*%
X125867500Y-136352500D03*
D26*
%TO.P,J2,14,Pin_14*%
%TO.N,Board_9-/A6*%
X125877500Y-133392500D03*
D25*
%TO.P,J2,15,Pin_15*%
%TO.N,Board_9-/B8*%
X123327500Y-136352500D03*
D17*
%TO.P,J2,16,Pin_16*%
%TO.N,Board_9-/A5*%
X123342500Y-133392500D03*
D27*
%TO.P,J2,17,Pin_17*%
%TO.N,Board_9-/B9*%
X120782500Y-136352500D03*
D28*
%TO.P,J2,18,Pin_18*%
%TO.N,Board_9-/A4*%
X120807500Y-133392500D03*
D23*
%TO.P,J2,19,Pin_19*%
%TO.N,Board_9-/B10*%
X118252500Y-136352500D03*
D27*
%TO.P,J2,20,Pin_20*%
%TO.N,Board_9-/A3*%
X118242500Y-133387500D03*
D25*
%TO.P,J2,21,Pin_21*%
%TO.N,Board_9-/B11*%
X115707500Y-136352500D03*
D29*
%TO.P,J2,22,Pin_22*%
%TO.N,Board_9-/A2*%
X115702500Y-133392500D03*
D16*
%TO.P,J2,23,Pin_23*%
%TO.N,Board_9-/B12*%
X113170000Y-136352500D03*
D30*
%TO.P,J2,24,Pin_24*%
%TO.N,Board_9-/A1*%
X113162500Y-133402500D03*
%TD*%
D32*
%TO.N,Board_0-/B1*%
X87111000Y-35039500D02*
X87120000Y-35030500D01*
X88460000Y-38940000D02*
X87111000Y-37591000D01*
X90530000Y-38940000D02*
X88460000Y-38940000D01*
X99680000Y-48090000D02*
X90530000Y-38940000D01*
X98350000Y-52210000D02*
X99680000Y-50880000D01*
X87111000Y-37591000D02*
X87111000Y-35039500D01*
X99680000Y-50880000D02*
X99680000Y-48090000D01*
%TO.N,Board_0-/B10*%
X74210000Y-48222900D02*
X82700000Y-39732900D01*
X82700000Y-35910000D02*
X82700000Y-35113000D01*
X74210000Y-50930000D02*
X74210000Y-48222900D01*
X82700000Y-35910000D02*
X82700000Y-35595546D01*
X82700000Y-35113000D02*
X82617500Y-35030500D01*
X75490000Y-52210000D02*
X74210000Y-50930000D01*
X82700000Y-39732900D02*
X82700000Y-35910000D01*
%TO.N,Board_0-/B11*%
X79190000Y-39550000D02*
X81357000Y-39550000D01*
X72950000Y-52210000D02*
X71650000Y-50910000D01*
X71650000Y-47090000D02*
X79190000Y-39550000D01*
X71650000Y-50910000D02*
X71650000Y-47090000D01*
X81357000Y-39550000D02*
X82153500Y-38753500D01*
X82153500Y-38753500D02*
X82153500Y-35070500D01*
X82153500Y-35070500D02*
X82113500Y-35030500D01*
%TO.N,Board_0-/B12*%
X69090000Y-50890000D02*
X69090000Y-47700000D01*
X70410000Y-52210000D02*
X69090000Y-50890000D01*
X69090000Y-47700000D02*
X77880000Y-38910000D01*
X80486000Y-38910000D02*
X81696000Y-37700000D01*
X81696000Y-35106500D02*
X81620000Y-35030500D01*
X77880000Y-38910000D02*
X80486000Y-38910000D01*
X81696000Y-37700000D02*
X81696000Y-35106500D01*
%TO.N,Board_0-/B2*%
X95810000Y-52210000D02*
X97040000Y-50980000D01*
X89700000Y-39740000D02*
X87500000Y-39740000D01*
X97040000Y-50980000D02*
X97040000Y-47080000D01*
X86660000Y-38900000D02*
X86660000Y-35070500D01*
X97040000Y-47080000D02*
X89700000Y-39740000D01*
X86660000Y-35070500D02*
X86620000Y-35030500D01*
X87500000Y-39740000D02*
X86660000Y-38900000D01*
%TO.N,Board_0-/B3*%
X93270000Y-52210000D02*
X94530000Y-50950000D01*
X86160000Y-35070500D02*
X86120000Y-35030500D01*
X86160000Y-39230000D02*
X86160000Y-35070500D01*
X94530000Y-47600000D02*
X86160000Y-39230000D01*
X94530000Y-50950000D02*
X94530000Y-47600000D01*
%TO.N,Board_0-/B4*%
X85660000Y-35070500D02*
X85620000Y-35030500D01*
X91970000Y-45870000D02*
X85660000Y-39560000D01*
X85660000Y-39560000D02*
X85660000Y-35070500D01*
X91970000Y-50970000D02*
X91970000Y-45870000D01*
X90730000Y-52210000D02*
X91970000Y-50970000D01*
%TO.N,Board_0-/B5*%
X89441739Y-50958261D02*
X89441739Y-44901739D01*
X89441739Y-44901739D02*
X85160000Y-40620000D01*
X88190000Y-52210000D02*
X89441739Y-50958261D01*
X85160000Y-35070500D02*
X85120000Y-35030500D01*
X85160000Y-40620000D02*
X85160000Y-35070500D01*
%TO.N,Board_0-/B6*%
X86910000Y-50950000D02*
X86910000Y-45080000D01*
X86910000Y-45080000D02*
X84660000Y-42830000D01*
X84660000Y-42830000D02*
X84660000Y-35070500D01*
X85650000Y-52210000D02*
X86910000Y-50950000D01*
X84660000Y-35070500D02*
X84620000Y-35030500D01*
%TO.N,Board_0-/B7*%
X81840000Y-50940000D02*
X81840000Y-45170000D01*
X84160000Y-35070500D02*
X84120000Y-35030500D01*
X83110000Y-52210000D02*
X81840000Y-50940000D01*
X84160000Y-42850000D02*
X84160000Y-35070500D01*
X81840000Y-45170000D02*
X84160000Y-42850000D01*
%TO.N,Board_0-/B8*%
X83660000Y-40620000D02*
X83660000Y-35070500D01*
X79290000Y-50930000D02*
X79290000Y-44990000D01*
X80570000Y-52210000D02*
X79290000Y-50930000D01*
X83660000Y-35070500D02*
X83620000Y-35030500D01*
X79290000Y-44990000D02*
X83660000Y-40620000D01*
%TO.N,Board_0-/B9*%
X76740000Y-46260000D02*
X83160000Y-39840000D01*
X83160000Y-35070500D02*
X83120000Y-35030500D01*
X83160000Y-39840000D02*
X83160000Y-35070500D01*
X76740000Y-50920000D02*
X76740000Y-46260000D01*
X78030000Y-52210000D02*
X76740000Y-50920000D01*
%TO.N,Board_1-/B1*%
X133310000Y-38940000D02*
X131240000Y-38940000D01*
X142460000Y-48090000D02*
X133310000Y-38940000D01*
X131240000Y-38940000D02*
X129891000Y-37591000D01*
X142460000Y-50880000D02*
X142460000Y-48090000D01*
X129891000Y-35039500D02*
X129900000Y-35030500D01*
X141130000Y-52210000D02*
X142460000Y-50880000D01*
X129891000Y-37591000D02*
X129891000Y-35039500D01*
%TO.N,Board_1-/B10*%
X116990000Y-50930000D02*
X116990000Y-48222900D01*
X125480000Y-39732900D02*
X125480000Y-35910000D01*
X125480000Y-35113000D02*
X125397500Y-35030500D01*
X118270000Y-52210000D02*
X116990000Y-50930000D01*
X125480000Y-35910000D02*
X125480000Y-35113000D01*
X116990000Y-48222900D02*
X125480000Y-39732900D01*
X125480000Y-35910000D02*
X125480000Y-35595546D01*
%TO.N,Board_1-/B11*%
X121970000Y-39550000D02*
X124137000Y-39550000D01*
X124137000Y-39550000D02*
X124933500Y-38753500D01*
X124933500Y-35070500D02*
X124893500Y-35030500D01*
X114430000Y-50910000D02*
X114430000Y-47090000D01*
X114430000Y-47090000D02*
X121970000Y-39550000D01*
X124933500Y-38753500D02*
X124933500Y-35070500D01*
X115730000Y-52210000D02*
X114430000Y-50910000D01*
%TO.N,Board_1-/B12*%
X120660000Y-38910000D02*
X123266000Y-38910000D01*
X113190000Y-52210000D02*
X111870000Y-50890000D01*
X124476000Y-35106500D02*
X124400000Y-35030500D01*
X111870000Y-47700000D02*
X120660000Y-38910000D01*
X124476000Y-37700000D02*
X124476000Y-35106500D01*
X111870000Y-50890000D02*
X111870000Y-47700000D01*
X123266000Y-38910000D02*
X124476000Y-37700000D01*
%TO.N,Board_1-/B2*%
X129440000Y-35070500D02*
X129400000Y-35030500D01*
X129440000Y-38900000D02*
X129440000Y-35070500D01*
X139820000Y-50980000D02*
X139820000Y-47080000D01*
X139820000Y-47080000D02*
X132480000Y-39740000D01*
X130280000Y-39740000D02*
X129440000Y-38900000D01*
X138590000Y-52210000D02*
X139820000Y-50980000D01*
X132480000Y-39740000D02*
X130280000Y-39740000D01*
%TO.N,Board_1-/B3*%
X137310000Y-50950000D02*
X137310000Y-47600000D01*
X136050000Y-52210000D02*
X137310000Y-50950000D01*
X128940000Y-39230000D02*
X128940000Y-35070500D01*
X128940000Y-35070500D02*
X128900000Y-35030500D01*
X137310000Y-47600000D02*
X128940000Y-39230000D01*
%TO.N,Board_1-/B4*%
X133510000Y-52210000D02*
X134750000Y-50970000D01*
X134750000Y-45870000D02*
X128440000Y-39560000D01*
X128440000Y-35070500D02*
X128400000Y-35030500D01*
X134750000Y-50970000D02*
X134750000Y-45870000D01*
X128440000Y-39560000D02*
X128440000Y-35070500D01*
%TO.N,Board_1-/B5*%
X130970000Y-52210000D02*
X132221739Y-50958261D01*
X127940000Y-40620000D02*
X127940000Y-35070500D01*
X132221739Y-44901739D02*
X127940000Y-40620000D01*
X127940000Y-35070500D02*
X127900000Y-35030500D01*
X132221739Y-50958261D02*
X132221739Y-44901739D01*
%TO.N,Board_1-/B6*%
X128430000Y-52210000D02*
X129690000Y-50950000D01*
X127440000Y-35070500D02*
X127400000Y-35030500D01*
X127440000Y-42830000D02*
X127440000Y-35070500D01*
X129690000Y-50950000D02*
X129690000Y-45080000D01*
X129690000Y-45080000D02*
X127440000Y-42830000D01*
%TO.N,Board_1-/B7*%
X125890000Y-52210000D02*
X124620000Y-50940000D01*
X126940000Y-35070500D02*
X126900000Y-35030500D01*
X126940000Y-42850000D02*
X126940000Y-35070500D01*
X124620000Y-50940000D02*
X124620000Y-45170000D01*
X124620000Y-45170000D02*
X126940000Y-42850000D01*
%TO.N,Board_1-/B8*%
X122070000Y-50930000D02*
X122070000Y-44990000D01*
X126440000Y-35070500D02*
X126400000Y-35030500D01*
X122070000Y-44990000D02*
X126440000Y-40620000D01*
X123350000Y-52210000D02*
X122070000Y-50930000D01*
X126440000Y-40620000D02*
X126440000Y-35070500D01*
%TO.N,Board_1-/B9*%
X119520000Y-46260000D02*
X125940000Y-39840000D01*
X119520000Y-50920000D02*
X119520000Y-46260000D01*
X125940000Y-35070500D02*
X125900000Y-35030500D01*
X125940000Y-39840000D02*
X125940000Y-35070500D01*
X120810000Y-52210000D02*
X119520000Y-50920000D01*
%TO.N,Board_2-/B1*%
X185240000Y-48090000D02*
X176090000Y-38940000D01*
X176090000Y-38940000D02*
X174020000Y-38940000D01*
X183910000Y-52210000D02*
X185240000Y-50880000D01*
X172671000Y-35039500D02*
X172680000Y-35030500D01*
X174020000Y-38940000D02*
X172671000Y-37591000D01*
X185240000Y-50880000D02*
X185240000Y-48090000D01*
X172671000Y-37591000D02*
X172671000Y-35039500D01*
%TO.N,Board_2-/B10*%
X168260000Y-35113000D02*
X168177500Y-35030500D01*
X159770000Y-50930000D02*
X159770000Y-48222900D01*
X159770000Y-48222900D02*
X168260000Y-39732900D01*
X161050000Y-52210000D02*
X159770000Y-50930000D01*
X168260000Y-39732900D02*
X168260000Y-35910000D01*
X168260000Y-35910000D02*
X168260000Y-35113000D01*
X168260000Y-35910000D02*
X168260000Y-35595546D01*
%TO.N,Board_2-/B11*%
X158510000Y-52210000D02*
X157210000Y-50910000D01*
X164750000Y-39550000D02*
X166917000Y-39550000D01*
X157210000Y-47090000D02*
X164750000Y-39550000D01*
X157210000Y-50910000D02*
X157210000Y-47090000D01*
X166917000Y-39550000D02*
X167713500Y-38753500D01*
X167713500Y-38753500D02*
X167713500Y-35070500D01*
X167713500Y-35070500D02*
X167673500Y-35030500D01*
%TO.N,Board_2-/B12*%
X167256000Y-35106500D02*
X167180000Y-35030500D01*
X154650000Y-47700000D02*
X163440000Y-38910000D01*
X155970000Y-52210000D02*
X154650000Y-50890000D01*
X167256000Y-37700000D02*
X167256000Y-35106500D01*
X166046000Y-38910000D02*
X167256000Y-37700000D01*
X163440000Y-38910000D02*
X166046000Y-38910000D01*
X154650000Y-50890000D02*
X154650000Y-47700000D01*
%TO.N,Board_2-/B2*%
X172220000Y-38900000D02*
X172220000Y-35070500D01*
X173060000Y-39740000D02*
X172220000Y-38900000D01*
X181370000Y-52210000D02*
X182600000Y-50980000D01*
X182600000Y-47080000D02*
X175260000Y-39740000D01*
X172220000Y-35070500D02*
X172180000Y-35030500D01*
X182600000Y-50980000D02*
X182600000Y-47080000D01*
X175260000Y-39740000D02*
X173060000Y-39740000D01*
%TO.N,Board_2-/B3*%
X180090000Y-50950000D02*
X180090000Y-47600000D01*
X171720000Y-39230000D02*
X171720000Y-35070500D01*
X180090000Y-47600000D02*
X171720000Y-39230000D01*
X171720000Y-35070500D02*
X171680000Y-35030500D01*
X178830000Y-52210000D02*
X180090000Y-50950000D01*
%TO.N,Board_2-/B4*%
X171220000Y-35070500D02*
X171180000Y-35030500D01*
X171220000Y-39560000D02*
X171220000Y-35070500D01*
X176290000Y-52210000D02*
X177530000Y-50970000D01*
X177530000Y-50970000D02*
X177530000Y-45870000D01*
X177530000Y-45870000D02*
X171220000Y-39560000D01*
%TO.N,Board_2-/B5*%
X173750000Y-52210000D02*
X175001739Y-50958261D01*
X170720000Y-35070500D02*
X170680000Y-35030500D01*
X175001739Y-44901739D02*
X170720000Y-40620000D01*
X170720000Y-40620000D02*
X170720000Y-35070500D01*
X175001739Y-50958261D02*
X175001739Y-44901739D01*
%TO.N,Board_2-/B6*%
X170220000Y-35070500D02*
X170180000Y-35030500D01*
X172470000Y-45080000D02*
X170220000Y-42830000D01*
X171210000Y-52210000D02*
X172470000Y-50950000D01*
X170220000Y-42830000D02*
X170220000Y-35070500D01*
X172470000Y-50950000D02*
X172470000Y-45080000D01*
%TO.N,Board_2-/B7*%
X167400000Y-50940000D02*
X167400000Y-45170000D01*
X167400000Y-45170000D02*
X169720000Y-42850000D01*
X169720000Y-35070500D02*
X169680000Y-35030500D01*
X168670000Y-52210000D02*
X167400000Y-50940000D01*
X169720000Y-42850000D02*
X169720000Y-35070500D01*
%TO.N,Board_2-/B8*%
X166130000Y-52210000D02*
X164850000Y-50930000D01*
X169220000Y-40620000D02*
X169220000Y-35070500D01*
X169220000Y-35070500D02*
X169180000Y-35030500D01*
X164850000Y-50930000D02*
X164850000Y-44990000D01*
X164850000Y-44990000D02*
X169220000Y-40620000D01*
%TO.N,Board_2-/B9*%
X162300000Y-50920000D02*
X162300000Y-46260000D01*
X168720000Y-39840000D02*
X168720000Y-35070500D01*
X168720000Y-35070500D02*
X168680000Y-35030500D01*
X163590000Y-52210000D02*
X162300000Y-50920000D01*
X162300000Y-46260000D02*
X168720000Y-39840000D01*
%TO.N,Board_3-/B1*%
X226690000Y-52210000D02*
X228020000Y-50880000D01*
X215451000Y-37591000D02*
X215451000Y-35039500D01*
X215451000Y-35039500D02*
X215460000Y-35030500D01*
X216800000Y-38940000D02*
X215451000Y-37591000D01*
X218870000Y-38940000D02*
X216800000Y-38940000D01*
X228020000Y-48090000D02*
X218870000Y-38940000D01*
X228020000Y-50880000D02*
X228020000Y-48090000D01*
%TO.N,Board_3-/B10*%
X211040000Y-35910000D02*
X211040000Y-35595546D01*
X203830000Y-52210000D02*
X202550000Y-50930000D01*
X211040000Y-39732900D02*
X211040000Y-35910000D01*
X211040000Y-35910000D02*
X211040000Y-35113000D01*
X202550000Y-50930000D02*
X202550000Y-48222900D01*
X202550000Y-48222900D02*
X211040000Y-39732900D01*
X211040000Y-35113000D02*
X210957500Y-35030500D01*
%TO.N,Board_3-/B11*%
X201290000Y-52210000D02*
X199990000Y-50910000D01*
X207530000Y-39550000D02*
X209697000Y-39550000D01*
X210493500Y-38753500D02*
X210493500Y-35070500D01*
X199990000Y-47090000D02*
X207530000Y-39550000D01*
X210493500Y-35070500D02*
X210453500Y-35030500D01*
X199990000Y-50910000D02*
X199990000Y-47090000D01*
X209697000Y-39550000D02*
X210493500Y-38753500D01*
%TO.N,Board_3-/B12*%
X197430000Y-47700000D02*
X206220000Y-38910000D01*
X208826000Y-38910000D02*
X210036000Y-37700000D01*
X210036000Y-35106500D02*
X209960000Y-35030500D01*
X198750000Y-52210000D02*
X197430000Y-50890000D01*
X206220000Y-38910000D02*
X208826000Y-38910000D01*
X197430000Y-50890000D02*
X197430000Y-47700000D01*
X210036000Y-37700000D02*
X210036000Y-35106500D01*
%TO.N,Board_3-/B2*%
X224150000Y-52210000D02*
X225380000Y-50980000D01*
X225380000Y-50980000D02*
X225380000Y-47080000D01*
X215840000Y-39740000D02*
X215000000Y-38900000D01*
X225380000Y-47080000D02*
X218040000Y-39740000D01*
X218040000Y-39740000D02*
X215840000Y-39740000D01*
X215000000Y-38900000D02*
X215000000Y-35070500D01*
X215000000Y-35070500D02*
X214960000Y-35030500D01*
%TO.N,Board_3-/B3*%
X222870000Y-50950000D02*
X222870000Y-47600000D01*
X222870000Y-47600000D02*
X214500000Y-39230000D01*
X214500000Y-35070500D02*
X214460000Y-35030500D01*
X214500000Y-39230000D02*
X214500000Y-35070500D01*
X221610000Y-52210000D02*
X222870000Y-50950000D01*
%TO.N,Board_3-/B4*%
X219070000Y-52210000D02*
X220310000Y-50970000D01*
X214000000Y-39560000D02*
X214000000Y-35070500D01*
X220310000Y-50970000D02*
X220310000Y-45870000D01*
X214000000Y-35070500D02*
X213960000Y-35030500D01*
X220310000Y-45870000D02*
X214000000Y-39560000D01*
%TO.N,Board_3-/B5*%
X217781739Y-50958261D02*
X217781739Y-44901739D01*
X216530000Y-52210000D02*
X217781739Y-50958261D01*
X217781739Y-44901739D02*
X213500000Y-40620000D01*
X213500000Y-35070500D02*
X213460000Y-35030500D01*
X213500000Y-40620000D02*
X213500000Y-35070500D01*
%TO.N,Board_3-/B6*%
X213990000Y-52210000D02*
X215250000Y-50950000D01*
X213000000Y-35070500D02*
X212960000Y-35030500D01*
X215250000Y-50950000D02*
X215250000Y-45080000D01*
X213000000Y-42830000D02*
X213000000Y-35070500D01*
X215250000Y-45080000D02*
X213000000Y-42830000D01*
%TO.N,Board_3-/B7*%
X211450000Y-52210000D02*
X210180000Y-50940000D01*
X212500000Y-35070500D02*
X212460000Y-35030500D01*
X210180000Y-50940000D02*
X210180000Y-45170000D01*
X210180000Y-45170000D02*
X212500000Y-42850000D01*
X212500000Y-42850000D02*
X212500000Y-35070500D01*
%TO.N,Board_3-/B8*%
X208910000Y-52210000D02*
X207630000Y-50930000D01*
X207630000Y-50930000D02*
X207630000Y-44990000D01*
X212000000Y-40620000D02*
X212000000Y-35070500D01*
X212000000Y-35070500D02*
X211960000Y-35030500D01*
X207630000Y-44990000D02*
X212000000Y-40620000D01*
%TO.N,Board_3-/B9*%
X211500000Y-35070500D02*
X211460000Y-35030500D01*
X211500000Y-39840000D02*
X211500000Y-35070500D01*
X205080000Y-46260000D02*
X211500000Y-39840000D01*
X205080000Y-50920000D02*
X205080000Y-46260000D01*
X206370000Y-52210000D02*
X205080000Y-50920000D01*
%TO.N,Board_4-/B1*%
X99680000Y-92850000D02*
X99680000Y-90060000D01*
X99680000Y-90060000D02*
X90530000Y-80910000D01*
X98350000Y-94180000D02*
X99680000Y-92850000D01*
X87111000Y-77009500D02*
X87120000Y-77000500D01*
X88460000Y-80910000D02*
X87111000Y-79561000D01*
X87111000Y-79561000D02*
X87111000Y-77009500D01*
X90530000Y-80910000D02*
X88460000Y-80910000D01*
%TO.N,Board_4-/B10*%
X74210000Y-92900000D02*
X74210000Y-90192900D01*
X82700000Y-81702900D02*
X82700000Y-77880000D01*
X82700000Y-77083000D02*
X82617500Y-77000500D01*
X74210000Y-90192900D02*
X82700000Y-81702900D01*
X75490000Y-94180000D02*
X74210000Y-92900000D01*
X82700000Y-77880000D02*
X82700000Y-77565546D01*
X82700000Y-77880000D02*
X82700000Y-77083000D01*
%TO.N,Board_4-/B11*%
X71650000Y-92880000D02*
X71650000Y-89060000D01*
X79190000Y-81520000D02*
X81357000Y-81520000D01*
X82153500Y-80723500D02*
X82153500Y-77040500D01*
X72950000Y-94180000D02*
X71650000Y-92880000D01*
X82153500Y-77040500D02*
X82113500Y-77000500D01*
X71650000Y-89060000D02*
X79190000Y-81520000D01*
X81357000Y-81520000D02*
X82153500Y-80723500D01*
%TO.N,Board_4-/B12*%
X81696000Y-79670000D02*
X81696000Y-77076500D01*
X80486000Y-80880000D02*
X81696000Y-79670000D01*
X81696000Y-77076500D02*
X81620000Y-77000500D01*
X69090000Y-92860000D02*
X69090000Y-89670000D01*
X70410000Y-94180000D02*
X69090000Y-92860000D01*
X69090000Y-89670000D02*
X77880000Y-80880000D01*
X77880000Y-80880000D02*
X80486000Y-80880000D01*
%TO.N,Board_4-/B2*%
X97040000Y-92950000D02*
X97040000Y-89050000D01*
X86660000Y-80870000D02*
X86660000Y-77040500D01*
X89700000Y-81710000D02*
X87500000Y-81710000D01*
X86660000Y-77040500D02*
X86620000Y-77000500D01*
X97040000Y-89050000D02*
X89700000Y-81710000D01*
X95810000Y-94180000D02*
X97040000Y-92950000D01*
X87500000Y-81710000D02*
X86660000Y-80870000D01*
%TO.N,Board_4-/B3*%
X86160000Y-81200000D02*
X86160000Y-77040500D01*
X94530000Y-92920000D02*
X94530000Y-89570000D01*
X94530000Y-89570000D02*
X86160000Y-81200000D01*
X93270000Y-94180000D02*
X94530000Y-92920000D01*
X86160000Y-77040500D02*
X86120000Y-77000500D01*
%TO.N,Board_4-/B4*%
X91970000Y-92940000D02*
X91970000Y-87840000D01*
X91970000Y-87840000D02*
X85660000Y-81530000D01*
X85660000Y-77040500D02*
X85620000Y-77000500D01*
X90730000Y-94180000D02*
X91970000Y-92940000D01*
X85660000Y-81530000D02*
X85660000Y-77040500D01*
%TO.N,Board_4-/B5*%
X85160000Y-82590000D02*
X85160000Y-77040500D01*
X88190000Y-94180000D02*
X89441739Y-92928261D01*
X89441739Y-86871739D02*
X85160000Y-82590000D01*
X89441739Y-92928261D02*
X89441739Y-86871739D01*
X85160000Y-77040500D02*
X85120000Y-77000500D01*
%TO.N,Board_4-/B6*%
X85650000Y-94180000D02*
X86910000Y-92920000D01*
X84660000Y-84800000D02*
X84660000Y-77040500D01*
X86910000Y-87050000D02*
X84660000Y-84800000D01*
X84660000Y-77040500D02*
X84620000Y-77000500D01*
X86910000Y-92920000D02*
X86910000Y-87050000D01*
%TO.N,Board_4-/B7*%
X83110000Y-94180000D02*
X81840000Y-92910000D01*
X84160000Y-84820000D02*
X84160000Y-77040500D01*
X84160000Y-77040500D02*
X84120000Y-77000500D01*
X81840000Y-87140000D02*
X84160000Y-84820000D01*
X81840000Y-92910000D02*
X81840000Y-87140000D01*
%TO.N,Board_4-/B8*%
X83660000Y-77040500D02*
X83620000Y-77000500D01*
X79290000Y-92900000D02*
X79290000Y-86960000D01*
X80570000Y-94180000D02*
X79290000Y-92900000D01*
X83660000Y-82590000D02*
X83660000Y-77040500D01*
X79290000Y-86960000D02*
X83660000Y-82590000D01*
%TO.N,Board_4-/B9*%
X83160000Y-81810000D02*
X83160000Y-77040500D01*
X76740000Y-92890000D02*
X76740000Y-88230000D01*
X76740000Y-88230000D02*
X83160000Y-81810000D01*
X78030000Y-94180000D02*
X76740000Y-92890000D01*
X83160000Y-77040500D02*
X83120000Y-77000500D01*
%TO.N,Board_5-/B1*%
X141130000Y-94180000D02*
X142460000Y-92850000D01*
X129891000Y-79561000D02*
X129891000Y-77009500D01*
X133310000Y-80910000D02*
X131240000Y-80910000D01*
X142460000Y-92850000D02*
X142460000Y-90060000D01*
X142460000Y-90060000D02*
X133310000Y-80910000D01*
X131240000Y-80910000D02*
X129891000Y-79561000D01*
X129891000Y-77009500D02*
X129900000Y-77000500D01*
%TO.N,Board_5-/B10*%
X125480000Y-77083000D02*
X125397500Y-77000500D01*
X116990000Y-90192900D02*
X125480000Y-81702900D01*
X116990000Y-92900000D02*
X116990000Y-90192900D01*
X125480000Y-77880000D02*
X125480000Y-77565546D01*
X125480000Y-81702900D02*
X125480000Y-77880000D01*
X125480000Y-77880000D02*
X125480000Y-77083000D01*
X118270000Y-94180000D02*
X116990000Y-92900000D01*
%TO.N,Board_5-/B11*%
X124137000Y-81520000D02*
X124933500Y-80723500D01*
X114430000Y-92880000D02*
X114430000Y-89060000D01*
X121970000Y-81520000D02*
X124137000Y-81520000D01*
X114430000Y-89060000D02*
X121970000Y-81520000D01*
X124933500Y-80723500D02*
X124933500Y-77040500D01*
X124933500Y-77040500D02*
X124893500Y-77000500D01*
X115730000Y-94180000D02*
X114430000Y-92880000D01*
%TO.N,Board_5-/B12*%
X111870000Y-92860000D02*
X111870000Y-89670000D01*
X111870000Y-89670000D02*
X120660000Y-80880000D01*
X113190000Y-94180000D02*
X111870000Y-92860000D01*
X124476000Y-79670000D02*
X124476000Y-77076500D01*
X123266000Y-80880000D02*
X124476000Y-79670000D01*
X124476000Y-77076500D02*
X124400000Y-77000500D01*
X120660000Y-80880000D02*
X123266000Y-80880000D01*
%TO.N,Board_5-/B2*%
X130280000Y-81710000D02*
X129440000Y-80870000D01*
X139820000Y-92950000D02*
X139820000Y-89050000D01*
X139820000Y-89050000D02*
X132480000Y-81710000D01*
X132480000Y-81710000D02*
X130280000Y-81710000D01*
X129440000Y-77040500D02*
X129400000Y-77000500D01*
X138590000Y-94180000D02*
X139820000Y-92950000D01*
X129440000Y-80870000D02*
X129440000Y-77040500D01*
%TO.N,Board_5-/B3*%
X136050000Y-94180000D02*
X137310000Y-92920000D01*
X128940000Y-77040500D02*
X128900000Y-77000500D01*
X137310000Y-89570000D02*
X128940000Y-81200000D01*
X128940000Y-81200000D02*
X128940000Y-77040500D01*
X137310000Y-92920000D02*
X137310000Y-89570000D01*
%TO.N,Board_5-/B4*%
X134750000Y-92940000D02*
X134750000Y-87840000D01*
X128440000Y-77040500D02*
X128400000Y-77000500D01*
X134750000Y-87840000D02*
X128440000Y-81530000D01*
X128440000Y-81530000D02*
X128440000Y-77040500D01*
X133510000Y-94180000D02*
X134750000Y-92940000D01*
%TO.N,Board_5-/B5*%
X127940000Y-77040500D02*
X127900000Y-77000500D01*
X132221739Y-92928261D02*
X132221739Y-86871739D01*
X132221739Y-86871739D02*
X127940000Y-82590000D01*
X130970000Y-94180000D02*
X132221739Y-92928261D01*
X127940000Y-82590000D02*
X127940000Y-77040500D01*
%TO.N,Board_5-/B6*%
X127440000Y-84800000D02*
X127440000Y-77040500D01*
X127440000Y-77040500D02*
X127400000Y-77000500D01*
X129690000Y-87050000D02*
X127440000Y-84800000D01*
X129690000Y-92920000D02*
X129690000Y-87050000D01*
X128430000Y-94180000D02*
X129690000Y-92920000D01*
%TO.N,Board_5-/B7*%
X124620000Y-87140000D02*
X126940000Y-84820000D01*
X126940000Y-77040500D02*
X126900000Y-77000500D01*
X126940000Y-84820000D02*
X126940000Y-77040500D01*
X124620000Y-92910000D02*
X124620000Y-87140000D01*
X125890000Y-94180000D02*
X124620000Y-92910000D01*
%TO.N,Board_5-/B8*%
X126440000Y-82590000D02*
X126440000Y-77040500D01*
X122070000Y-92900000D02*
X122070000Y-86960000D01*
X122070000Y-86960000D02*
X126440000Y-82590000D01*
X126440000Y-77040500D02*
X126400000Y-77000500D01*
X123350000Y-94180000D02*
X122070000Y-92900000D01*
%TO.N,Board_5-/B9*%
X120810000Y-94180000D02*
X119520000Y-92890000D01*
X125940000Y-81810000D02*
X125940000Y-77040500D01*
X125940000Y-77040500D02*
X125900000Y-77000500D01*
X119520000Y-88230000D02*
X125940000Y-81810000D01*
X119520000Y-92890000D02*
X119520000Y-88230000D01*
%TO.N,Board_6-/B1*%
X183910000Y-94180000D02*
X185240000Y-92850000D01*
X174020000Y-80910000D02*
X172671000Y-79561000D01*
X172671000Y-79561000D02*
X172671000Y-77009500D01*
X176090000Y-80910000D02*
X174020000Y-80910000D01*
X172671000Y-77009500D02*
X172680000Y-77000500D01*
X185240000Y-90060000D02*
X176090000Y-80910000D01*
X185240000Y-92850000D02*
X185240000Y-90060000D01*
%TO.N,Board_6-/B10*%
X168260000Y-81702900D02*
X168260000Y-77880000D01*
X159770000Y-90192900D02*
X168260000Y-81702900D01*
X161050000Y-94180000D02*
X159770000Y-92900000D01*
X168260000Y-77880000D02*
X168260000Y-77083000D01*
X168260000Y-77083000D02*
X168177500Y-77000500D01*
X159770000Y-92900000D02*
X159770000Y-90192900D01*
X168260000Y-77880000D02*
X168260000Y-77565546D01*
%TO.N,Board_6-/B11*%
X164750000Y-81520000D02*
X166917000Y-81520000D01*
X167713500Y-77040500D02*
X167673500Y-77000500D01*
X157210000Y-92880000D02*
X157210000Y-89060000D01*
X157210000Y-89060000D02*
X164750000Y-81520000D01*
X158510000Y-94180000D02*
X157210000Y-92880000D01*
X166917000Y-81520000D02*
X167713500Y-80723500D01*
X167713500Y-80723500D02*
X167713500Y-77040500D01*
%TO.N,Board_6-/B12*%
X154650000Y-92860000D02*
X154650000Y-89670000D01*
X167256000Y-79670000D02*
X167256000Y-77076500D01*
X154650000Y-89670000D02*
X163440000Y-80880000D01*
X167256000Y-77076500D02*
X167180000Y-77000500D01*
X155970000Y-94180000D02*
X154650000Y-92860000D01*
X166046000Y-80880000D02*
X167256000Y-79670000D01*
X163440000Y-80880000D02*
X166046000Y-80880000D01*
%TO.N,Board_6-/B2*%
X175260000Y-81710000D02*
X173060000Y-81710000D01*
X181370000Y-94180000D02*
X182600000Y-92950000D01*
X182600000Y-89050000D02*
X175260000Y-81710000D01*
X182600000Y-92950000D02*
X182600000Y-89050000D01*
X173060000Y-81710000D02*
X172220000Y-80870000D01*
X172220000Y-77040500D02*
X172180000Y-77000500D01*
X172220000Y-80870000D02*
X172220000Y-77040500D01*
%TO.N,Board_6-/B3*%
X178830000Y-94180000D02*
X180090000Y-92920000D01*
X171720000Y-77040500D02*
X171680000Y-77000500D01*
X180090000Y-89570000D02*
X171720000Y-81200000D01*
X171720000Y-81200000D02*
X171720000Y-77040500D01*
X180090000Y-92920000D02*
X180090000Y-89570000D01*
%TO.N,Board_6-/B4*%
X177530000Y-92940000D02*
X177530000Y-87840000D01*
X171220000Y-81530000D02*
X171220000Y-77040500D01*
X177530000Y-87840000D02*
X171220000Y-81530000D01*
X171220000Y-77040500D02*
X171180000Y-77000500D01*
X176290000Y-94180000D02*
X177530000Y-92940000D01*
%TO.N,Board_6-/B5*%
X170720000Y-82590000D02*
X170720000Y-77040500D01*
X175001739Y-86871739D02*
X170720000Y-82590000D01*
X170720000Y-77040500D02*
X170680000Y-77000500D01*
X173750000Y-94180000D02*
X175001739Y-92928261D01*
X175001739Y-92928261D02*
X175001739Y-86871739D01*
%TO.N,Board_6-/B6*%
X170220000Y-77040500D02*
X170180000Y-77000500D01*
X172470000Y-92920000D02*
X172470000Y-87050000D01*
X172470000Y-87050000D02*
X170220000Y-84800000D01*
X170220000Y-84800000D02*
X170220000Y-77040500D01*
X171210000Y-94180000D02*
X172470000Y-92920000D01*
%TO.N,Board_6-/B7*%
X169720000Y-77040500D02*
X169680000Y-77000500D01*
X167400000Y-87140000D02*
X169720000Y-84820000D01*
X168670000Y-94180000D02*
X167400000Y-92910000D01*
X169720000Y-84820000D02*
X169720000Y-77040500D01*
X167400000Y-92910000D02*
X167400000Y-87140000D01*
%TO.N,Board_6-/B8*%
X164850000Y-92900000D02*
X164850000Y-86960000D01*
X169220000Y-77040500D02*
X169180000Y-77000500D01*
X166130000Y-94180000D02*
X164850000Y-92900000D01*
X164850000Y-86960000D02*
X169220000Y-82590000D01*
X169220000Y-82590000D02*
X169220000Y-77040500D01*
%TO.N,Board_6-/B9*%
X162300000Y-88230000D02*
X168720000Y-81810000D01*
X168720000Y-81810000D02*
X168720000Y-77040500D01*
X162300000Y-92890000D02*
X162300000Y-88230000D01*
X163590000Y-94180000D02*
X162300000Y-92890000D01*
X168720000Y-77040500D02*
X168680000Y-77000500D01*
%TO.N,Board_7-/B1*%
X215451000Y-77009500D02*
X215460000Y-77000500D01*
X228020000Y-90060000D02*
X218870000Y-80910000D01*
X226690000Y-94180000D02*
X228020000Y-92850000D01*
X215451000Y-79561000D02*
X215451000Y-77009500D01*
X228020000Y-92850000D02*
X228020000Y-90060000D01*
X218870000Y-80910000D02*
X216800000Y-80910000D01*
X216800000Y-80910000D02*
X215451000Y-79561000D01*
%TO.N,Board_7-/B10*%
X211040000Y-77880000D02*
X211040000Y-77565546D01*
X211040000Y-77083000D02*
X210957500Y-77000500D01*
X203830000Y-94180000D02*
X202550000Y-92900000D01*
X202550000Y-92900000D02*
X202550000Y-90192900D01*
X211040000Y-77880000D02*
X211040000Y-77083000D01*
X211040000Y-81702900D02*
X211040000Y-77880000D01*
X202550000Y-90192900D02*
X211040000Y-81702900D01*
%TO.N,Board_7-/B11*%
X207530000Y-81520000D02*
X209697000Y-81520000D01*
X199990000Y-92880000D02*
X199990000Y-89060000D01*
X210493500Y-77040500D02*
X210453500Y-77000500D01*
X199990000Y-89060000D02*
X207530000Y-81520000D01*
X209697000Y-81520000D02*
X210493500Y-80723500D01*
X201290000Y-94180000D02*
X199990000Y-92880000D01*
X210493500Y-80723500D02*
X210493500Y-77040500D01*
%TO.N,Board_7-/B12*%
X197430000Y-89670000D02*
X206220000Y-80880000D01*
X197430000Y-92860000D02*
X197430000Y-89670000D01*
X206220000Y-80880000D02*
X208826000Y-80880000D01*
X210036000Y-77076500D02*
X209960000Y-77000500D01*
X210036000Y-79670000D02*
X210036000Y-77076500D01*
X198750000Y-94180000D02*
X197430000Y-92860000D01*
X208826000Y-80880000D02*
X210036000Y-79670000D01*
%TO.N,Board_7-/B2*%
X215000000Y-77040500D02*
X214960000Y-77000500D01*
X225380000Y-89050000D02*
X218040000Y-81710000D01*
X224150000Y-94180000D02*
X225380000Y-92950000D01*
X215000000Y-80870000D02*
X215000000Y-77040500D01*
X218040000Y-81710000D02*
X215840000Y-81710000D01*
X215840000Y-81710000D02*
X215000000Y-80870000D01*
X225380000Y-92950000D02*
X225380000Y-89050000D01*
%TO.N,Board_7-/B3*%
X222870000Y-92920000D02*
X222870000Y-89570000D01*
X222870000Y-89570000D02*
X214500000Y-81200000D01*
X214500000Y-77040500D02*
X214460000Y-77000500D01*
X214500000Y-81200000D02*
X214500000Y-77040500D01*
X221610000Y-94180000D02*
X222870000Y-92920000D01*
%TO.N,Board_7-/B4*%
X214000000Y-77040500D02*
X213960000Y-77000500D01*
X220310000Y-87840000D02*
X214000000Y-81530000D01*
X220310000Y-92940000D02*
X220310000Y-87840000D01*
X214000000Y-81530000D02*
X214000000Y-77040500D01*
X219070000Y-94180000D02*
X220310000Y-92940000D01*
%TO.N,Board_7-/B5*%
X217781739Y-92928261D02*
X217781739Y-86871739D01*
X216530000Y-94180000D02*
X217781739Y-92928261D01*
X217781739Y-86871739D02*
X213500000Y-82590000D01*
X213500000Y-77040500D02*
X213460000Y-77000500D01*
X213500000Y-82590000D02*
X213500000Y-77040500D01*
%TO.N,Board_7-/B6*%
X213990000Y-94180000D02*
X215250000Y-92920000D01*
X213000000Y-84800000D02*
X213000000Y-77040500D01*
X215250000Y-87050000D02*
X213000000Y-84800000D01*
X213000000Y-77040500D02*
X212960000Y-77000500D01*
X215250000Y-92920000D02*
X215250000Y-87050000D01*
%TO.N,Board_7-/B7*%
X210180000Y-87140000D02*
X212500000Y-84820000D01*
X211450000Y-94180000D02*
X210180000Y-92910000D01*
X212500000Y-84820000D02*
X212500000Y-77040500D01*
X212500000Y-77040500D02*
X212460000Y-77000500D01*
X210180000Y-92910000D02*
X210180000Y-87140000D01*
%TO.N,Board_7-/B8*%
X212000000Y-82590000D02*
X212000000Y-77040500D01*
X207630000Y-86960000D02*
X212000000Y-82590000D01*
X212000000Y-77040500D02*
X211960000Y-77000500D01*
X208910000Y-94180000D02*
X207630000Y-92900000D01*
X207630000Y-92900000D02*
X207630000Y-86960000D01*
%TO.N,Board_7-/B9*%
X206370000Y-94180000D02*
X205080000Y-92890000D01*
X205080000Y-92890000D02*
X205080000Y-88230000D01*
X211500000Y-81810000D02*
X211500000Y-77040500D01*
X205080000Y-88230000D02*
X211500000Y-81810000D01*
X211500000Y-77040500D02*
X211460000Y-77000500D01*
%TO.N,Board_8-/B1*%
X98350000Y-136150000D02*
X99680000Y-134820000D01*
X90530000Y-122880000D02*
X88460000Y-122880000D01*
X88460000Y-122880000D02*
X87111000Y-121531000D01*
X87111000Y-118979500D02*
X87120000Y-118970500D01*
X99680000Y-134820000D02*
X99680000Y-132030000D01*
X87111000Y-121531000D02*
X87111000Y-118979500D01*
X99680000Y-132030000D02*
X90530000Y-122880000D01*
%TO.N,Board_8-/B10*%
X82700000Y-119053000D02*
X82617500Y-118970500D01*
X82700000Y-119850000D02*
X82700000Y-119053000D01*
X75490000Y-136150000D02*
X74210000Y-134870000D01*
X74210000Y-132162900D02*
X82700000Y-123672900D01*
X74210000Y-134870000D02*
X74210000Y-132162900D01*
X82700000Y-119850000D02*
X82700000Y-119535546D01*
X82700000Y-123672900D02*
X82700000Y-119850000D01*
%TO.N,Board_8-/B11*%
X71650000Y-134850000D02*
X71650000Y-131030000D01*
X71650000Y-131030000D02*
X79190000Y-123490000D01*
X82153500Y-122693500D02*
X82153500Y-119010500D01*
X81357000Y-123490000D02*
X82153500Y-122693500D01*
X72950000Y-136150000D02*
X71650000Y-134850000D01*
X79190000Y-123490000D02*
X81357000Y-123490000D01*
X82153500Y-119010500D02*
X82113500Y-118970500D01*
%TO.N,Board_8-/B12*%
X69090000Y-134830000D02*
X69090000Y-131640000D01*
X77880000Y-122850000D02*
X80486000Y-122850000D01*
X80486000Y-122850000D02*
X81696000Y-121640000D01*
X81696000Y-121640000D02*
X81696000Y-119046500D01*
X69090000Y-131640000D02*
X77880000Y-122850000D01*
X81696000Y-119046500D02*
X81620000Y-118970500D01*
X70410000Y-136150000D02*
X69090000Y-134830000D01*
%TO.N,Board_8-/B2*%
X89700000Y-123680000D02*
X87500000Y-123680000D01*
X97040000Y-131020000D02*
X89700000Y-123680000D01*
X86660000Y-122840000D02*
X86660000Y-119010500D01*
X86660000Y-119010500D02*
X86620000Y-118970500D01*
X95810000Y-136150000D02*
X97040000Y-134920000D01*
X97040000Y-134920000D02*
X97040000Y-131020000D01*
X87500000Y-123680000D02*
X86660000Y-122840000D01*
%TO.N,Board_8-/B3*%
X93270000Y-136150000D02*
X94530000Y-134890000D01*
X94530000Y-131540000D02*
X86160000Y-123170000D01*
X94530000Y-134890000D02*
X94530000Y-131540000D01*
X86160000Y-119010500D02*
X86120000Y-118970500D01*
X86160000Y-123170000D02*
X86160000Y-119010500D01*
%TO.N,Board_8-/B4*%
X90730000Y-136150000D02*
X91970000Y-134910000D01*
X91970000Y-134910000D02*
X91970000Y-129810000D01*
X91970000Y-129810000D02*
X85660000Y-123500000D01*
X85660000Y-123500000D02*
X85660000Y-119010500D01*
X85660000Y-119010500D02*
X85620000Y-118970500D01*
%TO.N,Board_8-/B5*%
X89441739Y-134898261D02*
X89441739Y-128841739D01*
X85160000Y-119010500D02*
X85120000Y-118970500D01*
X89441739Y-128841739D02*
X85160000Y-124560000D01*
X85160000Y-124560000D02*
X85160000Y-119010500D01*
X88190000Y-136150000D02*
X89441739Y-134898261D01*
%TO.N,Board_8-/B6*%
X86910000Y-129020000D02*
X84660000Y-126770000D01*
X84660000Y-126770000D02*
X84660000Y-119010500D01*
X84660000Y-119010500D02*
X84620000Y-118970500D01*
X86910000Y-134890000D02*
X86910000Y-129020000D01*
X85650000Y-136150000D02*
X86910000Y-134890000D01*
%TO.N,Board_8-/B7*%
X83110000Y-136150000D02*
X81840000Y-134880000D01*
X81840000Y-134880000D02*
X81840000Y-129110000D01*
X81840000Y-129110000D02*
X84160000Y-126790000D01*
X84160000Y-126790000D02*
X84160000Y-119010500D01*
X84160000Y-119010500D02*
X84120000Y-118970500D01*
%TO.N,Board_8-/B8*%
X83660000Y-119010500D02*
X83620000Y-118970500D01*
X79290000Y-134870000D02*
X79290000Y-128930000D01*
X83660000Y-124560000D02*
X83660000Y-119010500D01*
X80570000Y-136150000D02*
X79290000Y-134870000D01*
X79290000Y-128930000D02*
X83660000Y-124560000D01*
%TO.N,Board_8-/B9*%
X83160000Y-123780000D02*
X83160000Y-119010500D01*
X83160000Y-119010500D02*
X83120000Y-118970500D01*
X78030000Y-136150000D02*
X76740000Y-134860000D01*
X76740000Y-134860000D02*
X76740000Y-130200000D01*
X76740000Y-130200000D02*
X83160000Y-123780000D01*
%TO.N,Board_9-/B1*%
X141130000Y-136150000D02*
X142460000Y-134820000D01*
X142460000Y-134820000D02*
X142460000Y-132030000D01*
X129891000Y-118979500D02*
X129900000Y-118970500D01*
X129891000Y-121531000D02*
X129891000Y-118979500D01*
X131240000Y-122880000D02*
X129891000Y-121531000D01*
X133310000Y-122880000D02*
X131240000Y-122880000D01*
X142460000Y-132030000D02*
X133310000Y-122880000D01*
%TO.N,Board_9-/B10*%
X125480000Y-123672900D02*
X125480000Y-119850000D01*
X116990000Y-134870000D02*
X116990000Y-132162900D01*
X125480000Y-119850000D02*
X125480000Y-119053000D01*
X125480000Y-119850000D02*
X125480000Y-119535546D01*
X118270000Y-136150000D02*
X116990000Y-134870000D01*
X116990000Y-132162900D02*
X125480000Y-123672900D01*
X125480000Y-119053000D02*
X125397500Y-118970500D01*
%TO.N,Board_9-/B11*%
X114430000Y-134850000D02*
X114430000Y-131030000D01*
X124933500Y-119010500D02*
X124893500Y-118970500D01*
X115730000Y-136150000D02*
X114430000Y-134850000D01*
X124137000Y-123490000D02*
X124933500Y-122693500D01*
X121970000Y-123490000D02*
X124137000Y-123490000D01*
X124933500Y-122693500D02*
X124933500Y-119010500D01*
X114430000Y-131030000D02*
X121970000Y-123490000D01*
%TO.N,Board_9-/B12*%
X123266000Y-122850000D02*
X124476000Y-121640000D01*
X111870000Y-131640000D02*
X120660000Y-122850000D01*
X113190000Y-136150000D02*
X111870000Y-134830000D01*
X111870000Y-134830000D02*
X111870000Y-131640000D01*
X120660000Y-122850000D02*
X123266000Y-122850000D01*
X124476000Y-119046500D02*
X124400000Y-118970500D01*
X124476000Y-121640000D02*
X124476000Y-119046500D01*
%TO.N,Board_9-/B2*%
X132480000Y-123680000D02*
X130280000Y-123680000D01*
X139820000Y-134920000D02*
X139820000Y-131020000D01*
X138590000Y-136150000D02*
X139820000Y-134920000D01*
X129440000Y-119010500D02*
X129400000Y-118970500D01*
X130280000Y-123680000D02*
X129440000Y-122840000D01*
X129440000Y-122840000D02*
X129440000Y-119010500D01*
X139820000Y-131020000D02*
X132480000Y-123680000D01*
%TO.N,Board_9-/B3*%
X128940000Y-123170000D02*
X128940000Y-119010500D01*
X136050000Y-136150000D02*
X137310000Y-134890000D01*
X137310000Y-134890000D02*
X137310000Y-131540000D01*
X137310000Y-131540000D02*
X128940000Y-123170000D01*
X128940000Y-119010500D02*
X128900000Y-118970500D01*
%TO.N,Board_9-/B4*%
X134750000Y-134910000D02*
X134750000Y-129810000D01*
X133510000Y-136150000D02*
X134750000Y-134910000D01*
X128440000Y-123500000D02*
X128440000Y-119010500D01*
X128440000Y-119010500D02*
X128400000Y-118970500D01*
X134750000Y-129810000D02*
X128440000Y-123500000D01*
%TO.N,Board_9-/B5*%
X132221739Y-134898261D02*
X132221739Y-128841739D01*
X127940000Y-119010500D02*
X127900000Y-118970500D01*
X130970000Y-136150000D02*
X132221739Y-134898261D01*
X132221739Y-128841739D02*
X127940000Y-124560000D01*
X127940000Y-124560000D02*
X127940000Y-119010500D01*
%TO.N,Board_9-/B6*%
X127440000Y-126770000D02*
X127440000Y-119010500D01*
X127440000Y-119010500D02*
X127400000Y-118970500D01*
X128430000Y-136150000D02*
X129690000Y-134890000D01*
X129690000Y-129020000D02*
X127440000Y-126770000D01*
X129690000Y-134890000D02*
X129690000Y-129020000D01*
%TO.N,Board_9-/B7*%
X124620000Y-134880000D02*
X124620000Y-129110000D01*
X126940000Y-119010500D02*
X126900000Y-118970500D01*
X125890000Y-136150000D02*
X124620000Y-134880000D01*
X124620000Y-129110000D02*
X126940000Y-126790000D01*
X126940000Y-126790000D02*
X126940000Y-119010500D01*
%TO.N,Board_9-/B8*%
X122070000Y-134870000D02*
X122070000Y-128930000D01*
X123350000Y-136150000D02*
X122070000Y-134870000D01*
X126440000Y-124560000D02*
X126440000Y-119010500D01*
X126440000Y-119010500D02*
X126400000Y-118970500D01*
X122070000Y-128930000D02*
X126440000Y-124560000D01*
%TO.N,Board_9-/B9*%
X120810000Y-136150000D02*
X119520000Y-134860000D01*
X119520000Y-134860000D02*
X119520000Y-130200000D01*
X125940000Y-119010500D02*
X125900000Y-118970500D01*
X125940000Y-123780000D02*
X125940000Y-119010500D01*
X119520000Y-130200000D02*
X125940000Y-123780000D01*
%TO.N,Board_10-/B1*%
X185240000Y-132030000D02*
X176090000Y-122880000D01*
X172671000Y-121531000D02*
X172671000Y-118979500D01*
X176090000Y-122880000D02*
X174020000Y-122880000D01*
X174020000Y-122880000D02*
X172671000Y-121531000D01*
X172671000Y-118979500D02*
X172680000Y-118970500D01*
X183910000Y-136150000D02*
X185240000Y-134820000D01*
X185240000Y-134820000D02*
X185240000Y-132030000D01*
%TO.N,Board_10-/B10*%
X168260000Y-119850000D02*
X168260000Y-119053000D01*
X159770000Y-134870000D02*
X159770000Y-132162900D01*
X168260000Y-119850000D02*
X168260000Y-119535546D01*
X168260000Y-123672900D02*
X168260000Y-119850000D01*
X161050000Y-136150000D02*
X159770000Y-134870000D01*
X168260000Y-119053000D02*
X168177500Y-118970500D01*
X159770000Y-132162900D02*
X168260000Y-123672900D01*
%TO.N,Board_10-/B11*%
X164750000Y-123490000D02*
X166917000Y-123490000D01*
X167713500Y-119010500D02*
X167673500Y-118970500D01*
X166917000Y-123490000D02*
X167713500Y-122693500D01*
X167713500Y-122693500D02*
X167713500Y-119010500D01*
X157210000Y-131030000D02*
X164750000Y-123490000D01*
X158510000Y-136150000D02*
X157210000Y-134850000D01*
X157210000Y-134850000D02*
X157210000Y-131030000D01*
%TO.N,Board_10-/B12*%
X154650000Y-131640000D02*
X163440000Y-122850000D01*
X155970000Y-136150000D02*
X154650000Y-134830000D01*
X166046000Y-122850000D02*
X167256000Y-121640000D01*
X163440000Y-122850000D02*
X166046000Y-122850000D01*
X167256000Y-119046500D02*
X167180000Y-118970500D01*
X167256000Y-121640000D02*
X167256000Y-119046500D01*
X154650000Y-134830000D02*
X154650000Y-131640000D01*
%TO.N,Board_10-/B2*%
X172220000Y-122840000D02*
X172220000Y-119010500D01*
X175260000Y-123680000D02*
X173060000Y-123680000D01*
X181370000Y-136150000D02*
X182600000Y-134920000D01*
X182600000Y-134920000D02*
X182600000Y-131020000D01*
X172220000Y-119010500D02*
X172180000Y-118970500D01*
X182600000Y-131020000D02*
X175260000Y-123680000D01*
X173060000Y-123680000D02*
X172220000Y-122840000D01*
%TO.N,Board_10-/B3*%
X171720000Y-119010500D02*
X171680000Y-118970500D01*
X178830000Y-136150000D02*
X180090000Y-134890000D01*
X171720000Y-123170000D02*
X171720000Y-119010500D01*
X180090000Y-134890000D02*
X180090000Y-131540000D01*
X180090000Y-131540000D02*
X171720000Y-123170000D01*
%TO.N,Board_10-/B4*%
X176290000Y-136150000D02*
X177530000Y-134910000D01*
X171220000Y-119010500D02*
X171180000Y-118970500D01*
X177530000Y-129810000D02*
X171220000Y-123500000D01*
X171220000Y-123500000D02*
X171220000Y-119010500D01*
X177530000Y-134910000D02*
X177530000Y-129810000D01*
%TO.N,Board_10-/B5*%
X175001739Y-128841739D02*
X170720000Y-124560000D01*
X173750000Y-136150000D02*
X175001739Y-134898261D01*
X175001739Y-134898261D02*
X175001739Y-128841739D01*
X170720000Y-119010500D02*
X170680000Y-118970500D01*
X170720000Y-124560000D02*
X170720000Y-119010500D01*
%TO.N,Board_10-/B6*%
X170220000Y-126770000D02*
X170220000Y-119010500D01*
X170220000Y-119010500D02*
X170180000Y-118970500D01*
X172470000Y-134890000D02*
X172470000Y-129020000D01*
X171210000Y-136150000D02*
X172470000Y-134890000D01*
X172470000Y-129020000D02*
X170220000Y-126770000D01*
%TO.N,Board_10-/B7*%
X167400000Y-134880000D02*
X167400000Y-129110000D01*
X168670000Y-136150000D02*
X167400000Y-134880000D01*
X169720000Y-119010500D02*
X169680000Y-118970500D01*
X167400000Y-129110000D02*
X169720000Y-126790000D01*
X169720000Y-126790000D02*
X169720000Y-119010500D01*
%TO.N,Board_10-/B8*%
X164850000Y-134870000D02*
X164850000Y-128930000D01*
X169220000Y-119010500D02*
X169180000Y-118970500D01*
X169220000Y-124560000D02*
X169220000Y-119010500D01*
X166130000Y-136150000D02*
X164850000Y-134870000D01*
X164850000Y-128930000D02*
X169220000Y-124560000D01*
%TO.N,Board_10-/B9*%
X163590000Y-136150000D02*
X162300000Y-134860000D01*
X168720000Y-119010500D02*
X168680000Y-118970500D01*
X168720000Y-123780000D02*
X168720000Y-119010500D01*
X162300000Y-134860000D02*
X162300000Y-130200000D01*
X162300000Y-130200000D02*
X168720000Y-123780000D01*
%TO.N,Board_11-/B1*%
X216800000Y-122880000D02*
X215451000Y-121531000D01*
X228020000Y-132030000D02*
X218870000Y-122880000D01*
X218870000Y-122880000D02*
X216800000Y-122880000D01*
X215451000Y-121531000D02*
X215451000Y-118979500D01*
X215451000Y-118979500D02*
X215460000Y-118970500D01*
X228020000Y-134820000D02*
X228020000Y-132030000D01*
X226690000Y-136150000D02*
X228020000Y-134820000D01*
%TO.N,Board_11-/B10*%
X211040000Y-123672900D02*
X211040000Y-119850000D01*
X211040000Y-119850000D02*
X211040000Y-119053000D01*
X211040000Y-119850000D02*
X211040000Y-119535546D01*
X202550000Y-132162900D02*
X211040000Y-123672900D01*
X202550000Y-134870000D02*
X202550000Y-132162900D01*
X203830000Y-136150000D02*
X202550000Y-134870000D01*
X211040000Y-119053000D02*
X210957500Y-118970500D01*
%TO.N,Board_11-/B11*%
X201290000Y-136150000D02*
X199990000Y-134850000D01*
X210493500Y-119010500D02*
X210453500Y-118970500D01*
X207530000Y-123490000D02*
X209697000Y-123490000D01*
X199990000Y-134850000D02*
X199990000Y-131030000D01*
X210493500Y-122693500D02*
X210493500Y-119010500D01*
X199990000Y-131030000D02*
X207530000Y-123490000D01*
X209697000Y-123490000D02*
X210493500Y-122693500D01*
%TO.N,Board_11-/B12*%
X206220000Y-122850000D02*
X208826000Y-122850000D01*
X210036000Y-119046500D02*
X209960000Y-118970500D01*
X208826000Y-122850000D02*
X210036000Y-121640000D01*
X197430000Y-134830000D02*
X197430000Y-131640000D01*
X197430000Y-131640000D02*
X206220000Y-122850000D01*
X198750000Y-136150000D02*
X197430000Y-134830000D01*
X210036000Y-121640000D02*
X210036000Y-119046500D01*
%TO.N,Board_11-/B2*%
X218040000Y-123680000D02*
X215840000Y-123680000D01*
X224150000Y-136150000D02*
X225380000Y-134920000D01*
X215840000Y-123680000D02*
X215000000Y-122840000D01*
X215000000Y-122840000D02*
X215000000Y-119010500D01*
X225380000Y-134920000D02*
X225380000Y-131020000D01*
X225380000Y-131020000D02*
X218040000Y-123680000D01*
X215000000Y-119010500D02*
X214960000Y-118970500D01*
%TO.N,Board_11-/B3*%
X222870000Y-131540000D02*
X214500000Y-123170000D01*
X221610000Y-136150000D02*
X222870000Y-134890000D01*
X214500000Y-123170000D02*
X214500000Y-119010500D01*
X222870000Y-134890000D02*
X222870000Y-131540000D01*
X214500000Y-119010500D02*
X214460000Y-118970500D01*
%TO.N,Board_11-/B4*%
X220310000Y-129810000D02*
X214000000Y-123500000D01*
X214000000Y-119010500D02*
X213960000Y-118970500D01*
X219070000Y-136150000D02*
X220310000Y-134910000D01*
X214000000Y-123500000D02*
X214000000Y-119010500D01*
X220310000Y-134910000D02*
X220310000Y-129810000D01*
%TO.N,Board_11-/B5*%
X217781739Y-134898261D02*
X217781739Y-128841739D01*
X213500000Y-119010500D02*
X213460000Y-118970500D01*
X213500000Y-124560000D02*
X213500000Y-119010500D01*
X216530000Y-136150000D02*
X217781739Y-134898261D01*
X217781739Y-128841739D02*
X213500000Y-124560000D01*
%TO.N,Board_11-/B6*%
X213000000Y-126770000D02*
X213000000Y-119010500D01*
X215250000Y-129020000D02*
X213000000Y-126770000D01*
X213990000Y-136150000D02*
X215250000Y-134890000D01*
X213000000Y-119010500D02*
X212960000Y-118970500D01*
X215250000Y-134890000D02*
X215250000Y-129020000D01*
%TO.N,Board_11-/B7*%
X212500000Y-126790000D02*
X212500000Y-119010500D01*
X210180000Y-134880000D02*
X210180000Y-129110000D01*
X211450000Y-136150000D02*
X210180000Y-134880000D01*
X212500000Y-119010500D02*
X212460000Y-118970500D01*
X210180000Y-129110000D02*
X212500000Y-126790000D01*
%TO.N,Board_11-/B8*%
X212000000Y-124560000D02*
X212000000Y-119010500D01*
X207630000Y-134870000D02*
X207630000Y-128930000D01*
X207630000Y-128930000D02*
X212000000Y-124560000D01*
X212000000Y-119010500D02*
X211960000Y-118970500D01*
X208910000Y-136150000D02*
X207630000Y-134870000D01*
%TO.N,Board_11-/B9*%
X205080000Y-134860000D02*
X205080000Y-130200000D01*
X211500000Y-123780000D02*
X211500000Y-119010500D01*
X211500000Y-119010500D02*
X211460000Y-118970500D01*
X206370000Y-136150000D02*
X205080000Y-134860000D01*
X205080000Y-130200000D02*
X211500000Y-123780000D01*
%TO.N,Board_12-/B1*%
X98350000Y-178120000D02*
X99680000Y-176790000D01*
X90530000Y-164850000D02*
X88460000Y-164850000D01*
X87111000Y-163501000D02*
X87111000Y-160949500D01*
X99680000Y-176790000D02*
X99680000Y-174000000D01*
X99680000Y-174000000D02*
X90530000Y-164850000D01*
X88460000Y-164850000D02*
X87111000Y-163501000D01*
X87111000Y-160949500D02*
X87120000Y-160940500D01*
%TO.N,Board_12-/B10*%
X82700000Y-165642900D02*
X82700000Y-161820000D01*
X74210000Y-174132900D02*
X82700000Y-165642900D01*
X82700000Y-161820000D02*
X82700000Y-161023000D01*
X82700000Y-161023000D02*
X82617500Y-160940500D01*
X75490000Y-178120000D02*
X74210000Y-176840000D01*
X82700000Y-161820000D02*
X82700000Y-161505546D01*
X74210000Y-176840000D02*
X74210000Y-174132900D01*
%TO.N,Board_12-/B11*%
X79190000Y-165460000D02*
X81357000Y-165460000D01*
X71650000Y-173000000D02*
X79190000Y-165460000D01*
X82153500Y-160980500D02*
X82113500Y-160940500D01*
X82153500Y-164663500D02*
X82153500Y-160980500D01*
X72950000Y-178120000D02*
X71650000Y-176820000D01*
X81357000Y-165460000D02*
X82153500Y-164663500D01*
X71650000Y-176820000D02*
X71650000Y-173000000D01*
%TO.N,Board_12-/B12*%
X81696000Y-163610000D02*
X81696000Y-161016500D01*
X81696000Y-161016500D02*
X81620000Y-160940500D01*
X69090000Y-176800000D02*
X69090000Y-173610000D01*
X70410000Y-178120000D02*
X69090000Y-176800000D01*
X69090000Y-173610000D02*
X77880000Y-164820000D01*
X77880000Y-164820000D02*
X80486000Y-164820000D01*
X80486000Y-164820000D02*
X81696000Y-163610000D01*
%TO.N,Board_12-/B2*%
X87500000Y-165650000D02*
X86660000Y-164810000D01*
X95810000Y-178120000D02*
X97040000Y-176890000D01*
X86660000Y-160980500D02*
X86620000Y-160940500D01*
X97040000Y-176890000D02*
X97040000Y-172990000D01*
X86660000Y-164810000D02*
X86660000Y-160980500D01*
X89700000Y-165650000D02*
X87500000Y-165650000D01*
X97040000Y-172990000D02*
X89700000Y-165650000D01*
%TO.N,Board_12-/B3*%
X94530000Y-173510000D02*
X86160000Y-165140000D01*
X93270000Y-178120000D02*
X94530000Y-176860000D01*
X86160000Y-165140000D02*
X86160000Y-160980500D01*
X94530000Y-176860000D02*
X94530000Y-173510000D01*
X86160000Y-160980500D02*
X86120000Y-160940500D01*
%TO.N,Board_12-/B4*%
X91970000Y-171780000D02*
X85660000Y-165470000D01*
X85660000Y-160980500D02*
X85620000Y-160940500D01*
X85660000Y-165470000D02*
X85660000Y-160980500D01*
X90730000Y-178120000D02*
X91970000Y-176880000D01*
X91970000Y-176880000D02*
X91970000Y-171780000D01*
%TO.N,Board_12-/B5*%
X85160000Y-166530000D02*
X85160000Y-160980500D01*
X88190000Y-178120000D02*
X89441739Y-176868261D01*
X89441739Y-170811739D02*
X85160000Y-166530000D01*
X85160000Y-160980500D02*
X85120000Y-160940500D01*
X89441739Y-176868261D02*
X89441739Y-170811739D01*
%TO.N,Board_12-/B6*%
X86910000Y-176860000D02*
X86910000Y-170990000D01*
X86910000Y-170990000D02*
X84660000Y-168740000D01*
X85650000Y-178120000D02*
X86910000Y-176860000D01*
X84660000Y-168740000D02*
X84660000Y-160980500D01*
X84660000Y-160980500D02*
X84620000Y-160940500D01*
%TO.N,Board_12-/B7*%
X81840000Y-171080000D02*
X84160000Y-168760000D01*
X83110000Y-178120000D02*
X81840000Y-176850000D01*
X81840000Y-176850000D02*
X81840000Y-171080000D01*
X84160000Y-160980500D02*
X84120000Y-160940500D01*
X84160000Y-168760000D02*
X84160000Y-160980500D01*
%TO.N,Board_12-/B8*%
X83660000Y-160980500D02*
X83620000Y-160940500D01*
X79290000Y-170900000D02*
X83660000Y-166530000D01*
X80570000Y-178120000D02*
X79290000Y-176840000D01*
X83660000Y-166530000D02*
X83660000Y-160980500D01*
X79290000Y-176840000D02*
X79290000Y-170900000D01*
%TO.N,Board_12-/B9*%
X83160000Y-165750000D02*
X83160000Y-160980500D01*
X78030000Y-178120000D02*
X76740000Y-176830000D01*
X76740000Y-176830000D02*
X76740000Y-172170000D01*
X83160000Y-160980500D02*
X83120000Y-160940500D01*
X76740000Y-172170000D02*
X83160000Y-165750000D01*
%TO.N,Board_13-/B1*%
X142460000Y-174000000D02*
X133310000Y-164850000D01*
X141130000Y-178120000D02*
X142460000Y-176790000D01*
X131240000Y-164850000D02*
X129891000Y-163501000D01*
X129891000Y-163501000D02*
X129891000Y-160949500D01*
X129891000Y-160949500D02*
X129900000Y-160940500D01*
X133310000Y-164850000D02*
X131240000Y-164850000D01*
X142460000Y-176790000D02*
X142460000Y-174000000D01*
%TO.N,Board_13-/B10*%
X116990000Y-176840000D02*
X116990000Y-174132900D01*
X116990000Y-174132900D02*
X125480000Y-165642900D01*
X118270000Y-178120000D02*
X116990000Y-176840000D01*
X125480000Y-161023000D02*
X125397500Y-160940500D01*
X125480000Y-165642900D02*
X125480000Y-161820000D01*
X125480000Y-161820000D02*
X125480000Y-161505546D01*
X125480000Y-161820000D02*
X125480000Y-161023000D01*
%TO.N,Board_13-/B11*%
X124933500Y-164663500D02*
X124933500Y-160980500D01*
X115730000Y-178120000D02*
X114430000Y-176820000D01*
X124137000Y-165460000D02*
X124933500Y-164663500D01*
X114430000Y-173000000D02*
X121970000Y-165460000D01*
X124933500Y-160980500D02*
X124893500Y-160940500D01*
X114430000Y-176820000D02*
X114430000Y-173000000D01*
X121970000Y-165460000D02*
X124137000Y-165460000D01*
%TO.N,Board_13-/B12*%
X123266000Y-164820000D02*
X124476000Y-163610000D01*
X120660000Y-164820000D02*
X123266000Y-164820000D01*
X124476000Y-163610000D02*
X124476000Y-161016500D01*
X113190000Y-178120000D02*
X111870000Y-176800000D01*
X111870000Y-176800000D02*
X111870000Y-173610000D01*
X111870000Y-173610000D02*
X120660000Y-164820000D01*
X124476000Y-161016500D02*
X124400000Y-160940500D01*
%TO.N,Board_13-/B2*%
X129440000Y-164810000D02*
X129440000Y-160980500D01*
X129440000Y-160980500D02*
X129400000Y-160940500D01*
X139820000Y-176890000D02*
X139820000Y-172990000D01*
X138590000Y-178120000D02*
X139820000Y-176890000D01*
X139820000Y-172990000D02*
X132480000Y-165650000D01*
X130280000Y-165650000D02*
X129440000Y-164810000D01*
X132480000Y-165650000D02*
X130280000Y-165650000D01*
%TO.N,Board_13-/B3*%
X136050000Y-178120000D02*
X137310000Y-176860000D01*
X137310000Y-176860000D02*
X137310000Y-173510000D01*
X128940000Y-165140000D02*
X128940000Y-160980500D01*
X137310000Y-173510000D02*
X128940000Y-165140000D01*
X128940000Y-160980500D02*
X128900000Y-160940500D01*
%TO.N,Board_13-/B4*%
X134750000Y-171780000D02*
X128440000Y-165470000D01*
X134750000Y-176880000D02*
X134750000Y-171780000D01*
X133510000Y-178120000D02*
X134750000Y-176880000D01*
X128440000Y-160980500D02*
X128400000Y-160940500D01*
X128440000Y-165470000D02*
X128440000Y-160980500D01*
%TO.N,Board_13-/B5*%
X127940000Y-160980500D02*
X127900000Y-160940500D01*
X132221739Y-170811739D02*
X127940000Y-166530000D01*
X127940000Y-166530000D02*
X127940000Y-160980500D01*
X132221739Y-176868261D02*
X132221739Y-170811739D01*
X130970000Y-178120000D02*
X132221739Y-176868261D01*
%TO.N,Board_13-/B6*%
X127440000Y-168740000D02*
X127440000Y-160980500D01*
X128430000Y-178120000D02*
X129690000Y-176860000D01*
X127440000Y-160980500D02*
X127400000Y-160940500D01*
X129690000Y-176860000D02*
X129690000Y-170990000D01*
X129690000Y-170990000D02*
X127440000Y-168740000D01*
%TO.N,Board_13-/B7*%
X124620000Y-176850000D02*
X124620000Y-171080000D01*
X126940000Y-160980500D02*
X126900000Y-160940500D01*
X125890000Y-178120000D02*
X124620000Y-176850000D01*
X124620000Y-171080000D02*
X126940000Y-168760000D01*
X126940000Y-168760000D02*
X126940000Y-160980500D01*
%TO.N,Board_13-/B8*%
X126440000Y-166530000D02*
X126440000Y-160980500D01*
X122070000Y-176840000D02*
X122070000Y-170900000D01*
X123350000Y-178120000D02*
X122070000Y-176840000D01*
X122070000Y-170900000D02*
X126440000Y-166530000D01*
X126440000Y-160980500D02*
X126400000Y-160940500D01*
%TO.N,Board_13-/B9*%
X125940000Y-160980500D02*
X125900000Y-160940500D01*
X120810000Y-178120000D02*
X119520000Y-176830000D01*
X119520000Y-176830000D02*
X119520000Y-172170000D01*
X125940000Y-165750000D02*
X125940000Y-160980500D01*
X119520000Y-172170000D02*
X125940000Y-165750000D01*
%TO.N,Board_14-/B1*%
X185240000Y-176790000D02*
X185240000Y-174000000D01*
X183910000Y-178120000D02*
X185240000Y-176790000D01*
X172671000Y-163501000D02*
X172671000Y-160949500D01*
X176090000Y-164850000D02*
X174020000Y-164850000D01*
X172671000Y-160949500D02*
X172680000Y-160940500D01*
X174020000Y-164850000D02*
X172671000Y-163501000D01*
X185240000Y-174000000D02*
X176090000Y-164850000D01*
%TO.N,Board_14-/B10*%
X168260000Y-161820000D02*
X168260000Y-161505546D01*
X168260000Y-165642900D02*
X168260000Y-161820000D01*
X159770000Y-176840000D02*
X159770000Y-174132900D01*
X168260000Y-161023000D02*
X168177500Y-160940500D01*
X161050000Y-178120000D02*
X159770000Y-176840000D01*
X159770000Y-174132900D02*
X168260000Y-165642900D01*
X168260000Y-161820000D02*
X168260000Y-161023000D01*
%TO.N,Board_14-/B11*%
X164750000Y-165460000D02*
X166917000Y-165460000D01*
X158510000Y-178120000D02*
X157210000Y-176820000D01*
X157210000Y-176820000D02*
X157210000Y-173000000D01*
X167713500Y-164663500D02*
X167713500Y-160980500D01*
X157210000Y-173000000D02*
X164750000Y-165460000D01*
X167713500Y-160980500D02*
X167673500Y-160940500D01*
X166917000Y-165460000D02*
X167713500Y-164663500D01*
%TO.N,Board_14-/B12*%
X166046000Y-164820000D02*
X167256000Y-163610000D01*
X154650000Y-173610000D02*
X163440000Y-164820000D01*
X167256000Y-163610000D02*
X167256000Y-161016500D01*
X167256000Y-161016500D02*
X167180000Y-160940500D01*
X163440000Y-164820000D02*
X166046000Y-164820000D01*
X155970000Y-178120000D02*
X154650000Y-176800000D01*
X154650000Y-176800000D02*
X154650000Y-173610000D01*
%TO.N,Board_14-/B2*%
X182600000Y-172990000D02*
X175260000Y-165650000D01*
X172220000Y-160980500D02*
X172180000Y-160940500D01*
X182600000Y-176890000D02*
X182600000Y-172990000D01*
X173060000Y-165650000D02*
X172220000Y-164810000D01*
X181370000Y-178120000D02*
X182600000Y-176890000D01*
X175260000Y-165650000D02*
X173060000Y-165650000D01*
X172220000Y-164810000D02*
X172220000Y-160980500D01*
%TO.N,Board_14-/B3*%
X178830000Y-178120000D02*
X180090000Y-176860000D01*
X171720000Y-160980500D02*
X171680000Y-160940500D01*
X180090000Y-176860000D02*
X180090000Y-173510000D01*
X180090000Y-173510000D02*
X171720000Y-165140000D01*
X171720000Y-165140000D02*
X171720000Y-160980500D01*
%TO.N,Board_14-/B4*%
X177530000Y-176880000D02*
X177530000Y-171780000D01*
X171220000Y-165470000D02*
X171220000Y-160980500D01*
X171220000Y-160980500D02*
X171180000Y-160940500D01*
X176290000Y-178120000D02*
X177530000Y-176880000D01*
X177530000Y-171780000D02*
X171220000Y-165470000D01*
%TO.N,Board_14-/B5*%
X170720000Y-166530000D02*
X170720000Y-160980500D01*
X175001739Y-176868261D02*
X175001739Y-170811739D01*
X175001739Y-170811739D02*
X170720000Y-166530000D01*
X173750000Y-178120000D02*
X175001739Y-176868261D01*
X170720000Y-160980500D02*
X170680000Y-160940500D01*
%TO.N,Board_14-/B6*%
X170220000Y-160980500D02*
X170180000Y-160940500D01*
X171210000Y-178120000D02*
X172470000Y-176860000D01*
X170220000Y-168740000D02*
X170220000Y-160980500D01*
X172470000Y-170990000D02*
X170220000Y-168740000D01*
X172470000Y-176860000D02*
X172470000Y-170990000D01*
%TO.N,Board_14-/B7*%
X167400000Y-171080000D02*
X169720000Y-168760000D01*
X169720000Y-168760000D02*
X169720000Y-160980500D01*
X169720000Y-160980500D02*
X169680000Y-160940500D01*
X168670000Y-178120000D02*
X167400000Y-176850000D01*
X167400000Y-176850000D02*
X167400000Y-171080000D01*
%TO.N,Board_14-/B8*%
X169220000Y-166530000D02*
X169220000Y-160980500D01*
X164850000Y-170900000D02*
X169220000Y-166530000D01*
X164850000Y-176840000D02*
X164850000Y-170900000D01*
X166130000Y-178120000D02*
X164850000Y-176840000D01*
X169220000Y-160980500D02*
X169180000Y-160940500D01*
%TO.N,Board_14-/B9*%
X163590000Y-178120000D02*
X162300000Y-176830000D01*
X162300000Y-172170000D02*
X168720000Y-165750000D01*
X168720000Y-160980500D02*
X168680000Y-160940500D01*
X168720000Y-165750000D02*
X168720000Y-160980500D01*
X162300000Y-176830000D02*
X162300000Y-172170000D01*
%TO.N,Board_15-/B1*%
X226690000Y-178120000D02*
X228020000Y-176790000D01*
X228020000Y-176790000D02*
X228020000Y-174000000D01*
X215451000Y-163501000D02*
X215451000Y-160949500D01*
X215451000Y-160949500D02*
X215460000Y-160940500D01*
X228020000Y-174000000D02*
X218870000Y-164850000D01*
X218870000Y-164850000D02*
X216800000Y-164850000D01*
X216800000Y-164850000D02*
X215451000Y-163501000D01*
%TO.N,Board_15-/B10*%
X202550000Y-174132900D02*
X211040000Y-165642900D01*
X211040000Y-161820000D02*
X211040000Y-161023000D01*
X211040000Y-161023000D02*
X210957500Y-160940500D01*
X202550000Y-176840000D02*
X202550000Y-174132900D01*
X211040000Y-161820000D02*
X211040000Y-161505546D01*
X211040000Y-165642900D02*
X211040000Y-161820000D01*
X203830000Y-178120000D02*
X202550000Y-176840000D01*
%TO.N,Board_15-/B11*%
X199990000Y-173000000D02*
X207530000Y-165460000D01*
X207530000Y-165460000D02*
X209697000Y-165460000D01*
X199990000Y-176820000D02*
X199990000Y-173000000D01*
X201290000Y-178120000D02*
X199990000Y-176820000D01*
X210493500Y-164663500D02*
X210493500Y-160980500D01*
X209697000Y-165460000D02*
X210493500Y-164663500D01*
X210493500Y-160980500D02*
X210453500Y-160940500D01*
%TO.N,Board_15-/B12*%
X198750000Y-178120000D02*
X197430000Y-176800000D01*
X210036000Y-163610000D02*
X210036000Y-161016500D01*
X206220000Y-164820000D02*
X208826000Y-164820000D01*
X197430000Y-173610000D02*
X206220000Y-164820000D01*
X197430000Y-176800000D02*
X197430000Y-173610000D01*
X208826000Y-164820000D02*
X210036000Y-163610000D01*
X210036000Y-161016500D02*
X209960000Y-160940500D01*
%TO.N,Board_15-/B2*%
X215000000Y-160980500D02*
X214960000Y-160940500D01*
X218040000Y-165650000D02*
X215840000Y-165650000D01*
X225380000Y-176890000D02*
X225380000Y-172990000D01*
X225380000Y-172990000D02*
X218040000Y-165650000D01*
X215000000Y-164810000D02*
X215000000Y-160980500D01*
X215840000Y-165650000D02*
X215000000Y-164810000D01*
X224150000Y-178120000D02*
X225380000Y-176890000D01*
%TO.N,Board_15-/B3*%
X214500000Y-165140000D02*
X214500000Y-160980500D01*
X222870000Y-173510000D02*
X214500000Y-165140000D01*
X221610000Y-178120000D02*
X222870000Y-176860000D01*
X222870000Y-176860000D02*
X222870000Y-173510000D01*
X214500000Y-160980500D02*
X214460000Y-160940500D01*
%TO.N,Board_15-/B4*%
X214000000Y-165470000D02*
X214000000Y-160980500D01*
X220310000Y-171780000D02*
X214000000Y-165470000D01*
X220310000Y-176880000D02*
X220310000Y-171780000D01*
X219070000Y-178120000D02*
X220310000Y-176880000D01*
X214000000Y-160980500D02*
X213960000Y-160940500D01*
%TO.N,Board_15-/B5*%
X213500000Y-160980500D02*
X213460000Y-160940500D01*
X217781739Y-176868261D02*
X217781739Y-170811739D01*
X216530000Y-178120000D02*
X217781739Y-176868261D01*
X217781739Y-170811739D02*
X213500000Y-166530000D01*
X213500000Y-166530000D02*
X213500000Y-160980500D01*
%TO.N,Board_15-/B6*%
X215250000Y-170990000D02*
X213000000Y-168740000D01*
X213000000Y-160980500D02*
X212960000Y-160940500D01*
X215250000Y-176860000D02*
X215250000Y-170990000D01*
X213990000Y-178120000D02*
X215250000Y-176860000D01*
X213000000Y-168740000D02*
X213000000Y-160980500D01*
%TO.N,Board_15-/B7*%
X212500000Y-168760000D02*
X212500000Y-160980500D01*
X210180000Y-171080000D02*
X212500000Y-168760000D01*
X211450000Y-178120000D02*
X210180000Y-176850000D01*
X210180000Y-176850000D02*
X210180000Y-171080000D01*
X212500000Y-160980500D02*
X212460000Y-160940500D01*
%TO.N,Board_15-/B8*%
X207630000Y-176840000D02*
X207630000Y-170900000D01*
X212000000Y-160980500D02*
X211960000Y-160940500D01*
X208910000Y-178120000D02*
X207630000Y-176840000D01*
X212000000Y-166530000D02*
X212000000Y-160980500D01*
X207630000Y-170900000D02*
X212000000Y-166530000D01*
%TO.N,Board_15-/B9*%
X206370000Y-178120000D02*
X205080000Y-176830000D01*
X211500000Y-165750000D02*
X211500000Y-160980500D01*
X205080000Y-172170000D02*
X211500000Y-165750000D01*
X205080000Y-176830000D02*
X205080000Y-172170000D01*
X211500000Y-160980500D02*
X211460000Y-160940500D01*
%TD*%
M02*
