ISO-10303-21;
HEADER;
/* Generated by software containing ST-Developer
 * from STEP Tools, Inc. (www.steptools.com) 
 */
/* OPTION: using custom renumber hook */

FILE_DESCRIPTION(
/* description */ ('STEP AP214'),
/* implementation_level */ '2;1');

FILE_NAME(
/* name */ 'SMA-J-P-H-ST-EM3',
/* time_stamp */ '2023-03-18T15:32:38+01:00',
/* author */ ('License CC BY-ND 4.0'),
/* organization */ ('CADENAS'),
/* preprocessor_version */ 'ST-DEVELOPER v19.3',
/* originating_system */ 'PARTsolutions',
/* authorisation */ '  ');

FILE_SCHEMA (('AUTOMOTIVE_DESIGN {1 0 10303 214 3 1 1}'));
ENDSEC;

DATA;
#10=PROPERTY_DEFINITION_REPRESENTATION(#14,#12);
#11=PROPERTY_DEFINITION_REPRESENTATION(#15,#13);
#12=REPRESENTATION('',(#16),#901);
#13=REPRESENTATION('',(#17),#901);
#14=PROPERTY_DEFINITION('pmi validation property','',#908);
#15=PROPERTY_DEFINITION('pmi validation property','',#908);
#16=VALUE_REPRESENTATION_ITEM('number of annotations',COUNT_MEASURE(0.));
#17=VALUE_REPRESENTATION_ITEM('number of views',COUNT_MEASURE(0.));
#18=CONTEXT_DEPENDENT_SHAPE_REPRESENTATION(#20,#910);
#19=NEXT_ASSEMBLY_USAGE_OCCURRENCE('NAUO1','SMA-J-P-H-ST-EM3',
'SMA-J-P-H-ST-EM3',#911,#912,'');
#20=(
REPRESENTATION_RELATIONSHIP(' ',' ',#522,#521)
REPRESENTATION_RELATIONSHIP_WITH_TRANSFORMATION(#21)
SHAPE_REPRESENTATION_RELATIONSHIP()
);
#21=ITEM_DEFINED_TRANSFORMATION(' ',' ',#523,#592);
#22=SHAPE_REPRESENTATION_RELATIONSHIP('','',#522,#23);
#23=ADVANCED_BREP_SHAPE_REPRESENTATION('',(#518),#902);
#24=CONICAL_SURFACE('',#560,0.635,0.78539816339745);
#25=LINE('',#792,#51);
#26=LINE('',#796,#52);
#27=LINE('',#798,#53);
#28=LINE('',#803,#54);
#29=LINE('',#835,#55);
#30=LINE('',#839,#56);
#31=LINE('',#841,#57);
#32=LINE('',#845,#58);
#33=LINE('',#849,#59);
#34=LINE('',#851,#60);
#35=LINE('',#853,#61);
#36=LINE('',#857,#62);
#37=LINE('',#859,#63);
#38=LINE('',#861,#64);
#39=LINE('',#863,#65);
#40=LINE('',#865,#66);
#41=LINE('',#869,#67);
#42=LINE('',#871,#68);
#43=LINE('',#873,#69);
#44=LINE('',#877,#70);
#45=LINE('',#879,#71);
#46=LINE('',#881,#72);
#47=LINE('',#883,#73);
#48=LINE('',#885,#74);
#49=LINE('',#889,#75);
#50=LINE('',#891,#76);
#51=VECTOR('',#637,1000.);
#52=VECTOR('',#640,1000.);
#53=VECTOR('',#643,1000.);
#54=VECTOR('',#646,1000.);
#55=VECTOR('',#691,1000.);
#56=VECTOR('',#694,1000.);
#57=VECTOR('',#695,1000.);
#58=VECTOR('',#698,1000.);
#59=VECTOR('',#701,1000.);
#60=VECTOR('',#702,1000.);
#61=VECTOR('',#705,1000.);
#62=VECTOR('',#708,1000.);
#63=VECTOR('',#711,1000.);
#64=VECTOR('',#712,1000.);
#65=VECTOR('',#715,1000.);
#66=VECTOR('',#716,1000.);
#67=VECTOR('',#721,1000.);
#68=VECTOR('',#724,1000.);
#69=VECTOR('',#725,1000.);
#70=VECTOR('',#730,1000.);
#71=VECTOR('',#733,1000.);
#72=VECTOR('',#734,1000.);
#73=VECTOR('',#737,1000.);
#74=VECTOR('',#738,1000.);
#75=VECTOR('',#743,1000.);
#76=VECTOR('',#746,1000.);
#77=CYLINDRICAL_SURFACE('',#531,0.635);
#78=CYLINDRICAL_SURFACE('',#535,2.05);
#79=CYLINDRICAL_SURFACE('',#539,2.315);
#80=CYLINDRICAL_SURFACE('',#543,2.675);
#81=CYLINDRICAL_SURFACE('',#544,0.66921511627907);
#82=CYLINDRICAL_SURFACE('',#546,0.625032894736842);
#83=CYLINDRICAL_SURFACE('',#549,0.625032894736842);
#84=CYLINDRICAL_SURFACE('',#552,0.66921511627907);
#85=CYLINDRICAL_SURFACE('',#556,3.165);
#86=CYLINDRICAL_SURFACE('',#562,0.635);
#87=CYLINDRICAL_SURFACE('',#566,2.125);
#88=CYLINDRICAL_SURFACE('',#573,4.5);
#89=CYLINDRICAL_SURFACE('',#577,4.5);
#90=CYLINDRICAL_SURFACE('',#580,4.5);
#91=CYLINDRICAL_SURFACE('',#584,4.5);
#92=CYLINDRICAL_SURFACE('',#589,2.675);
#93=ORIENTED_EDGE('',*,*,#211,.T.);
#94=ORIENTED_EDGE('',*,*,#212,.T.);
#95=ORIENTED_EDGE('',*,*,#213,.F.);
#96=ORIENTED_EDGE('',*,*,#214,.T.);
#97=ORIENTED_EDGE('',*,*,#215,.T.);
#98=ORIENTED_EDGE('',*,*,#216,.F.);
#99=ORIENTED_EDGE('',*,*,#213,.T.);
#100=ORIENTED_EDGE('',*,*,#217,.F.);
#101=ORIENTED_EDGE('',*,*,#216,.T.);
#102=ORIENTED_EDGE('',*,*,#218,.F.);
#103=ORIENTED_EDGE('',*,*,#217,.T.);
#104=ORIENTED_EDGE('',*,*,#219,.F.);
#105=ORIENTED_EDGE('',*,*,#218,.T.);
#106=ORIENTED_EDGE('',*,*,#220,.F.);
#107=ORIENTED_EDGE('',*,*,#219,.T.);
#108=ORIENTED_EDGE('',*,*,#221,.F.);
#109=ORIENTED_EDGE('',*,*,#220,.T.);
#110=ORIENTED_EDGE('',*,*,#212,.F.);
#111=ORIENTED_EDGE('',*,*,#221,.T.);
#112=ORIENTED_EDGE('',*,*,#215,.F.);
#113=ORIENTED_EDGE('',*,*,#222,.F.);
#114=ORIENTED_EDGE('',*,*,#223,.T.);
#115=ORIENTED_EDGE('',*,*,#224,.T.);
#116=ORIENTED_EDGE('',*,*,#225,.T.);
#117=ORIENTED_EDGE('',*,*,#226,.T.);
#118=ORIENTED_EDGE('',*,*,#227,.F.);
#119=ORIENTED_EDGE('',*,*,#228,.F.);
#120=ORIENTED_EDGE('',*,*,#227,.T.);
#121=ORIENTED_EDGE('',*,*,#229,.T.);
#122=ORIENTED_EDGE('',*,*,#225,.F.);
#123=ORIENTED_EDGE('',*,*,#230,.F.);
#124=ORIENTED_EDGE('',*,*,#214,.F.);
#125=ORIENTED_EDGE('',*,*,#224,.F.);
#126=ORIENTED_EDGE('',*,*,#231,.T.);
#127=ORIENTED_EDGE('',*,*,#222,.T.);
#128=ORIENTED_EDGE('',*,*,#228,.T.);
#129=ORIENTED_EDGE('',*,*,#230,.T.);
#130=ORIENTED_EDGE('',*,*,#223,.F.);
#131=ORIENTED_EDGE('',*,*,#231,.F.);
#132=ORIENTED_EDGE('',*,*,#226,.F.);
#133=ORIENTED_EDGE('',*,*,#229,.F.);
#134=ORIENTED_EDGE('',*,*,#232,.F.);
#135=ORIENTED_EDGE('',*,*,#211,.F.);
#136=ORIENTED_EDGE('',*,*,#233,.T.);
#137=ORIENTED_EDGE('',*,*,#233,.F.);
#138=ORIENTED_EDGE('',*,*,#234,.T.);
#139=ORIENTED_EDGE('',*,*,#234,.F.);
#140=ORIENTED_EDGE('',*,*,#235,.T.);
#141=ORIENTED_EDGE('',*,*,#235,.F.);
#142=ORIENTED_EDGE('',*,*,#236,.T.);
#143=ORIENTED_EDGE('',*,*,#236,.F.);
#144=ORIENTED_EDGE('',*,*,#237,.T.);
#145=ORIENTED_EDGE('',*,*,#237,.F.);
#146=ORIENTED_EDGE('',*,*,#238,.T.);
#147=ORIENTED_EDGE('',*,*,#239,.T.);
#148=ORIENTED_EDGE('',*,*,#240,.T.);
#149=ORIENTED_EDGE('',*,*,#241,.T.);
#150=ORIENTED_EDGE('',*,*,#242,.T.);
#151=ORIENTED_EDGE('',*,*,#243,.T.);
#152=ORIENTED_EDGE('',*,*,#244,.T.);
#153=ORIENTED_EDGE('',*,*,#245,.T.);
#154=ORIENTED_EDGE('',*,*,#246,.T.);
#155=ORIENTED_EDGE('',*,*,#247,.T.);
#156=ORIENTED_EDGE('',*,*,#240,.F.);
#157=ORIENTED_EDGE('',*,*,#248,.T.);
#158=ORIENTED_EDGE('',*,*,#249,.T.);
#159=ORIENTED_EDGE('',*,*,#250,.F.);
#160=ORIENTED_EDGE('',*,*,#251,.F.);
#161=ORIENTED_EDGE('',*,*,#241,.F.);
#162=ORIENTED_EDGE('',*,*,#250,.T.);
#163=ORIENTED_EDGE('',*,*,#252,.F.);
#164=ORIENTED_EDGE('',*,*,#253,.F.);
#165=ORIENTED_EDGE('',*,*,#242,.F.);
#166=ORIENTED_EDGE('',*,*,#251,.T.);
#167=ORIENTED_EDGE('',*,*,#254,.F.);
#168=ORIENTED_EDGE('',*,*,#255,.T.);
#169=ORIENTED_EDGE('',*,*,#256,.F.);
#170=ORIENTED_EDGE('',*,*,#243,.F.);
#171=ORIENTED_EDGE('',*,*,#253,.T.);
#172=ORIENTED_EDGE('',*,*,#257,.F.);
#173=ORIENTED_EDGE('',*,*,#244,.F.);
#174=ORIENTED_EDGE('',*,*,#256,.T.);
#175=ORIENTED_EDGE('',*,*,#258,.F.);
#176=ORIENTED_EDGE('',*,*,#259,.T.);
#177=ORIENTED_EDGE('',*,*,#260,.F.);
#178=ORIENTED_EDGE('',*,*,#245,.F.);
#179=ORIENTED_EDGE('',*,*,#257,.T.);
#180=ORIENTED_EDGE('',*,*,#261,.F.);
#181=ORIENTED_EDGE('',*,*,#246,.F.);
#182=ORIENTED_EDGE('',*,*,#260,.T.);
#183=ORIENTED_EDGE('',*,*,#262,.F.);
#184=ORIENTED_EDGE('',*,*,#263,.F.);
#185=ORIENTED_EDGE('',*,*,#247,.F.);
#186=ORIENTED_EDGE('',*,*,#261,.T.);
#187=ORIENTED_EDGE('',*,*,#264,.F.);
#188=ORIENTED_EDGE('',*,*,#265,.T.);
#189=ORIENTED_EDGE('',*,*,#266,.F.);
#190=ORIENTED_EDGE('',*,*,#238,.F.);
#191=ORIENTED_EDGE('',*,*,#263,.T.);
#192=ORIENTED_EDGE('',*,*,#248,.F.);
#193=ORIENTED_EDGE('',*,*,#239,.F.);
#194=ORIENTED_EDGE('',*,*,#266,.T.);
#195=ORIENTED_EDGE('',*,*,#267,.F.);
#196=ORIENTED_EDGE('',*,*,#267,.T.);
#197=ORIENTED_EDGE('',*,*,#265,.F.);
#198=ORIENTED_EDGE('',*,*,#264,.T.);
#199=ORIENTED_EDGE('',*,*,#262,.T.);
#200=ORIENTED_EDGE('',*,*,#259,.F.);
#201=ORIENTED_EDGE('',*,*,#258,.T.);
#202=ORIENTED_EDGE('',*,*,#255,.F.);
#203=ORIENTED_EDGE('',*,*,#254,.T.);
#204=ORIENTED_EDGE('',*,*,#252,.T.);
#205=ORIENTED_EDGE('',*,*,#249,.F.);
#206=ORIENTED_EDGE('',*,*,#268,.T.);
#207=ORIENTED_EDGE('',*,*,#268,.F.);
#208=ORIENTED_EDGE('',*,*,#269,.T.);
#209=ORIENTED_EDGE('',*,*,#269,.F.);
#210=ORIENTED_EDGE('',*,*,#232,.T.);
#211=EDGE_CURVE('',#270,#270,#315,.F.);
#212=EDGE_CURVE('',#271,#271,#316,.T.);
#213=EDGE_CURVE('',#272,#272,#317,.T.);
#214=EDGE_CURVE('',#273,#274,#318,.T.);
#215=EDGE_CURVE('',#274,#273,#319,.T.);
#216=EDGE_CURVE('',#275,#275,#320,.T.);
#217=EDGE_CURVE('',#276,#276,#321,.T.);
#218=EDGE_CURVE('',#277,#277,#322,.T.);
#219=EDGE_CURVE('',#278,#278,#323,.T.);
#220=EDGE_CURVE('',#279,#279,#324,.T.);
#221=EDGE_CURVE('',#280,#280,#325,.T.);
#222=EDGE_CURVE('',#281,#274,#25,.T.);
#223=EDGE_CURVE('',#281,#282,#326,.T.);
#224=EDGE_CURVE('',#282,#273,#26,.T.);
#225=EDGE_CURVE('',#283,#284,#27,.T.);
#226=EDGE_CURVE('',#284,#285,#327,.T.);
#227=EDGE_CURVE('',#286,#285,#28,.T.);
#228=EDGE_CURVE('',#283,#286,#328,.T.);
#229=EDGE_CURVE('',#285,#284,#329,.T.);
#230=EDGE_CURVE('',#286,#283,#330,.T.);
#231=EDGE_CURVE('',#282,#281,#331,.T.);
#232=EDGE_CURVE('',#287,#287,#332,.F.);
#233=EDGE_CURVE('',#288,#288,#333,.T.);
#234=EDGE_CURVE('',#289,#289,#334,.T.);
#235=EDGE_CURVE('',#290,#290,#335,.T.);
#236=EDGE_CURVE('',#291,#291,#336,.T.);
#237=EDGE_CURVE('',#292,#292,#337,.T.);
#238=EDGE_CURVE('',#293,#294,#338,.T.);
#239=EDGE_CURVE('',#294,#295,#29,.T.);
#240=EDGE_CURVE('',#295,#296,#339,.T.);
#241=EDGE_CURVE('',#296,#297,#30,.T.);
#242=EDGE_CURVE('',#297,#298,#31,.T.);
#243=EDGE_CURVE('',#298,#299,#340,.T.);
#244=EDGE_CURVE('',#299,#300,#32,.T.);
#245=EDGE_CURVE('',#300,#301,#341,.T.);
#246=EDGE_CURVE('',#301,#302,#33,.T.);
#247=EDGE_CURVE('',#302,#293,#34,.T.);
#248=EDGE_CURVE('',#295,#303,#35,.T.);
#249=EDGE_CURVE('',#303,#304,#342,.T.);
#250=EDGE_CURVE('',#296,#304,#36,.T.);
#251=EDGE_CURVE('',#297,#305,#37,.T.);
#252=EDGE_CURVE('',#305,#304,#38,.T.);
#253=EDGE_CURVE('',#298,#306,#39,.T.);
#254=EDGE_CURVE('',#306,#305,#40,.T.);
#255=EDGE_CURVE('',#306,#307,#343,.T.);
#256=EDGE_CURVE('',#299,#307,#41,.T.);
#257=EDGE_CURVE('',#300,#308,#42,.T.);
#258=EDGE_CURVE('',#308,#307,#43,.T.);
#259=EDGE_CURVE('',#308,#309,#344,.T.);
#260=EDGE_CURVE('',#301,#309,#44,.T.);
#261=EDGE_CURVE('',#302,#310,#45,.T.);
#262=EDGE_CURVE('',#310,#309,#46,.T.);
#263=EDGE_CURVE('',#293,#311,#47,.T.);
#264=EDGE_CURVE('',#311,#310,#48,.T.);
#265=EDGE_CURVE('',#311,#312,#345,.T.);
#266=EDGE_CURVE('',#294,#312,#49,.T.);
#267=EDGE_CURVE('',#303,#312,#50,.T.);
#268=EDGE_CURVE('',#313,#313,#346,.T.);
#269=EDGE_CURVE('',#314,#314,#347,.T.);
#270=VERTEX_POINT('',#762);
#271=VERTEX_POINT('',#764);
#272=VERTEX_POINT('',#767);
#273=VERTEX_POINT('',#769);
#274=VERTEX_POINT('',#770);
#275=VERTEX_POINT('',#774);
#276=VERTEX_POINT('',#777);
#277=VERTEX_POINT('',#780);
#278=VERTEX_POINT('',#783);
#279=VERTEX_POINT('',#786);
#280=VERTEX_POINT('',#789);
#281=VERTEX_POINT('',#793);
#282=VERTEX_POINT('',#795);
#283=VERTEX_POINT('',#799);
#284=VERTEX_POINT('',#800);
#285=VERTEX_POINT('',#802);
#286=VERTEX_POINT('',#804);
#287=VERTEX_POINT('',#815);
#288=VERTEX_POINT('',#818);
#289=VERTEX_POINT('',#821);
#290=VERTEX_POINT('',#824);
#291=VERTEX_POINT('',#827);
#292=VERTEX_POINT('',#830);
#293=VERTEX_POINT('',#833);
#294=VERTEX_POINT('',#834);
#295=VERTEX_POINT('',#836);
#296=VERTEX_POINT('',#838);
#297=VERTEX_POINT('',#840);
#298=VERTEX_POINT('',#842);
#299=VERTEX_POINT('',#844);
#300=VERTEX_POINT('',#846);
#301=VERTEX_POINT('',#848);
#302=VERTEX_POINT('',#850);
#303=VERTEX_POINT('',#854);
#304=VERTEX_POINT('',#856);
#305=VERTEX_POINT('',#860);
#306=VERTEX_POINT('',#864);
#307=VERTEX_POINT('',#868);
#308=VERTEX_POINT('',#872);
#309=VERTEX_POINT('',#876);
#310=VERTEX_POINT('',#880);
#311=VERTEX_POINT('',#884);
#312=VERTEX_POINT('',#888);
#313=VERTEX_POINT('',#894);
#314=VERTEX_POINT('',#897);
#315=CIRCLE('',#525,3.165);
#316=CIRCLE('',#526,2.675);
#317=CIRCLE('',#528,0.635);
#318=CIRCLE('',#529,0.66921511627907);
#319=CIRCLE('',#530,0.66921511627907);
#320=CIRCLE('',#532,0.635);
#321=CIRCLE('',#534,2.05);
#322=CIRCLE('',#536,2.05);
#323=CIRCLE('',#538,2.315);
#324=CIRCLE('',#540,2.315);
#325=CIRCLE('',#542,2.675);
#326=CIRCLE('',#545,0.66921511627907);
#327=CIRCLE('',#547,0.625032894736842);
#328=CIRCLE('',#548,0.625032894736842);
#329=CIRCLE('',#550,0.625032894736842);
#330=CIRCLE('',#551,0.625032894736842);
#331=CIRCLE('',#553,0.66921511627907);
#332=CIRCLE('',#557,3.165);
#333=CIRCLE('',#559,0.385);
#334=CIRCLE('',#561,0.635);
#335=CIRCLE('',#563,0.635);
#336=CIRCLE('',#565,2.125);
#337=CIRCLE('',#567,2.125);
#338=CIRCLE('',#569,4.5);
#339=CIRCLE('',#570,4.5);
#340=CIRCLE('',#571,4.5);
#341=CIRCLE('',#572,4.5);
#342=CIRCLE('',#574,4.5);
#343=CIRCLE('',#578,4.5);
#344=CIRCLE('',#581,4.5);
#345=CIRCLE('',#585,4.5);
#346=CIRCLE('',#588,2.675);
#347=CIRCLE('',#590,2.675);
#348=EDGE_LOOP('',(#93));
#349=EDGE_LOOP('',(#94));
#350=EDGE_LOOP('',(#95));
#351=EDGE_LOOP('',(#96,#97));
#352=EDGE_LOOP('',(#98));
#353=EDGE_LOOP('',(#99));
#354=EDGE_LOOP('',(#100));
#355=EDGE_LOOP('',(#101));
#356=EDGE_LOOP('',(#102));
#357=EDGE_LOOP('',(#103));
#358=EDGE_LOOP('',(#104));
#359=EDGE_LOOP('',(#105));
#360=EDGE_LOOP('',(#106));
#361=EDGE_LOOP('',(#107));
#362=EDGE_LOOP('',(#108));
#363=EDGE_LOOP('',(#109));
#364=EDGE_LOOP('',(#110));
#365=EDGE_LOOP('',(#111));
#366=EDGE_LOOP('',(#112,#113,#114,#115));
#367=EDGE_LOOP('',(#116,#117,#118,#119));
#368=EDGE_LOOP('',(#120,#121,#122,#123));
#369=EDGE_LOOP('',(#124,#125,#126,#127));
#370=EDGE_LOOP('',(#128,#129));
#371=EDGE_LOOP('',(#130,#131));
#372=EDGE_LOOP('',(#132,#133));
#373=EDGE_LOOP('',(#134));
#374=EDGE_LOOP('',(#135));
#375=EDGE_LOOP('',(#136));
#376=EDGE_LOOP('',(#137));
#377=EDGE_LOOP('',(#138));
#378=EDGE_LOOP('',(#139));
#379=EDGE_LOOP('',(#140));
#380=EDGE_LOOP('',(#141));
#381=EDGE_LOOP('',(#142));
#382=EDGE_LOOP('',(#143));
#383=EDGE_LOOP('',(#144));
#384=EDGE_LOOP('',(#145));
#385=EDGE_LOOP('',(#146,#147,#148,#149,#150,#151,#152,#153,#154,#155));
#386=EDGE_LOOP('',(#156,#157,#158,#159));
#387=EDGE_LOOP('',(#160,#161,#162,#163));
#388=EDGE_LOOP('',(#164,#165,#166,#167));
#389=EDGE_LOOP('',(#168,#169,#170,#171));
#390=EDGE_LOOP('',(#172,#173,#174,#175));
#391=EDGE_LOOP('',(#176,#177,#178,#179));
#392=EDGE_LOOP('',(#180,#181,#182,#183));
#393=EDGE_LOOP('',(#184,#185,#186,#187));
#394=EDGE_LOOP('',(#188,#189,#190,#191));
#395=EDGE_LOOP('',(#192,#193,#194,#195));
#396=EDGE_LOOP('',(#196,#197,#198,#199,#200,#201,#202,#203,#204,#205));
#397=EDGE_LOOP('',(#206));
#398=EDGE_LOOP('',(#207));
#399=EDGE_LOOP('',(#208));
#400=EDGE_LOOP('',(#209));
#401=EDGE_LOOP('',(#210));
#402=FACE_BOUND('',#348,.T.);
#403=FACE_BOUND('',#349,.T.);
#404=FACE_BOUND('',#350,.T.);
#405=FACE_BOUND('',#351,.T.);
#406=FACE_BOUND('',#352,.T.);
#407=FACE_BOUND('',#353,.T.);
#408=FACE_BOUND('',#354,.T.);
#409=FACE_BOUND('',#355,.T.);
#410=FACE_BOUND('',#356,.T.);
#411=FACE_BOUND('',#357,.T.);
#412=FACE_BOUND('',#358,.T.);
#413=FACE_BOUND('',#359,.T.);
#414=FACE_BOUND('',#360,.T.);
#415=FACE_BOUND('',#361,.T.);
#416=FACE_BOUND('',#362,.T.);
#417=FACE_BOUND('',#363,.T.);
#418=FACE_BOUND('',#364,.T.);
#419=FACE_BOUND('',#365,.T.);
#420=FACE_BOUND('',#366,.T.);
#421=FACE_BOUND('',#367,.T.);
#422=FACE_BOUND('',#368,.T.);
#423=FACE_BOUND('',#369,.T.);
#424=FACE_BOUND('',#370,.T.);
#425=FACE_BOUND('',#371,.T.);
#426=FACE_BOUND('',#372,.T.);
#427=FACE_BOUND('',#373,.T.);
#428=FACE_BOUND('',#374,.T.);
#429=FACE_BOUND('',#375,.T.);
#430=FACE_BOUND('',#376,.T.);
#431=FACE_BOUND('',#377,.T.);
#432=FACE_BOUND('',#378,.T.);
#433=FACE_BOUND('',#379,.T.);
#434=FACE_BOUND('',#380,.T.);
#435=FACE_BOUND('',#381,.T.);
#436=FACE_BOUND('',#382,.T.);
#437=FACE_BOUND('',#383,.T.);
#438=FACE_BOUND('',#384,.T.);
#439=FACE_BOUND('',#385,.T.);
#440=FACE_BOUND('',#386,.T.);
#441=FACE_BOUND('',#387,.T.);
#442=FACE_BOUND('',#388,.T.);
#443=FACE_BOUND('',#389,.T.);
#444=FACE_BOUND('',#390,.T.);
#445=FACE_BOUND('',#391,.T.);
#446=FACE_BOUND('',#392,.T.);
#447=FACE_BOUND('',#393,.T.);
#448=FACE_BOUND('',#394,.T.);
#449=FACE_BOUND('',#395,.T.);
#450=FACE_BOUND('',#396,.T.);
#451=FACE_BOUND('',#397,.T.);
#452=FACE_BOUND('',#398,.T.);
#453=FACE_BOUND('',#399,.T.);
#454=FACE_BOUND('',#400,.T.);
#455=FACE_BOUND('',#401,.T.);
#456=PLANE('',#524);
#457=PLANE('',#527);
#458=PLANE('',#533);
#459=PLANE('',#537);
#460=PLANE('',#541);
#461=PLANE('',#554);
#462=PLANE('',#555);
#463=PLANE('',#558);
#464=PLANE('',#564);
#465=PLANE('',#568);
#466=PLANE('',#575);
#467=PLANE('',#576);
#468=PLANE('',#579);
#469=PLANE('',#582);
#470=PLANE('',#583);
#471=PLANE('',#586);
#472=PLANE('',#587);
#473=PLANE('',#591);
#474=ADVANCED_FACE('',(#402,#403),#456,.F.);
#475=ADVANCED_FACE('',(#404,#405),#457,.F.);
#476=ADVANCED_FACE('',(#406,#407),#77,.F.);
#477=ADVANCED_FACE('',(#408,#409),#458,.F.);
#478=ADVANCED_FACE('',(#410,#411),#78,.F.);
#479=ADVANCED_FACE('',(#412,#413),#459,.F.);
#480=ADVANCED_FACE('',(#414,#415),#79,.F.);
#481=ADVANCED_FACE('',(#416,#417),#460,.F.);
#482=ADVANCED_FACE('',(#418,#419),#80,.T.);
#483=ADVANCED_FACE('',(#420),#81,.T.);
#484=ADVANCED_FACE('',(#421),#82,.F.);
#485=ADVANCED_FACE('',(#422),#83,.F.);
#486=ADVANCED_FACE('',(#423),#84,.T.);
#487=ADVANCED_FACE('',(#424,#425),#461,.F.);
#488=ADVANCED_FACE('',(#426),#462,.F.);
#489=ADVANCED_FACE('',(#427,#428),#85,.T.);
#490=ADVANCED_FACE('',(#429),#463,.F.);
#491=ADVANCED_FACE('',(#430,#431),#24,.T.);
#492=ADVANCED_FACE('',(#432,#433),#86,.T.);
#493=ADVANCED_FACE('',(#434,#435),#464,.F.);
#494=ADVANCED_FACE('',(#436,#437),#87,.F.);
#495=ADVANCED_FACE('',(#438,#439),#465,.F.);
#496=ADVANCED_FACE('',(#440),#88,.T.);
#497=ADVANCED_FACE('',(#441),#466,.F.);
#498=ADVANCED_FACE('',(#442),#467,.F.);
#499=ADVANCED_FACE('',(#443),#89,.T.);
#500=ADVANCED_FACE('',(#444),#468,.F.);
#501=ADVANCED_FACE('',(#445),#90,.T.);
#502=ADVANCED_FACE('',(#446),#469,.F.);
#503=ADVANCED_FACE('',(#447),#470,.F.);
#504=ADVANCED_FACE('',(#448),#91,.T.);
#505=ADVANCED_FACE('',(#449),#471,.F.);
#506=ADVANCED_FACE('',(#450,#451),#472,.F.);
#507=ADVANCED_FACE('',(#452,#453),#92,.T.);
#508=ADVANCED_FACE('',(#454,#455),#473,.F.);
#509=CLOSED_SHELL('',(#474,#475,#476,#477,#478,#479,#480,#481,#482,#483,
#484,#485,#486,#487,#488,#489,#490,#491,#492,#493,#494,#495,#496,#497,#498,
#499,#500,#501,#502,#503,#504,#505,#506,#507,#508));
#510=STYLED_ITEM('',(#511),#518);
#511=PRESENTATION_STYLE_ASSIGNMENT((#512));
#512=SURFACE_STYLE_USAGE(.BOTH.,#513);
#513=SURFACE_SIDE_STYLE('',(#514));
#514=SURFACE_STYLE_FILL_AREA(#515);
#515=FILL_AREA_STYLE('',(#516));
#516=FILL_AREA_STYLE_COLOUR('',#517);
#517=DRAUGHTING_PRE_DEFINED_COLOUR('yellow');
#518=MANIFOLD_SOLID_BREP('SMA-J-P-H-ST-EM3',#509);
#519=SHAPE_DEFINITION_REPRESENTATION(#908,#521);
#520=SHAPE_DEFINITION_REPRESENTATION(#909,#522);
#521=SHAPE_REPRESENTATION('SMA-J-P-H-ST-EM3',(#523,#592),#901);
#522=SHAPE_REPRESENTATION('SMA-J-P-H-ST-EM3',(#523),#902);
#523=AXIS2_PLACEMENT_3D('',#759,#593,#594);
#524=AXIS2_PLACEMENT_3D('',#760,#595,#596);
#525=AXIS2_PLACEMENT_3D('',#761,#597,#598);
#526=AXIS2_PLACEMENT_3D('',#763,#599,#600);
#527=AXIS2_PLACEMENT_3D('',#765,#601,#602);
#528=AXIS2_PLACEMENT_3D('',#766,#603,#604);
#529=AXIS2_PLACEMENT_3D('',#768,#605,#606);
#530=AXIS2_PLACEMENT_3D('',#771,#607,#608);
#531=AXIS2_PLACEMENT_3D('',#772,#609,#610);
#532=AXIS2_PLACEMENT_3D('',#773,#611,#612);
#533=AXIS2_PLACEMENT_3D('',#775,#613,#614);
#534=AXIS2_PLACEMENT_3D('',#776,#615,#616);
#535=AXIS2_PLACEMENT_3D('',#778,#617,#618);
#536=AXIS2_PLACEMENT_3D('',#779,#619,#620);
#537=AXIS2_PLACEMENT_3D('',#781,#621,#622);
#538=AXIS2_PLACEMENT_3D('',#782,#623,#624);
#539=AXIS2_PLACEMENT_3D('',#784,#625,#626);
#540=AXIS2_PLACEMENT_3D('',#785,#627,#628);
#541=AXIS2_PLACEMENT_3D('',#787,#629,#630);
#542=AXIS2_PLACEMENT_3D('',#788,#631,#632);
#543=AXIS2_PLACEMENT_3D('',#790,#633,#634);
#544=AXIS2_PLACEMENT_3D('',#791,#635,#636);
#545=AXIS2_PLACEMENT_3D('',#794,#638,#639);
#546=AXIS2_PLACEMENT_3D('',#797,#641,#642);
#547=AXIS2_PLACEMENT_3D('',#801,#644,#645);
#548=AXIS2_PLACEMENT_3D('',#805,#647,#648);
#549=AXIS2_PLACEMENT_3D('',#806,#649,#650);
#550=AXIS2_PLACEMENT_3D('',#807,#651,#652);
#551=AXIS2_PLACEMENT_3D('',#808,#653,#654);
#552=AXIS2_PLACEMENT_3D('',#809,#655,#656);
#553=AXIS2_PLACEMENT_3D('',#810,#657,#658);
#554=AXIS2_PLACEMENT_3D('',#811,#659,#660);
#555=AXIS2_PLACEMENT_3D('',#812,#661,#662);
#556=AXIS2_PLACEMENT_3D('',#813,#663,#664);
#557=AXIS2_PLACEMENT_3D('',#814,#665,#666);
#558=AXIS2_PLACEMENT_3D('',#816,#667,#668);
#559=AXIS2_PLACEMENT_3D('',#817,#669,#670);
#560=AXIS2_PLACEMENT_3D('',#819,#671,#672);
#561=AXIS2_PLACEMENT_3D('',#820,#673,#674);
#562=AXIS2_PLACEMENT_3D('',#822,#675,#676);
#563=AXIS2_PLACEMENT_3D('',#823,#677,#678);
#564=AXIS2_PLACEMENT_3D('',#825,#679,#680);
#565=AXIS2_PLACEMENT_3D('',#826,#681,#682);
#566=AXIS2_PLACEMENT_3D('',#828,#683,#684);
#567=AXIS2_PLACEMENT_3D('',#829,#685,#686);
#568=AXIS2_PLACEMENT_3D('',#831,#687,#688);
#569=AXIS2_PLACEMENT_3D('',#832,#689,#690);
#570=AXIS2_PLACEMENT_3D('',#837,#692,#693);
#571=AXIS2_PLACEMENT_3D('',#843,#696,#697);
#572=AXIS2_PLACEMENT_3D('',#847,#699,#700);
#573=AXIS2_PLACEMENT_3D('',#852,#703,#704);
#574=AXIS2_PLACEMENT_3D('',#855,#706,#707);
#575=AXIS2_PLACEMENT_3D('',#858,#709,#710);
#576=AXIS2_PLACEMENT_3D('',#862,#713,#714);
#577=AXIS2_PLACEMENT_3D('',#866,#717,#718);
#578=AXIS2_PLACEMENT_3D('',#867,#719,#720);
#579=AXIS2_PLACEMENT_3D('',#870,#722,#723);
#580=AXIS2_PLACEMENT_3D('',#874,#726,#727);
#581=AXIS2_PLACEMENT_3D('',#875,#728,#729);
#582=AXIS2_PLACEMENT_3D('',#878,#731,#732);
#583=AXIS2_PLACEMENT_3D('',#882,#735,#736);
#584=AXIS2_PLACEMENT_3D('',#886,#739,#740);
#585=AXIS2_PLACEMENT_3D('',#887,#741,#742);
#586=AXIS2_PLACEMENT_3D('',#890,#744,#745);
#587=AXIS2_PLACEMENT_3D('',#892,#747,#748);
#588=AXIS2_PLACEMENT_3D('',#893,#749,#750);
#589=AXIS2_PLACEMENT_3D('',#895,#751,#752);
#590=AXIS2_PLACEMENT_3D('',#896,#753,#754);
#591=AXIS2_PLACEMENT_3D('',#898,#755,#756);
#592=AXIS2_PLACEMENT_3D('',#899,#757,#758);
#593=DIRECTION('',(0.,0.,1.));
#594=DIRECTION('',(1.,0.,0.));
#595=DIRECTION('',(1.,0.,0.));
#596=DIRECTION('',(0.,0.,-1.));
#597=DIRECTION('',(1.,0.,0.));
#598=DIRECTION('',(0.,0.,-1.));
#599=DIRECTION('',(1.,0.,0.));
#600=DIRECTION('',(0.,0.,-1.));
#601=DIRECTION('',(1.,0.,0.));
#602=DIRECTION('',(0.,0.,-1.));
#603=DIRECTION('',(1.,0.,0.));
#604=DIRECTION('',(0.,0.,-1.));
#605=DIRECTION('',(1.,0.,0.));
#606=DIRECTION('',(0.,0.,-1.));
#607=DIRECTION('',(1.,0.,0.));
#608=DIRECTION('',(0.,0.,-1.));
#609=DIRECTION('',(1.,0.,0.));
#610=DIRECTION('',(0.,0.,-1.));
#611=DIRECTION('',(1.,0.,0.));
#612=DIRECTION('',(0.,0.,-1.));
#613=DIRECTION('',(1.,0.,0.));
#614=DIRECTION('',(0.,0.,-1.));
#615=DIRECTION('',(1.,0.,0.));
#616=DIRECTION('',(0.,0.,-1.));
#617=DIRECTION('',(1.,0.,0.));
#618=DIRECTION('',(0.,0.,-1.));
#619=DIRECTION('',(1.,0.,0.));
#620=DIRECTION('',(0.,0.,-1.));
#621=DIRECTION('',(1.,0.,0.));
#622=DIRECTION('',(0.,0.,-1.));
#623=DIRECTION('',(1.,0.,0.));
#624=DIRECTION('',(0.,0.,-1.));
#625=DIRECTION('',(1.,0.,0.));
#626=DIRECTION('',(0.,0.,-1.));
#627=DIRECTION('',(1.,0.,0.));
#628=DIRECTION('',(0.,0.,-1.));
#629=DIRECTION('',(1.,0.,0.));
#630=DIRECTION('',(0.,0.,-1.));
#631=DIRECTION('',(1.,0.,0.));
#632=DIRECTION('',(0.,0.,-1.));
#633=DIRECTION('',(1.,0.,0.));
#634=DIRECTION('',(0.,0.,-1.));
#635=DIRECTION('',(1.,0.,0.));
#636=DIRECTION('',(0.,0.,-1.));
#637=DIRECTION('',(1.,0.,0.));
#638=DIRECTION('',(1.,0.,0.));
#639=DIRECTION('',(0.,0.,-1.));
#640=DIRECTION('',(1.,0.,0.));
#641=DIRECTION('',(1.,0.,0.));
#642=DIRECTION('',(0.,0.,-1.));
#643=DIRECTION('',(1.,0.,0.));
#644=DIRECTION('',(1.,0.,0.));
#645=DIRECTION('',(0.,0.,-1.));
#646=DIRECTION('',(1.,0.,0.));
#647=DIRECTION('',(1.,0.,0.));
#648=DIRECTION('',(0.,0.,-1.));
#649=DIRECTION('',(1.,0.,0.));
#650=DIRECTION('',(0.,0.,-1.));
#651=DIRECTION('',(1.,0.,0.));
#652=DIRECTION('',(0.,0.,-1.));
#653=DIRECTION('',(1.,0.,0.));
#654=DIRECTION('',(0.,0.,-1.));
#655=DIRECTION('',(1.,0.,0.));
#656=DIRECTION('',(0.,0.,-1.));
#657=DIRECTION('',(1.,0.,0.));
#658=DIRECTION('',(0.,0.,-1.));
#659=DIRECTION('',(1.,0.,0.));
#660=DIRECTION('',(0.,0.,-1.));
#661=DIRECTION('',(1.,0.,0.));
#662=DIRECTION('',(0.,0.,-1.));
#663=DIRECTION('',(1.,0.,0.));
#664=DIRECTION('',(0.,0.,-1.));
#665=DIRECTION('',(-1.,0.,0.));
#666=DIRECTION('',(0.,0.,1.));
#667=DIRECTION('',(-1.,0.,0.));
#668=DIRECTION('',(0.,0.,1.));
#669=DIRECTION('',(1.,0.,0.));
#670=DIRECTION('',(0.,0.,-1.));
#671=DIRECTION('',(-1.,0.,0.));
#672=DIRECTION('',(0.,0.,1.));
#673=DIRECTION('',(1.,0.,0.));
#674=DIRECTION('',(0.,0.,-1.));
#675=DIRECTION('',(1.,0.,0.));
#676=DIRECTION('',(0.,0.,-1.));
#677=DIRECTION('',(1.,0.,0.));
#678=DIRECTION('',(0.,0.,-1.));
#679=DIRECTION('',(-1.,0.,0.));
#680=DIRECTION('',(0.,0.,1.));
#681=DIRECTION('',(1.,0.,0.));
#682=DIRECTION('',(0.,0.,-1.));
#683=DIRECTION('',(1.,0.,0.));
#684=DIRECTION('',(0.,0.,-1.));
#685=DIRECTION('',(1.,0.,0.));
#686=DIRECTION('',(0.,0.,-1.));
#687=DIRECTION('',(-1.,0.,0.));
#688=DIRECTION('',(0.,0.,1.));
#689=DIRECTION('',(1.,0.,0.));
#690=DIRECTION('',(0.,0.,-1.));
#691=DIRECTION('',(0.,0.,1.));
#692=DIRECTION('',(1.,0.,0.));
#693=DIRECTION('',(0.,0.,-1.));
#694=DIRECTION('',(0.,0.,-1.));
#695=DIRECTION('',(0.,-1.,0.));
#696=DIRECTION('',(1.,0.,0.));
#697=DIRECTION('',(0.,0.,-1.));
#698=DIRECTION('',(0.,0.,-1.));
#699=DIRECTION('',(1.,0.,0.));
#700=DIRECTION('',(0.,0.,-1.));
#701=DIRECTION('',(0.,1.,0.));
#702=DIRECTION('',(0.,0.,-1.));
#703=DIRECTION('',(1.,0.,0.));
#704=DIRECTION('',(0.,0.,-1.));
#705=DIRECTION('',(-1.,0.,0.));
#706=DIRECTION('',(1.,0.,0.));
#707=DIRECTION('',(0.,0.,-1.));
#708=DIRECTION('',(-1.,0.,0.));
#709=DIRECTION('',(0.,1.,0.));
#710=DIRECTION('',(0.,0.,1.));
#711=DIRECTION('',(-1.,0.,0.));
#712=DIRECTION('',(0.,0.,1.));
#713=DIRECTION('',(0.,0.,-1.));
#714=DIRECTION('',(-1.,0.,0.));
#715=DIRECTION('',(-1.,0.,0.));
#716=DIRECTION('',(0.,1.,0.));
#717=DIRECTION('',(1.,0.,0.));
#718=DIRECTION('',(0.,0.,-1.));
#719=DIRECTION('',(1.,0.,0.));
#720=DIRECTION('',(0.,0.,-1.));
#721=DIRECTION('',(-1.,0.,0.));
#722=DIRECTION('',(0.,1.,0.));
#723=DIRECTION('',(0.,0.,1.));
#724=DIRECTION('',(-1.,0.,0.));
#725=DIRECTION('',(0.,0.,1.));
#726=DIRECTION('',(1.,0.,0.));
#727=DIRECTION('',(0.,0.,-1.));
#728=DIRECTION('',(1.,0.,0.));
#729=DIRECTION('',(0.,0.,-1.));
#730=DIRECTION('',(-1.,0.,0.));
#731=DIRECTION('',(0.,0.,1.));
#732=DIRECTION('',(1.,0.,0.));
#733=DIRECTION('',(-1.,0.,0.));
#734=DIRECTION('',(0.,-1.,0.));
#735=DIRECTION('',(0.,1.,0.));
#736=DIRECTION('',(0.,0.,1.));
#737=DIRECTION('',(-1.,0.,0.));
#738=DIRECTION('',(0.,0.,1.));
#739=DIRECTION('',(1.,0.,0.));
#740=DIRECTION('',(0.,0.,-1.));
#741=DIRECTION('',(1.,0.,0.));
#742=DIRECTION('',(0.,0.,-1.));
#743=DIRECTION('',(-1.,0.,0.));
#744=DIRECTION('',(0.,-1.,0.));
#745=DIRECTION('',(0.,0.,-1.));
#746=DIRECTION('',(0.,0.,-1.));
#747=DIRECTION('',(1.,0.,0.));
#748=DIRECTION('',(0.,0.,-1.));
#749=DIRECTION('',(1.,0.,0.));
#750=DIRECTION('',(0.,0.,-1.));
#751=DIRECTION('',(1.,0.,0.));
#752=DIRECTION('',(0.,0.,-1.));
#753=DIRECTION('',(1.,0.,0.));
#754=DIRECTION('',(0.,0.,-1.));
#755=DIRECTION('',(-1.,0.,0.));
#756=DIRECTION('',(0.,0.,1.));
#757=DIRECTION('',(0.,0.,1.));
#758=DIRECTION('',(1.,0.,0.));
#759=CARTESIAN_POINT('',(0.,0.,0.));
#760=CARTESIAN_POINT('',(-6.74,2.675,0.));
#761=CARTESIAN_POINT('',(-6.74,0.,0.));
#762=CARTESIAN_POINT('',(-6.74,0.,-3.165));
#763=CARTESIAN_POINT('',(-6.74,0.,0.));
#764=CARTESIAN_POINT('',(-6.74,0.,-2.675));
#765=CARTESIAN_POINT('',(-2.57,0.,0.));
#766=CARTESIAN_POINT('',(-2.57,0.,0.));
#767=CARTESIAN_POINT('',(-2.57,0.,-0.635));
#768=CARTESIAN_POINT('',(-2.57,0.23921511627907,5.42101086242752E-17));
#769=CARTESIAN_POINT('',(-2.57,1.35525271560688E-16,0.625));
#770=CARTESIAN_POINT('',(-2.57,-8.13151629364128E-17,-0.625));
#771=CARTESIAN_POINT('',(-2.57,-0.23921511627907,0.));
#772=CARTESIAN_POINT('',(7.5,0.,0.));
#773=CARTESIAN_POINT('',(-5.52,0.,0.));
#774=CARTESIAN_POINT('',(-5.52,0.,-0.635));
#775=CARTESIAN_POINT('',(-5.52,0.635,0.));
#776=CARTESIAN_POINT('',(-5.52,0.,0.));
#777=CARTESIAN_POINT('',(-5.52,0.,-2.05));
#778=CARTESIAN_POINT('',(7.5,0.,0.));
#779=CARTESIAN_POINT('',(-5.57,0.,0.));
#780=CARTESIAN_POINT('',(-5.57,0.,-2.05));
#781=CARTESIAN_POINT('',(-5.57,2.05,0.));
#782=CARTESIAN_POINT('',(-5.57,0.,0.));
#783=CARTESIAN_POINT('',(-5.57,0.,-2.315));
#784=CARTESIAN_POINT('',(7.5,0.,0.));
#785=CARTESIAN_POINT('',(-7.5,0.,0.));
#786=CARTESIAN_POINT('',(-7.5,0.,-2.315));
#787=CARTESIAN_POINT('',(-7.5,2.315,0.));
#788=CARTESIAN_POINT('',(-7.5,0.,0.));
#789=CARTESIAN_POINT('',(-7.5,0.,-2.675));
#790=CARTESIAN_POINT('',(7.5,0.,0.));
#791=CARTESIAN_POINT('',(-5.52,-0.23921511627907,0.));
#792=CARTESIAN_POINT('',(-5.52,-8.13151629364128E-17,-0.625));
#793=CARTESIAN_POINT('',(-5.52,-8.13151629364128E-17,-0.625));
#794=CARTESIAN_POINT('',(-5.52,-0.23921511627907,0.));
#795=CARTESIAN_POINT('',(-5.52,1.35525271560688E-16,0.625));
#796=CARTESIAN_POINT('',(-5.52,1.35525271560688E-16,0.625));
#797=CARTESIAN_POINT('',(-5.52,-0.245032894736842,5.42101086242752E-17));
#798=CARTESIAN_POINT('',(-5.52,-1.0842021724855E-16,-0.575));
#799=CARTESIAN_POINT('',(-5.52,-1.0842021724855E-16,-0.575));
#800=CARTESIAN_POINT('',(-2.57,-1.0842021724855E-16,-0.575));
#801=CARTESIAN_POINT('',(-2.57,-0.245032894736842,5.42101086242752E-17));
#802=CARTESIAN_POINT('',(-2.57,1.0842021724855E-16,0.575));
#803=CARTESIAN_POINT('',(-5.52,1.0842021724855E-16,0.575));
#804=CARTESIAN_POINT('',(-5.52,1.0842021724855E-16,0.575));
#805=CARTESIAN_POINT('',(-5.52,-0.245032894736842,5.42101086242752E-17));
#806=CARTESIAN_POINT('',(-5.52,0.245032894736842,-5.42101086242752E-17));
#807=CARTESIAN_POINT('',(-2.57,0.245032894736842,-5.42101086242752E-17));
#808=CARTESIAN_POINT('',(-5.52,0.245032894736842,-5.42101086242752E-17));
#809=CARTESIAN_POINT('',(-5.52,0.23921511627907,5.42101086242752E-17));
#810=CARTESIAN_POINT('',(-5.52,0.23921511627907,5.42101086242752E-17));
#811=CARTESIAN_POINT('',(-5.52,-2.71050543121376E-17,2.71050543121376E-17));
#812=CARTESIAN_POINT('',(-2.57,0.,0.));
#813=CARTESIAN_POINT('',(-8.5,0.,0.));
#814=CARTESIAN_POINT('',(-2.5,0.,0.));
#815=CARTESIAN_POINT('',(-2.5,0.,3.165));
#816=CARTESIAN_POINT('',(7.5,0.385,0.));
#817=CARTESIAN_POINT('',(7.5,0.,0.));
#818=CARTESIAN_POINT('',(7.5,0.,-0.385));
#819=CARTESIAN_POINT('',(7.25,0.,0.));
#820=CARTESIAN_POINT('',(7.25,0.,0.));
#821=CARTESIAN_POINT('',(7.25,0.,-0.635));
#822=CARTESIAN_POINT('',(7.5,0.,0.));
#823=CARTESIAN_POINT('',(5.45,0.,0.));
#824=CARTESIAN_POINT('',(5.45,0.,-0.635));
#825=CARTESIAN_POINT('',(5.45,2.125,0.));
#826=CARTESIAN_POINT('',(5.45,0.,0.));
#827=CARTESIAN_POINT('',(5.45,0.,-2.125));
#828=CARTESIAN_POINT('',(7.5,0.,0.));
#829=CARTESIAN_POINT('',(5.5,0.,0.));
#830=CARTESIAN_POINT('',(5.5,0.,-2.125));
#831=CARTESIAN_POINT('',(5.5,4.5,0.));
#832=CARTESIAN_POINT('',(5.5,0.,0.));
#833=CARTESIAN_POINT('',(5.5,-0.48,-4.47432676500052));
#834=CARTESIAN_POINT('',(5.5,3.5,-2.82842712474619));
#835=CARTESIAN_POINT('',(5.5,3.5,0.));
#836=CARTESIAN_POINT('',(5.5,3.5,2.82842712474619));
#837=CARTESIAN_POINT('',(5.5,0.,0.));
#838=CARTESIAN_POINT('',(5.5,-0.480000000000001,4.47432676500052));
#839=CARTESIAN_POINT('',(5.5,-0.48,0.));
#840=CARTESIAN_POINT('',(5.5,-0.48,3.5));
#841=CARTESIAN_POINT('',(5.5,4.5,3.5));
#842=CARTESIAN_POINT('',(5.5,-2.82842712474619,3.5));
#843=CARTESIAN_POINT('',(5.5,0.,0.));
#844=CARTESIAN_POINT('',(5.5,-3.5,2.82842712474619));
#845=CARTESIAN_POINT('',(5.5,-3.5,0.));
#846=CARTESIAN_POINT('',(5.5,-3.5,-2.82842712474619));
#847=CARTESIAN_POINT('',(5.5,0.,0.));
#848=CARTESIAN_POINT('',(5.5,-2.82842712474619,-3.5));
#849=CARTESIAN_POINT('',(5.5,4.5,-3.5));
#850=CARTESIAN_POINT('',(5.5,-0.48,-3.5));
#851=CARTESIAN_POINT('',(5.5,-0.48,0.));
#852=CARTESIAN_POINT('',(7.5,0.,0.));
#853=CARTESIAN_POINT('',(7.,3.5,2.82842712474619));
#854=CARTESIAN_POINT('',(-1.5,3.5,2.82842712474619));
#855=CARTESIAN_POINT('',(-1.5,0.,0.));
#856=CARTESIAN_POINT('',(-1.5,-0.480000000000001,4.47432676500052));
#857=CARTESIAN_POINT('',(7.,-0.480000000000001,4.47432676500052));
#858=CARTESIAN_POINT('',(7.,-0.48,4.47432676500052));
#859=CARTESIAN_POINT('',(7.,-0.48,3.5));
#860=CARTESIAN_POINT('',(-1.5,-0.48,3.5));
#861=CARTESIAN_POINT('',(-1.5,-0.48,0.));
#862=CARTESIAN_POINT('',(7.,-0.48,3.5));
#863=CARTESIAN_POINT('',(7.,-2.82842712474619,3.5));
#864=CARTESIAN_POINT('',(-1.5,-2.82842712474619,3.5));
#865=CARTESIAN_POINT('',(-1.5,2.675,3.5));
#866=CARTESIAN_POINT('',(7.5,0.,0.));
#867=CARTESIAN_POINT('',(-1.5,0.,0.));
#868=CARTESIAN_POINT('',(-1.5,-3.5,2.82842712474619));
#869=CARTESIAN_POINT('',(7.,-3.5,2.82842712474619));
#870=CARTESIAN_POINT('',(7.,-3.5,2.82842712474619));
#871=CARTESIAN_POINT('',(7.,-3.5,-2.82842712474619));
#872=CARTESIAN_POINT('',(-1.5,-3.5,-2.82842712474619));
#873=CARTESIAN_POINT('',(-1.5,-3.5,0.));
#874=CARTESIAN_POINT('',(7.5,0.,0.));
#875=CARTESIAN_POINT('',(-1.5,0.,0.));
#876=CARTESIAN_POINT('',(-1.5,-2.82842712474619,-3.5));
#877=CARTESIAN_POINT('',(7.,-2.82842712474619,-3.5));
#878=CARTESIAN_POINT('',(7.,-2.82842712474619,-3.5));
#879=CARTESIAN_POINT('',(7.,-0.48,-3.5));
#880=CARTESIAN_POINT('',(-1.5,-0.48,-3.5));
#881=CARTESIAN_POINT('',(-1.5,2.675,-3.5));
#882=CARTESIAN_POINT('',(7.,-0.48,-3.5));
#883=CARTESIAN_POINT('',(7.,-0.48,-4.47432676500052));
#884=CARTESIAN_POINT('',(-1.5,-0.48,-4.47432676500052));
#885=CARTESIAN_POINT('',(-1.5,-0.48,0.));
#886=CARTESIAN_POINT('',(7.5,0.,0.));
#887=CARTESIAN_POINT('',(-1.5,0.,0.));
#888=CARTESIAN_POINT('',(-1.5,3.5,-2.82842712474619));
#889=CARTESIAN_POINT('',(7.,3.5,-2.82842712474619));
#890=CARTESIAN_POINT('',(7.,3.5,-2.82842712474619));
#891=CARTESIAN_POINT('',(-1.5,3.5,0.));
#892=CARTESIAN_POINT('',(-1.5,2.675,0.));
#893=CARTESIAN_POINT('',(-1.5,0.,0.));
#894=CARTESIAN_POINT('',(-1.5,0.,-2.675));
#895=CARTESIAN_POINT('',(7.5,0.,0.));
#896=CARTESIAN_POINT('',(-2.5,0.,0.));
#897=CARTESIAN_POINT('',(-2.5,0.,-2.675));
#898=CARTESIAN_POINT('',(-2.5,3.175,0.));
#899=CARTESIAN_POINT('',(0.,3.5,4.28626379701574E-16));
#900=MECHANICAL_DESIGN_GEOMETRIC_PRESENTATION_REPRESENTATION('',(#510),
#901);
#901=(
GEOMETRIC_REPRESENTATION_CONTEXT(3)
GLOBAL_UNCERTAINTY_ASSIGNED_CONTEXT((#903))
GLOBAL_UNIT_ASSIGNED_CONTEXT((#907,#906,#905))
REPRESENTATION_CONTEXT('SMA-J-P-H-ST-EM3','TOP_LEVEL_ASSEMBLY_PART')
);
#902=(
GEOMETRIC_REPRESENTATION_CONTEXT(3)
GLOBAL_UNCERTAINTY_ASSIGNED_CONTEXT((#904))
GLOBAL_UNIT_ASSIGNED_CONTEXT((#907,#906,#905))
REPRESENTATION_CONTEXT('SMA-J-P-H-ST-EM3','COMPONENT_PART')
);
#903=UNCERTAINTY_MEASURE_WITH_UNIT(LENGTH_MEASURE(0.005),#907,
'DISTANCE_ACCURACY_VALUE','Maximum Tolerance applied to model');
#904=UNCERTAINTY_MEASURE_WITH_UNIT(LENGTH_MEASURE(0.005),#907,
'DISTANCE_ACCURACY_VALUE','Maximum Tolerance applied to model');
#905=(
NAMED_UNIT(*)
SI_UNIT($,.STERADIAN.)
SOLID_ANGLE_UNIT()
);
#906=(
NAMED_UNIT(*)
PLANE_ANGLE_UNIT()
SI_UNIT($,.RADIAN.)
);
#907=(
LENGTH_UNIT()
NAMED_UNIT(*)
SI_UNIT(.MILLI.,.METRE.)
);
#908=PRODUCT_DEFINITION_SHAPE('','',#911);
#909=PRODUCT_DEFINITION_SHAPE('','',#912);
#910=PRODUCT_DEFINITION_SHAPE(' ','NAUO PRDDFN',#19);
#911=PRODUCT_DEFINITION('','',#915,#913);
#912=PRODUCT_DEFINITION('','',#916,#914);
#913=PRODUCT_DEFINITION_CONTEXT('',#926,'design');
#914=PRODUCT_DEFINITION_CONTEXT('',#926,'design');
#915=PRODUCT_DEFINITION_FORMATION_WITH_SPECIFIED_SOURCE('','',#919,
 .NOT_KNOWN.);
#916=PRODUCT_DEFINITION_FORMATION_WITH_SPECIFIED_SOURCE('','',#920,
 .NOT_KNOWN.);
#917=PRODUCT_RELATED_PRODUCT_CATEGORY('','',(#919));
#918=PRODUCT_RELATED_PRODUCT_CATEGORY('','',(#920));
#919=PRODUCT('SMA-J-P-H-ST-EM3','SMA-J-P-H-ST-EM3','SMA-J-P-H-ST-EM3',(#923));
#920=PRODUCT('SMA-J-P-H-ST-EM3','SMA-J-P-H-ST-EM3','SMA-J-P-H-ST-EM3',(#924));
#921=PRODUCT_CATEGORY('','');
#922=PRODUCT_CATEGORY('','');
#923=PRODUCT_CONTEXT('',#926,'mechanical');
#924=PRODUCT_CONTEXT('',#926,'mechanical');
#925=APPLICATION_PROTOCOL_DEFINITION('international standard',
'automotive_design',2010,#926);
#926=APPLICATION_CONTEXT(
'core data for automotive mechanical design processes');
ENDSEC;
END-ISO-10303-21;
