  0
SECTION
  2
HEADER
  9
$ACADVER
  1
AC1015
  9
$ACADMAINTVER
 70
     6
  9
$DWGCODEPAGE
  3
ANSI_1252
  9
$INSBASE
 10
0.0
 20
0.0
 30
0.0
  9
$EXTMIN
 10
-9.435
 20
122.282316658
 30
0.0
  9
$EXTMAX
 10
8.565
 20
133.346060849
 30
0.0
  9
$LIMMIN
 10
0.0
 20
0.0
  9
$LIMMAX
 10
420.0
 20
297.0
  9
$ORTHOMODE
 70
     0
  9
$REGENMODE
 70
     1
  9
$FILLMODE
 70
     1
  9
$QTEXTMODE
 70
     0
  9
$MIRRTEXT
 70
     1
  9
$LTSCALE
 40
1.0
  9
$ATTMODE
 70
     1
  9
$TEXTSIZE
 40
3.5
  9
$TRACEWID
 40
1.0
  9
$TEXTSTYLE
  7
Standard
  9
$CLAYER
  8
0
  9
$CELTYPE
  6
ByLayer
  9
$CECOLOR
 62
   256
  9
$CELTSCALE
 40
1.0
  9
$DISPSILH
 70
     0
  9
$DIMSCALE
 40
1.0
  9
$DIMASZ
 40
3.302
  9
$DIMEXO
 40
1.0
  9
$DIMDLI
 40
3.75
  9
$DIMRND
 40
0.0
  9
$DIMDLE
 40
0.0
  9
$DIMEXE
 40
1.0
  9
$DIMTP
 40
0.0
  9
$DIMTM
 40
0.0
  9
$DIMTXT
 40
3.5
  9
$DIMCEN
 40
2.5
  9
$DIMTSZ
 40
0.0
  9
$DIMTOL
 70
     0
  9
$DIMLIM
 70
     0
  9
$DIMTIH
 70
     1
  9
$DIMTOH
 70
     1
  9
$DIMSE1
 70
     0
  9
$DIMSE2
 70
     0
  9
$DIMTAD
 70
     1
  9
$DIMZIN
 70
     1
  9
$DIMBLK
  1

  9
$DIMASO
 70
     1
  9
$DIMSHO
 70
     1
  9
$DIMPOST
  1

  9
$DIMAPOST
  1

  9
$DIMALT
 70
     0
  9
$DIMALTD
 70
     3
  9
$DIMALTF
 40
0.0393700787
  9
$DIMLFAC
 40
1.0
  9
$DIMTOFL
 70
     1
  9
$DIMTVP
 40
0.0
  9
$DIMTIX
 70
     0
  9
$DIMSOXD
 70
     0
  9
$DIMSAH
 70
     0
  9
$DIMBLK1
  1

  9
$DIMBLK2
  1

  9
$DIMSTYLE
  2
ISO-25
  9
$DIMCLRD
 70
     0
  9
$DIMCLRE
 70
     0
  9
$DIMCLRT
 70
     0
  9
$DIMTFAC
 40
1.0
  9
$DIMGAP
 40
1.524
  9
$DIMJUST
 70
     0
  9
$DIMSD1
 70
     0
  9
$DIMSD2
 70
     0
  9
$DIMTOLJ
 70
     0
  9
$DIMTZIN
 70
     1
  9
$DIMALTZ
 70
     0
  9
$DIMALTTZ
 70
     0
  9
$DIMUPT
 70
     0
  9
$DIMDEC
 70
     2
  9
$DIMTDEC
 70
     2
  9
$DIMALTU
 70
     2
  9
$DIMALTTD
 70
     3
  9
$DIMTXSTY
  7
Standard
  9
$DIMAUNIT
 70
     0
  9
$DIMADEC
 70
     2
  9
$DIMALTRND
 40
0.0
  9
$DIMAZIN
 70
     0
  9
$DIMDSEP
 70
    44
  9
$DIMATFIT
 70
     3
  9
$DIMFRAC
 70
     0
  9
$DIMLDRBLK
  1

  9
$DIMLUNIT
 70
     2
  9
$DIMLWD
 70
    -2
  9
$DIMLWE
 70
    -2
  9
$DIMTMOVE
 70
     0
  9
$LUNITS
 70
     2
  9
$LUPREC
 70
     2
  9
$SKETCHINC
 40
1.0
  9
$FILLETRAD
 40
10.0
  9
$AUNITS
 70
     0
  9
$AUPREC
 70
     2
  9
$MENU
  1
.
  9
$ELEVATION
 40
0.0
  9
$PELEVATION
 40
0.0
  9
$THICKNESS
 40
0.0
  9
$LIMCHECK
 70
     0
  9
$CHAMFERA
 40
0.0
  9
$CHAMFERB
 40
0.0
  9
$CHAMFERC
 40
0.0
  9
$CHAMFERD
 40
0.0
  9
$SKPOLY
 70
     0
  9
$TDCREATE
 40
2460712.842136609
  9
$TDUCREATE
 40
2460712.612969942
  9
$TDUPDATE
 40
2460712.842164248
  9
$TDUUPDATE
 40
2460712.612997581
  9
$TDINDWG
 40
0.0000000116
  9
$TDUSRTIMER
 40
0.0000000116
  9
$USRTIMER
 70
     1
  9
$ANGBASE
 50
0.0
  9
$ANGDIR
 70
     0
  9
$PDMODE
 70
     0
  9
$PDSIZE
 40
-1.0
  9
$PLINEWID
 40
0.0
  9
$SPLFRAME
 70
     0
  9
$SPLINETYPE
 70
     6
  9
$SPLINESEGS
 70
     8
  9
$HANDSEED
  5
251
  9
$SURFTAB1
 70
     6
  9
$SURFTAB2
 70
     6
  9
$SURFTYPE
 70
     6
  9
$SURFU
 70
     6
  9
$SURFV
 70
     6
  9
$UCSBASE
  2

  9
$UCSNAME
  2

  9
$UCSORG
 10
0.0
 20
0.0
 30
0.0
  9
$UCSXDIR
 10
1.0
 20
0.0
 30
0.0
  9
$UCSYDIR
 10
0.0
 20
1.0
 30
0.0
  9
$UCSORTHOREF
  2

  9
$UCSORTHOVIEW
 70
     0
  9
$UCSORGTOP
 10
0.0
 20
0.0
 30
0.0
  9
$UCSORGBOTTOM
 10
0.0
 20
0.0
 30
0.0
  9
$UCSORGLEFT
 10
0.0
 20
0.0
 30
0.0
  9
$UCSORGRIGHT
 10
0.0
 20
0.0
 30
0.0
  9
$UCSORGFRONT
 10
0.0
 20
0.0
 30
0.0
  9
$UCSORGBACK
 10
0.0
 20
0.0
 30
0.0
  9
$PUCSBASE
  2

  9
$PUCSNAME
  2

  9
$PUCSORG
 10
0.0
 20
0.0
 30
0.0
  9
$PUCSXDIR
 10
1.0
 20
0.0
 30
0.0
  9
$PUCSYDIR
 10
0.0
 20
1.0
 30
0.0
  9
$PUCSORTHOREF
  2

  9
$PUCSORTHOVIEW
 70
     0
  9
$PUCSORGTOP
 10
0.0
 20
0.0
 30
0.0
  9
$PUCSORGBOTTOM
 10
0.0
 20
0.0
 30
0.0
  9
$PUCSORGLEFT
 10
0.0
 20
0.0
 30
0.0
  9
$PUCSORGRIGHT
 10
0.0
 20
0.0
 30
0.0
  9
$PUCSORGFRONT
 10
0.0
 20
0.0
 30
0.0
  9
$PUCSORGBACK
 10
0.0
 20
0.0
 30
0.0
  9
$USERI1
 70
     0
  9
$USERI2
 70
     0
  9
$USERI3
 70
     0
  9
$USERI4
 70
     0
  9
$USERI5
 70
     0
  9
$USERR1
 40
0.0
  9
$USERR2
 40
0.0
  9
$USERR3
 40
0.0
  9
$USERR4
 40
0.0
  9
$USERR5
 40
0.0
  9
$WORLDVIEW
 70
     1
  9
$SHADEDGE
 70
     3
  9
$SHADEDIF
 70
    70
  9
$TILEMODE
 70
     1
  9
$MAXACTVP
 70
    64
  9
$PINSBASE
 10
0.0
 20
0.0
 30
0.0
  9
$PLIMCHECK
 70
     0
  9
$PEXTMIN
 10
1.0000000000E+20
 20
1.0000000000E+20
 30
1.0000000000E+20
  9
$PEXTMAX
 10
-1.0000000000E+20
 20
-1.0000000000E+20
 30
-1.0000000000E+20
  9
$PLIMMIN
 10
0.0
 20
0.0
  9
$PLIMMAX
 10
420.0
 20
297.0
  9
$UNITMODE
 70
     0
  9
$VISRETAIN
 70
     1
  9
$PLINEGEN
 70
     0
  9
$PSLTSCALE
 70
     1
  9
$TREEDEPTH
 70
  3020
  9
$CMLSTYLE
  2
Standard
  9
$CMLJUST
 70
     0
  9
$CMLSCALE
 40
20.0
  9
$PROXYGRAPHICS
 70
     1
  9
$MEASUREMENT
 70
     1
  9
$CELWEIGHT
370
    -1
  9
$ENDCAPS
280
     0
  9
$JOINSTYLE
280
     0
  9
$LWDISPLAY
290
     1
  9
$INSUNITS
 70
     4
  9
$HYPERLINKBASE
  1

  9
$STYLESHEET
  1

  9
$XEDIT
290
     1
  9
$CEPSNTYPE
380
     0
  9
$PSTYLEMODE
290
     1
  9
$FINGERPRINTGUID
  2
{7163D8EB-CBE5-480B-8AE6-5CCB982EC0A7}
  9
$VERSIONGUID
  2
{FAEB1C32-E019-11D5-929B-00C0DF256EC4}
  9
$EXTNAMES
290
     1
  9
$PSVPSCALE
 40
0.0
  9
$OLESTARTUP
290
     0
  0
ENDSEC
  0
SECTION
  2
CLASSES
  0
CLASS
  1
ACDBDICTIONARYWDFLT
  2
AcDbDictionaryWithDefault
  3
ObjectDBX Classes
 90
        0
280
     0
281
     0
  0
CLASS
  1
VISUALSTYLE
  2
AcDbVisualStyle
  3
ObjectDBX Classes
 90
     4095
280
     0
281
     0
  0
CLASS
  1
MATERIAL
  2
AcDbMaterial
  3
ObjectDBX Classes
 90
     1153
280
     0
281
     0
  0
CLASS
  1
SCALE
  2
AcDbScale
  3
ObjectDBX Classes
 90
     1153
280
     0
281
     0
  0
CLASS
  1
TABLESTYLE
  2
AcDbTableStyle
  3
ObjectDBX Classes
 90
     4095
280
     0
281
     0
  0
CLASS
  1
MLEADERSTYLE
  2
AcDbMLeaderStyle
  3
ACDB_MLEADERSTYLE_CLASS
 90
     4095
280
     0
281
     0
  0
CLASS
  1
SUN
  2
AcDbSun
  3
SCENEOE
 90
     1153
280
     0
281
     0
  0
CLASS
  1
ACDBPLACEHOLDER
  2
AcDbPlaceHolder
  3
ObjectDBX Classes
 90
        0
280
     0
281
     0
  0
CLASS
  1
LAYOUT
  2
AcDbLayout
  3
ObjectDBX Classes
 90
        0
280
     0
281
     0
  0
ENDSEC
  0
SECTION
  2
TABLES
  0
TABLE
  2
VPORT
  5
8
330
0
100
AcDbSymbolTable
 70
     1
  0
VPORT
  5
29
330
8
100
AcDbSymbolTableRecord
100
AcDbViewportTableRecord
  2
*Active
 70
     0
 10
0.0
 20
0.0
 11
1.0
 21
1.0
 12
-0.435
 22
127.8141887535
 13
0.0
 23
0.0
 14
10.0
 24
10.0
 15
10.0
 25
10.0
 16
0.0
 26
0.0
 36
1.0
 17
0.0
 27
0.0
 37
0.0
 40
11.2850190748
 41
1.6269356638
 42
50.0
 43
0.0
 44
0.0
 50
0.0
 51
0.0
 71
     0
 72
   100
 73
     1
 74
     3
 75
     0
 76
     0
 77
     0
 78
     0
281
     0
 65
     1
110
0.0
120
0.0
130
0.0
111
1.0
121
0.0
131
0.0
112
0.0
122
1.0
132
0.0
 79
     0
146
0.0
  0
ENDTAB
  0
TABLE
  2
LTYPE
  5
5
330
0
100
AcDbSymbolTable
 70
     6
  0
LTYPE
  5
14
330
5
100
AcDbSymbolTableRecord
100
AcDbLinetypeTableRecord
  2
ByBlock
 70
     0
  3

 72
    65
 73
     0
 40
0.0
  0
LTYPE
  5
15
330
5
100
AcDbSymbolTableRecord
100
AcDbLinetypeTableRecord
  2
ByLayer
 70
     0
  3

 72
    65
 73
     0
 40
0.0
  0
LTYPE
  5
16
330
5
100
AcDbSymbolTableRecord
100
AcDbLinetypeTableRecord
  2
Continuous
 70
     0
  3
Solid line
 72
    65
 73
     0
 40
0.0
  0
LTYPE
  5
6E
330
5
100
AcDbSymbolTableRecord
100
AcDbLinetypeTableRecord
  2
HIDDEN
 70
     0
  3
Hidden __ __ __ __ __ __ __ __ __ __ __ __ __ __
 72
    65
 73
     2
 40
1.905
 49
1.27
 74
     0
 49
-0.635
 74
     0
  0
LTYPE
  5
6F
330
5
100
AcDbSymbolTableRecord
100
AcDbLinetypeTableRecord
  2
PHANTOM
 70
     0
  3
Phantom ______  __  __  ______  __  __  ______
 72
    65
 73
     6
 40
12.7
 49
6.35
 74
     0
 49
-1.27
 74
     0
 49
1.27
 74
     0
 49
-1.27
 74
     0
 49
1.27
 74
     0
 49
-1.27
 74
     0
  0
LTYPE
  5
70
330
5
100
AcDbSymbolTableRecord
100
AcDbLinetypeTableRecord
  2
CENTER
 70
     0
  3
Center ____ _ ____ _ ____ _ ____ _ ____ _ ____
 72
    65
 73
     4
 40
10.16
 49
6.35
 74
     0
 49
-1.27
 74
     0
 49
1.27
 74
     0
 49
-1.27
 74
     0
  0
LTYPE
  5
71
330
5
100
AcDbSymbolTableRecord
100
AcDbLinetypeTableRecord
  2
CENTERX2
 70
     0
  3
Center (2x) ________  __  ________  __  _____
 72
    65
 73
     4
 40
20.32
 49
12.7
 74
     0
 49
-2.54
 74
     0
 49
2.54
 74
     0
 49
-2.54
 74
     0
  0
LTYPE
  5
72
330
5
100
AcDbSymbolTableRecord
100
AcDbLinetypeTableRecord
  2
DOT2
 70
     0
  3
Dot (.5x) ........................................
 72
    65
 73
     2
 40
0.635
 49
0.0
 74
     0
 49
-0.635
 74
     0
  0
ENDTAB
  0
TABLE
  2
LAYER
  5
2
330
0
100
AcDbSymbolTable
 70
     1
  0
LAYER
  5
10
330
2
100
AcDbSymbolTableRecord
100
AcDbLayerTableRecord
  2
0
 70
     0
 62
     7
  6
Continuous
370
    -3
390
F
  0
ENDTAB
  0
TABLE
  2
STYLE
  5
3
330
0
100
AcDbSymbolTable
 70
     1
  0
STYLE
  5
11
330
3
100
AcDbSymbolTableRecord
100
AcDbTextStyleTableRecord
  2
Standard
 70
     0
 40
0.0
 41
1.0
 50
0.0
 71
     0
 42
3.5
  3
txt
  4

  0
ENDTAB
  0
TABLE
  2
VIEW
  5
6
330
0
100
AcDbSymbolTable
 70
     0
  0
ENDTAB
  0
TABLE
  2
UCS
  5
7
330
0
100
AcDbSymbolTable
 70
     0
  0
ENDTAB
  0
TABLE
  2
APPID
  5
9
330
0
100
AcDbSymbolTable
 70
     1
  0
APPID
  5
12
330
9
100
AcDbSymbolTableRecord
100
AcDbRegAppTableRecord
  2
ACAD
 70
     0
  0
ENDTAB
  0
TABLE
  2
DIMSTYLE
  5
A
330
0
100
AcDbSymbolTable
 70
     1
100
AcDbDimStyleTable
  0
DIMSTYLE
105
27
330
A
100
AcDbSymbolTableRecord
100
AcDbDimStyleTableRecord
  2
ISO-25
 70
     0
 41
2.5
 42
0.625
 43
3.75
 44
1.25
 73
     0
 74
     0
 77
     1
 78
     8
140
2.5
141
2.5
143
0.0393700787
147
0.625
171
     3
172
     1
178
     0
271
     2
272
     2
274
     3
278
    44
283
     0
284
     8
340
11
  0
ENDTAB
  0
TABLE
  2
BLOCK_RECORD
  5
1
330
0
100
AcDbSymbolTable
 70
     1
  0
BLOCK_RECORD
  5
1F
330
1
100
AcDbSymbolTableRecord
100
AcDbBlockTableRecord
  2
*Model_Space
340
22
  0
BLOCK_RECORD
  5
1B
330
1
100
AcDbSymbolTableRecord
100
AcDbBlockTableRecord
  2
*Paper_Space
340
1E
  0
BLOCK_RECORD
  5
23
330
1
100
AcDbSymbolTableRecord
100
AcDbBlockTableRecord
  2
*Paper_Space0
340
26
  0
ENDTAB
  0
ENDSEC
  0
SECTION
  2
BLOCKS
  0
BLOCK
  5
20
330
1F
100
AcDbEntity
  8
0
100
AcDbBlockBegin
  2
*Model_Space
 70
     0
 10
0.0
 20
0.0
 30
0.0
  3
*Model_Space
  1

  0
ENDBLK
  5
21
330
1F
100
AcDbEntity
  8
0
100
AcDbBlockEnd
  0
BLOCK
  5
1C
330
1B
100
AcDbEntity
 67
     1
  8
0
100
AcDbBlockBegin
  2
*Paper_Space
 70
     0
 10
0.0
 20
0.0
 30
0.0
  3
*Paper_Space
  1

  0
ENDBLK
  5
1D
330
1B
100
AcDbEntity
 67
     1
  8
0
100
AcDbBlockEnd
  0
BLOCK
  5
24
330
23
100
AcDbEntity
  8
0
100
AcDbBlockBegin
  2
*Paper_Space0
 70
     0
 10
0.0
 20
0.0
 30
0.0
  3
*Paper_Space0
  1

  0
ENDBLK
  5
25
330
23
100
AcDbEntity
  8
0
100
AcDbBlockEnd
  0
ENDSEC
  0
SECTION
  2
ENTITIES
  0
SPLINE
  5
80
330
1F
100
AcDbEntity
  8
0
  6
Continuous
 62
     7
370
    25
100
AcDbSpline
210
0.0
220
0.0
230
1.0
 70
     8
 71
     3
 72
    10
 73
     6
 74
     0
 42
0.000000001
 43
0.00000001
 40
0.0
 40
0.0
 40
0.0
 40
0.0
 40
0.5
 40
0.5
 40
1.0
 40
1.0
 40
1.0
 40
1.0
 10
-0.999999999999969
 20
128.4323166580489
 30
0.0
 10
-0.9689814553144589
 20
128.4323166580488
 30
0.0
 10
-0.9387239953023047
 20
128.4419336057857
 30
0.0
 10
-0.8880709239401413
 20
128.4777507360338
 30
0.0
 10
-0.8689181586573183
 20
128.5030720936629
 30
0.0
 10
-0.8585786437621241
 20
128.5323166580492
 30
0.0
  0
SPLINE
  5
82
330
1F
100
AcDbEntity
  8
0
  6
Continuous
 62
     7
370
    25
100
AcDbSpline
210
0.0
220
0.0
230
1.0
 70
     8
 71
     3
 72
    10
 73
     6
 74
     0
 42
0.000000001
 43
0.00000001
 40
0.0
 40
0.0
 40
0.0
 40
0.0
 40
0.4999999999999998
 40
0.4999999999999998
 40
1.0
 40
1.0
 40
1.0
 40
1.0
 10
0.8585786437628936
 20
128.5323166580496
 30
0.0
 10
0.8689181586580005
 20
128.5030720936635
 30
0.0
 10
0.8880709239407115
 20
128.4777507360345
 30
0.0
 10
0.9387239953026234
 20
128.4419336057865
 30
0.0
 10
0.9689814553146433
 20
128.4323166580496
 30
0.0
 10
1.000000000000022
 20
128.4323166580496
 30
0.0
  0
SPLINE
  5
83
330
1F
100
AcDbEntity
  8
0
  6
Continuous
 62
     7
370
    25
100
AcDbSpline
210
0.0
220
0.0
230
1.0
 70
     8
 71
     3
 72
    10
 73
     6
 74
     0
 42
0.000000001
 43
0.00000001
 40
0.0
 40
0.0
 40
0.0
 40
0.0
 40
0.5000000000000004
 40
0.5000000000000004
 40
1.0
 40
1.0
 40
1.0
 40
1.0
 10
1.000000000000022
 20
128.4323166580496
 30
0.0
 10
1.031018544685378
 20
128.4323166580496
 30
0.0
 10
1.061276004697384
 20
128.4419336057864
 30
0.0
 10
1.111929076059305
 20
128.4777507360343
 30
0.0
 10
1.131081841342038
 20
128.5030720936633
 30
0.0
 10
1.141421356237188
 20
128.5323166580494
 30
0.0
  0
SPLINE
  5
84
330
1F
100
AcDbEntity
  8
0
  6
Continuous
 62
     7
370
    25
100
AcDbSpline
210
0.0
220
0.0
230
1.0
 70
     8
 71
     3
 72
    12
 73
     8
 74
     0
 42
0.000000001
 43
0.00000001
 40
0.0
 40
0.0
 40
0.0
 40
0.0
 40
0.1680028025800497
 40
0.3324212115924627
 40
0.5005478958761206
 40
0.7502036691500282
 40
1.0
 40
1.0
 40
1.0
 40
1.0
 10
1.141421356237746
 20
128.5323166580492
 30
0.0
 10
1.145400178576685
 20
128.5418735576743
 30
0.0
 10
1.153272933806413
 20
128.5607834574119
 30
0.0
 10
1.172281213780752
 20
128.585412456189
 30
0.0
 10
1.199431114064964
 20
128.6087832261537
 30
0.0
 10
1.23659133528793
 20
128.6284836951897
 30
0.0
 10
1.267422694522715
 20
128.6310387640773
 30
0.0
 10
1.28284271247514
 20
128.6323166580494
 30
0.0
  0
SPLINE
  5
88
330
1F
100
AcDbEntity
  8
0
  6
Continuous
 62
     7
370
    25
100
AcDbSpline
210
0.0
220
0.0
230
1.0
 70
     8
 71
     3
 72
    10
 73
     6
 74
     0
 42
0.000000001
 43
0.00000001
 40
0.0
 40
0.0
 40
0.0
 40
0.0
 40
0.4999999999999998
 40
0.4999999999999998
 40
1.0
 40
1.0
 40
1.0
 40
1.0
 10
0.6499999999994897
 20
124.9823166580495
 30
0.0
 10
0.6499999999994879
 20
124.9425353104494
 30
0.0
 10
0.6658043221688534
 20
124.9043803015239
 30
0.0
 10
0.7220636434744275
 20
124.8481209802184
 30
0.0
 10
0.7602186523998277
 20
124.832316658049
 30
0.0
 10
0.7999999999999543
 20
124.832316658049
 30
0.0
  0
SPLINE
  5
8A
330
1F
100
AcDbEntity
  8
0
  6
Continuous
 62
     7
370
    25
100
AcDbSpline
210
0.0
220
0.0
230
1.0
 70
     8
 71
     3
 72
     8
 73
     4
 74
     0
 42
0.000000001
 43
0.00000001
 40
0.0
 40
0.0
 40
0.0
 40
0.0
 40
1.0
 40
1.0
 40
1.0
 40
1.0
 10
0.6500000000005025
 20
125.3823166580494
 30
0.0
 10
0.650000000000495
 20
125.4651039095381
 30
0.0
 10
0.5827872514887604
 20
125.5323166580498
 30
0.0
 10
0.5000000000000646
 20
125.5323166580498
 30
0.0
  0
SPLINE
  5
8C
330
1F
100
AcDbEntity
  8
0
  6
Continuous
 62
     7
370
    25
100
AcDbSpline
210
0.0
220
0.0
230
1.0
 70
     8
 71
     3
 72
     8
 73
     4
 74
     0
 42
0.000000001
 43
0.00000001
 40
0.0
 40
0.0
 40
0.0
 40
0.0
 40
1.0
 40
1.0
 40
1.0
 40
1.0
 10
-0.4999999999999511
 20
125.5323166580499
 30
0.0
 10
-0.5827872514887048
 20
125.5323166580499
 30
0.0
 10
-0.6500000000004885
 20
125.4651039095382
 30
0.0
 10
-0.650000000000496
 20
125.3823166580494
 30
0.0
  0
SPLINE
  5
8E
330
1F
100
AcDbEntity
  8
0
  6
Continuous
 62
     7
370
    25
100
AcDbSpline
210
0.0
220
0.0
230
1.0
 70
     8
 71
     3
 72
     8
 73
     4
 74
     0
 42
0.000000001
 43
0.00000001
 40
0.0
 40
0.0
 40
0.0
 40
0.0
 40
1.0
 40
1.0
 40
1.0
 40
1.0
 10
-0.7999999999997178
 20
124.8323166580489
 30
0.0
 10
-0.7172127485110408
 20
124.832316658049
 30
0.0
 10
-0.6499999999994167
 20
124.8995294065608
 30
0.0
 10
-0.6499999999995282
 20
124.9823166580495
 30
0.0
  0
SPLINE
  5
92
330
1F
100
AcDbEntity
  8
0
  6
Continuous
 62
     7
370
    25
100
AcDbSpline
210
0.0
220
0.0
230
1.0
 70
     8
 71
     3
 72
    10
 73
     6
 74
     0
 42
0.000000001
 43
0.00000001
 40
0.0
 40
0.0
 40
0.0
 40
0.0
 40
0.5
 40
0.5
 40
1.0
 40
1.0
 40
1.0
 40
1.0
 10
-1.141421356237789
 20
128.5323166580493
 30
0.0
 10
-1.151760871132905
 20
128.5615612224354
 30
0.0
 10
-1.170913636415631
 20
128.5868825800645
 30
0.0
 10
-1.221566707777585
 20
128.6226997103125
 30
0.0
 10
-1.251824167789628
 20
128.6323166580494
 30
0.0
 10
-1.282842712475031
 20
128.6323166580494
 30
0.0
  0
SPLINE
  5
93
330
1F
100
AcDbEntity
  8
0
  6
Continuous
 62
     7
370
    25
100
AcDbSpline
210
0.0
220
0.0
230
1.0
 70
     8
 71
     3
 72
    10
 73
     6
 74
     0
 42
0.000000001
 43
0.00000001
 40
0.0
 40
0.0
 40
0.0
 40
0.0
 40
0.5
 40
0.5
 40
1.0
 40
1.0
 40
1.0
 40
1.0
 10
-1.14142135623783
 20
128.5323166580493
 30
0.0
 10
-1.131081841342665
 20
128.5030720936631
 30
0.0
 10
-1.111929076059853
 20
128.4777507360339
 30
0.0
 10
-1.061276004697678
 20
128.4419336057857
 30
0.0
 10
-1.031018544685504
 20
128.4323166580488
 30
0.0
 10
-0.9999999999999688
 20
128.4323166580489
 30
0.0
  0
SPLINE
  5
95
330
1F
100
AcDbEntity
  8
0
  6
Continuous
 62
     7
370
    25
100
AcDbSpline
210
0.0
220
0.0
230
1.0
 70
    24
 71
     3
 72
    10
 73
     6
 74
     0
 42
0.000000001
 43
0.00000001
 40
0.0
 40
0.0
 40
0.0
 40
0.0
 40
0.4999999999999999
 40
0.4999999999999999
 40
0.9999999999999999
 40
0.9999999999999999
 40
0.9999999999999999
 40
0.9999999999999999
 10
4.999999999999845
 20
124.8323166580494
 30
0.0
 10
4.999999999999786
 20
124.8323166580494
 30
0.0
 10
4.905174066983838
 20
124.8323166580494
 30
0.0
 10
4.567618139151434
 20
124.8323166580494
 30
0.0
 10
4.338688085599762
 20
124.8323166580494
 30
0.0
 10
4.099999999999811
 20
124.8323166580494
 30
0.0
  0
SPLINE
  5
96
330
1F
100
AcDbEntity
  8
0
  6
Continuous
 62
     7
370
    25
100
AcDbSpline
210
0.0
220
0.0
230
1.0
 70
    24
 71
     3
 72
    17
 73
    13
 74
     0
 42
0.000000001
 43
0.00000001
 40
0.0
 40
0.0
 40
0.0
 40
0.0
 40
0.0628555083238207
 40
0.1251043957808987
 40
0.1873577913129087
 40
0.2502266923968949
 40
0.3751708875474661
 40
0.5001510097543104
 40
0.6250952049052576
 40
0.7500753271117145
 40
0.8750286830089807
 40
0.9999999999999999
 40
0.9999999999999999
 40
0.9999999999999999
 40
0.9999999999999999
 10
4.100000000000147
 20
128.6323166580495
 30
0.0
 10
4.129596793728695
 20
128.6323166580494
 30
0.0
 10
4.188504741420195
 20
128.6323166580495
 30
0.0
 10
4.275887894353733
 20
128.6323166580494
 30
0.0
 10
4.36156482093114
 20
128.6323166580495
 30
0.0
 10
4.472464586804255
 20
128.6323166580494
 30
0.0
 10
4.60344950198851
 20
128.6323166580495
 30
0.0
 10
4.740334198301188
 20
128.6323166580495
 30
0.0
 10
4.853530407489772
 20
128.6323166580494
 30
0.0
 10
4.936289165804875
 20
128.6323166580494
 30
0.0
 10
4.990238758655394
 20
128.6323166580494
 30
0.0
 10
4.996746096999703
 20
128.6323166580494
 30
0.0
 10
5.00000000000014
 20
128.6323166580494
 30
0.0
  0
SPLINE
  5
97
330
1F
100
AcDbEntity
  8
0
  6
Continuous
 62
     7
370
    25
100
AcDbSpline
210
0.0
220
0.0
230
1.0
 70
    24
 71
     3
 72
     8
 73
     4
 74
     0
 42
0.000000001
 43
0.00000001
 40
0.0
 40
0.0
 40
0.0
 40
0.0
 40
1.0
 40
1.0
 40
1.0
 40
1.0
 10
-4.099999999999835
 20
124.8323166580494
 30
0.0
 10
-4.596723508930525
 20
124.8323166580493
 30
0.0
 10
-4.999999999999795
 20
124.8323166580494
 30
0.0
 10
-4.999999999999967
 20
124.8323166580494
 30
0.0
  0
SPLINE
  5
99
330
1F
100
AcDbEntity
  8
0
  6
Continuous
 62
     7
370
    25
100
AcDbSpline
210
0.0
220
0.0
230
1.0
 70
    24
 71
     3
 72
    17
 73
    13
 74
     0
 42
0.000000001
 43
0.00000001
 40
0.0
 40
0.0
 40
0.0
 40
0.0
 40
0.0628555083242502
 40
0.1251043957814786
 40
0.187357791313342
 40
0.2502266923969215
 40
0.3751708875470055
 40
0.5001510097543099
 40
0.6250952049050416
 40
0.7500753271117597
 40
0.875028683009785
 40
1.0
 40
1.0
 40
1.0
 40
1.0
 10
-4.999999999999733
 20
128.6323166580494
 30
0.0
 10
-4.999187126977422
 20
128.6323166580494
 30
0.0
 10
-4.997569226000805
 20
128.6323166580494
 30
0.0
 10
-4.984211207586539
 20
128.6323166580494
 30
0.0
 10
-4.962793277292797
 20
128.6323166580494
 30
0.0
 10
-4.922908905516381
 20
128.6323166580494
 30
0.0
 10
-4.853429834123403
 20
128.6323166580493
 30
0.0
 10
-4.740394254277601
 20
128.6323166580495
 30
0.0
 10
-4.603429663992578
 20
128.6323166580495
 30
0.0
 10
-4.446583955452477
 20
128.6323166580494
 30
0.0
 10
-4.27678350859965
 20
128.6323166580494
 30
0.0
 10
-4.158930659404906
 20
128.6323166580494
 30
0.0
 10
-4.09999999999977
 20
128.6323166580495
 30
0.0
  0
SPLINE
  5
9B
330
1F
100
AcDbEntity
  8
0
  6
Continuous
 62
     7
370
    25
100
AcDbSpline
210
0.0
220
0.0
230
1.0
 70
     8
 71
     3
 72
     8
 73
     4
 74
     0
 42
0.000000001
 43
0.00000001
 40
0.0
 40
0.0
 40
0.0
 40
0.0
 40
1.0
 40
1.0
 40
1.0
 40
1.0
 10
-0.8585786437621262
 20
128.5323166580492
 30
0.0
 10
-0.8529146952711775
 20
128.548336723594
 30
0.0
 10
-0.8499999999993603
 20
128.5653248125766
 30
0.0
 10
-0.8499999999993588
 20
128.5823166580495
 30
0.0
  0
SPLINE
  5
9C
330
1F
100
AcDbEntity
  8
0
  6
Continuous
 62
     7
370
    25
100
AcDbSpline
210
0.0
220
0.0
230
1.0
 70
     8
 71
     3
 72
     9
 73
     5
 74
     0
 42
0.000000001
 43
0.00000001
 40
0.0
 40
0.0
 40
0.0
 40
0.0
 40
0.496387399733931
 40
1.0
 40
1.0
 40
1.0
 40
1.0
 10
0.8585786437628468
 20
128.5323166580493
 30
0.0
 10
0.8560765763839512
 20
128.5404965615055
 30
0.0
 10
0.8510360226143815
 20
128.5569754315587
 30
0.0
 10
0.8503470003129237
 20
128.5738289924335
 30
0.0
 10
0.8500000000000455
 20
128.5823166580494
 30
0.0
  0
SPLINE
  5
A4
330
1F
100
AcDbEntity
  8
0
  6
Continuous
 62
     7
370
    25
100
AcDbSpline
210
0.0
220
0.0
230
1.0
 70
    24
 71
     3
 72
    17
 73
    13
 74
     0
 42
0.000000001
 43
0.00000001
 40
0.0000000000000041
 40
0.0000000000000041
 40
0.0000000000000041
 40
0.0000000000000041
 40
0.0000503657057969
 40
0.0000503657057969
 40
0.0000503657057969
 40
0.0001007314115937
 40
0.0001007314115937
 40
0.0001007314115937
 40
0.0001510971173903
 40
0.0001510971173903
 40
0.0001510971173903
 40
0.0001692127567875
 40
0.0001692127567875
 40
0.0001692127567875
 40
0.0001692127567875
 10
-1.6499999999999
 20
130.1963704899861
 30
0.0
 10
-1.6499999999999
 20
130.2034656456626
 30
0.0
 10
-1.649999999999875
 20
130.2132856453824
 30
0.0
 10
-1.649999999999875
 20
130.2250172906993
 30
0.0
 10
-1.649999999999875
 20
130.2367489360163
 30
0.0
 10
-1.65
 20
130.2507158001927
 30
0.0
 10
-1.65
 20
130.265761281134
 30
0.0
 10
-1.649999999999999
 20
130.2808067620753
 30
0.0
 10
-1.64999999999979
 20
130.2973458327221
 30
0.0
 10
-1.64999999999979
 20
130.314008885443
 30
0.0
 10
-1.64999999999979
 20
130.3200772044102
 30
0.0
 10
-1.6499999999999
 20
130.3262026289475
 30
0.0
 10
-1.6499999999999
 20
130.3323166580494
 30
0.0
  0
SPLINE
  5
A5
330
1F
100
AcDbEntity
  8
0
  6
Continuous
 62
     7
370
    25
100
AcDbSpline
210
0.0
220
0.0
230
1.0
 70
    24
 71
     3
 72
    17
 73
    13
 74
     0
 42
0.000000001
 43
0.00000001
 40
0.0
 40
0.0
 40
0.0
 40
0.0
 40
0.0000503657057968
 40
0.0000503657057968
 40
0.0000503657057968
 40
0.0001007314115935
 40
0.0001007314115935
 40
0.0001007314115935
 40
0.0001510971173905
 40
0.0001510971173905
 40
0.0001510971173905
 40
0.000169212756786
 40
0.000169212756786
 40
0.000169212756786
 40
0.000169212756786
 10
-1.850000000000045
 20
130.3323166580495
 30
0.0
 10
-1.850000000000045
 20
130.3155280894506
 30
0.0
 10
-1.850000000000295
 20
130.2985079961264
 30
0.0
 10
-1.850000000000295
 20
130.2826658194052
 30
0.0
 10
-1.850000000000295
 20
130.266823642684
 30
0.0
 10
-1.850000000000185
 20
130.2517224357717
 30
0.0
 10
-1.850000000000185
 20
130.2386127361787
 30
0.0
 10
-1.850000000000185
 20
130.2255030365855
 30
0.0
 10
-1.849999999999825
 20
130.2140232626106
 30
0.0
 10
-1.849999999999825
 20
130.2051240593277
 30
0.0
 10
-1.849999999999825
 20
130.2018831643384
 30
0.0
 10
-1.849999999999965
 20
130.1989543903371
 30
0.0
 10
-1.849999999999965
 20
130.1963704899867
 30
0.0
  0
SPLINE
  5
B0
330
1F
100
AcDbEntity
  8
0
  6
Continuous
 62
     7
370
    25
100
AcDbSpline
210
0.0
220
0.0
230
1.0
 70
    24
 71
     3
 72
    17
 73
    13
 74
     0
 42
0.000000001
 43
0.00000001
 40
0.000000000000004
 40
0.000000000000004
 40
0.000000000000004
 40
0.000000000000004
 40
0.0000503657057967
 40
0.0000503657057967
 40
0.0000503657057967
 40
0.0001007314115936
 40
0.0001007314115936
 40
0.0001007314115936
 40
0.0001510971173905
 40
0.0001510971173905
 40
0.0001510971173905
 40
0.0001692127567876
 40
0.0001692127567876
 40
0.0001692127567876
 40
0.0001692127567876
 10
-2.18999999999997
 20
130.1963704899858
 30
0.0
 10
-2.18999999999997
 20
130.2034656456622
 30
0.0
 10
-2.19000000000011
 20
130.2132856453823
 30
0.0
 10
-2.19000000000011
 20
130.2250172906992
 30
0.0
 10
-2.19000000000011
 20
130.2367489360161
 30
0.0
 10
-2.18999999999972
 20
130.2507158001926
 30
0.0
 10
-2.18999999999972
 20
130.2657612811339
 30
0.0
 10
-2.18999999999972
 20
130.2808067620752
 30
0.0
 10
-2.19000000000022
 20
130.297345832722
 30
0.0
 10
-2.19000000000022
 20
130.3140088854429
 30
0.0
 10
-2.19000000000022
 20
130.3200772044102
 30
0.0
 10
-2.18999999999994
 20
130.3262026289475
 30
0.0
 10
-2.18999999999994
 20
130.3323166580494
 30
0.0
  0
SPLINE
  5
B1
330
1F
100
AcDbEntity
  8
0
  6
Continuous
 62
     7
370
    25
100
AcDbSpline
210
0.0
220
0.0
230
1.0
 70
    24
 71
     3
 72
    17
 73
    13
 74
     0
 42
0.000000001
 43
0.00000001
 40
0.0
 40
0.0
 40
0.0
 40
0.0
 40
0.0000503657057968
 40
0.0000503657057968
 40
0.0000503657057968
 40
0.0001007314115937
 40
0.0001007314115937
 40
0.0001007314115937
 40
0.0001510971173904
 40
0.0001510971173904
 40
0.0001510971173904
 40
0.0001692127567863
 40
0.0001692127567863
 40
0.0001692127567863
 40
0.0001692127567863
 10
-2.389999999999975
 20
130.3323166580494
 30
0.0
 10
-2.389999999999975
 20
130.3155280894504
 30
0.0
 10
-2.389999999999725
 20
130.2985079961263
 30
0.0
 10
-2.389999999999725
 20
130.2826658194051
 30
0.0
 10
-2.389999999999725
 20
130.2668236426839
 30
0.0
 10
-2.390000000000115
 20
130.2517224357715
 30
0.0
 10
-2.390000000000115
 20
130.2386127361785
 30
0.0
 10
-2.390000000000115
 20
130.2255030365854
 30
0.0
 10
-2.38999999999981
 20
130.2140232626102
 30
0.0
 10
-2.38999999999981
 20
130.2051240593274
 30
0.0
 10
-2.38999999999981
 20
130.2018831643379
 30
0.0
 10
-2.38999999999995
 20
130.1989543903369
 30
0.0
 10
-2.38999999999995
 20
130.1963704899864
 30
0.0
  0
SPLINE
  5
BC
330
1F
100
AcDbEntity
  8
0
  6
Continuous
 62
     7
370
    25
100
AcDbSpline
210
0.0
220
0.0
230
1.0
 70
    24
 71
     3
 72
    17
 73
    13
 74
     0
 42
0.000000001
 43
0.00000001
 40
0.0000000000000001
 40
0.0000000000000001
 40
0.0000000000000001
 40
0.0000000000000001
 40
0.0000503657057971
 40
0.0000503657057971
 40
0.0000503657057971
 40
0.000100731411594
 40
0.000100731411594
 40
0.000100731411594
 40
0.0001510971173909
 40
0.0001510971173909
 40
0.0001510971173909
 40
0.0001692127567869
 40
0.0001692127567869
 40
0.0001692127567869
 40
0.0001692127567869
 10
0.6500000000000671
 20
130.3323166580495
 30
0.0
 10
0.6500000000000666
 20
130.3155280894505
 30
0.0
 10
0.6500000000002063
 20
130.2985079961261
 30
0.0
 10
0.6500000000002059
 20
130.2826658194049
 30
0.0
 10
0.6500000000002059
 20
130.2668236426836
 30
0.0
 10
0.6500000000000671
 20
130.2517224357713
 30
0.0
 10
0.6500000000000671
 20
130.2386127361781
 30
0.0
 10
0.6500000000000669
 20
130.225503036585
 30
0.0
 10
0.6500000000002061
 20
130.2140232626101
 30
0.0
 10
0.6500000000002059
 20
130.2051240593272
 30
0.0
 10
0.6500000000002059
 20
130.2018831643378
 30
0.0
 10
0.6500000000000671
 20
130.1989543903367
 30
0.0
 10
0.6500000000000671
 20
130.1963704899862
 30
0.0
  0
SPLINE
  5
BD
330
1F
100
AcDbEntity
  8
0
  6
Continuous
 62
     7
370
    25
100
AcDbSpline
210
0.0
220
0.0
230
1.0
 70
    24
 71
     3
 72
    17
 73
    13
 74
     0
 42
0.000000001
 43
0.00000001
 40
0.000000000000004
 40
0.000000000000004
 40
0.000000000000004
 40
0.000000000000004
 40
0.0000503657057969
 40
0.0000503657057969
 40
0.0000503657057969
 40
0.000100731411594
 40
0.000100731411594
 40
0.000100731411594
 40
0.0001510971173908
 40
0.0001510971173908
 40
0.0001510971173908
 40
0.000169212756788
 40
0.000169212756788
 40
0.000169212756788
 40
0.000169212756788
 10
0.8499999999999058
 20
130.1963704899856
 30
0.0
 10
0.8499999999999058
 20
130.2034656456621
 30
0.0
 10
0.8500000000001561
 20
130.2132856453819
 30
0.0
 10
0.8500000000001561
 20
130.2250172906988
 30
0.0
 10
0.8500000000001561
 20
130.2367489360157
 30
0.0
 10
0.8500000000000728
 20
130.2507158001924
 30
0.0
 10
0.8500000000000728
 20
130.2657612811337
 30
0.0
 10
0.8500000000000728
 20
130.280806762075
 30
0.0
 10
0.8500000000001561
 20
130.2973458327219
 30
0.0
 10
0.8500000000001561
 20
130.3140088854428
 30
0.0
 10
0.8500000000001561
 20
130.3200772044102
 30
0.0
 10
0.8500000000000169
 20
130.3262026289475
 30
0.0
 10
0.8500000000000169
 20
130.3323166580495
 30
0.0
  0
SPLINE
  5
C8
330
1F
100
AcDbEntity
  8
0
  6
Continuous
 62
     7
370
    25
100
AcDbSpline
210
0.0
220
0.0
230
1.0
 70
    24
 71
     3
 72
    17
 73
    13
 74
     0
 42
0.000000001
 43
0.00000001
 40
0.0
 40
0.0
 40
0.0
 40
0.0
 40
0.0000503657057969
 40
0.0000503657057969
 40
0.0000503657057969
 40
0.000100731411594
 40
0.000100731411594
 40
0.000100731411594
 40
0.0001510971173908
 40
0.0001510971173908
 40
0.0001510971173908
 40
0.0001692127567867
 40
0.0001692127567867
 40
0.0001692127567867
 40
0.0001692127567867
 10
3.210000000000045
 20
130.3323166580494
 30
0.0
 10
3.210000000000045
 20
130.3155280894504
 30
0.0
 10
3.21
 20
130.2985079961262
 30
0.0
 10
3.21
 20
130.2826658194049
 30
0.0
 10
3.21
 20
130.2668236426837
 30
0.0
 10
3.210000000000075
 20
130.2517224357715
 30
0.0
 10
3.210000000000075
 20
130.2386127361784
 30
0.0
 10
3.210000000000075
 20
130.2255030365853
 30
0.0
 10
3.21
 20
130.2140232626101
 30
0.0
 10
3.21
 20
130.2051240593273
 30
0.0
 10
3.21
 20
130.2018831643379
 30
0.0
 10
3.2100000000001
 20
130.1989543903369
 30
0.0
 10
3.2100000000001
 20
130.1963704899864
 30
0.0
  0
SPLINE
  5
C9
330
1F
100
AcDbEntity
  8
0
  6
Continuous
 62
     7
370
    25
100
AcDbSpline
210
0.0
220
0.0
230
1.0
 70
    24
 71
     3
 72
    17
 73
    13
 74
     0
 42
0.000000001
 43
0.00000001
 40
0.000000000000004
 40
0.000000000000004
 40
0.000000000000004
 40
0.000000000000004
 40
0.0000503657057969
 40
0.0000503657057969
 40
0.0000503657057969
 40
0.0001007314115939
 40
0.0001007314115939
 40
0.0001007314115939
 40
0.0001510971173907
 40
0.0001510971173907
 40
0.0001510971173907
 40
0.0001692127567879
 40
0.0001692127567879
 40
0.0001692127567879
 40
0.0001692127567879
 10
3.410000000000135
 20
130.1963704899857
 30
0.0
 10
3.410000000000135
 20
130.2034656456622
 30
0.0
 10
3.410000000000164
 20
130.213285645382
 30
0.0
 10
3.410000000000164
 20
130.2250172906989
 30
0.0
 10
3.410000000000164
 20
130.2367489360158
 30
0.0
 10
3.41000000000008
 20
130.2507158001926
 30
0.0
 10
3.41000000000008
 20
130.2657612811339
 30
0.0
 10
3.41000000000008
 20
130.2808067620752
 30
0.0
 10
3.410000000000164
 20
130.2973458327219
 30
0.0
 10
3.410000000000164
 20
130.3140088854428
 30
0.0
 10
3.410000000000164
 20
130.3200772044101
 30
0.0
 10
3.41
 20
130.3262026289474
 30
0.0
 10
3.41
 20
130.3323166580494
 30
0.0
  0
SPLINE
  5
D4
330
1F
100
AcDbEntity
  8
0
  6
Continuous
 62
     7
370
    25
100
AcDbSpline
210
0.0
220
0.0
230
1.0
 70
    24
 71
     3
 72
    17
 73
    13
 74
     0
 42
0.000000001
 43
0.00000001
 40
0.0
 40
0.0
 40
0.0
 40
0.0
 40
0.0000503657057968
 40
0.0000503657057968
 40
0.0000503657057968
 40
0.0001007314115937
 40
0.0001007314115937
 40
0.0001007314115937
 40
0.0001510971173903
 40
0.0001510971173903
 40
0.0001510971173903
 40
0.0001692127567796
 40
0.0001692127567796
 40
0.0001692127567796
 40
0.0001692127567796
 10
1.15000000000018
 20
130.3323166580494
 30
0.0
 10
1.15000000000018
 20
130.3155280894505
 30
0.0
 10
1.150000000000122
 20
130.2985079961263
 30
0.0
 10
1.150000000000122
 20
130.2826658194051
 30
0.0
 10
1.150000000000122
 20
130.2668236426839
 30
0.0
 10
1.150000000000068
 20
130.2517224357718
 30
0.0
 10
1.150000000000068
 20
130.2386127361787
 30
0.0
 10
1.150000000000068
 20
130.2255030365857
 30
0.0
 10
1.150000000000012
 20
130.2140232626106
 30
0.0
 10
1.150000000000012
 20
130.2051240593278
 30
0.0
 10
1.150000000000012
 20
130.2018831643385
 30
0.0
 10
1.150000000000068
 20
130.1989543903371
 30
0.0
 10
1.150000000000068
 20
130.1963704899867
 30
0.0
  0
SPLINE
  5
D5
330
1F
100
AcDbEntity
  8
0
  6
Continuous
 62
     7
370
    25
100
AcDbSpline
210
0.0
220
0.0
230
1.0
 70
    24
 71
     3
 72
    17
 73
    13
 74
     0
 42
0.000000001
 43
0.00000001
 40
0.0000000000000045
 40
0.0000000000000045
 40
0.0000000000000045
 40
0.0000000000000045
 40
0.0000503657057969
 40
0.0000503657057969
 40
0.0000503657057969
 40
0.0001007314115936
 40
0.0001007314115936
 40
0.0001007314115936
 40
0.0001510971173905
 40
0.0001510971173905
 40
0.0001510971173905
 40
0.000169212756754
 40
0.000169212756754
 40
0.000169212756754
 40
0.000169212756754
 10
1.35
 20
130.1963704900004
 30
0.0
 10
1.35
 20
130.2034656456803
 30
0.0
 10
1.350000000000046
 20
130.2132856454033
 30
0.0
 10
1.350000000000046
 20
130.2250172907229
 30
0.0
 10
1.350000000000046
 20
130.2367489360425
 30
0.0
 10
1.3500000000001
 20
130.2507158002215
 30
0.0
 10
1.3500000000001
 20
130.2657612811644
 30
0.0
 10
1.3500000000001
 20
130.2808067621073
 30
0.0
 10
1.35000000000013
 20
130.2973458327552
 30
0.0
 10
1.35000000000013
 20
130.3140088854767
 30
0.0
 10
1.35000000000013
 20
130.3200772044329
 30
0.0
 10
1.35000000000013
 20
130.3262026289588
 30
0.0
 10
1.35000000000013
 20
130.3323166580494
 30
0.0
  0
SPLINE
  5
E0
330
1F
100
AcDbEntity
  8
0
  6
Continuous
 62
     7
370
    25
100
AcDbSpline
210
0.0
220
0.0
230
1.0
 70
    24
 71
     3
 72
    17
 73
    13
 74
     0
 42
0.000000001
 43
0.00000001
 40
0.0000000000000047
 40
0.0000000000000047
 40
0.0000000000000047
 40
0.0000000000000047
 40
0.0000503657057967
 40
0.0000503657057967
 40
0.0000503657057967
 40
0.0001007314115935
 40
0.0001007314115935
 40
0.0001007314115935
 40
0.0001510971173904
 40
0.0001510971173904
 40
0.0001510971173904
 40
0.000169212756754
 40
0.000169212756754
 40
0.000169212756754
 40
0.000169212756754
 10
-3.210000000000075
 20
130.1963704900001
 30
0.0
 10
-3.210000000000075
 20
130.20346564568
 30
0.0
 10
-3.2100000000001
 20
130.2132856454033
 30
0.0
 10
-3.2100000000001
 20
130.2250172907228
 30
0.0
 10
-3.2100000000001
 20
130.2367489360425
 30
0.0
 10
-3.210000000000075
 20
130.2507158002212
 30
0.0
 10
-3.210000000000075
 20
130.2657612811642
 30
0.0
 10
-3.210000000000075
 20
130.2808067621072
 30
0.0
 10
-3.20999999999991
 20
130.2973458327551
 30
0.0
 10
-3.20999999999991
 20
130.3140088854765
 30
0.0
 10
-3.20999999999991
 20
130.3200772044328
 30
0.0
 10
-3.209999999999964
 20
130.3262026289588
 30
0.0
 10
-3.209999999999964
 20
130.3323166580494
 30
0.0
  0
SPLINE
  5
E1
330
1F
100
AcDbEntity
  8
0
  6
Continuous
 62
     7
370
    25
100
AcDbSpline
210
0.0
220
0.0
230
1.0
 70
    24
 71
     3
 72
    17
 73
    13
 74
     0
 42
0.000000001
 43
0.00000001
 40
0.0
 40
0.0
 40
0.0
 40
0.0
 40
0.000050365705797
 40
0.000050365705797
 40
0.000050365705797
 40
0.0001007314115939
 40
0.0001007314115939
 40
0.0001007314115939
 40
0.0001510971173907
 40
0.0001510971173907
 40
0.0001510971173907
 40
0.0001692127567749
 40
0.0001692127567749
 40
0.0001692127567749
 40
0.0001692127567749
 10
-3.41000000000005
 20
130.3323166580494
 30
0.0
 10
-3.41000000000005
 20
130.3155280894504
 30
0.0
 10
-3.4099999999998
 20
130.2985079961261
 30
0.0
 10
-3.4099999999998
 20
130.2826658194049
 30
0.0
 10
-3.4099999999998
 20
130.2668236426836
 30
0.0
 10
-3.41000000000022
 20
130.2517224357715
 30
0.0
 10
-3.41000000000022
 20
130.2386127361785
 30
0.0
 10
-3.41000000000022
 20
130.2255030365854
 30
0.0
 10
-3.409999999999885
 20
130.2140232626102
 30
0.0
 10
-3.409999999999885
 20
130.2051240593274
 30
0.0
 10
-3.409999999999885
 20
130.2018831643379
 30
0.0
 10
-3.41
 20
130.1989543903369
 30
0.0
 10
-3.41
 20
130.1963704899864
 30
0.0
  0
SPLINE
  5
EC
330
1F
100
AcDbEntity
  8
0
  6
Continuous
 62
     7
370
    25
100
AcDbSpline
210
0.0
220
0.0
230
1.0
 70
    24
 71
     3
 72
    17
 73
    13
 74
     0
 42
0.000000001
 43
0.00000001
 40
0.0000000000000045
 40
0.0000000000000045
 40
0.0000000000000045
 40
0.0000000000000045
 40
0.0000503657057968
 40
0.0000503657057968
 40
0.0000503657057968
 40
0.0001007314115935
 40
0.0001007314115935
 40
0.0001007314115935
 40
0.0001510971173904
 40
0.0001510971173904
 40
0.0001510971173904
 40
0.0001692127567539
 40
0.0001692127567539
 40
0.0001692127567539
 40
0.0001692127567539
 10
-1.1499999999999
 20
130.1963704900005
 30
0.0
 10
-1.1499999999999
 20
130.2034656456804
 30
0.0
 10
-1.149999999999872
 20
130.2132856454033
 30
0.0
 10
-1.149999999999872
 20
130.2250172907229
 30
0.0
 10
-1.149999999999872
 20
130.2367489360425
 30
0.0
 10
-1.149999999999846
 20
130.2507158002215
 30
0.0
 10
-1.149999999999846
 20
130.2657612811644
 30
0.0
 10
-1.149999999999846
 20
130.2808067621073
 30
0.0
 10
-1.15000000000004
 20
130.2973458327552
 30
0.0
 10
-1.15000000000004
 20
130.3140088854767
 30
0.0
 10
-1.15000000000004
 20
130.3200772044329
 30
0.0
 10
-1.149999999999818
 20
130.3262026289588
 30
0.0
 10
-1.149999999999818
 20
130.3323166580494
 30
0.0
  0
SPLINE
  5
ED
330
1F
100
AcDbEntity
  8
0
  6
Continuous
 62
     7
370
    25
100
AcDbSpline
210
0.0
220
0.0
230
1.0
 70
    24
 71
     3
 72
    17
 73
    13
 74
     0
 42
0.000000001
 43
0.00000001
 40
0.0
 40
0.0
 40
0.0
 40
0.0
 40
0.0000503657057968
 40
0.0000503657057968
 40
0.0000503657057968
 40
0.0001007314115937
 40
0.0001007314115937
 40
0.0001007314115937
 40
0.0001510971173903
 40
0.0001510971173903
 40
0.0001510971173903
 40
0.0001692127567796
 40
0.0001692127567796
 40
0.0001692127567796
 40
0.0001692127567796
 10
-1.34999999999974
 20
130.3323166580494
 30
0.0
 10
-1.34999999999974
 20
130.3155280894505
 30
0.0
 10
-1.349999999999768
 20
130.2985079961263
 30
0.0
 10
-1.349999999999768
 20
130.2826658194051
 30
0.0
 10
-1.349999999999768
 20
130.2668236426839
 30
0.0
 10
-1.34999999999985
 20
130.2517224357718
 30
0.0
 10
-1.34999999999985
 20
130.2386127361787
 30
0.0
 10
-1.34999999999985
 20
130.2255030365857
 30
0.0
 10
-1.349999999999906
 20
130.2140232626106
 30
0.0
 10
-1.349999999999906
 20
130.2051240593278
 30
0.0
 10
-1.349999999999906
 20
130.2018831643385
 30
0.0
 10
-1.350000000000046
 20
130.1989543903372
 30
0.0
 10
-1.350000000000046
 20
130.1963704899868
 30
0.0
  0
SPLINE
  5
F8
330
1F
100
AcDbEntity
  8
0
  6
Continuous
 62
     7
370
    25
100
AcDbSpline
210
0.0
220
0.0
230
1.0
 70
    24
 71
     3
 72
    17
 73
    13
 74
     0
 42
0.000000001
 43
0.00000001
 40
0.000000000000004
 40
0.000000000000004
 40
0.000000000000004
 40
0.000000000000004
 40
0.0000503657057971
 40
0.0000503657057971
 40
0.0000503657057971
 40
0.0001007314115941
 40
0.0001007314115941
 40
0.0001007314115941
 40
0.000151097117391
 40
0.000151097117391
 40
0.000151097117391
 40
0.0001692127567882
 40
0.0001692127567882
 40
0.0001692127567882
 40
0.0001692127567882
 10
-0.64999999999979
 20
130.1963704899855
 30
0.0
 10
-0.64999999999979
 20
130.203465645662
 30
0.0
 10
-0.649999999999928
 20
130.2132856453819
 30
0.0
 10
-0.649999999999928
 20
130.2250172906989
 30
0.0
 10
-0.649999999999928
 20
130.2367489360159
 30
0.0
 10
-0.650000000000039
 20
130.2507158001925
 30
0.0
 10
-0.650000000000039
 20
130.2657612811338
 30
0.0
 10
-0.650000000000039
 20
130.2808067620751
 30
0.0
 10
-0.649999999999956
 20
130.297345832722
 30
0.0
 10
-0.649999999999956
 20
130.3140088854429
 30
0.0
 10
-0.649999999999956
 20
130.3200772044102
 30
0.0
 10
-0.649999999999901
 20
130.3262026289475
 30
0.0
 10
-0.649999999999901
 20
130.3323166580494
 30
0.0
  0
SPLINE
  5
F9
330
1F
100
AcDbEntity
  8
0
  6
Continuous
 62
     7
370
    25
100
AcDbSpline
210
0.0
220
0.0
230
1.0
 70
    24
 71
     3
 72
    17
 73
    13
 74
     0
 42
0.000000001
 43
0.00000001
 40
0.0
 40
0.0
 40
0.0
 40
0.0
 40
0.0000503657057969
 40
0.0000503657057969
 40
0.0000503657057969
 40
0.000100731411594
 40
0.000100731411594
 40
0.000100731411594
 40
0.0001510971173908
 40
0.0001510971173908
 40
0.0001510971173908
 40
0.0001692127567868
 40
0.0001692127567868
 40
0.0001692127567868
 40
0.0001692127567868
 10
-0.849999999999851
 20
130.3323166580494
 30
0.0
 10
-0.849999999999851
 20
130.3155280894504
 30
0.0
 10
-0.849999999999879
 20
130.2985079961262
 30
0.0
 10
-0.849999999999879
 20
130.2826658194049
 30
0.0
 10
-0.849999999999879
 20
130.2668236426837
 30
0.0
 10
-0.850000000000017
 20
130.2517224357715
 30
0.0
 10
-0.850000000000017
 20
130.2386127361784
 30
0.0
 10
-0.850000000000017
 20
130.2255030365853
 30
0.0
 10
-0.849999999999879
 20
130.2140232626101
 30
0.0
 10
-0.849999999999879
 20
130.2051240593272
 30
0.0
 10
-0.849999999999879
 20
130.2018831643378
 30
0.0
 10
-0.849999999999879
 20
130.1989543903367
 30
0.0
 10
-0.849999999999879
 20
130.1963704899862
 30
0.0
  0
SPLINE
  5
104
330
1F
100
AcDbEntity
  8
0
  6
Continuous
 62
     7
370
    25
100
AcDbSpline
210
0.0
220
0.0
230
1.0
 70
    24
 71
     3
 72
    17
 73
    13
 74
     0
 42
0.000000001
 43
0.00000001
 40
0.0
 40
0.0
 40
0.0
 40
0.0
 40
0.0000503657057968
 40
0.0000503657057968
 40
0.0000503657057968
 40
0.0001007314115935
 40
0.0001007314115935
 40
0.0001007314115935
 40
0.0001510971173905
 40
0.0001510971173905
 40
0.0001510971173905
 40
0.000169212756786
 40
0.000169212756786
 40
0.000169212756786
 40
0.000169212756786
 10
1.65000000000004
 20
130.3323166580494
 30
0.0
 10
1.65000000000004
 20
130.3155280894505
 30
0.0
 10
1.65000000000004
 20
130.2985079961263
 30
0.0
 10
1.65000000000004
 20
130.2826658194051
 30
0.0
 10
1.65000000000004
 20
130.2668236426839
 30
0.0
 10
1.65000000000018
 20
130.2517224357716
 30
0.0
 10
1.65000000000018
 20
130.2386127361786
 30
0.0
 10
1.65000000000018
 20
130.2255030365854
 30
0.0
 10
1.650000000000095
 20
130.2140232626105
 30
0.0
 10
1.650000000000095
 20
130.2051240593276
 30
0.0
 10
1.650000000000095
 20
130.2018831643383
 30
0.0
 10
1.65000000000018
 20
130.198954390337
 30
0.0
 10
1.65000000000018
 20
130.1963704899866
 30
0.0
  0
SPLINE
  5
105
330
1F
100
AcDbEntity
  8
0
  6
Continuous
 62
     7
370
    25
100
AcDbSpline
210
0.0
220
0.0
230
1.0
 70
    24
 71
     3
 72
    17
 73
    13
 74
     0
 42
0.000000001
 43
0.00000001
 40
0.0000000000000042
 40
0.0000000000000042
 40
0.0000000000000042
 40
0.0000000000000042
 40
0.0000503657057969
 40
0.0000503657057969
 40
0.0000503657057969
 40
0.0001007314115938
 40
0.0001007314115938
 40
0.0001007314115938
 40
0.0001510971173903
 40
0.0001510971173903
 40
0.0001510971173903
 40
0.0001692127567875
 40
0.0001692127567875
 40
0.0001692127567875
 40
0.0001692127567875
 10
1.850000000000185
 20
130.1963704899861
 30
0.0
 10
1.850000000000185
 20
130.2034656456626
 30
0.0
 10
1.850000000000075
 20
130.2132856453824
 30
0.0
 10
1.850000000000075
 20
130.2250172906993
 30
0.0
 10
1.850000000000075
 20
130.2367489360162
 30
0.0
 10
1.8500000000001
 20
130.2507158001927
 30
0.0
 10
1.8500000000001
 20
130.265761281134
 30
0.0
 10
1.8500000000001
 20
130.2808067620752
 30
0.0
 10
1.850000000000155
 20
130.297345832722
 30
0.0
 10
1.850000000000155
 20
130.3140088854429
 30
0.0
 10
1.850000000000155
 20
130.3200772044102
 30
0.0
 10
1.85
 20
130.3262026289475
 30
0.0
 10
1.85
 20
130.3323166580494
 30
0.0
  0
SPLINE
  5
110
330
1F
100
AcDbEntity
  8
0
  6
Continuous
 62
     7
370
    25
100
AcDbSpline
210
0.0
220
0.0
230
1.0
 70
    24
 71
     3
 72
    17
 73
    13
 74
     0
 42
0.000000001
 43
0.00000001
 40
0.0
 40
0.0
 40
0.0
 40
0.0
 40
0.0000503657057968
 40
0.0000503657057968
 40
0.0000503657057968
 40
0.0001007314115935
 40
0.0001007314115935
 40
0.0001007314115935
 40
0.0001510971173904
 40
0.0001510971173904
 40
0.0001510971173904
 40
0.0001692127567859
 40
0.0001692127567859
 40
0.0001692127567859
 40
0.0001692127567859
 10
2.99000000000013
 20
130.3323166580494
 30
0.0
 10
2.99000000000013
 20
130.3155280894505
 30
0.0
 10
2.990000000000105
 20
130.2985079961263
 30
0.0
 10
2.990000000000105
 20
130.2826658194051
 30
0.0
 10
2.990000000000105
 20
130.2668236426839
 30
0.0
 10
2.99
 20
130.2517224357716
 30
0.0
 10
2.99
 20
130.2386127361786
 30
0.0
 10
2.99
 20
130.2255030365855
 30
0.0
 10
2.99000000000016
 20
130.2140232626106
 30
0.0
 10
2.99000000000016
 20
130.2051240593277
 30
0.0
 10
2.99000000000016
 20
130.2018831643384
 30
0.0
 10
2.99
 20
130.1989543903371
 30
0.0
 10
2.99
 20
130.1963704899867
 30
0.0
  0
SPLINE
  5
111
330
1F
100
AcDbEntity
  8
0
  6
Continuous
 62
     7
370
    25
100
AcDbSpline
210
0.0
220
0.0
230
1.0
 70
    24
 71
     3
 72
    17
 73
    13
 74
     0
 42
0.000000001
 43
0.00000001
 40
0.0000000000000042
 40
0.0000000000000042
 40
0.0000000000000042
 40
0.0000000000000042
 40
0.0000503657057969
 40
0.0000503657057969
 40
0.0000503657057969
 40
0.0001007314115937
 40
0.0001007314115937
 40
0.0001007314115937
 40
0.0001510971173903
 40
0.0001510971173903
 40
0.0001510971173903
 40
0.0001692127567876
 40
0.0001692127567876
 40
0.0001692127567876
 40
0.0001692127567876
 10
3.19000000000008
 20
130.1963704899861
 30
0.0
 10
3.19000000000008
 20
130.2034656456626
 30
0.0
 10
3.19000000000011
 20
130.2132856453824
 30
0.0
 10
3.19000000000011
 20
130.2250172906993
 30
0.0
 10
3.19000000000011
 20
130.2367489360162
 30
0.0
 10
3.19
 20
130.2507158001929
 30
0.0
 10
3.19
 20
130.2657612811342
 30
0.0
 10
3.19
 20
130.2808067620753
 30
0.0
 10
3.19
 20
130.297345832722
 30
0.0
 10
3.19
 20
130.3140088854429
 30
0.0
 10
3.19
 20
130.3200772044102
 30
0.0
 10
3.19000000000011
 20
130.3262026289475
 30
0.0
 10
3.19000000000011
 20
130.3323166580494
 30
0.0
  0
SPLINE
  5
11C
330
1F
100
AcDbEntity
  8
0
  6
Continuous
 62
     7
370
    25
100
AcDbSpline
210
0.0
220
0.0
230
1.0
 70
    24
 71
     3
 72
    17
 73
    13
 74
     0
 42
0.000000001
 43
0.00000001
 40
0.0
 40
0.0
 40
0.0
 40
0.0
 40
0.0000503657057969
 40
0.0000503657057969
 40
0.0000503657057969
 40
0.0001007314115935
 40
0.0001007314115935
 40
0.0001007314115935
 40
0.0001510971173905
 40
0.0001510971173905
 40
0.0001510971173905
 40
0.0001692127567796
 40
0.0001692127567796
 40
0.0001692127567796
 40
0.0001692127567796
 10
2.41
 20
130.3323166580494
 30
0.0
 10
2.41
 20
130.3155280894505
 30
0.0
 10
2.41000000000016
 20
130.2985079961262
 30
0.0
 10
2.41000000000016
 20
130.282665819405
 30
0.0
 10
2.41000000000016
 20
130.2668236426838
 30
0.0
 10
2.41000000000008
 20
130.2517224357716
 30
0.0
 10
2.41000000000008
 20
130.2386127361786
 30
0.0
 10
2.41000000000008
 20
130.2255030365854
 30
0.0
 10
2.410000000000025
 20
130.2140232626105
 30
0.0
 10
2.410000000000025
 20
130.2051240593276
 30
0.0
 10
2.410000000000025
 20
130.2018831643383
 30
0.0
 10
2.41000000000008
 20
130.1989543903369
 30
0.0
 10
2.41000000000008
 20
130.1963704899865
 30
0.0
  0
SPLINE
  5
11D
330
1F
100
AcDbEntity
  8
0
  6
Continuous
 62
     7
370
    25
100
AcDbSpline
210
0.0
220
0.0
230
1.0
 70
    24
 71
     3
 72
    17
 73
    13
 74
     0
 42
0.000000001
 43
0.00000001
 40
0.0000000000000044
 40
0.0000000000000044
 40
0.0000000000000044
 40
0.0000000000000044
 40
0.0000503657057969
 40
0.0000503657057969
 40
0.0000503657057969
 40
0.0001007314115937
 40
0.0001007314115937
 40
0.0001007314115937
 40
0.0001510971173905
 40
0.0001510971173905
 40
0.0001510971173905
 40
0.0001692127567541
 40
0.0001692127567541
 40
0.0001692127567541
 40
0.0001692127567541
 10
2.61
 20
130.1963704900003
 30
0.0
 10
2.61
 20
130.2034656456802
 30
0.0
 10
2.610000000000085
 20
130.2132856454032
 30
0.0
 10
2.610000000000085
 20
130.2250172907228
 30
0.0
 10
2.610000000000085
 20
130.2367489360424
 30
0.0
 10
2.61000000000011
 20
130.2507158002214
 30
0.0
 10
2.61000000000011
 20
130.2657612811644
 30
0.0
 10
2.61000000000011
 20
130.2808067621073
 30
0.0
 10
2.61000000000014
 20
130.2973458327552
 30
0.0
 10
2.61000000000014
 20
130.3140088854766
 30
0.0
 10
2.61000000000014
 20
130.3200772044328
 30
0.0
 10
2.61000000000017
 20
130.3262026289588
 30
0.0
 10
2.61000000000017
 20
130.3323166580495
 30
0.0
  0
SPLINE
  5
128
330
1F
100
AcDbEntity
  8
0
  6
Continuous
 62
     7
370
    25
100
AcDbSpline
210
0.0
220
0.0
230
1.0
 70
    24
 71
     3
 72
    17
 73
    13
 74
     0
 42
0.000000001
 43
0.00000001
 40
0.0000000000000004
 40
0.0000000000000004
 40
0.0000000000000004
 40
0.0000000000000004
 40
0.0000503657057968
 40
0.0000503657057968
 40
0.0000503657057968
 40
0.0001007314115936
 40
0.0001007314115936
 40
0.0001007314115936
 40
0.0001510971173903
 40
0.0001510971173903
 40
0.0001510971173903
 40
0.0001692127567875
 40
0.0001692127567875
 40
0.0001692127567875
 40
0.0001692127567875
 10
-2.990000000000215
 20
130.1963704899862
 30
0.0
 10
-2.990000000000215
 20
130.2034656456626
 30
0.0
 10
-2.989999999999855
 20
130.2132856453823
 30
0.0
 10
-2.989999999999855
 20
130.2250172906992
 30
0.0
 10
-2.989999999999855
 20
130.2367489360161
 30
0.0
 10
-2.989999999999935
 20
130.2507158001929
 30
0.0
 10
-2.989999999999935
 20
130.2657612811342
 30
0.0
 10
-2.989999999999935
 20
130.2808067620754
 30
0.0
 10
-2.989999999999935
 20
130.2973458327221
 30
0.0
 10
-2.989999999999935
 20
130.314008885443
 30
0.0
 10
-2.989999999999935
 20
130.3200772044102
 30
0.0
 10
-2.99000000000016
 20
130.3262026289476
 30
0.0
 10
-2.99000000000016
 20
130.3323166580495
 30
0.0
  0
SPLINE
  5
129
330
1F
100
AcDbEntity
  8
0
  6
Continuous
 62
     7
370
    25
100
AcDbSpline
210
0.0
220
0.0
230
1.0
 70
    24
 71
     3
 72
    17
 73
    13
 74
     0
 42
0.000000001
 43
0.00000001
 40
0.0
 40
0.0
 40
0.0
 40
0.0
 40
0.0000503657057968
 40
0.0000503657057968
 40
0.0000503657057968
 40
0.0001007314115937
 40
0.0001007314115937
 40
0.0001007314115937
 40
0.0001510971173904
 40
0.0001510971173904
 40
0.0001510971173904
 40
0.0001692127567825
 40
0.0001692127567825
 40
0.0001692127567825
 40
0.0001692127567825
 10
-3.18999999999972
 20
130.3323166580494
 30
0.0
 10
-3.18999999999972
 20
130.3155280894505
 30
0.0
 10
-3.189999999999945
 20
130.2985079961263
 30
0.0
 10
-3.189999999999945
 20
130.2826658194051
 30
0.0
 10
-3.189999999999945
 20
130.2668236426839
 30
0.0
 10
-3.18999999999986
 20
130.2517224357718
 30
0.0
 10
-3.18999999999986
 20
130.2386127361787
 30
0.0
 10
-3.18999999999986
 20
130.2255030365856
 30
0.0
 10
-3.19
 20
130.2140232626106
 30
0.0
 10
-3.19
 20
130.2051240593277
 30
0.0
 10
-3.19
 20
130.2018831643384
 30
0.0
 10
-3.190000000000135
 20
130.1989543903371
 30
0.0
 10
-3.190000000000135
 20
130.1963704899867
 30
0.0
  0
SPLINE
  5
134
330
1F
100
AcDbEntity
  8
0
  6
Continuous
 62
     7
370
    25
100
AcDbSpline
210
0.0
220
0.0
230
1.0
 70
    24
 71
     3
 72
    17
 73
    13
 74
     0
 42
0.000000001
 43
0.00000001
 40
0.0
 40
0.0
 40
0.0
 40
0.0
 40
0.0000503657057969
 40
0.0000503657057969
 40
0.0000503657057969
 40
0.0001007314115939
 40
0.0001007314115939
 40
0.0001007314115939
 40
0.0001510971173906
 40
0.0001510971173906
 40
0.0001510971173906
 40
0.0001692127567749
 40
0.0001692127567749
 40
0.0001692127567749
 40
0.0001692127567749
 10
0.15000000000015
 20
130.3323166580493
 30
0.0
 10
0.1500000000001499
 20
130.3155280894503
 30
0.0
 10
0.1500000000001226
 20
130.2985079961261
 30
0.0
 10
0.1500000000001225
 20
130.2826658194049
 30
0.0
 10
0.1500000000001224
 20
130.2668236426836
 30
0.0
 10
0.150000000000011
 20
130.2517224357715
 30
0.0
 10
0.150000000000011
 20
130.2386127361784
 30
0.0
 10
0.1500000000000109
 20
130.2255030365853
 30
0.0
 10
0.15000000000015
 20
130.2140232626102
 30
0.0
 10
0.15000000000015
 20
130.2051240593274
 30
0.0
 10
0.15000000000015
 20
130.2018831643379
 30
0.0
 10
0.150000000000178
 20
130.1989543903368
 30
0.0
 10
0.150000000000178
 20
130.1963704899863
 30
0.0
  0
SPLINE
  5
135
330
1F
100
AcDbEntity
  8
0
  6
Continuous
 62
     7
370
    25
100
AcDbSpline
210
0.0
220
0.0
230
1.0
 70
    24
 71
     3
 72
    17
 73
    13
 74
     0
 42
0.000000001
 43
0.00000001
 40
0.0000000000000047
 40
0.0000000000000047
 40
0.0000000000000047
 40
0.0000000000000047
 40
0.0000503657057966
 40
0.0000503657057966
 40
0.0000503657057966
 40
0.0001007314115936
 40
0.0001007314115936
 40
0.0001007314115936
 40
0.0001510971173905
 40
0.0001510971173905
 40
0.0001510971173905
 40
0.0001692127567542
 40
0.0001692127567542
 40
0.0001692127567542
 40
0.0001692127567542
 10
0.350000000000128
 20
130.19637049
 30
0.0
 10
0.350000000000128
 20
130.2034656456799
 30
0.0
 10
0.3499999999999889
 20
130.2132856454031
 30
0.0
 10
0.349999999999989
 20
130.2250172907227
 30
0.0
 10
0.3499999999999891
 20
130.2367489360423
 30
0.0
 10
0.350000000000017
 20
130.2507158002211
 30
0.0
 10
0.3500000000000171
 20
130.2657612811642
 30
0.0
 10
0.3500000000000171
 20
130.2808067621072
 30
0.0
 10
0.3500000000001005
 20
130.2973458327551
 30
0.0
 10
0.3500000000001006
 20
130.3140088854765
 30
0.0
 10
0.3500000000001006
 20
130.3200772044328
 30
0.0
 10
0.350000000000128
 20
130.3262026289588
 30
0.0
 10
0.350000000000128
 20
130.3323166580494
 30
0.0
  0
SPLINE
  5
140
330
1F
100
AcDbEntity
  8
0
  6
Continuous
 62
     7
370
    25
100
AcDbSpline
210
0.0
220
0.0
230
1.0
 70
    24
 71
     3
 72
    17
 73
    13
 74
     0
 42
0.000000001
 43
0.00000001
 40
0.0
 40
0.0
 40
0.0
 40
0.0
 40
0.0000503657057969
 40
0.0000503657057969
 40
0.0000503657057969
 40
0.0001007314115938
 40
0.0001007314115938
 40
0.0001007314115938
 40
0.0001510971173904
 40
0.0001510971173904
 40
0.0001510971173904
 40
0.0001692127567863
 40
0.0001692127567863
 40
0.0001692127567863
 40
0.0001692127567863
 10
2.19000000000008
 20
130.3323166580494
 30
0.0
 10
2.19000000000008
 20
130.3155280894504
 30
0.0
 10
2.190000000000025
 20
130.2985079961262
 30
0.0
 10
2.190000000000025
 20
130.282665819405
 30
0.0
 10
2.190000000000025
 20
130.2668236426838
 30
0.0
 10
2.190000000000165
 20
130.2517224357714
 30
0.0
 10
2.190000000000165
 20
130.2386127361784
 30
0.0
 10
2.190000000000165
 20
130.2255030365853
 30
0.0
 10
2.190000000000055
 20
130.2140232626102
 30
0.0
 10
2.190000000000055
 20
130.2051240593274
 30
0.0
 10
2.190000000000055
 20
130.2018831643379
 30
0.0
 10
2.190000000000135
 20
130.198954390337
 30
0.0
 10
2.190000000000135
 20
130.1963704899865
 30
0.0
  0
SPLINE
  5
141
330
1F
100
AcDbEntity
  8
0
  6
Continuous
 62
     7
370
    25
100
AcDbSpline
210
0.0
220
0.0
230
1.0
 70
    24
 71
     3
 72
    17
 73
    13
 74
     0
 42
0.000000001
 43
0.00000001
 40
0.000000000000004
 40
0.000000000000004
 40
0.000000000000004
 40
0.000000000000004
 40
0.0000503657057967
 40
0.0000503657057967
 40
0.0000503657057967
 40
0.0001007314115936
 40
0.0001007314115936
 40
0.0001007314115936
 40
0.0001510971173904
 40
0.0001510971173904
 40
0.0001510971173904
 40
0.0001692127567877
 40
0.0001692127567877
 40
0.0001692127567877
 40
0.0001692127567877
 10
2.389999999999975
 20
130.1963704899857
 30
0.0
 10
2.389999999999975
 20
130.2034656456621
 30
0.0
 10
2.39000000000006
 20
130.2132856453823
 30
0.0
 10
2.39000000000006
 20
130.2250172906992
 30
0.0
 10
2.39000000000006
 20
130.2367489360161
 30
0.0
 10
2.38999999999992
 20
130.2507158001926
 30
0.0
 10
2.38999999999992
 20
130.2657612811338
 30
0.0
 10
2.38999999999992
 20
130.2808067620751
 30
0.0
 10
2.389999999999975
 20
130.2973458327219
 30
0.0
 10
2.389999999999975
 20
130.3140088854428
 30
0.0
 10
2.389999999999975
 20
130.3200772044101
 30
0.0
 10
2.39000000000006
 20
130.3262026289474
 30
0.0
 10
2.39000000000006
 20
130.3323166580494
 30
0.0
  0
SPLINE
  5
14C
330
1F
100
AcDbEntity
  8
0
  6
Continuous
 62
     7
370
    25
100
AcDbSpline
210
0.0
220
0.0
230
1.0
 70
    24
 71
     3
 72
    17
 73
    13
 74
     0
 42
0.000000001
 43
0.00000001
 40
0.0000000000000044
 40
0.0000000000000044
 40
0.0000000000000044
 40
0.0000000000000044
 40
0.0000503657057969
 40
0.0000503657057969
 40
0.0000503657057969
 40
0.0001007314115937
 40
0.0001007314115937
 40
0.0001007314115937
 40
0.0001510971173905
 40
0.0001510971173905
 40
0.0001510971173905
 40
0.0001692127567541
 40
0.0001692127567541
 40
0.0001692127567541
 40
0.0001692127567541
 10
-2.4099999999998
 20
130.1963704900003
 30
0.0
 10
-2.4099999999998
 20
130.2034656456802
 30
0.0
 10
-2.40999999999983
 20
130.2132856454032
 30
0.0
 10
-2.40999999999983
 20
130.2250172907228
 30
0.0
 10
-2.40999999999983
 20
130.2367489360424
 30
0.0
 10
-2.409999999999775
 20
130.2507158002214
 30
0.0
 10
-2.409999999999775
 20
130.2657612811644
 30
0.0
 10
-2.409999999999775
 20
130.2808067621073
 30
0.0
 10
-2.410000000000135
 20
130.2973458327552
 30
0.0
 10
-2.410000000000135
 20
130.3140088854767
 30
0.0
 10
-2.410000000000135
 20
130.3200772044329
 30
0.0
 10
-2.409999999999745
 20
130.3262026289589
 30
0.0
 10
-2.409999999999745
 20
130.3323166580495
 30
0.0
  0
SPLINE
  5
14D
330
1F
100
AcDbEntity
  8
0
  6
Continuous
 62
     7
370
    25
100
AcDbSpline
210
0.0
220
0.0
230
1.0
 70
    24
 71
     3
 72
    17
 73
    13
 74
     0
 42
0.000000001
 43
0.00000001
 40
0.0
 40
0.0
 40
0.0
 40
0.0
 40
0.0000503657057968
 40
0.0000503657057968
 40
0.0000503657057968
 40
0.0001007314115935
 40
0.0001007314115935
 40
0.0001007314115935
 40
0.0001510971173904
 40
0.0001510971173904
 40
0.0001510971173904
 40
0.0001692127567797
 40
0.0001692127567797
 40
0.0001692127567797
 40
0.0001692127567797
 10
-2.609999999999835
 20
130.3323166580494
 30
0.0
 10
-2.609999999999835
 20
130.3155280894505
 30
0.0
 10
-2.610000000000055
 20
130.2985079961263
 30
0.0
 10
-2.610000000000055
 20
130.2826658194051
 30
0.0
 10
-2.610000000000055
 20
130.2668236426839
 30
0.0
 10
-2.60999999999992
 20
130.2517224357716
 30
0.0
 10
-2.60999999999992
 20
130.2386127361786
 30
0.0
 10
-2.60999999999992
 20
130.2255030365855
 30
0.0
 10
-2.610000000000055
 20
130.2140232626106
 30
0.0
 10
-2.610000000000055
 20
130.2051240593277
 30
0.0
 10
-2.610000000000055
 20
130.2018831643383
 30
0.0
 10
-2.609999999999725
 20
130.1989543903369
 30
0.0
 10
-2.609999999999725
 20
130.1963704899865
 30
0.0
  0
SPLINE
  5
158
330
1F
100
AcDbEntity
  8
0
  6
Continuous
 62
     7
370
    25
100
AcDbSpline
210
0.0
220
0.0
230
1.0
 70
    24
 71
     3
 72
    17
 73
    13
 74
     0
 42
0.000000001
 43
0.00000001
 40
0.0
 40
0.0
 40
0.0
 40
0.0
 40
0.0000503657057969
 40
0.0000503657057969
 40
0.0000503657057969
 40
0.0001007314115939
 40
0.0001007314115939
 40
0.0001007314115939
 40
0.0001510971173907
 40
0.0001510971173907
 40
0.0001510971173907
 40
0.0001692127567801
 40
0.0001692127567801
 40
0.0001692127567801
 40
0.0001692127567801
 10
-0.3499999999999335
 20
130.3323166580494
 30
0.0
 10
-0.3499999999999335
 20
130.3155280894504
 30
0.0
 10
-0.350000000000017
 20
130.2985079961262
 30
0.0
 10
-0.350000000000017
 20
130.2826658194049
 30
0.0
 10
-0.3500000000000171
 20
130.2668236426837
 30
0.0
 10
-0.3499999999999059
 20
130.2517224357716
 30
0.0
 10
-0.349999999999906
 20
130.2386127361785
 30
0.0
 10
-0.3499999999999061
 20
130.2255030365854
 30
0.0
 10
-0.3499999999999615
 20
130.2140232626102
 30
0.0
 10
-0.3499999999999615
 20
130.2051240593274
 30
0.0
 10
-0.3499999999999615
 20
130.2018831643379
 30
0.0
 10
-0.3499999999999335
 20
130.1989543903369
 30
0.0
 10
-0.3499999999999335
 20
130.1963704899864
 30
0.0
  0
SPLINE
  5
159
330
1F
100
AcDbEntity
  8
0
  6
Continuous
 62
     7
370
    25
100
AcDbSpline
210
0.0
220
0.0
230
1.0
 70
    24
 71
     3
 72
    17
 73
    13
 74
     0
 42
0.000000001
 43
0.00000001
 40
0.0000000000000047
 40
0.0000000000000047
 40
0.0000000000000047
 40
0.0000000000000047
 40
0.0000503657057969
 40
0.0000503657057969
 40
0.0000503657057969
 40
0.0001007314115938
 40
0.0001007314115938
 40
0.0001007314115938
 40
0.0001510971173907
 40
0.0001510971173907
 40
0.0001510971173907
 40
0.0001692127567545
 40
0.0001692127567545
 40
0.0001692127567545
 40
0.0001692127567545
 10
-0.1499999999999834
 20
130.19637049
 30
0.0
 10
-0.1499999999999834
 20
130.2034656456799
 30
0.0
 10
-0.1499999999999281
 20
130.2132856454029
 30
0.0
 10
-0.149999999999928
 20
130.2250172907225
 30
0.0
 10
-0.149999999999928
 20
130.2367489360421
 30
0.0
 10
-0.1499999999998447
 20
130.2507158002212
 30
0.0
 10
-0.1499999999998446
 20
130.2657612811642
 30
0.0
 10
-0.1499999999998446
 20
130.2808067621071
 30
0.0
 10
-0.1499999999998171
 20
130.297345832755
 30
0.0
 10
-0.149999999999817
 20
130.3140088854764
 30
0.0
 10
-0.1499999999998169
 20
130.3200772044327
 30
0.0
 10
-0.150000000000011
 20
130.3262026289587
 30
0.0
 10
-0.150000000000011
 20
130.3323166580494
 30
0.0
  0
SPLINE
  5
15E
330
1F
100
AcDbEntity
  8
0
  6
Continuous
 62
     7
370
    25
100
AcDbSpline
210
0.0
220
0.0
230
1.0
 70
    24
 71
     3
 72
    12
 73
     8
 74
     0
 42
0.000000001
 43
0.00000001
 40
0.0
 40
0.0
 40
0.0
 40
0.0
 40
0.250000000000008
 40
0.250000000000008
 40
0.500000000000016
 40
0.500000000000016
 40
1.0
 40
1.0
 40
1.0
 40
1.0
 10
5.27000000000033
 20
123.4823166580494
 30
0.0
 10
5.270000000000336
 20
123.4823166580494
 30
0.0
 10
5.244020461588024
 20
123.4823166580495
 30
0.0
 10
5.14374272500967
 20
123.4823166580494
 30
0.0
 10
5.069534775386468
 20
123.4823166580495
 30
0.0
 10
4.793009030112865
 20
123.4823166580495
 30
0.0
 10
4.534108516362994
 20
123.4823166580493
 30
0.0
 10
4.270000000000105
 20
123.4823166580493
 30
0.0
  0
SPLINE
  5
160
330
1F
100
AcDbEntity
  8
0
  6
Continuous
 62
     7
370
    25
100
AcDbSpline
210
0.0
220
0.0
230
1.0
 70
    24
 71
     3
 72
    12
 73
     8
 74
     0
 42
0.000000001
 43
0.00000001
 40
0.0
 40
0.0
 40
0.0
 40
0.0
 40
0.2500000000000094
 40
0.2500000000000094
 40
0.5000000000000189
 40
0.5000000000000189
 40
1.0
 40
1.0
 40
1.0
 40
1.0
 10
5.27000000000027
 20
124.7823166580494
 30
0.0
 10
5.270000000000269
 20
124.7823166580494
 30
0.0
 10
5.24402046158784
 20
124.7823166580493
 30
0.0
 10
5.143742725009465
 20
124.7823166580493
 30
0.0
 10
5.069534775386299
 20
124.7823166580493
 30
0.0
 10
4.7930090301127
 20
124.7823166580493
 30
0.0
 10
4.534108516363008
 20
124.7823166580495
 30
0.0
 10
4.27000000000008
 20
124.7823166580494
 30
0.0
  0
SPLINE
  5
162
330
1F
100
AcDbEntity
  8
0
  6
Continuous
 62
     7
370
    25
100
AcDbSpline
210
0.0
220
0.0
230
1.0
 70
    24
 71
     3
 72
    12
 73
     8
 74
     0
 42
0.000000001
 43
0.00000001
 40
0.0
 40
0.0
 40
0.0
 40
0.0
 40
0.2499999999999989
 40
0.2499999999999989
 40
0.4999999999999978
 40
0.4999999999999978
 40
1.0
 40
1.0
 40
1.0
 40
1.0
 10
-4.2699999999998
 20
123.4823166580494
 30
0.0
 10
-4.40205425818129
 20
123.4823166580494
 30
0.0
 10
-4.53163067759164
 20
123.4823166580495
 30
0.0
 10
-4.773726236701811
 20
123.4823166580495
 30
0.0
 10
-4.884612767662621
 20
123.4823166580495
 30
0.0
 10
-5.161336299790356
 20
123.4823166580495
 30
0.0
 10
-5.270000000000067
 20
123.4823166580494
 30
0.0
 10
-5.270000000000111
 20
123.4823166580494
 30
0.0
  0
SPLINE
  5
164
330
1F
100
AcDbEntity
  8
0
  6
Continuous
 62
     7
370
    25
100
AcDbSpline
210
0.0
220
0.0
230
1.0
 70
    24
 71
     3
 72
    12
 73
     8
 74
     0
 42
0.000000001
 43
0.00000001
 40
0.0
 40
0.0
 40
0.0
 40
0.0
 40
0.25
 40
0.25
 40
0.5
 40
0.5
 40
1.0
 40
1.0
 40
1.0
 40
1.0
 10
-4.270000000000135
 20
124.7823166580495
 30
0.0
 10
-4.402054258181579
 20
124.7823166580495
 30
0.0
 10
-4.531630677592001
 20
124.7823166580495
 30
0.0
 10
-4.77372623670206
 20
124.7823166580495
 30
0.0
 10
-4.884612767662889
 20
124.7823166580495
 30
0.0
 10
-5.161336299790545
 20
124.7823166580495
 30
0.0
 10
-5.270000000000432
 20
124.7823166580495
 30
0.0
 10
-5.27000000000044
 20
124.7823166580495
 30
0.0
  0
SPLINE
  5
16F
330
1F
100
AcDbEntity
  8
0
  6
Continuous
 62
     7
370
    25
100
AcDbSpline
210
0.0
220
0.0
230
1.0
 70
    24
 71
     3
 72
    12
 73
     8
 74
     0
 42
0.000000001
 43
0.00000001
 40
0.0
 40
0.0
 40
0.0
 40
0.0
 40
0.2500000000000079
 40
0.2500000000000079
 40
0.5000000000000159
 40
0.5000000000000159
 40
1.0
 40
1.0
 40
1.0
 40
1.0
 10
-4.0
 20
128.6823166580495
 30
0.0
 10
-4.077225242670816
 20
128.6823166580495
 30
0.0
 10
-4.152947236060072
 20
128.6823166580495
 30
0.0
 10
-4.301495058082931
 20
128.6823166580495
 30
0.0
 10
-4.374870649845256
 20
128.6823166580496
 30
0.0
 10
-4.579828832077605
 20
128.6823166580495
 30
0.0
 10
-4.701308879195944
 20
128.6823166580493
 30
0.0
 10
-4.7950000000003
 20
128.6823166580493
 30
0.0
  0
SPLINE
  5
170
330
1F
100
AcDbEntity
  8
0
  6
Continuous
 62
     7
370
    25
100
AcDbSpline
210
0.0
220
0.0
230
1.0
 70
    24
 71
     3
 72
    12
 73
     8
 74
     0
 42
0.000000001
 43
0.00000001
 40
0.0
 40
0.0
 40
0.0
 40
0.0
 40
0.250000000000011
 40
0.250000000000011
 40
0.500000000000022
 40
0.500000000000022
 40
1.0
 40
1.0
 40
1.0
 40
1.0
 10
-4.00000000000006
 20
129.7323166580494
 30
0.0
 10
-4.07722524267083
 20
129.7323166580495
 30
0.0
 10
-4.152947236060225
 20
129.7323166580495
 30
0.0
 10
-4.301495058083052
 20
129.7323166580495
 30
0.0
 10
-4.374870649845363
 20
129.7323166580495
 30
0.0
 10
-4.579828832077659
 20
129.7323166580495
 30
0.0
 10
-4.701308879195598
 20
129.7323166580493
 30
0.0
 10
-4.794999999999909
 20
129.7323166580493
 30
0.0
  0
SPLINE
  5
172
330
1F
100
AcDbEntity
  8
0
  6
Continuous
 62
     7
370
    25
100
AcDbSpline
210
0.0
220
0.0
230
1.0
 70
    24
 71
     3
 72
    12
 73
     8
 74
     0
 42
0.000000001
 43
0.00000001
 40
0.0
 40
0.0
 40
0.0
 40
0.0
 40
0.2499999999999993
 40
0.2499999999999993
 40
0.4999999999999987
 40
0.4999999999999987
 40
1.0
 40
1.0
 40
1.0
 40
1.0
 10
4.794999999999719
 20
129.7323166580495
 30
0.0
 10
4.748154439597586
 20
129.7323166580495
 30
0.0
 10
4.695203366069729
 20
129.7323166580494
 30
0.0
 10
4.577538318377713
 20
129.7323166580494
 30
0.0
 10
4.512112505233011
 20
129.7323166580494
 30
0.0
 10
4.307225226507809
 20
129.7323166580494
 30
0.0
 10
4.154450485341725
 20
129.7323166580495
 30
0.0
 10
4.000000000000201
 20
129.7323166580494
 30
0.0
  0
SPLINE
  5
173
330
1F
100
AcDbEntity
  8
0
  6
Continuous
 62
     7
370
    25
100
AcDbSpline
210
0.0
220
0.0
230
1.0
 70
    24
 71
     3
 72
    12
 73
     8
 74
     0
 42
0.000000001
 43
0.00000001
 40
0.0
 40
0.0
 40
0.0
 40
0.0
 40
0.2500000000000007
 40
0.2500000000000007
 40
0.5000000000000013
 40
0.5000000000000013
 40
1.0
 40
1.0
 40
1.0
 40
1.0
 10
4.0
 20
128.6823166580494
 30
0.0
 10
4.077225242670787
 20
128.6823166580494
 30
0.0
 10
4.152947236060047
 20
128.6823166580495
 30
0.0
 10
4.301495058082908
 20
128.6823166580495
 30
0.0
 10
4.3748706498451
 20
128.6823166580495
 30
0.0
 10
4.579828832077459
 20
128.6823166580495
 30
0.0
 10
4.701308879195608
 20
128.6823166580494
 30
0.0
 10
4.79499999999994
 20
128.6823166580494
 30
0.0
  0
SPLINE
  5
177
330
1F
100
AcDbEntity
  8
0
  6
Continuous
 62
     7
370
    25
100
AcDbSpline
210
0.0
220
0.0
230
1.0
 70
     8
 71
     3
 72
    10
 73
     6
 74
     0
 42
0.000000001
 43
0.00000001
 40
0.0
 40
0.0
 40
0.0
 40
0.0
 40
0.5
 40
0.5
 40
1.0
 40
1.0
 40
1.0
 40
1.0
 10
-0.5999999999997949
 20
125.2323166580494
 30
0.0
 10
-0.5999999999998152
 20
125.2851383613219
 30
0.0
 10
-0.5783420047618453
 20
125.3367909761066
 30
0.0
 10
-0.5046018060223503
 20
125.4105839180072
 30
0.0
 10
-0.4528217032723805
 20
125.4323166580492
 30
0.0
 10
-0.3999999999999005
 20
125.4323166580492
 30
0.0
  0
SPLINE
  5
179
330
1F
100
AcDbEntity
  8
0
  6
Continuous
 62
     7
370
    25
100
AcDbSpline
210
0.0
220
0.0
230
1.0
 70
     8
 71
     3
 72
    10
 73
     6
 74
     0
 42
0.000000001
 43
0.00000001
 40
0.0
 40
0.0
 40
0.0
 40
0.0
 40
0.5
 40
0.5
 40
1.0
 40
1.0
 40
1.0
 40
1.0
 10
0.3999999999999281
 20
125.4323166580492
 30
0.0
 10
0.4528217032724585
 20
125.4323166580492
 30
0.0
 10
0.5044743180572059
 20
125.4106586628113
 30
0.0
 10
0.5782672599578658
 20
125.3369184640717
 30
0.0
 10
0.5999999999998037
 20
125.285138361322
 30
0.0
 10
0.599999999999795
 20
125.2323166580494
 30
0.0
  0
SPLINE
  5
17B
330
1F
100
AcDbEntity
  8
0
  6
Continuous
 62
     7
370
    25
100
AcDbSpline
210
0.0
220
0.0
230
1.0
 70
    24
 71
     3
 72
    16
 73
    12
 74
     0
 42
0.000000001
 43
0.00000001
 40
0.0
 40
0.0
 40
0.0
 40
0.0
 40
0.2499999999999839
 40
0.2499999999999839
 40
0.3749999999999956
 40
0.3749999999999956
 40
0.5000000000000073
 40
0.5000000000000073
 40
0.7500000000000037
 40
0.7500000000000037
 40
1.0
 40
1.0
 40
1.0
 40
1.0
 10
4.520000000000439
 20
122.2823166580493
 30
0.0
 10
4.520000000000426
 20
122.2823166580494
 30
0.0
 10
4.484927623143911
 20
122.2823166580493
 30
0.0
 10
4.383396414858328
 20
122.2823166580493
 30
0.0
 10
4.341975317064309
 20
122.2823166580493
 30
0.0
 10
4.244116570370483
 20
122.2823166580494
 30
0.0
 10
4.187153654085233
 20
122.2823166580493
 30
0.0
 10
4.00049877602556
 20
122.2823166580493
 30
0.0
 10
3.850034085409338
 20
122.2823166580494
 30
0.0
 10
3.525420720565388
 20
122.2823166580494
 30
0.0
 10
3.348273248545094
 20
122.2823166580495
 30
0.0
 10
3.170000000000115
 20
122.2823166580495
 30
0.0
  0
SPLINE
  5
17E
330
1F
100
AcDbEntity
  8
0
  6
Continuous
 62
     7
370
    25
100
AcDbSpline
210
0.0
220
0.0
230
1.0
 70
    24
 71
     3
 72
    16
 73
    12
 74
     0
 42
0.000000001
 43
0.00000001
 40
0.0
 40
0.0
 40
0.0
 40
0.0
 40
0.2499999999999895
 40
0.2499999999999895
 40
0.3749999999999912
 40
0.3749999999999912
 40
0.499999999999993
 40
0.499999999999993
 40
0.7499999999999964
 40
0.7499999999999964
 40
1.0
 40
1.0
 40
1.0
 40
1.0
 10
-3.17000000000006
 20
122.2823166580494
 30
0.0
 10
-3.348273248545069
 20
122.2823166580494
 30
0.0
 10
-3.523201414749121
 20
122.2823166580493
 30
0.0
 10
-3.768323168348088
 20
122.2823166580493
 30
0.0
 10
-3.845831129876675
 20
122.2823166580494
 30
0.0
 10
-3.992525047140751
 20
122.2823166580493
 30
0.0
 10
-4.061990031073634
 20
122.2823166580493
 30
0.0
 10
-4.248778415259777
 20
122.2823166580494
 30
0.0
 10
-4.34938102968622
 20
122.2823166580494
 30
0.0
 10
-4.484177340352056
 20
122.2823166580493
 30
0.0
 10
-4.520000000000159
 20
122.2823166580493
 30
0.0
 10
-4.52000000000019
 20
122.2823166580493
 30
0.0
  0
LINE
  5
191
330
1F
100
AcDbEntity
  8
0
  6
Continuous
 62
     7
370
    25
100
AcDbLine
 10
-9.435
 20
126.779172637
 30
0.0
 11
-9.435
 21
125.346060849
 31
0.0
  0
LINE
  5
192
330
1F
100
AcDbEntity
  8
0
  6
Continuous
 62
     7
370
    25
100
AcDbLine
 10
-9.435
 20
133.346060849
 30
0.0
 11
-9.435
 21
129.7791726371
 31
0.0
  0
LINE
  5
193
330
1F
100
AcDbEntity
  8
0
  6
Continuous
 62
     7
370
    25
100
AcDbLine
 10
-7.435
 20
133.346060849
 30
0.0
 11
-9.435
 21
133.346060849
 31
0.0
  0
LINE
  5
194
330
1F
100
AcDbEntity
  8
0
  6
Continuous
 62
     7
370
    25
100
AcDbLine
 10
3.565
 20
133.346060849
 30
0.0
 11
-4.435
 21
133.346060849
 31
0.0
  0
LINE
  5
195
330
1F
100
AcDbEntity
  8
0
  6
Continuous
 62
     7
370
    25
100
AcDbLine
 10
8.565
 20
133.346060849
 30
0.0
 11
6.565
 21
133.346060849
 31
0.0
  0
LINE
  5
196
330
1F
100
AcDbEntity
  8
0
  6
Continuous
 62
     7
370
    25
100
AcDbLine
 10
8.565
 20
130.346060849
 30
0.0
 11
8.565
 21
133.346060849
 31
0.0
  0
LINE
  5
197
330
1F
100
AcDbEntity
  8
0
  6
Continuous
 62
     7
370
    25
100
AcDbLine
 10
8.565
 20
125.346060849
 30
0.0
 11
8.565
 21
127.346060849
 31
0.0
  0
LINE
  5
198
330
1F
100
AcDbEntity
  8
0
  6
Continuous
 62
     7
370
    25
100
AcDbLine
 10
-9.435
 20
125.346060849
 30
0.0
 11
-5.045
 21
125.346060849
 31
0.0
  0
LINE
  5
199
330
1F
100
AcDbEntity
  8
0
  6
Continuous
 62
     7
370
    25
100
AcDbLine
 10
5.045
 20
125.346060849
 30
0.0
 11
8.565
 21
125.346060849
 31
0.0
  0
LINE
  5
19A
330
1F
100
AcDbEntity
  8
0
  6
Continuous
 62
     7
370
    25
100
AcDbLine
 10
-0.8585786438
 20
128.532316658
 30
0.0
 11
0.8585786438
 21
128.532316658
 31
0.0
  0
LINE
  5
19B
330
1F
100
AcDbEntity
  8
0
  6
Continuous
 62
     7
370
    25
100
AcDbLine
 10
1.2828427125
 20
128.632316658
 30
0.0
 11
4.1
 21
128.632316658
 31
0.0
  0
LINE
  5
19C
330
1F
100
AcDbEntity
  8
0
  6
Continuous
 62
     7
370
    25
100
AcDbLine
 10
4.1
 20
128.632316658
 30
0.0
 11
4.1
 21
124.832316658
 31
0.0
  0
LINE
  5
19D
330
1F
100
AcDbEntity
  8
0
  6
Continuous
 62
     7
370
    25
100
AcDbLine
 10
4.1
 20
124.832316658
 30
0.0
 11
0.8
 21
124.832316658
 31
0.0
  0
LINE
  5
19E
330
1F
100
AcDbEntity
  8
0
  6
Continuous
 62
     7
370
    25
100
AcDbLine
 10
0.65
 20
124.982316658
 30
0.0
 11
0.65
 21
125.382316658
 31
0.0
  0
LINE
  5
19F
330
1F
100
AcDbEntity
  8
0
  6
Continuous
 62
     7
370
    25
100
AcDbLine
 10
0.5
 20
125.532316658
 30
0.0
 11
-0.5
 21
125.532316658
 31
0.0
  0
LINE
  5
1A0
330
1F
100
AcDbEntity
  8
0
  6
Continuous
 62
     7
370
    25
100
AcDbLine
 10
-0.65
 20
125.382316658
 30
0.0
 11
-0.65
 21
124.982316658
 31
0.0
  0
LINE
  5
1A1
330
1F
100
AcDbEntity
  8
0
  6
Continuous
 62
     7
370
    25
100
AcDbLine
 10
-0.8
 20
124.832316658
 30
0.0
 11
-4.1
 21
124.832316658
 31
0.0
  0
LINE
  5
1A2
330
1F
100
AcDbEntity
  8
0
  6
Continuous
 62
     7
370
    25
100
AcDbLine
 10
-4.1
 20
124.832316658
 30
0.0
 11
-4.1
 21
128.632316658
 31
0.0
  0
LINE
  5
1A3
330
1F
100
AcDbEntity
  8
0
  6
Continuous
 62
     7
370
    25
100
AcDbLine
 10
-4.1
 20
128.632316658
 30
0.0
 11
-1.2828427125
 21
128.632316658
 31
0.0
  0
LINE
  5
1A4
330
1F
100
AcDbEntity
  8
0
  6
Continuous
 62
     7
370
    25
100
AcDbLine
 10
5.0
 20
128.632316658
 30
0.0
 11
5.0
 21
124.832316658
 31
0.0
  0
LINE
  5
1A5
330
1F
100
AcDbEntity
  8
0
  6
Continuous
 62
     7
370
    25
100
AcDbLine
 10
-5.0
 20
124.832316658
 30
0.0
 11
-5.0
 21
128.632316658
 31
0.0
  0
LINE
  5
1A6
330
1F
100
AcDbEntity
  8
0
  6
Continuous
 62
     7
370
    25
100
AcDbLine
 10
0.85
 20
128.582316658
 30
0.0
 11
-0.85
 21
128.582316658
 31
0.0
  0
LINE
  5
1A7
330
1F
100
AcDbEntity
  8
0
  6
Continuous
 62
     7
370
    25
100
AcDbLine
 10
-1.85
 20
130.19637049
 30
0.0
 11
-1.65
 21
130.19637049
 31
0.0
  0
LINE
  5
1A8
330
1F
100
AcDbEntity
  8
0
  6
Continuous
 62
     7
370
    25
100
AcDbLine
 10
-1.65
 20
129.732316658
 30
0.0
 11
-1.65
 21
130.19637049
 31
0.0
  0
LINE
  5
1A9
330
1F
100
AcDbEntity
  8
0
  6
Continuous
 62
     7
370
    25
100
AcDbLine
 10
-1.85
 20
130.19637049
 30
0.0
 11
-1.85
 21
129.732316658
 31
0.0
  0
LINE
  5
1AA
330
1F
100
AcDbEntity
  8
0
  6
Continuous
 62
     7
370
    25
100
AcDbLine
 10
-1.65
 20
130.812316658
 30
0.0
 11
-1.85
 21
130.812316658
 31
0.0
  0
LINE
  5
1AB
330
1F
100
AcDbEntity
  8
0
  6
Continuous
 62
     7
370
    25
100
AcDbLine
 10
-1.85
 20
130.332316658
 30
0.0
 11
-1.65
 21
130.332316658
 31
0.0
  0
LINE
  5
1AC
330
1F
100
AcDbEntity
  8
0
  6
Continuous
 62
     7
370
    25
100
AcDbLine
 10
-1.65
 20
130.332316658
 30
0.0
 11
-1.65
 21
130.832316658
 31
0.0
  0
LINE
  5
1AD
330
1F
100
AcDbEntity
  8
0
  6
Continuous
 62
     7
370
    25
100
AcDbLine
 10
-1.85
 20
130.832316658
 30
0.0
 11
-1.85
 21
130.332316658
 31
0.0
  0
LINE
  5
1AE
330
1F
100
AcDbEntity
  8
0
  6
Continuous
 62
     7
370
    25
100
AcDbLine
 10
-1.85
 20
130.832316658
 30
0.0
 11
-1.65
 21
130.832316658
 31
0.0
  0
LINE
  5
1AF
330
1F
100
AcDbEntity
  8
0
  6
Continuous
 62
     7
370
    25
100
AcDbLine
 10
-2.19
 20
130.19637049
 30
0.0
 11
-2.39
 21
130.19637049
 31
0.0
  0
LINE
  5
1B0
330
1F
100
AcDbEntity
  8
0
  6
Continuous
 62
     7
370
    25
100
AcDbLine
 10
-2.19
 20
129.732316658
 30
0.0
 11
-2.19
 21
130.19637049
 31
0.0
  0
LINE
  5
1B1
330
1F
100
AcDbEntity
  8
0
  6
Continuous
 62
     7
370
    25
100
AcDbLine
 10
-2.39
 20
130.19637049
 30
0.0
 11
-2.39
 21
129.732316658
 31
0.0
  0
LINE
  5
1B2
330
1F
100
AcDbEntity
  8
0
  6
Continuous
 62
     7
370
    25
100
AcDbLine
 10
-2.19
 20
130.812316658
 30
0.0
 11
-2.39
 21
130.812316658
 31
0.0
  0
LINE
  5
1B3
330
1F
100
AcDbEntity
  8
0
  6
Continuous
 62
     7
370
    25
100
AcDbLine
 10
-2.19
 20
130.332316658
 30
0.0
 11
-2.39
 21
130.332316658
 31
0.0
  0
LINE
  5
1B4
330
1F
100
AcDbEntity
  8
0
  6
Continuous
 62
     7
370
    25
100
AcDbLine
 10
-2.19
 20
130.332316658
 30
0.0
 11
-2.19
 21
130.832316658
 31
0.0
  0
LINE
  5
1B5
330
1F
100
AcDbEntity
  8
0
  6
Continuous
 62
     7
370
    25
100
AcDbLine
 10
-2.39
 20
130.832316658
 30
0.0
 11
-2.39
 21
130.332316658
 31
0.0
  0
LINE
  5
1B6
330
1F
100
AcDbEntity
  8
0
  6
Continuous
 62
     7
370
    25
100
AcDbLine
 10
-2.19
 20
130.832316658
 30
0.0
 11
-2.39
 21
130.832316658
 31
0.0
  0
LINE
  5
1B7
330
1F
100
AcDbEntity
  8
0
  6
Continuous
 62
     7
370
    25
100
AcDbLine
 10
0.65
 20
130.19637049
 30
0.0
 11
0.85
 21
130.19637049
 31
0.0
  0
LINE
  5
1B8
330
1F
100
AcDbEntity
  8
0
  6
Continuous
 62
     7
370
    25
100
AcDbLine
 10
0.65
 20
130.19637049
 30
0.0
 11
0.65
 21
129.732316658
 31
0.0
  0
LINE
  5
1B9
330
1F
100
AcDbEntity
  8
0
  6
Continuous
 62
     7
370
    25
100
AcDbLine
 10
0.85
 20
129.732316658
 30
0.0
 11
0.85
 21
130.19637049
 31
0.0
  0
LINE
  5
1BA
330
1F
100
AcDbEntity
  8
0
  6
Continuous
 62
     7
370
    25
100
AcDbLine
 10
0.85
 20
130.812316658
 30
0.0
 11
0.65
 21
130.812316658
 31
0.0
  0
LINE
  5
1BB
330
1F
100
AcDbEntity
  8
0
  6
Continuous
 62
     7
370
    25
100
AcDbLine
 10
0.65
 20
130.332316658
 30
0.0
 11
0.85
 21
130.332316658
 31
0.0
  0
LINE
  5
1BC
330
1F
100
AcDbEntity
  8
0
  6
Continuous
 62
     7
370
    25
100
AcDbLine
 10
0.65
 20
130.832316658
 30
0.0
 11
0.65
 21
130.332316658
 31
0.0
  0
LINE
  5
1BD
330
1F
100
AcDbEntity
  8
0
  6
Continuous
 62
     7
370
    25
100
AcDbLine
 10
0.85
 20
130.332316658
 30
0.0
 11
0.85
 21
130.832316658
 31
0.0
  0
LINE
  5
1BE
330
1F
100
AcDbEntity
  8
0
  6
Continuous
 62
     7
370
    25
100
AcDbLine
 10
0.85
 20
130.832316658
 30
0.0
 11
0.65
 21
130.832316658
 31
0.0
  0
LINE
  5
1BF
330
1F
100
AcDbEntity
  8
0
  6
Continuous
 62
     7
370
    25
100
AcDbLine
 10
3.41
 20
130.19637049
 30
0.0
 11
3.21
 21
130.19637049
 31
0.0
  0
LINE
  5
1C0
330
1F
100
AcDbEntity
  8
0
  6
Continuous
 62
     7
370
    25
100
AcDbLine
 10
3.21
 20
130.19637049
 30
0.0
 11
3.21
 21
129.732316658
 31
0.0
  0
LINE
  5
1C1
330
1F
100
AcDbEntity
  8
0
  6
Continuous
 62
     7
370
    25
100
AcDbLine
 10
3.41
 20
129.732316658
 30
0.0
 11
3.41
 21
130.19637049
 31
0.0
  0
LINE
  5
1C2
330
1F
100
AcDbEntity
  8
0
  6
Continuous
 62
     7
370
    25
100
AcDbLine
 10
3.41
 20
130.812316658
 30
0.0
 11
3.21
 21
130.812316658
 31
0.0
  0
LINE
  5
1C3
330
1F
100
AcDbEntity
  8
0
  6
Continuous
 62
     7
370
    25
100
AcDbLine
 10
3.41
 20
130.332316658
 30
0.0
 11
3.21
 21
130.332316658
 31
0.0
  0
LINE
  5
1C4
330
1F
100
AcDbEntity
  8
0
  6
Continuous
 62
     7
370
    25
100
AcDbLine
 10
3.21
 20
130.832316658
 30
0.0
 11
3.21
 21
130.332316658
 31
0.0
  0
LINE
  5
1C5
330
1F
100
AcDbEntity
  8
0
  6
Continuous
 62
     7
370
    25
100
AcDbLine
 10
3.41
 20
130.332316658
 30
0.0
 11
3.41
 21
130.832316658
 31
0.0
  0
LINE
  5
1C6
330
1F
100
AcDbEntity
  8
0
  6
Continuous
 62
     7
370
    25
100
AcDbLine
 10
3.21
 20
130.832316658
 30
0.0
 11
3.41
 21
130.832316658
 31
0.0
  0
LINE
  5
1C7
330
1F
100
AcDbEntity
  8
0
  6
Continuous
 62
     7
370
    25
100
AcDbLine
 10
1.35
 20
130.19637049
 30
0.0
 11
1.15
 21
130.19637049
 31
0.0
  0
LINE
  5
1C8
330
1F
100
AcDbEntity
  8
0
  6
Continuous
 62
     7
370
    25
100
AcDbLine
 10
1.15
 20
130.19637049
 30
0.0
 11
1.15
 21
129.732316658
 31
0.0
  0
LINE
  5
1C9
330
1F
100
AcDbEntity
  8
0
  6
Continuous
 62
     7
370
    25
100
AcDbLine
 10
1.35
 20
129.732316658
 30
0.0
 11
1.35
 21
130.19637049
 31
0.0
  0
LINE
  5
1CA
330
1F
100
AcDbEntity
  8
0
  6
Continuous
 62
     7
370
    25
100
AcDbLine
 10
1.35
 20
130.812316658
 30
0.0
 11
1.15
 21
130.812316658
 31
0.0
  0
LINE
  5
1CB
330
1F
100
AcDbEntity
  8
0
  6
Continuous
 62
     7
370
    25
100
AcDbLine
 10
1.35
 20
130.332316658
 30
0.0
 11
1.15
 21
130.332316658
 31
0.0
  0
LINE
  5
1CC
330
1F
100
AcDbEntity
  8
0
  6
Continuous
 62
     7
370
    25
100
AcDbLine
 10
1.15
 20
130.832316658
 30
0.0
 11
1.15
 21
130.332316658
 31
0.0
  0
LINE
  5
1CD
330
1F
100
AcDbEntity
  8
0
  6
Continuous
 62
     7
370
    25
100
AcDbLine
 10
1.35
 20
130.332316658
 30
0.0
 11
1.35
 21
130.832316658
 31
0.0
  0
LINE
  5
1CE
330
1F
100
AcDbEntity
  8
0
  6
Continuous
 62
     7
370
    25
100
AcDbLine
 10
1.15
 20
130.832316658
 30
0.0
 11
1.35
 21
130.832316658
 31
0.0
  0
LINE
  5
1CF
330
1F
100
AcDbEntity
  8
0
  6
Continuous
 62
     7
370
    25
100
AcDbLine
 10
-3.41
 20
130.19637049
 30
0.0
 11
-3.21
 21
130.19637049
 31
0.0
  0
LINE
  5
1D0
330
1F
100
AcDbEntity
  8
0
  6
Continuous
 62
     7
370
    25
100
AcDbLine
 10
-3.21
 20
129.732316658
 30
0.0
 11
-3.21
 21
130.19637049
 31
0.0
  0
LINE
  5
1D1
330
1F
100
AcDbEntity
  8
0
  6
Continuous
 62
     7
370
    25
100
AcDbLine
 10
-3.41
 20
130.19637049
 30
0.0
 11
-3.41
 21
129.732316658
 31
0.0
  0
LINE
  5
1D2
330
1F
100
AcDbEntity
  8
0
  6
Continuous
 62
     7
370
    25
100
AcDbLine
 10
-3.21
 20
130.812316658
 30
0.0
 11
-3.41
 21
130.812316658
 31
0.0
  0
LINE
  5
1D3
330
1F
100
AcDbEntity
  8
0
  6
Continuous
 62
     7
370
    25
100
AcDbLine
 10
-3.41
 20
130.332316658
 30
0.0
 11
-3.21
 21
130.332316658
 31
0.0
  0
LINE
  5
1D4
330
1F
100
AcDbEntity
  8
0
  6
Continuous
 62
     7
370
    25
100
AcDbLine
 10
-3.21
 20
130.332316658
 30
0.0
 11
-3.21
 21
130.832316658
 31
0.0
  0
LINE
  5
1D5
330
1F
100
AcDbEntity
  8
0
  6
Continuous
 62
     7
370
    25
100
AcDbLine
 10
-3.41
 20
130.832316658
 30
0.0
 11
-3.41
 21
130.332316658
 31
0.0
  0
LINE
  5
1D6
330
1F
100
AcDbEntity
  8
0
  6
Continuous
 62
     7
370
    25
100
AcDbLine
 10
-3.41
 20
130.832316658
 30
0.0
 11
-3.21
 21
130.832316658
 31
0.0
  0
LINE
  5
1D7
330
1F
100
AcDbEntity
  8
0
  6
Continuous
 62
     7
370
    25
100
AcDbLine
 10
-1.15
 20
130.19637049
 30
0.0
 11
-1.35
 21
130.19637049
 31
0.0
  0
LINE
  5
1D8
330
1F
100
AcDbEntity
  8
0
  6
Continuous
 62
     7
370
    25
100
AcDbLine
 10
-1.15
 20
129.732316658
 30
0.0
 11
-1.15
 21
130.19637049
 31
0.0
  0
LINE
  5
1D9
330
1F
100
AcDbEntity
  8
0
  6
Continuous
 62
     7
370
    25
100
AcDbLine
 10
-1.35
 20
130.19637049
 30
0.0
 11
-1.35
 21
129.732316658
 31
0.0
  0
LINE
  5
1DA
330
1F
100
AcDbEntity
  8
0
  6
Continuous
 62
     7
370
    25
100
AcDbLine
 10
-1.15
 20
130.812316658
 30
0.0
 11
-1.35
 21
130.812316658
 31
0.0
  0
LINE
  5
1DB
330
1F
100
AcDbEntity
  8
0
  6
Continuous
 62
     7
370
    25
100
AcDbLine
 10
-1.15
 20
130.332316658
 30
0.0
 11
-1.35
 21
130.332316658
 31
0.0
  0
LINE
  5
1DC
330
1F
100
AcDbEntity
  8
0
  6
Continuous
 62
     7
370
    25
100
AcDbLine
 10
-1.15
 20
130.332316658
 30
0.0
 11
-1.15
 21
130.832316658
 31
0.0
  0
LINE
  5
1DD
330
1F
100
AcDbEntity
  8
0
  6
Continuous
 62
     7
370
    25
100
AcDbLine
 10
-1.35
 20
130.832316658
 30
0.0
 11
-1.35
 21
130.332316658
 31
0.0
  0
LINE
  5
1DE
330
1F
100
AcDbEntity
  8
0
  6
Continuous
 62
     7
370
    25
100
AcDbLine
 10
-1.15
 20
130.832316658
 30
0.0
 11
-1.35
 21
130.832316658
 31
0.0
  0
LINE
  5
1DF
330
1F
100
AcDbEntity
  8
0
  6
Continuous
 62
     7
370
    25
100
AcDbLine
 10
-0.65
 20
130.19637049
 30
0.0
 11
-0.85
 21
130.19637049
 31
0.0
  0
LINE
  5
1E0
330
1F
100
AcDbEntity
  8
0
  6
Continuous
 62
     7
370
    25
100
AcDbLine
 10
-0.65
 20
129.732316658
 30
0.0
 11
-0.65
 21
130.19637049
 31
0.0
  0
LINE
  5
1E1
330
1F
100
AcDbEntity
  8
0
  6
Continuous
 62
     7
370
    25
100
AcDbLine
 10
-0.85
 20
130.19637049
 30
0.0
 11
-0.85
 21
129.732316658
 31
0.0
  0
LINE
  5
1E2
330
1F
100
AcDbEntity
  8
0
  6
Continuous
 62
     7
370
    25
100
AcDbLine
 10
-0.65
 20
130.812316658
 30
0.0
 11
-0.85
 21
130.812316658
 31
0.0
  0
LINE
  5
1E3
330
1F
100
AcDbEntity
  8
0
  6
Continuous
 62
     7
370
    25
100
AcDbLine
 10
-0.65
 20
130.332316658
 30
0.0
 11
-0.85
 21
130.332316658
 31
0.0
  0
LINE
  5
1E4
330
1F
100
AcDbEntity
  8
0
  6
Continuous
 62
     7
370
    25
100
AcDbLine
 10
-0.65
 20
130.332316658
 30
0.0
 11
-0.65
 21
130.832316658
 31
0.0
  0
LINE
  5
1E5
330
1F
100
AcDbEntity
  8
0
  6
Continuous
 62
     7
370
    25
100
AcDbLine
 10
-0.85
 20
130.832316658
 30
0.0
 11
-0.85
 21
130.332316658
 31
0.0
  0
LINE
  5
1E6
330
1F
100
AcDbEntity
  8
0
  6
Continuous
 62
     7
370
    25
100
AcDbLine
 10
-0.85
 20
130.832316658
 30
0.0
 11
-0.65
 21
130.832316658
 31
0.0
  0
LINE
  5
1E7
330
1F
100
AcDbEntity
  8
0
  6
Continuous
 62
     7
370
    25
100
AcDbLine
 10
1.85
 20
130.19637049
 30
0.0
 11
1.65
 21
130.19637049
 31
0.0
  0
LINE
  5
1E8
330
1F
100
AcDbEntity
  8
0
  6
Continuous
 62
     7
370
    25
100
AcDbLine
 10
1.65
 20
130.19637049
 30
0.0
 11
1.65
 21
129.732316658
 31
0.0
  0
LINE
  5
1E9
330
1F
100
AcDbEntity
  8
0
  6
Continuous
 62
     7
370
    25
100
AcDbLine
 10
1.85
 20
129.732316658
 30
0.0
 11
1.85
 21
130.19637049
 31
0.0
  0
LINE
  5
1EA
330
1F
100
AcDbEntity
  8
0
  6
Continuous
 62
     7
370
    25
100
AcDbLine
 10
1.85
 20
130.812316658
 30
0.0
 11
1.65
 21
130.812316658
 31
0.0
  0
LINE
  5
1EB
330
1F
100
AcDbEntity
  8
0
  6
Continuous
 62
     7
370
    25
100
AcDbLine
 10
1.85
 20
130.332316658
 30
0.0
 11
1.65
 21
130.332316658
 31
0.0
  0
LINE
  5
1EC
330
1F
100
AcDbEntity
  8
0
  6
Continuous
 62
     7
370
    25
100
AcDbLine
 10
1.65
 20
130.832316658
 30
0.0
 11
1.65
 21
130.332316658
 31
0.0
  0
LINE
  5
1ED
330
1F
100
AcDbEntity
  8
0
  6
Continuous
 62
     7
370
    25
100
AcDbLine
 10
1.85
 20
130.332316658
 30
0.0
 11
1.85
 21
130.832316658
 31
0.0
  0
LINE
  5
1EE
330
1F
100
AcDbEntity
  8
0
  6
Continuous
 62
     7
370
    25
100
AcDbLine
 10
1.65
 20
130.832316658
 30
0.0
 11
1.85
 21
130.832316658
 31
0.0
  0
LINE
  5
1EF
330
1F
100
AcDbEntity
  8
0
  6
Continuous
 62
     7
370
    25
100
AcDbLine
 10
3.19
 20
130.19637049
 30
0.0
 11
2.99
 21
130.19637049
 31
0.0
  0
LINE
  5
1F0
330
1F
100
AcDbEntity
  8
0
  6
Continuous
 62
     7
370
    25
100
AcDbLine
 10
2.99
 20
130.19637049
 30
0.0
 11
2.99
 21
129.732316658
 31
0.0
  0
LINE
  5
1F1
330
1F
100
AcDbEntity
  8
0
  6
Continuous
 62
     7
370
    25
100
AcDbLine
 10
3.19
 20
129.732316658
 30
0.0
 11
3.19
 21
130.19637049
 31
0.0
  0
LINE
  5
1F2
330
1F
100
AcDbEntity
  8
0
  6
Continuous
 62
     7
370
    25
100
AcDbLine
 10
3.19
 20
130.812316658
 30
0.0
 11
2.99
 21
130.812316658
 31
0.0
  0
LINE
  5
1F3
330
1F
100
AcDbEntity
  8
0
  6
Continuous
 62
     7
370
    25
100
AcDbLine
 10
3.19
 20
130.332316658
 30
0.0
 11
2.99
 21
130.332316658
 31
0.0
  0
LINE
  5
1F4
330
1F
100
AcDbEntity
  8
0
  6
Continuous
 62
     7
370
    25
100
AcDbLine
 10
2.99
 20
130.832316658
 30
0.0
 11
2.99
 21
130.332316658
 31
0.0
  0
LINE
  5
1F5
330
1F
100
AcDbEntity
  8
0
  6
Continuous
 62
     7
370
    25
100
AcDbLine
 10
3.19
 20
130.332316658
 30
0.0
 11
3.19
 21
130.832316658
 31
0.0
  0
LINE
  5
1F6
330
1F
100
AcDbEntity
  8
0
  6
Continuous
 62
     7
370
    25
100
AcDbLine
 10
2.99
 20
130.832316658
 30
0.0
 11
3.19
 21
130.832316658
 31
0.0
  0
LINE
  5
1F7
330
1F
100
AcDbEntity
  8
0
  6
Continuous
 62
     7
370
    25
100
AcDbLine
 10
2.61
 20
130.19637049
 30
0.0
 11
2.41
 21
130.19637049
 31
0.0
  0
LINE
  5
1F8
330
1F
100
AcDbEntity
  8
0
  6
Continuous
 62
     7
370
    25
100
AcDbLine
 10
2.41
 20
130.19637049
 30
0.0
 11
2.41
 21
129.732316658
 31
0.0
  0
LINE
  5
1F9
330
1F
100
AcDbEntity
  8
0
  6
Continuous
 62
     7
370
    25
100
AcDbLine
 10
2.61
 20
129.732316658
 30
0.0
 11
2.61
 21
130.19637049
 31
0.0
  0
LINE
  5
1FA
330
1F
100
AcDbEntity
  8
0
  6
Continuous
 62
     7
370
    25
100
AcDbLine
 10
2.61
 20
130.812316658
 30
0.0
 11
2.41
 21
130.812316658
 31
0.0
  0
LINE
  5
1FB
330
1F
100
AcDbEntity
  8
0
  6
Continuous
 62
     7
370
    25
100
AcDbLine
 10
2.61
 20
130.332316658
 30
0.0
 11
2.41
 21
130.332316658
 31
0.0
  0
LINE
  5
1FC
330
1F
100
AcDbEntity
  8
0
  6
Continuous
 62
     7
370
    25
100
AcDbLine
 10
2.41
 20
130.832316658
 30
0.0
 11
2.41
 21
130.332316658
 31
0.0
  0
LINE
  5
1FD
330
1F
100
AcDbEntity
  8
0
  6
Continuous
 62
     7
370
    25
100
AcDbLine
 10
2.61
 20
130.332316658
 30
0.0
 11
2.61
 21
130.832316658
 31
0.0
  0
LINE
  5
1FE
330
1F
100
AcDbEntity
  8
0
  6
Continuous
 62
     7
370
    25
100
AcDbLine
 10
2.41
 20
130.832316658
 30
0.0
 11
2.61
 21
130.832316658
 31
0.0
  0
LINE
  5
1FF
330
1F
100
AcDbEntity
  8
0
  6
Continuous
 62
     7
370
    25
100
AcDbLine
 10
-3.19
 20
130.19637049
 30
0.0
 11
-2.99
 21
130.19637049
 31
0.0
  0
LINE
  5
200
330
1F
100
AcDbEntity
  8
0
  6
Continuous
 62
     7
370
    25
100
AcDbLine
 10
-2.99
 20
129.732316658
 30
0.0
 11
-2.99
 21
130.19637049
 31
0.0
  0
LINE
  5
201
330
1F
100
AcDbEntity
  8
0
  6
Continuous
 62
     7
370
    25
100
AcDbLine
 10
-3.19
 20
130.19637049
 30
0.0
 11
-3.19
 21
129.732316658
 31
0.0
  0
LINE
  5
202
330
1F
100
AcDbEntity
  8
0
  6
Continuous
 62
     7
370
    25
100
AcDbLine
 10
-2.99
 20
130.812316658
 30
0.0
 11
-3.19
 21
130.812316658
 31
0.0
  0
LINE
  5
203
330
1F
100
AcDbEntity
  8
0
  6
Continuous
 62
     7
370
    25
100
AcDbLine
 10
-3.19
 20
130.332316658
 30
0.0
 11
-2.99
 21
130.332316658
 31
0.0
  0
LINE
  5
204
330
1F
100
AcDbEntity
  8
0
  6
Continuous
 62
     7
370
    25
100
AcDbLine
 10
-2.99
 20
130.332316658
 30
0.0
 11
-2.99
 21
130.832316658
 31
0.0
  0
LINE
  5
205
330
1F
100
AcDbEntity
  8
0
  6
Continuous
 62
     7
370
    25
100
AcDbLine
 10
-3.19
 20
130.832316658
 30
0.0
 11
-3.19
 21
130.332316658
 31
0.0
  0
LINE
  5
206
330
1F
100
AcDbEntity
  8
0
  6
Continuous
 62
     7
370
    25
100
AcDbLine
 10
-3.19
 20
130.832316658
 30
0.0
 11
-2.99
 21
130.832316658
 31
0.0
  0
LINE
  5
207
330
1F
100
AcDbEntity
  8
0
  6
Continuous
 62
     7
370
    25
100
AcDbLine
 10
0.35
 20
130.19637049
 30
0.0
 11
0.15
 21
130.19637049
 31
0.0
  0
LINE
  5
208
330
1F
100
AcDbEntity
  8
0
  6
Continuous
 62
     7
370
    25
100
AcDbLine
 10
0.15
 20
130.19637049
 30
0.0
 11
0.15
 21
129.732316658
 31
0.0
  0
LINE
  5
209
330
1F
100
AcDbEntity
  8
0
  6
Continuous
 62
     7
370
    25
100
AcDbLine
 10
0.35
 20
129.732316658
 30
0.0
 11
0.35
 21
130.19637049
 31
0.0
  0
LINE
  5
20A
330
1F
100
AcDbEntity
  8
0
  6
Continuous
 62
     7
370
    25
100
AcDbLine
 10
0.35
 20
130.812316658
 30
0.0
 11
0.15
 21
130.812316658
 31
0.0
  0
LINE
  5
20B
330
1F
100
AcDbEntity
  8
0
  6
Continuous
 62
     7
370
    25
100
AcDbLine
 10
0.35
 20
130.332316658
 30
0.0
 11
0.15
 21
130.332316658
 31
0.0
  0
LINE
  5
20C
330
1F
100
AcDbEntity
  8
0
  6
Continuous
 62
     7
370
    25
100
AcDbLine
 10
0.15
 20
130.832316658
 30
0.0
 11
0.15
 21
130.332316658
 31
0.0
  0
LINE
  5
20D
330
1F
100
AcDbEntity
  8
0
  6
Continuous
 62
     7
370
    25
100
AcDbLine
 10
0.35
 20
130.332316658
 30
0.0
 11
0.35
 21
130.832316658
 31
0.0
  0
LINE
  5
20E
330
1F
100
AcDbEntity
  8
0
  6
Continuous
 62
     7
370
    25
100
AcDbLine
 10
0.15
 20
130.832316658
 30
0.0
 11
0.35
 21
130.832316658
 31
0.0
  0
LINE
  5
20F
330
1F
100
AcDbEntity
  8
0
  6
Continuous
 62
     7
370
    25
100
AcDbLine
 10
2.39
 20
130.19637049
 30
0.0
 11
2.19
 21
130.19637049
 31
0.0
  0
LINE
  5
210
330
1F
100
AcDbEntity
  8
0
  6
Continuous
 62
     7
370
    25
100
AcDbLine
 10
2.19
 20
130.19637049
 30
0.0
 11
2.19
 21
129.732316658
 31
0.0
  0
LINE
  5
211
330
1F
100
AcDbEntity
  8
0
  6
Continuous
 62
     7
370
    25
100
AcDbLine
 10
2.39
 20
129.732316658
 30
0.0
 11
2.39
 21
130.19637049
 31
0.0
  0
LINE
  5
212
330
1F
100
AcDbEntity
  8
0
  6
Continuous
 62
     7
370
    25
100
AcDbLine
 10
2.39
 20
130.812316658
 30
0.0
 11
2.19
 21
130.812316658
 31
0.0
  0
LINE
  5
213
330
1F
100
AcDbEntity
  8
0
  6
Continuous
 62
     7
370
    25
100
AcDbLine
 10
2.39
 20
130.332316658
 30
0.0
 11
2.19
 21
130.332316658
 31
0.0
  0
LINE
  5
214
330
1F
100
AcDbEntity
  8
0
  6
Continuous
 62
     7
370
    25
100
AcDbLine
 10
2.19
 20
130.832316658
 30
0.0
 11
2.19
 21
130.332316658
 31
0.0
  0
LINE
  5
215
330
1F
100
AcDbEntity
  8
0
  6
Continuous
 62
     7
370
    25
100
AcDbLine
 10
2.39
 20
130.332316658
 30
0.0
 11
2.39
 21
130.832316658
 31
0.0
  0
LINE
  5
216
330
1F
100
AcDbEntity
  8
0
  6
Continuous
 62
     7
370
    25
100
AcDbLine
 10
2.19
 20
130.832316658
 30
0.0
 11
2.39
 21
130.832316658
 31
0.0
  0
LINE
  5
217
330
1F
100
AcDbEntity
  8
0
  6
Continuous
 62
     7
370
    25
100
AcDbLine
 10
-2.61
 20
130.19637049
 30
0.0
 11
-2.41
 21
130.19637049
 31
0.0
  0
LINE
  5
218
330
1F
100
AcDbEntity
  8
0
  6
Continuous
 62
     7
370
    25
100
AcDbLine
 10
-2.41
 20
129.732316658
 30
0.0
 11
-2.41
 21
130.19637049
 31
0.0
  0
LINE
  5
219
330
1F
100
AcDbEntity
  8
0
  6
Continuous
 62
     7
370
    25
100
AcDbLine
 10
-2.61
 20
130.19637049
 30
0.0
 11
-2.61
 21
129.732316658
 31
0.0
  0
LINE
  5
21A
330
1F
100
AcDbEntity
  8
0
  6
Continuous
 62
     7
370
    25
100
AcDbLine
 10
-2.41
 20
130.812316658
 30
0.0
 11
-2.61
 21
130.812316658
 31
0.0
  0
LINE
  5
21B
330
1F
100
AcDbEntity
  8
0
  6
Continuous
 62
     7
370
    25
100
AcDbLine
 10
-2.61
 20
130.332316658
 30
0.0
 11
-2.41
 21
130.332316658
 31
0.0
  0
LINE
  5
21C
330
1F
100
AcDbEntity
  8
0
  6
Continuous
 62
     7
370
    25
100
AcDbLine
 10
-2.41
 20
130.332316658
 30
0.0
 11
-2.41
 21
130.832316658
 31
0.0
  0
LINE
  5
21D
330
1F
100
AcDbEntity
  8
0
  6
Continuous
 62
     7
370
    25
100
AcDbLine
 10
-2.61
 20
130.832316658
 30
0.0
 11
-2.61
 21
130.332316658
 31
0.0
  0
LINE
  5
21E
330
1F
100
AcDbEntity
  8
0
  6
Continuous
 62
     7
370
    25
100
AcDbLine
 10
-2.61
 20
130.832316658
 30
0.0
 11
-2.41
 21
130.832316658
 31
0.0
  0
LINE
  5
21F
330
1F
100
AcDbEntity
  8
0
  6
Continuous
 62
     7
370
    25
100
AcDbLine
 10
-0.15
 20
130.19637049
 30
0.0
 11
-0.35
 21
130.19637049
 31
0.0
  0
LINE
  5
220
330
1F
100
AcDbEntity
  8
0
  6
Continuous
 62
     7
370
    25
100
AcDbLine
 10
-0.35
 20
130.19637049
 30
0.0
 11
-0.35
 21
129.732316658
 31
0.0
  0
LINE
  5
221
330
1F
100
AcDbEntity
  8
0
  6
Continuous
 62
     7
370
    25
100
AcDbLine
 10
-0.15
 20
129.732316658
 30
0.0
 11
-0.15
 21
130.19637049
 31
0.0
  0
LINE
  5
222
330
1F
100
AcDbEntity
  8
0
  6
Continuous
 62
     7
370
    25
100
AcDbLine
 10
-0.15
 20
130.812316658
 30
0.0
 11
-0.35
 21
130.812316658
 31
0.0
  0
LINE
  5
223
330
1F
100
AcDbEntity
  8
0
  6
Continuous
 62
     7
370
    25
100
AcDbLine
 10
-0.15
 20
130.332316658
 30
0.0
 11
-0.35
 21
130.332316658
 31
0.0
  0
LINE
  5
224
330
1F
100
AcDbEntity
  8
0
  6
Continuous
 62
     7
370
    25
100
AcDbLine
 10
-0.35
 20
130.832316658
 30
0.0
 11
-0.35
 21
130.332316658
 31
0.0
  0
LINE
  5
225
330
1F
100
AcDbEntity
  8
0
  6
Continuous
 62
     7
370
    25
100
AcDbLine
 10
-0.15
 20
130.332316658
 30
0.0
 11
-0.15
 21
130.832316658
 31
0.0
  0
LINE
  5
226
330
1F
100
AcDbEntity
  8
0
  6
Continuous
 62
     7
370
    25
100
AcDbLine
 10
-0.35
 20
130.832316658
 30
0.0
 11
-0.15
 21
130.832316658
 31
0.0
  0
LINE
  5
227
330
1F
100
AcDbEntity
  8
0
  6
Continuous
 62
     7
370
    25
100
AcDbLine
 10
5.27
 20
124.782316658
 30
0.0
 11
5.27
 21
123.482316658
 31
0.0
  0
LINE
  5
228
330
1F
100
AcDbEntity
  8
0
  6
Continuous
 62
     7
370
    25
100
AcDbLine
 10
4.27
 20
123.482316658
 30
0.0
 11
4.27
 21
124.782316658
 31
0.0
  0
LINE
  5
229
330
1F
100
AcDbEntity
  8
0
  6
Continuous
 62
     7
370
    25
100
AcDbLine
 10
-4.27
 20
124.782316658
 30
0.0
 11
-4.27
 21
123.482316658
 31
0.0
  0
LINE
  5
22A
330
1F
100
AcDbEntity
  8
0
  6
Continuous
 62
     7
370
    25
100
AcDbLine
 10
-5.27
 20
123.482316658
 30
0.0
 11
-5.27
 21
124.782316658
 31
0.0
  0
LINE
  5
22B
330
1F
100
AcDbEntity
  8
0
  6
Continuous
 62
     7
370
    25
100
AcDbLine
 10
4.27
 20
124.782316658
 30
0.0
 11
-4.27
 21
124.782316658
 31
0.0
  0
LINE
  5
22C
330
1F
100
AcDbEntity
  8
0
  6
Continuous
 62
     7
370
    25
100
AcDbLine
 10
-4.27
 20
123.482316658
 30
0.0
 11
4.27
 21
123.482316658
 31
0.0
  0
LINE
  5
22D
330
1F
100
AcDbEntity
  8
0
  6
Continuous
 62
     7
370
    25
100
AcDbLine
 10
4.795
 20
129.732316658
 30
0.0
 11
4.795
 21
128.632316658
 31
0.0
  0
LINE
  5
22E
330
1F
100
AcDbEntity
  8
0
  6
Continuous
 62
     7
370
    25
100
AcDbLine
 10
4.795
 20
124.832316658
 30
0.0
 11
4.795
 21
124.782316658
 31
0.0
  0
LINE
  5
22F
330
1F
100
AcDbEntity
  8
0
  6
Continuous
 62
     7
370
    25
100
AcDbLine
 10
-4.795
 20
124.782316658
 30
0.0
 11
-4.795
 21
124.832316658
 31
0.0
  0
LINE
  5
230
330
1F
100
AcDbEntity
  8
0
  6
Continuous
 62
     7
370
    25
100
AcDbLine
 10
-4.795
 20
128.632316658
 30
0.0
 11
-4.795
 21
129.732316658
 31
0.0
  0
LINE
  5
231
330
1F
100
AcDbEntity
  8
0
  6
Continuous
 62
     7
370
    25
100
AcDbLine
 10
-4.0
 20
129.732316658
 30
0.0
 11
-4.0
 21
128.682316658
 31
0.0
  0
LINE
  5
232
330
1F
100
AcDbEntity
  8
0
  6
Continuous
 62
     7
370
    25
100
AcDbLine
 10
4.0
 20
129.732316658
 30
0.0
 11
-4.0
 21
129.732316658
 31
0.0
  0
LINE
  5
233
330
1F
100
AcDbEntity
  8
0
  6
Continuous
 62
     7
370
    25
100
AcDbLine
 10
4.0
 20
129.732316658
 30
0.0
 11
4.0
 21
128.682316658
 31
0.0
  0
LINE
  5
234
330
1F
100
AcDbEntity
  8
0
  6
Continuous
 62
     7
370
    25
100
AcDbLine
 10
-4.0
 20
128.682316658
 30
0.0
 11
4.0
 21
128.682316658
 31
0.0
  0
LINE
  5
235
330
1F
100
AcDbEntity
  8
0
  6
Continuous
 62
     7
370
    25
100
AcDbLine
 10
0.6
 20
125.232316658
 30
0.0
 11
0.6
 21
124.782316658
 31
0.0
  0
LINE
  5
236
330
1F
100
AcDbEntity
  8
0
  6
Continuous
 62
     7
370
    25
100
AcDbLine
 10
-0.6
 20
124.782316658
 30
0.0
 11
-0.6
 21
125.232316658
 31
0.0
  0
LINE
  5
237
330
1F
100
AcDbEntity
  8
0
  6
Continuous
 62
     7
370
    25
100
AcDbLine
 10
-0.4
 20
125.432316658
 30
0.0
 11
0.4
 21
125.432316658
 31
0.0
  0
LINE
  5
238
330
1F
100
AcDbEntity
  8
0
  6
Continuous
 62
     7
370
    25
100
AcDbLine
 10
4.52
 20
123.482316658
 30
0.0
 11
4.52
 21
122.282316658
 31
0.0
  0
LINE
  5
239
330
1F
100
AcDbEntity
  8
0
  6
Continuous
 62
     7
370
    25
100
AcDbLine
 10
3.17
 20
122.282316658
 30
0.0
 11
3.17
 21
123.482316658
 31
0.0
  0
LINE
  5
23A
330
1F
100
AcDbEntity
  8
0
  6
Continuous
 62
     7
370
    25
100
AcDbLine
 10
-3.17
 20
123.482316658
 30
0.0
 11
-3.17
 21
122.282316658
 31
0.0
  0
LINE
  5
23B
330
1F
100
AcDbEntity
  8
0
  6
Continuous
 62
     7
370
    25
100
AcDbLine
 10
-4.52
 20
122.282316658
 30
0.0
 11
-4.52
 21
123.482316658
 31
0.0
  0
LINE
  5
23C
330
1F
100
AcDbEntity
  8
0
  6
Continuous
 62
     7
370
    25
100
AcDbLine
 10
-3.17
 20
122.282316658
 30
0.0
 11
3.17
 21
122.282316658
 31
0.0
  0
LINE
  5
23D
330
1F
100
AcDbEntity
  8
0
  6
Continuous
 62
     7
370
    25
100
AcDbLine
 10
5.045
 20
125.282316658
 30
0.0
 11
5.045
 21
125.832316658
 31
0.0
  0
LINE
  5
23E
330
1F
100
AcDbEntity
  8
0
  6
Continuous
 62
     7
370
    25
100
AcDbLine
 10
5.045
 20
125.282316658
 30
0.0
 11
5.0
 21
125.282316658
 31
0.0
  0
LINE
  5
23F
330
1F
100
AcDbEntity
  8
0
  6
Continuous
 62
     7
370
    25
100
AcDbLine
 10
5.0
 20
125.832316658
 30
0.0
 11
5.045
 21
125.832316658
 31
0.0
  0
LINE
  5
240
330
1F
100
AcDbEntity
  8
0
  6
Continuous
 62
     7
370
    25
100
AcDbLine
 10
5.045
 20
127.632316658
 30
0.0
 11
5.045
 21
128.182316658
 31
0.0
  0
LINE
  5
241
330
1F
100
AcDbEntity
  8
0
  6
Continuous
 62
     7
370
    25
100
AcDbLine
 10
5.045
 20
127.632316658
 30
0.0
 11
5.0
 21
127.632316658
 31
0.0
  0
LINE
  5
242
330
1F
100
AcDbEntity
  8
0
  6
Continuous
 62
     7
370
    25
100
AcDbLine
 10
5.0
 20
128.182316658
 30
0.0
 11
5.045
 21
128.182316658
 31
0.0
  0
LINE
  5
243
330
1F
100
AcDbEntity
  8
0
  6
Continuous
 62
     7
370
    25
100
AcDbLine
 10
-5.045
 20
128.182316658
 30
0.0
 11
-5.045
 21
127.632316658
 31
0.0
  0
LINE
  5
244
330
1F
100
AcDbEntity
  8
0
  6
Continuous
 62
     7
370
    25
100
AcDbLine
 10
-5.0
 20
128.182316658
 30
0.0
 11
-5.045
 21
128.182316658
 31
0.0
  0
LINE
  5
245
330
1F
100
AcDbEntity
  8
0
  6
Continuous
 62
     7
370
    25
100
AcDbLine
 10
-5.045
 20
127.632316658
 30
0.0
 11
-5.0
 21
127.632316658
 31
0.0
  0
LINE
  5
246
330
1F
100
AcDbEntity
  8
0
  6
Continuous
 62
     7
370
    25
100
AcDbLine
 10
-5.045
 20
125.832316658
 30
0.0
 11
-5.045
 21
125.282316658
 31
0.0
  0
LINE
  5
247
330
1F
100
AcDbEntity
  8
0
  6
Continuous
 62
     7
370
    25
100
AcDbLine
 10
-5.0
 20
125.832316658
 30
0.0
 11
-5.045
 21
125.832316658
 31
0.0
  0
LINE
  5
248
330
1F
100
AcDbEntity
  8
0
  6
Continuous
 62
     7
370
    25
100
AcDbLine
 10
-5.045
 20
125.282316658
 30
0.0
 11
-5.0
 21
125.282316658
 31
0.0
  0
LINE
  5
249
330
1F
100
AcDbEntity
  8
0
  6
Continuous
 62
     8
370
    25
100
AcDbLine
 10
3.795
 20
128.682316658
 30
0.0
 11
3.795
 21
128.632316658
 31
0.0
  0
LINE
  5
24A
330
1F
100
AcDbEntity
  8
0
  6
Continuous
 62
     8
370
    25
100
AcDbLine
 10
3.795
 20
124.832316658
 30
0.0
 11
3.795
 21
124.782316658
 31
0.0
  0
LINE
  5
24B
330
1F
100
AcDbEntity
  8
0
  6
Continuous
 62
     8
370
    25
100
AcDbLine
 10
-3.795
 20
128.682316658
 30
0.0
 11
-3.795
 21
128.632316658
 31
0.0
  0
LINE
  5
24C
330
1F
100
AcDbEntity
  8
0
  6
Continuous
 62
     8
370
    25
100
AcDbLine
 10
-3.795
 20
124.832316658
 30
0.0
 11
-3.795
 21
124.782316658
 31
0.0
  0
ARC
  5
24D
330
1F
100
AcDbEntity
  8
0
  6
Continuous
 62
     7
370
    25
100
AcDbCircle
 10
-9.435
 20
128.279172637
 30
0.0
 40
1.500000000000028
100
AcDbArc
 50
270.0
 51
90.0
  0
ARC
  5
24E
330
1F
100
AcDbEntity
  8
0
  6
Continuous
 62
     7
370
    25
100
AcDbCircle
 10
-5.935
 20
133.346060849
 30
0.0
 40
1.500000000000001
100
AcDbArc
 50
180.0
 51
0.0
  0
ARC
  5
24F
330
1F
100
AcDbEntity
  8
0
  6
Continuous
 62
     7
370
    25
100
AcDbCircle
 10
5.065
 20
133.346060849
 30
0.0
 40
1.500000000000001
100
AcDbArc
 50
180.0
 51
0.0
  0
ARC
  5
250
330
1F
100
AcDbEntity
  8
0
  6
Continuous
 62
     7
370
    25
100
AcDbCircle
 10
8.565
 20
128.846060849
 30
0.0
 40
1.500000000000043
100
AcDbArc
 50
90.0
 51
270.0
  0
ENDSEC
  0
SECTION
  2
OBJECTS
  0
DICTIONARY
  5
C
330
0
100
AcDbDictionary
281
     1
  3
ACAD_GROUP
350
D
  3
ACAD_LAYOUT
350
1A
  3
ACAD_MLINESTYLE
350
17
  3
ACAD_PLOTSETTINGS
350
19
  3
ACAD_PLOTSTYLENAME
350
E
  3
ACAD_SCALELIST
350
47
  0
DICTIONARY
  5
D
102
{ACAD_REACTORS
330
C
102
}
330
C
100
AcDbDictionary
281
     1
  0
DICTIONARY
  5
1A
102
{ACAD_REACTORS
330
C
102
}
330
C
100
AcDbDictionary
281
     1
  3
Layout1
350
1E
  3
Layout2
350
26
  3
Model
350
22
  0
DICTIONARY
  5
17
102
{ACAD_REACTORS
330
C
102
}
330
C
100
AcDbDictionary
281
     1
  3
Standard
350
18
  0
DICTIONARY
  5
19
102
{ACAD_REACTORS
330
C
102
}
330
C
100
AcDbDictionary
281
     1
  0
ACDBDICTIONARYWDFLT
  5
E
102
{ACAD_REACTORS
330
C
102
}
330
C
100
AcDbDictionary
281
     1
  3
Normal
350
F
100
AcDbDictionaryWithDefault
340
F
  0
DICTIONARY
  5
47
102
{ACAD_REACTORS
330
C
102
}
330
C
100
AcDbDictionary
281
     1
  3
A0
350
48
  3
A1
350
49
  3
A2
350
4A
  3
A3
350
4B
  3
A4
350
4C
  3
A5
350
4D
  3
A6
350
4E
  3
A7
350
4F
  3
A8
350
50
  3
A9
350
51
  3
B0
350
52
  3
B1
350
53
  3
B2
350
54
  3
B3
350
55
  3
B4
350
56
  3
B5
350
57
  3
B6
350
58
  3
B7
350
59
  3
B8
350
5A
  3
B9
350
5B
  3
C0
350
5C
  3
C1
350
5D
  3
C2
350
5E
  3
C3
350
5F
  3
C4
350
60
  3
C5
350
61
  3
C6
350
62
  3
C7
350
63
  3
C8
350
64
  3
C9
350
65
  3
D0
350
66
  3
D1
350
67
  3
D2
350
68
  0
LAYOUT
  5
1E
102
{ACAD_REACTORS
330
1A
102
}
330
1A
100
AcDbPlotSettings
  1

  2
none_device
  4

  6

 40
0.0
 41
0.0
 42
0.0
 43
0.0
 44
0.0
 45
0.0
 46
0.0
 47
0.0
 48
0.0
 49
0.0
140
0.0
141
0.0
142
1.0
143
1.0
 70
   688
 72
     1
 73
     0
 74
     5
  7

 75
    16
147
1.0
148
0.0
149
0.0
100
AcDbLayout
  1
Layout1
 70
     1
 71
     1
 10
0.0
 20
0.0
 11
420.0
 21
297.0
 12
0.0
 22
0.0
 32
0.0
 14
1.0000000000E+20
 24
1.0000000000E+20
 34
1.0000000000E+20
 15
-1.0000000000E+20
 25
-1.0000000000E+20
 35
-1.0000000000E+20
146
0.0
 13
0.0
 23
0.0
 33
0.0
 16
1.0
 26
0.0
 36
0.0
 17
0.0
 27
1.0
 37
0.0
 76
     0
330
1B
  0
LAYOUT
  5
26
102
{ACAD_REACTORS
330
1A
102
}
330
1A
100
AcDbPlotSettings
  1

  2
none_device
  4

  6

 40
0.0
 41
0.0
 42
0.0
 43
0.0
 44
0.0
 45
0.0
 46
0.0
 47
0.0
 48
0.0
 49
0.0
140
0.0
141
0.0
142
1.0
143
1.0
 70
   688
 72
     1
 73
     0
 74
     5
  7

 75
    16
147
1.0
148
0.0
149
0.0
100
AcDbLayout
  1
Layout2
 70
     1
 71
     2
 10
0.0
 20
0.0
 11
0.0
 21
0.0
 12
0.0
 22
0.0
 32
0.0
 14
0.0
 24
0.0
 34
0.0
 15
0.0
 25
0.0
 35
0.0
146
0.0
 13
0.0
 23
0.0
 33
0.0
 16
1.0
 26
0.0
 36
0.0
 17
0.0
 27
1.0
 37
0.0
 76
     0
330
23
  0
LAYOUT
  5
22
102
{ACAD_REACTORS
330
1A
102
}
330
1A
100
AcDbPlotSettings
  1

  2
none_device
  4
ANSI_A_(11.00_x_8.50_Inches)
  6

 40
6.35
 41
19.05
 42
6.35000508
 43
19.05000254
 44
279.4
 45
215.9
 46
140.03464246
 47
-1875.2206398455
 48
0.0
 49
0.0
140
0.0
141
0.0
142
0.605
143
1.0
 70
  1696
 72
     0
 73
     0
 74
     0
  7

 75
     0
147
0.0179189148
148
-1300.4909072572
149
0.0
100
AcDbLayout
  1
Model
 70
     1
 71
     0
 10
0.0
 20
0.0
 11
420.0
 21
297.0
 12
0.0
 22
0.0
 32
0.0
 14
-9.435
 24
122.282316658
 34
0.0
 15
8.565
 25
133.346060849
 35
0.0
146
0.0
 13
0.0
 23
0.0
 33
0.0
 16
1.0
 26
0.0
 36
0.0
 17
0.0
 27
1.0
 37
0.0
 76
     0
330
1F
331
29
  0
MLINESTYLE
  5
18
102
{ACAD_REACTORS
330
17
102
}
330
17
100
AcDbMlineStyle
  2
Standard
 70
     0
  3

 62
   256
 51
90.0
 52
90.0
 71
     2
 49
0.5
 62
   256
  6
BYLAYER
 49
-0.5
 62
   256
  6
BYLAYER
  0
ACDBPLACEHOLDER
  5
F
102
{ACAD_REACTORS
330
E
102
}
330
E
  0
SCALE
  5
48
102
{ACAD_REACTORS
330
47
102
}
330
47
100
AcDbScale
 70
     0
300
1:1
140
1.0
141
1.0
290
     1
  0
SCALE
  5
49
102
{ACAD_REACTORS
330
47
102
}
330
47
100
AcDbScale
 70
     0
300
1:2
140
1.0
141
2.0
290
     0
  0
SCALE
  5
4A
102
{ACAD_REACTORS
330
47
102
}
330
47
100
AcDbScale
 70
     0
300
1:4
140
1.0
141
4.0
290
     0
  0
SCALE
  5
4B
102
{ACAD_REACTORS
330
47
102
}
330
47
100
AcDbScale
 70
     0
300
1:5
140
1.0
141
5.0
290
     0
  0
SCALE
  5
4C
102
{ACAD_REACTORS
330
47
102
}
330
47
100
AcDbScale
 70
     0
300
1:8
140
1.0
141
8.0
290
     0
  0
SCALE
  5
4D
102
{ACAD_REACTORS
330
47
102
}
330
47
100
AcDbScale
 70
     0
300
1:10
140
1.0
141
10.0
290
     0
  0
SCALE
  5
4E
102
{ACAD_REACTORS
330
47
102
}
330
47
100
AcDbScale
 70
     0
300
1:16
140
1.0
141
16.0
290
     0
  0
SCALE
  5
4F
102
{ACAD_REACTORS
330
47
102
}
330
47
100
AcDbScale
 70
     0
300
1:20
140
1.0
141
20.0
290
     0
  0
SCALE
  5
50
102
{ACAD_REACTORS
330
47
102
}
330
47
100
AcDbScale
 70
     0
300
1:30
140
1.0
141
30.0
290
     0
  0
SCALE
  5
51
102
{ACAD_REACTORS
330
47
102
}
330
47
100
AcDbScale
 70
     0
300
1:40
140
1.0
141
40.0
290
     0
  0
SCALE
  5
52
102
{ACAD_REACTORS
330
47
102
}
330
47
100
AcDbScale
 70
     0
300
1:50
140
1.0
141
50.0
290
     0
  0
SCALE
  5
53
102
{ACAD_REACTORS
330
47
102
}
330
47
100
AcDbScale
 70
     0
300
1:100
140
1.0
141
100.0
290
     0
  0
SCALE
  5
54
102
{ACAD_REACTORS
330
47
102
}
330
47
100
AcDbScale
 70
     0
300
2:1
140
2.0
141
1.0
290
     0
  0
SCALE
  5
55
102
{ACAD_REACTORS
330
47
102
}
330
47
100
AcDbScale
 70
     0
300
4:1
140
4.0
141
1.0
290
     0
  0
SCALE
  5
56
102
{ACAD_REACTORS
330
47
102
}
330
47
100
AcDbScale
 70
     0
300
8:1
140
8.0
141
1.0
290
     0
  0
SCALE
  5
57
102
{ACAD_REACTORS
330
47
102
}
330
47
100
AcDbScale
 70
     0
300
10:1
140
10.0
141
1.0
290
     0
  0
SCALE
  5
58
102
{ACAD_REACTORS
330
47
102
}
330
47
100
AcDbScale
 70
     0
300
100:1
140
100.0
141
1.0
290
     0
  0
SCALE
  5
59
102
{ACAD_REACTORS
330
47
102
}
330
47
100
AcDbScale
 70
     0
300
1/128" = 1'-0"
140
0.0078125
141
12.0
290
     0
  0
SCALE
  5
5A
102
{ACAD_REACTORS
330
47
102
}
330
47
100
AcDbScale
 70
     0
300
1/64" = 1'-0"
140
0.015625
141
12.0
290
     0
  0
SCALE
  5
5B
102
{ACAD_REACTORS
330
47
102
}
330
47
100
AcDbScale
 70
     0
300
1/32" = 1'-0"
140
0.03125
141
12.0
290
     0
  0
SCALE
  5
5C
102
{ACAD_REACTORS
330
47
102
}
330
47
100
AcDbScale
 70
     0
300
1/16" = 1'-0"
140
0.0625
141
12.0
290
     0
  0
SCALE
  5
5D
102
{ACAD_REACTORS
330
47
102
}
330
47
100
AcDbScale
 70
     0
300
3/32" = 1'-0"
140
0.09375
141
12.0
290
     0
  0
SCALE
  5
5E
102
{ACAD_REACTORS
330
47
102
}
330
47
100
AcDbScale
 70
     0
300
1/8" = 1'-0"
140
0.125
141
12.0
290
     0
  0
SCALE
  5
5F
102
{ACAD_REACTORS
330
47
102
}
330
47
100
AcDbScale
 70
     0
300
3/16" = 1'-0"
140
0.1875
141
12.0
290
     0
  0
SCALE
  5
60
102
{ACAD_REACTORS
330
47
102
}
330
47
100
AcDbScale
 70
     0
300
1/4" = 1'-0"
140
0.25
141
12.0
290
     0
  0
SCALE
  5
61
102
{ACAD_REACTORS
330
47
102
}
330
47
100
AcDbScale
 70
     0
300
3/8" = 1'-0"
140
0.375
141
12.0
290
     0
  0
SCALE
  5
62
102
{ACAD_REACTORS
330
47
102
}
330
47
100
AcDbScale
 70
     0
300
1/2" = 1'-0"
140
0.5
141
12.0
290
     0
  0
SCALE
  5
63
102
{ACAD_REACTORS
330
47
102
}
330
47
100
AcDbScale
 70
     0
300
3/4" = 1'-0"
140
0.75
141
12.0
290
     0
  0
SCALE
  5
64
102
{ACAD_REACTORS
330
47
102
}
330
47
100
AcDbScale
 70
     0
300
1" = 1'-0"
140
1.0
141
12.0
290
     0
  0
SCALE
  5
65
102
{ACAD_REACTORS
330
47
102
}
330
47
100
AcDbScale
 70
     0
300
1-1/2" = 1'-0"
140
1.5
141
12.0
290
     0
  0
SCALE
  5
66
102
{ACAD_REACTORS
330
47
102
}
330
47
100
AcDbScale
 70
     0
300
3" = 1'-0"
140
3.0
141
12.0
290
     0
  0
SCALE
  5
67
102
{ACAD_REACTORS
330
47
102
}
330
47
100
AcDbScale
 70
     0
300
6" = 1'-0"
140
6.0
141
12.0
290
     0
  0
SCALE
  5
68
102
{ACAD_REACTORS
330
47
102
}
330
47
100
AcDbScale
 70
     0
300
1'-0" = 1'-0"
140
12.0
141
12.0
290
     0
  0
ENDSEC
  0
EOF
