%TF.GenerationSoftware,KiCad,Pcbnew,9.0.3*%
%TF.CreationDate,2026-04-01T11:45:24+05:30*%
%TF.ProjectId,NOVA_MUX_PCB_V1P0,4e4f5641-5f4d-4555-985f-5043425f5631,rev?*%
%TF.SameCoordinates,Original*%
%TF.FileFunction,Soldermask,Bot*%
%TF.FilePolarity,Negative*%
%FSLAX46Y46*%
G04 Gerber Fmt 4.6, Leading zero omitted, Abs format (unit mm)*
G04 Created by KiCad (PCBNEW 9.0.3) date 2026-04-01 11:45:24*
%MOMM*%
%LPD*%
G01*
G04 APERTURE LIST*
G04 Aperture macros list*
%AMRoundRect*
0 Rectangle with rounded corners*
0 $1 Rounding radius*
0 $2 $3 $4 $5 $6 $7 $8 $9 X,Y pos of 4 corners*
0 Add a 4 corners polygon primitive as box body*
4,1,4,$2,$3,$4,$5,$6,$7,$8,$9,$2,$3,0*
0 Add four circle primitives for the rounded corners*
1,1,$1+$1,$2,$3*
1,1,$1+$1,$4,$5*
1,1,$1+$1,$6,$7*
1,1,$1+$1,$8,$9*
0 Add four rect primitives between the rounded corners*
20,1,$1+$1,$2,$3,$4,$5,0*
20,1,$1+$1,$4,$5,$6,$7,0*
20,1,$1+$1,$6,$7,$8,$9,0*
20,1,$1+$1,$8,$9,$2,$3,0*%
G04 Aperture macros list end*
%ADD10RoundRect,0.250000X-0.550000X-0.550000X0.550000X-0.550000X0.550000X0.550000X-0.550000X0.550000X0*%
%ADD11C,1.600000*%
%ADD12RoundRect,0.250000X-0.725000X0.600000X-0.725000X-0.600000X0.725000X-0.600000X0.725000X0.600000X0*%
%ADD13O,1.950000X1.700000*%
%ADD14C,3.000000*%
%ADD15C,2.500000*%
%ADD16C,3.200000*%
%ADD17RoundRect,0.250000X0.550000X0.550000X-0.550000X0.550000X-0.550000X-0.550000X0.550000X-0.550000X0*%
%ADD18R,1.700000X1.700000*%
%ADD19C,1.700000*%
%ADD20RoundRect,0.250000X0.725000X-0.600000X0.725000X0.600000X-0.725000X0.600000X-0.725000X-0.600000X0*%
%ADD21RoundRect,0.250000X-0.600000X-0.725000X0.600000X-0.725000X0.600000X0.725000X-0.600000X0.725000X0*%
%ADD22O,1.700000X1.950000*%
G04 APERTURE END LIST*
D10*
%TO.C,U3*%
X91060000Y-58070000D03*
D11*
X91060000Y-60610000D03*
X98680000Y-60610000D03*
X98680000Y-58070000D03*
%TD*%
D12*
%TO.C,J5*%
X146400000Y-47310000D03*
D13*
X146400000Y-49810000D03*
X146400000Y-52310000D03*
X146400000Y-54810000D03*
%TD*%
D10*
%TO.C,U5*%
X123590000Y-57600000D03*
D11*
X123590000Y-60140000D03*
X131210000Y-60140000D03*
X131210000Y-57600000D03*
%TD*%
D14*
%TO.C,K1*%
X55965000Y-46065000D03*
D15*
X57915000Y-52115000D03*
D14*
X70115000Y-52115000D03*
X70165000Y-40065000D03*
D15*
X57915000Y-40115000D03*
%TD*%
D16*
%TO.C,H3*%
X47510000Y-121180000D03*
%TD*%
D14*
%TO.C,K2*%
X54310000Y-94470000D03*
D15*
X56260000Y-100520000D03*
D14*
X68460000Y-100520000D03*
X68510000Y-88470000D03*
D15*
X56260000Y-88520000D03*
%TD*%
D16*
%TO.C,H4*%
X163050000Y-121220000D03*
%TD*%
D14*
%TO.C,K6*%
X114620000Y-94420000D03*
D15*
X116570000Y-100470000D03*
D14*
X128770000Y-100470000D03*
X128820000Y-88420000D03*
D15*
X116570000Y-88470000D03*
%TD*%
D14*
%TO.C,K4*%
X85590000Y-94400000D03*
D15*
X87540000Y-100450000D03*
D14*
X99740000Y-100450000D03*
X99790000Y-88400000D03*
D15*
X87540000Y-88450000D03*
%TD*%
D16*
%TO.C,H1*%
X47520000Y-33220000D03*
%TD*%
D14*
%TO.C,K3*%
X85730000Y-46200000D03*
D15*
X87680000Y-52250000D03*
D14*
X99880000Y-52250000D03*
X99930000Y-40200000D03*
D15*
X87680000Y-40250000D03*
%TD*%
D10*
%TO.C,U1*%
X59825000Y-59455000D03*
D11*
X59825000Y-61995000D03*
X67445000Y-61995000D03*
X67445000Y-59455000D03*
%TD*%
D14*
%TO.C,K5*%
X115650000Y-46220000D03*
D15*
X117600000Y-52270000D03*
D14*
X129800000Y-52270000D03*
X129850000Y-40220000D03*
D15*
X117600000Y-40270000D03*
%TD*%
D17*
%TO.C,U2*%
X61000000Y-81040000D03*
D11*
X61000000Y-78500000D03*
X53380000Y-78500000D03*
X53380000Y-81040000D03*
%TD*%
D16*
%TO.C,H2*%
X163050000Y-33230000D03*
%TD*%
D18*
%TO.C,J3*%
X147330000Y-78100000D03*
D19*
X144790000Y-78100000D03*
X147330000Y-75560000D03*
X144790000Y-75560000D03*
X147330000Y-73020000D03*
X144790000Y-73020000D03*
X147330000Y-70480000D03*
X144790000Y-70480000D03*
X147330000Y-67940000D03*
X144790000Y-67940000D03*
%TD*%
D17*
%TO.C,U4*%
X92800000Y-82480000D03*
D11*
X92800000Y-79940000D03*
X85180000Y-79940000D03*
X85180000Y-82480000D03*
%TD*%
D20*
%TO.C,J1*%
X142680000Y-109680000D03*
D13*
X142680000Y-107180000D03*
X142680000Y-104680000D03*
X142680000Y-102180000D03*
X142680000Y-99680000D03*
X142680000Y-97180000D03*
X142680000Y-94680000D03*
X142680000Y-92180000D03*
%TD*%
D10*
%TO.C,U6*%
X119245000Y-80135000D03*
D11*
X119245000Y-82675000D03*
X126865000Y-82675000D03*
X126865000Y-80135000D03*
%TD*%
D18*
%TO.C,J2*%
X94140000Y-113650000D03*
D19*
X94140000Y-116190000D03*
X96680000Y-113650000D03*
X96680000Y-116190000D03*
X99220000Y-113650000D03*
X99220000Y-116190000D03*
X101760000Y-113650000D03*
X101760000Y-116190000D03*
X104300000Y-113650000D03*
X104300000Y-116190000D03*
X106840000Y-113650000D03*
X106840000Y-116190000D03*
X109380000Y-113650000D03*
X109380000Y-116190000D03*
X111920000Y-113650000D03*
X111920000Y-116190000D03*
X114460000Y-113650000D03*
X114460000Y-116190000D03*
X117000000Y-113650000D03*
X117000000Y-116190000D03*
%TD*%
D21*
%TO.C,J4*%
X55800000Y-114920000D03*
D22*
X58300000Y-114920000D03*
X60800000Y-114920000D03*
X63300000Y-114920000D03*
X65800000Y-114920000D03*
X68300000Y-114920000D03*
X70800000Y-114920000D03*
X73300000Y-114920000D03*
%TD*%
M02*
