%TF.GenerationSoftware,KiCad,Pcbnew,9.0.3*%
%TF.CreationDate,2026-04-01T11:45:23+05:30*%
%TF.ProjectId,NOVA_MUX_PCB_V1P0,4e4f5641-5f4d-4555-985f-5043425f5631,rev?*%
%TF.SameCoordinates,Original*%
%TF.FileFunction,Paste,Top*%
%TF.FilePolarity,Positive*%
%FSLAX46Y46*%
G04 Gerber Fmt 4.6, Leading zero omitted, Abs format (unit mm)*
G04 Created by KiCad (PCBNEW 9.0.3) date 2026-04-01 11:45:23*
%MOMM*%
%LPD*%
G01*
G04 APERTURE LIST*
G04 Aperture macros list*
%AMRoundRect*
0 Rectangle with rounded corners*
0 $1 Rounding radius*
0 $2 $3 $4 $5 $6 $7 $8 $9 X,Y pos of 4 corners*
0 Add a 4 corners polygon primitive as box body*
4,1,4,$2,$3,$4,$5,$6,$7,$8,$9,$2,$3,0*
0 Add four circle primitives for the rounded corners*
1,1,$1+$1,$2,$3*
1,1,$1+$1,$4,$5*
1,1,$1+$1,$6,$7*
1,1,$1+$1,$8,$9*
0 Add four rect primitives between the rounded corners*
20,1,$1+$1,$2,$3,$4,$5,0*
20,1,$1+$1,$4,$5,$6,$7,0*
20,1,$1+$1,$6,$7,$8,$9,0*
20,1,$1+$1,$8,$9,$2,$3,0*%
G04 Aperture macros list end*
%ADD10RoundRect,0.225000X-0.225000X-0.375000X0.225000X-0.375000X0.225000X0.375000X-0.225000X0.375000X0*%
%ADD11RoundRect,0.218750X0.256250X-0.218750X0.256250X0.218750X-0.256250X0.218750X-0.256250X-0.218750X0*%
%ADD12RoundRect,0.218750X-0.218750X-0.256250X0.218750X-0.256250X0.218750X0.256250X-0.218750X0.256250X0*%
%ADD13RoundRect,0.135000X0.135000X0.185000X-0.135000X0.185000X-0.135000X-0.185000X0.135000X-0.185000X0*%
%ADD14RoundRect,0.135000X-0.135000X-0.185000X0.135000X-0.185000X0.135000X0.185000X-0.135000X0.185000X0*%
%ADD15RoundRect,0.218750X-0.256250X0.218750X-0.256250X-0.218750X0.256250X-0.218750X0.256250X0.218750X0*%
%ADD16RoundRect,0.218750X0.218750X0.256250X-0.218750X0.256250X-0.218750X-0.256250X0.218750X-0.256250X0*%
%ADD17RoundRect,0.225000X-0.375000X0.225000X-0.375000X-0.225000X0.375000X-0.225000X0.375000X0.225000X0*%
%ADD18RoundRect,0.150000X0.587500X0.150000X-0.587500X0.150000X-0.587500X-0.150000X0.587500X-0.150000X0*%
%ADD19R,0.905600X1.000000*%
%ADD20R,1.000000X0.905600*%
%ADD21RoundRect,0.225000X0.225000X0.375000X-0.225000X0.375000X-0.225000X-0.375000X0.225000X-0.375000X0*%
%ADD22RoundRect,0.150000X0.150000X-0.587500X0.150000X0.587500X-0.150000X0.587500X-0.150000X-0.587500X0*%
G04 APERTURE END LIST*
D10*
%TO.C,D17*%
X109142500Y-52840000D03*
X112442500Y-52840000D03*
%TD*%
D11*
%TO.C,D8*%
X81910000Y-96555000D03*
X81910000Y-94980000D03*
%TD*%
D12*
%TO.C,D3*%
X81075000Y-56670000D03*
X82650000Y-56670000D03*
%TD*%
%TO.C,D15*%
X114620000Y-56940000D03*
X116195000Y-56940000D03*
%TD*%
D13*
%TO.C,R19*%
X132040000Y-64320000D03*
X131020000Y-64320000D03*
%TD*%
D14*
%TO.C,R16*%
X85080000Y-76810000D03*
X86100000Y-76810000D03*
%TD*%
D12*
%TO.C,D4*%
X102585000Y-83580000D03*
X104160000Y-83580000D03*
%TD*%
D15*
%TO.C,D5*%
X52855000Y-54655000D03*
X52855000Y-56230000D03*
%TD*%
D14*
%TO.C,R7*%
X84140000Y-59410000D03*
X85160000Y-59410000D03*
%TD*%
D16*
%TO.C,D6*%
X56347500Y-84510000D03*
X54772500Y-84510000D03*
%TD*%
D17*
%TO.C,D11*%
X82120000Y-48940000D03*
X82120000Y-52240000D03*
%TD*%
D18*
%TO.C,Q5*%
X120577500Y-63652500D03*
X120577500Y-61752500D03*
X118702500Y-62702500D03*
%TD*%
D14*
%TO.C,R2*%
X61970000Y-75120000D03*
X62990000Y-75120000D03*
%TD*%
%TO.C,R1*%
X56370000Y-59450000D03*
X57390000Y-59450000D03*
%TD*%
D19*
%TO.C,C4*%
X100107200Y-73260000D03*
X101712800Y-73260000D03*
%TD*%
D20*
%TO.C,C5*%
X109340000Y-60157200D03*
X109340000Y-61762800D03*
%TD*%
D14*
%TO.C,R20*%
X127130000Y-76140000D03*
X128150000Y-76140000D03*
%TD*%
%TO.C,R15*%
X81510000Y-65050000D03*
X82530000Y-65050000D03*
%TD*%
D13*
%TO.C,R14*%
X70180000Y-80940000D03*
X69160000Y-80940000D03*
%TD*%
%TO.C,R8*%
X106430000Y-88000000D03*
X105410000Y-88000000D03*
%TD*%
D14*
%TO.C,R24*%
X129030000Y-82680000D03*
X130050000Y-82680000D03*
%TD*%
D16*
%TO.C,D1*%
X75575000Y-56645000D03*
X74000000Y-56645000D03*
%TD*%
D14*
%TO.C,R22*%
X130050000Y-80270000D03*
X131070000Y-80270000D03*
%TD*%
D10*
%TO.C,D12*%
X94152500Y-75250000D03*
X97452500Y-75250000D03*
%TD*%
D12*
%TO.C,D7*%
X86850000Y-56490000D03*
X88425000Y-56490000D03*
%TD*%
D14*
%TO.C,R23*%
X135640000Y-60110000D03*
X136660000Y-60110000D03*
%TD*%
%TO.C,R17*%
X119680000Y-57700000D03*
X120700000Y-57700000D03*
%TD*%
D11*
%TO.C,D2*%
X50560000Y-94857500D03*
X50560000Y-93282500D03*
%TD*%
D21*
%TO.C,D10*%
X69490000Y-84270000D03*
X66190000Y-84270000D03*
%TD*%
D14*
%TO.C,R5*%
X60185000Y-65985000D03*
X61205000Y-65985000D03*
%TD*%
D10*
%TO.C,D18*%
X132600000Y-84040000D03*
X135900000Y-84040000D03*
%TD*%
D14*
%TO.C,R21*%
X110170000Y-57630000D03*
X111190000Y-57630000D03*
%TD*%
%TO.C,R18*%
X112790000Y-78740000D03*
X113810000Y-78740000D03*
%TD*%
%TO.C,R13*%
X70765000Y-62145000D03*
X71785000Y-62145000D03*
%TD*%
D18*
%TO.C,Q2*%
X66957500Y-80902500D03*
X66957500Y-79002500D03*
X65082500Y-79952500D03*
%TD*%
D14*
%TO.C,R6*%
X50610000Y-89770000D03*
X51630000Y-89770000D03*
%TD*%
D19*
%TO.C,C1*%
X57994400Y-35310000D03*
X59600000Y-35310000D03*
%TD*%
%TO.C,C6*%
X127190000Y-71350000D03*
X125584400Y-71350000D03*
%TD*%
D14*
%TO.C,R9*%
X57295000Y-55995000D03*
X58315000Y-55995000D03*
%TD*%
D13*
%TO.C,R4*%
X96530000Y-84870000D03*
X95510000Y-84870000D03*
%TD*%
D22*
%TO.C,Q3*%
X85920000Y-65125000D03*
X87820000Y-65125000D03*
X86870000Y-63250000D03*
%TD*%
D14*
%TO.C,R11*%
X101760000Y-56470000D03*
X102780000Y-56470000D03*
%TD*%
D15*
%TO.C,D13*%
X125920000Y-63660000D03*
X125920000Y-65235000D03*
%TD*%
D12*
%TO.C,D16*%
X134420000Y-77970000D03*
X135995000Y-77970000D03*
%TD*%
D19*
%TO.C,C3*%
X80485600Y-42480000D03*
X78880000Y-42480000D03*
%TD*%
D14*
%TO.C,R10*%
X51230000Y-84510000D03*
X52250000Y-84510000D03*
%TD*%
D20*
%TO.C,C2*%
X50270000Y-77925600D03*
X50270000Y-76320000D03*
%TD*%
D18*
%TO.C,Q6*%
X115070000Y-84930000D03*
X115070000Y-83030000D03*
X113195000Y-83980000D03*
%TD*%
D12*
%TO.C,D14*%
X122320000Y-76070000D03*
X123895000Y-76070000D03*
%TD*%
D13*
%TO.C,R3*%
X94780000Y-64390000D03*
X93760000Y-64390000D03*
%TD*%
D18*
%TO.C,Q1*%
X71360000Y-57855000D03*
X71360000Y-55955000D03*
X69485000Y-56905000D03*
%TD*%
%TO.C,Q4*%
X98990000Y-82830000D03*
X98990000Y-80930000D03*
X97115000Y-81880000D03*
%TD*%
D14*
%TO.C,R12*%
X81610000Y-92070000D03*
X82630000Y-92070000D03*
%TD*%
D17*
%TO.C,D9*%
X52815000Y-48697500D03*
X52815000Y-51997500D03*
%TD*%
M02*
