M48
; DRILL file {KiCad 9.0.3} date 2026-04-01T11:45:31+0530
; FORMAT={-:-/ absolute / metric / decimal}
; #@! TF.CreationDate,2026-04-01T11:45:31+05:30
; #@! TF.GenerationSoftware,Kicad,Pcbnew,9.0.3
; #@! TF.FileFunction,Plated,1,2,PTH
FMAT,2
METRIC
; #@! TA.AperFunction,Plated,PTH,ViaDrill
T1C0.300
; #@! TA.AperFunction,Plated,PTH,ViaDrill
T2C0.400
; #@! TA.AperFunction,Plated,PTH,ViaDrill
T3C0.500
; #@! TA.AperFunction,Plated,PTH,ComponentDrill
T4C0.800
; #@! TA.AperFunction,Plated,PTH,ComponentDrill
T5C0.950
; #@! TA.AperFunction,Plated,PTH,ComponentDrill
T6C1.000
; #@! TA.AperFunction,Plated,PTH,ComponentDrill
T7C1.300
%
G90
G05
T1
X47.87Y-100.52
X48.71Y-60.0
X55.06Y-60.0
X56.29Y-85.88
X63.01Y-76.47
X70.44Y-79.21
X74.13Y-90.34
X76.31Y-70.21
X80.55Y-96.55
X92.7Y-64.39
X94.78Y-66.07
X95.29Y-81.1
X97.453Y-76.757
X97.93Y-69.64
X98.26Y-84.84
X99.73Y-105.85
X101.05Y-77.95
X101.05Y-82.91
X103.2Y-68.44
X111.33Y-78.91
X112.86Y-57.98
X115.27Y-62.71
X158.57Y-81.67
T2
X82.95Y-108.2
X85.425Y-119.085
X87.331Y-121.31
X94.78Y-68.43
X102.845Y-109.395
X108.18Y-80.92
X108.585Y-111.195
X109.32Y-94.61
X114.84Y-70.04
X140.52Y-48.37
X141.64Y-68.91
X142.2Y-64.92
X149.6Y-114.42
X154.74Y-55.93
T3
X50.27Y-73.75
X50.56Y-96.54
X50.57Y-97.95
X63.37Y-35.32
X64.79Y-108.13
X66.14Y-108.13
X72.66Y-108.13
X73.91Y-108.13
X76.69Y-42.48
X80.84Y-116.54
X81.08Y-59.68
X81.08Y-61.42
X82.09Y-116.54
X101.713Y-75.857
X109.34Y-64.38
X118.37Y-76.07
X120.31Y-76.07
X122.57Y-71.35
X129.77Y-71.29
X129.78Y-74.56
X133.35Y-64.32
X138.25Y-54.06
X138.26Y-49.7
T4
X53.38Y-78.5
X53.38Y-81.04
X59.825Y-59.455
X59.825Y-61.995
X61.0Y-78.5
X61.0Y-81.04
X67.445Y-59.455
X67.445Y-61.995
X85.18Y-79.94
X85.18Y-82.48
X91.06Y-58.07
X91.06Y-60.61
X92.8Y-79.94
X92.8Y-82.48
X98.68Y-58.07
X98.68Y-60.61
X119.245Y-80.135
X119.245Y-82.675
X123.59Y-57.6
X123.59Y-60.14
X126.865Y-80.135
X126.865Y-82.675
X131.21Y-57.6
X131.21Y-60.14
T5
X55.8Y-114.92
X58.3Y-114.92
X60.8Y-114.92
X63.3Y-114.92
X65.8Y-114.92
X68.3Y-114.92
X70.8Y-114.92
X73.3Y-114.92
X142.68Y-92.18
X142.68Y-94.68
X142.68Y-97.18
X142.68Y-99.68
X142.68Y-102.18
X142.68Y-104.68
X142.68Y-107.18
X142.68Y-109.68
X146.4Y-47.31
X146.4Y-49.81
X146.4Y-52.31
X146.4Y-54.81
T6
X56.26Y-88.52
X56.26Y-100.52
X57.915Y-40.115
X57.915Y-52.115
X87.54Y-88.45
X87.54Y-100.45
X87.68Y-40.25
X87.68Y-52.25
X94.14Y-113.65
X94.14Y-116.19
X96.68Y-113.65
X96.68Y-116.19
X99.22Y-113.65
X99.22Y-116.19
X101.76Y-113.65
X101.76Y-116.19
X104.3Y-113.65
X104.3Y-116.19
X106.84Y-113.65
X106.84Y-116.19
X109.38Y-113.65
X109.38Y-116.19
X111.92Y-113.65
X111.92Y-116.19
X114.46Y-113.65
X114.46Y-116.19
X116.57Y-88.47
X116.57Y-100.47
X117.0Y-113.65
X117.0Y-116.19
X117.6Y-40.27
X117.6Y-52.27
X144.79Y-67.94
X144.79Y-70.48
X144.79Y-73.02
X144.79Y-75.56
X144.79Y-78.1
X147.33Y-67.94
X147.33Y-70.48
X147.33Y-73.02
X147.33Y-75.56
X147.33Y-78.1
T7
X54.31Y-94.47
X55.965Y-46.065
X68.46Y-100.52
X68.51Y-88.47
X70.115Y-52.115
X70.165Y-40.065
X85.59Y-94.4
X85.73Y-46.2
X99.74Y-100.45
X99.79Y-88.4
X99.88Y-52.25
X99.93Y-40.2
X114.62Y-94.42
X115.65Y-46.22
X128.77Y-100.47
X128.82Y-88.42
X129.8Y-52.27
X129.85Y-40.22
M30
