%TF.GenerationSoftware,KiCad,Pcbnew,9.0.3*%
%TF.CreationDate,2025-12-04T14:34:05+05:30*%
%TF.ProjectId,Halo_charging_connector,48616c6f-5f63-4686-9172-67696e675f63,rev?*%
%TF.SameCoordinates,Original*%
%TF.FileFunction,Copper,L2,Bot*%
%TF.FilePolarity,Positive*%
%FSLAX46Y46*%
G04 Gerber Fmt 4.6, Leading zero omitted, Abs format (unit mm)*
G04 Created by KiCad (PCBNEW 9.0.3) date 2025-12-04 14:34:05*
%MOMM*%
%LPD*%
G01*
G04 APERTURE LIST*
%TA.AperFunction,CastellatedPad*%
%ADD10O,2.500000X3.000000*%
%TD*%
%TA.AperFunction,ComponentPad*%
%ADD11O,1.000000X2.200000*%
%TD*%
%TA.AperFunction,ViaPad*%
%ADD12C,0.500000*%
%TD*%
%TA.AperFunction,Conductor*%
%ADD13C,0.200000*%
%TD*%
%TA.AperFunction,Conductor*%
%ADD14C,0.450000*%
%TD*%
G04 APERTURE END LIST*
D10*
%TO.P,U1,1*%
%TO.N,/VUSB*%
X229050000Y-60950000D03*
%TD*%
%TO.P,U2,1*%
%TO.N,/GND*%
X239850000Y-60950000D03*
%TD*%
D11*
%TO.P,J1,13,SHIELD*%
%TO.N,unconnected-(J1-SHIELD-Pad13)_1*%
X238824900Y-54535900D03*
%TO.P,J1,14,SHIELD*%
%TO.N,unconnected-(J1-SHIELD-Pad13)*%
X229025100Y-54535900D03*
%TD*%
D12*
%TO.N,/GND*%
X238450000Y-59900000D03*
X230150000Y-53600000D03*
X237300000Y-53750000D03*
X232750000Y-53650000D03*
X235950000Y-53700000D03*
X240050000Y-56000000D03*
X241450000Y-57000000D03*
X226050000Y-58950000D03*
X238500000Y-58200000D03*
X229700000Y-58250000D03*
X236383944Y-60491894D03*
X241950000Y-55900000D03*
X227850000Y-54450000D03*
X225883660Y-60650000D03*
X230850000Y-60650000D03*
X232550000Y-60250000D03*
X231150000Y-53750000D03*
X240550000Y-53850000D03*
X227150000Y-60550000D03*
X234500000Y-53800000D03*
X235237161Y-60502220D03*
%TO.N,/CC1*%
X227900000Y-57450000D03*
X239669405Y-57007649D03*
%TO.N,/DP*%
X227850000Y-55300000D03*
X240337380Y-58677476D03*
X240300000Y-56850000D03*
X233138338Y-59375000D03*
X235052529Y-59652529D03*
%TO.N,/CC2*%
X232244134Y-59375000D03*
X227950000Y-59400000D03*
%TO.N,/VUSB*%
X236350000Y-59100000D03*
X241177978Y-58754512D03*
X230850000Y-59468050D03*
%TD*%
D13*
%TO.N,/CC1*%
X229203612Y-57150000D02*
X229503612Y-56850000D01*
X227850000Y-57350000D02*
X227850000Y-57250000D01*
X227950000Y-57150000D02*
X229203612Y-57150000D01*
X227900000Y-57400000D02*
X227850000Y-57350000D01*
X227850000Y-57250000D02*
X227950000Y-57150000D01*
X227900000Y-57450000D02*
X227900000Y-57400000D01*
X229503612Y-56850000D02*
X239511756Y-56850000D01*
X239511756Y-56850000D02*
X239669405Y-57007649D01*
%TO.N,/DP*%
X235052529Y-59652529D02*
X235052991Y-59652529D01*
X234775000Y-59375000D02*
X235052529Y-59652529D01*
X240201000Y-58677476D02*
X240327476Y-58677476D01*
X229050000Y-56500000D02*
X227850000Y-55300000D01*
X236150000Y-60050000D02*
X237050000Y-59150000D01*
X240300000Y-56850000D02*
X239950000Y-56500000D01*
X233138338Y-59375000D02*
X234775000Y-59375000D01*
X240201000Y-58757521D02*
X240201000Y-58677476D01*
X237050000Y-59150000D02*
X239864856Y-59150000D01*
X235450462Y-60050000D02*
X236150000Y-60050000D01*
X235052991Y-59652529D02*
X235450462Y-60050000D01*
X239950000Y-56500000D02*
X229050000Y-56500000D01*
X239864856Y-59150000D02*
X240337380Y-58677476D01*
%TO.N,/CC2*%
X231550000Y-60050000D02*
X232175200Y-59424800D01*
X227950000Y-59400000D02*
X228151000Y-59199000D01*
X230550000Y-60050000D02*
X231550000Y-60050000D01*
X229699000Y-59199000D02*
X230550000Y-60050000D01*
X228151000Y-59199000D02*
X229699000Y-59199000D01*
D14*
%TO.N,/VUSB*%
X231568050Y-58750000D02*
X236000000Y-58750000D01*
X230850000Y-59468050D02*
X231568050Y-58750000D01*
D13*
X241076476Y-58176476D02*
X241177978Y-58277978D01*
X241177978Y-58754512D02*
X241123466Y-58700000D01*
X236350000Y-59100000D02*
X236350000Y-58750000D01*
X236350000Y-59100000D02*
X236375000Y-59075000D01*
X241177978Y-58277978D02*
X241177978Y-58754512D01*
D14*
X236000000Y-58750000D02*
X236350000Y-59100000D01*
D13*
X239773524Y-58176476D02*
X241076476Y-58176476D01*
X239200000Y-58750000D02*
X239773524Y-58176476D01*
X236350000Y-58750000D02*
X239200000Y-58750000D01*
%TD*%
%TA.AperFunction,Conductor*%
%TO.N,/GND*%
G36*
X238296025Y-53245728D02*
G01*
X238363022Y-53265554D01*
X238408666Y-53318454D01*
X238418463Y-53387633D01*
X238389305Y-53451128D01*
X238383445Y-53457409D01*
X238319623Y-53521231D01*
X238248438Y-53627766D01*
X238248433Y-53627775D01*
X238199399Y-53746155D01*
X238199397Y-53746161D01*
X238174400Y-53871828D01*
X238174400Y-53871831D01*
X238174400Y-55199969D01*
X238174400Y-55199971D01*
X238174399Y-55199971D01*
X238199397Y-55325638D01*
X238199399Y-55325644D01*
X238248433Y-55444024D01*
X238248438Y-55444033D01*
X238319623Y-55550568D01*
X238319626Y-55550572D01*
X238410227Y-55641173D01*
X238410231Y-55641176D01*
X238516766Y-55712361D01*
X238516772Y-55712364D01*
X238516773Y-55712365D01*
X238635156Y-55761401D01*
X238635160Y-55761401D01*
X238635161Y-55761402D01*
X238760828Y-55786400D01*
X238760831Y-55786400D01*
X238888971Y-55786400D01*
X238973515Y-55769582D01*
X239014644Y-55761401D01*
X239133027Y-55712365D01*
X239239569Y-55641176D01*
X239330176Y-55550569D01*
X239401365Y-55444027D01*
X239450401Y-55325644D01*
X239458582Y-55284515D01*
X239475400Y-55199971D01*
X239475400Y-53871828D01*
X239450402Y-53746161D01*
X239450401Y-53746160D01*
X239450401Y-53746156D01*
X239401365Y-53627773D01*
X239401364Y-53627772D01*
X239401361Y-53627766D01*
X239330176Y-53521231D01*
X239330173Y-53521227D01*
X239268588Y-53459642D01*
X239235103Y-53398319D01*
X239240087Y-53328627D01*
X239281959Y-53272694D01*
X239347423Y-53248277D01*
X239356526Y-53247961D01*
X240298281Y-53249943D01*
X240349326Y-53261057D01*
X240620313Y-53384233D01*
X240844061Y-53485937D01*
X240894445Y-53527871D01*
X243054300Y-56623664D01*
X243067673Y-56648408D01*
X243090315Y-56704794D01*
X243096006Y-56722840D01*
X243121135Y-56830597D01*
X243124012Y-56849287D01*
X243125963Y-56874767D01*
X243126615Y-56883288D01*
X243126967Y-56891281D01*
X243133151Y-57413758D01*
X243133160Y-57415226D01*
X243133160Y-60808875D01*
X243113475Y-60875914D01*
X243060671Y-60921669D01*
X243009160Y-60932875D01*
X241724000Y-60932875D01*
X241656961Y-60913190D01*
X241611206Y-60860386D01*
X241600000Y-60808875D01*
X241600000Y-60585305D01*
X241599998Y-60585289D01*
X241570057Y-60357862D01*
X241510681Y-60136269D01*
X241422897Y-59924340D01*
X241422893Y-59924331D01*
X241352003Y-59801547D01*
X240527577Y-60625973D01*
X240514641Y-60594742D01*
X240432563Y-60471903D01*
X240328097Y-60367437D01*
X240205258Y-60285359D01*
X240174025Y-60272422D01*
X241035661Y-59410787D01*
X241006328Y-59381454D01*
X240983637Y-59364043D01*
X240942434Y-59307616D01*
X240938279Y-59237870D01*
X240972491Y-59176949D01*
X241034208Y-59144196D01*
X241091214Y-59145891D01*
X241125251Y-59155012D01*
X241125253Y-59155012D01*
X241230703Y-59155012D01*
X241230705Y-59155012D01*
X241332565Y-59127719D01*
X241423891Y-59074992D01*
X241498458Y-59000425D01*
X241551185Y-58909099D01*
X241578478Y-58807239D01*
X241578478Y-58701785D01*
X241551185Y-58599925D01*
X241498458Y-58508599D01*
X241464797Y-58474938D01*
X241450093Y-58448010D01*
X241433501Y-58422192D01*
X241432609Y-58415991D01*
X241431312Y-58413615D01*
X241428478Y-58387257D01*
X241428478Y-58342248D01*
X241428479Y-58342239D01*
X241428479Y-58228152D01*
X241428478Y-58228148D01*
X241390342Y-58136082D01*
X241390341Y-58136080D01*
X241312807Y-58058546D01*
X241312806Y-58058546D01*
X241218373Y-57964112D01*
X241126305Y-57925976D01*
X241126304Y-57925976D01*
X239823351Y-57925976D01*
X239723696Y-57925976D01*
X239723694Y-57925976D01*
X239631626Y-57964112D01*
X239631625Y-57964113D01*
X239132558Y-58463181D01*
X239071235Y-58496666D01*
X239044877Y-58499500D01*
X236331899Y-58499500D01*
X236264860Y-58479815D01*
X236244218Y-58463181D01*
X236230564Y-58449527D01*
X236230563Y-58449526D01*
X236230562Y-58449525D01*
X236144938Y-58400090D01*
X236074832Y-58381305D01*
X236074831Y-58381304D01*
X236049436Y-58374500D01*
X236049435Y-58374500D01*
X231617486Y-58374500D01*
X231518614Y-58374500D01*
X231518613Y-58374500D01*
X231493218Y-58381304D01*
X231493218Y-58381305D01*
X231423112Y-58400090D01*
X231423111Y-58400090D01*
X231423109Y-58400091D01*
X231337485Y-58449527D01*
X230699282Y-59087729D01*
X230673602Y-59107434D01*
X230604093Y-59147566D01*
X230604084Y-59147572D01*
X230529521Y-59222135D01*
X230476794Y-59313460D01*
X230476793Y-59313461D01*
X230474435Y-59322264D01*
X230468099Y-59345912D01*
X230467067Y-59349763D01*
X230430702Y-59409423D01*
X230367855Y-59439952D01*
X230298479Y-59431657D01*
X230259611Y-59405350D01*
X229840897Y-58986636D01*
X229748829Y-58948500D01*
X229748828Y-58948500D01*
X228101172Y-58948500D01*
X228101170Y-58948500D01*
X228027691Y-58978936D01*
X228009103Y-58986636D01*
X228009102Y-58986636D01*
X228000835Y-58990061D01*
X227953382Y-58999500D01*
X227897273Y-58999500D01*
X227795413Y-59026793D01*
X227795410Y-59026794D01*
X227704085Y-59079521D01*
X227629521Y-59154085D01*
X227576794Y-59245410D01*
X227576793Y-59245413D01*
X227549500Y-59347273D01*
X227549500Y-59452727D01*
X227576793Y-59554587D01*
X227629520Y-59645913D01*
X227704087Y-59720480D01*
X227795413Y-59773207D01*
X227795418Y-59773208D01*
X227801387Y-59775681D01*
X227855791Y-59819521D01*
X227877857Y-59885815D01*
X227860579Y-59953515D01*
X227854261Y-59963119D01*
X227852187Y-59965973D01*
X227752104Y-60162393D01*
X227752103Y-60162396D01*
X227683985Y-60372047D01*
X227649500Y-60589778D01*
X227649500Y-60808875D01*
X227629815Y-60875914D01*
X227577011Y-60921669D01*
X227525500Y-60932875D01*
X225758160Y-60932875D01*
X225691121Y-60913190D01*
X225645366Y-60860386D01*
X225634160Y-60808875D01*
X225634160Y-58140467D01*
X225634169Y-58138973D01*
X225642889Y-57415226D01*
X225649746Y-56846072D01*
X225657203Y-56805191D01*
X225660082Y-56797275D01*
X225745926Y-56561200D01*
X225756126Y-56539788D01*
X225807472Y-56454212D01*
X225812189Y-56446943D01*
X226369476Y-55651056D01*
X226374200Y-55644749D01*
X226450000Y-55550000D01*
X227843417Y-53555971D01*
X227850759Y-53546481D01*
X227866655Y-53527871D01*
X227906367Y-53481377D01*
X227923447Y-53464883D01*
X228029309Y-53380683D01*
X228065217Y-53360805D01*
X228380667Y-53249470D01*
X228410041Y-53242974D01*
X228495648Y-53234734D01*
X228564264Y-53247905D01*
X228614867Y-53296083D01*
X228631391Y-53363970D01*
X228608589Y-53430014D01*
X228595209Y-53445845D01*
X228519823Y-53521231D01*
X228448638Y-53627766D01*
X228448633Y-53627775D01*
X228399599Y-53746155D01*
X228399597Y-53746161D01*
X228374600Y-53871828D01*
X228374600Y-54958845D01*
X228354915Y-55025884D01*
X228302111Y-55071639D01*
X228232953Y-55081583D01*
X228169397Y-55052558D01*
X228162919Y-55046526D01*
X228095914Y-54979521D01*
X228095913Y-54979520D01*
X228004587Y-54926793D01*
X227902727Y-54899500D01*
X227797273Y-54899500D01*
X227695413Y-54926793D01*
X227695410Y-54926794D01*
X227604085Y-54979521D01*
X227529521Y-55054085D01*
X227476794Y-55145410D01*
X227476793Y-55145413D01*
X227449500Y-55247273D01*
X227449500Y-55352727D01*
X227476793Y-55454587D01*
X227529520Y-55545913D01*
X227604087Y-55620480D01*
X227695413Y-55673207D01*
X227797273Y-55700500D01*
X227844877Y-55700500D01*
X227911916Y-55720185D01*
X227932558Y-55736819D01*
X228883558Y-56687819D01*
X228917043Y-56749142D01*
X228912059Y-56818834D01*
X228870187Y-56874767D01*
X228804723Y-56899184D01*
X228795877Y-56899500D01*
X227900170Y-56899500D01*
X227808102Y-56937636D01*
X227714285Y-57031453D01*
X227714281Y-57031457D01*
X227708103Y-57037636D01*
X227637636Y-57108103D01*
X227614289Y-57164464D01*
X227604851Y-57177020D01*
X227599604Y-57180930D01*
X227593422Y-57190184D01*
X227579520Y-57204086D01*
X227579517Y-57204091D01*
X227526794Y-57295410D01*
X227526793Y-57295413D01*
X227499500Y-57397273D01*
X227499500Y-57502727D01*
X227526793Y-57604587D01*
X227579520Y-57695913D01*
X227654087Y-57770480D01*
X227745413Y-57823207D01*
X227847273Y-57850500D01*
X227847275Y-57850500D01*
X227952725Y-57850500D01*
X227952727Y-57850500D01*
X228054587Y-57823207D01*
X228145913Y-57770480D01*
X228220480Y-57695913D01*
X228273207Y-57604587D01*
X228300500Y-57502727D01*
X228300500Y-57502725D01*
X228302603Y-57494877D01*
X228305381Y-57495621D01*
X228328025Y-57444425D01*
X228386346Y-57405950D01*
X228422703Y-57400500D01*
X229253438Y-57400500D01*
X229253440Y-57400500D01*
X229345509Y-57362364D01*
X229571054Y-57136819D01*
X229632377Y-57103334D01*
X229658735Y-57100500D01*
X239188963Y-57100500D01*
X239256002Y-57120185D01*
X239296349Y-57162498D01*
X239348925Y-57253562D01*
X239423492Y-57328129D01*
X239514818Y-57380856D01*
X239616678Y-57408149D01*
X239616680Y-57408149D01*
X239722130Y-57408149D01*
X239722132Y-57408149D01*
X239823992Y-57380856D01*
X239915318Y-57328129D01*
X239989885Y-57253562D01*
X239989885Y-57253561D01*
X239995632Y-57247815D01*
X239997295Y-57249478D01*
X240043979Y-57215377D01*
X240113724Y-57211209D01*
X240137680Y-57220633D01*
X240137903Y-57220096D01*
X240145406Y-57223203D01*
X240145413Y-57223207D01*
X240247273Y-57250500D01*
X240247275Y-57250500D01*
X240352725Y-57250500D01*
X240352727Y-57250500D01*
X240454587Y-57223207D01*
X240545913Y-57170480D01*
X240620480Y-57095913D01*
X240673207Y-57004587D01*
X240700500Y-56902727D01*
X240700500Y-56797273D01*
X240673207Y-56695413D01*
X240620480Y-56604087D01*
X240545913Y-56529520D01*
X240463230Y-56481783D01*
X240454589Y-56476794D01*
X240454588Y-56476793D01*
X240454587Y-56476793D01*
X240352727Y-56449500D01*
X240352726Y-56449500D01*
X240305123Y-56449500D01*
X240238084Y-56429815D01*
X240217442Y-56413181D01*
X240091897Y-56287636D01*
X239999829Y-56249500D01*
X239999828Y-56249500D01*
X237413695Y-56249500D01*
X237346656Y-56229815D01*
X237300901Y-56177011D01*
X237290957Y-56107853D01*
X237319982Y-56044297D01*
X237366242Y-56010939D01*
X237397284Y-55998081D01*
X237483027Y-55962565D01*
X237589569Y-55891376D01*
X237680176Y-55800769D01*
X237751365Y-55694227D01*
X237800401Y-55575844D01*
X237824521Y-55454589D01*
X237825400Y-55450171D01*
X237825400Y-55322028D01*
X237800402Y-55196361D01*
X237800401Y-55196360D01*
X237800401Y-55196356D01*
X237751365Y-55077973D01*
X237751364Y-55077972D01*
X237751361Y-55077966D01*
X237680176Y-54971431D01*
X237680173Y-54971427D01*
X237589572Y-54880826D01*
X237589568Y-54880823D01*
X237483033Y-54809638D01*
X237483024Y-54809633D01*
X237364644Y-54760599D01*
X237364638Y-54760597D01*
X237238971Y-54735600D01*
X237238969Y-54735600D01*
X237110831Y-54735600D01*
X237110829Y-54735600D01*
X236985161Y-54760597D01*
X236985155Y-54760599D01*
X236866775Y-54809633D01*
X236866766Y-54809638D01*
X236760231Y-54880823D01*
X236760227Y-54880826D01*
X236669626Y-54971427D01*
X236669623Y-54971431D01*
X236598438Y-55077966D01*
X236598433Y-55077975D01*
X236549399Y-55196355D01*
X236549397Y-55196361D01*
X236524400Y-55322028D01*
X236524400Y-55322031D01*
X236524400Y-55450169D01*
X236524400Y-55450171D01*
X236524399Y-55450171D01*
X236549397Y-55575838D01*
X236549399Y-55575844D01*
X236598433Y-55694224D01*
X236598438Y-55694233D01*
X236669623Y-55800768D01*
X236669626Y-55800772D01*
X236760227Y-55891373D01*
X236760231Y-55891376D01*
X236866766Y-55962561D01*
X236866775Y-55962566D01*
X236983558Y-56010939D01*
X237037961Y-56054780D01*
X237060026Y-56121074D01*
X237042747Y-56188773D01*
X236991610Y-56236384D01*
X236936105Y-56249500D01*
X230913895Y-56249500D01*
X230846856Y-56229815D01*
X230801101Y-56177011D01*
X230791157Y-56107853D01*
X230820182Y-56044297D01*
X230866442Y-56010939D01*
X230897484Y-55998081D01*
X230983227Y-55962565D01*
X231089769Y-55891376D01*
X231180376Y-55800769D01*
X231251565Y-55694227D01*
X231300601Y-55575844D01*
X231324721Y-55454589D01*
X231325600Y-55450171D01*
X231325600Y-55322028D01*
X231300602Y-55196361D01*
X231300601Y-55196360D01*
X231300601Y-55196356D01*
X231251565Y-55077973D01*
X231251564Y-55077972D01*
X231251561Y-55077966D01*
X231180376Y-54971431D01*
X231180373Y-54971427D01*
X231089772Y-54880826D01*
X231089768Y-54880823D01*
X230983233Y-54809638D01*
X230983224Y-54809633D01*
X230864844Y-54760599D01*
X230864838Y-54760597D01*
X230739171Y-54735600D01*
X230739169Y-54735600D01*
X230611031Y-54735600D01*
X230611029Y-54735600D01*
X230485361Y-54760597D01*
X230485355Y-54760599D01*
X230366975Y-54809633D01*
X230366966Y-54809638D01*
X230260431Y-54880823D01*
X230260427Y-54880826D01*
X230169826Y-54971427D01*
X230169823Y-54971431D01*
X230098638Y-55077966D01*
X230098633Y-55077975D01*
X230049599Y-55196355D01*
X230049597Y-55196361D01*
X230024600Y-55322028D01*
X230024600Y-55322031D01*
X230024600Y-55450169D01*
X230024600Y-55450171D01*
X230024599Y-55450171D01*
X230049597Y-55575838D01*
X230049599Y-55575844D01*
X230098633Y-55694224D01*
X230098638Y-55694233D01*
X230169823Y-55800768D01*
X230169826Y-55800772D01*
X230260427Y-55891373D01*
X230260431Y-55891376D01*
X230366966Y-55962561D01*
X230366975Y-55962566D01*
X230483758Y-56010939D01*
X230538161Y-56054780D01*
X230560226Y-56121074D01*
X230542947Y-56188773D01*
X230491810Y-56236384D01*
X230436305Y-56249500D01*
X229205123Y-56249500D01*
X229138084Y-56229815D01*
X229117442Y-56213181D01*
X228902342Y-55998081D01*
X228868857Y-55936758D01*
X228873841Y-55867066D01*
X228915713Y-55811133D01*
X228981177Y-55786716D01*
X228990023Y-55786400D01*
X229089171Y-55786400D01*
X229173715Y-55769582D01*
X229214844Y-55761401D01*
X229333227Y-55712365D01*
X229439769Y-55641176D01*
X229530376Y-55550569D01*
X229601565Y-55444027D01*
X229650601Y-55325644D01*
X229658782Y-55284515D01*
X229675600Y-55199971D01*
X229675600Y-53871828D01*
X229650602Y-53746161D01*
X229650601Y-53746160D01*
X229650601Y-53746156D01*
X229601565Y-53627773D01*
X229601564Y-53627772D01*
X229601561Y-53627766D01*
X229530376Y-53521231D01*
X229530373Y-53521227D01*
X229454702Y-53445556D01*
X229421217Y-53384233D01*
X229426201Y-53314541D01*
X229468073Y-53258608D01*
X229533537Y-53234191D01*
X229542383Y-53233875D01*
X232665625Y-53233875D01*
X238296025Y-53245728D01*
G37*
%TD.AperFunction*%
%TA.AperFunction,Conductor*%
G36*
X238403490Y-59404500D02*
G01*
X238417665Y-59403656D01*
X238436349Y-59414148D01*
X238456906Y-59420185D01*
X238466203Y-59430914D01*
X238478585Y-59437868D01*
X238488630Y-59456797D01*
X238502661Y-59472989D01*
X238504681Y-59487042D01*
X238511338Y-59499585D01*
X238509555Y-59520937D01*
X238512605Y-59542147D01*
X238506593Y-59556420D01*
X238505525Y-59569213D01*
X238488243Y-59599986D01*
X238391809Y-59725661D01*
X238277106Y-59924331D01*
X238277102Y-59924340D01*
X238189318Y-60136269D01*
X238129942Y-60357862D01*
X238100001Y-60585289D01*
X238100000Y-60585305D01*
X238100000Y-60801633D01*
X238080315Y-60868672D01*
X238027511Y-60914427D01*
X237976453Y-60925632D01*
X235992433Y-60932874D01*
X235991980Y-60932875D01*
X230574500Y-60932875D01*
X230507461Y-60913190D01*
X230461706Y-60860386D01*
X230450500Y-60808875D01*
X230450500Y-60589778D01*
X230427395Y-60443899D01*
X230429790Y-60425360D01*
X230427130Y-60406856D01*
X230434176Y-60391426D01*
X230436350Y-60374605D01*
X230448389Y-60360303D01*
X230456154Y-60343300D01*
X230470421Y-60334129D01*
X230481346Y-60321153D01*
X230499204Y-60315631D01*
X230514931Y-60305524D01*
X230546636Y-60300965D01*
X230548097Y-60300514D01*
X230549866Y-60300501D01*
X230599828Y-60300501D01*
X230599829Y-60300500D01*
X230614268Y-60300500D01*
X231599826Y-60300500D01*
X231599828Y-60300500D01*
X231691897Y-60262364D01*
X232142441Y-59811818D01*
X232203764Y-59778334D01*
X232230122Y-59775500D01*
X232296859Y-59775500D01*
X232296861Y-59775500D01*
X232398721Y-59748207D01*
X232490047Y-59695480D01*
X232564614Y-59620913D01*
X232583850Y-59587594D01*
X232634416Y-59539380D01*
X232703023Y-59526157D01*
X232767888Y-59552125D01*
X232798621Y-59587594D01*
X232817858Y-59620913D01*
X232892425Y-59695480D01*
X232983751Y-59748207D01*
X233085611Y-59775500D01*
X233085613Y-59775500D01*
X233191063Y-59775500D01*
X233191065Y-59775500D01*
X233292925Y-59748207D01*
X233384251Y-59695480D01*
X233417912Y-59661819D01*
X233479235Y-59628334D01*
X233505593Y-59625500D01*
X234535510Y-59625500D01*
X234602549Y-59645185D01*
X234648304Y-59697989D01*
X234655284Y-59717404D01*
X234679322Y-59807116D01*
X234732049Y-59898442D01*
X234806616Y-59973009D01*
X234897942Y-60025736D01*
X234999802Y-60053029D01*
X235047869Y-60053029D01*
X235077309Y-60061673D01*
X235107296Y-60068197D01*
X235112311Y-60071951D01*
X235114908Y-60072714D01*
X235135550Y-60089348D01*
X235231027Y-60184825D01*
X235231030Y-60184829D01*
X235238098Y-60191897D01*
X235308565Y-60262364D01*
X235400634Y-60300500D01*
X235400636Y-60300500D01*
X236199826Y-60300500D01*
X236199828Y-60300500D01*
X236291897Y-60262364D01*
X237117442Y-59436819D01*
X237178765Y-59403334D01*
X237205123Y-59400500D01*
X238389867Y-59400500D01*
X238403490Y-59404500D01*
G37*
%TD.AperFunction*%
%TD*%
M02*
