M48
; DRILL file {KiCad 9.0.3} date 2025-12-04T14:34:12+0530
; FORMAT={-:-/ absolute / metric / decimal}
; #@! TF.CreationDate,2025-12-04T14:34:12+05:30
; #@! TF.GenerationSoftware,Kicad,Pcbnew,9.0.3
; #@! TF.FileFunction,Plated,1,2,PTH
FMAT,2
METRIC
; #@! TA.AperFunction,Plated,PTH,ViaDrill
T1C0.300
; #@! TA.AperFunction,Plated,PTH,ComponentDrill
T2C0.500
; #@! TA.AperFunction,Plated,PTH,ComponentDrill
T3C1.500
%
G90
G05
T1
X225.884Y-60.65
X226.05Y-58.95
X227.15Y-60.55
X227.85Y-54.45
X227.85Y-55.3
X227.9Y-57.45
X227.95Y-59.4
X229.7Y-58.25
X230.15Y-53.6
X230.85Y-59.468
X230.85Y-60.65
X231.15Y-53.75
X232.244Y-59.375
X232.55Y-60.25
X232.75Y-53.65
X233.138Y-59.375
X234.5Y-53.8
X235.053Y-59.653
X235.237Y-60.502
X235.95Y-53.7
X236.35Y-59.1
X236.384Y-60.492
X237.3Y-53.75
X238.45Y-59.9
X238.5Y-58.2
X239.669Y-57.008
X240.05Y-56.0
X240.3Y-56.85
X240.337Y-58.677
X240.55Y-53.85
X241.178Y-58.755
X241.45Y-57.0
X241.95Y-55.9
T3
X229.05Y-60.95
X239.85Y-60.95
T2
G00X229.025Y-55.036
M15
G01X229.025Y-54.036
M16
G05
G00X238.825Y-55.036
M15
G01X238.825Y-54.036
M16
G05
M30
