%TF.GenerationSoftware,KiCad,Pcbnew,9.0.3*%
%TF.CreationDate,2025-12-04T14:34:05+05:30*%
%TF.ProjectId,Halo_charging_connector,48616c6f-5f63-4686-9172-67696e675f63,rev?*%
%TF.SameCoordinates,Original*%
%TF.FileFunction,Copper,L1,Top*%
%TF.FilePolarity,Positive*%
%FSLAX46Y46*%
G04 Gerber Fmt 4.6, Leading zero omitted, Abs format (unit mm)*
G04 Created by KiCad (PCBNEW 9.0.3) date 2025-12-04 14:34:05*
%MOMM*%
%LPD*%
G01*
G04 APERTURE LIST*
%TA.AperFunction,CastellatedPad*%
%ADD10O,2.500000X3.000000*%
%TD*%
%TA.AperFunction,SMDPad,CuDef*%
%ADD11R,0.600000X0.400000*%
%TD*%
%TA.AperFunction,SMDPad,CuDef*%
%ADD12R,0.400000X0.620000*%
%TD*%
%TA.AperFunction,SMDPad,CuDef*%
%ADD13R,0.400000X0.500000*%
%TD*%
%TA.AperFunction,SMDPad,CuDef*%
%ADD14R,0.400000X0.600000*%
%TD*%
%TA.AperFunction,SMDPad,CuDef*%
%ADD15R,0.620000X0.400000*%
%TD*%
%TA.AperFunction,SMDPad,CuDef*%
%ADD16R,0.500000X0.400000*%
%TD*%
%TA.AperFunction,ComponentPad*%
%ADD17O,1.000000X2.200000*%
%TD*%
%TA.AperFunction,SMDPad,CuDef*%
%ADD18R,0.550000X1.230100*%
%TD*%
%TA.AperFunction,SMDPad,CuDef*%
%ADD19R,0.300000X1.230100*%
%TD*%
%TA.AperFunction,ViaPad*%
%ADD20C,0.500000*%
%TD*%
%TA.AperFunction,Conductor*%
%ADD21C,0.200000*%
%TD*%
%TA.AperFunction,Conductor*%
%ADD22C,0.450000*%
%TD*%
G04 APERTURE END LIST*
D10*
%TO.P,U1,1*%
%TO.N,/VUSB*%
X229050000Y-60950000D03*
%TD*%
D11*
%TO.P,R29,1*%
%TO.N,/DP*%
X227250000Y-55500000D03*
%TO.P,R29,2*%
%TO.N,/GND*%
X227250000Y-56400000D03*
%TD*%
D12*
%TO.P,D5,1,A1*%
%TO.N,/GND*%
X231850000Y-60605000D03*
D13*
%TO.P,D5,2,A2*%
%TO.N,/CC2*%
X231850000Y-59850000D03*
%TD*%
D14*
%TO.P,R30,1*%
%TO.N,/CC1*%
X227200000Y-57400000D03*
%TO.P,R30,2*%
%TO.N,/GND*%
X226300000Y-57400000D03*
%TD*%
D10*
%TO.P,U2,1*%
%TO.N,/GND*%
X239850000Y-60950000D03*
%TD*%
D12*
%TO.P,D4,1,A1*%
%TO.N,/GND*%
X237500000Y-60554500D03*
D13*
%TO.P,D4,2,A2*%
%TO.N,/CC1*%
X237500000Y-59799500D03*
%TD*%
D12*
%TO.P,D3,1,A1*%
%TO.N,/GND*%
X234250000Y-60605000D03*
D13*
%TO.P,D3,2,A2*%
%TO.N,/DN*%
X234250000Y-59850000D03*
%TD*%
D14*
%TO.P,R57,1*%
%TO.N,/CC2*%
X227200000Y-59494920D03*
%TO.P,R57,2*%
%TO.N,/GND*%
X226300000Y-59494920D03*
%TD*%
D15*
%TO.P,D1,1,A1*%
%TO.N,/GND*%
X226395000Y-58450000D03*
D16*
%TO.P,D1,2,A2*%
%TO.N,/VUSB*%
X227150000Y-58450000D03*
%TD*%
D17*
%TO.P,J1,13,SHIELD*%
%TO.N,unconnected-(J1-SHIELD-Pad13)_1*%
X238824900Y-54535900D03*
%TO.P,J1,14,SHIELD*%
%TO.N,unconnected-(J1-SHIELD-Pad13)*%
X229025100Y-54535900D03*
D18*
%TO.P,J1,A4B9,VBUS_A*%
%TO.N,/VUSB*%
X236325000Y-58346050D03*
D19*
%TO.P,J1,A5,CC1*%
%TO.N,/CC1*%
X235174900Y-58346050D03*
%TO.P,J1,A6,DA_P*%
%TO.N,/DP*%
X234174900Y-58346050D03*
%TO.P,J1,A7,DA_N*%
%TO.N,/DN*%
X233675100Y-58346050D03*
%TO.P,J1,A8,SBU1*%
%TO.N,unconnected-(J1-SBU1-PadA8)*%
X232675100Y-58346050D03*
D18*
%TO.P,J1,A9B4,VBUS_B*%
%TO.N,/VUSB*%
X231525000Y-58346050D03*
%TO.P,J1,B1A12,GNDB*%
%TO.N,/GND*%
X230725100Y-58346050D03*
D19*
%TO.P,J1,B5,CC2*%
%TO.N,/CC2*%
X232175200Y-58346050D03*
%TO.P,J1,B6,DB_P*%
%TO.N,/DP*%
X233174900Y-58346050D03*
%TO.P,J1,B7,DB_N*%
%TO.N,unconnected-(J1-DB_N-PadB7)*%
X234675100Y-58346050D03*
%TO.P,J1,B8,SBU2*%
%TO.N,unconnected-(J1-SBU2-PadB8)*%
X235675100Y-58346050D03*
D18*
%TO.P,J1,B12A1,GNDA*%
%TO.N,/GND*%
X237124900Y-58346050D03*
%TD*%
D11*
%TO.P,R28,1*%
%TO.N,/VUSB*%
X241950000Y-59300000D03*
%TO.P,R28,2*%
%TO.N,/DP*%
X241950000Y-60200000D03*
%TD*%
D12*
%TO.P,D2,1,A1*%
%TO.N,/GND*%
X233200000Y-60555000D03*
D13*
%TO.P,D2,2,A2*%
%TO.N,/DP*%
X233200000Y-59800000D03*
%TD*%
D20*
%TO.N,/GND*%
X238450000Y-59900000D03*
X230150000Y-53600000D03*
X237300000Y-53750000D03*
X232750000Y-53650000D03*
X235950000Y-53700000D03*
X240050000Y-56000000D03*
X241450000Y-57000000D03*
X226050000Y-58950000D03*
X238500000Y-58200000D03*
X229700000Y-58250000D03*
X236383944Y-60491894D03*
X241950000Y-55900000D03*
X227850000Y-54450000D03*
X225883660Y-60650000D03*
X230850000Y-60650000D03*
X232550000Y-60250000D03*
X231150000Y-53750000D03*
X240550000Y-53850000D03*
X227150000Y-60550000D03*
X234500000Y-53800000D03*
X235237161Y-60502220D03*
%TO.N,/CC1*%
X227900000Y-57450000D03*
X239669405Y-57007649D03*
%TO.N,/DP*%
X227850000Y-55300000D03*
X240337380Y-58677476D03*
X240300000Y-56850000D03*
X233138338Y-59375000D03*
X235052529Y-59652529D03*
%TO.N,/CC2*%
X232244134Y-59375000D03*
X227950000Y-59400000D03*
%TO.N,/VUSB*%
X236350000Y-59100000D03*
X241177978Y-58754512D03*
X230850000Y-59468050D03*
%TD*%
D21*
%TO.N,/CC1*%
X239050000Y-59350000D02*
X239700000Y-58700000D01*
X236600000Y-59601000D02*
X236851000Y-59350000D01*
X227900000Y-57450000D02*
X227250000Y-57450000D01*
X235174900Y-58346050D02*
X235174900Y-58974900D01*
X237450000Y-59749500D02*
X237500000Y-59799500D01*
X239669405Y-57007649D02*
X239700000Y-57038244D01*
X237450000Y-59400000D02*
X237450000Y-59749500D01*
X227250000Y-57450000D02*
X227200000Y-57400000D01*
X239700000Y-57038244D02*
X239700000Y-58700000D01*
X237500000Y-59350000D02*
X237450000Y-59400000D01*
X235801000Y-59601000D02*
X236600000Y-59601000D01*
X237500000Y-59350000D02*
X237900000Y-59350000D01*
X237900000Y-59350000D02*
X239050000Y-59350000D01*
X235174900Y-58974900D02*
X235801000Y-59601000D01*
X236851000Y-59350000D02*
X237500000Y-59350000D01*
%TO.N,/DP*%
X240300000Y-58640096D02*
X240337380Y-58677476D01*
X234695103Y-59294641D02*
X234308441Y-59294641D01*
X241950000Y-60200000D02*
X241700000Y-60200000D01*
X233138338Y-59375000D02*
X233138338Y-59738338D01*
X234308441Y-59294641D02*
X234174900Y-59161100D01*
X233174900Y-59338438D02*
X233174900Y-58346050D01*
X227250000Y-55500000D02*
X227650000Y-55500000D01*
X234174900Y-59161100D02*
X234174900Y-58346050D01*
X240300000Y-56850000D02*
X240300000Y-58640096D01*
X241700000Y-60200000D02*
X240337380Y-58837380D01*
X233138338Y-59738338D02*
X233200000Y-59800000D01*
X235052529Y-59652067D02*
X234695103Y-59294641D01*
X227650000Y-55500000D02*
X227850000Y-55300000D01*
X233138338Y-59375000D02*
X233174900Y-59338438D01*
X235052529Y-59652529D02*
X235052529Y-59652067D01*
X240337380Y-58837380D02*
X240337380Y-58677476D01*
%TO.N,/DN*%
X233675100Y-59175100D02*
X234300000Y-59800000D01*
X234300000Y-59800000D02*
X234300000Y-59850000D01*
X233675100Y-58346050D02*
X233675100Y-59175100D01*
%TO.N,/CC2*%
X232244134Y-59375000D02*
X232244134Y-59505866D01*
X227300000Y-59400000D02*
X227205080Y-59494920D01*
X232200000Y-59350200D02*
X232200000Y-59249600D01*
X232244134Y-59505866D02*
X231900000Y-59850000D01*
X227950000Y-59400000D02*
X227750000Y-59400000D01*
X232175200Y-59224800D02*
X232175200Y-58346050D01*
X227950000Y-59400000D02*
X227300000Y-59400000D01*
X232200000Y-59249600D02*
X232175200Y-59224800D01*
X227205080Y-59494920D02*
X227200000Y-59494920D01*
%TO.N,/VUSB*%
X241404512Y-58754512D02*
X241950000Y-59300000D01*
D22*
X231525000Y-59000000D02*
X231525000Y-58346050D01*
D21*
X241177978Y-58754512D02*
X241404512Y-58754512D01*
D22*
X230850000Y-59468050D02*
X229900000Y-59468050D01*
X231056950Y-59468050D02*
X231525000Y-59000000D01*
X230850000Y-59468050D02*
X231056950Y-59468050D01*
X229781950Y-59468050D02*
X229736100Y-59513900D01*
D21*
X228763900Y-58450000D02*
X229781950Y-59468050D01*
X226988000Y-58450000D02*
X228763900Y-58450000D01*
D22*
X229736100Y-59513900D02*
X229736100Y-60950000D01*
X229900000Y-59468050D02*
X229781950Y-59468050D01*
%TD*%
%TA.AperFunction,Conductor*%
%TO.N,/GND*%
G36*
X238296025Y-53245728D02*
G01*
X238363022Y-53265554D01*
X238408666Y-53318454D01*
X238418463Y-53387633D01*
X238389305Y-53451128D01*
X238383445Y-53457409D01*
X238319623Y-53521231D01*
X238248438Y-53627766D01*
X238248433Y-53627775D01*
X238199399Y-53746155D01*
X238199397Y-53746161D01*
X238174400Y-53871828D01*
X238174400Y-53871831D01*
X238174400Y-55199969D01*
X238174400Y-55199971D01*
X238174399Y-55199971D01*
X238199397Y-55325638D01*
X238199399Y-55325644D01*
X238248433Y-55444024D01*
X238248438Y-55444033D01*
X238319623Y-55550568D01*
X238319626Y-55550572D01*
X238410227Y-55641173D01*
X238410231Y-55641176D01*
X238516766Y-55712361D01*
X238516772Y-55712364D01*
X238516773Y-55712365D01*
X238635156Y-55761401D01*
X238635160Y-55761401D01*
X238635161Y-55761402D01*
X238760828Y-55786400D01*
X238760831Y-55786400D01*
X238888971Y-55786400D01*
X238973515Y-55769582D01*
X239014644Y-55761401D01*
X239133027Y-55712365D01*
X239239569Y-55641176D01*
X239330176Y-55550569D01*
X239401365Y-55444027D01*
X239450401Y-55325644D01*
X239458582Y-55284515D01*
X239475400Y-55199971D01*
X239475400Y-53871828D01*
X239450402Y-53746161D01*
X239450401Y-53746160D01*
X239450401Y-53746156D01*
X239401365Y-53627773D01*
X239401364Y-53627772D01*
X239401361Y-53627766D01*
X239330176Y-53521231D01*
X239330173Y-53521227D01*
X239268588Y-53459642D01*
X239235103Y-53398319D01*
X239240087Y-53328627D01*
X239281959Y-53272694D01*
X239347423Y-53248277D01*
X239356526Y-53247961D01*
X240298281Y-53249943D01*
X240349326Y-53261057D01*
X240620313Y-53384233D01*
X240844061Y-53485937D01*
X240894445Y-53527871D01*
X243054300Y-56623664D01*
X243067673Y-56648408D01*
X243090315Y-56704794D01*
X243096006Y-56722840D01*
X243121135Y-56830597D01*
X243124012Y-56849287D01*
X243126442Y-56881028D01*
X243126615Y-56883288D01*
X243126967Y-56891281D01*
X243133151Y-57413758D01*
X243133160Y-57415226D01*
X243133160Y-60808875D01*
X243113475Y-60875914D01*
X243060671Y-60921669D01*
X243009160Y-60932875D01*
X241724000Y-60932875D01*
X241715314Y-60930324D01*
X241706353Y-60931613D01*
X241682312Y-60920634D01*
X241656961Y-60913190D01*
X241651033Y-60906349D01*
X241642797Y-60902588D01*
X241628507Y-60880353D01*
X241611206Y-60860386D01*
X241608918Y-60849871D01*
X241605023Y-60843810D01*
X241600000Y-60808875D01*
X241600000Y-60674500D01*
X241619685Y-60607461D01*
X241672489Y-60561706D01*
X241724000Y-60550500D01*
X242264822Y-60550500D01*
X242308717Y-60541768D01*
X242308717Y-60541767D01*
X242308722Y-60541767D01*
X242358504Y-60508504D01*
X242391767Y-60458722D01*
X242395988Y-60437503D01*
X242400500Y-60414822D01*
X242400500Y-59985177D01*
X242391768Y-59941282D01*
X242391767Y-59941281D01*
X242391767Y-59941278D01*
X242366474Y-59903424D01*
X242358505Y-59891497D01*
X242358504Y-59891496D01*
X242308722Y-59858233D01*
X242308720Y-59858232D01*
X242301043Y-59853103D01*
X242256237Y-59799491D01*
X242247530Y-59730166D01*
X242277684Y-59667138D01*
X242301043Y-59646897D01*
X242308719Y-59641767D01*
X242308722Y-59641767D01*
X242358504Y-59608504D01*
X242391767Y-59558722D01*
X242400500Y-59514820D01*
X242400500Y-59085180D01*
X242400500Y-59085177D01*
X242391768Y-59041282D01*
X242391767Y-59041281D01*
X242391767Y-59041278D01*
X242358504Y-58991496D01*
X242358503Y-58991495D01*
X242308724Y-58958234D01*
X242308717Y-58958231D01*
X242264822Y-58949500D01*
X242264820Y-58949500D01*
X242005122Y-58949500D01*
X241938083Y-58929815D01*
X241917441Y-58913181D01*
X241546411Y-58542149D01*
X241546409Y-58542148D01*
X241544547Y-58541377D01*
X241539881Y-58537786D01*
X241536257Y-58535365D01*
X241536418Y-58535122D01*
X241506471Y-58512079D01*
X241504205Y-58514346D01*
X241423892Y-58434033D01*
X241423891Y-58434032D01*
X241332565Y-58381305D01*
X241230705Y-58354012D01*
X241125251Y-58354012D01*
X241023391Y-58381305D01*
X241023388Y-58381306D01*
X240932065Y-58434032D01*
X240873397Y-58492700D01*
X240812073Y-58526184D01*
X240742382Y-58521199D01*
X240690835Y-58484852D01*
X240683797Y-58476487D01*
X240657860Y-58431563D01*
X240583293Y-58356996D01*
X240583220Y-58356953D01*
X240579619Y-58352674D01*
X240567626Y-58325372D01*
X240553334Y-58299197D01*
X240552428Y-58290774D01*
X240551519Y-58288704D01*
X240551928Y-58286123D01*
X240550500Y-58272840D01*
X240550500Y-57217255D01*
X240570185Y-57150216D01*
X240586819Y-57129574D01*
X240586873Y-57129520D01*
X240620480Y-57095913D01*
X240673207Y-57004587D01*
X240700500Y-56902727D01*
X240700500Y-56797273D01*
X240673207Y-56695413D01*
X240620480Y-56604087D01*
X240545913Y-56529520D01*
X240463230Y-56481783D01*
X240454589Y-56476794D01*
X240454588Y-56476793D01*
X240454587Y-56476793D01*
X240352727Y-56449500D01*
X240247273Y-56449500D01*
X240145413Y-56476793D01*
X240145410Y-56476794D01*
X240054085Y-56529521D01*
X239973773Y-56609834D01*
X239972113Y-56608174D01*
X239925387Y-56642285D01*
X239855641Y-56646430D01*
X239831723Y-56637017D01*
X239831502Y-56637553D01*
X239823994Y-56634443D01*
X239823992Y-56634442D01*
X239722132Y-56607149D01*
X239616678Y-56607149D01*
X239514818Y-56634442D01*
X239514815Y-56634443D01*
X239423490Y-56687170D01*
X239348926Y-56761734D01*
X239296199Y-56853059D01*
X239296198Y-56853062D01*
X239268905Y-56954922D01*
X239268905Y-57060376D01*
X239296198Y-57162236D01*
X239339594Y-57237401D01*
X239348926Y-57253563D01*
X239413181Y-57317818D01*
X239446666Y-57379141D01*
X239449500Y-57405499D01*
X239449500Y-58544877D01*
X239429815Y-58611916D01*
X239413181Y-58632558D01*
X238982558Y-59063181D01*
X238921235Y-59096666D01*
X238894877Y-59099500D01*
X238023900Y-59099500D01*
X237956861Y-59079815D01*
X237911106Y-59027011D01*
X237899900Y-58975500D01*
X237899900Y-58596050D01*
X237248900Y-58596050D01*
X237181861Y-58576365D01*
X237136106Y-58523561D01*
X237124900Y-58472050D01*
X237124900Y-58346050D01*
X236998900Y-58346050D01*
X236931861Y-58326365D01*
X236886106Y-58273561D01*
X236874900Y-58222050D01*
X236874900Y-58096050D01*
X237374900Y-58096050D01*
X237899900Y-58096050D01*
X237899900Y-57683172D01*
X237899899Y-57683155D01*
X237893498Y-57623627D01*
X237893496Y-57623620D01*
X237843254Y-57488913D01*
X237843250Y-57488906D01*
X237757090Y-57373812D01*
X237757087Y-57373809D01*
X237641993Y-57287649D01*
X237641986Y-57287645D01*
X237507279Y-57237403D01*
X237507272Y-57237401D01*
X237447744Y-57231000D01*
X237374900Y-57231000D01*
X237374900Y-58096050D01*
X236874900Y-58096050D01*
X236874900Y-57231000D01*
X236802055Y-57231000D01*
X236742527Y-57237401D01*
X236742520Y-57237403D01*
X236607813Y-57287645D01*
X236607806Y-57287649D01*
X236492712Y-57373809D01*
X236492709Y-57373812D01*
X236406549Y-57488907D01*
X236402474Y-57499833D01*
X236360603Y-57555767D01*
X236295139Y-57580184D01*
X236286292Y-57580500D01*
X236035178Y-57580500D01*
X235991281Y-57589231D01*
X235985004Y-57591832D01*
X235915535Y-57599301D01*
X235890096Y-57591832D01*
X235883818Y-57589231D01*
X235839922Y-57580500D01*
X235839920Y-57580500D01*
X235510280Y-57580500D01*
X235510278Y-57580500D01*
X235454400Y-57591615D01*
X235453824Y-57588719D01*
X235402979Y-57594184D01*
X235391350Y-57590769D01*
X235339722Y-57580500D01*
X235339720Y-57580500D01*
X235010080Y-57580500D01*
X235010078Y-57580500D01*
X234954200Y-57591615D01*
X234953612Y-57588659D01*
X234902975Y-57594100D01*
X234891806Y-57590820D01*
X234839922Y-57580500D01*
X234839920Y-57580500D01*
X234510280Y-57580500D01*
X234510278Y-57580500D01*
X234454400Y-57591615D01*
X234453824Y-57588719D01*
X234402979Y-57594184D01*
X234391350Y-57590769D01*
X234339722Y-57580500D01*
X234339720Y-57580500D01*
X234010080Y-57580500D01*
X234010078Y-57580500D01*
X233954200Y-57591615D01*
X233953612Y-57588659D01*
X233902975Y-57594100D01*
X233891806Y-57590820D01*
X233839922Y-57580500D01*
X233839920Y-57580500D01*
X233510280Y-57580500D01*
X233510278Y-57580500D01*
X233454400Y-57591615D01*
X233453824Y-57588719D01*
X233402979Y-57594184D01*
X233391350Y-57590769D01*
X233339722Y-57580500D01*
X233339720Y-57580500D01*
X233010080Y-57580500D01*
X233010078Y-57580500D01*
X232954200Y-57591615D01*
X232953612Y-57588659D01*
X232902975Y-57594100D01*
X232891806Y-57590820D01*
X232839922Y-57580500D01*
X232839920Y-57580500D01*
X232510280Y-57580500D01*
X232510278Y-57580500D01*
X232454400Y-57591615D01*
X232453815Y-57588674D01*
X232403132Y-57594122D01*
X232391847Y-57590808D01*
X232340022Y-57580500D01*
X232340020Y-57580500D01*
X232010380Y-57580500D01*
X232010378Y-57580500D01*
X231966479Y-57589232D01*
X231960053Y-57591894D01*
X231890584Y-57599363D01*
X231865147Y-57591894D01*
X231858720Y-57589232D01*
X231814822Y-57580500D01*
X231814820Y-57580500D01*
X231563708Y-57580500D01*
X231496669Y-57560815D01*
X231450914Y-57508011D01*
X231447526Y-57499833D01*
X231443450Y-57488907D01*
X231357290Y-57373812D01*
X231357287Y-57373809D01*
X231242193Y-57287649D01*
X231242186Y-57287645D01*
X231107479Y-57237403D01*
X231107472Y-57237401D01*
X231047944Y-57231000D01*
X230975100Y-57231000D01*
X230975100Y-58222050D01*
X230955415Y-58289089D01*
X230902611Y-58334844D01*
X230851100Y-58346050D01*
X230725100Y-58346050D01*
X230725100Y-58472050D01*
X230705415Y-58539089D01*
X230652611Y-58584844D01*
X230601100Y-58596050D01*
X229950100Y-58596050D01*
X229950100Y-58968550D01*
X229947549Y-58977235D01*
X229948838Y-58986197D01*
X229937859Y-59010237D01*
X229930415Y-59035589D01*
X229923574Y-59041516D01*
X229919813Y-59049753D01*
X229897578Y-59064042D01*
X229877611Y-59081344D01*
X229867096Y-59083631D01*
X229861035Y-59087527D01*
X229826100Y-59092550D01*
X229812073Y-59092550D01*
X229745034Y-59072865D01*
X229724392Y-59056231D01*
X228905797Y-58237636D01*
X228813729Y-58199500D01*
X228813728Y-58199500D01*
X227613540Y-58199500D01*
X227607258Y-58197655D01*
X227600820Y-58198846D01*
X227574146Y-58187932D01*
X227546501Y-58179815D01*
X227542214Y-58174867D01*
X227536153Y-58172388D01*
X227510438Y-58144390D01*
X227508504Y-58141496D01*
X227508503Y-58141495D01*
X227458724Y-58108234D01*
X227458717Y-58108231D01*
X227414822Y-58099500D01*
X227414820Y-58099500D01*
X227268608Y-58099500D01*
X227247362Y-58093261D01*
X227225276Y-58091682D01*
X227214492Y-58083609D01*
X227201569Y-58079815D01*
X227187070Y-58063082D01*
X227169342Y-58049812D01*
X227158726Y-58030372D01*
X227155814Y-58027011D01*
X227152427Y-58018836D01*
X227152054Y-58017836D01*
X227147068Y-57948144D01*
X227180552Y-57886820D01*
X227241875Y-57853334D01*
X227268235Y-57850500D01*
X227414822Y-57850500D01*
X227458717Y-57841768D01*
X227458717Y-57841767D01*
X227458722Y-57841767D01*
X227508504Y-57808504D01*
X227508506Y-57808500D01*
X227517140Y-57799868D01*
X227519953Y-57802681D01*
X227526990Y-57796796D01*
X227549959Y-57775225D01*
X227553584Y-57774554D01*
X227556413Y-57772189D01*
X227587673Y-57768251D01*
X227618664Y-57762521D01*
X227622077Y-57763917D01*
X227625735Y-57763457D01*
X227667942Y-57778479D01*
X227745413Y-57823207D01*
X227847273Y-57850500D01*
X227847275Y-57850500D01*
X227952725Y-57850500D01*
X227952727Y-57850500D01*
X228054587Y-57823207D01*
X228145913Y-57770480D01*
X228220480Y-57695913D01*
X228227846Y-57683155D01*
X229950100Y-57683155D01*
X229950100Y-58096050D01*
X230475100Y-58096050D01*
X230475100Y-57231000D01*
X230402255Y-57231000D01*
X230342727Y-57237401D01*
X230342720Y-57237403D01*
X230208013Y-57287645D01*
X230208006Y-57287649D01*
X230092912Y-57373809D01*
X230092909Y-57373812D01*
X230006749Y-57488906D01*
X230006745Y-57488913D01*
X229956503Y-57623620D01*
X229956501Y-57623627D01*
X229950100Y-57683155D01*
X228227846Y-57683155D01*
X228273207Y-57604587D01*
X228300500Y-57502727D01*
X228300500Y-57397273D01*
X228273207Y-57295413D01*
X228220480Y-57204087D01*
X228145913Y-57129520D01*
X228054587Y-57076793D01*
X228054585Y-57076792D01*
X228054584Y-57076792D01*
X228034204Y-57071331D01*
X227974545Y-57034965D01*
X227944017Y-56972118D01*
X227952313Y-56902742D01*
X227967035Y-56877244D01*
X227993352Y-56842090D01*
X227993354Y-56842086D01*
X228043596Y-56707379D01*
X228043598Y-56707372D01*
X228049999Y-56647844D01*
X228050000Y-56647827D01*
X228050000Y-56600000D01*
X226500000Y-56600000D01*
X226500000Y-57620000D01*
X226512055Y-57632055D01*
X226538039Y-57639685D01*
X226583794Y-57692489D01*
X226595000Y-57744000D01*
X226595000Y-59156000D01*
X226575315Y-59223039D01*
X226522511Y-59268794D01*
X226508062Y-59271937D01*
X226500000Y-59280000D01*
X226500000Y-60294920D01*
X226547828Y-60294920D01*
X226547844Y-60294919D01*
X226607372Y-60288518D01*
X226607379Y-60288516D01*
X226742086Y-60238274D01*
X226742093Y-60238270D01*
X226857187Y-60152110D01*
X226857190Y-60152107D01*
X226943350Y-60037013D01*
X226943354Y-60037006D01*
X226947427Y-60026087D01*
X226989298Y-59970153D01*
X227054762Y-59945736D01*
X227063609Y-59945420D01*
X227414822Y-59945420D01*
X227458717Y-59936688D01*
X227458717Y-59936687D01*
X227458722Y-59936687D01*
X227508504Y-59903424D01*
X227541767Y-59853642D01*
X227548489Y-59819852D01*
X227561336Y-59795290D01*
X227571129Y-59769346D01*
X227577308Y-59764757D01*
X227580874Y-59757941D01*
X227604963Y-59744223D01*
X227627226Y-59727693D01*
X227634903Y-59727174D01*
X227641589Y-59723367D01*
X227669275Y-59724850D01*
X227696936Y-59722981D01*
X227706935Y-59726868D01*
X227711359Y-59727106D01*
X227729957Y-59735443D01*
X227730985Y-59736009D01*
X227795413Y-59773207D01*
X227801381Y-59774806D01*
X227813787Y-59781643D01*
X227833736Y-59801748D01*
X227855791Y-59819521D01*
X227858022Y-59826225D01*
X227862999Y-59831241D01*
X227868911Y-59858940D01*
X227877857Y-59885815D01*
X227876109Y-59892660D01*
X227877585Y-59899571D01*
X227867582Y-59926071D01*
X227860579Y-59953515D01*
X227854261Y-59963119D01*
X227852187Y-59965973D01*
X227752104Y-60162393D01*
X227752103Y-60162396D01*
X227683985Y-60372047D01*
X227649500Y-60589778D01*
X227649500Y-60808875D01*
X227629815Y-60875914D01*
X227577011Y-60921669D01*
X227525500Y-60932875D01*
X225758160Y-60932875D01*
X225691121Y-60913190D01*
X225645366Y-60860386D01*
X225634160Y-60808875D01*
X225634160Y-60318495D01*
X225653845Y-60251456D01*
X225706649Y-60205701D01*
X225775807Y-60195757D01*
X225832472Y-60219229D01*
X225857910Y-60238272D01*
X225857913Y-60238274D01*
X225992620Y-60288516D01*
X225992627Y-60288518D01*
X226052155Y-60294919D01*
X226052172Y-60294920D01*
X226100000Y-60294920D01*
X226100000Y-58688920D01*
X226119685Y-58621881D01*
X226172489Y-58576126D01*
X226186937Y-58572982D01*
X226195000Y-58564920D01*
X226195000Y-58330000D01*
X226182944Y-58317944D01*
X226156961Y-58310315D01*
X226111206Y-58257511D01*
X226100000Y-58206000D01*
X226100000Y-56600000D01*
X226052155Y-56600000D01*
X225992627Y-56606401D01*
X225992614Y-56606404D01*
X225970926Y-56614493D01*
X225901234Y-56619475D01*
X225839912Y-56585988D01*
X225806430Y-56524663D01*
X225811417Y-56454972D01*
X225826015Y-56427198D01*
X226369465Y-55651071D01*
X226371805Y-55649185D01*
X226374210Y-55644737D01*
X226450000Y-55550000D01*
X226573858Y-55372755D01*
X226628393Y-55329078D01*
X226697885Y-55321819D01*
X226760269Y-55353282D01*
X226795740Y-55413479D01*
X226799500Y-55443782D01*
X226799500Y-55636391D01*
X226793946Y-55655302D01*
X226793335Y-55675003D01*
X226784305Y-55688138D01*
X226779815Y-55703430D01*
X226764921Y-55716335D01*
X226753754Y-55732580D01*
X226729144Y-55747336D01*
X226727011Y-55749185D01*
X226723939Y-55750457D01*
X226723485Y-55750730D01*
X226706032Y-55758054D01*
X226592809Y-55842813D01*
X226506649Y-55957906D01*
X226506645Y-55957913D01*
X226456403Y-56092620D01*
X226456401Y-56092627D01*
X226450000Y-56152155D01*
X226450000Y-56200000D01*
X228050000Y-56200000D01*
X228050000Y-56152172D01*
X228049999Y-56152155D01*
X228043598Y-56092627D01*
X228043596Y-56092620D01*
X227993354Y-55957913D01*
X227993353Y-55957911D01*
X227927503Y-55869947D01*
X227903086Y-55804483D01*
X227917937Y-55736210D01*
X227967342Y-55686804D01*
X227994669Y-55675864D01*
X228004587Y-55673207D01*
X228095913Y-55620480D01*
X228170480Y-55545913D01*
X228223207Y-55454587D01*
X228223210Y-55454572D01*
X228223756Y-55453258D01*
X228224526Y-55452301D01*
X228227271Y-55447548D01*
X228228011Y-55447975D01*
X228267591Y-55398849D01*
X228333883Y-55376777D01*
X228401584Y-55394048D01*
X228444818Y-55439250D01*
X228445250Y-55438962D01*
X228446889Y-55441415D01*
X228447681Y-55442243D01*
X228448635Y-55444028D01*
X228519823Y-55550568D01*
X228519826Y-55550572D01*
X228610427Y-55641173D01*
X228610431Y-55641176D01*
X228716966Y-55712361D01*
X228716972Y-55712364D01*
X228716973Y-55712365D01*
X228835356Y-55761401D01*
X228835360Y-55761401D01*
X228835361Y-55761402D01*
X228961028Y-55786400D01*
X228961031Y-55786400D01*
X229089171Y-55786400D01*
X229173715Y-55769582D01*
X229214844Y-55761401D01*
X229333227Y-55712365D01*
X229439769Y-55641176D01*
X229530376Y-55550569D01*
X229597460Y-55450171D01*
X230024599Y-55450171D01*
X230049597Y-55575838D01*
X230049599Y-55575844D01*
X230098633Y-55694224D01*
X230098638Y-55694233D01*
X230169823Y-55800768D01*
X230169826Y-55800772D01*
X230260427Y-55891373D01*
X230260431Y-55891376D01*
X230366966Y-55962561D01*
X230366972Y-55962564D01*
X230366973Y-55962565D01*
X230485356Y-56011601D01*
X230485360Y-56011601D01*
X230485361Y-56011602D01*
X230611028Y-56036600D01*
X230611031Y-56036600D01*
X230739171Y-56036600D01*
X230823715Y-56019782D01*
X230864844Y-56011601D01*
X230983227Y-55962565D01*
X231089769Y-55891376D01*
X231180376Y-55800769D01*
X231251565Y-55694227D01*
X231300601Y-55575844D01*
X231324720Y-55454594D01*
X231325600Y-55450171D01*
X236524399Y-55450171D01*
X236549397Y-55575838D01*
X236549399Y-55575844D01*
X236598433Y-55694224D01*
X236598438Y-55694233D01*
X236669623Y-55800768D01*
X236669626Y-55800772D01*
X236760227Y-55891373D01*
X236760231Y-55891376D01*
X236866766Y-55962561D01*
X236866772Y-55962564D01*
X236866773Y-55962565D01*
X236985156Y-56011601D01*
X236985160Y-56011601D01*
X236985161Y-56011602D01*
X237110828Y-56036600D01*
X237110831Y-56036600D01*
X237238971Y-56036600D01*
X237323515Y-56019782D01*
X237364644Y-56011601D01*
X237483027Y-55962565D01*
X237589569Y-55891376D01*
X237680176Y-55800769D01*
X237751365Y-55694227D01*
X237800401Y-55575844D01*
X237824520Y-55454594D01*
X237825400Y-55450171D01*
X237825400Y-55322028D01*
X237800402Y-55196361D01*
X237800401Y-55196360D01*
X237800401Y-55196356D01*
X237751365Y-55077973D01*
X237751364Y-55077972D01*
X237751361Y-55077966D01*
X237680176Y-54971431D01*
X237680173Y-54971427D01*
X237589572Y-54880826D01*
X237589568Y-54880823D01*
X237483033Y-54809638D01*
X237483024Y-54809633D01*
X237364644Y-54760599D01*
X237364638Y-54760597D01*
X237238971Y-54735600D01*
X237238969Y-54735600D01*
X237110831Y-54735600D01*
X237110829Y-54735600D01*
X236985161Y-54760597D01*
X236985155Y-54760599D01*
X236866775Y-54809633D01*
X236866766Y-54809638D01*
X236760231Y-54880823D01*
X236760227Y-54880826D01*
X236669626Y-54971427D01*
X236669623Y-54971431D01*
X236598438Y-55077966D01*
X236598433Y-55077975D01*
X236549399Y-55196355D01*
X236549397Y-55196361D01*
X236524400Y-55322028D01*
X236524400Y-55322031D01*
X236524400Y-55450169D01*
X236524400Y-55450171D01*
X236524399Y-55450171D01*
X231325600Y-55450171D01*
X231325600Y-55322028D01*
X231300602Y-55196361D01*
X231300601Y-55196360D01*
X231300601Y-55196356D01*
X231251565Y-55077973D01*
X231251564Y-55077972D01*
X231251561Y-55077966D01*
X231180376Y-54971431D01*
X231180373Y-54971427D01*
X231089772Y-54880826D01*
X231089768Y-54880823D01*
X230983233Y-54809638D01*
X230983224Y-54809633D01*
X230864844Y-54760599D01*
X230864838Y-54760597D01*
X230739171Y-54735600D01*
X230739169Y-54735600D01*
X230611031Y-54735600D01*
X230611029Y-54735600D01*
X230485361Y-54760597D01*
X230485355Y-54760599D01*
X230366975Y-54809633D01*
X230366966Y-54809638D01*
X230260431Y-54880823D01*
X230260427Y-54880826D01*
X230169826Y-54971427D01*
X230169823Y-54971431D01*
X230098638Y-55077966D01*
X230098633Y-55077975D01*
X230049599Y-55196355D01*
X230049597Y-55196361D01*
X230024600Y-55322028D01*
X230024600Y-55322031D01*
X230024600Y-55450169D01*
X230024600Y-55450171D01*
X230024599Y-55450171D01*
X229597460Y-55450171D01*
X229601565Y-55444027D01*
X229650601Y-55325644D01*
X229658650Y-55285180D01*
X229675600Y-55199971D01*
X229675600Y-53871828D01*
X229650602Y-53746161D01*
X229650601Y-53746160D01*
X229650601Y-53746156D01*
X229601565Y-53627773D01*
X229601564Y-53627772D01*
X229601561Y-53627766D01*
X229530376Y-53521231D01*
X229530373Y-53521227D01*
X229454702Y-53445556D01*
X229421217Y-53384233D01*
X229426201Y-53314541D01*
X229468073Y-53258608D01*
X229533537Y-53234191D01*
X229542383Y-53233875D01*
X232665625Y-53233875D01*
X238296025Y-53245728D01*
G37*
%TD.AperFunction*%
%TA.AperFunction,Conductor*%
G36*
X235612105Y-59767606D02*
G01*
X235623135Y-59777396D01*
X235659103Y-59813364D01*
X235751172Y-59851500D01*
X235751174Y-59851500D01*
X236649826Y-59851500D01*
X236649828Y-59851500D01*
X236698849Y-59831194D01*
X236768315Y-59823726D01*
X236830795Y-59855000D01*
X236866448Y-59915089D01*
X236863955Y-59984914D01*
X236858484Y-59997483D01*
X236806403Y-60137120D01*
X236806401Y-60137127D01*
X236800000Y-60196655D01*
X236800000Y-60354500D01*
X237376000Y-60354500D01*
X237384685Y-60357050D01*
X237393647Y-60355762D01*
X237417687Y-60366740D01*
X237443039Y-60374185D01*
X237448966Y-60381025D01*
X237457203Y-60384787D01*
X237471492Y-60407021D01*
X237488794Y-60426989D01*
X237491081Y-60437503D01*
X237494977Y-60443565D01*
X237500000Y-60478500D01*
X237500000Y-60630500D01*
X237480315Y-60697539D01*
X237427511Y-60743294D01*
X237376000Y-60754500D01*
X236800000Y-60754500D01*
X236800000Y-60806378D01*
X236780315Y-60873417D01*
X236727511Y-60919172D01*
X236676453Y-60930377D01*
X235992408Y-60932874D01*
X235991955Y-60932875D01*
X235074000Y-60932875D01*
X235006961Y-60913190D01*
X234961206Y-60860386D01*
X234950000Y-60808875D01*
X234950000Y-60805000D01*
X233521362Y-60805000D01*
X233454323Y-60785315D01*
X233433681Y-60768681D01*
X233420000Y-60755000D01*
X232680000Y-60755000D01*
X232666319Y-60768681D01*
X232642517Y-60781677D01*
X232620620Y-60797677D01*
X232609742Y-60799574D01*
X232604996Y-60802166D01*
X232597825Y-60801653D01*
X232578638Y-60805000D01*
X231150000Y-60805000D01*
X231150000Y-60808875D01*
X231130315Y-60875914D01*
X231077511Y-60921669D01*
X231026000Y-60932875D01*
X230574500Y-60932875D01*
X230507461Y-60913190D01*
X230461706Y-60860386D01*
X230450500Y-60808875D01*
X230450500Y-60589778D01*
X230429743Y-60458724D01*
X230416015Y-60372049D01*
X230375435Y-60247155D01*
X230347896Y-60162396D01*
X230347895Y-60162393D01*
X230277300Y-60023845D01*
X230264404Y-59955176D01*
X230290680Y-59890436D01*
X230347786Y-59850178D01*
X230387785Y-59843550D01*
X230687646Y-59843550D01*
X230719739Y-59847775D01*
X230797273Y-59868550D01*
X230797275Y-59868550D01*
X230902725Y-59868550D01*
X230902727Y-59868550D01*
X230980261Y-59847775D01*
X231012154Y-59843550D01*
X231106386Y-59843550D01*
X231106957Y-59843396D01*
X231115576Y-59843383D01*
X231141681Y-59851002D01*
X231168551Y-59855174D01*
X231174725Y-59860646D01*
X231182647Y-59862959D01*
X231200490Y-59883484D01*
X231220838Y-59901520D01*
X231223073Y-59909461D01*
X231228487Y-59915689D01*
X231232400Y-59942600D01*
X231239768Y-59968776D01*
X231237354Y-59976666D01*
X231238542Y-59984832D01*
X231227286Y-60009584D01*
X231219332Y-60035590D01*
X231215046Y-60041690D01*
X231206648Y-60052908D01*
X231206645Y-60052913D01*
X231156403Y-60187620D01*
X231156401Y-60187627D01*
X231150000Y-60247155D01*
X231150000Y-60405000D01*
X232370000Y-60405000D01*
X232383681Y-60391319D01*
X232407482Y-60378322D01*
X232429380Y-60362323D01*
X232437694Y-60361825D01*
X232445004Y-60357834D01*
X232471362Y-60355000D01*
X233928638Y-60355000D01*
X233995677Y-60374685D01*
X234016319Y-60391319D01*
X234030000Y-60405000D01*
X234950000Y-60405000D01*
X234950000Y-60247172D01*
X234949999Y-60247158D01*
X234943884Y-60190286D01*
X234956288Y-60121526D01*
X235003898Y-60070388D01*
X235067173Y-60053029D01*
X235105254Y-60053029D01*
X235105256Y-60053029D01*
X235207116Y-60025736D01*
X235298442Y-59973009D01*
X235373009Y-59898442D01*
X235425736Y-59807116D01*
X235425736Y-59807112D01*
X235428067Y-59803077D01*
X235478634Y-59754862D01*
X235547241Y-59741638D01*
X235612105Y-59767606D01*
G37*
%TD.AperFunction*%
%TA.AperFunction,Conductor*%
G36*
X238869729Y-59620185D02*
G01*
X238890371Y-59636819D01*
X239525974Y-60272422D01*
X239494742Y-60285359D01*
X239371903Y-60367437D01*
X239267437Y-60471903D01*
X239185359Y-60594742D01*
X239172422Y-60625974D01*
X238358629Y-59812181D01*
X238325144Y-59750858D01*
X238330128Y-59681166D01*
X238372000Y-59625233D01*
X238437464Y-59600816D01*
X238446310Y-59600500D01*
X238802690Y-59600500D01*
X238869729Y-59620185D01*
G37*
%TD.AperFunction*%
%TA.AperFunction,Conductor*%
G36*
X228564264Y-53247905D02*
G01*
X228614867Y-53296083D01*
X228631391Y-53363970D01*
X228608589Y-53430014D01*
X228595209Y-53445845D01*
X228519823Y-53521231D01*
X228448638Y-53627766D01*
X228448633Y-53627775D01*
X228399599Y-53746155D01*
X228399597Y-53746161D01*
X228374600Y-53871828D01*
X228374600Y-54958845D01*
X228354915Y-55025884D01*
X228302111Y-55071639D01*
X228232953Y-55081583D01*
X228169397Y-55052558D01*
X228162919Y-55046526D01*
X228095914Y-54979521D01*
X228095913Y-54979520D01*
X228004587Y-54926793D01*
X227902727Y-54899500D01*
X227797273Y-54899500D01*
X227695413Y-54926793D01*
X227695410Y-54926794D01*
X227604085Y-54979521D01*
X227529520Y-55054086D01*
X227510228Y-55087501D01*
X227459661Y-55135716D01*
X227402842Y-55149500D01*
X226967794Y-55149500D01*
X226900755Y-55129815D01*
X226855000Y-55077011D01*
X226845056Y-55007853D01*
X226866152Y-54954473D01*
X227179373Y-54506240D01*
X227843417Y-53555971D01*
X227850759Y-53546481D01*
X227866655Y-53527871D01*
X227906367Y-53481377D01*
X227923447Y-53464883D01*
X228029309Y-53380683D01*
X228065217Y-53360805D01*
X228380667Y-53249470D01*
X228410041Y-53242974D01*
X228495648Y-53234734D01*
X228564264Y-53247905D01*
G37*
%TD.AperFunction*%
%TD*%
M02*
