ISO-10303-21;
HEADER;
/* Generated by software containing ST-Developer
 * from STEP Tools, Inc. (www.steptools.com) 
 */

FILE_DESCRIPTION(
/* description */ (''),
/* implementation_level */ '2;1');

FILE_NAME(
/* name */ 'AHX20 Soldering Pad Stp v1.step',
/* time_stamp */ '2023-09-11T10:51:06+05:30',
/* author */ (''),
/* organization */ (''),
/* preprocessor_version */ 'ST-DEVELOPER v20',
/* originating_system */ 'Autodesk Translation Framework v12.9.0.99',
/* authorisation */ '');

FILE_SCHEMA (('AUTOMOTIVE_DESIGN { 1 0 10303 214 3 1 1 }'));
ENDSEC;

DATA;
#10=MECHANICAL_DESIGN_GEOMETRIC_PRESENTATION_REPRESENTATION('',(#15,#16,
#17,#18),#336);
#11=SHAPE_REPRESENTATION_RELATIONSHIP('SRR','None',#343,#12);
#12=ADVANCED_BREP_SHAPE_REPRESENTATION('',(#13,#14),#335);
#13=MANIFOLD_SOLID_BREP('Body1',#203);
#14=MANIFOLD_SOLID_BREP('Body2',#204);
#15=STYLED_ITEM('',(#354),#195);
#16=STYLED_ITEM('',(#353),#13);
#17=STYLED_ITEM('',(#355),#201);
#18=STYLED_ITEM('',(#352),#14);
#19=FACE_OUTER_BOUND('',#31,.T.);
#20=FACE_OUTER_BOUND('',#32,.T.);
#21=FACE_OUTER_BOUND('',#33,.T.);
#22=FACE_OUTER_BOUND('',#34,.T.);
#23=FACE_OUTER_BOUND('',#35,.T.);
#24=FACE_OUTER_BOUND('',#36,.T.);
#25=FACE_OUTER_BOUND('',#37,.T.);
#26=FACE_OUTER_BOUND('',#38,.T.);
#27=FACE_OUTER_BOUND('',#39,.T.);
#28=FACE_OUTER_BOUND('',#40,.T.);
#29=FACE_OUTER_BOUND('',#41,.T.);
#30=FACE_OUTER_BOUND('',#42,.T.);
#31=EDGE_LOOP('',(#131,#132,#133,#134));
#32=EDGE_LOOP('',(#135,#136,#137,#138));
#33=EDGE_LOOP('',(#139,#140,#141,#142));
#34=EDGE_LOOP('',(#143,#144,#145,#146));
#35=EDGE_LOOP('',(#147,#148,#149,#150));
#36=EDGE_LOOP('',(#151,#152,#153,#154));
#37=EDGE_LOOP('',(#155,#156,#157,#158));
#38=EDGE_LOOP('',(#159,#160,#161,#162));
#39=EDGE_LOOP('',(#163,#164,#165,#166));
#40=EDGE_LOOP('',(#167,#168,#169,#170));
#41=EDGE_LOOP('',(#171,#172,#173,#174));
#42=EDGE_LOOP('',(#175,#176,#177,#178));
#43=LINE('',#284,#67);
#44=LINE('',#286,#68);
#45=LINE('',#288,#69);
#46=LINE('',#289,#70);
#47=LINE('',#292,#71);
#48=LINE('',#294,#72);
#49=LINE('',#295,#73);
#50=LINE('',#298,#74);
#51=LINE('',#300,#75);
#52=LINE('',#301,#76);
#53=LINE('',#303,#77);
#54=LINE('',#304,#78);
#55=LINE('',#310,#79);
#56=LINE('',#312,#80);
#57=LINE('',#314,#81);
#58=LINE('',#315,#82);
#59=LINE('',#318,#83);
#60=LINE('',#320,#84);
#61=LINE('',#321,#85);
#62=LINE('',#324,#86);
#63=LINE('',#326,#87);
#64=LINE('',#327,#88);
#65=LINE('',#329,#89);
#66=LINE('',#330,#90);
#67=VECTOR('',#234,10.);
#68=VECTOR('',#235,10.);
#69=VECTOR('',#236,10.);
#70=VECTOR('',#237,10.);
#71=VECTOR('',#240,10.);
#72=VECTOR('',#241,10.);
#73=VECTOR('',#242,10.);
#74=VECTOR('',#245,10.);
#75=VECTOR('',#246,10.);
#76=VECTOR('',#247,10.);
#77=VECTOR('',#250,10.);
#78=VECTOR('',#251,10.);
#79=VECTOR('',#258,10.);
#80=VECTOR('',#259,10.);
#81=VECTOR('',#260,10.);
#82=VECTOR('',#261,10.);
#83=VECTOR('',#264,10.);
#84=VECTOR('',#265,10.);
#85=VECTOR('',#266,10.);
#86=VECTOR('',#269,10.);
#87=VECTOR('',#270,10.);
#88=VECTOR('',#271,10.);
#89=VECTOR('',#274,10.);
#90=VECTOR('',#275,10.);
#91=VERTEX_POINT('',#282);
#92=VERTEX_POINT('',#283);
#93=VERTEX_POINT('',#285);
#94=VERTEX_POINT('',#287);
#95=VERTEX_POINT('',#291);
#96=VERTEX_POINT('',#293);
#97=VERTEX_POINT('',#297);
#98=VERTEX_POINT('',#299);
#99=VERTEX_POINT('',#308);
#100=VERTEX_POINT('',#309);
#101=VERTEX_POINT('',#311);
#102=VERTEX_POINT('',#313);
#103=VERTEX_POINT('',#317);
#104=VERTEX_POINT('',#319);
#105=VERTEX_POINT('',#323);
#106=VERTEX_POINT('',#325);
#107=EDGE_CURVE('',#91,#92,#43,.T.);
#108=EDGE_CURVE('',#91,#93,#44,.T.);
#109=EDGE_CURVE('',#94,#93,#45,.T.);
#110=EDGE_CURVE('',#92,#94,#46,.T.);
#111=EDGE_CURVE('',#92,#95,#47,.T.);
#112=EDGE_CURVE('',#96,#94,#48,.T.);
#113=EDGE_CURVE('',#95,#96,#49,.T.);
#114=EDGE_CURVE('',#95,#97,#50,.T.);
#115=EDGE_CURVE('',#98,#96,#51,.T.);
#116=EDGE_CURVE('',#97,#98,#52,.T.);
#117=EDGE_CURVE('',#97,#91,#53,.T.);
#118=EDGE_CURVE('',#93,#98,#54,.T.);
#119=EDGE_CURVE('',#99,#100,#55,.T.);
#120=EDGE_CURVE('',#100,#101,#56,.T.);
#121=EDGE_CURVE('',#102,#101,#57,.T.);
#122=EDGE_CURVE('',#99,#102,#58,.T.);
#123=EDGE_CURVE('',#103,#99,#59,.T.);
#124=EDGE_CURVE('',#104,#102,#60,.T.);
#125=EDGE_CURVE('',#103,#104,#61,.T.);
#126=EDGE_CURVE('',#105,#103,#62,.T.);
#127=EDGE_CURVE('',#106,#104,#63,.T.);
#128=EDGE_CURVE('',#105,#106,#64,.T.);
#129=EDGE_CURVE('',#100,#105,#65,.T.);
#130=EDGE_CURVE('',#101,#106,#66,.T.);
#131=ORIENTED_EDGE('',*,*,#107,.F.);
#132=ORIENTED_EDGE('',*,*,#108,.T.);
#133=ORIENTED_EDGE('',*,*,#109,.F.);
#134=ORIENTED_EDGE('',*,*,#110,.F.);
#135=ORIENTED_EDGE('',*,*,#111,.F.);
#136=ORIENTED_EDGE('',*,*,#110,.T.);
#137=ORIENTED_EDGE('',*,*,#112,.F.);
#138=ORIENTED_EDGE('',*,*,#113,.F.);
#139=ORIENTED_EDGE('',*,*,#114,.F.);
#140=ORIENTED_EDGE('',*,*,#113,.T.);
#141=ORIENTED_EDGE('',*,*,#115,.F.);
#142=ORIENTED_EDGE('',*,*,#116,.F.);
#143=ORIENTED_EDGE('',*,*,#117,.F.);
#144=ORIENTED_EDGE('',*,*,#116,.T.);
#145=ORIENTED_EDGE('',*,*,#118,.F.);
#146=ORIENTED_EDGE('',*,*,#108,.F.);
#147=ORIENTED_EDGE('',*,*,#118,.T.);
#148=ORIENTED_EDGE('',*,*,#115,.T.);
#149=ORIENTED_EDGE('',*,*,#112,.T.);
#150=ORIENTED_EDGE('',*,*,#109,.T.);
#151=ORIENTED_EDGE('',*,*,#117,.T.);
#152=ORIENTED_EDGE('',*,*,#107,.T.);
#153=ORIENTED_EDGE('',*,*,#111,.T.);
#154=ORIENTED_EDGE('',*,*,#114,.T.);
#155=ORIENTED_EDGE('',*,*,#119,.T.);
#156=ORIENTED_EDGE('',*,*,#120,.T.);
#157=ORIENTED_EDGE('',*,*,#121,.F.);
#158=ORIENTED_EDGE('',*,*,#122,.F.);
#159=ORIENTED_EDGE('',*,*,#123,.T.);
#160=ORIENTED_EDGE('',*,*,#122,.T.);
#161=ORIENTED_EDGE('',*,*,#124,.F.);
#162=ORIENTED_EDGE('',*,*,#125,.F.);
#163=ORIENTED_EDGE('',*,*,#126,.T.);
#164=ORIENTED_EDGE('',*,*,#125,.T.);
#165=ORIENTED_EDGE('',*,*,#127,.F.);
#166=ORIENTED_EDGE('',*,*,#128,.F.);
#167=ORIENTED_EDGE('',*,*,#129,.T.);
#168=ORIENTED_EDGE('',*,*,#128,.T.);
#169=ORIENTED_EDGE('',*,*,#130,.F.);
#170=ORIENTED_EDGE('',*,*,#120,.F.);
#171=ORIENTED_EDGE('',*,*,#129,.F.);
#172=ORIENTED_EDGE('',*,*,#119,.F.);
#173=ORIENTED_EDGE('',*,*,#123,.F.);
#174=ORIENTED_EDGE('',*,*,#126,.F.);
#175=ORIENTED_EDGE('',*,*,#130,.T.);
#176=ORIENTED_EDGE('',*,*,#127,.T.);
#177=ORIENTED_EDGE('',*,*,#124,.T.);
#178=ORIENTED_EDGE('',*,*,#121,.T.);
#179=PLANE('',#218);
#180=PLANE('',#219);
#181=PLANE('',#220);
#182=PLANE('',#221);
#183=PLANE('',#222);
#184=PLANE('',#223);
#185=PLANE('',#224);
#186=PLANE('',#225);
#187=PLANE('',#226);
#188=PLANE('',#227);
#189=PLANE('',#228);
#190=PLANE('',#229);
#191=ADVANCED_FACE('',(#19),#179,.T.);
#192=ADVANCED_FACE('',(#20),#180,.T.);
#193=ADVANCED_FACE('',(#21),#181,.T.);
#194=ADVANCED_FACE('',(#22),#182,.T.);
#195=ADVANCED_FACE('',(#23),#183,.T.);
#196=ADVANCED_FACE('',(#24),#184,.F.);
#197=ADVANCED_FACE('',(#25),#185,.T.);
#198=ADVANCED_FACE('',(#26),#186,.T.);
#199=ADVANCED_FACE('',(#27),#187,.T.);
#200=ADVANCED_FACE('',(#28),#188,.T.);
#201=ADVANCED_FACE('',(#29),#189,.T.);
#202=ADVANCED_FACE('',(#30),#190,.T.);
#203=CLOSED_SHELL('',(#191,#192,#193,#194,#195,#196));
#204=CLOSED_SHELL('',(#197,#198,#199,#200,#201,#202));
#205=DERIVED_UNIT_ELEMENT(#207,1.);
#206=DERIVED_UNIT_ELEMENT(#338,-3.);
#207=(
MASS_UNIT()
NAMED_UNIT(*)
SI_UNIT(.KILO.,.GRAM.)
);
#208=DERIVED_UNIT((#205,#206));
#209=MEASURE_REPRESENTATION_ITEM('density measure',
POSITIVE_RATIO_MEASURE(7850.),#208);
#210=PROPERTY_DEFINITION_REPRESENTATION(#215,#212);
#211=PROPERTY_DEFINITION_REPRESENTATION(#216,#213);
#212=REPRESENTATION('material name',(#214),#335);
#213=REPRESENTATION('density',(#209),#335);
#214=DESCRIPTIVE_REPRESENTATION_ITEM('Steel','Steel');
#215=PROPERTY_DEFINITION('material property','material name',#345);
#216=PROPERTY_DEFINITION('material property','density of part',#345);
#217=AXIS2_PLACEMENT_3D('',#280,#230,#231);
#218=AXIS2_PLACEMENT_3D('',#281,#232,#233);
#219=AXIS2_PLACEMENT_3D('',#290,#238,#239);
#220=AXIS2_PLACEMENT_3D('',#296,#243,#244);
#221=AXIS2_PLACEMENT_3D('',#302,#248,#249);
#222=AXIS2_PLACEMENT_3D('',#305,#252,#253);
#223=AXIS2_PLACEMENT_3D('',#306,#254,#255);
#224=AXIS2_PLACEMENT_3D('',#307,#256,#257);
#225=AXIS2_PLACEMENT_3D('',#316,#262,#263);
#226=AXIS2_PLACEMENT_3D('',#322,#267,#268);
#227=AXIS2_PLACEMENT_3D('',#328,#272,#273);
#228=AXIS2_PLACEMENT_3D('',#331,#276,#277);
#229=AXIS2_PLACEMENT_3D('',#332,#278,#279);
#230=DIRECTION('axis',(0.,0.,1.));
#231=DIRECTION('refdir',(1.,0.,0.));
#232=DIRECTION('center_axis',(0.,-1.,0.));
#233=DIRECTION('ref_axis',(0.,0.,-1.));
#234=DIRECTION('',(0.,0.,1.));
#235=DIRECTION('',(1.,0.,0.));
#236=DIRECTION('',(0.,0.,-1.));
#237=DIRECTION('',(1.,0.,0.));
#238=DIRECTION('center_axis',(0.,0.,1.));
#239=DIRECTION('ref_axis',(0.,-1.,0.));
#240=DIRECTION('',(0.,1.,0.));
#241=DIRECTION('',(0.,-1.,0.));
#242=DIRECTION('',(1.,0.,0.));
#243=DIRECTION('center_axis',(0.,1.,0.));
#244=DIRECTION('ref_axis',(0.,0.,1.));
#245=DIRECTION('',(0.,0.,-1.));
#246=DIRECTION('',(0.,0.,1.));
#247=DIRECTION('',(1.,0.,0.));
#248=DIRECTION('center_axis',(0.,0.,-1.));
#249=DIRECTION('ref_axis',(0.,1.,0.));
#250=DIRECTION('',(0.,-1.,0.));
#251=DIRECTION('',(0.,1.,0.));
#252=DIRECTION('center_axis',(1.,0.,0.));
#253=DIRECTION('ref_axis',(0.,0.,-1.));
#254=DIRECTION('center_axis',(1.,0.,0.));
#255=DIRECTION('ref_axis',(0.,1.,0.));
#256=DIRECTION('center_axis',(0.,1.,0.));
#257=DIRECTION('ref_axis',(0.,0.,-1.));
#258=DIRECTION('',(0.,0.,-1.));
#259=DIRECTION('',(-1.,0.,0.));
#260=DIRECTION('',(0.,0.,-1.));
#261=DIRECTION('',(-1.,0.,0.));
#262=DIRECTION('center_axis',(0.,0.,1.));
#263=DIRECTION('ref_axis',(0.,1.,0.));
#264=DIRECTION('',(0.,1.,0.));
#265=DIRECTION('',(0.,1.,0.));
#266=DIRECTION('',(-1.,0.,0.));
#267=DIRECTION('center_axis',(0.,-1.,0.));
#268=DIRECTION('ref_axis',(0.,0.,1.));
#269=DIRECTION('',(0.,0.,1.));
#270=DIRECTION('',(0.,0.,1.));
#271=DIRECTION('',(-1.,0.,0.));
#272=DIRECTION('center_axis',(0.,0.,-1.));
#273=DIRECTION('ref_axis',(0.,-1.,0.));
#274=DIRECTION('',(0.,-1.,0.));
#275=DIRECTION('',(0.,-1.,0.));
#276=DIRECTION('center_axis',(1.,0.,0.));
#277=DIRECTION('ref_axis',(0.,1.,0.));
#278=DIRECTION('center_axis',(-1.,0.,0.));
#279=DIRECTION('ref_axis',(0.,0.,1.));
#280=CARTESIAN_POINT('',(0.,0.,0.));
#281=CARTESIAN_POINT('Origin',(0.,0.,0.));
#282=CARTESIAN_POINT('',(0.,0.,-2.));
#283=CARTESIAN_POINT('',(0.,0.,0.));
#284=CARTESIAN_POINT('',(0.,0.,-2.));
#285=CARTESIAN_POINT('',(0.12,0.,-2.));
#286=CARTESIAN_POINT('',(0.,0.,-2.));
#287=CARTESIAN_POINT('',(0.12,0.,0.));
#288=CARTESIAN_POINT('',(0.12,0.,-2.));
#289=CARTESIAN_POINT('',(0.,0.,0.));
#290=CARTESIAN_POINT('Origin',(0.,2.,0.));
#291=CARTESIAN_POINT('',(0.,2.,0.));
#292=CARTESIAN_POINT('',(0.,0.,0.));
#293=CARTESIAN_POINT('',(0.12,2.,0.));
#294=CARTESIAN_POINT('',(0.12,0.,0.));
#295=CARTESIAN_POINT('',(0.,2.,0.));
#296=CARTESIAN_POINT('Origin',(0.,2.,-2.));
#297=CARTESIAN_POINT('',(0.,2.,-2.));
#298=CARTESIAN_POINT('',(0.,2.,0.));
#299=CARTESIAN_POINT('',(0.12,2.,-2.));
#300=CARTESIAN_POINT('',(0.12,2.,0.));
#301=CARTESIAN_POINT('',(0.,2.,-2.));
#302=CARTESIAN_POINT('Origin',(0.,0.,-2.));
#303=CARTESIAN_POINT('',(0.,2.,-2.));
#304=CARTESIAN_POINT('',(0.12,2.,-2.));
#305=CARTESIAN_POINT('Origin',(0.12,1.,-1.));
#306=CARTESIAN_POINT('Origin',(0.,1.,-1.));
#307=CARTESIAN_POINT('Origin',(0.12,4.5,0.));
#308=CARTESIAN_POINT('',(0.12,4.5,0.));
#309=CARTESIAN_POINT('',(0.12,4.5,-2.));
#310=CARTESIAN_POINT('',(0.12,4.5,0.));
#311=CARTESIAN_POINT('',(0.02,4.5,-2.));
#312=CARTESIAN_POINT('',(0.12,4.5,-2.));
#313=CARTESIAN_POINT('',(0.02,4.5,0.));
#314=CARTESIAN_POINT('',(0.02,4.5,0.));
#315=CARTESIAN_POINT('',(0.12,4.5,0.));
#316=CARTESIAN_POINT('Origin',(0.12,2.5,0.));
#317=CARTESIAN_POINT('',(0.12,2.5,0.));
#318=CARTESIAN_POINT('',(0.12,2.5,0.));
#319=CARTESIAN_POINT('',(0.02,2.5,0.));
#320=CARTESIAN_POINT('',(0.02,2.5,0.));
#321=CARTESIAN_POINT('',(0.12,2.5,0.));
#322=CARTESIAN_POINT('Origin',(0.12,2.5,-2.));
#323=CARTESIAN_POINT('',(0.12,2.5,-2.));
#324=CARTESIAN_POINT('',(0.12,2.5,-2.));
#325=CARTESIAN_POINT('',(0.02,2.5,-2.));
#326=CARTESIAN_POINT('',(0.02,2.5,-2.));
#327=CARTESIAN_POINT('',(0.12,2.5,-2.));
#328=CARTESIAN_POINT('Origin',(0.12,4.5,-2.));
#329=CARTESIAN_POINT('',(0.12,4.5,-2.));
#330=CARTESIAN_POINT('',(0.02,4.5,-2.));
#331=CARTESIAN_POINT('Origin',(0.12,2.25,-1.));
#332=CARTESIAN_POINT('Origin',(0.02,2.25,-1.));
#333=UNCERTAINTY_MEASURE_WITH_UNIT(LENGTH_MEASURE(0.01),#337,
'DISTANCE_ACCURACY_VALUE',
'Maximum model space distance between geometric entities at asserted c
onnectivities');
#334=UNCERTAINTY_MEASURE_WITH_UNIT(LENGTH_MEASURE(0.01),#337,
'DISTANCE_ACCURACY_VALUE',
'Maximum model space distance between geometric entities at asserted c
onnectivities');
#335=(
GEOMETRIC_REPRESENTATION_CONTEXT(3)
GLOBAL_UNCERTAINTY_ASSIGNED_CONTEXT((#333))
GLOBAL_UNIT_ASSIGNED_CONTEXT((#337,#339,#340))
REPRESENTATION_CONTEXT('','3D')
);
#336=(
GEOMETRIC_REPRESENTATION_CONTEXT(3)
GLOBAL_UNCERTAINTY_ASSIGNED_CONTEXT((#334))
GLOBAL_UNIT_ASSIGNED_CONTEXT((#337,#339,#340))
REPRESENTATION_CONTEXT('','3D')
);
#337=(
LENGTH_UNIT()
NAMED_UNIT(*)
SI_UNIT(.MILLI.,.METRE.)
);
#338=(
LENGTH_UNIT()
NAMED_UNIT(*)
SI_UNIT($,.METRE.)
);
#339=(
NAMED_UNIT(*)
PLANE_ANGLE_UNIT()
SI_UNIT($,.RADIAN.)
);
#340=(
NAMED_UNIT(*)
SI_UNIT($,.STERADIAN.)
SOLID_ANGLE_UNIT()
);
#341=SHAPE_DEFINITION_REPRESENTATION(#342,#343);
#342=PRODUCT_DEFINITION_SHAPE('',$,#345);
#343=SHAPE_REPRESENTATION('',(#217),#335);
#344=PRODUCT_DEFINITION_CONTEXT('part definition',#349,'design');
#345=PRODUCT_DEFINITION('(Unsaved)','(Unsaved)',#346,#344);
#346=PRODUCT_DEFINITION_FORMATION('',$,#351);
#347=PRODUCT_RELATED_PRODUCT_CATEGORY('(Unsaved)','(Unsaved)',(#351));
#348=APPLICATION_PROTOCOL_DEFINITION('international standard',
'automotive_design',2009,#349);
#349=APPLICATION_CONTEXT(
'Core Data for Automotive Mechanical Design Process');
#350=PRODUCT_CONTEXT('part definition',#349,'mechanical');
#351=PRODUCT('(Unsaved)','(Unsaved)',$,(#350));
#352=PRESENTATION_STYLE_ASSIGNMENT((#356));
#353=PRESENTATION_STYLE_ASSIGNMENT((#357));
#354=PRESENTATION_STYLE_ASSIGNMENT((#358));
#355=PRESENTATION_STYLE_ASSIGNMENT((#359));
#356=SURFACE_STYLE_USAGE(.BOTH.,#360);
#357=SURFACE_STYLE_USAGE(.BOTH.,#361);
#358=SURFACE_STYLE_USAGE(.BOTH.,#362);
#359=SURFACE_STYLE_USAGE(.BOTH.,#363);
#360=SURFACE_SIDE_STYLE('',(#364));
#361=SURFACE_SIDE_STYLE('',(#365));
#362=SURFACE_SIDE_STYLE('',(#366));
#363=SURFACE_SIDE_STYLE('',(#367));
#364=SURFACE_STYLE_FILL_AREA(#368);
#365=SURFACE_STYLE_FILL_AREA(#369);
#366=SURFACE_STYLE_FILL_AREA(#370);
#367=SURFACE_STYLE_FILL_AREA(#371);
#368=FILL_AREA_STYLE('Steel - Satin',(#372));
#369=FILL_AREA_STYLE('Opaque(160,160,160)',(#373));
#370=FILL_AREA_STYLE('Opaque(244,229,167)',(#374));
#371=FILL_AREA_STYLE('Gold - Polished',(#375));
#372=FILL_AREA_STYLE_COLOUR('Steel - Satin',#376);
#373=FILL_AREA_STYLE_COLOUR('Opaque(160,160,160)',#377);
#374=FILL_AREA_STYLE_COLOUR('Opaque(244,229,167)',#378);
#375=FILL_AREA_STYLE_COLOUR('Gold - Polished',#379);
#376=COLOUR_RGB('Steel - Satin',0.627450980392157,0.627450980392157,0.627450980392157);
#377=COLOUR_RGB('Opaque(160,160,160)',0.627450980392157,0.627450980392157,
0.627450980392157);
#378=COLOUR_RGB('Opaque(244,229,167)',0.956862745098039,0.898039215686275,
0.654901960784314);
#379=COLOUR_RGB('Gold - Polished',0.956862745098039,0.898039215686275,0.654901960784314);
ENDSEC;
END-ISO-10303-21;
