ISO-10303-21;
HEADER;
FILE_DESCRIPTION(('STEP AP214'),'1');
FILE_NAME('WLCSP34_0P5PITCH_DIL','2021-01-16T13:59:15',(''),(''),'','','');
FILE_SCHEMA(('AUTOMOTIVE_DESIGN'));
ENDSEC;
DATA;
#1=SHAPE_DEFINITION_REPRESENTATION(#2,#3);
#2=PRODUCT_DEFINITION_SHAPE('',$,#4);
#3=SHAPE_REPRESENTATION('',(#71,#80,#89,#98,#107,#116,#125,#134,#143,#152,#161,#170,#179,#188,#197,#206,#215,#224,#233,#242,#251,#260,#269,#278,#287,#296,#305,#314,#323,#332,#341,#350,#359,#368,#378,#434,#19),#11);
#4=PRODUCT_DEFINITION('design','example product_definition',#6,#5);
#5=PRODUCT_DEFINITION_CONTEXT('3D Mechanical Parts',#10,'design');
#6=PRODUCT_DEFINITION_FORMATION('1.0','first version',#8);
#7=APPLICATION_PROTOCOL_DEFINITION('international standard','automotive_design',2003,#10);
#8=PRODUCT('product','part','',(#9));
#9=PRODUCT_CONTEXT('3D Mechanical Parts',#10,'mechanical');
#10=APPLICATION_CONTEXT('Core Data for Automotive Mechanical Design Process');
#11=(GEOMETRIC_REPRESENTATION_CONTEXT(3) GLOBAL_UNCERTAINTY_ASSIGNED_CONTEXT((#12)) GLOBAL_UNIT_ASSIGNED_CONTEXT((#13,#14,#18)) REPRESENTATION_CONTEXT('ID1','3D'));
#12=UNCERTAINTY_MEASURE_WITH_UNIT(LENGTH_MEASURE(1.E-005),#13,'DISTANCE_ACCURACY_VALUE','Maximum model space distance between geometric entities at asserted connectivities');
#13=(LENGTH_UNIT() NAMED_UNIT(*) SI_UNIT(.MILLI.,.METRE.));
#14=(CONVERSION_BASED_UNIT('degree',#16) NAMED_UNIT(#15) PLANE_ANGLE_UNIT());
#15=DIMENSIONAL_EXPONENTS(0.,0.,0.,0.,0.,0.,0.);
#16=MEASURE_WITH_UNIT(PLANE_ANGLE_MEASURE(0.01745329252),#17);
#17=(NAMED_UNIT(*) PLANE_ANGLE_UNIT() SI_UNIT($,.RADIAN.));
#18=(NAMED_UNIT(*) SI_UNIT($,.STERADIAN.) SOLID_ANGLE_UNIT());
#19=AXIS2_PLACEMENT_3D('',#20,#21,#22);
#20=CARTESIAN_POINT('',(0.0,0.0,0.0));
#21=DIRECTION('',(0.0,0.0,1.0));
#22=DIRECTION('',(1.0,0.0,0.0));
#25=MECHANICAL_DESIGN_GEOMETRIC_PRESENTATION_REPRESENTATION($,(#73,#82,#91,#100,#109,#118,#127,#136,#145,#154,#163,#172,#181,#190,#199,#208,#217,#226,#235,#244,#253,#262,#271,#280,#289,#298,#307,#316,#325,#334,#343,#352,#361,#370,#430,#431,#432,#436,#485,#534,#583,#632,#681),#11);
#26=PRODUCT_CATEGORY_RELATIONSHIP('','',#27,#28);
#27=PRODUCT_CATEGORY('part','');
#28=PRODUCT_RELATED_PRODUCT_CATEGORY('','',(#8));
#34=PRESENTATION_STYLE_ASSIGNMENT((#35,#40));
#35=SURFACE_STYLE_USAGE(.BOTH.,#36);
#36=SURFACE_SIDE_STYLE('',(#37));
#37=SURFACE_STYLE_FILL_AREA(#38);
#38=FILL_AREA_STYLE('',(#39));
#39=FILL_AREA_STYLE_COLOUR('',#41);
#40=CURVE_STYLE('',#42,POSITIVE_LENGTH_MEASURE(0.1),#41);
#41=COLOUR_RGB('Aluminum',0.725,0.725,0.725);
#42=DRAUGHTING_PRE_DEFINED_CURVE_FONT('continuous');
#43=PRESENTATION_STYLE_ASSIGNMENT((#44,#49));
#44=SURFACE_STYLE_USAGE(.BOTH.,#45);
#45=SURFACE_SIDE_STYLE('',(#46));
#46=SURFACE_STYLE_FILL_AREA(#47);
#47=FILL_AREA_STYLE('',(#48));
#48=FILL_AREA_STYLE_COLOUR('',#50);
#49=CURVE_STYLE('',#51,POSITIVE_LENGTH_MEASURE(0.1),#50);
#50=COLOUR_RGB('Black',0.196,0.196,0.196);
#51=DRAUGHTING_PRE_DEFINED_CURVE_FONT('continuous');
#52=PRESENTATION_STYLE_ASSIGNMENT((#53,#58));
#53=SURFACE_STYLE_USAGE(.BOTH.,#54);
#54=SURFACE_SIDE_STYLE('',(#55));
#55=SURFACE_STYLE_FILL_AREA(#56);
#56=FILL_AREA_STYLE('',(#57));
#57=FILL_AREA_STYLE_COLOUR('',#59);
#58=CURVE_STYLE('',#60,POSITIVE_LENGTH_MEASURE(0.1),#59);
#59=COLOUR_RGB('Pin1',0.588,0.588,0.588);
#60=DRAUGHTING_PRE_DEFINED_CURVE_FONT('continuous');
#61=PRESENTATION_STYLE_ASSIGNMENT((#62,#67));
#62=SURFACE_STYLE_USAGE(.BOTH.,#63);
#63=SURFACE_SIDE_STYLE('',(#64));
#64=SURFACE_STYLE_FILL_AREA(#65);
#65=FILL_AREA_STYLE('',(#66));
#66=FILL_AREA_STYLE_COLOUR('',#68);
#67=CURVE_STYLE('',#69,POSITIVE_LENGTH_MEASURE(0.1),#68);
#68=COLOUR_RGB('HeatTab',0.588,0.588,0.588);
#69=DRAUGHTING_PRE_DEFINED_CURVE_FONT('continuous');
#71=MANIFOLD_SOLID_BREP($,#72);
#72=CLOSED_SHELL('',(#74));
#73=STYLED_ITEM('color',(#34),#74);
#74=ADVANCED_FACE('',(),#75,.T.);
#75=SPHERICAL_SURFACE('',#76,0.1397);
#76=AXIS2_PLACEMENT_3D('',#77,#78,#79);
#77=CARTESIAN_POINT('',(-2.0,0.51,0.14));
#78=DIRECTION('',(0.,0.,-1.));
#79=DIRECTION('',(-1.,0.,0.));
#80=MANIFOLD_SOLID_BREP($,#81);
#81=CLOSED_SHELL('',(#83));
#82=STYLED_ITEM('color',(#34),#83);
#83=ADVANCED_FACE('',(),#84,.T.);
#84=SPHERICAL_SURFACE('',#85,0.1397);
#85=AXIS2_PLACEMENT_3D('',#86,#87,#88);
#86=CARTESIAN_POINT('',(-1.5,0.51,0.14));
#87=DIRECTION('',(0.,0.,-1.));
#88=DIRECTION('',(-1.,0.,0.));
#89=MANIFOLD_SOLID_BREP($,#90);
#90=CLOSED_SHELL('',(#92));
#91=STYLED_ITEM('color',(#34),#92);
#92=ADVANCED_FACE('',(),#93,.T.);
#93=SPHERICAL_SURFACE('',#94,0.1397);
#94=AXIS2_PLACEMENT_3D('',#95,#96,#97);
#95=CARTESIAN_POINT('',(-1.0,0.51,0.14));
#96=DIRECTION('',(0.,0.,-1.));
#97=DIRECTION('',(-1.,0.,0.));
#98=MANIFOLD_SOLID_BREP($,#99);
#99=CLOSED_SHELL('',(#101));
#100=STYLED_ITEM('color',(#34),#101);
#101=ADVANCED_FACE('',(),#102,.T.);
#102=SPHERICAL_SURFACE('',#103,0.1397);
#103=AXIS2_PLACEMENT_3D('',#104,#105,#106);
#104=CARTESIAN_POINT('',(-0.5,0.51,0.14));
#105=DIRECTION('',(0.,0.,-1.));
#106=DIRECTION('',(-1.,0.,0.));
#107=MANIFOLD_SOLID_BREP($,#108);
#108=CLOSED_SHELL('',(#110));
#109=STYLED_ITEM('color',(#34),#110);
#110=ADVANCED_FACE('',(),#111,.T.);
#111=SPHERICAL_SURFACE('',#112,0.1397);
#112=AXIS2_PLACEMENT_3D('',#113,#114,#115);
#113=CARTESIAN_POINT('',(0.0,0.51,0.14));
#114=DIRECTION('',(0.,0.,-1.));
#115=DIRECTION('',(-1.,0.,0.));
#116=MANIFOLD_SOLID_BREP($,#117);
#117=CLOSED_SHELL('',(#119));
#118=STYLED_ITEM('color',(#34),#119);
#119=ADVANCED_FACE('',(),#120,.T.);
#120=SPHERICAL_SURFACE('',#121,0.1397);
#121=AXIS2_PLACEMENT_3D('',#122,#123,#124);
#122=CARTESIAN_POINT('',(0.5,0.51,0.14));
#123=DIRECTION('',(0.,0.,-1.));
#124=DIRECTION('',(-1.,0.,0.));
#125=MANIFOLD_SOLID_BREP($,#126);
#126=CLOSED_SHELL('',(#128));
#127=STYLED_ITEM('color',(#34),#128);
#128=ADVANCED_FACE('',(),#129,.T.);
#129=SPHERICAL_SURFACE('',#130,0.1397);
#130=AXIS2_PLACEMENT_3D('',#131,#132,#133);
#131=CARTESIAN_POINT('',(1.0,0.51,0.14));
#132=DIRECTION('',(0.,0.,-1.));
#133=DIRECTION('',(-1.,0.,0.));
#134=MANIFOLD_SOLID_BREP($,#135);
#135=CLOSED_SHELL('',(#137));
#136=STYLED_ITEM('color',(#34),#137);
#137=ADVANCED_FACE('',(),#138,.T.);
#138=SPHERICAL_SURFACE('',#139,0.1397);
#139=AXIS2_PLACEMENT_3D('',#140,#141,#142);
#140=CARTESIAN_POINT('',(1.5,0.51,0.14));
#141=DIRECTION('',(0.,0.,-1.));
#142=DIRECTION('',(-1.,0.,0.));
#143=MANIFOLD_SOLID_BREP($,#144);
#144=CLOSED_SHELL('',(#146));
#145=STYLED_ITEM('color',(#34),#146);
#146=ADVANCED_FACE('',(),#147,.T.);
#147=SPHERICAL_SURFACE('',#148,0.1397);
#148=AXIS2_PLACEMENT_3D('',#149,#150,#151);
#149=CARTESIAN_POINT('',(2.0,0.51,0.14));
#150=DIRECTION('',(0.,0.,-1.));
#151=DIRECTION('',(-1.,0.,0.));
#152=MANIFOLD_SOLID_BREP($,#153);
#153=CLOSED_SHELL('',(#155));
#154=STYLED_ITEM('color',(#34),#155);
#155=ADVANCED_FACE('',(),#156,.T.);
#156=SPHERICAL_SURFACE('',#157,0.1397);
#157=AXIS2_PLACEMENT_3D('',#158,#159,#160);
#158=CARTESIAN_POINT('',(-1.75,0.17,0.14));
#159=DIRECTION('',(0.,0.,-1.));
#160=DIRECTION('',(-1.,0.,0.));
#161=MANIFOLD_SOLID_BREP($,#162);
#162=CLOSED_SHELL('',(#164));
#163=STYLED_ITEM('color',(#34),#164);
#164=ADVANCED_FACE('',(),#165,.T.);
#165=SPHERICAL_SURFACE('',#166,0.1397);
#166=AXIS2_PLACEMENT_3D('',#167,#168,#169);
#167=CARTESIAN_POINT('',(-1.25,0.17,0.14));
#168=DIRECTION('',(0.,0.,-1.));
#169=DIRECTION('',(-1.,0.,0.));
#170=MANIFOLD_SOLID_BREP($,#171);
#171=CLOSED_SHELL('',(#173));
#172=STYLED_ITEM('color',(#34),#173);
#173=ADVANCED_FACE('',(),#174,.T.);
#174=SPHERICAL_SURFACE('',#175,0.1397);
#175=AXIS2_PLACEMENT_3D('',#176,#177,#178);
#176=CARTESIAN_POINT('',(-0.75,0.17,0.14));
#177=DIRECTION('',(0.,0.,-1.));
#178=DIRECTION('',(-1.,0.,0.));
#179=MANIFOLD_SOLID_BREP($,#180);
#180=CLOSED_SHELL('',(#182));
#181=STYLED_ITEM('color',(#34),#182);
#182=ADVANCED_FACE('',(),#183,.T.);
#183=SPHERICAL_SURFACE('',#184,0.1397);
#184=AXIS2_PLACEMENT_3D('',#185,#186,#187);
#185=CARTESIAN_POINT('',(-0.25,0.17,0.14));
#186=DIRECTION('',(0.,0.,-1.));
#187=DIRECTION('',(-1.,0.,0.));
#188=MANIFOLD_SOLID_BREP($,#189);
#189=CLOSED_SHELL('',(#191));
#190=STYLED_ITEM('color',(#34),#191);
#191=ADVANCED_FACE('',(),#192,.T.);
#192=SPHERICAL_SURFACE('',#193,0.1397);
#193=AXIS2_PLACEMENT_3D('',#194,#195,#196);
#194=CARTESIAN_POINT('',(0.25,0.17,0.14));
#195=DIRECTION('',(0.,0.,-1.));
#196=DIRECTION('',(-1.,0.,0.));
#197=MANIFOLD_SOLID_BREP($,#198);
#198=CLOSED_SHELL('',(#200));
#199=STYLED_ITEM('color',(#34),#200);
#200=ADVANCED_FACE('',(),#201,.T.);
#201=SPHERICAL_SURFACE('',#202,0.1397);
#202=AXIS2_PLACEMENT_3D('',#203,#204,#205);
#203=CARTESIAN_POINT('',(0.75,0.17,0.14));
#204=DIRECTION('',(0.,0.,-1.));
#205=DIRECTION('',(-1.,0.,0.));
#206=MANIFOLD_SOLID_BREP($,#207);
#207=CLOSED_SHELL('',(#209));
#208=STYLED_ITEM('color',(#34),#209);
#209=ADVANCED_FACE('',(),#210,.T.);
#210=SPHERICAL_SURFACE('',#211,0.1397);
#211=AXIS2_PLACEMENT_3D('',#212,#213,#214);
#212=CARTESIAN_POINT('',(1.25,0.17,0.14));
#213=DIRECTION('',(0.,0.,-1.));
#214=DIRECTION('',(-1.,0.,0.));
#215=MANIFOLD_SOLID_BREP($,#216);
#216=CLOSED_SHELL('',(#218));
#217=STYLED_ITEM('color',(#34),#218);
#218=ADVANCED_FACE('',(),#219,.T.);
#219=SPHERICAL_SURFACE('',#220,0.1397);
#220=AXIS2_PLACEMENT_3D('',#221,#222,#223);
#221=CARTESIAN_POINT('',(1.75,0.17,0.14));
#222=DIRECTION('',(0.,0.,-1.));
#223=DIRECTION('',(-1.,0.,0.));
#224=MANIFOLD_SOLID_BREP($,#225);
#225=CLOSED_SHELL('',(#227));
#226=STYLED_ITEM('color',(#34),#227);
#227=ADVANCED_FACE('',(),#228,.T.);
#228=SPHERICAL_SURFACE('',#229,0.1397);
#229=AXIS2_PLACEMENT_3D('',#230,#231,#232);
#230=CARTESIAN_POINT('',(-2.0,-0.17,0.14));
#231=DIRECTION('',(0.,0.,-1.));
#232=DIRECTION('',(-1.,0.,0.));
#233=MANIFOLD_SOLID_BREP($,#234);
#234=CLOSED_SHELL('',(#236));
#235=STYLED_ITEM('color',(#34),#236);
#236=ADVANCED_FACE('',(),#237,.T.);
#237=SPHERICAL_SURFACE('',#238,0.1397);
#238=AXIS2_PLACEMENT_3D('',#239,#240,#241);
#239=CARTESIAN_POINT('',(-1.5,-0.17,0.14));
#240=DIRECTION('',(0.,0.,-1.));
#241=DIRECTION('',(-1.,0.,0.));
#242=MANIFOLD_SOLID_BREP($,#243);
#243=CLOSED_SHELL('',(#245));
#244=STYLED_ITEM('color',(#34),#245);
#245=ADVANCED_FACE('',(),#246,.T.);
#246=SPHERICAL_SURFACE('',#247,0.1397);
#247=AXIS2_PLACEMENT_3D('',#248,#249,#250);
#248=CARTESIAN_POINT('',(-1.0,-0.17,0.14));
#249=DIRECTION('',(0.,0.,-1.));
#250=DIRECTION('',(-1.,0.,0.));
#251=MANIFOLD_SOLID_BREP($,#252);
#252=CLOSED_SHELL('',(#254));
#253=STYLED_ITEM('color',(#34),#254);
#254=ADVANCED_FACE('',(),#255,.T.);
#255=SPHERICAL_SURFACE('',#256,0.1397);
#256=AXIS2_PLACEMENT_3D('',#257,#258,#259);
#257=CARTESIAN_POINT('',(-0.5,-0.17,0.14));
#258=DIRECTION('',(0.,0.,-1.));
#259=DIRECTION('',(-1.,0.,0.));
#260=MANIFOLD_SOLID_BREP($,#261);
#261=CLOSED_SHELL('',(#263));
#262=STYLED_ITEM('color',(#34),#263);
#263=ADVANCED_FACE('',(),#264,.T.);
#264=SPHERICAL_SURFACE('',#265,0.1397);
#265=AXIS2_PLACEMENT_3D('',#266,#267,#268);
#266=CARTESIAN_POINT('',(0.0,-0.17,0.14));
#267=DIRECTION('',(0.,0.,-1.));
#268=DIRECTION('',(-1.,0.,0.));
#269=MANIFOLD_SOLID_BREP($,#270);
#270=CLOSED_SHELL('',(#272));
#271=STYLED_ITEM('color',(#34),#272);
#272=ADVANCED_FACE('',(),#273,.T.);
#273=SPHERICAL_SURFACE('',#274,0.1397);
#274=AXIS2_PLACEMENT_3D('',#275,#276,#277);
#275=CARTESIAN_POINT('',(0.5,-0.17,0.14));
#276=DIRECTION('',(0.,0.,-1.));
#277=DIRECTION('',(-1.,0.,0.));
#278=MANIFOLD_SOLID_BREP($,#279);
#279=CLOSED_SHELL('',(#281));
#280=STYLED_ITEM('color',(#34),#281);
#281=ADVANCED_FACE('',(),#282,.T.);
#282=SPHERICAL_SURFACE('',#283,0.1397);
#283=AXIS2_PLACEMENT_3D('',#284,#285,#286);
#284=CARTESIAN_POINT('',(1.0,-0.17,0.14));
#285=DIRECTION('',(0.,0.,-1.));
#286=DIRECTION('',(-1.,0.,0.));
#287=MANIFOLD_SOLID_BREP($,#288);
#288=CLOSED_SHELL('',(#290));
#289=STYLED_ITEM('color',(#34),#290);
#290=ADVANCED_FACE('',(),#291,.T.);
#291=SPHERICAL_SURFACE('',#292,0.1397);
#292=AXIS2_PLACEMENT_3D('',#293,#294,#295);
#293=CARTESIAN_POINT('',(1.5,-0.17,0.14));
#294=DIRECTION('',(0.,0.,-1.));
#295=DIRECTION('',(-1.,0.,0.));
#296=MANIFOLD_SOLID_BREP($,#297);
#297=CLOSED_SHELL('',(#299));
#298=STYLED_ITEM('color',(#34),#299);
#299=ADVANCED_FACE('',(),#300,.T.);
#300=SPHERICAL_SURFACE('',#301,0.1397);
#301=AXIS2_PLACEMENT_3D('',#302,#303,#304);
#302=CARTESIAN_POINT('',(2.0,-0.17,0.14));
#303=DIRECTION('',(0.,0.,-1.));
#304=DIRECTION('',(-1.,0.,0.));
#305=MANIFOLD_SOLID_BREP($,#306);
#306=CLOSED_SHELL('',(#308));
#307=STYLED_ITEM('color',(#34),#308);
#308=ADVANCED_FACE('',(),#309,.T.);
#309=SPHERICAL_SURFACE('',#310,0.1397);
#310=AXIS2_PLACEMENT_3D('',#311,#312,#313);
#311=CARTESIAN_POINT('',(-1.75,-0.51,0.14));
#312=DIRECTION('',(0.,0.,-1.));
#313=DIRECTION('',(-1.,0.,0.));
#314=MANIFOLD_SOLID_BREP($,#315);
#315=CLOSED_SHELL('',(#317));
#316=STYLED_ITEM('color',(#34),#317);
#317=ADVANCED_FACE('',(),#318,.T.);
#318=SPHERICAL_SURFACE('',#319,0.1397);
#319=AXIS2_PLACEMENT_3D('',#320,#321,#322);
#320=CARTESIAN_POINT('',(-1.25,-0.51,0.14));
#321=DIRECTION('',(0.,0.,-1.));
#322=DIRECTION('',(-1.,0.,0.));
#323=MANIFOLD_SOLID_BREP($,#324);
#324=CLOSED_SHELL('',(#326));
#325=STYLED_ITEM('color',(#34),#326);
#326=ADVANCED_FACE('',(),#327,.T.);
#327=SPHERICAL_SURFACE('',#328,0.1397);
#328=AXIS2_PLACEMENT_3D('',#329,#330,#331);
#329=CARTESIAN_POINT('',(-0.75,-0.51,0.14));
#330=DIRECTION('',(0.,0.,-1.));
#331=DIRECTION('',(-1.,0.,0.));
#332=MANIFOLD_SOLID_BREP($,#333);
#333=CLOSED_SHELL('',(#335));
#334=STYLED_ITEM('color',(#34),#335);
#335=ADVANCED_FACE('',(),#336,.T.);
#336=SPHERICAL_SURFACE('',#337,0.1397);
#337=AXIS2_PLACEMENT_3D('',#338,#339,#340);
#338=CARTESIAN_POINT('',(-0.25,-0.51,0.14));
#339=DIRECTION('',(0.,0.,-1.));
#340=DIRECTION('',(-1.,0.,0.));
#341=MANIFOLD_SOLID_BREP($,#342);
#342=CLOSED_SHELL('',(#344));
#343=STYLED_ITEM('color',(#34),#344);
#344=ADVANCED_FACE('',(),#345,.T.);
#345=SPHERICAL_SURFACE('',#346,0.1397);
#346=AXIS2_PLACEMENT_3D('',#347,#348,#349);
#347=CARTESIAN_POINT('',(0.25,-0.51,0.14));
#348=DIRECTION('',(0.,0.,-1.));
#349=DIRECTION('',(-1.,0.,0.));
#350=MANIFOLD_SOLID_BREP($,#351);
#351=CLOSED_SHELL('',(#353));
#352=STYLED_ITEM('color',(#34),#353);
#353=ADVANCED_FACE('',(),#354,.T.);
#354=SPHERICAL_SURFACE('',#355,0.1397);
#355=AXIS2_PLACEMENT_3D('',#356,#357,#358);
#356=CARTESIAN_POINT('',(0.75,-0.51,0.14));
#357=DIRECTION('',(0.,0.,-1.));
#358=DIRECTION('',(-1.,0.,0.));
#359=MANIFOLD_SOLID_BREP($,#360);
#360=CLOSED_SHELL('',(#362));
#361=STYLED_ITEM('color',(#34),#362);
#362=ADVANCED_FACE('',(),#363,.T.);
#363=SPHERICAL_SURFACE('',#364,0.1397);
#364=AXIS2_PLACEMENT_3D('',#365,#366,#367);
#365=CARTESIAN_POINT('',(1.25,-0.51,0.14));
#366=DIRECTION('',(0.,0.,-1.));
#367=DIRECTION('',(-1.,0.,0.));
#368=MANIFOLD_SOLID_BREP($,#369);
#369=CLOSED_SHELL('',(#371));
#370=STYLED_ITEM('color',(#34),#371);
#371=ADVANCED_FACE('',(),#372,.T.);
#372=SPHERICAL_SURFACE('',#373,0.1397);
#373=AXIS2_PLACEMENT_3D('',#374,#375,#376);
#374=CARTESIAN_POINT('',(1.75,-0.51,0.14));
#375=DIRECTION('',(0.,0.,-1.));
#376=DIRECTION('',(-1.,0.,0.));
#378=MANIFOLD_SOLID_BREP($,#379);
#379=CLOSED_SHELL('',(#380,#381,#382));
#380=ADVANCED_FACE($,(#386,#385),#403,.T.);
#381=ADVANCED_FACE($,(#387),#383,.F.);
#382=ADVANCED_FACE($,(#388),#384,.T.);
#383=PLANE($,#408);
#384=PLANE($,#409);
#385=FACE_BOUND($,#390,.T.);
#386=FACE_OUTER_BOUND($,#389,.T.);
#387=FACE_OUTER_BOUND($,#391,.T.);
#388=FACE_OUTER_BOUND($,#392,.T.);
#389=EDGE_LOOP($,(#399));
#390=EDGE_LOOP($,(#400));
#391=EDGE_LOOP($,(#401));
#392=EDGE_LOOP($,(#402));
#393=CIRCLE($,#406,0.113665);
#394=CIRCLE($,#407,0.113665);
#395=VERTEX_POINT('',#424);
#396=VERTEX_POINT('',#426);
#397=EDGE_CURVE($,#395,#395,#393,.T.);
#398=EDGE_CURVE($,#396,#396,#394,.T.);
#399=ORIENTED_EDGE($,*,*,#397,.F.);
#400=ORIENTED_EDGE($,*,*,#398,.F.);
#401=ORIENTED_EDGE($,*,*,#398,.T.);
#402=ORIENTED_EDGE($,*,*,#397,.T.);
#403=CYLINDRICAL_SURFACE($,#405,0.113665);
#404=AXIS2_PLACEMENT_3D('placement',#422,#410,#411);
#405=AXIS2_PLACEMENT_3D($,#423,#412,#413);
#406=AXIS2_PLACEMENT_3D($,#425,#414,#415);
#407=AXIS2_PLACEMENT_3D($,#427,#416,#417);
#408=AXIS2_PLACEMENT_3D($,#428,#418,#419);
#409=AXIS2_PLACEMENT_3D($,#429,#420,#421);
#410=DIRECTION('axis',(0.,1.,0.));
#411=DIRECTION('refdir',(1.,0.,0.));
#412=DIRECTION('',(0.,0.,1.));
#413=DIRECTION('',(1.,0.,0.));
#414=DIRECTION('',(0.,0.,1.));
#415=DIRECTION('',(1.,0.,0.));
#416=DIRECTION('',(0.,0.,-1.));
#417=DIRECTION('',(1.,0.,0.));
#418=DIRECTION('',(0.,0.,1.));
#419=DIRECTION('',(0.,1.,0.));
#420=DIRECTION('',(0.,0.,1.));
#421=DIRECTION('',(0.,1.,0.));
#422=CARTESIAN_POINT('',(0.,0.,0.));
#423=CARTESIAN_POINT('',(-1.819,0.371,0.559));
#424=CARTESIAN_POINT('',(-1.932,0.371,0.561));
#425=CARTESIAN_POINT('',(-1.819,0.371,0.561));
#426=CARTESIAN_POINT('',(-1.932,0.371,0.559));
#427=CARTESIAN_POINT('',(-1.819,0.371,0.559));
#428=CARTESIAN_POINT('',(-1.819,0.371,0.559));
#429=CARTESIAN_POINT('',(-1.819,0.371,0.561));
#430=STYLED_ITEM('color',(#52),#380);
#431=STYLED_ITEM('color',(#52),#381);
#432=STYLED_ITEM('color',(#52),#382);
#434=MANIFOLD_SOLID_BREP($,#435);
#435=CLOSED_SHELL('',(#437,#486,#535,#584,#633,#682));
#436=STYLED_ITEM('',(#43),#437);
#437=ADVANCED_FACE('',(#443),#438,.T.);
#438=PLANE('',#439);
#439=AXIS2_PLACEMENT_3D('',#440,#441,#442);
#440=CARTESIAN_POINT('',(-2.273,-0.826,0.278));
#441=DIRECTION('',(0.0,-1.0,0.0));
#442=DIRECTION('',(0.,0.,1.));
#443=FACE_OUTER_BOUND('',#444,.T.);
#444=EDGE_LOOP('',(#445,#455,#465,#475));
#448=CARTESIAN_POINT('',(2.273,-0.826,0.278));
#447=VERTEX_POINT('',#448);
#450=CARTESIAN_POINT('',(-2.273,-0.826,0.278));
#449=VERTEX_POINT('',#450);
#446=EDGE_CURVE('',#447,#449,#451,.T.);
#451=LINE('',#448,#453);
#453=VECTOR('',#454,4.5466);
#454=DIRECTION('',(-1.0,0.0,0.0));
#445=ORIENTED_EDGE('',*,*,#446,.F.);
#458=CARTESIAN_POINT('',(2.273,-0.826,0.559));
#457=VERTEX_POINT('',#458);
#456=EDGE_CURVE('',#457,#447,#461,.T.);
#461=LINE('',#458,#463);
#463=VECTOR('',#464,0.2804000000066);
#464=DIRECTION('',(0.0,0.0,-1.0));
#455=ORIENTED_EDGE('',*,*,#456,.F.);
#468=CARTESIAN_POINT('',(-2.273,-0.826,0.559));
#467=VERTEX_POINT('',#468);
#466=EDGE_CURVE('',#467,#457,#471,.T.);
#471=LINE('',#468,#473);
#473=VECTOR('',#474,4.5466);
#474=DIRECTION('',(1.0,0.0,0.0));
#465=ORIENTED_EDGE('',*,*,#466,.F.);
#476=EDGE_CURVE('',#449,#467,#481,.T.);
#481=LINE('',#450,#483);
#483=VECTOR('',#484,0.2804000000066);
#484=DIRECTION('',(0.0,0.0,1.0));
#475=ORIENTED_EDGE('',*,*,#476,.F.);
#485=STYLED_ITEM('',(#43),#486);
#486=ADVANCED_FACE('',(#492),#487,.T.);
#487=PLANE('',#488);
#488=AXIS2_PLACEMENT_3D('',#489,#490,#491);
#489=CARTESIAN_POINT('',(2.273,-0.826,0.278));
#490=DIRECTION('',(1.0,0.0,0.0));
#491=DIRECTION('',(0.,0.,1.));
#492=FACE_OUTER_BOUND('',#493,.T.);
#493=EDGE_LOOP('',(#494,#504,#514,#524));
#497=CARTESIAN_POINT('',(2.273,0.826,0.278));
#496=VERTEX_POINT('',#497);
#495=EDGE_CURVE('',#496,#447,#500,.T.);
#500=LINE('',#497,#502);
#502=VECTOR('',#503,1.651);
#503=DIRECTION('',(0.0,-1.0,0.0));
#494=ORIENTED_EDGE('',*,*,#495,.F.);
#507=CARTESIAN_POINT('',(2.273,0.826,0.559));
#506=VERTEX_POINT('',#507);
#505=EDGE_CURVE('',#506,#496,#510,.T.);
#510=LINE('',#507,#512);
#512=VECTOR('',#513,0.2804000000066);
#513=DIRECTION('',(0.0,0.0,-1.0));
#504=ORIENTED_EDGE('',*,*,#505,.F.);
#515=EDGE_CURVE('',#457,#506,#520,.T.);
#520=LINE('',#458,#522);
#522=VECTOR('',#523,1.651);
#523=DIRECTION('',(0.0,1.0,0.0));
#514=ORIENTED_EDGE('',*,*,#515,.F.);
#524=ORIENTED_EDGE('',*,*,#456,.T.);
#534=STYLED_ITEM('',(#43),#535);
#535=ADVANCED_FACE('',(#541),#536,.T.);
#536=PLANE('',#537);
#537=AXIS2_PLACEMENT_3D('',#538,#539,#540);
#538=CARTESIAN_POINT('',(2.273,0.826,0.278));
#539=DIRECTION('',(0.0,1.0,0.0));
#540=DIRECTION('',(0.,0.,1.));
#541=FACE_OUTER_BOUND('',#542,.T.);
#542=EDGE_LOOP('',(#543,#553,#563,#573));
#546=CARTESIAN_POINT('',(-2.273,0.826,0.278));
#545=VERTEX_POINT('',#546);
#544=EDGE_CURVE('',#545,#496,#549,.T.);
#549=LINE('',#546,#551);
#551=VECTOR('',#552,4.5466);
#552=DIRECTION('',(1.0,0.0,0.0));
#543=ORIENTED_EDGE('',*,*,#544,.F.);
#556=CARTESIAN_POINT('',(-2.273,0.826,0.559));
#555=VERTEX_POINT('',#556);
#554=EDGE_CURVE('',#555,#545,#559,.T.);
#559=LINE('',#556,#561);
#561=VECTOR('',#562,0.2804000000066);
#562=DIRECTION('',(0.0,0.0,-1.0));
#553=ORIENTED_EDGE('',*,*,#554,.F.);
#564=EDGE_CURVE('',#506,#555,#569,.T.);
#569=LINE('',#507,#571);
#571=VECTOR('',#572,4.5466);
#572=DIRECTION('',(-1.0,0.0,0.0));
#563=ORIENTED_EDGE('',*,*,#564,.F.);
#573=ORIENTED_EDGE('',*,*,#505,.T.);
#583=STYLED_ITEM('',(#43),#584);
#584=ADVANCED_FACE('',(#590),#585,.T.);
#585=PLANE('',#586);
#586=AXIS2_PLACEMENT_3D('',#587,#588,#589);
#587=CARTESIAN_POINT('',(-2.273,0.826,0.278));
#588=DIRECTION('',(-1.0,0.0,0.0));
#589=DIRECTION('',(0.,0.,1.));
#590=FACE_OUTER_BOUND('',#591,.T.);
#591=EDGE_LOOP('',(#592,#602,#612,#622));
#593=EDGE_CURVE('',#449,#545,#598,.T.);
#598=LINE('',#450,#600);
#600=VECTOR('',#601,1.651);
#601=DIRECTION('',(0.0,1.0,0.0));
#592=ORIENTED_EDGE('',*,*,#593,.F.);
#602=ORIENTED_EDGE('',*,*,#476,.T.);
#613=EDGE_CURVE('',#555,#467,#618,.T.);
#618=LINE('',#556,#620);
#620=VECTOR('',#621,1.651);
#621=DIRECTION('',(0.0,-1.0,0.0));
#612=ORIENTED_EDGE('',*,*,#613,.F.);
#622=ORIENTED_EDGE('',*,*,#554,.T.);
#632=STYLED_ITEM('',(#43),#633);
#633=ADVANCED_FACE('',(#639),#634,.T.);
#634=PLANE('',#635);
#635=AXIS2_PLACEMENT_3D('',#636,#637,#638);
#636=CARTESIAN_POINT('',(-2.273,0.826,0.278));
#637=DIRECTION('',(0.0,0.0,-1.0));
#638=DIRECTION('',(0.,1.,0.));
#639=FACE_OUTER_BOUND('',#640,.T.);
#640=EDGE_LOOP('',(#641,#651,#661,#671));
#641=ORIENTED_EDGE('',*,*,#544,.T.);
#651=ORIENTED_EDGE('',*,*,#495,.T.);
#661=ORIENTED_EDGE('',*,*,#446,.T.);
#671=ORIENTED_EDGE('',*,*,#593,.T.);
#681=STYLED_ITEM('',(#43),#682);
#682=ADVANCED_FACE('',(#688),#683,.T.);
#683=PLANE('',#684);
#684=AXIS2_PLACEMENT_3D('',#685,#686,#687);
#685=CARTESIAN_POINT('',(-2.273,-0.826,0.559));
#686=DIRECTION('',(0.0,0.0,1.0));
#687=DIRECTION('',(0.,1.,0.));
#688=FACE_OUTER_BOUND('',#689,.T.);
#689=EDGE_LOOP('',(#690,#700,#710,#720));
#690=ORIENTED_EDGE('',*,*,#466,.T.);
#700=ORIENTED_EDGE('',*,*,#515,.T.);
#710=ORIENTED_EDGE('',*,*,#564,.T.);
#720=ORIENTED_EDGE('',*,*,#613,.T.);
ENDSEC;
END-ISO-10303-21;
