%TF.GenerationSoftware,KiCad,Pcbnew,9.0.3*%
%TF.CreationDate,2025-08-30T17:13:34+05:30*%
%TF.ProjectId,Halo_3_USB_v1p0,48616c6f-5f33-45f5-9553-425f76317030,Rev 1.0*%
%TF.SameCoordinates,Original*%
%TF.FileFunction,Copper,L2,Bot*%
%TF.FilePolarity,Positive*%
%FSLAX46Y46*%
G04 Gerber Fmt 4.6, Leading zero omitted, Abs format (unit mm)*
G04 Created by KiCad (PCBNEW 9.0.3) date 2025-08-30 17:13:34*
%MOMM*%
%LPD*%
G01*
G04 APERTURE LIST*
G04 Aperture macros list*
%AMRoundRect*
0 Rectangle with rounded corners*
0 $1 Rounding radius*
0 $2 $3 $4 $5 $6 $7 $8 $9 X,Y pos of 4 corners*
0 Add a 4 corners polygon primitive as box body*
4,1,4,$2,$3,$4,$5,$6,$7,$8,$9,$2,$3,0*
0 Add four circle primitives for the rounded corners*
1,1,$1+$1,$2,$3*
1,1,$1+$1,$4,$5*
1,1,$1+$1,$6,$7*
1,1,$1+$1,$8,$9*
0 Add four rect primitives between the rounded corners*
20,1,$1+$1,$2,$3,$4,$5,0*
20,1,$1+$1,$4,$5,$6,$7,0*
20,1,$1+$1,$6,$7,$8,$9,0*
20,1,$1+$1,$8,$9,$2,$3,0*%
G04 Aperture macros list end*
%TA.AperFunction,ComponentPad*%
%ADD10RoundRect,0.136000X-0.464000X-0.264000X0.464000X-0.264000X0.464000X0.264000X-0.464000X0.264000X0*%
%TD*%
%TA.AperFunction,TestPad*%
%ADD11R,1.000000X1.500000*%
%TD*%
%TA.AperFunction,ViaPad*%
%ADD12C,0.500000*%
%TD*%
%TA.AperFunction,Conductor*%
%ADD13C,0.200000*%
%TD*%
%TA.AperFunction,Profile*%
%ADD14C,0.200000*%
%TD*%
G04 APERTURE END LIST*
D10*
X145510000Y-90900000D03*
X137490000Y-90900000D03*
D11*
X143650000Y-87800000D03*
X139500000Y-87800000D03*
X137400000Y-87800000D03*
X145650000Y-87800000D03*
D12*
X142600000Y-88889998D03*
X139750000Y-90950000D03*
X140750000Y-88900000D03*
X140750000Y-90900000D03*
X145750000Y-89300000D03*
X135900000Y-87650000D03*
X147050000Y-90050000D03*
X136450000Y-86950000D03*
X144650000Y-89000000D03*
X137650000Y-89350000D03*
X147000000Y-87050000D03*
X147100000Y-91900000D03*
X136700000Y-92250000D03*
X147100000Y-91050000D03*
X141500000Y-88900000D03*
X147050000Y-89050000D03*
X136250000Y-90150000D03*
X135900000Y-88900000D03*
X147100000Y-88000000D03*
X136750000Y-89600000D03*
X145250000Y-92350000D03*
D13*
X142600000Y-88889998D02*
X143110002Y-88889998D01*
X143650000Y-88350000D02*
X143650000Y-87800000D01*
X143110002Y-88889998D02*
X143650000Y-88350000D01*
X139500000Y-90776966D02*
X139500000Y-87800000D01*
X139673034Y-90950000D02*
X139500000Y-90776966D01*
X139750000Y-90950000D02*
X139673034Y-90950000D01*
X140750000Y-90875002D02*
X140750000Y-88900000D01*
X145650000Y-87800000D02*
X145650000Y-88300000D01*
X137400000Y-87800000D02*
X137400000Y-88350000D01*
%TA.AperFunction,Conductor*%
G36*
X136385341Y-86719685D02*
G01*
X136431096Y-86772489D01*
X136441040Y-86841647D01*
X136434484Y-86867334D01*
X136406402Y-86942623D01*
X136406401Y-86942627D01*
X136400000Y-87002155D01*
X136400000Y-87550000D01*
X138400000Y-87550000D01*
X138400000Y-87002172D01*
X138399999Y-87002155D01*
X138393598Y-86942627D01*
X138393597Y-86942623D01*
X138365516Y-86867334D01*
X138360532Y-86797642D01*
X138394017Y-86736319D01*
X138455340Y-86702834D01*
X138481698Y-86700000D01*
X138761533Y-86700000D01*
X138828572Y-86719685D01*
X138874327Y-86772489D01*
X138884271Y-86841647D01*
X138860347Y-86894032D01*
X138862233Y-86895293D01*
X138811132Y-86971769D01*
X138811131Y-86971770D01*
X138799500Y-87030247D01*
X138799500Y-88569752D01*
X138811131Y-88628229D01*
X138811132Y-88628230D01*
X138855447Y-88694552D01*
X138921769Y-88738867D01*
X138921770Y-88738868D01*
X138980247Y-88750499D01*
X138980250Y-88750500D01*
X138980252Y-88750500D01*
X139075500Y-88750500D01*
X139142539Y-88770185D01*
X139188294Y-88822989D01*
X139199500Y-88874500D01*
X139199500Y-90816528D01*
X139205975Y-90840691D01*
X139219979Y-90892956D01*
X139223839Y-90899641D01*
X139226273Y-90903856D01*
X139259540Y-90961477D01*
X139281191Y-90983128D01*
X139287650Y-90992530D01*
X139293461Y-91010285D01*
X139305217Y-91030647D01*
X139330201Y-91123886D01*
X139389511Y-91226613D01*
X139473387Y-91310489D01*
X139576114Y-91369799D01*
X139690691Y-91400500D01*
X139690694Y-91400500D01*
X139809306Y-91400500D01*
X139809309Y-91400500D01*
X139923886Y-91369799D01*
X140026613Y-91310489D01*
X140110489Y-91226613D01*
X140157047Y-91145973D01*
X140207614Y-91097757D01*
X140276221Y-91084535D01*
X140341086Y-91110503D01*
X140371820Y-91145972D01*
X140389511Y-91176613D01*
X140473387Y-91260489D01*
X140576114Y-91319799D01*
X140690691Y-91350500D01*
X140690694Y-91350500D01*
X140809306Y-91350500D01*
X140809309Y-91350500D01*
X140923886Y-91319799D01*
X141026613Y-91260489D01*
X141058857Y-91228245D01*
X144410001Y-91228245D01*
X144412837Y-91264283D01*
X144457667Y-91418589D01*
X144457668Y-91418592D01*
X144539465Y-91556904D01*
X144539471Y-91556912D01*
X144653087Y-91670528D01*
X144653095Y-91670534D01*
X144791407Y-91752331D01*
X144791410Y-91752332D01*
X144945712Y-91797162D01*
X144945718Y-91797163D01*
X144981766Y-91799999D01*
X145259999Y-91799999D01*
X145760000Y-91799999D01*
X146038220Y-91799999D01*
X146038245Y-91799998D01*
X146074283Y-91797162D01*
X146228589Y-91752332D01*
X146228592Y-91752331D01*
X146366904Y-91670534D01*
X146366912Y-91670528D01*
X146480528Y-91556912D01*
X146480534Y-91556904D01*
X146562331Y-91418592D01*
X146562332Y-91418589D01*
X146607162Y-91264287D01*
X146607163Y-91264281D01*
X146609999Y-91228240D01*
X146610000Y-91228225D01*
X146610000Y-91150000D01*
X145760000Y-91150000D01*
X145760000Y-91799999D01*
X145259999Y-91799999D01*
X145260000Y-91799998D01*
X145260000Y-91150000D01*
X144410001Y-91150000D01*
X144410001Y-91228245D01*
X141058857Y-91228245D01*
X141110489Y-91176613D01*
X141169799Y-91073886D01*
X141200500Y-90959309D01*
X141200500Y-90840691D01*
X141169799Y-90726114D01*
X141110489Y-90623387D01*
X141082932Y-90595830D01*
X141079417Y-90591631D01*
X141070748Y-90571759D01*
X144410000Y-90571759D01*
X144410000Y-90650000D01*
X145343012Y-90650000D01*
X145325795Y-90659940D01*
X145269940Y-90715795D01*
X145230444Y-90784204D01*
X145210000Y-90860504D01*
X145210000Y-90939496D01*
X145230444Y-91015796D01*
X145269940Y-91084205D01*
X145325795Y-91140060D01*
X145394204Y-91179556D01*
X145470504Y-91200000D01*
X145549496Y-91200000D01*
X145625796Y-91179556D01*
X145694205Y-91140060D01*
X145750060Y-91084205D01*
X145789556Y-91015796D01*
X145810000Y-90939496D01*
X145810000Y-90860504D01*
X145789556Y-90784204D01*
X145750060Y-90715795D01*
X145694205Y-90659940D01*
X145676988Y-90650000D01*
X146609999Y-90650000D01*
X146609999Y-90571779D01*
X146609998Y-90571754D01*
X146607162Y-90535716D01*
X146562332Y-90381410D01*
X146562331Y-90381407D01*
X146480534Y-90243095D01*
X146480528Y-90243087D01*
X146366912Y-90129471D01*
X146366904Y-90129465D01*
X146228592Y-90047668D01*
X146228589Y-90047667D01*
X146074287Y-90002837D01*
X146074281Y-90002836D01*
X146038240Y-90000000D01*
X145862392Y-90000000D01*
X145795353Y-89980315D01*
X145749598Y-89927511D01*
X145742617Y-89908095D01*
X145742378Y-89907205D01*
X145739688Y-89897164D01*
X145670505Y-89777335D01*
X145572665Y-89679495D01*
X145572664Y-89679494D01*
X145572661Y-89679492D01*
X145452838Y-89610313D01*
X145452837Y-89610312D01*
X145452836Y-89610312D01*
X145319183Y-89574500D01*
X145180817Y-89574500D01*
X145047164Y-89610312D01*
X145047161Y-89610313D01*
X144927338Y-89679492D01*
X144927333Y-89679496D01*
X144829496Y-89777333D01*
X144829492Y-89777338D01*
X144760313Y-89897161D01*
X144760312Y-89897164D01*
X144724499Y-90030820D01*
X144724320Y-90032183D01*
X144723849Y-90033246D01*
X144722397Y-90038667D01*
X144721551Y-90038440D01*
X144696047Y-90096077D01*
X144664507Y-90122716D01*
X144653095Y-90129465D01*
X144653087Y-90129471D01*
X144539471Y-90243087D01*
X144539465Y-90243095D01*
X144457668Y-90381407D01*
X144457667Y-90381410D01*
X144412837Y-90535712D01*
X144412836Y-90535718D01*
X144410000Y-90571759D01*
X141070748Y-90571759D01*
X141067549Y-90564427D01*
X141053334Y-90538394D01*
X141052399Y-90529699D01*
X141051479Y-90527590D01*
X141051894Y-90525009D01*
X141050500Y-90512036D01*
X141050500Y-89287964D01*
X141070185Y-89220925D01*
X141086819Y-89200283D01*
X141096604Y-89190498D01*
X141110489Y-89176613D01*
X141169799Y-89073886D01*
X141200500Y-88959309D01*
X141200500Y-88840691D01*
X141169799Y-88726114D01*
X141110489Y-88623387D01*
X141026613Y-88539511D01*
X140923886Y-88480201D01*
X140809309Y-88449500D01*
X140690691Y-88449500D01*
X140576114Y-88480201D01*
X140576112Y-88480201D01*
X140576112Y-88480202D01*
X140473387Y-88539511D01*
X140473384Y-88539513D01*
X140412181Y-88600717D01*
X140350858Y-88634202D01*
X140281166Y-88629218D01*
X140225233Y-88587346D01*
X140200816Y-88521882D01*
X140200500Y-88513036D01*
X140200500Y-87030249D01*
X140200499Y-87030247D01*
X140188868Y-86971770D01*
X140188867Y-86971769D01*
X140137767Y-86895293D01*
X140140749Y-86893300D01*
X140117301Y-86850358D01*
X140122285Y-86780666D01*
X140164157Y-86724733D01*
X140229621Y-86700316D01*
X140238467Y-86700000D01*
X142911533Y-86700000D01*
X142978572Y-86719685D01*
X143024327Y-86772489D01*
X143034271Y-86841647D01*
X143010347Y-86894032D01*
X143012233Y-86895293D01*
X142961132Y-86971769D01*
X142961131Y-86971770D01*
X142949500Y-87030247D01*
X142949500Y-88357361D01*
X142929815Y-88424400D01*
X142877011Y-88470155D01*
X142807853Y-88480099D01*
X142778055Y-88471925D01*
X142773893Y-88470201D01*
X142773886Y-88470199D01*
X142659309Y-88439498D01*
X142540691Y-88439498D01*
X142426114Y-88470199D01*
X142426112Y-88470199D01*
X142426112Y-88470200D01*
X142323387Y-88529509D01*
X142323384Y-88529511D01*
X142239513Y-88613382D01*
X142239511Y-88613385D01*
X142180201Y-88716112D01*
X142149500Y-88830689D01*
X142149500Y-88949307D01*
X142180201Y-89063884D01*
X142239511Y-89166611D01*
X142323387Y-89250487D01*
X142426114Y-89309797D01*
X142540691Y-89340498D01*
X142540694Y-89340498D01*
X142659306Y-89340498D01*
X142659309Y-89340498D01*
X142773886Y-89309797D01*
X142876613Y-89250487D01*
X142900283Y-89226817D01*
X142961606Y-89193332D01*
X142987964Y-89190498D01*
X143149562Y-89190498D01*
X143149564Y-89190498D01*
X143225991Y-89170019D01*
X143294513Y-89130458D01*
X143350462Y-89074509D01*
X143638152Y-88786819D01*
X143699475Y-88753334D01*
X143725833Y-88750500D01*
X144169750Y-88750500D01*
X144169751Y-88750499D01*
X144184568Y-88747552D01*
X144228229Y-88738868D01*
X144228229Y-88738867D01*
X144228231Y-88738867D01*
X144294552Y-88694552D01*
X144338867Y-88628231D01*
X144338867Y-88628229D01*
X144338868Y-88628229D01*
X144344912Y-88597844D01*
X144650000Y-88597844D01*
X144656401Y-88657372D01*
X144656403Y-88657379D01*
X144706645Y-88792086D01*
X144706649Y-88792093D01*
X144792809Y-88907187D01*
X144792812Y-88907190D01*
X144907906Y-88993350D01*
X144907913Y-88993354D01*
X145042620Y-89043596D01*
X145042627Y-89043598D01*
X145102155Y-89049999D01*
X145102172Y-89050000D01*
X145400000Y-89050000D01*
X145900000Y-89050000D01*
X146197828Y-89050000D01*
X146197844Y-89049999D01*
X146257372Y-89043598D01*
X146257379Y-89043596D01*
X146392086Y-88993354D01*
X146392093Y-88993350D01*
X146507187Y-88907190D01*
X146507190Y-88907187D01*
X146593350Y-88792093D01*
X146593354Y-88792086D01*
X146643596Y-88657379D01*
X146643598Y-88657372D01*
X146649999Y-88597844D01*
X146650000Y-88597827D01*
X146650000Y-88050000D01*
X145900000Y-88050000D01*
X145900000Y-89050000D01*
X145400000Y-89050000D01*
X145400000Y-88050000D01*
X144650000Y-88050000D01*
X144650000Y-88597844D01*
X144344912Y-88597844D01*
X144350499Y-88569752D01*
X144350500Y-88569750D01*
X144350500Y-87030249D01*
X144350499Y-87030247D01*
X144338868Y-86971770D01*
X144338867Y-86971769D01*
X144287767Y-86895293D01*
X144290749Y-86893300D01*
X144290173Y-86892244D01*
X144275673Y-86875511D01*
X144273756Y-86862179D01*
X144267301Y-86850358D01*
X144268880Y-86828271D01*
X144265729Y-86806353D01*
X144271324Y-86794101D01*
X144272285Y-86780666D01*
X144285555Y-86762939D01*
X144294754Y-86742797D01*
X144306085Y-86735514D01*
X144314157Y-86724733D01*
X144334902Y-86716995D01*
X144353532Y-86705023D01*
X144375450Y-86701871D01*
X144379621Y-86700316D01*
X144388467Y-86700000D01*
X144568302Y-86700000D01*
X144635341Y-86719685D01*
X144681096Y-86772489D01*
X144691040Y-86841647D01*
X144684484Y-86867334D01*
X144656402Y-86942623D01*
X144656401Y-86942627D01*
X144650000Y-87002155D01*
X144650000Y-87550000D01*
X146650000Y-87550000D01*
X146650000Y-87002172D01*
X146649999Y-87002155D01*
X146643598Y-86942627D01*
X146643597Y-86942623D01*
X146615516Y-86867334D01*
X146610532Y-86797642D01*
X146644017Y-86736319D01*
X146705340Y-86702834D01*
X146731698Y-86700000D01*
X147276000Y-86700000D01*
X147343039Y-86719685D01*
X147388794Y-86772489D01*
X147400000Y-86824000D01*
X147400000Y-92476000D01*
X147380315Y-92543039D01*
X147327511Y-92588794D01*
X147276000Y-92600000D01*
X135724000Y-92600000D01*
X135656961Y-92580315D01*
X135611206Y-92527511D01*
X135600000Y-92476000D01*
X135600000Y-91150000D01*
X136390001Y-91150000D01*
X136390001Y-91228245D01*
X136392837Y-91264283D01*
X136437667Y-91418589D01*
X136437668Y-91418592D01*
X136519465Y-91556904D01*
X136519471Y-91556912D01*
X136633087Y-91670528D01*
X136633095Y-91670534D01*
X136771407Y-91752331D01*
X136771410Y-91752332D01*
X136925712Y-91797162D01*
X136925718Y-91797163D01*
X136961766Y-91799999D01*
X137137607Y-91799999D01*
X137204647Y-91819683D01*
X137250402Y-91872487D01*
X137257382Y-91891902D01*
X137260311Y-91902834D01*
X137260313Y-91902838D01*
X137329492Y-92022661D01*
X137329494Y-92022664D01*
X137329495Y-92022665D01*
X137427335Y-92120505D01*
X137547164Y-92189688D01*
X137680817Y-92225500D01*
X137680819Y-92225500D01*
X137819181Y-92225500D01*
X137819183Y-92225500D01*
X137952836Y-92189688D01*
X138072665Y-92120505D01*
X138170505Y-92022665D01*
X138239688Y-91902836D01*
X138275500Y-91769183D01*
X138275500Y-91769170D01*
X138275677Y-91767832D01*
X138276145Y-91766773D01*
X138277603Y-91761333D01*
X138278451Y-91761560D01*
X138303941Y-91703934D01*
X138335501Y-91677277D01*
X138346907Y-91670531D01*
X138346914Y-91670526D01*
X138460528Y-91556912D01*
X138460534Y-91556904D01*
X138542331Y-91418592D01*
X138542332Y-91418589D01*
X138587162Y-91264287D01*
X138587163Y-91264281D01*
X138589999Y-91228240D01*
X138590000Y-91228225D01*
X138590000Y-91150000D01*
X137656988Y-91150000D01*
X137674205Y-91140060D01*
X137730060Y-91084205D01*
X137769556Y-91015796D01*
X137790000Y-90939496D01*
X137790000Y-90860504D01*
X137769556Y-90784204D01*
X137730060Y-90715795D01*
X137674205Y-90659940D01*
X137656988Y-90650000D01*
X137740000Y-90650000D01*
X138589999Y-90650000D01*
X138589999Y-90571779D01*
X138589998Y-90571754D01*
X138587162Y-90535716D01*
X138542332Y-90381410D01*
X138542331Y-90381407D01*
X138460534Y-90243095D01*
X138460528Y-90243087D01*
X138346912Y-90129471D01*
X138346904Y-90129465D01*
X138208592Y-90047668D01*
X138208589Y-90047667D01*
X138054287Y-90002837D01*
X138054281Y-90002836D01*
X138018240Y-90000000D01*
X137740000Y-90000000D01*
X137740000Y-90650000D01*
X137656988Y-90650000D01*
X137605796Y-90620444D01*
X137529496Y-90600000D01*
X137450504Y-90600000D01*
X137374204Y-90620444D01*
X137305795Y-90659940D01*
X137249940Y-90715795D01*
X137210444Y-90784204D01*
X137190000Y-90860504D01*
X137190000Y-90939496D01*
X137210444Y-91015796D01*
X137249940Y-91084205D01*
X137305795Y-91140060D01*
X137323012Y-91150000D01*
X136390001Y-91150000D01*
X135600000Y-91150000D01*
X135600000Y-90571759D01*
X136390000Y-90571759D01*
X136390000Y-90650000D01*
X137240000Y-90650000D01*
X137240000Y-90000000D01*
X136961779Y-90000000D01*
X136961754Y-90000001D01*
X136925716Y-90002837D01*
X136771410Y-90047667D01*
X136771407Y-90047668D01*
X136633095Y-90129465D01*
X136633087Y-90129471D01*
X136519471Y-90243087D01*
X136519465Y-90243095D01*
X136437668Y-90381407D01*
X136437667Y-90381410D01*
X136392837Y-90535712D01*
X136392836Y-90535718D01*
X136390000Y-90571759D01*
X135600000Y-90571759D01*
X135600000Y-88597844D01*
X136400000Y-88597844D01*
X136406401Y-88657372D01*
X136406403Y-88657379D01*
X136456645Y-88792086D01*
X136456649Y-88792093D01*
X136542809Y-88907187D01*
X136542812Y-88907190D01*
X136657906Y-88993350D01*
X136657913Y-88993354D01*
X136792620Y-89043596D01*
X136792627Y-89043598D01*
X136852155Y-89049999D01*
X136852172Y-89050000D01*
X137150000Y-89050000D01*
X137650000Y-89050000D01*
X137947828Y-89050000D01*
X137947844Y-89049999D01*
X138007372Y-89043598D01*
X138007379Y-89043596D01*
X138142086Y-88993354D01*
X138142093Y-88993350D01*
X138257187Y-88907190D01*
X138257190Y-88907187D01*
X138343350Y-88792093D01*
X138343354Y-88792086D01*
X138393596Y-88657379D01*
X138393598Y-88657372D01*
X138399999Y-88597844D01*
X138400000Y-88597827D01*
X138400000Y-88050000D01*
X137650000Y-88050000D01*
X137650000Y-89050000D01*
X137150000Y-89050000D01*
X137150000Y-88050000D01*
X136400000Y-88050000D01*
X136400000Y-88597844D01*
X135600000Y-88597844D01*
X135600000Y-86824000D01*
X135619685Y-86756961D01*
X135672489Y-86711206D01*
X135724000Y-86700000D01*
X136318302Y-86700000D01*
X136385341Y-86719685D01*
G37*
%TD.AperFunction*%
D14*
X135500000Y-92700000D02*
X135500000Y-86600000D01*
X147500000Y-86600000D02*
X147500000Y-92700000D01*
X147500000Y-92700000D02*
X135500000Y-92700000D01*
X135500000Y-86600000D02*
X147500000Y-86600000D01*
M02*
