%TF.GenerationSoftware,KiCad,Pcbnew,9.0.3*%
%TF.CreationDate,2025-08-30T17:13:34+05:30*%
%TF.ProjectId,Halo_3_USB_v1p0,48616c6f-5f33-45f5-9553-425f76317030,Rev 1.0*%
%TF.SameCoordinates,Original*%
%TF.FileFunction,Legend,Top*%
%TF.FilePolarity,Positive*%
%FSLAX46Y46*%
G04 Gerber Fmt 4.6, Leading zero omitted, Abs format (unit mm)*
G04 Created by KiCad (PCBNEW 9.0.3) date 2025-08-30 17:13:34*
%MOMM*%
%LPD*%
G01*
G04 APERTURE LIST*
%ADD10C,0.100000*%
%TA.AperFunction,Profile*%
%ADD11C,0.200000*%
%TD*%
G04 APERTURE END LIST*
D10*
X144983609Y-88079449D02*
X144745514Y-88246115D01*
X144983609Y-88365163D02*
X144483609Y-88365163D01*
X144483609Y-88365163D02*
X144483609Y-88174687D01*
X144483609Y-88174687D02*
X144507419Y-88127068D01*
X144507419Y-88127068D02*
X144531228Y-88103258D01*
X144531228Y-88103258D02*
X144578847Y-88079449D01*
X144578847Y-88079449D02*
X144650276Y-88079449D01*
X144650276Y-88079449D02*
X144697895Y-88103258D01*
X144697895Y-88103258D02*
X144721704Y-88127068D01*
X144721704Y-88127068D02*
X144745514Y-88174687D01*
X144745514Y-88174687D02*
X144745514Y-88365163D01*
X144959800Y-87888972D02*
X144983609Y-87817544D01*
X144983609Y-87817544D02*
X144983609Y-87698496D01*
X144983609Y-87698496D02*
X144959800Y-87650877D01*
X144959800Y-87650877D02*
X144935990Y-87627068D01*
X144935990Y-87627068D02*
X144888371Y-87603258D01*
X144888371Y-87603258D02*
X144840752Y-87603258D01*
X144840752Y-87603258D02*
X144793133Y-87627068D01*
X144793133Y-87627068D02*
X144769323Y-87650877D01*
X144769323Y-87650877D02*
X144745514Y-87698496D01*
X144745514Y-87698496D02*
X144721704Y-87793734D01*
X144721704Y-87793734D02*
X144697895Y-87841353D01*
X144697895Y-87841353D02*
X144674085Y-87865163D01*
X144674085Y-87865163D02*
X144626466Y-87888972D01*
X144626466Y-87888972D02*
X144578847Y-87888972D01*
X144578847Y-87888972D02*
X144531228Y-87865163D01*
X144531228Y-87865163D02*
X144507419Y-87841353D01*
X144507419Y-87841353D02*
X144483609Y-87793734D01*
X144483609Y-87793734D02*
X144483609Y-87674687D01*
X144483609Y-87674687D02*
X144507419Y-87603258D01*
X144483609Y-87460401D02*
X144483609Y-87174687D01*
X144983609Y-87317544D02*
X144483609Y-87317544D01*
X139407419Y-88103258D02*
X139383609Y-88150877D01*
X139383609Y-88150877D02*
X139383609Y-88222306D01*
X139383609Y-88222306D02*
X139407419Y-88293734D01*
X139407419Y-88293734D02*
X139455038Y-88341353D01*
X139455038Y-88341353D02*
X139502657Y-88365163D01*
X139502657Y-88365163D02*
X139597895Y-88388972D01*
X139597895Y-88388972D02*
X139669323Y-88388972D01*
X139669323Y-88388972D02*
X139764561Y-88365163D01*
X139764561Y-88365163D02*
X139812180Y-88341353D01*
X139812180Y-88341353D02*
X139859800Y-88293734D01*
X139859800Y-88293734D02*
X139883609Y-88222306D01*
X139883609Y-88222306D02*
X139883609Y-88174687D01*
X139883609Y-88174687D02*
X139859800Y-88103258D01*
X139859800Y-88103258D02*
X139835990Y-88079449D01*
X139835990Y-88079449D02*
X139669323Y-88079449D01*
X139669323Y-88079449D02*
X139669323Y-88174687D01*
X139883609Y-87865163D02*
X139383609Y-87865163D01*
X139383609Y-87865163D02*
X139883609Y-87579449D01*
X139883609Y-87579449D02*
X139383609Y-87579449D01*
X139883609Y-87341353D02*
X139383609Y-87341353D01*
X139383609Y-87341353D02*
X139383609Y-87222305D01*
X139383609Y-87222305D02*
X139407419Y-87150877D01*
X139407419Y-87150877D02*
X139455038Y-87103258D01*
X139455038Y-87103258D02*
X139502657Y-87079448D01*
X139502657Y-87079448D02*
X139597895Y-87055639D01*
X139597895Y-87055639D02*
X139669323Y-87055639D01*
X139669323Y-87055639D02*
X139764561Y-87079448D01*
X139764561Y-87079448D02*
X139812180Y-87103258D01*
X139812180Y-87103258D02*
X139859800Y-87150877D01*
X139859800Y-87150877D02*
X139883609Y-87222305D01*
X139883609Y-87222305D02*
X139883609Y-87341353D01*
X141133609Y-88186591D02*
X141133609Y-87900877D01*
X141633609Y-88043734D02*
X141133609Y-88043734D01*
X141133609Y-87781830D02*
X141633609Y-87448497D01*
X141133609Y-87448497D02*
X141633609Y-87781830D01*
X143333609Y-87779449D02*
X143095514Y-87946115D01*
X143333609Y-88065163D02*
X142833609Y-88065163D01*
X142833609Y-88065163D02*
X142833609Y-87874687D01*
X142833609Y-87874687D02*
X142857419Y-87827068D01*
X142857419Y-87827068D02*
X142881228Y-87803258D01*
X142881228Y-87803258D02*
X142928847Y-87779449D01*
X142928847Y-87779449D02*
X143000276Y-87779449D01*
X143000276Y-87779449D02*
X143047895Y-87803258D01*
X143047895Y-87803258D02*
X143071704Y-87827068D01*
X143071704Y-87827068D02*
X143095514Y-87874687D01*
X143095514Y-87874687D02*
X143095514Y-88065163D01*
X142833609Y-87612782D02*
X143333609Y-87279449D01*
X142833609Y-87279449D02*
X143333609Y-87612782D01*
X146307419Y-88253258D02*
X146283609Y-88300877D01*
X146283609Y-88300877D02*
X146283609Y-88372306D01*
X146283609Y-88372306D02*
X146307419Y-88443734D01*
X146307419Y-88443734D02*
X146355038Y-88491353D01*
X146355038Y-88491353D02*
X146402657Y-88515163D01*
X146402657Y-88515163D02*
X146497895Y-88538972D01*
X146497895Y-88538972D02*
X146569323Y-88538972D01*
X146569323Y-88538972D02*
X146664561Y-88515163D01*
X146664561Y-88515163D02*
X146712180Y-88491353D01*
X146712180Y-88491353D02*
X146759800Y-88443734D01*
X146759800Y-88443734D02*
X146783609Y-88372306D01*
X146783609Y-88372306D02*
X146783609Y-88324687D01*
X146783609Y-88324687D02*
X146759800Y-88253258D01*
X146759800Y-88253258D02*
X146735990Y-88229449D01*
X146735990Y-88229449D02*
X146569323Y-88229449D01*
X146569323Y-88229449D02*
X146569323Y-88324687D01*
X146783609Y-88015163D02*
X146283609Y-88015163D01*
X146283609Y-88015163D02*
X146783609Y-87729449D01*
X146783609Y-87729449D02*
X146283609Y-87729449D01*
X146783609Y-87491353D02*
X146283609Y-87491353D01*
X146283609Y-87491353D02*
X146283609Y-87372305D01*
X146283609Y-87372305D02*
X146307419Y-87300877D01*
X146307419Y-87300877D02*
X146355038Y-87253258D01*
X146355038Y-87253258D02*
X146402657Y-87229448D01*
X146402657Y-87229448D02*
X146497895Y-87205639D01*
X146497895Y-87205639D02*
X146569323Y-87205639D01*
X146569323Y-87205639D02*
X146664561Y-87229448D01*
X146664561Y-87229448D02*
X146712180Y-87253258D01*
X146712180Y-87253258D02*
X146759800Y-87300877D01*
X146759800Y-87300877D02*
X146783609Y-87372305D01*
X146783609Y-87372305D02*
X146783609Y-87491353D01*
X145990000Y-89610000D02*
X145990000Y-89610000D01*
X146090000Y-89610000D02*
X146090000Y-89610000D01*
X145990000Y-89610000D02*
G75*
G02*
X146090000Y-89610000I50000J0D01*
G01*
X146090000Y-89610000D02*
G75*
G02*
X145990000Y-89610000I-50000J0D01*
G01*
D11*
X135500000Y-92700000D02*
X135500000Y-86600000D01*
X147500000Y-86600000D02*
X147500000Y-92700000D01*
X147500000Y-92700000D02*
X135500000Y-92700000D01*
X135500000Y-86600000D02*
X147500000Y-86600000D01*
M02*
