M48
; DRILL file {KiCad 9.0.3} date 2025-08-30T17:14:13+0530
; FORMAT={-:-/ absolute / metric / decimal}
; #@! TF.CreationDate,2025-08-30T17:14:13+05:30
; #@! TF.GenerationSoftware,Kicad,Pcbnew,9.0.3
; #@! TF.FileFunction,Plated,1,2,PTH
FMAT,2
METRIC
; #@! TA.AperFunction,Plated,PTH,ViaDrill
T1C0.300
; #@! TA.AperFunction,Plated,PTH,ComponentDrill
T2C0.600
%
G90
G05
T1
X135.9Y-87.65
X135.9Y-88.9
X136.25Y-90.15
X136.45Y-86.95
X136.7Y-92.25
X136.75Y-89.6
X137.65Y-89.35
X139.75Y-90.95
X140.75Y-88.9
X140.75Y-90.9
X141.5Y-88.9
X142.6Y-88.89
X144.65Y-89.0
X145.25Y-92.35
X145.75Y-89.3
X147.0Y-87.05
X147.05Y-89.05
X147.05Y-90.05
X147.1Y-88.0
X147.1Y-91.05
X147.1Y-91.9
T2
X137.49Y-90.9
X145.51Y-90.9
M30
