%TF.GenerationSoftware,KiCad,Pcbnew,9.0.3*%
%TF.CreationDate,2025-08-30T17:13:34+05:30*%
%TF.ProjectId,Halo_3_USB_v1p0,48616c6f-5f33-45f5-9553-425f76317030,Rev 1.0*%
%TF.SameCoordinates,Original*%
%TF.FileFunction,Other,User*%
%FSLAX46Y46*%
G04 Gerber Fmt 4.6, Leading zero omitted, Abs format (unit mm)*
G04 Created by KiCad (PCBNEW 9.0.3) date 2025-08-30 17:13:34*
%MOMM*%
%LPD*%
G01*
G04 APERTURE LIST*
%ADD10C,0.050000*%
%TA.AperFunction,Profile*%
%ADD11C,0.200000*%
%TD*%
G04 APERTURE END LIST*
D10*
X143275000Y-87050000D02*
X143275000Y-88550000D01*
X143275000Y-88550000D02*
X144025000Y-88550000D01*
X144025000Y-87050000D02*
X143275000Y-87050000D01*
X144025000Y-88550000D02*
X144025000Y-87050000D01*
X139125000Y-87050000D02*
X139125000Y-88550000D01*
X139125000Y-88550000D02*
X139875000Y-88550000D01*
X139875000Y-87050000D02*
X139125000Y-87050000D01*
X139875000Y-88550000D02*
X139875000Y-87050000D01*
X137025000Y-87050000D02*
X137775000Y-87050000D01*
X137025000Y-88550000D02*
X137025000Y-87050000D01*
X137775000Y-87050000D02*
X137775000Y-88550000D01*
X137775000Y-88550000D02*
X137025000Y-88550000D01*
X145275000Y-87050000D02*
X146025000Y-87050000D01*
X145275000Y-88550000D02*
X145275000Y-87050000D01*
X146025000Y-87050000D02*
X146025000Y-88550000D01*
X146025000Y-88550000D02*
X145275000Y-88550000D01*
D11*
X135500000Y-92700000D02*
X135500000Y-86600000D01*
X147500000Y-86600000D02*
X147500000Y-92700000D01*
X147500000Y-92700000D02*
X135500000Y-92700000D01*
X135500000Y-86600000D02*
X147500000Y-86600000D01*
M02*
