%TF.GenerationSoftware,KiCad,Pcbnew,9.0.3*%
%TF.CreationDate,2025-08-30T17:13:34+05:30*%
%TF.ProjectId,Halo_3_USB_v1p0,48616c6f-5f33-45f5-9553-425f76317030,Rev 1.0*%
%TF.SameCoordinates,Original*%
%TF.FileFunction,Legend,Bot*%
%TF.FilePolarity,Positive*%
%FSLAX46Y46*%
G04 Gerber Fmt 4.6, Leading zero omitted, Abs format (unit mm)*
G04 Created by KiCad (PCBNEW 9.0.3) date 2025-08-30 17:13:34*
%MOMM*%
%LPD*%
G01*
G04 APERTURE LIST*
%ADD10C,0.100000*%
%ADD11C,0.062500*%
%TA.AperFunction,Profile*%
%ADD12C,0.200000*%
%TD*%
G04 APERTURE END LIST*
D10*
X138390200Y-88938972D02*
X138366390Y-88867544D01*
X138366390Y-88867544D02*
X138366390Y-88748496D01*
X138366390Y-88748496D02*
X138390200Y-88700877D01*
X138390200Y-88700877D02*
X138414009Y-88677068D01*
X138414009Y-88677068D02*
X138461628Y-88653258D01*
X138461628Y-88653258D02*
X138509247Y-88653258D01*
X138509247Y-88653258D02*
X138556866Y-88677068D01*
X138556866Y-88677068D02*
X138580676Y-88700877D01*
X138580676Y-88700877D02*
X138604485Y-88748496D01*
X138604485Y-88748496D02*
X138628295Y-88843734D01*
X138628295Y-88843734D02*
X138652104Y-88891353D01*
X138652104Y-88891353D02*
X138675914Y-88915163D01*
X138675914Y-88915163D02*
X138723533Y-88938972D01*
X138723533Y-88938972D02*
X138771152Y-88938972D01*
X138771152Y-88938972D02*
X138818771Y-88915163D01*
X138818771Y-88915163D02*
X138842580Y-88891353D01*
X138842580Y-88891353D02*
X138866390Y-88843734D01*
X138866390Y-88843734D02*
X138866390Y-88724687D01*
X138866390Y-88724687D02*
X138842580Y-88653258D01*
X138866390Y-88486592D02*
X138366390Y-88367544D01*
X138366390Y-88367544D02*
X138723533Y-88272306D01*
X138723533Y-88272306D02*
X138366390Y-88177068D01*
X138366390Y-88177068D02*
X138866390Y-88058021D01*
X138366390Y-87867544D02*
X138866390Y-87867544D01*
X138866390Y-87867544D02*
X138866390Y-87748496D01*
X138866390Y-87748496D02*
X138842580Y-87677068D01*
X138842580Y-87677068D02*
X138794961Y-87629449D01*
X138794961Y-87629449D02*
X138747342Y-87605639D01*
X138747342Y-87605639D02*
X138652104Y-87581830D01*
X138652104Y-87581830D02*
X138580676Y-87581830D01*
X138580676Y-87581830D02*
X138485438Y-87605639D01*
X138485438Y-87605639D02*
X138437819Y-87629449D01*
X138437819Y-87629449D02*
X138390200Y-87677068D01*
X138390200Y-87677068D02*
X138366390Y-87748496D01*
X138366390Y-87748496D02*
X138366390Y-87867544D01*
X138366390Y-87367544D02*
X138866390Y-87367544D01*
X138866390Y-87034211D02*
X138866390Y-86938973D01*
X138866390Y-86938973D02*
X138842580Y-86891354D01*
X138842580Y-86891354D02*
X138794961Y-86843735D01*
X138794961Y-86843735D02*
X138699723Y-86819925D01*
X138699723Y-86819925D02*
X138533057Y-86819925D01*
X138533057Y-86819925D02*
X138437819Y-86843735D01*
X138437819Y-86843735D02*
X138390200Y-86891354D01*
X138390200Y-86891354D02*
X138366390Y-86938973D01*
X138366390Y-86938973D02*
X138366390Y-87034211D01*
X138366390Y-87034211D02*
X138390200Y-87081830D01*
X138390200Y-87081830D02*
X138437819Y-87129449D01*
X138437819Y-87129449D02*
X138533057Y-87153258D01*
X138533057Y-87153258D02*
X138699723Y-87153258D01*
X138699723Y-87153258D02*
X138794961Y-87129449D01*
X138794961Y-87129449D02*
X138842580Y-87081830D01*
X138842580Y-87081830D02*
X138866390Y-87034211D01*
D11*
X142649358Y-91666154D02*
X142649358Y-91416154D01*
X142649358Y-91535202D02*
X142506501Y-91535202D01*
X142506501Y-91666154D02*
X142506501Y-91416154D01*
X142399357Y-91594726D02*
X142280310Y-91594726D01*
X142423167Y-91666154D02*
X142339834Y-91416154D01*
X142339834Y-91416154D02*
X142256500Y-91666154D01*
X142054119Y-91666154D02*
X142173167Y-91666154D01*
X142173167Y-91666154D02*
X142173167Y-91416154D01*
X141923167Y-91416154D02*
X141875548Y-91416154D01*
X141875548Y-91416154D02*
X141851738Y-91428059D01*
X141851738Y-91428059D02*
X141827929Y-91451869D01*
X141827929Y-91451869D02*
X141816024Y-91499488D01*
X141816024Y-91499488D02*
X141816024Y-91582821D01*
X141816024Y-91582821D02*
X141827929Y-91630440D01*
X141827929Y-91630440D02*
X141851738Y-91654250D01*
X141851738Y-91654250D02*
X141875548Y-91666154D01*
X141875548Y-91666154D02*
X141923167Y-91666154D01*
X141923167Y-91666154D02*
X141946976Y-91654250D01*
X141946976Y-91654250D02*
X141970786Y-91630440D01*
X141970786Y-91630440D02*
X141982690Y-91582821D01*
X141982690Y-91582821D02*
X141982690Y-91499488D01*
X141982690Y-91499488D02*
X141970786Y-91451869D01*
X141970786Y-91451869D02*
X141946976Y-91428059D01*
X141946976Y-91428059D02*
X141923167Y-91416154D01*
X141530309Y-91439964D02*
X141518405Y-91428059D01*
X141518405Y-91428059D02*
X141494595Y-91416154D01*
X141494595Y-91416154D02*
X141435071Y-91416154D01*
X141435071Y-91416154D02*
X141411262Y-91428059D01*
X141411262Y-91428059D02*
X141399357Y-91439964D01*
X141399357Y-91439964D02*
X141387452Y-91463773D01*
X141387452Y-91463773D02*
X141387452Y-91487583D01*
X141387452Y-91487583D02*
X141399357Y-91523297D01*
X141399357Y-91523297D02*
X141542214Y-91666154D01*
X141542214Y-91666154D02*
X141387452Y-91666154D01*
X141125548Y-91416154D02*
X141042215Y-91666154D01*
X141042215Y-91666154D02*
X140958881Y-91416154D01*
X140780310Y-91654250D02*
X140804119Y-91666154D01*
X140804119Y-91666154D02*
X140851738Y-91666154D01*
X140851738Y-91666154D02*
X140875548Y-91654250D01*
X140875548Y-91654250D02*
X140887452Y-91630440D01*
X140887452Y-91630440D02*
X140887452Y-91535202D01*
X140887452Y-91535202D02*
X140875548Y-91511392D01*
X140875548Y-91511392D02*
X140851738Y-91499488D01*
X140851738Y-91499488D02*
X140804119Y-91499488D01*
X140804119Y-91499488D02*
X140780310Y-91511392D01*
X140780310Y-91511392D02*
X140768405Y-91535202D01*
X140768405Y-91535202D02*
X140768405Y-91559011D01*
X140768405Y-91559011D02*
X140887452Y-91582821D01*
X140661262Y-91666154D02*
X140661262Y-91499488D01*
X140661262Y-91547107D02*
X140649357Y-91523297D01*
X140649357Y-91523297D02*
X140637452Y-91511392D01*
X140637452Y-91511392D02*
X140613643Y-91499488D01*
X140613643Y-91499488D02*
X140589833Y-91499488D01*
X140506500Y-91642345D02*
X140494595Y-91654250D01*
X140494595Y-91654250D02*
X140506500Y-91666154D01*
X140506500Y-91666154D02*
X140518404Y-91654250D01*
X140518404Y-91654250D02*
X140506500Y-91642345D01*
X140506500Y-91642345D02*
X140506500Y-91666154D01*
X140066023Y-91666154D02*
X140208880Y-91666154D01*
X140137452Y-91666154D02*
X140137452Y-91416154D01*
X140137452Y-91416154D02*
X140161261Y-91451869D01*
X140161261Y-91451869D02*
X140185071Y-91475678D01*
X140185071Y-91475678D02*
X140208880Y-91487583D01*
D10*
X136742580Y-88253258D02*
X136766390Y-88300877D01*
X136766390Y-88300877D02*
X136766390Y-88372306D01*
X136766390Y-88372306D02*
X136742580Y-88443734D01*
X136742580Y-88443734D02*
X136694961Y-88491353D01*
X136694961Y-88491353D02*
X136647342Y-88515163D01*
X136647342Y-88515163D02*
X136552104Y-88538972D01*
X136552104Y-88538972D02*
X136480676Y-88538972D01*
X136480676Y-88538972D02*
X136385438Y-88515163D01*
X136385438Y-88515163D02*
X136337819Y-88491353D01*
X136337819Y-88491353D02*
X136290200Y-88443734D01*
X136290200Y-88443734D02*
X136266390Y-88372306D01*
X136266390Y-88372306D02*
X136266390Y-88324687D01*
X136266390Y-88324687D02*
X136290200Y-88253258D01*
X136290200Y-88253258D02*
X136314009Y-88229449D01*
X136314009Y-88229449D02*
X136480676Y-88229449D01*
X136480676Y-88229449D02*
X136480676Y-88324687D01*
X136266390Y-88015163D02*
X136766390Y-88015163D01*
X136766390Y-88015163D02*
X136266390Y-87729449D01*
X136266390Y-87729449D02*
X136766390Y-87729449D01*
X136266390Y-87491353D02*
X136766390Y-87491353D01*
X136766390Y-87491353D02*
X136766390Y-87372305D01*
X136766390Y-87372305D02*
X136742580Y-87300877D01*
X136742580Y-87300877D02*
X136694961Y-87253258D01*
X136694961Y-87253258D02*
X136647342Y-87229448D01*
X136647342Y-87229448D02*
X136552104Y-87205639D01*
X136552104Y-87205639D02*
X136480676Y-87205639D01*
X136480676Y-87205639D02*
X136385438Y-87229448D01*
X136385438Y-87229448D02*
X136337819Y-87253258D01*
X136337819Y-87253258D02*
X136290200Y-87300877D01*
X136290200Y-87300877D02*
X136266390Y-87372305D01*
X136266390Y-87372305D02*
X136266390Y-87491353D01*
X142590200Y-89088972D02*
X142566390Y-89017544D01*
X142566390Y-89017544D02*
X142566390Y-88898496D01*
X142566390Y-88898496D02*
X142590200Y-88850877D01*
X142590200Y-88850877D02*
X142614009Y-88827068D01*
X142614009Y-88827068D02*
X142661628Y-88803258D01*
X142661628Y-88803258D02*
X142709247Y-88803258D01*
X142709247Y-88803258D02*
X142756866Y-88827068D01*
X142756866Y-88827068D02*
X142780676Y-88850877D01*
X142780676Y-88850877D02*
X142804485Y-88898496D01*
X142804485Y-88898496D02*
X142828295Y-88993734D01*
X142828295Y-88993734D02*
X142852104Y-89041353D01*
X142852104Y-89041353D02*
X142875914Y-89065163D01*
X142875914Y-89065163D02*
X142923533Y-89088972D01*
X142923533Y-89088972D02*
X142971152Y-89088972D01*
X142971152Y-89088972D02*
X143018771Y-89065163D01*
X143018771Y-89065163D02*
X143042580Y-89041353D01*
X143042580Y-89041353D02*
X143066390Y-88993734D01*
X143066390Y-88993734D02*
X143066390Y-88874687D01*
X143066390Y-88874687D02*
X143042580Y-88803258D01*
X143066390Y-88636592D02*
X142566390Y-88517544D01*
X142566390Y-88517544D02*
X142923533Y-88422306D01*
X142923533Y-88422306D02*
X142566390Y-88327068D01*
X142566390Y-88327068D02*
X143066390Y-88208021D01*
X142614009Y-87731830D02*
X142590200Y-87755639D01*
X142590200Y-87755639D02*
X142566390Y-87827068D01*
X142566390Y-87827068D02*
X142566390Y-87874687D01*
X142566390Y-87874687D02*
X142590200Y-87946115D01*
X142590200Y-87946115D02*
X142637819Y-87993734D01*
X142637819Y-87993734D02*
X142685438Y-88017544D01*
X142685438Y-88017544D02*
X142780676Y-88041353D01*
X142780676Y-88041353D02*
X142852104Y-88041353D01*
X142852104Y-88041353D02*
X142947342Y-88017544D01*
X142947342Y-88017544D02*
X142994961Y-87993734D01*
X142994961Y-87993734D02*
X143042580Y-87946115D01*
X143042580Y-87946115D02*
X143066390Y-87874687D01*
X143066390Y-87874687D02*
X143066390Y-87827068D01*
X143066390Y-87827068D02*
X143042580Y-87755639D01*
X143042580Y-87755639D02*
X143018771Y-87731830D01*
X142566390Y-87279449D02*
X142566390Y-87517544D01*
X142566390Y-87517544D02*
X143066390Y-87517544D01*
X142566390Y-87112782D02*
X143066390Y-87112782D01*
X142566390Y-86827068D02*
X142852104Y-87041353D01*
X143066390Y-86827068D02*
X142780676Y-87112782D01*
X145042580Y-88103258D02*
X145066390Y-88150877D01*
X145066390Y-88150877D02*
X145066390Y-88222306D01*
X145066390Y-88222306D02*
X145042580Y-88293734D01*
X145042580Y-88293734D02*
X144994961Y-88341353D01*
X144994961Y-88341353D02*
X144947342Y-88365163D01*
X144947342Y-88365163D02*
X144852104Y-88388972D01*
X144852104Y-88388972D02*
X144780676Y-88388972D01*
X144780676Y-88388972D02*
X144685438Y-88365163D01*
X144685438Y-88365163D02*
X144637819Y-88341353D01*
X144637819Y-88341353D02*
X144590200Y-88293734D01*
X144590200Y-88293734D02*
X144566390Y-88222306D01*
X144566390Y-88222306D02*
X144566390Y-88174687D01*
X144566390Y-88174687D02*
X144590200Y-88103258D01*
X144590200Y-88103258D02*
X144614009Y-88079449D01*
X144614009Y-88079449D02*
X144780676Y-88079449D01*
X144780676Y-88079449D02*
X144780676Y-88174687D01*
X144566390Y-87865163D02*
X145066390Y-87865163D01*
X145066390Y-87865163D02*
X144566390Y-87579449D01*
X144566390Y-87579449D02*
X145066390Y-87579449D01*
X144566390Y-87341353D02*
X145066390Y-87341353D01*
X145066390Y-87341353D02*
X145066390Y-87222305D01*
X145066390Y-87222305D02*
X145042580Y-87150877D01*
X145042580Y-87150877D02*
X144994961Y-87103258D01*
X144994961Y-87103258D02*
X144947342Y-87079448D01*
X144947342Y-87079448D02*
X144852104Y-87055639D01*
X144852104Y-87055639D02*
X144780676Y-87055639D01*
X144780676Y-87055639D02*
X144685438Y-87079448D01*
X144685438Y-87079448D02*
X144637819Y-87103258D01*
X144637819Y-87103258D02*
X144590200Y-87150877D01*
X144590200Y-87150877D02*
X144566390Y-87222305D01*
X144566390Y-87222305D02*
X144566390Y-87341353D01*
D11*
X142566024Y-91935202D02*
X142530310Y-91947107D01*
X142530310Y-91947107D02*
X142518405Y-91959011D01*
X142518405Y-91959011D02*
X142506501Y-91982821D01*
X142506501Y-91982821D02*
X142506501Y-92018535D01*
X142506501Y-92018535D02*
X142518405Y-92042345D01*
X142518405Y-92042345D02*
X142530310Y-92054250D01*
X142530310Y-92054250D02*
X142554120Y-92066154D01*
X142554120Y-92066154D02*
X142649358Y-92066154D01*
X142649358Y-92066154D02*
X142649358Y-91816154D01*
X142649358Y-91816154D02*
X142566024Y-91816154D01*
X142566024Y-91816154D02*
X142542215Y-91828059D01*
X142542215Y-91828059D02*
X142530310Y-91839964D01*
X142530310Y-91839964D02*
X142518405Y-91863773D01*
X142518405Y-91863773D02*
X142518405Y-91887583D01*
X142518405Y-91887583D02*
X142530310Y-91911392D01*
X142530310Y-91911392D02*
X142542215Y-91923297D01*
X142542215Y-91923297D02*
X142566024Y-91935202D01*
X142566024Y-91935202D02*
X142649358Y-91935202D01*
X142363643Y-92066154D02*
X142387453Y-92054250D01*
X142387453Y-92054250D02*
X142399358Y-92030440D01*
X142399358Y-92030440D02*
X142399358Y-91816154D01*
X142161263Y-91899488D02*
X142161263Y-92066154D01*
X142268406Y-91899488D02*
X142268406Y-92030440D01*
X142268406Y-92030440D02*
X142256501Y-92054250D01*
X142256501Y-92054250D02*
X142232691Y-92066154D01*
X142232691Y-92066154D02*
X142196977Y-92066154D01*
X142196977Y-92066154D02*
X142173168Y-92054250D01*
X142173168Y-92054250D02*
X142161263Y-92042345D01*
X141935073Y-92066154D02*
X141935073Y-91935202D01*
X141935073Y-91935202D02*
X141946978Y-91911392D01*
X141946978Y-91911392D02*
X141970787Y-91899488D01*
X141970787Y-91899488D02*
X142018406Y-91899488D01*
X142018406Y-91899488D02*
X142042216Y-91911392D01*
X141935073Y-92054250D02*
X141958882Y-92066154D01*
X141958882Y-92066154D02*
X142018406Y-92066154D01*
X142018406Y-92066154D02*
X142042216Y-92054250D01*
X142042216Y-92054250D02*
X142054120Y-92030440D01*
X142054120Y-92030440D02*
X142054120Y-92006630D01*
X142054120Y-92006630D02*
X142042216Y-91982821D01*
X142042216Y-91982821D02*
X142018406Y-91970916D01*
X142018406Y-91970916D02*
X141958882Y-91970916D01*
X141958882Y-91970916D02*
X141935073Y-91959011D01*
X141816026Y-92066154D02*
X141816026Y-91899488D01*
X141816026Y-91947107D02*
X141804121Y-91923297D01*
X141804121Y-91923297D02*
X141792216Y-91911392D01*
X141792216Y-91911392D02*
X141768407Y-91899488D01*
X141768407Y-91899488D02*
X141744597Y-91899488D01*
X141661264Y-92066154D02*
X141661264Y-91899488D01*
X141661264Y-91923297D02*
X141649359Y-91911392D01*
X141649359Y-91911392D02*
X141625549Y-91899488D01*
X141625549Y-91899488D02*
X141589835Y-91899488D01*
X141589835Y-91899488D02*
X141566026Y-91911392D01*
X141566026Y-91911392D02*
X141554121Y-91935202D01*
X141554121Y-91935202D02*
X141554121Y-92066154D01*
X141554121Y-91935202D02*
X141542216Y-91911392D01*
X141542216Y-91911392D02*
X141518407Y-91899488D01*
X141518407Y-91899488D02*
X141482692Y-91899488D01*
X141482692Y-91899488D02*
X141458883Y-91911392D01*
X141458883Y-91911392D02*
X141446978Y-91935202D01*
X141446978Y-91935202D02*
X141446978Y-92066154D01*
X141292216Y-92066154D02*
X141316026Y-92054250D01*
X141316026Y-92054250D02*
X141327931Y-92042345D01*
X141327931Y-92042345D02*
X141339835Y-92018535D01*
X141339835Y-92018535D02*
X141339835Y-91947107D01*
X141339835Y-91947107D02*
X141327931Y-91923297D01*
X141327931Y-91923297D02*
X141316026Y-91911392D01*
X141316026Y-91911392D02*
X141292216Y-91899488D01*
X141292216Y-91899488D02*
X141256502Y-91899488D01*
X141256502Y-91899488D02*
X141232693Y-91911392D01*
X141232693Y-91911392D02*
X141220788Y-91923297D01*
X141220788Y-91923297D02*
X141208883Y-91947107D01*
X141208883Y-91947107D02*
X141208883Y-92018535D01*
X141208883Y-92018535D02*
X141220788Y-92042345D01*
X141220788Y-92042345D02*
X141232693Y-92054250D01*
X141232693Y-92054250D02*
X141256502Y-92066154D01*
X141256502Y-92066154D02*
X141292216Y-92066154D01*
X141101741Y-92066154D02*
X141101741Y-91899488D01*
X141101741Y-91947107D02*
X141089836Y-91923297D01*
X141089836Y-91923297D02*
X141077931Y-91911392D01*
X141077931Y-91911392D02*
X141054122Y-91899488D01*
X141054122Y-91899488D02*
X141030312Y-91899488D01*
D12*
X135500000Y-92700000D02*
X135500000Y-86600000D01*
X147500000Y-86600000D02*
X147500000Y-92700000D01*
X147500000Y-92700000D02*
X135500000Y-92700000D01*
X135500000Y-86600000D02*
X147500000Y-86600000D01*
M02*
