%TF.GenerationSoftware,KiCad,Pcbnew,9.0.3*%
%TF.CreationDate,2025-12-04T14:35:28+05:30*%
%TF.ProjectId,HALO 2 Charging Panel,48414c4f-2032-4204-9368-617267696e67,rev?*%
%TF.SameCoordinates,Original*%
%TF.FileFunction,Paste,Top*%
%TF.FilePolarity,Positive*%
%FSLAX46Y46*%
G04 Gerber Fmt 4.6, Leading zero omitted, Abs format (unit mm)*
G04 Created by KiCad (PCBNEW 9.0.3) date 2025-12-04 14:35:28*
%MOMM*%
%LPD*%
G01*
G04 APERTURE LIST*
%ADD10R,0.600000X0.400000*%
%ADD11R,0.400000X0.620000*%
%ADD12R,0.400000X0.500000*%
%ADD13R,0.620000X0.400000*%
%ADD14R,0.500000X0.400000*%
%ADD15R,0.400000X0.600000*%
%ADD16O,1.000000X2.200000*%
%ADD17R,0.550000X1.230100*%
%ADD18R,0.300000X1.230100*%
G04 APERTURE END LIST*
D10*
%TO.C,R28*%
X169466330Y-93216625D03*
X169466330Y-94116625D03*
%TD*%
D11*
%TO.C,D4*%
X191816330Y-113471125D03*
D12*
X191816330Y-112716125D03*
%TD*%
D11*
%TO.C,D3*%
X108166330Y-94521625D03*
D12*
X108166330Y-93766625D03*
%TD*%
D10*
%TO.C,R29*%
X181566330Y-70416625D03*
X181566330Y-71316625D03*
%TD*%
D11*
%TO.C,D2*%
X107116330Y-75471625D03*
D12*
X107116330Y-74716625D03*
%TD*%
D11*
%TO.C,D4*%
X191816330Y-56471125D03*
D12*
X191816330Y-55716125D03*
%TD*%
D11*
%TO.C,D2*%
X107116330Y-94471625D03*
D12*
X107116330Y-93716625D03*
%TD*%
D13*
%TO.C,D1*%
X100311330Y-73366625D03*
D14*
X101066330Y-73366625D03*
%TD*%
D11*
%TO.C,D5*%
X159366330Y-75521625D03*
D12*
X159366330Y-74766625D03*
%TD*%
D11*
%TO.C,D4*%
X165016330Y-113471125D03*
D12*
X165016330Y-112716125D03*
%TD*%
D11*
%TO.C,D5*%
X105766330Y-113521625D03*
D12*
X105766330Y-112766625D03*
%TD*%
D15*
%TO.C,R30*%
X181516330Y-91316625D03*
X180616330Y-91316625D03*
%TD*%
D11*
%TO.C,D4*%
X138216330Y-75471125D03*
D12*
X138216330Y-74716125D03*
%TD*%
D15*
%TO.C,R30*%
X101116330Y-53316625D03*
X100216330Y-53316625D03*
%TD*%
%TO.C,R57*%
X101116330Y-112411545D03*
X100216330Y-112411545D03*
%TD*%
D16*
%TO.C,J1*%
X193141230Y-50452525D03*
X183341430Y-50452525D03*
D17*
X190641330Y-54262675D03*
D18*
X189491230Y-54262675D03*
X188491230Y-54262675D03*
X187991430Y-54262675D03*
X186991430Y-54262675D03*
D17*
X185841330Y-54262675D03*
X185041430Y-54262675D03*
D18*
X186491530Y-54262675D03*
X187491230Y-54262675D03*
X188991430Y-54262675D03*
X189991430Y-54262675D03*
D17*
X191441230Y-54262675D03*
%TD*%
D15*
%TO.C,R30*%
X181516330Y-53316625D03*
X180616330Y-53316625D03*
%TD*%
D10*
%TO.C,R29*%
X101166330Y-32416625D03*
X101166330Y-33316625D03*
%TD*%
D15*
%TO.C,R30*%
X101116330Y-72316625D03*
X100216330Y-72316625D03*
%TD*%
D11*
%TO.C,D5*%
X132566330Y-37521625D03*
D12*
X132566330Y-36766625D03*
%TD*%
D10*
%TO.C,R29*%
X127966330Y-51416625D03*
X127966330Y-52316625D03*
%TD*%
D15*
%TO.C,R57*%
X127916330Y-112411545D03*
X127016330Y-112411545D03*
%TD*%
D11*
%TO.C,D5*%
X159366330Y-94521625D03*
D12*
X159366330Y-93766625D03*
%TD*%
D11*
%TO.C,D5*%
X186166330Y-56521625D03*
D12*
X186166330Y-55766625D03*
%TD*%
D11*
%TO.C,D3*%
X161766330Y-37521625D03*
D12*
X161766330Y-36766625D03*
%TD*%
D15*
%TO.C,R57*%
X181516330Y-74411545D03*
X180616330Y-74411545D03*
%TD*%
D10*
%TO.C,R29*%
X154766330Y-89416625D03*
X154766330Y-90316625D03*
%TD*%
D13*
%TO.C,D1*%
X100311330Y-54366625D03*
D14*
X101066330Y-54366625D03*
%TD*%
D11*
%TO.C,D3*%
X108166330Y-113521625D03*
D12*
X108166330Y-112766625D03*
%TD*%
D15*
%TO.C,R30*%
X101116330Y-110316625D03*
X100216330Y-110316625D03*
%TD*%
D11*
%TO.C,D2*%
X133916330Y-113471625D03*
D12*
X133916330Y-112716625D03*
%TD*%
D10*
%TO.C,R29*%
X181566330Y-89416625D03*
X181566330Y-90316625D03*
%TD*%
D16*
%TO.C,J1*%
X139541230Y-50452525D03*
X129741430Y-50452525D03*
D17*
X137041330Y-54262675D03*
D18*
X135891230Y-54262675D03*
X134891230Y-54262675D03*
X134391430Y-54262675D03*
X133391430Y-54262675D03*
D17*
X132241330Y-54262675D03*
X131441430Y-54262675D03*
D18*
X132891530Y-54262675D03*
X133891230Y-54262675D03*
X135391430Y-54262675D03*
X136391430Y-54262675D03*
D17*
X137841230Y-54262675D03*
%TD*%
D10*
%TO.C,R29*%
X154766330Y-70416625D03*
X154766330Y-71316625D03*
%TD*%
D16*
%TO.C,J1*%
X166341230Y-31452525D03*
X156541430Y-31452525D03*
D17*
X163841330Y-35262675D03*
D18*
X162691230Y-35262675D03*
X161691230Y-35262675D03*
X161191430Y-35262675D03*
X160191430Y-35262675D03*
D17*
X159041330Y-35262675D03*
X158241430Y-35262675D03*
D18*
X159691530Y-35262675D03*
X160691230Y-35262675D03*
X162191430Y-35262675D03*
X163191430Y-35262675D03*
D17*
X164641230Y-35262675D03*
%TD*%
D10*
%TO.C,R29*%
X127966330Y-32416625D03*
X127966330Y-33316625D03*
%TD*%
D13*
%TO.C,D1*%
X127111330Y-92366625D03*
D14*
X127866330Y-92366625D03*
%TD*%
D11*
%TO.C,D3*%
X134966330Y-94521625D03*
D12*
X134966330Y-93766625D03*
%TD*%
D10*
%TO.C,R28*%
X169466330Y-112216625D03*
X169466330Y-113116625D03*
%TD*%
D13*
%TO.C,D1*%
X153911330Y-92366625D03*
D14*
X154666330Y-92366625D03*
%TD*%
D16*
%TO.C,J1*%
X139541230Y-31452525D03*
X129741430Y-31452525D03*
D17*
X137041330Y-35262675D03*
D18*
X135891230Y-35262675D03*
X134891230Y-35262675D03*
X134391430Y-35262675D03*
X133391430Y-35262675D03*
D17*
X132241330Y-35262675D03*
X131441430Y-35262675D03*
D18*
X132891530Y-35262675D03*
X133891230Y-35262675D03*
X135391430Y-35262675D03*
X136391430Y-35262675D03*
D17*
X137841230Y-35262675D03*
%TD*%
D11*
%TO.C,D2*%
X187516330Y-56471625D03*
D12*
X187516330Y-55716625D03*
%TD*%
D11*
%TO.C,D5*%
X186166330Y-75521625D03*
D12*
X186166330Y-74766625D03*
%TD*%
D15*
%TO.C,R57*%
X101116330Y-93411545D03*
X100216330Y-93411545D03*
%TD*%
D13*
%TO.C,D1*%
X180711330Y-35366625D03*
D14*
X181466330Y-35366625D03*
%TD*%
D13*
%TO.C,D1*%
X180711330Y-73366625D03*
D14*
X181466330Y-73366625D03*
%TD*%
D11*
%TO.C,D2*%
X107116330Y-56471625D03*
D12*
X107116330Y-55716625D03*
%TD*%
D10*
%TO.C,R29*%
X154766330Y-32416625D03*
X154766330Y-33316625D03*
%TD*%
D15*
%TO.C,R30*%
X154716330Y-72316625D03*
X153816330Y-72316625D03*
%TD*%
D11*
%TO.C,D3*%
X188566330Y-37521625D03*
D12*
X188566330Y-36766625D03*
%TD*%
D13*
%TO.C,D1*%
X127111330Y-111366625D03*
D14*
X127866330Y-111366625D03*
%TD*%
D11*
%TO.C,D4*%
X165016330Y-37471125D03*
D12*
X165016330Y-36716125D03*
%TD*%
D16*
%TO.C,J1*%
X139541230Y-107452525D03*
X129741430Y-107452525D03*
D17*
X137041330Y-111262675D03*
D18*
X135891230Y-111262675D03*
X134891230Y-111262675D03*
X134391430Y-111262675D03*
X133391430Y-111262675D03*
D17*
X132241330Y-111262675D03*
X131441430Y-111262675D03*
D18*
X132891530Y-111262675D03*
X133891230Y-111262675D03*
X135391430Y-111262675D03*
X136391430Y-111262675D03*
D17*
X137841230Y-111262675D03*
%TD*%
D11*
%TO.C,D2*%
X160716330Y-75471625D03*
D12*
X160716330Y-74716625D03*
%TD*%
D15*
%TO.C,R30*%
X181516330Y-110316625D03*
X180616330Y-110316625D03*
%TD*%
D16*
%TO.C,J1*%
X193141230Y-107452525D03*
X183341430Y-107452525D03*
D17*
X190641330Y-111262675D03*
D18*
X189491230Y-111262675D03*
X188491230Y-111262675D03*
X187991430Y-111262675D03*
X186991430Y-111262675D03*
D17*
X185841330Y-111262675D03*
X185041430Y-111262675D03*
D18*
X186491530Y-111262675D03*
X187491230Y-111262675D03*
X188991430Y-111262675D03*
X189991430Y-111262675D03*
D17*
X191441230Y-111262675D03*
%TD*%
D16*
%TO.C,J1*%
X112741230Y-88452525D03*
X102941430Y-88452525D03*
D17*
X110241330Y-92262675D03*
D18*
X109091230Y-92262675D03*
X108091230Y-92262675D03*
X107591430Y-92262675D03*
X106591430Y-92262675D03*
D17*
X105441330Y-92262675D03*
X104641430Y-92262675D03*
D18*
X106091530Y-92262675D03*
X107091230Y-92262675D03*
X108591430Y-92262675D03*
X109591430Y-92262675D03*
D17*
X111041230Y-92262675D03*
%TD*%
D15*
%TO.C,R30*%
X127916330Y-91316625D03*
X127016330Y-91316625D03*
%TD*%
D10*
%TO.C,R28*%
X115866330Y-93216625D03*
X115866330Y-94116625D03*
%TD*%
D13*
%TO.C,D1*%
X127111330Y-73366625D03*
D14*
X127866330Y-73366625D03*
%TD*%
D11*
%TO.C,D4*%
X111416330Y-37471125D03*
D12*
X111416330Y-36716125D03*
%TD*%
D11*
%TO.C,D3*%
X134966330Y-37521625D03*
D12*
X134966330Y-36766625D03*
%TD*%
D11*
%TO.C,D5*%
X105766330Y-75521625D03*
D12*
X105766330Y-74766625D03*
%TD*%
D10*
%TO.C,R28*%
X115866330Y-55216625D03*
X115866330Y-56116625D03*
%TD*%
D11*
%TO.C,D2*%
X133916330Y-75471625D03*
D12*
X133916330Y-74716625D03*
%TD*%
D10*
%TO.C,R29*%
X181566330Y-108416625D03*
X181566330Y-109316625D03*
%TD*%
D11*
%TO.C,D5*%
X132566330Y-94521625D03*
D12*
X132566330Y-93766625D03*
%TD*%
D11*
%TO.C,D3*%
X161766330Y-94521625D03*
D12*
X161766330Y-93766625D03*
%TD*%
D11*
%TO.C,D4*%
X191816330Y-94471125D03*
D12*
X191816330Y-93716125D03*
%TD*%
D11*
%TO.C,D3*%
X134966330Y-56521625D03*
D12*
X134966330Y-55766625D03*
%TD*%
D15*
%TO.C,R30*%
X181516330Y-72316625D03*
X180616330Y-72316625D03*
%TD*%
D13*
%TO.C,D1*%
X127111330Y-35366625D03*
D14*
X127866330Y-35366625D03*
%TD*%
D16*
%TO.C,J1*%
X139541230Y-69452525D03*
X129741430Y-69452525D03*
D17*
X137041330Y-73262675D03*
D18*
X135891230Y-73262675D03*
X134891230Y-73262675D03*
X134391430Y-73262675D03*
X133391430Y-73262675D03*
D17*
X132241330Y-73262675D03*
X131441430Y-73262675D03*
D18*
X132891530Y-73262675D03*
X133891230Y-73262675D03*
X135391430Y-73262675D03*
X136391430Y-73262675D03*
D17*
X137841230Y-73262675D03*
%TD*%
D13*
%TO.C,D1*%
X153911330Y-111366625D03*
D14*
X154666330Y-111366625D03*
%TD*%
D11*
%TO.C,D5*%
X186166330Y-113521625D03*
D12*
X186166330Y-112766625D03*
%TD*%
D11*
%TO.C,D3*%
X188566330Y-94521625D03*
D12*
X188566330Y-93766625D03*
%TD*%
D16*
%TO.C,J1*%
X166341230Y-50452525D03*
X156541430Y-50452525D03*
D17*
X163841330Y-54262675D03*
D18*
X162691230Y-54262675D03*
X161691230Y-54262675D03*
X161191430Y-54262675D03*
X160191430Y-54262675D03*
D17*
X159041330Y-54262675D03*
X158241430Y-54262675D03*
D18*
X159691530Y-54262675D03*
X160691230Y-54262675D03*
X162191430Y-54262675D03*
X163191430Y-54262675D03*
D17*
X164641230Y-54262675D03*
%TD*%
D11*
%TO.C,D5*%
X159366330Y-113521625D03*
D12*
X159366330Y-112766625D03*
%TD*%
D15*
%TO.C,R30*%
X154716330Y-34316625D03*
X153816330Y-34316625D03*
%TD*%
%TO.C,R57*%
X181516330Y-36411545D03*
X180616330Y-36411545D03*
%TD*%
D11*
%TO.C,D3*%
X161766330Y-56521625D03*
D12*
X161766330Y-55766625D03*
%TD*%
D15*
%TO.C,R57*%
X127916330Y-74411545D03*
X127016330Y-74411545D03*
%TD*%
D10*
%TO.C,R29*%
X127966330Y-108416625D03*
X127966330Y-109316625D03*
%TD*%
D15*
%TO.C,R57*%
X154716330Y-74411545D03*
X153816330Y-74411545D03*
%TD*%
D11*
%TO.C,D3*%
X188566330Y-56521625D03*
D12*
X188566330Y-55766625D03*
%TD*%
D10*
%TO.C,R29*%
X101166330Y-51416625D03*
X101166330Y-52316625D03*
%TD*%
D16*
%TO.C,J1*%
X166341230Y-69452525D03*
X156541430Y-69452525D03*
D17*
X163841330Y-73262675D03*
D18*
X162691230Y-73262675D03*
X161691230Y-73262675D03*
X161191430Y-73262675D03*
X160191430Y-73262675D03*
D17*
X159041330Y-73262675D03*
X158241430Y-73262675D03*
D18*
X159691530Y-73262675D03*
X160691230Y-73262675D03*
X162191430Y-73262675D03*
X163191430Y-73262675D03*
D17*
X164641230Y-73262675D03*
%TD*%
D10*
%TO.C,R28*%
X196266330Y-93216625D03*
X196266330Y-94116625D03*
%TD*%
D11*
%TO.C,D4*%
X111416330Y-94471125D03*
D12*
X111416330Y-93716125D03*
%TD*%
D16*
%TO.C,J1*%
X166341230Y-88452525D03*
X156541430Y-88452525D03*
D17*
X163841330Y-92262675D03*
D18*
X162691230Y-92262675D03*
X161691230Y-92262675D03*
X161191430Y-92262675D03*
X160191430Y-92262675D03*
D17*
X159041330Y-92262675D03*
X158241430Y-92262675D03*
D18*
X159691530Y-92262675D03*
X160691230Y-92262675D03*
X162191430Y-92262675D03*
X163191430Y-92262675D03*
D17*
X164641230Y-92262675D03*
%TD*%
D15*
%TO.C,R30*%
X127916330Y-110316625D03*
X127016330Y-110316625D03*
%TD*%
D11*
%TO.C,D3*%
X108166330Y-75521625D03*
D12*
X108166330Y-74766625D03*
%TD*%
D10*
%TO.C,R28*%
X169466330Y-55216625D03*
X169466330Y-56116625D03*
%TD*%
D11*
%TO.C,D2*%
X187516330Y-113471625D03*
D12*
X187516330Y-112716625D03*
%TD*%
D15*
%TO.C,R30*%
X101116330Y-91316625D03*
X100216330Y-91316625D03*
%TD*%
D11*
%TO.C,D2*%
X187516330Y-94471625D03*
D12*
X187516330Y-93716625D03*
%TD*%
D11*
%TO.C,D4*%
X165016330Y-56471125D03*
D12*
X165016330Y-55716125D03*
%TD*%
D10*
%TO.C,R28*%
X196266330Y-74216625D03*
X196266330Y-75116625D03*
%TD*%
D15*
%TO.C,R57*%
X127916330Y-55411545D03*
X127016330Y-55411545D03*
%TD*%
D11*
%TO.C,D2*%
X160716330Y-113471625D03*
D12*
X160716330Y-112716625D03*
%TD*%
D11*
%TO.C,D4*%
X138216330Y-94471125D03*
D12*
X138216330Y-93716125D03*
%TD*%
D10*
%TO.C,R28*%
X196266330Y-112216625D03*
X196266330Y-113116625D03*
%TD*%
D11*
%TO.C,D3*%
X161766330Y-75521625D03*
D12*
X161766330Y-74766625D03*
%TD*%
D10*
%TO.C,R28*%
X115866330Y-74216625D03*
X115866330Y-75116625D03*
%TD*%
D11*
%TO.C,D5*%
X159366330Y-37521625D03*
D12*
X159366330Y-36766625D03*
%TD*%
D11*
%TO.C,D5*%
X186166330Y-94521625D03*
D12*
X186166330Y-93766625D03*
%TD*%
D11*
%TO.C,D2*%
X160716330Y-56471625D03*
D12*
X160716330Y-55716625D03*
%TD*%
D11*
%TO.C,D3*%
X188566330Y-75521625D03*
D12*
X188566330Y-74766625D03*
%TD*%
D13*
%TO.C,D1*%
X153911330Y-35366625D03*
D14*
X154666330Y-35366625D03*
%TD*%
D15*
%TO.C,R57*%
X181516330Y-93411545D03*
X180616330Y-93411545D03*
%TD*%
D11*
%TO.C,D3*%
X188566330Y-113521625D03*
D12*
X188566330Y-112766625D03*
%TD*%
D10*
%TO.C,R29*%
X101166330Y-70416625D03*
X101166330Y-71316625D03*
%TD*%
D16*
%TO.C,J1*%
X193141230Y-88452525D03*
X183341430Y-88452525D03*
D17*
X190641330Y-92262675D03*
D18*
X189491230Y-92262675D03*
X188491230Y-92262675D03*
X187991430Y-92262675D03*
X186991430Y-92262675D03*
D17*
X185841330Y-92262675D03*
X185041430Y-92262675D03*
D18*
X186491530Y-92262675D03*
X187491230Y-92262675D03*
X188991430Y-92262675D03*
X189991430Y-92262675D03*
D17*
X191441230Y-92262675D03*
%TD*%
D11*
%TO.C,D4*%
X111416330Y-56471125D03*
D12*
X111416330Y-55716125D03*
%TD*%
D11*
%TO.C,D5*%
X105766330Y-94521625D03*
D12*
X105766330Y-93766625D03*
%TD*%
D11*
%TO.C,D2*%
X133916330Y-37471625D03*
D12*
X133916330Y-36716625D03*
%TD*%
D10*
%TO.C,R28*%
X142666330Y-55216625D03*
X142666330Y-56116625D03*
%TD*%
%TO.C,R29*%
X154766330Y-108416625D03*
X154766330Y-109316625D03*
%TD*%
D15*
%TO.C,R30*%
X154716330Y-110316625D03*
X153816330Y-110316625D03*
%TD*%
%TO.C,R57*%
X154716330Y-55411545D03*
X153816330Y-55411545D03*
%TD*%
D10*
%TO.C,R28*%
X196266330Y-55216625D03*
X196266330Y-56116625D03*
%TD*%
D15*
%TO.C,R30*%
X181516330Y-34316625D03*
X180616330Y-34316625D03*
%TD*%
D11*
%TO.C,D5*%
X132566330Y-56521625D03*
D12*
X132566330Y-55766625D03*
%TD*%
D16*
%TO.C,J1*%
X193141230Y-69452525D03*
X183341430Y-69452525D03*
D17*
X190641330Y-73262675D03*
D18*
X189491230Y-73262675D03*
X188491230Y-73262675D03*
X187991430Y-73262675D03*
X186991430Y-73262675D03*
D17*
X185841330Y-73262675D03*
X185041430Y-73262675D03*
D18*
X186491530Y-73262675D03*
X187491230Y-73262675D03*
X188991430Y-73262675D03*
X189991430Y-73262675D03*
D17*
X191441230Y-73262675D03*
%TD*%
D11*
%TO.C,D4*%
X111416330Y-75471125D03*
D12*
X111416330Y-74716125D03*
%TD*%
D13*
%TO.C,D1*%
X100311330Y-35366625D03*
D14*
X101066330Y-35366625D03*
%TD*%
D11*
%TO.C,D3*%
X108166330Y-37521625D03*
D12*
X108166330Y-36766625D03*
%TD*%
D10*
%TO.C,R28*%
X142666330Y-93216625D03*
X142666330Y-94116625D03*
%TD*%
D13*
%TO.C,D1*%
X100311330Y-92366625D03*
D14*
X101066330Y-92366625D03*
%TD*%
D13*
%TO.C,D1*%
X100311330Y-111366625D03*
D14*
X101066330Y-111366625D03*
%TD*%
D11*
%TO.C,D4*%
X165016330Y-75471125D03*
D12*
X165016330Y-74716125D03*
%TD*%
D13*
%TO.C,D1*%
X180711330Y-92366625D03*
D14*
X181466330Y-92366625D03*
%TD*%
D15*
%TO.C,R57*%
X127916330Y-36411545D03*
X127016330Y-36411545D03*
%TD*%
D11*
%TO.C,D4*%
X191816330Y-75471125D03*
D12*
X191816330Y-74716125D03*
%TD*%
D16*
%TO.C,J1*%
X139541230Y-88452525D03*
X129741430Y-88452525D03*
D17*
X137041330Y-92262675D03*
D18*
X135891230Y-92262675D03*
X134891230Y-92262675D03*
X134391430Y-92262675D03*
X133391430Y-92262675D03*
D17*
X132241330Y-92262675D03*
X131441430Y-92262675D03*
D18*
X132891530Y-92262675D03*
X133891230Y-92262675D03*
X135391430Y-92262675D03*
X136391430Y-92262675D03*
D17*
X137841230Y-92262675D03*
%TD*%
D16*
%TO.C,J1*%
X112741230Y-31452525D03*
X102941430Y-31452525D03*
D17*
X110241330Y-35262675D03*
D18*
X109091230Y-35262675D03*
X108091230Y-35262675D03*
X107591430Y-35262675D03*
X106591430Y-35262675D03*
D17*
X105441330Y-35262675D03*
X104641430Y-35262675D03*
D18*
X106091530Y-35262675D03*
X107091230Y-35262675D03*
X108591430Y-35262675D03*
X109591430Y-35262675D03*
D17*
X111041230Y-35262675D03*
%TD*%
D10*
%TO.C,R29*%
X101166330Y-108416625D03*
X101166330Y-109316625D03*
%TD*%
D15*
%TO.C,R57*%
X154716330Y-93411545D03*
X153816330Y-93411545D03*
%TD*%
D11*
%TO.C,D2*%
X133916330Y-94471625D03*
D12*
X133916330Y-93716625D03*
%TD*%
D15*
%TO.C,R57*%
X154716330Y-36411545D03*
X153816330Y-36411545D03*
%TD*%
%TO.C,R57*%
X154716330Y-112411545D03*
X153816330Y-112411545D03*
%TD*%
D13*
%TO.C,D1*%
X127111330Y-54366625D03*
D14*
X127866330Y-54366625D03*
%TD*%
D10*
%TO.C,R29*%
X154766330Y-51416625D03*
X154766330Y-52316625D03*
%TD*%
%TO.C,R29*%
X127966330Y-70416625D03*
X127966330Y-71316625D03*
%TD*%
D11*
%TO.C,D5*%
X105766330Y-56521625D03*
D12*
X105766330Y-55766625D03*
%TD*%
D10*
%TO.C,R28*%
X169466330Y-74216625D03*
X169466330Y-75116625D03*
%TD*%
D11*
%TO.C,D3*%
X161766330Y-113521625D03*
D12*
X161766330Y-112766625D03*
%TD*%
D11*
%TO.C,D4*%
X138216330Y-56471125D03*
D12*
X138216330Y-55716125D03*
%TD*%
D11*
%TO.C,D4*%
X191816330Y-37471125D03*
D12*
X191816330Y-36716125D03*
%TD*%
D10*
%TO.C,R28*%
X142666330Y-74216625D03*
X142666330Y-75116625D03*
%TD*%
D15*
%TO.C,R57*%
X127916330Y-93411545D03*
X127016330Y-93411545D03*
%TD*%
%TO.C,R57*%
X181516330Y-112411545D03*
X180616330Y-112411545D03*
%TD*%
D16*
%TO.C,J1*%
X193141230Y-31452525D03*
X183341430Y-31452525D03*
D17*
X190641330Y-35262675D03*
D18*
X189491230Y-35262675D03*
X188491230Y-35262675D03*
X187991430Y-35262675D03*
X186991430Y-35262675D03*
D17*
X185841330Y-35262675D03*
X185041430Y-35262675D03*
D18*
X186491530Y-35262675D03*
X187491230Y-35262675D03*
X188991430Y-35262675D03*
X189991430Y-35262675D03*
D17*
X191441230Y-35262675D03*
%TD*%
D11*
%TO.C,D4*%
X138216330Y-113471125D03*
D12*
X138216330Y-112716125D03*
%TD*%
D11*
%TO.C,D3*%
X134966330Y-113521625D03*
D12*
X134966330Y-112766625D03*
%TD*%
D13*
%TO.C,D1*%
X153911330Y-73366625D03*
D14*
X154666330Y-73366625D03*
%TD*%
D15*
%TO.C,R30*%
X127916330Y-34316625D03*
X127016330Y-34316625D03*
%TD*%
%TO.C,R57*%
X101116330Y-36411545D03*
X100216330Y-36411545D03*
%TD*%
%TO.C,R57*%
X101116330Y-55411545D03*
X100216330Y-55411545D03*
%TD*%
D13*
%TO.C,D1*%
X180711330Y-111366625D03*
D14*
X181466330Y-111366625D03*
%TD*%
D10*
%TO.C,R28*%
X115866330Y-112216625D03*
X115866330Y-113116625D03*
%TD*%
%TO.C,R28*%
X196266330Y-36216625D03*
X196266330Y-37116625D03*
%TD*%
D11*
%TO.C,D2*%
X187516330Y-37471625D03*
D12*
X187516330Y-36716625D03*
%TD*%
D11*
%TO.C,D4*%
X111416330Y-113471125D03*
D12*
X111416330Y-112716125D03*
%TD*%
D11*
%TO.C,D4*%
X165016330Y-94471125D03*
D12*
X165016330Y-93716125D03*
%TD*%
D16*
%TO.C,J1*%
X112741230Y-107452525D03*
X102941430Y-107452525D03*
D17*
X110241330Y-111262675D03*
D18*
X109091230Y-111262675D03*
X108091230Y-111262675D03*
X107591430Y-111262675D03*
X106591430Y-111262675D03*
D17*
X105441330Y-111262675D03*
X104641430Y-111262675D03*
D18*
X106091530Y-111262675D03*
X107091230Y-111262675D03*
X108591430Y-111262675D03*
X109591430Y-111262675D03*
D17*
X111041230Y-111262675D03*
%TD*%
D10*
%TO.C,R29*%
X127966330Y-89416625D03*
X127966330Y-90316625D03*
%TD*%
D11*
%TO.C,D2*%
X107116330Y-37471625D03*
D12*
X107116330Y-36716625D03*
%TD*%
D15*
%TO.C,R30*%
X127916330Y-53316625D03*
X127016330Y-53316625D03*
%TD*%
D10*
%TO.C,R29*%
X101166330Y-89416625D03*
X101166330Y-90316625D03*
%TD*%
D11*
%TO.C,D5*%
X132566330Y-113521625D03*
D12*
X132566330Y-112766625D03*
%TD*%
D16*
%TO.C,J1*%
X166341230Y-107452525D03*
X156541430Y-107452525D03*
D17*
X163841330Y-111262675D03*
D18*
X162691230Y-111262675D03*
X161691230Y-111262675D03*
X161191430Y-111262675D03*
X160191430Y-111262675D03*
D17*
X159041330Y-111262675D03*
X158241430Y-111262675D03*
D18*
X159691530Y-111262675D03*
X160691230Y-111262675D03*
X162191430Y-111262675D03*
X163191430Y-111262675D03*
D17*
X164641230Y-111262675D03*
%TD*%
D15*
%TO.C,R30*%
X127916330Y-72316625D03*
X127016330Y-72316625D03*
%TD*%
D10*
%TO.C,R28*%
X169466330Y-36216625D03*
X169466330Y-37116625D03*
%TD*%
D11*
%TO.C,D2*%
X107116330Y-113471625D03*
D12*
X107116330Y-112716625D03*
%TD*%
D11*
%TO.C,D5*%
X105766330Y-37521625D03*
D12*
X105766330Y-36766625D03*
%TD*%
D10*
%TO.C,R29*%
X181566330Y-32416625D03*
X181566330Y-33316625D03*
%TD*%
D11*
%TO.C,D2*%
X187516330Y-75471625D03*
D12*
X187516330Y-74716625D03*
%TD*%
D10*
%TO.C,R28*%
X142666330Y-112216625D03*
X142666330Y-113116625D03*
%TD*%
D11*
%TO.C,D5*%
X186166330Y-37521625D03*
D12*
X186166330Y-36766625D03*
%TD*%
D11*
%TO.C,D5*%
X159366330Y-56521625D03*
D12*
X159366330Y-55766625D03*
%TD*%
D15*
%TO.C,R30*%
X154716330Y-91316625D03*
X153816330Y-91316625D03*
%TD*%
D11*
%TO.C,D2*%
X133916330Y-56471625D03*
D12*
X133916330Y-55716625D03*
%TD*%
D15*
%TO.C,R30*%
X154716330Y-53316625D03*
X153816330Y-53316625D03*
%TD*%
D11*
%TO.C,D3*%
X134966330Y-75521625D03*
D12*
X134966330Y-74766625D03*
%TD*%
D15*
%TO.C,R30*%
X101116330Y-34316625D03*
X100216330Y-34316625D03*
%TD*%
%TO.C,R57*%
X181516330Y-55411545D03*
X180616330Y-55411545D03*
%TD*%
%TO.C,R57*%
X101116330Y-74411545D03*
X100216330Y-74411545D03*
%TD*%
D10*
%TO.C,R28*%
X142666330Y-36216625D03*
X142666330Y-37116625D03*
%TD*%
D13*
%TO.C,D1*%
X180711330Y-54366625D03*
D14*
X181466330Y-54366625D03*
%TD*%
D11*
%TO.C,D2*%
X160716330Y-94471625D03*
D12*
X160716330Y-93716625D03*
%TD*%
D10*
%TO.C,R29*%
X181566330Y-51416625D03*
X181566330Y-52316625D03*
%TD*%
D11*
%TO.C,D3*%
X108166330Y-56521625D03*
D12*
X108166330Y-55766625D03*
%TD*%
D11*
%TO.C,D5*%
X132566330Y-75521625D03*
D12*
X132566330Y-74766625D03*
%TD*%
D11*
%TO.C,D4*%
X138216330Y-37471125D03*
D12*
X138216330Y-36716125D03*
%TD*%
D16*
%TO.C,J1*%
X112741230Y-50452525D03*
X102941430Y-50452525D03*
D17*
X110241330Y-54262675D03*
D18*
X109091230Y-54262675D03*
X108091230Y-54262675D03*
X107591430Y-54262675D03*
X106591430Y-54262675D03*
D17*
X105441330Y-54262675D03*
X104641430Y-54262675D03*
D18*
X106091530Y-54262675D03*
X107091230Y-54262675D03*
X108591430Y-54262675D03*
X109591430Y-54262675D03*
D17*
X111041230Y-54262675D03*
%TD*%
D16*
%TO.C,J1*%
X112741230Y-69452525D03*
X102941430Y-69452525D03*
D17*
X110241330Y-73262675D03*
D18*
X109091230Y-73262675D03*
X108091230Y-73262675D03*
X107591430Y-73262675D03*
X106591430Y-73262675D03*
D17*
X105441330Y-73262675D03*
X104641430Y-73262675D03*
D18*
X106091530Y-73262675D03*
X107091230Y-73262675D03*
X108591430Y-73262675D03*
X109591430Y-73262675D03*
D17*
X111041230Y-73262675D03*
%TD*%
D10*
%TO.C,R28*%
X115866330Y-36216625D03*
X115866330Y-37116625D03*
%TD*%
D13*
%TO.C,D1*%
X153911330Y-54366625D03*
D14*
X154666330Y-54366625D03*
%TD*%
D11*
%TO.C,D2*%
X160716330Y-37471625D03*
D12*
X160716330Y-36716625D03*
%TD*%
M02*
