M48
; DRILL file {KiCad 9.0.3} date 2025-12-04T14:35:40+0530
; FORMAT={-:-/ absolute / metric / decimal}
; #@! TF.CreationDate,2025-12-04T14:35:40+05:30
; #@! TF.GenerationSoftware,Kicad,Pcbnew,9.0.3
; #@! TF.FileFunction,Plated,1,2,PTH
FMAT,2
METRIC
; #@! TA.AperFunction,Plated,PTH,ViaDrill
T1C0.300
; #@! TA.AperFunction,Plated,PTH,ComponentDrill
T2C0.500
; #@! TA.AperFunction,Plated,PTH,ComponentDrill
T3C1.500
%
G90
G05
T1
X99.8Y-37.567
X99.8Y-56.567
X99.8Y-75.567
X99.8Y-94.567
X99.8Y-113.567
X99.966Y-35.867
X99.966Y-54.867
X99.966Y-73.867
X99.966Y-92.867
X99.966Y-111.867
X101.066Y-37.467
X101.066Y-56.467
X101.066Y-75.467
X101.066Y-94.467
X101.066Y-113.467
X101.766Y-31.367
X101.766Y-32.217
X101.766Y-50.367
X101.766Y-51.217
X101.766Y-69.367
X101.766Y-70.217
X101.766Y-88.367
X101.766Y-89.217
X101.766Y-107.367
X101.766Y-108.217
X101.816Y-34.367
X101.816Y-53.367
X101.816Y-72.367
X101.816Y-91.367
X101.816Y-110.367
X101.866Y-36.317
X101.866Y-55.317
X101.866Y-74.317
X101.866Y-93.317
X101.866Y-112.317
X103.616Y-35.167
X103.616Y-54.167
X103.616Y-73.167
X103.616Y-92.167
X103.616Y-111.167
X104.066Y-30.517
X104.066Y-49.517
X104.066Y-68.517
X104.066Y-87.517
X104.066Y-106.517
X104.766Y-36.385
X104.766Y-37.567
X104.766Y-55.385
X104.766Y-56.567
X104.766Y-74.385
X104.766Y-75.567
X104.766Y-93.385
X104.766Y-94.567
X104.766Y-112.385
X104.766Y-113.567
X105.066Y-30.667
X105.066Y-49.667
X105.066Y-68.667
X105.066Y-87.667
X105.066Y-106.667
X106.16Y-36.292
X106.16Y-55.292
X106.16Y-74.292
X106.16Y-93.292
X106.16Y-112.292
X106.466Y-37.167
X106.466Y-56.167
X106.466Y-75.167
X106.466Y-94.167
X106.466Y-113.167
X106.666Y-30.567
X106.666Y-49.567
X106.666Y-68.567
X106.666Y-87.567
X106.666Y-106.567
X107.055Y-36.292
X107.055Y-55.292
X107.055Y-74.292
X107.055Y-93.292
X107.055Y-112.292
X108.416Y-30.717
X108.416Y-49.717
X108.416Y-68.717
X108.416Y-87.717
X108.416Y-106.717
X108.969Y-36.569
X108.969Y-55.569
X108.969Y-74.569
X108.969Y-93.569
X108.969Y-112.569
X109.153Y-37.419
X109.153Y-56.419
X109.153Y-75.419
X109.153Y-94.419
X109.153Y-113.419
X109.866Y-30.617
X109.866Y-49.617
X109.866Y-68.617
X109.866Y-87.617
X109.866Y-106.617
X110.266Y-36.017
X110.266Y-55.017
X110.266Y-74.017
X110.266Y-93.017
X110.266Y-112.017
X110.3Y-37.409
X110.3Y-56.409
X110.3Y-75.409
X110.3Y-94.409
X110.3Y-113.409
X111.216Y-30.667
X111.216Y-49.667
X111.216Y-68.667
X111.216Y-87.667
X111.216Y-106.667
X112.366Y-36.817
X112.366Y-55.817
X112.366Y-74.817
X112.366Y-93.817
X112.366Y-112.817
X112.416Y-35.117
X112.416Y-54.117
X112.416Y-73.117
X112.416Y-92.117
X112.416Y-111.117
X113.586Y-33.924
X113.586Y-52.924
X113.586Y-71.924
X113.586Y-90.924
X113.586Y-109.924
X113.966Y-32.917
X113.966Y-51.917
X113.966Y-70.917
X113.966Y-89.917
X113.966Y-108.917
X114.216Y-33.767
X114.216Y-52.767
X114.216Y-71.767
X114.216Y-90.767
X114.216Y-109.767
X114.254Y-35.594
X114.254Y-54.594
X114.254Y-73.594
X114.254Y-92.594
X114.254Y-111.594
X114.466Y-30.767
X114.466Y-49.767
X114.466Y-68.767
X114.466Y-87.767
X114.466Y-106.767
X115.094Y-35.671
X115.094Y-54.671
X115.094Y-73.671
X115.094Y-92.671
X115.094Y-111.671
X115.366Y-33.917
X115.366Y-52.917
X115.366Y-71.917
X115.366Y-90.917
X115.366Y-109.917
X115.866Y-32.817
X115.866Y-51.817
X115.866Y-70.817
X115.866Y-89.817
X115.866Y-108.817
X126.6Y-37.567
X126.6Y-56.567
X126.6Y-75.567
X126.6Y-94.567
X126.6Y-113.567
X126.766Y-35.867
X126.766Y-54.867
X126.766Y-73.867
X126.766Y-92.867
X126.766Y-111.867
X127.866Y-37.467
X127.866Y-56.467
X127.866Y-75.467
X127.866Y-94.467
X127.866Y-113.467
X128.566Y-31.367
X128.566Y-32.217
X128.566Y-50.367
X128.566Y-51.217
X128.566Y-69.367
X128.566Y-70.217
X128.566Y-88.367
X128.566Y-89.217
X128.566Y-107.367
X128.566Y-108.217
X128.616Y-34.367
X128.616Y-53.367
X128.616Y-72.367
X128.616Y-91.367
X128.616Y-110.367
X128.666Y-36.317
X128.666Y-55.317
X128.666Y-74.317
X128.666Y-93.317
X128.666Y-112.317
X130.416Y-35.167
X130.416Y-54.167
X130.416Y-73.167
X130.416Y-92.167
X130.416Y-111.167
X130.866Y-30.517
X130.866Y-49.517
X130.866Y-68.517
X130.866Y-87.517
X130.866Y-106.517
X131.566Y-36.385
X131.566Y-37.567
X131.566Y-55.385
X131.566Y-56.567
X131.566Y-74.385
X131.566Y-75.567
X131.566Y-93.385
X131.566Y-94.567
X131.566Y-112.385
X131.566Y-113.567
X131.866Y-30.667
X131.866Y-49.667
X131.866Y-68.667
X131.866Y-87.667
X131.866Y-106.667
X132.96Y-36.292
X132.96Y-55.292
X132.96Y-74.292
X132.96Y-93.292
X132.96Y-112.292
X133.266Y-37.167
X133.266Y-56.167
X133.266Y-75.167
X133.266Y-94.167
X133.266Y-113.167
X133.466Y-30.567
X133.466Y-49.567
X133.466Y-68.567
X133.466Y-87.567
X133.466Y-106.567
X133.855Y-36.292
X133.855Y-55.292
X133.855Y-74.292
X133.855Y-93.292
X133.855Y-112.292
X135.216Y-30.717
X135.216Y-49.717
X135.216Y-68.717
X135.216Y-87.717
X135.216Y-106.717
X135.769Y-36.569
X135.769Y-55.569
X135.769Y-74.569
X135.769Y-93.569
X135.769Y-112.569
X135.953Y-37.419
X135.953Y-56.419
X135.953Y-75.419
X135.953Y-94.419
X135.953Y-113.419
X136.666Y-30.617
X136.666Y-49.617
X136.666Y-68.617
X136.666Y-87.617
X136.666Y-106.617
X137.066Y-36.017
X137.066Y-55.017
X137.066Y-74.017
X137.066Y-93.017
X137.066Y-112.017
X137.1Y-37.409
X137.1Y-56.409
X137.1Y-75.409
X137.1Y-94.409
X137.1Y-113.409
X138.016Y-30.667
X138.016Y-49.667
X138.016Y-68.667
X138.016Y-87.667
X138.016Y-106.667
X139.166Y-36.817
X139.166Y-55.817
X139.166Y-74.817
X139.166Y-93.817
X139.166Y-112.817
X139.216Y-35.117
X139.216Y-54.117
X139.216Y-73.117
X139.216Y-92.117
X139.216Y-111.117
X140.386Y-33.924
X140.386Y-52.924
X140.386Y-71.924
X140.386Y-90.924
X140.386Y-109.924
X140.766Y-32.917
X140.766Y-51.917
X140.766Y-70.917
X140.766Y-89.917
X140.766Y-108.917
X141.016Y-33.767
X141.016Y-52.767
X141.016Y-71.767
X141.016Y-90.767
X141.016Y-109.767
X141.054Y-35.594
X141.054Y-54.594
X141.054Y-73.594
X141.054Y-92.594
X141.054Y-111.594
X141.266Y-30.767
X141.266Y-49.767
X141.266Y-68.767
X141.266Y-87.767
X141.266Y-106.767
X141.894Y-35.671
X141.894Y-54.671
X141.894Y-73.671
X141.894Y-92.671
X141.894Y-111.671
X142.166Y-33.917
X142.166Y-52.917
X142.166Y-71.917
X142.166Y-90.917
X142.166Y-109.917
X142.666Y-32.817
X142.666Y-51.817
X142.666Y-70.817
X142.666Y-89.817
X142.666Y-108.817
X153.4Y-37.567
X153.4Y-56.567
X153.4Y-75.567
X153.4Y-94.567
X153.4Y-113.567
X153.566Y-35.867
X153.566Y-54.867
X153.566Y-73.867
X153.566Y-92.867
X153.566Y-111.867
X154.666Y-37.467
X154.666Y-56.467
X154.666Y-75.467
X154.666Y-94.467
X154.666Y-113.467
X155.366Y-31.367
X155.366Y-32.217
X155.366Y-50.367
X155.366Y-51.217
X155.366Y-69.367
X155.366Y-70.217
X155.366Y-88.367
X155.366Y-89.217
X155.366Y-107.367
X155.366Y-108.217
X155.416Y-34.367
X155.416Y-53.367
X155.416Y-72.367
X155.416Y-91.367
X155.416Y-110.367
X155.466Y-36.317
X155.466Y-55.317
X155.466Y-74.317
X155.466Y-93.317
X155.466Y-112.317
X157.216Y-35.167
X157.216Y-54.167
X157.216Y-73.167
X157.216Y-92.167
X157.216Y-111.167
X157.666Y-30.517
X157.666Y-49.517
X157.666Y-68.517
X157.666Y-87.517
X157.666Y-106.517
X158.366Y-36.385
X158.366Y-37.567
X158.366Y-55.385
X158.366Y-56.567
X158.366Y-74.385
X158.366Y-75.567
X158.366Y-93.385
X158.366Y-94.567
X158.366Y-112.385
X158.366Y-113.567
X158.666Y-30.667
X158.666Y-49.667
X158.666Y-68.667
X158.666Y-87.667
X158.666Y-106.667
X159.76Y-36.292
X159.76Y-55.292
X159.76Y-74.292
X159.76Y-93.292
X159.76Y-112.292
X160.066Y-37.167
X160.066Y-56.167
X160.066Y-75.167
X160.066Y-94.167
X160.066Y-113.167
X160.266Y-30.567
X160.266Y-49.567
X160.266Y-68.567
X160.266Y-87.567
X160.266Y-106.567
X160.655Y-36.292
X160.655Y-55.292
X160.655Y-74.292
X160.655Y-93.292
X160.655Y-112.292
X162.016Y-30.717
X162.016Y-49.717
X162.016Y-68.717
X162.016Y-87.717
X162.016Y-106.717
X162.569Y-36.569
X162.569Y-55.569
X162.569Y-74.569
X162.569Y-93.569
X162.569Y-112.569
X162.753Y-37.419
X162.753Y-56.419
X162.753Y-75.419
X162.753Y-94.419
X162.753Y-113.419
X163.466Y-30.617
X163.466Y-49.617
X163.466Y-68.617
X163.466Y-87.617
X163.466Y-106.617
X163.866Y-36.017
X163.866Y-55.017
X163.866Y-74.017
X163.866Y-93.017
X163.866Y-112.017
X163.9Y-37.409
X163.9Y-56.409
X163.9Y-75.409
X163.9Y-94.409
X163.9Y-113.409
X164.816Y-30.667
X164.816Y-49.667
X164.816Y-68.667
X164.816Y-87.667
X164.816Y-106.667
X165.966Y-36.817
X165.966Y-55.817
X165.966Y-74.817
X165.966Y-93.817
X165.966Y-112.817
X166.016Y-35.117
X166.016Y-54.117
X166.016Y-73.117
X166.016Y-92.117
X166.016Y-111.117
X167.186Y-33.924
X167.186Y-52.924
X167.186Y-71.924
X167.186Y-90.924
X167.186Y-109.924
X167.566Y-32.917
X167.566Y-51.917
X167.566Y-70.917
X167.566Y-89.917
X167.566Y-108.917
X167.816Y-33.767
X167.816Y-52.767
X167.816Y-71.767
X167.816Y-90.767
X167.816Y-109.767
X167.854Y-35.594
X167.854Y-54.594
X167.854Y-73.594
X167.854Y-92.594
X167.854Y-111.594
X168.066Y-30.767
X168.066Y-49.767
X168.066Y-68.767
X168.066Y-87.767
X168.066Y-106.767
X168.694Y-35.671
X168.694Y-54.671
X168.694Y-73.671
X168.694Y-92.671
X168.694Y-111.671
X168.966Y-33.917
X168.966Y-52.917
X168.966Y-71.917
X168.966Y-90.917
X168.966Y-109.917
X169.466Y-32.817
X169.466Y-51.817
X169.466Y-70.817
X169.466Y-89.817
X169.466Y-108.817
X180.2Y-37.567
X180.2Y-56.567
X180.2Y-75.567
X180.2Y-94.567
X180.2Y-113.567
X180.366Y-35.867
X180.366Y-54.867
X180.366Y-73.867
X180.366Y-92.867
X180.366Y-111.867
X181.466Y-37.467
X181.466Y-56.467
X181.466Y-75.467
X181.466Y-94.467
X181.466Y-113.467
X182.166Y-31.367
X182.166Y-32.217
X182.166Y-50.367
X182.166Y-51.217
X182.166Y-69.367
X182.166Y-70.217
X182.166Y-88.367
X182.166Y-89.217
X182.166Y-107.367
X182.166Y-108.217
X182.216Y-34.367
X182.216Y-53.367
X182.216Y-72.367
X182.216Y-91.367
X182.216Y-110.367
X182.266Y-36.317
X182.266Y-55.317
X182.266Y-74.317
X182.266Y-93.317
X182.266Y-112.317
X184.016Y-35.167
X184.016Y-54.167
X184.016Y-73.167
X184.016Y-92.167
X184.016Y-111.167
X184.466Y-30.517
X184.466Y-49.517
X184.466Y-68.517
X184.466Y-87.517
X184.466Y-106.517
X185.166Y-36.385
X185.166Y-37.567
X185.166Y-55.385
X185.166Y-56.567
X185.166Y-74.385
X185.166Y-75.567
X185.166Y-93.385
X185.166Y-94.567
X185.166Y-112.385
X185.166Y-113.567
X185.466Y-30.667
X185.466Y-49.667
X185.466Y-68.667
X185.466Y-87.667
X185.466Y-106.667
X186.56Y-36.292
X186.56Y-55.292
X186.56Y-74.292
X186.56Y-93.292
X186.56Y-112.292
X186.866Y-37.167
X186.866Y-56.167
X186.866Y-75.167
X186.866Y-94.167
X186.866Y-113.167
X187.066Y-30.567
X187.066Y-49.567
X187.066Y-68.567
X187.066Y-87.567
X187.066Y-106.567
X187.455Y-36.292
X187.455Y-55.292
X187.455Y-74.292
X187.455Y-93.292
X187.455Y-112.292
X188.816Y-30.717
X188.816Y-49.717
X188.816Y-68.717
X188.816Y-87.717
X188.816Y-106.717
X189.369Y-36.569
X189.369Y-55.569
X189.369Y-74.569
X189.369Y-93.569
X189.369Y-112.569
X189.553Y-37.419
X189.553Y-56.419
X189.553Y-75.419
X189.553Y-94.419
X189.553Y-113.419
X190.266Y-30.617
X190.266Y-49.617
X190.266Y-68.617
X190.266Y-87.617
X190.266Y-106.617
X190.666Y-36.017
X190.666Y-55.017
X190.666Y-74.017
X190.666Y-93.017
X190.666Y-112.017
X190.7Y-37.409
X190.7Y-56.409
X190.7Y-75.409
X190.7Y-94.409
X190.7Y-113.409
X191.616Y-30.667
X191.616Y-49.667
X191.616Y-68.667
X191.616Y-87.667
X191.616Y-106.667
X192.766Y-36.817
X192.766Y-55.817
X192.766Y-74.817
X192.766Y-93.817
X192.766Y-112.817
X192.816Y-35.117
X192.816Y-54.117
X192.816Y-73.117
X192.816Y-92.117
X192.816Y-111.117
X193.986Y-33.924
X193.986Y-52.924
X193.986Y-71.924
X193.986Y-90.924
X193.986Y-109.924
X194.366Y-32.917
X194.366Y-51.917
X194.366Y-70.917
X194.366Y-89.917
X194.366Y-108.917
X194.616Y-33.767
X194.616Y-52.767
X194.616Y-71.767
X194.616Y-90.767
X194.616Y-109.767
X194.654Y-35.594
X194.654Y-54.594
X194.654Y-73.594
X194.654Y-92.594
X194.654Y-111.594
X194.866Y-30.767
X194.866Y-49.767
X194.866Y-68.767
X194.866Y-87.767
X194.866Y-106.767
X195.494Y-35.671
X195.494Y-54.671
X195.494Y-73.671
X195.494Y-92.671
X195.494Y-111.671
X195.766Y-33.917
X195.766Y-52.917
X195.766Y-71.917
X195.766Y-90.917
X195.766Y-109.917
X196.266Y-32.817
X196.266Y-51.817
X196.266Y-70.817
X196.266Y-89.817
X196.266Y-108.817
T3
X102.966Y-37.867
X102.966Y-56.867
X102.966Y-75.867
X102.966Y-94.867
X102.966Y-113.867
X113.766Y-37.867
X113.766Y-56.867
X113.766Y-75.867
X113.766Y-94.867
X113.766Y-113.867
X129.766Y-37.867
X129.766Y-56.867
X129.766Y-75.867
X129.766Y-94.867
X129.766Y-113.867
X140.566Y-37.867
X140.566Y-56.867
X140.566Y-75.867
X140.566Y-94.867
X140.566Y-113.867
X156.566Y-37.867
X156.566Y-56.867
X156.566Y-75.867
X156.566Y-94.867
X156.566Y-113.867
X167.366Y-37.867
X167.366Y-56.867
X167.366Y-75.867
X167.366Y-94.867
X167.366Y-113.867
X183.366Y-37.867
X183.366Y-56.867
X183.366Y-75.867
X183.366Y-94.867
X183.366Y-113.867
X194.166Y-37.867
X194.166Y-56.867
X194.166Y-75.867
X194.166Y-94.867
X194.166Y-113.867
T2
G00X102.941Y-31.953
M15
G01X102.941Y-30.953
M16
G05
G00X102.941Y-50.953
M15
G01X102.941Y-49.953
M16
G05
G00X102.941Y-69.953
M15
G01X102.941Y-68.953
M16
G05
G00X102.941Y-88.953
M15
G01X102.941Y-87.953
M16
G05
G00X102.941Y-107.953
M15
G01X102.941Y-106.953
M16
G05
G00X112.741Y-31.953
M15
G01X112.741Y-30.953
M16
G05
G00X112.741Y-50.953
M15
G01X112.741Y-49.953
M16
G05
G00X112.741Y-69.953
M15
G01X112.741Y-68.953
M16
G05
G00X112.741Y-88.953
M15
G01X112.741Y-87.953
M16
G05
G00X112.741Y-107.953
M15
G01X112.741Y-106.953
M16
G05
G00X129.741Y-31.953
M15
G01X129.741Y-30.953
M16
G05
G00X129.741Y-50.953
M15
G01X129.741Y-49.953
M16
G05
G00X129.741Y-69.953
M15
G01X129.741Y-68.953
M16
G05
G00X129.741Y-88.953
M15
G01X129.741Y-87.953
M16
G05
G00X129.741Y-107.953
M15
G01X129.741Y-106.953
M16
G05
G00X139.541Y-31.953
M15
G01X139.541Y-30.953
M16
G05
G00X139.541Y-50.953
M15
G01X139.541Y-49.953
M16
G05
G00X139.541Y-69.953
M15
G01X139.541Y-68.953
M16
G05
G00X139.541Y-88.953
M15
G01X139.541Y-87.953
M16
G05
G00X139.541Y-107.953
M15
G01X139.541Y-106.953
M16
G05
G00X156.541Y-31.953
M15
G01X156.541Y-30.953
M16
G05
G00X156.541Y-50.953
M15
G01X156.541Y-49.953
M16
G05
G00X156.541Y-69.953
M15
G01X156.541Y-68.953
M16
G05
G00X156.541Y-88.953
M15
G01X156.541Y-87.953
M16
G05
G00X156.541Y-107.953
M15
G01X156.541Y-106.953
M16
G05
G00X166.341Y-31.953
M15
G01X166.341Y-30.953
M16
G05
G00X166.341Y-50.953
M15
G01X166.341Y-49.953
M16
G05
G00X166.341Y-69.953
M15
G01X166.341Y-68.953
M16
G05
G00X166.341Y-88.953
M15
G01X166.341Y-87.953
M16
G05
G00X166.341Y-107.953
M15
G01X166.341Y-106.953
M16
G05
G00X183.341Y-31.953
M15
G01X183.341Y-30.953
M16
G05
G00X183.341Y-50.953
M15
G01X183.341Y-49.953
M16
G05
G00X183.341Y-69.953
M15
G01X183.341Y-68.953
M16
G05
G00X183.341Y-88.953
M15
G01X183.341Y-87.953
M16
G05
G00X183.341Y-107.953
M15
G01X183.341Y-106.953
M16
G05
G00X193.141Y-31.953
M15
G01X193.141Y-30.953
M16
G05
G00X193.141Y-50.953
M15
G01X193.141Y-49.953
M16
G05
G00X193.141Y-69.953
M15
G01X193.141Y-68.953
M16
G05
G00X193.141Y-88.953
M15
G01X193.141Y-87.953
M16
G05
G00X193.141Y-107.953
M15
G01X193.141Y-106.953
M16
G05
M30
