M48
; DRILL file {KiCad 9.0.3} date 2025-12-04T14:35:40+0530
; FORMAT={-:-/ absolute / metric / decimal}
; #@! TF.CreationDate,2025-12-04T14:35:40+05:30
; #@! TF.GenerationSoftware,Kicad,Pcbnew,9.0.3
; #@! TF.FileFunction,NonPlated,1,2,NPTH
FMAT,2
METRIC
; #@! TA.AperFunction,NonPlated,NPTH,ComponentDrill
T1C0.500
; #@! TA.AperFunction,NonPlated,NPTH,ComponentDrill
T2C0.900
; #@! TA.AperFunction,NonPlated,NPTH,ComponentDrill
T3C2.000
%
G90
G05
T1
X92.4Y-30.0
X92.4Y-114.0
X93.4Y-30.0
X93.4Y-114.0
X94.4Y-30.0
X94.4Y-114.0
X95.4Y-30.0
X95.4Y-114.0
X96.4Y-30.0
X96.4Y-114.0
X97.4Y-30.0
X97.4Y-114.0
X99.2Y-33.994
X99.2Y-35.043
X99.2Y-36.092
X99.2Y-37.142
X99.2Y-52.994
X99.2Y-54.043
X99.2Y-55.092
X99.2Y-56.142
X99.2Y-71.994
X99.2Y-73.043
X99.2Y-74.092
X99.2Y-75.142
X99.2Y-90.994
X99.2Y-92.043
X99.2Y-93.092
X99.2Y-94.142
X99.2Y-109.994
X99.2Y-111.043
X99.2Y-112.092
X99.2Y-113.142
X99.4Y-20.0
X99.4Y-21.0
X99.4Y-22.0
X99.4Y-23.0
X99.4Y-24.0
X99.4Y-25.0
X99.4Y-42.0
X99.4Y-43.0
X99.4Y-44.0
X99.4Y-45.0
X99.4Y-61.0
X99.4Y-62.0
X99.4Y-63.0
X99.4Y-64.0
X99.4Y-80.0
X99.4Y-81.0
X99.4Y-82.0
X99.4Y-83.0
X99.4Y-99.0
X99.4Y-100.0
X99.4Y-101.0
X99.4Y-102.0
X99.4Y-119.0
X99.4Y-120.0
X99.4Y-121.0
X99.4Y-122.0
X99.4Y-123.0
X99.4Y-124.0
X108.841Y-38.2
X108.841Y-57.2
X108.841Y-76.2
X108.841Y-95.2
X108.841Y-114.2
X109.841Y-38.2
X109.841Y-57.2
X109.841Y-76.2
X109.841Y-95.2
X109.841Y-114.2
X110.841Y-38.2
X110.841Y-57.2
X110.841Y-76.2
X110.841Y-95.2
X110.841Y-114.2
X117.4Y-37.192
X117.4Y-56.192
X117.4Y-75.192
X117.4Y-94.192
X117.4Y-113.192
X117.4Y-36.145
X117.4Y-55.145
X117.4Y-74.145
X117.4Y-93.145
X117.4Y-112.145
X117.4Y-35.099
X117.4Y-54.099
X117.4Y-73.099
X117.4Y-92.099
X117.4Y-111.099
X117.4Y-34.052
X117.4Y-53.052
X117.4Y-72.052
X117.4Y-91.052
X117.4Y-110.052
X120.2Y-30.0
X120.2Y-42.0
X120.2Y-42.0
X120.2Y-43.0
X120.2Y-44.0
X120.2Y-45.0
X120.2Y-45.0
X120.2Y-61.0
X120.2Y-61.0
X120.2Y-62.0
X120.2Y-63.0
X120.2Y-64.0
X120.2Y-64.0
X120.2Y-80.0
X120.2Y-80.0
X120.2Y-81.0
X120.2Y-82.0
X120.2Y-83.0
X120.2Y-83.0
X120.2Y-99.0
X120.2Y-99.0
X120.2Y-100.0
X120.2Y-101.0
X120.2Y-102.0
X120.2Y-102.0
X120.2Y-114.0
X121.2Y-30.0
X121.2Y-42.0
X121.2Y-45.0
X121.2Y-61.0
X121.2Y-64.0
X121.2Y-80.0
X121.2Y-83.0
X121.2Y-99.0
X121.2Y-102.0
X121.2Y-114.0
X122.2Y-30.0
X122.2Y-42.0
X122.2Y-45.0
X122.2Y-61.0
X122.2Y-64.0
X122.2Y-80.0
X122.2Y-83.0
X122.2Y-99.0
X122.2Y-102.0
X122.2Y-114.0
X123.2Y-30.0
X123.2Y-42.0
X123.2Y-42.0
X123.2Y-43.0
X123.2Y-44.0
X123.2Y-45.0
X123.2Y-45.0
X123.2Y-61.0
X123.2Y-61.0
X123.2Y-62.0
X123.2Y-63.0
X123.2Y-64.0
X123.2Y-64.0
X123.2Y-80.0
X123.2Y-80.0
X123.2Y-81.0
X123.2Y-82.0
X123.2Y-83.0
X123.2Y-83.0
X123.2Y-99.0
X123.2Y-99.0
X123.2Y-100.0
X123.2Y-101.0
X123.2Y-102.0
X123.2Y-102.0
X123.2Y-114.0
X126.0Y-33.994
X126.0Y-35.043
X126.0Y-36.092
X126.0Y-37.142
X126.0Y-52.994
X126.0Y-54.043
X126.0Y-55.092
X126.0Y-56.142
X126.0Y-71.994
X126.0Y-73.043
X126.0Y-74.092
X126.0Y-75.142
X126.0Y-90.994
X126.0Y-92.043
X126.0Y-93.092
X126.0Y-94.142
X126.0Y-109.994
X126.0Y-111.043
X126.0Y-112.092
X126.0Y-113.142
X135.641Y-38.2
X135.641Y-57.2
X135.641Y-76.2
X135.641Y-95.2
X135.641Y-114.2
X136.641Y-38.2
X136.641Y-57.2
X136.641Y-76.2
X136.641Y-95.2
X136.641Y-114.2
X137.641Y-38.2
X137.641Y-57.2
X137.641Y-76.2
X137.641Y-95.2
X137.641Y-114.2
X144.2Y-37.192
X144.2Y-56.192
X144.2Y-75.192
X144.2Y-94.192
X144.2Y-113.192
X144.2Y-36.145
X144.2Y-55.145
X144.2Y-74.145
X144.2Y-93.145
X144.2Y-112.145
X144.2Y-35.099
X144.2Y-54.099
X144.2Y-73.099
X144.2Y-92.099
X144.2Y-111.099
X144.2Y-34.052
X144.2Y-53.052
X144.2Y-72.052
X144.2Y-91.052
X144.2Y-110.052
X147.0Y-30.0
X147.0Y-42.0
X147.0Y-42.0
X147.0Y-43.0
X147.0Y-44.0
X147.0Y-45.0
X147.0Y-45.0
X147.0Y-61.0
X147.0Y-61.0
X147.0Y-62.0
X147.0Y-63.0
X147.0Y-64.0
X147.0Y-64.0
X147.0Y-80.0
X147.0Y-80.0
X147.0Y-81.0
X147.0Y-82.0
X147.0Y-83.0
X147.0Y-83.0
X147.0Y-99.0
X147.0Y-99.0
X147.0Y-100.0
X147.0Y-101.0
X147.0Y-102.0
X147.0Y-102.0
X147.0Y-114.0
X148.0Y-30.0
X148.0Y-42.0
X148.0Y-45.0
X148.0Y-61.0
X148.0Y-64.0
X148.0Y-80.0
X148.0Y-83.0
X148.0Y-99.0
X148.0Y-102.0
X148.0Y-114.0
X149.0Y-30.0
X149.0Y-42.0
X149.0Y-45.0
X149.0Y-61.0
X149.0Y-64.0
X149.0Y-80.0
X149.0Y-83.0
X149.0Y-99.0
X149.0Y-102.0
X149.0Y-114.0
X150.0Y-30.0
X150.0Y-42.0
X150.0Y-42.0
X150.0Y-43.0
X150.0Y-44.0
X150.0Y-45.0
X150.0Y-45.0
X150.0Y-61.0
X150.0Y-61.0
X150.0Y-62.0
X150.0Y-63.0
X150.0Y-64.0
X150.0Y-64.0
X150.0Y-80.0
X150.0Y-80.0
X150.0Y-81.0
X150.0Y-82.0
X150.0Y-83.0
X150.0Y-83.0
X150.0Y-99.0
X150.0Y-99.0
X150.0Y-100.0
X150.0Y-101.0
X150.0Y-102.0
X150.0Y-102.0
X150.0Y-114.0
X152.8Y-33.994
X152.8Y-35.043
X152.8Y-36.092
X152.8Y-37.142
X152.8Y-52.994
X152.8Y-54.043
X152.8Y-55.092
X152.8Y-56.142
X152.8Y-71.994
X152.8Y-73.043
X152.8Y-74.092
X152.8Y-75.142
X152.8Y-90.994
X152.8Y-92.043
X152.8Y-93.092
X152.8Y-94.142
X152.8Y-109.994
X152.8Y-111.043
X152.8Y-112.092
X152.8Y-113.142
X162.441Y-38.2
X162.441Y-57.2
X162.441Y-76.2
X162.441Y-95.2
X162.441Y-114.2
X163.441Y-38.2
X163.441Y-57.2
X163.441Y-76.2
X163.441Y-95.2
X163.441Y-114.2
X164.441Y-38.2
X164.441Y-57.2
X164.441Y-76.2
X164.441Y-95.2
X164.441Y-114.2
X171.0Y-37.192
X171.0Y-56.192
X171.0Y-75.192
X171.0Y-94.192
X171.0Y-113.192
X171.0Y-36.145
X171.0Y-55.145
X171.0Y-74.145
X171.0Y-93.145
X171.0Y-112.145
X171.0Y-35.099
X171.0Y-54.099
X171.0Y-73.099
X171.0Y-92.099
X171.0Y-111.099
X171.0Y-34.052
X171.0Y-53.052
X171.0Y-72.052
X171.0Y-91.052
X171.0Y-110.052
X173.8Y-30.0
X173.8Y-42.0
X173.8Y-42.0
X173.8Y-43.0
X173.8Y-44.0
X173.8Y-45.0
X173.8Y-45.0
X173.8Y-61.0
X173.8Y-61.0
X173.8Y-62.0
X173.8Y-63.0
X173.8Y-64.0
X173.8Y-64.0
X173.8Y-80.0
X173.8Y-80.0
X173.8Y-81.0
X173.8Y-82.0
X173.8Y-83.0
X173.8Y-83.0
X173.8Y-99.0
X173.8Y-99.0
X173.8Y-100.0
X173.8Y-101.0
X173.8Y-102.0
X173.8Y-102.0
X173.8Y-114.0
X174.8Y-30.0
X174.8Y-42.0
X174.8Y-45.0
X174.8Y-61.0
X174.8Y-64.0
X174.8Y-80.0
X174.8Y-83.0
X174.8Y-99.0
X174.8Y-102.0
X174.8Y-114.0
X175.8Y-30.0
X175.8Y-42.0
X175.8Y-45.0
X175.8Y-61.0
X175.8Y-64.0
X175.8Y-80.0
X175.8Y-83.0
X175.8Y-99.0
X175.8Y-102.0
X175.8Y-114.0
X176.8Y-30.0
X176.8Y-42.0
X176.8Y-42.0
X176.8Y-43.0
X176.8Y-44.0
X176.8Y-45.0
X176.8Y-45.0
X176.8Y-61.0
X176.8Y-61.0
X176.8Y-62.0
X176.8Y-63.0
X176.8Y-64.0
X176.8Y-64.0
X176.8Y-80.0
X176.8Y-80.0
X176.8Y-81.0
X176.8Y-82.0
X176.8Y-83.0
X176.8Y-83.0
X176.8Y-99.0
X176.8Y-99.0
X176.8Y-100.0
X176.8Y-101.0
X176.8Y-102.0
X176.8Y-102.0
X176.8Y-114.0
X179.6Y-33.994
X179.6Y-35.043
X179.6Y-36.092
X179.6Y-37.142
X179.6Y-52.994
X179.6Y-54.043
X179.6Y-55.092
X179.6Y-56.142
X179.6Y-71.994
X179.6Y-73.043
X179.6Y-74.092
X179.6Y-75.142
X179.6Y-90.994
X179.6Y-92.043
X179.6Y-93.092
X179.6Y-94.142
X179.6Y-109.994
X179.6Y-111.043
X179.6Y-112.092
X179.6Y-113.142
X189.241Y-38.2
X189.241Y-57.2
X189.241Y-76.2
X189.241Y-95.2
X189.241Y-114.2
X190.241Y-38.2
X190.241Y-57.2
X190.241Y-76.2
X190.241Y-95.2
X190.241Y-114.2
X191.241Y-38.2
X191.241Y-57.2
X191.241Y-76.2
X191.241Y-95.2
X191.241Y-114.2
X197.6Y-20.0
X197.6Y-21.0
X197.6Y-22.0
X197.6Y-23.0
X197.6Y-24.0
X197.6Y-25.0
X197.6Y-42.0
X197.6Y-43.0
X197.6Y-44.0
X197.6Y-45.0
X197.6Y-61.0
X197.6Y-62.0
X197.6Y-63.0
X197.6Y-64.0
X197.6Y-80.0
X197.6Y-81.0
X197.6Y-82.0
X197.6Y-83.0
X197.6Y-99.0
X197.6Y-100.0
X197.6Y-101.0
X197.6Y-102.0
X197.6Y-119.0
X197.6Y-120.0
X197.6Y-121.0
X197.6Y-122.0
X197.6Y-123.0
X197.6Y-124.0
X197.8Y-37.192
X197.8Y-56.192
X197.8Y-75.192
X197.8Y-94.192
X197.8Y-113.192
X197.8Y-36.145
X197.8Y-55.145
X197.8Y-74.145
X197.8Y-93.145
X197.8Y-112.145
X197.8Y-35.099
X197.8Y-54.099
X197.8Y-73.099
X197.8Y-92.099
X197.8Y-111.099
X197.8Y-34.052
X197.8Y-53.052
X197.8Y-72.052
X197.8Y-91.052
X197.8Y-110.052
X199.6Y-30.0
X199.6Y-114.0
X200.6Y-30.0
X200.6Y-114.0
X201.6Y-30.0
X201.6Y-114.0
X202.6Y-30.0
X202.6Y-114.0
X203.6Y-30.0
X203.6Y-114.0
X204.6Y-30.0
X204.6Y-114.0
T2
X104.591Y-32.303
X104.591Y-51.303
X104.591Y-70.303
X104.591Y-89.303
X104.591Y-108.303
X111.091Y-32.303
X111.091Y-51.303
X111.091Y-70.303
X111.091Y-89.303
X111.091Y-108.303
X131.391Y-32.303
X131.391Y-51.303
X131.391Y-70.303
X131.391Y-89.303
X131.391Y-108.303
X137.891Y-32.303
X137.891Y-51.303
X137.891Y-70.303
X137.891Y-89.303
X137.891Y-108.303
X158.191Y-32.303
X158.191Y-51.303
X158.191Y-70.303
X158.191Y-89.303
X158.191Y-108.303
X164.691Y-32.303
X164.691Y-51.303
X164.691Y-70.303
X164.691Y-89.303
X164.691Y-108.303
X184.991Y-32.303
X184.991Y-51.303
X184.991Y-70.303
X184.991Y-89.303
X184.991Y-108.303
X191.491Y-32.303
X191.491Y-51.303
X191.491Y-70.303
X191.491Y-89.303
X191.491Y-108.303
T3
X104.2Y-22.4
X104.2Y-121.6
X192.8Y-22.4
X192.8Y-121.6
M30
