0
SECTION
2
HEADER
9
$INSUNITS
70
4
9
$ACADVER
1
AC1014
9
$HANDSEED
5
FFFF
0
ENDSEC
0
SECTION
2
TABLES
0
TABLE
2
VPORT
5
8
100
AcDbSymbolTable
0
ENDTAB
0
TABLE
2
LTYPE
5
5
100
AcDbSymbolTable
0
LTYPE
5
14
100
AcDbSymbolTableRecord
100
AcDbLinetypeTableRecord
2
BYBLOCK
70
0
0
LTYPE
5
15
100
AcDbSymbolTableRecord
100
AcDbLinetypeTableRecord
2
BYLAYER
70
0
0
LTYPE
5
16
100
AcDbSymbolTableRecord
100
AcDbLinetypeTableRecord
2
DASHED
70
0
3
Dashed __ __ __ __ __ __ __ __ __ __ __ __ __ _
72
65
73
2
40
0.75
49
0.5
74
0
49
-0.25
74
0
0
ENDTAB
0
TABLE
2
LAYER
5
2
100
AcDbSymbolTable
70
2
0
LAYER
5
50
100
AcDbSymbolTableRecord
100
AcDbLayerTableRecord
2
0
70
0
62
7
6
CONTINUOUS
0
ENDTAB
0
TABLE
2
STYLE
5
3
100
AcDbSymbolTable
70
1
0
STYLE
5
11
100
AcDbSymbolTableRecord
100
AcDbTextStyleTableRecord
2
STANDARD
70
0
0
ENDTAB
0
TABLE
2
VIEW
5
6
100
AcDbSymbolTable
70
0
0
ENDTAB
0
TABLE
2
UCS
5
7
100
AcDbSymbolTable
70
0
0
ENDTAB
0
TABLE
2
APPID
5
9
100
AcDbSymbolTable
70
2
0
APPID
5
12
100
AcDbSymbolTableRecord
100
AcDbRegAppTableRecord
2
ACAD
70
0
0
ENDTAB
0
TABLE
2
DIMSTYLE
5
A
100
AcDbSymbolTable
70
1
0
ENDTAB
0
TABLE
2
BLOCK_RECORD
5
1
100
AcDbSymbolTable
70
1
0
BLOCK_RECORD
5
1F
100
AcDbSymbolTableRecord
100
AcDbBlockTableRecord
2
*MODEL_SPACE
0
BLOCK_RECORD
5
1B
100
AcDbSymbolTableRecord
100
AcDbBlockTableRecord
2
*PAPER_SPACE
0
ENDTAB
0
ENDSEC
0
SECTION
2
BLOCKS
0
BLOCK
5
20
100
AcDbEntity
100
AcDbBlockBegin
2
*MODEL_SPACE
0
ENDBLK
5
21
100
AcDbEntity
100
AcDbBlockEnd
0
BLOCK
5
1C
100
AcDbEntity
100
AcDbBlockBegin
2
*PAPER_SPACE
0
ENDBLK
5
1D
100
AcDbEntity
100
AcDbBlockEnd
0
ENDSEC
0
SECTION
2
ENTITIES
0
LINE
5
100
100
AcDbEntity
8
0
100
AcDbLine
10
13.308110520360001
20
1.8999999999999999
30
0
11
4.0118894796400006
21
1.8999999999999999
31
0
0
LINE
5
101
100
AcDbEntity
8
0
100
AcDbLine
10
17.480000000000004
20
1.8999999999999999
30
0
11
14.791889479640002
21
1.8999999999999999
31
0
0
LWPOLYLINE
5
102
100
AcDbEntity
8
0
100
AcDbPolyline
90
2
70
1
43
0.0
10
14.766606586628956
20
1.9000000000000006
42
1.1652139619982971
10
13.333393413371049
20
1.8999999999999997
42
-1.1652139619982971
0
LINE
5
103
100
AcDbEntity
8
0
100
AcDbLine
10
17.480000000000004
20
6.0143310000000003
30
0
11
17.480000000000004
21
1.8999999999999999
31
0
0
ARC
5
104
100
AcDbEntity
8
0
100
AcDbCircle
10
16.479999069714001
20
6.0143312135179992
30
0
40
1.0000009302860231
210
0
220
0
230
1
100
AcDbArc
50
-1.222417831450519e-05
51
35.001386082995317
0
ARC
5
105
100
AcDbEntity
8
0
100
AcDbCircle
10
14.459438067647001
20
8.9000338492630053
30
0
40
0.99996615146199552
210
0
220
-0
230
1
100
AcDbArc
50
34.997840683830646
51
90.002181189339638
0
LINE
5
106
100
AcDbEntity
8
0
100
AcDbLine
10
2.7005640000000004
20
9.9000000000000004
30
0
11
14.459400000000002
21
9.9000000000004054
31
0
0
ARC
5
107
100
AcDbEntity
8
0
100
AcDbCircle
10
2.7005863676469981
20
8.8999653883150014
30
0
40
1.000034611935146
210
0
220
0
230
1
100
AcDbArc
50
90.001281527414591
51
144.99899135528744
0
LINE
5
108
100
AcDbEntity
8
0
100
AcDbLine
10
-0.139152
20
6.5879080000000005
30
0
11
1.8814154983102784
21
9.47357649758505
31
0
0
ARC
5
109
100
AcDbEntity
8
0
100
AcDbCircle
10
0.68000089039299894
20
6.0143312196580014
30
0
40
1.0000008903929527
210
0
220
0
230
1
100
AcDbArc
50
145.00001166108044
51
180.00001254785874
0
LINE
5
110
100
AcDbEntity
8
0
100
AcDbLine
10
-0.32000000000000001
20
1.8999999999999999
30
0
11
-0.31999999999997575
21
6.0143310000000003
31
0
0
LINE
5
111
100
AcDbEntity
8
0
100
AcDbLine
10
2.5281105203600003
20
1.8999999999999999
30
0
11
-0.32000000000000001
21
1.8999999999999999
31
0
0
LWPOLYLINE
5
112
100
AcDbEntity
8
0
100
AcDbPolyline
90
2
70
1
43
0.0
10
3.9866065866289535
20
1.9000000000000004
42
1.1652139619982982
10
2.5533934133710465
20
1.8999999999999999
42
-1.1652139619982982
0
LINE
5
113
100
AcDbEntity
8
0
100
AcDbLine
10
2.5190084658282705
20
1.8999999999999999
30
0
11
2.5533934133710465
21
1.8999999999999999
31
0
0
LINE
5
114
100
AcDbEntity
8
0
100
AcDbLine
10
3.9866065866289535
20
1.9000000000000004
30
0
11
4.0118894796400006
21
1.8999999999999999
31
0
0
LINE
5
115
100
AcDbEntity
8
0
100
AcDbLine
10
13.308110520360001
20
1.8999999999999999
30
0
11
13.333393413371049
21
1.8999999999999999
31
0
0
LINE
5
116
100
AcDbEntity
8
0
100
AcDbLine
10
14.766606586628956
20
1.9000000000000006
30
0
11
14.791889479640002
21
1.8999999999999999
31
0
0
LINE
5
117
100
AcDbEntity
8
0
100
AcDbLine
10
17.299137999999999
20
6.5879280000000007
30
0
11
15.278584000000023
21
9.4735600000000169
31
0
0
ENDSEC
0
SECTION
2
OBJECTS
0
DICTIONARY
5
C
100
AcDbDictionary
3
ACAD_GROUP
350
D
3
ACAD_MLINESTYLE
350
17
0
DICTIONARY
5
D
100
AcDbDictionary
0
DICTIONARY
5
1A
330
C
100
AcDbDictionary
0
DICTIONARY
5
17
100
AcDbDictionary
0
ENDSEC
0
EOF
