0
SECTION
2
HEADER
9
$INSUNITS
70
4
9
$ACADVER
1
AC1014
9
$HANDSEED
5
FFFF
0
ENDSEC
0
SECTION
2
TABLES
0
TABLE
2
VPORT
5
8
100
AcDbSymbolTable
0
ENDTAB
0
TABLE
2
LTYPE
5
5
100
AcDbSymbolTable
0
LTYPE
5
14
100
AcDbSymbolTableRecord
100
AcDbLinetypeTableRecord
2
BYBLOCK
70
0
0
LTYPE
5
15
100
AcDbSymbolTableRecord
100
AcDbLinetypeTableRecord
2
BYLAYER
70
0
0
LTYPE
5
16
100
AcDbSymbolTableRecord
100
AcDbLinetypeTableRecord
2
DASHED
70
0
3
Dashed __ __ __ __ __ __ __ __ __ __ __ __ __ _
72
65
73
2
40
0.75
49
0.5
74
0
49
-0.25
74
0
0
ENDTAB
0
TABLE
2
LAYER
5
2
100
AcDbSymbolTable
70
2
0
LAYER
5
50
100
AcDbSymbolTableRecord
100
AcDbLayerTableRecord
2
0
70
0
62
7
6
CONTINUOUS
0
ENDTAB
0
TABLE
2
STYLE
5
3
100
AcDbSymbolTable
70
1
0
STYLE
5
11
100
AcDbSymbolTableRecord
100
AcDbTextStyleTableRecord
2
STANDARD
70
0
0
ENDTAB
0
TABLE
2
VIEW
5
6
100
AcDbSymbolTable
70
0
0
ENDTAB
0
TABLE
2
UCS
5
7
100
AcDbSymbolTable
70
0
0
ENDTAB
0
TABLE
2
APPID
5
9
100
AcDbSymbolTable
70
2
0
APPID
5
12
100
AcDbSymbolTableRecord
100
AcDbRegAppTableRecord
2
ACAD
70
0
0
ENDTAB
0
TABLE
2
DIMSTYLE
5
A
100
AcDbSymbolTable
70
1
0
ENDTAB
0
TABLE
2
BLOCK_RECORD
5
1
100
AcDbSymbolTable
70
1
0
BLOCK_RECORD
5
1F
100
AcDbSymbolTableRecord
100
AcDbBlockTableRecord
2
*MODEL_SPACE
0
BLOCK_RECORD
5
1B
100
AcDbSymbolTableRecord
100
AcDbBlockTableRecord
2
*PAPER_SPACE
0
ENDTAB
0
ENDSEC
0
SECTION
2
BLOCKS
0
BLOCK
5
20
100
AcDbEntity
100
AcDbBlockBegin
2
*MODEL_SPACE
0
ENDBLK
5
21
100
AcDbEntity
100
AcDbBlockEnd
0
BLOCK
5
1C
100
AcDbEntity
100
AcDbBlockBegin
2
*PAPER_SPACE
0
ENDBLK
5
1D
100
AcDbEntity
100
AcDbBlockEnd
0
ENDSEC
0
SECTION
2
ENTITIES
0
CIRCLE
5
100
100
AcDbEntity
8
0
100
AcDbCircle
10
4.8914400000000002
20
7.6082749999999999
30
0
40
0.44999999999999996
210
0
220
0
230
1
0
CIRCLE
5
101
100
AcDbEntity
8
0
100
AcDbCircle
10
11.39124
20
7.6082749999999999
30
0
40
0.44999999999999996
210
0
220
0
230
1
0
LWPOLYLINE
5
102
100
AcDbEntity
8
0
100
AcDbPolyline
90
2
70
1
43
0.0
10
3.46644
20
8.958475
42
0.99999999999999989
10
3.0164399999999998
20
8.958475
42
-0.99999999999999989
0
LWPOLYLINE
5
103
100
AcDbEntity
8
0
100
AcDbPolyline
90
2
70
1
43
0.0
10
3.0164399999999998
20
7.958475
42
0.99999999999999989
10
3.46644
20
7.958475
42
-0.99999999999999989
0
LWPOLYLINE
5
104
100
AcDbEntity
8
0
100
AcDbPolyline
90
2
70
1
43
0.0
10
3.0164400000000002
20
7.958475
10
3.0164400000000002
20
8.958475
0
LWPOLYLINE
5
105
100
AcDbEntity
8
0
100
AcDbPolyline
90
2
70
1
43
0.0
10
3.46644
20
8.958475
10
3.46644
20
7.958475
0
LWPOLYLINE
5
106
100
AcDbEntity
8
0
100
AcDbPolyline
90
2
70
1
43
0.0
10
12.816240000000001
20
7.958475
10
12.816240000000001
20
8.958475
0
LWPOLYLINE
5
107
100
AcDbEntity
8
0
100
AcDbPolyline
90
2
70
1
43
0.0
10
12.816240000000001
20
7.958475
42
0.99999999999999989
10
13.26624
20
7.958475
42
-0.99999999999999989
0
LWPOLYLINE
5
108
100
AcDbEntity
8
0
100
AcDbPolyline
90
2
70
1
43
0.0
10
13.26624
20
8.958475
10
13.26624
20
7.958475
0
LWPOLYLINE
5
109
100
AcDbEntity
8
0
100
AcDbPolyline
90
2
70
1
43
0.0
10
13.26624
20
8.958475
42
0.99999999999999989
10
12.816240000000001
20
8.958475
42
-0.99999999999999989
0
LINE
5
110
100
AcDbEntity
8
0
100
AcDbLine
10
-0.32000000000000001
20
1.8999999999999999
30
0
11
2.5533934133710465
21
1.8999999999999999
31
0
0
LINE
5
111
100
AcDbEntity
8
0
100
AcDbLine
10
3.9866065866289535
20
1.9000000000000004
30
0
11
13.333393413371049
21
1.8999999999999999
31
0
0
LINE
5
112
100
AcDbEntity
8
0
100
AcDbLine
10
14.766606586628956
20
1.9000000000000006
30
0
11
17.480000000000004
21
1.8999999999999999
31
0
0
LINE
5
113
100
AcDbEntity
8
0
100
AcDbLine
10
-0.32000000000000001
20
1.8999999999999999
30
0
11
-0.31999999999997575
21
6.0143310000000003
31
0
0
ARC
5
114
100
AcDbEntity
8
0
100
AcDbCircle
10
0.68000158705945202
20
6.014330999999995
30
0
40
1.0000015870594272
210
0
220
0
230
1
100
AcDbArc
50
145.00002424653763
51
180
0
LINE
5
115
100
AcDbEntity
8
0
100
AcDbLine
10
-0.139152
20
6.5879080000000005
30
0
11
1.8814160687349102
21
9.4735760981594588
31
0
0
ARC
5
116
100
AcDbEntity
8
0
100
AcDbCircle
10
2.7005691146772475
20
8.8999985307691816
30
0
40
1.000001469243899
210
0
220
0
230
1
100
AcDbArc
50
90.000293048989278
51
144.9999798337291
0
ARC
5
117
100
AcDbEntity
8
0
100
AcDbCircle
10
14.459421018894842
20
8.8999757400428354
30
0
40
1.0000242601784619
210
0
220
-0
230
1
100
AcDbArc
50
34.999993602923333
51
90.000000000001933
0
LINE
5
118
100
AcDbEntity
8
0
100
AcDbLine
10
2.7005640000000004
20
9.9000000000000004
30
0
11
14.459421018894808
21
9.9000000000004054
31
0
0
LINE
5
119
100
AcDbEntity
8
0
100
AcDbLine
10
15.278593000000003
20
9.4735659999999999
30
0
11
17.299138000000124
21
6.5879280000000859
31
0
0
ARC
5
120
100
AcDbEntity
8
0
100
AcDbCircle
10
16.479921986558555
20
6.01430690827637
30
0
40
1.0000780137316307
210
0
220
-0
230
1
100
AcDbArc
50
0.0013802465050667084
51
34.999993602923333
0
LINE
5
121
100
AcDbEntity
8
0
100
AcDbLine
10
17.480000000000004
20
6.0143310000000003
30
0
11
17.480000000000004
21
1.8999999999999999
31
0
0
LINE
5
122
100
AcDbEntity
8
0
100
AcDbLine
10
3.3463399999999996
20
9.9000000000000234
30
0
11
3.3463399999999992
21
5.4333749999999998
31
0
6
DASHED
0
LINE
5
123
100
AcDbEntity
8
0
100
AcDbLine
10
12.93634
20
5.4333749999999998
30
0
11
12.93634
21
9.9000000000003539
31
0
6
DASHED
0
LINE
5
124
100
AcDbEntity
8
0
100
AcDbLine
10
3.3463399999999992
20
5.4333749999999998
30
0
11
12.93634
21
5.4333749999999998
31
0
6
DASHED
0
LWPOLYLINE
5
125
100
AcDbEntity
8
0
100
AcDbPolyline
90
4
70
1
43
0.0
10
0.24508000000000002
20
5.5199999999999996
10
0.84508000000000016
20
5.5199999999999996
10
0.84508000000000016
20
5.9199999999999999
10
0.24508000000000002
20
5.9199999999999999
0
LWPOLYLINE
5
126
100
AcDbEntity
8
0
100
AcDbPolyline
90
4
70
1
43
0.0
10
1.2949200000000003
20
5.5400000000000009
10
1.8949199999999999
20
5.5400000000000009
10
1.8949199999999999
20
5.9400000000000013
10
1.2949200000000003
20
5.9400000000000013
0
LWPOLYLINE
5
127
100
AcDbEntity
8
0
100
AcDbPolyline
90
4
70
1
43
0.0
10
0.24508000000000002
20
4.6200000000000001
10
0.84508000000000016
20
4.6200000000000001
10
0.84508000000000016
20
5.0199999999999996
10
0.24508000000000002
20
5.0199999999999996
0
LWPOLYLINE
5
128
100
AcDbEntity
8
0
100
AcDbPolyline
90
4
70
1
43
0.0
10
1.2949200000000003
20
4.6399999999999997
10
1.8949199999999999
20
4.6399999999999997
10
1.8949199999999999
20
5.04
10
1.2949200000000003
20
5.04
0
LWPOLYLINE
5
129
100
AcDbEntity
8
0
100
AcDbPolyline
90
4
70
1
43
0.0
10
0.30508000000000002
20
3.5200000000000005
10
0.90508000000000011
20
3.5200000000000005
10
0.90508000000000011
20
3.9199999999999999
10
0.30508000000000007
20
3.9199999999999999
0
LWPOLYLINE
5
130
100
AcDbEntity
8
0
100
AcDbPolyline
90
4
70
1
43
0.0
10
0.30508000000000002
20
2.6200000000000001
10
0.90508000000000011
20
2.6200000000000001
10
0.90508000000000011
20
3.0200000000000005
10
0.30508000000000007
20
3.0200000000000005
0
LWPOLYLINE
5
131
100
AcDbEntity
8
0
100
AcDbPolyline
90
4
70
1
43
0.0
10
12.859999999999999
20
4.01492
10
13.260000000000002
20
4.01492
10
13.260000000000002
20
4.6149199999999997
10
12.859999999999999
20
4.6149199999999997
0
LWPOLYLINE
5
132
100
AcDbEntity
8
0
100
AcDbPolyline
90
4
70
1
43
0.0
10
13.760000000000002
20
4.01492
10
14.160000000000002
20
4.01492
10
14.160000000000002
20
4.6149199999999997
10
13.760000000000002
20
4.6149199999999997
0
LWPOLYLINE
5
133
100
AcDbEntity
8
0
100
AcDbPolyline
90
4
70
1
43
0.0
10
5.9574999999999996
20
2.5579999999999998
10
6.182500000000001
20
2.5579999999999998
10
6.182500000000001
20
2.7450000000000001
10
5.9574999999999996
20
2.7450000000000001
0
LWPOLYLINE
5
134
100
AcDbEntity
8
0
100
AcDbPolyline
90
4
70
1
43
0.0
10
6.8375000000000004
20
2.5579999999999998
10
7.0625
20
2.5579999999999998
10
7.0625
20
2.7450000000000001
10
6.8375000000000004
20
2.7450000000000001
0
LWPOLYLINE
5
135
100
AcDbEntity
8
0
100
AcDbPolyline
90
4
70
1
43
0.0
10
7.7075000000000005
20
2.5579999999999998
10
7.9325000000000001
20
2.5579999999999998
10
7.9325000000000001
20
2.7450000000000001
10
7.7075000000000005
20
2.7450000000000001
0
LWPOLYLINE
5
136
100
AcDbEntity
8
0
100
AcDbPolyline
90
4
70
1
43
0.0
10
8.5875000000000021
20
2.5579999999999998
10
8.8125
20
2.5579999999999998
10
8.8125
20
2.7450000000000001
10
8.5875000000000021
20
2.7450000000000001
0
LWPOLYLINE
5
137
100
AcDbEntity
8
0
100
AcDbPolyline
90
4
70
1
43
0.0
10
9.4674999999999994
20
2.5579999999999998
10
9.6925000000000026
20
2.5579999999999998
10
9.6925000000000026
20
2.7450000000000001
10
9.4674999999999994
20
2.7450000000000001
0
LINE
5
138
100
AcDbEntity
8
0
100
AcDbLine
10
2.5533934133710465
20
1.8999999999999999
30
0
11
3.9866065866289535
21
1.9000000000000004
31
0
0
LINE
5
139
100
AcDbEntity
8
0
100
AcDbLine
10
13.333393413371049
20
1.8999999999999999
30
0
11
14.766606586628956
21
1.9000000000000006
31
0
0
ENDSEC
0
SECTION
2
OBJECTS
0
DICTIONARY
5
C
100
AcDbDictionary
3
ACAD_GROUP
350
D
3
ACAD_MLINESTYLE
350
17
0
DICTIONARY
5
D
100
AcDbDictionary
0
DICTIONARY
5
1A
330
C
100
AcDbDictionary
0
DICTIONARY
5
17
100
AcDbDictionary
0
ENDSEC
0
EOF
