M48
; DRILL file {KiCad 8.0.9} date 2025-03-25T11:17:14+0530
; FORMAT={-:-/ absolute / inch / decimal}
; #@! TF.CreationDate,2025-03-25T11:17:14+05:30
; #@! TF.GenerationSoftware,Kicad,Pcbnew,8.0.9
; #@! TF.FileFunction,Plated,1,4,PTH
FMAT,2
INCH
; #@! TA.AperFunction,Plated,PTH,ViaDrill
T1C0.0098
; #@! TA.AperFunction,Plated,PTH,ComponentDrill
T2C0.0118
; #@! TA.AperFunction,Plated,PTH,ComponentDrill
T3C0.0157
%
G90
G05
T1
X0.2936Y-1.0153
X0.2936Y-1.0448
X0.2936Y-1.0744
X0.2936Y-1.1039
X0.2936Y-1.1334
X0.2936Y-1.1629
X0.2936Y-1.1925
X0.2936Y-1.222
X0.2936Y-1.2515
X0.2936Y-1.2811
X0.2936Y-1.3106
X0.2936Y-1.3401
X0.2936Y-1.3696
X0.2936Y-2.5704
X0.2936Y-2.6
X0.2936Y-2.6295
X0.2936Y-2.659
X0.2936Y-2.6885
X0.2936Y-2.7181
X0.2936Y-2.7476
X0.2936Y-2.7771
X0.2936Y-2.8066
X0.2936Y-2.8362
X0.2936Y-2.8657
X0.2936Y-2.8952
X0.2936Y-2.9248
X0.2936Y-4.1255
X0.2936Y-4.1551
X0.2936Y-4.1846
X0.2936Y-4.2141
X0.2936Y-4.2437
X0.2936Y-4.2732
X0.2936Y-4.3027
X0.2936Y-4.3322
X0.2936Y-4.3618
X0.2936Y-4.3913
X0.2936Y-4.4208
X0.2936Y-4.4503
X0.2936Y-4.4799
X0.2936Y-5.6807
X0.2936Y-5.7102
X0.2936Y-5.7397
X0.2936Y-5.7692
X0.2936Y-5.7988
X0.2936Y-5.8283
X0.2936Y-5.8578
X0.2936Y-5.8874
X0.2936Y-5.9169
X0.2936Y-5.9464
X0.2936Y-5.9759
X0.2936Y-6.0055
X0.2936Y-6.035
X0.2936Y-7.2358
X0.2936Y-7.2653
X0.2936Y-7.2948
X0.2936Y-7.3244
X0.2936Y-7.3539
X0.2936Y-7.3834
X0.2936Y-7.4129
X0.2936Y-7.4425
X0.2936Y-7.472
X0.2936Y-7.5015
X0.2936Y-7.5311
X0.2936Y-7.5606
X0.2936Y-7.5901
X0.2942Y-1.4024
X0.2942Y-2.9575
X0.2942Y-4.5127
X0.2942Y-6.0678
X0.2942Y-7.6229
X0.2953Y-1.4344
X0.2953Y-2.9896
X0.2953Y-4.5447
X0.2953Y-6.0998
X0.2953Y-7.6549
X0.2985Y-0.9448
X0.2985Y-2.4999
X0.2985Y-4.0551
X0.2985Y-5.6102
X0.2985Y-7.1653
X0.2986Y-0.3989
X0.2986Y-0.4285
X0.2986Y-0.458
X0.2986Y-0.4875
X0.2986Y-0.517
X0.2986Y-0.5466
X0.2986Y-0.5761
X0.2986Y-0.6056
X0.2986Y-0.6351
X0.2986Y-0.6647
X0.2986Y-0.6942
X0.2986Y-0.7237
X0.2986Y-0.7533
X0.2986Y-1.954
X0.2986Y-1.9836
X0.2986Y-2.0131
X0.2986Y-2.0426
X0.2986Y-2.0722
X0.2986Y-2.1017
X0.2986Y-2.1312
X0.2986Y-2.1607
X0.2986Y-2.1903
X0.2986Y-2.2198
X0.2986Y-2.2493
X0.2986Y-2.2788
X0.2986Y-2.3084
X0.2986Y-3.5092
X0.2986Y-3.5387
X0.2986Y-3.5682
X0.2986Y-3.5977
X0.2986Y-3.6273
X0.2986Y-3.6568
X0.2986Y-3.6863
X0.2986Y-3.7159
X0.2986Y-3.7454
X0.2986Y-3.7749
X0.2986Y-3.8044
X0.2986Y-3.834
X0.2986Y-3.8635
X0.2986Y-5.0643
X0.2986Y-5.0938
X0.2986Y-5.1233
X0.2986Y-5.1529
X0.2986Y-5.1824
X0.2986Y-5.2119
X0.2986Y-5.2414
X0.2986Y-5.271
X0.2986Y-5.3005
X0.2986Y-5.33
X0.2986Y-5.3596
X0.2986Y-5.3891
X0.2986Y-5.4186
X0.2986Y-6.6194
X0.2986Y-6.6489
X0.2986Y-6.6785
X0.2986Y-6.708
X0.2986Y-6.7375
X0.2986Y-6.767
X0.2986Y-6.7966
X0.2986Y-6.8261
X0.2986Y-6.8556
X0.2986Y-6.8851
X0.2986Y-6.9147
X0.2986Y-6.9442
X0.2986Y-6.9737
X0.2991Y-0.3667
X0.2991Y-1.9218
X0.2991Y-3.4769
X0.2991Y-5.032
X0.2991Y-6.5871
X0.2995Y-1.466
X0.2995Y-3.0211
X0.2995Y-4.5762
X0.2995Y-6.1313
X0.2995Y-7.6865
X0.2996Y-0.8385
X0.2996Y-2.3936
X0.2996Y-3.9488
X0.2996Y-5.5039
X0.2996Y-7.059
X0.3004Y-0.87
X0.3004Y-0.9019
X0.3004Y-2.4251
X0.3004Y-2.457
X0.3004Y-3.9803
X0.3004Y-4.0121
X0.3004Y-5.5354
X0.3004Y-5.5673
X0.3004Y-7.0905
X0.3004Y-7.1224
X0.3221Y-0.3303
X0.3221Y-1.8854
X0.3221Y-3.4405
X0.3221Y-4.9956
X0.3221Y-6.5507
X0.3227Y-1.4975
X0.3227Y-3.0527
X0.3227Y-4.6078
X0.3227Y-6.1629
X0.3227Y-7.718
X0.3507Y-1.519
X0.3507Y-3.0741
X0.3507Y-4.6292
X0.3507Y-6.1843
X0.3507Y-7.7394
X0.3532Y-0.5653
X0.3532Y-0.5948
X0.3532Y-2.1204
X0.3532Y-2.1499
X0.3532Y-3.6755
X0.3532Y-3.7051
X0.3532Y-5.2307
X0.3532Y-5.2602
X0.3532Y-6.7858
X0.3532Y-6.8153
X0.354Y-0.3039
X0.354Y-1.859
X0.354Y-3.4141
X0.354Y-4.9692
X0.354Y-6.5244
X0.3654Y-0.3673
X0.3654Y-0.3968
X0.3654Y-1.9224
X0.3654Y-1.9519
X0.3654Y-3.4775
X0.3654Y-3.507
X0.3654Y-5.0326
X0.3654Y-5.0621
X0.3654Y-6.5877
X0.3654Y-6.6173
X0.3827Y-0.5653
X0.3827Y-0.5948
X0.3827Y-2.1204
X0.3827Y-2.1499
X0.3827Y-3.6755
X0.3827Y-3.7051
X0.3827Y-5.2307
X0.3827Y-5.2602
X0.3827Y-6.7858
X0.3827Y-6.8153
X0.3859Y-1.5373
X0.3859Y-3.0925
X0.3859Y-4.6476
X0.3859Y-6.2027
X0.3859Y-7.7578
X0.3895Y-1.4142
X0.3895Y-1.4437
X0.3895Y-2.9693
X0.3895Y-2.9988
X0.3895Y-4.5244
X0.3895Y-4.5539
X0.3895Y-6.0795
X0.3895Y-6.109
X0.3895Y-7.6346
X0.3895Y-7.6642
X0.3923Y-0.2907
X0.3923Y-1.8459
X0.3923Y-3.401
X0.3923Y-4.9561
X0.3923Y-6.5112
X0.3933Y-0.9972
X0.3933Y-2.5523
X0.3933Y-4.1074
X0.3933Y-5.6625
X0.3933Y-7.2177
X0.3937Y-0.6722
X0.3937Y-0.7017
X0.3937Y-0.728
X0.3937Y-0.7575
X0.3937Y-2.2273
X0.3937Y-2.2568
X0.3937Y-2.2831
X0.3937Y-2.3126
X0.3937Y-3.7824
X0.3937Y-3.8119
X0.3937Y-3.8382
X0.3937Y-3.8677
X0.3937Y-5.3375
X0.3937Y-5.367
X0.3937Y-5.3933
X0.3937Y-5.4229
X0.3937Y-6.8926
X0.3937Y-6.9222
X0.3937Y-6.9485
X0.3937Y-6.978
X0.3945Y-1.0196
X0.3945Y-2.5747
X0.3945Y-4.1299
X0.3945Y-5.685
X0.3945Y-7.2401
X0.3949Y-0.3673
X0.3949Y-0.3968
X0.3949Y-1.9224
X0.3949Y-1.9519
X0.3949Y-3.4775
X0.3949Y-3.507
X0.3949Y-5.0326
X0.3949Y-5.0621
X0.3949Y-6.5877
X0.3949Y-6.6173
X0.4154Y-1.5373
X0.4154Y-3.0925
X0.4154Y-4.6476
X0.4154Y-6.2027
X0.4154Y-7.7578
X0.4185Y-1.0196
X0.4185Y-2.5747
X0.4185Y-4.1299
X0.4185Y-5.685
X0.4185Y-7.2401
X0.419Y-1.4142
X0.419Y-1.4437
X0.419Y-2.9693
X0.419Y-2.9988
X0.419Y-4.5244
X0.419Y-4.5539
X0.419Y-6.0795
X0.419Y-6.109
X0.419Y-7.6346
X0.419Y-7.6642
X0.4197Y-0.9968
X0.4197Y-2.5519
X0.4197Y-4.107
X0.4197Y-5.6621
X0.4197Y-7.2173
X0.4218Y-0.2907
X0.4218Y-1.8459
X0.4218Y-3.401
X0.4218Y-4.9561
X0.4218Y-6.5112
X0.4232Y-0.6722
X0.4232Y-0.7017
X0.4232Y-0.728
X0.4232Y-0.7575
X0.4232Y-2.2273
X0.4232Y-2.2568
X0.4232Y-2.2831
X0.4232Y-2.3126
X0.4232Y-3.7824
X0.4232Y-3.8119
X0.4232Y-3.8382
X0.4232Y-3.8677
X0.4232Y-5.3375
X0.4232Y-5.367
X0.4232Y-5.3933
X0.4232Y-5.4229
X0.4232Y-6.8926
X0.4232Y-6.9222
X0.4232Y-6.9485
X0.4232Y-6.978
X0.441Y-1.0192
X0.441Y-2.5744
X0.441Y-4.1295
X0.441Y-5.6846
X0.441Y-7.2397
X0.4418Y-0.996
X0.4418Y-2.5511
X0.4418Y-4.1062
X0.4418Y-5.6614
X0.4418Y-7.2165
X0.4449Y-1.5373
X0.4449Y-3.0925
X0.4449Y-4.6476
X0.4449Y-6.2027
X0.4449Y-7.7578
X0.4514Y-0.2907
X0.4514Y-1.8459
X0.4514Y-3.401
X0.4514Y-4.9561
X0.4514Y-6.5112
X0.4519Y-0.728
X0.4519Y-0.7575
X0.4519Y-2.2831
X0.4519Y-2.3126
X0.4519Y-3.8382
X0.4519Y-3.8677
X0.4519Y-5.3933
X0.4519Y-5.4229
X0.4519Y-6.9485
X0.4519Y-6.978
X0.4529Y-0.3553
X0.4529Y-0.3848
X0.4529Y-1.9104
X0.4529Y-1.9399
X0.4529Y-3.4655
X0.4529Y-3.495
X0.4529Y-5.0206
X0.4529Y-5.0501
X0.4529Y-6.5757
X0.4529Y-6.6053
X0.4532Y-0.67
X0.4532Y-0.6996
X0.4532Y-2.2252
X0.4532Y-2.2547
X0.4532Y-3.7803
X0.4532Y-3.8098
X0.4532Y-5.3354
X0.4532Y-5.3649
X0.4532Y-6.8905
X0.4532Y-6.92
X0.4607Y-1.0196
X0.4607Y-2.5747
X0.4607Y-4.1299
X0.4607Y-5.685
X0.4607Y-7.2401
X0.4744Y-1.5373
X0.4744Y-3.0925
X0.4744Y-4.6476
X0.4744Y-6.2027
X0.4744Y-7.7578
X0.4809Y-0.2907
X0.4809Y-1.8459
X0.4809Y-3.401
X0.4809Y-4.9561
X0.4809Y-6.5112
X0.481Y-0.7819
X0.481Y-2.337
X0.481Y-3.8921
X0.481Y-5.4473
X0.481Y-7.0024
X0.4814Y-0.728
X0.4814Y-0.7575
X0.4814Y-2.2831
X0.4814Y-2.3126
X0.4814Y-3.8382
X0.4814Y-3.8677
X0.4814Y-5.3933
X0.4814Y-5.4229
X0.4814Y-6.9485
X0.4814Y-6.978
X0.4824Y-0.3553
X0.4824Y-0.3848
X0.4824Y-1.9104
X0.4824Y-1.9399
X0.4824Y-3.4655
X0.4824Y-3.495
X0.4824Y-5.0206
X0.4824Y-5.0501
X0.4824Y-6.5757
X0.4824Y-6.6053
X0.4827Y-0.67
X0.4827Y-0.6996
X0.4827Y-2.2252
X0.4827Y-2.2547
X0.4827Y-3.7803
X0.4827Y-3.8098
X0.4827Y-5.3354
X0.4827Y-5.3649
X0.4827Y-6.8905
X0.4827Y-6.92
X0.4855Y-1.0196
X0.4855Y-2.5747
X0.4855Y-4.1299
X0.4855Y-5.685
X0.4855Y-7.2401
X0.504Y-1.5373
X0.504Y-3.0925
X0.504Y-4.6476
X0.504Y-6.2027
X0.504Y-7.7578
X0.5074Y-0.7784
X0.5074Y-2.3335
X0.5074Y-3.8886
X0.5074Y-5.4437
X0.5074Y-6.9988
X0.5075Y-1.0188
X0.5075Y-2.574
X0.5075Y-4.1291
X0.5075Y-5.6842
X0.5075Y-7.2393
X0.5104Y-0.2907
X0.5104Y-1.8459
X0.5104Y-3.401
X0.5104Y-4.9561
X0.5104Y-6.5112
X0.511Y-0.7119
X0.511Y-2.267
X0.511Y-3.8221
X0.511Y-5.3773
X0.511Y-6.9324
X0.515Y-0.6724
X0.515Y-2.2275
X0.515Y-3.7826
X0.515Y-5.3377
X0.515Y-6.8929
X0.5177Y-0.748
X0.5177Y-2.3031
X0.5177Y-3.8582
X0.5177Y-5.4133
X0.5177Y-6.9684
X0.5185Y-0.974
X0.5185Y-2.5291
X0.5185Y-4.0842
X0.5185Y-5.6393
X0.5185Y-7.1944
X0.5189Y-0.9968
X0.5189Y-2.5519
X0.5189Y-4.107
X0.5189Y-5.6621
X0.5189Y-7.2173
X0.53Y-0.7956
X0.53Y-2.3507
X0.53Y-3.9058
X0.53Y-5.461
X0.53Y-7.0161
X0.5335Y-1.5373
X0.5335Y-3.0925
X0.5335Y-4.6476
X0.5335Y-6.2027
X0.5335Y-7.7578
X0.54Y-0.2907
X0.54Y-1.8459
X0.54Y-3.401
X0.54Y-4.9561
X0.54Y-6.5112
X0.5414Y-0.771
X0.5414Y-2.3261
X0.5414Y-3.8812
X0.5414Y-5.4364
X0.5414Y-6.9915
X0.5426Y-0.9657
X0.5426Y-2.5208
X0.5426Y-4.0759
X0.5426Y-5.631
X0.5426Y-7.1862
X0.5484Y-0.3544
X0.5484Y-0.3839
X0.5484Y-1.9095
X0.5484Y-1.939
X0.5484Y-3.4646
X0.5484Y-3.4941
X0.5484Y-5.0197
X0.5484Y-5.0492
X0.5484Y-6.5748
X0.5484Y-6.6044
X0.5489Y-0.7342
X0.5489Y-2.2893
X0.5489Y-3.8444
X0.5489Y-5.3995
X0.5489Y-6.9547
X0.5579Y-0.8212
X0.5579Y-2.3763
X0.5579Y-3.9314
X0.5579Y-5.4866
X0.5579Y-7.0417
X0.5591Y-0.7031
X0.5591Y-0.7948
X0.5591Y-2.2582
X0.5591Y-2.3499
X0.5591Y-3.8133
X0.5591Y-3.9051
X0.5591Y-5.3684
X0.5591Y-5.4602
X0.5591Y-6.9236
X0.5591Y-7.0153
X0.563Y-1.5373
X0.563Y-3.0925
X0.563Y-4.6476
X0.563Y-6.2027
X0.563Y-7.7578
X0.5669Y-0.7714
X0.5669Y-2.3265
X0.5669Y-3.8816
X0.5669Y-5.4368
X0.5669Y-6.9919
X0.5695Y-0.2907
X0.5695Y-1.8459
X0.5695Y-3.401
X0.5695Y-4.9561
X0.5695Y-6.5112
X0.5697Y-0.9657
X0.5697Y-2.5208
X0.5697Y-4.0759
X0.5697Y-5.631
X0.5697Y-7.1862
X0.5779Y-0.3544
X0.5779Y-0.3839
X0.5779Y-1.9095
X0.5779Y-1.939
X0.5779Y-3.4646
X0.5779Y-3.4941
X0.5779Y-5.0197
X0.5779Y-5.0492
X0.5779Y-6.5748
X0.5779Y-6.6044
X0.5786Y-0.8999
X0.5786Y-2.4551
X0.5786Y-4.0102
X0.5786Y-5.5653
X0.5786Y-7.1204
X0.5875Y-0.7821
X0.5875Y-2.3373
X0.5875Y-3.8924
X0.5875Y-5.4475
X0.5875Y-7.0026
X0.5876Y-0.7611
X0.5876Y-2.3162
X0.5876Y-3.8713
X0.5876Y-5.4265
X0.5876Y-6.9816
X0.5926Y-1.5373
X0.5926Y-3.0925
X0.5926Y-4.6476
X0.5926Y-6.2027
X0.5926Y-7.7578
X0.5989Y-0.8322
X0.5989Y-2.3873
X0.5989Y-3.9425
X0.5989Y-5.4976
X0.5989Y-7.0527
X0.599Y-0.2907
X0.599Y-1.8459
X0.599Y-3.401
X0.599Y-4.9561
X0.599Y-6.5112
X0.6008Y-0.6736
X0.6008Y-2.2287
X0.6008Y-3.7838
X0.6008Y-5.3389
X0.6008Y-6.894
X0.6095Y-0.7019
X0.6095Y-2.257
X0.6095Y-3.8121
X0.6095Y-5.3673
X0.6095Y-6.9224
X0.6102Y-0.771
X0.6102Y-2.3261
X0.6102Y-3.8812
X0.6102Y-5.4364
X0.6102Y-6.9915
X0.6174Y-1.3506
X0.6174Y-1.3801
X0.6174Y-2.9057
X0.6174Y-2.9352
X0.6174Y-4.4608
X0.6174Y-4.4904
X0.6174Y-6.0159
X0.6174Y-6.0455
X0.6174Y-7.5711
X0.6174Y-7.6006
X0.6221Y-1.5373
X0.6221Y-3.0925
X0.6221Y-4.6476
X0.6221Y-6.2027
X0.6221Y-7.7578
X0.626Y-0.8314
X0.626Y-2.3866
X0.626Y-3.9417
X0.626Y-5.4968
X0.626Y-7.0519
X0.6285Y-0.2907
X0.6285Y-1.8459
X0.6285Y-3.401
X0.6285Y-4.9561
X0.6285Y-6.5112
X0.6327Y-0.7821
X0.6327Y-2.3373
X0.6327Y-3.8924
X0.6327Y-5.4475
X0.6327Y-7.0026
X0.6331Y-0.7605
X0.6331Y-2.3156
X0.6331Y-3.8707
X0.6331Y-5.4259
X0.6331Y-6.981
X0.6469Y-1.1043
X0.6469Y-2.6594
X0.6469Y-4.2145
X0.6469Y-5.7696
X0.6469Y-7.3247
X0.6469Y-1.3506
X0.6469Y-1.3801
X0.6469Y-2.9057
X0.6469Y-2.9352
X0.6469Y-4.4608
X0.6469Y-4.4904
X0.6469Y-6.0159
X0.6469Y-6.0455
X0.6469Y-7.5711
X0.6469Y-7.6006
X0.6512Y-1.0436
X0.6512Y-2.5988
X0.6512Y-4.1539
X0.6512Y-5.709
X0.6512Y-7.2641
X0.6516Y-0.9645
X0.6516Y-1.5373
X0.6516Y-2.5196
X0.6516Y-3.0925
X0.6516Y-4.0747
X0.6516Y-4.6476
X0.6516Y-5.6299
X0.6516Y-6.2027
X0.6516Y-7.185
X0.6516Y-7.7578
X0.6536Y-0.7023
X0.6536Y-2.2574
X0.6536Y-3.8125
X0.6536Y-5.3677
X0.6536Y-6.9228
X0.6536Y-0.771
X0.6536Y-2.3261
X0.6536Y-3.8812
X0.6536Y-5.4363
X0.6536Y-6.9914
X0.6547Y-1.1976
X0.6547Y-1.2272
X0.6547Y-2.7528
X0.6547Y-2.7823
X0.6547Y-4.3079
X0.6547Y-4.3374
X0.6547Y-5.863
X0.6547Y-5.8925
X0.6547Y-7.4181
X0.6547Y-7.4476
X0.6581Y-0.2907
X0.6581Y-1.8459
X0.6581Y-3.401
X0.6581Y-4.9561
X0.6581Y-6.5112
X0.6607Y-0.8976
X0.6607Y-2.4527
X0.6607Y-4.0078
X0.6607Y-5.5629
X0.6607Y-7.1181
X0.6618Y-0.9247
X0.6618Y-2.4799
X0.6618Y-4.035
X0.6618Y-5.5901
X0.6618Y-7.1452
X0.6729Y-0.7869
X0.6729Y-2.3421
X0.6729Y-3.8972
X0.6729Y-5.4523
X0.6729Y-7.0074
X0.6811Y-1.5373
X0.6811Y-3.0925
X0.6811Y-4.6476
X0.6811Y-6.2027
X0.6811Y-7.7578
X0.6842Y-1.1976
X0.6842Y-1.2272
X0.6842Y-2.7528
X0.6842Y-2.7823
X0.6842Y-4.3079
X0.6842Y-4.3374
X0.6842Y-5.863
X0.6842Y-5.8925
X0.6842Y-7.4181
X0.6842Y-7.4476
X0.6855Y-0.672
X0.6855Y-2.2271
X0.6855Y-3.7822
X0.6855Y-5.3373
X0.6855Y-6.8925
X0.6876Y-0.2907
X0.6876Y-1.8459
X0.6876Y-3.401
X0.6876Y-4.9561
X0.6876Y-6.5112
X0.6914Y-0.9618
X0.6914Y-2.5169
X0.6914Y-4.072
X0.6914Y-5.6271
X0.6914Y-7.1822
X0.7055Y-0.856
X0.7055Y-2.4112
X0.7055Y-3.9663
X0.7055Y-5.5214
X0.7055Y-7.0765
X0.7107Y-1.5373
X0.7107Y-3.0925
X0.7107Y-4.6476
X0.7107Y-6.2027
X0.7107Y-7.7578
X0.7171Y-0.2907
X0.7171Y-1.8459
X0.7171Y-3.401
X0.7171Y-4.9561
X0.7171Y-6.5112
X0.7233Y-0.961
X0.7233Y-2.5161
X0.7233Y-4.0712
X0.7233Y-5.6263
X0.7233Y-7.1814
X0.7308Y-1.4408
X0.7308Y-1.4703
X0.7308Y-2.9959
X0.7308Y-3.0254
X0.7308Y-4.551
X0.7308Y-4.5805
X0.7308Y-6.1061
X0.7308Y-6.1357
X0.7308Y-7.6612
X0.7308Y-7.6908
X0.7343Y-0.856
X0.7343Y-2.4112
X0.7343Y-3.9663
X0.7343Y-5.5214
X0.7343Y-7.0765
X0.7402Y-1.5373
X0.7402Y-3.0925
X0.7402Y-4.6476
X0.7402Y-6.2027
X0.7402Y-7.7578
X0.7466Y-0.2907
X0.7466Y-1.8459
X0.7466Y-3.401
X0.7466Y-4.9561
X0.7466Y-6.5112
X0.7492Y-0.8948
X0.7492Y-2.4499
X0.7492Y-4.0051
X0.7492Y-5.5602
X0.7492Y-7.1153
X0.7496Y-0.9224
X0.7496Y-2.4775
X0.7496Y-4.0326
X0.7496Y-5.5877
X0.7496Y-7.1429
X0.75Y-0.9476
X0.75Y-2.5027
X0.75Y-4.0578
X0.75Y-5.6129
X0.75Y-7.1681
X0.7534Y-0.7734
X0.7534Y-2.3285
X0.7534Y-3.8836
X0.7534Y-5.4388
X0.7534Y-6.9939
X0.7536Y-0.7982
X0.7536Y-2.3534
X0.7536Y-3.9085
X0.7536Y-5.4636
X0.7536Y-7.0187
X0.7591Y-0.856
X0.7591Y-2.4112
X0.7591Y-3.9663
X0.7591Y-5.5214
X0.7591Y-7.0765
X0.7603Y-1.4408
X0.7603Y-1.4703
X0.7603Y-2.9959
X0.7603Y-3.0254
X0.7603Y-4.551
X0.7603Y-4.5805
X0.7603Y-6.1061
X0.7603Y-6.1357
X0.7603Y-7.6612
X0.7603Y-7.6908
X0.7697Y-1.5373
X0.7697Y-3.0925
X0.7697Y-4.6476
X0.7697Y-6.2027
X0.7697Y-7.7578
X0.7752Y-0.7842
X0.7752Y-2.3393
X0.7752Y-3.8944
X0.7752Y-5.4495
X0.7752Y-7.0047
X0.7762Y-0.2907
X0.7762Y-1.8459
X0.7762Y-3.401
X0.7762Y-4.9561
X0.7762Y-6.5112
X0.7763Y-1.3399
X0.7763Y-1.3694
X0.7763Y-2.895
X0.7763Y-2.9245
X0.7763Y-4.4501
X0.7763Y-4.4796
X0.7763Y-6.0052
X0.7763Y-6.0348
X0.7763Y-7.5604
X0.7763Y-7.5899
X0.7992Y-1.5373
X0.7992Y-3.0925
X0.7992Y-4.6476
X0.7992Y-6.2027
X0.7992Y-7.7578
X0.8022Y-0.9204
X0.8022Y-0.9499
X0.8022Y-2.4755
X0.8022Y-2.505
X0.8022Y-4.0306
X0.8022Y-4.0601
X0.8022Y-5.5857
X0.8022Y-5.6152
X0.8022Y-7.1408
X0.8022Y-7.1704
X0.8024Y-0.7551
X0.8024Y-0.7846
X0.8024Y-2.3102
X0.8024Y-2.3397
X0.8024Y-3.8653
X0.8024Y-3.8948
X0.8024Y-5.4204
X0.8024Y-5.4499
X0.8024Y-6.9755
X0.8024Y-7.0051
X0.8057Y-0.2907
X0.8057Y-1.8459
X0.8057Y-3.401
X0.8057Y-4.9561
X0.8057Y-6.5112
X0.8058Y-1.3399
X0.8058Y-1.3694
X0.8058Y-2.895
X0.8058Y-2.9245
X0.8058Y-4.4501
X0.8058Y-4.4796
X0.8058Y-6.0052
X0.8058Y-6.0348
X0.8058Y-7.5604
X0.8058Y-7.5899
X0.8146Y-0.3544
X0.8146Y-0.3839
X0.8146Y-1.9095
X0.8146Y-1.939
X0.8146Y-3.4646
X0.8146Y-3.4941
X0.8146Y-5.0197
X0.8146Y-5.0492
X0.8146Y-6.5748
X0.8146Y-6.6044
X0.8288Y-1.5373
X0.8288Y-3.0925
X0.8288Y-4.6476
X0.8288Y-6.2027
X0.8288Y-7.7578
X0.8317Y-0.9204
X0.8317Y-0.9499
X0.8317Y-2.4755
X0.8317Y-2.505
X0.8317Y-4.0306
X0.8317Y-4.0601
X0.8317Y-5.5857
X0.8317Y-5.6152
X0.8317Y-7.1408
X0.8317Y-7.1704
X0.8319Y-0.7551
X0.8319Y-0.7846
X0.8319Y-2.3102
X0.8319Y-2.3397
X0.8319Y-3.8653
X0.8319Y-3.8948
X0.8319Y-5.4204
X0.8319Y-5.4499
X0.8319Y-6.9755
X0.8319Y-7.0051
X0.8352Y-0.2907
X0.8352Y-1.8459
X0.8352Y-3.401
X0.8352Y-4.9561
X0.8352Y-6.5112
X0.8441Y-0.3544
X0.8441Y-0.3839
X0.8441Y-1.9095
X0.8441Y-1.939
X0.8441Y-3.4646
X0.8441Y-3.4941
X0.8441Y-5.0197
X0.8441Y-5.0492
X0.8441Y-6.5748
X0.8441Y-6.6044
X0.8583Y-1.5373
X0.8583Y-3.0925
X0.8583Y-4.6476
X0.8583Y-6.2027
X0.8583Y-7.7578
X0.8618Y-0.7551
X0.8618Y-0.7846
X0.8618Y-2.3102
X0.8618Y-2.3397
X0.8618Y-3.8653
X0.8618Y-3.8948
X0.8618Y-5.4204
X0.8618Y-5.4499
X0.8618Y-6.9755
X0.8618Y-7.0051
X0.8638Y-1.4417
X0.8638Y-1.4712
X0.8638Y-2.9968
X0.8638Y-3.0263
X0.8638Y-4.5519
X0.8638Y-4.5814
X0.8638Y-6.107
X0.8638Y-6.1365
X0.8638Y-7.6621
X0.8638Y-7.6917
X0.8648Y-0.2907
X0.8648Y-1.8459
X0.8648Y-3.401
X0.8648Y-4.9561
X0.8648Y-6.5112
X0.8792Y-0.9204
X0.8792Y-0.9499
X0.8792Y-2.4755
X0.8792Y-2.5051
X0.8792Y-4.0307
X0.8792Y-4.0602
X0.8792Y-5.5858
X0.8792Y-5.6153
X0.8792Y-7.1409
X0.8792Y-7.1704
X0.8878Y-1.5373
X0.8878Y-3.0925
X0.8878Y-4.6476
X0.8878Y-6.2027
X0.8878Y-7.7578
X0.8914Y-0.7551
X0.8914Y-0.7846
X0.8914Y-2.3102
X0.8914Y-2.3397
X0.8914Y-3.8653
X0.8914Y-3.8948
X0.8914Y-5.4204
X0.8914Y-5.4499
X0.8914Y-6.9755
X0.8914Y-7.0051
X0.8933Y-1.4417
X0.8933Y-1.4712
X0.8933Y-2.9968
X0.8933Y-3.0263
X0.8933Y-4.5519
X0.8933Y-4.5814
X0.8933Y-6.107
X0.8933Y-6.1365
X0.8933Y-7.6621
X0.8933Y-7.6917
X0.8943Y-0.2907
X0.8943Y-1.8459
X0.8943Y-3.401
X0.8943Y-4.9561
X0.8943Y-6.5112
X0.9064Y-0.3508
X0.9064Y-0.3803
X0.9064Y-1.9059
X0.9064Y-1.9354
X0.9064Y-3.461
X0.9064Y-3.4906
X0.9064Y-5.0161
X0.9064Y-5.0457
X0.9064Y-6.5713
X0.9064Y-6.6008
X0.9082Y-1.2133
X0.9082Y-1.2428
X0.9082Y-2.7684
X0.9082Y-2.7979
X0.9082Y-4.3235
X0.9082Y-4.353
X0.9082Y-5.8786
X0.9082Y-5.9081
X0.9082Y-7.4337
X0.9082Y-7.4633
X0.9087Y-0.9204
X0.9087Y-0.9499
X0.9087Y-2.4755
X0.9087Y-2.5051
X0.9087Y-4.0307
X0.9087Y-4.0602
X0.9087Y-5.5858
X0.9087Y-5.6153
X0.9087Y-7.1409
X0.9087Y-7.1704
X0.9174Y-0.8157
X0.9174Y-1.5373
X0.9174Y-2.3708
X0.9174Y-3.0925
X0.9174Y-3.9259
X0.9174Y-4.6476
X0.9174Y-5.481
X0.9174Y-6.2027
X0.9174Y-7.0362
X0.9174Y-7.7578
X0.9201Y-0.7549
X0.9201Y-0.7844
X0.9201Y-2.31
X0.9201Y-2.3395
X0.9201Y-3.8651
X0.9201Y-3.8946
X0.9201Y-5.4202
X0.9201Y-5.4498
X0.9201Y-6.9753
X0.9201Y-7.0049
X0.9238Y-0.2907
X0.9238Y-1.8459
X0.9238Y-3.401
X0.9238Y-4.9561
X0.9238Y-6.5112
X0.936Y-0.3508
X0.936Y-0.3803
X0.936Y-1.9059
X0.936Y-1.9354
X0.936Y-3.461
X0.936Y-3.4906
X0.936Y-5.0161
X0.936Y-5.0457
X0.936Y-6.5713
X0.936Y-6.6008
X0.9378Y-1.2133
X0.9378Y-1.2428
X0.9378Y-2.7684
X0.9378Y-2.7979
X0.9378Y-4.3235
X0.9378Y-4.353
X0.9378Y-5.8786
X0.9378Y-5.9081
X0.9378Y-7.4337
X0.9378Y-7.4633
X0.9469Y-1.5373
X0.9469Y-3.0925
X0.9469Y-4.6476
X0.9469Y-6.2027
X0.9469Y-7.7578
X0.9497Y-0.7549
X0.9497Y-0.7844
X0.9497Y-2.31
X0.9497Y-2.3395
X0.9497Y-3.8651
X0.9497Y-3.8946
X0.9497Y-5.4202
X0.9497Y-5.4498
X0.9497Y-6.9753
X0.9497Y-7.0049
X0.9533Y-0.2907
X0.9533Y-1.8459
X0.9533Y-3.401
X0.9533Y-4.9561
X0.9533Y-6.5112
X0.9656Y-0.4486
X0.9656Y-0.4781
X0.9656Y-2.0037
X0.9656Y-2.0332
X0.9656Y-3.5588
X0.9656Y-3.5883
X0.9656Y-5.1139
X0.9656Y-5.1434
X0.9656Y-6.669
X0.9656Y-6.6986
X0.9658Y-0.9232
X0.9658Y-0.9527
X0.9658Y-2.4783
X0.9658Y-2.5078
X0.9658Y-4.0334
X0.9658Y-4.0629
X0.9658Y-5.5885
X0.9658Y-5.6181
X0.9658Y-7.1436
X0.9658Y-7.1732
X0.9764Y-1.5373
X0.9764Y-3.0925
X0.9764Y-4.6476
X0.9764Y-6.2027
X0.9764Y-7.7578
X0.98Y-0.7537
X0.98Y-0.7832
X0.98Y-2.3088
X0.98Y-2.3383
X0.98Y-3.8639
X0.98Y-3.8934
X0.98Y-5.419
X0.98Y-5.4486
X0.98Y-6.9742
X0.98Y-7.0037
X0.9829Y-0.2907
X0.9829Y-1.8459
X0.9829Y-3.401
X0.9829Y-4.9561
X0.9829Y-6.5112
X0.9951Y-0.4486
X0.9951Y-0.4781
X0.9951Y-2.0037
X0.9951Y-2.0332
X0.9951Y-3.5588
X0.9951Y-3.5883
X0.9951Y-5.1139
X0.9951Y-5.1434
X0.9951Y-6.669
X0.9951Y-6.6986
X0.9953Y-0.9232
X0.9953Y-0.9527
X0.9953Y-2.4783
X0.9953Y-2.5078
X0.9953Y-4.0334
X0.9953Y-4.0629
X0.9953Y-5.5885
X0.9953Y-5.6181
X0.9953Y-7.1436
X0.9953Y-7.1732
X1.0058Y-1.4292
X1.0058Y-1.4587
X1.0058Y-2.9843
X1.0058Y-3.0138
X1.0058Y-4.5394
X1.0058Y-4.5689
X1.0058Y-6.0945
X1.0058Y-6.124
X1.0058Y-7.6496
X1.0058Y-7.6792
X1.0059Y-1.5373
X1.0059Y-3.0925
X1.0059Y-4.6476
X1.0059Y-6.2027
X1.0059Y-7.7578
X1.0096Y-0.7537
X1.0096Y-0.7832
X1.0096Y-2.3088
X1.0096Y-2.3383
X1.0096Y-3.8639
X1.0096Y-3.8934
X1.0096Y-5.419
X1.0096Y-5.4486
X1.0096Y-6.9742
X1.0096Y-7.0037
X1.0124Y-0.2907
X1.0124Y-1.8459
X1.0124Y-3.401
X1.0124Y-4.9561
X1.0124Y-6.5112
X1.0341Y-0.3535
X1.0341Y-0.383
X1.0341Y-1.9086
X1.0341Y-1.9381
X1.0341Y-3.4637
X1.0341Y-3.4932
X1.0341Y-5.0188
X1.0341Y-5.0484
X1.0341Y-6.5739
X1.0341Y-6.6035
X1.0353Y-1.4292
X1.0353Y-1.4587
X1.0353Y-2.9843
X1.0353Y-3.0138
X1.0353Y-4.5394
X1.0353Y-4.5689
X1.0353Y-6.0945
X1.0353Y-6.124
X1.0353Y-7.6496
X1.0353Y-7.6792
X1.0355Y-1.5373
X1.0355Y-3.0925
X1.0355Y-4.6476
X1.0355Y-6.2027
X1.0355Y-7.7578
X1.0419Y-0.2907
X1.0419Y-1.8459
X1.0419Y-3.401
X1.0419Y-4.9561
X1.0419Y-6.5112
X1.0439Y-0.7557
X1.0439Y-0.7852
X1.0439Y-2.3108
X1.0439Y-2.3403
X1.0439Y-3.8659
X1.0439Y-3.8954
X1.0439Y-5.421
X1.0439Y-5.4505
X1.0439Y-6.9761
X1.0439Y-7.0057
X1.0559Y-0.9251
X1.0559Y-0.9547
X1.0559Y-2.4803
X1.0559Y-2.5098
X1.0559Y-4.0354
X1.0559Y-4.0649
X1.0559Y-5.5905
X1.0559Y-5.62
X1.0559Y-7.1456
X1.0559Y-7.1751
X1.0636Y-0.3535
X1.0636Y-0.383
X1.0636Y-1.9086
X1.0636Y-1.9381
X1.0636Y-3.4637
X1.0636Y-3.4932
X1.0636Y-5.0188
X1.0636Y-5.0484
X1.0636Y-6.5739
X1.0636Y-6.6035
X1.065Y-1.5373
X1.065Y-3.0925
X1.065Y-4.6476
X1.065Y-6.2027
X1.065Y-7.7578
X1.0651Y-1.1344
X1.0651Y-1.1639
X1.0651Y-2.6895
X1.0651Y-2.719
X1.0651Y-4.2446
X1.0651Y-4.2741
X1.0651Y-5.7997
X1.0651Y-5.8293
X1.0651Y-7.3549
X1.0651Y-7.3844
X1.0715Y-0.2907
X1.0715Y-1.8459
X1.0715Y-3.401
X1.0715Y-4.9561
X1.0715Y-6.5112
X1.0735Y-0.7557
X1.0735Y-0.7852
X1.0735Y-2.3108
X1.0735Y-2.3403
X1.0735Y-3.8659
X1.0735Y-3.8954
X1.0735Y-5.421
X1.0735Y-5.4505
X1.0735Y-6.9761
X1.0735Y-7.0057
X1.0808Y-0.4928
X1.0808Y-0.5223
X1.0808Y-2.0479
X1.0808Y-2.0774
X1.0808Y-3.603
X1.0808Y-3.6325
X1.0808Y-5.1581
X1.0808Y-5.1876
X1.0808Y-6.7132
X1.0808Y-6.7428
X1.0855Y-0.9251
X1.0855Y-0.9547
X1.0855Y-2.4803
X1.0855Y-2.5098
X1.0855Y-4.0354
X1.0855Y-4.0649
X1.0855Y-5.5905
X1.0855Y-5.62
X1.0855Y-7.1456
X1.0855Y-7.1751
X1.0945Y-1.5373
X1.0945Y-3.0925
X1.0945Y-4.6476
X1.0945Y-6.2027
X1.0945Y-7.7578
X1.0946Y-1.1344
X1.0946Y-1.1639
X1.0946Y-2.6895
X1.0946Y-2.719
X1.0946Y-4.2446
X1.0946Y-4.2741
X1.0946Y-5.7997
X1.0946Y-5.8293
X1.0946Y-7.3549
X1.0946Y-7.3844
X1.101Y-0.2907
X1.101Y-1.8459
X1.101Y-3.401
X1.101Y-4.9561
X1.101Y-6.5112
X1.1103Y-0.4928
X1.1103Y-0.5223
X1.1103Y-2.0479
X1.1103Y-2.0774
X1.1103Y-3.603
X1.1103Y-3.6325
X1.1103Y-5.1581
X1.1103Y-5.1876
X1.1103Y-6.7132
X1.1103Y-6.7428
X1.124Y-1.5373
X1.124Y-3.0925
X1.124Y-4.6476
X1.124Y-6.2027
X1.124Y-7.7578
X1.1305Y-0.2907
X1.1305Y-1.8459
X1.1305Y-3.401
X1.1305Y-4.9561
X1.1305Y-6.5112
X1.1536Y-1.5373
X1.1536Y-3.0925
X1.1536Y-4.6476
X1.1536Y-6.2027
X1.1536Y-7.7578
X1.1572Y-1.4342
X1.1572Y-1.4638
X1.1572Y-2.9893
X1.1572Y-3.0189
X1.1572Y-4.5445
X1.1572Y-4.574
X1.1572Y-6.0996
X1.1572Y-6.1291
X1.1572Y-7.6547
X1.1572Y-7.6842
X1.1595Y-0.9259
X1.1595Y-0.9555
X1.1595Y-2.481
X1.1595Y-2.5106
X1.1595Y-4.0362
X1.1595Y-4.0657
X1.1595Y-5.5913
X1.1595Y-5.6208
X1.1595Y-7.1464
X1.1595Y-7.1759
X1.16Y-0.3544
X1.16Y-0.3839
X1.16Y-1.9095
X1.16Y-1.939
X1.16Y-3.4646
X1.16Y-3.4941
X1.16Y-5.0197
X1.16Y-5.0492
X1.16Y-6.5748
X1.16Y-6.6044
X1.16Y-0.2907
X1.16Y-1.8459
X1.16Y-3.401
X1.16Y-4.9561
X1.16Y-6.5112
X1.1831Y-1.5373
X1.1831Y-3.0925
X1.1831Y-4.6476
X1.1831Y-6.2027
X1.1831Y-7.7578
X1.1852Y-0.4954
X1.1852Y-0.525
X1.1852Y-2.0506
X1.1852Y-2.0801
X1.1852Y-3.6057
X1.1852Y-3.6352
X1.1852Y-5.1608
X1.1852Y-5.1903
X1.1852Y-6.7159
X1.1852Y-6.7454
X1.1868Y-1.4342
X1.1868Y-1.4638
X1.1868Y-2.9893
X1.1868Y-3.0189
X1.1868Y-4.5445
X1.1868Y-4.574
X1.1868Y-6.0996
X1.1868Y-6.1291
X1.1868Y-7.6547
X1.1868Y-7.6842
X1.189Y-0.9259
X1.189Y-0.9555
X1.189Y-2.481
X1.189Y-2.5106
X1.189Y-4.0362
X1.189Y-4.0657
X1.189Y-5.5913
X1.189Y-5.6208
X1.189Y-7.1464
X1.189Y-7.1759
X1.1895Y-0.3544
X1.1895Y-0.3839
X1.1895Y-1.9095
X1.1895Y-1.939
X1.1895Y-3.4646
X1.1895Y-3.4941
X1.1895Y-5.0197
X1.1895Y-5.0492
X1.1895Y-6.5748
X1.1895Y-6.6044
X1.1896Y-0.2907
X1.1896Y-1.8459
X1.1896Y-3.401
X1.1896Y-4.9561
X1.1896Y-6.5112
X1.199Y-0.8514
X1.199Y-0.8809
X1.199Y-2.4065
X1.199Y-2.436
X1.199Y-3.9616
X1.199Y-3.9911
X1.199Y-5.5167
X1.199Y-5.5462
X1.199Y-7.0718
X1.199Y-7.1014
X1.2106Y-1.171
X1.2106Y-1.2005
X1.2106Y-2.7261
X1.2106Y-2.7556
X1.2106Y-4.2812
X1.2106Y-4.3108
X1.2106Y-5.8363
X1.2106Y-5.8659
X1.2106Y-7.3915
X1.2106Y-7.421
X1.2126Y-1.5373
X1.2126Y-3.0925
X1.2126Y-4.6476
X1.2126Y-6.2027
X1.2126Y-7.7578
X1.2148Y-0.4954
X1.2148Y-0.525
X1.2148Y-2.0506
X1.2148Y-2.0801
X1.2148Y-3.6057
X1.2148Y-3.6352
X1.2148Y-5.1608
X1.2148Y-5.1903
X1.2148Y-6.7159
X1.2148Y-6.7454
X1.2191Y-0.2907
X1.2191Y-1.8459
X1.2191Y-3.401
X1.2191Y-4.9561
X1.2191Y-6.5112
X1.2285Y-0.8514
X1.2285Y-0.8809
X1.2285Y-2.4065
X1.2285Y-2.436
X1.2285Y-3.9616
X1.2285Y-3.9911
X1.2285Y-5.5167
X1.2285Y-5.5462
X1.2285Y-7.0718
X1.2285Y-7.1014
X1.2356Y-0.9272
X1.2356Y-0.9568
X1.2356Y-2.4824
X1.2356Y-2.5119
X1.2356Y-4.0375
X1.2356Y-4.067
X1.2356Y-5.5926
X1.2356Y-5.6221
X1.2356Y-7.1477
X1.2356Y-7.1772
X1.2401Y-1.171
X1.2401Y-1.2005
X1.2401Y-2.7261
X1.2401Y-2.7556
X1.2401Y-4.2812
X1.2401Y-4.3108
X1.2401Y-5.8363
X1.2401Y-5.8659
X1.2401Y-7.3915
X1.2401Y-7.421
X1.2422Y-1.5373
X1.2422Y-3.0925
X1.2422Y-4.6476
X1.2422Y-6.2027
X1.2422Y-7.7578
X1.2486Y-0.2907
X1.2486Y-1.8459
X1.2486Y-3.401
X1.2486Y-4.9561
X1.2486Y-6.5112
X1.2651Y-0.9272
X1.2651Y-0.9568
X1.2651Y-2.4824
X1.2651Y-2.5119
X1.2651Y-4.0375
X1.2651Y-4.067
X1.2651Y-5.5926
X1.2651Y-5.6221
X1.2651Y-7.1477
X1.2651Y-7.1772
X1.2717Y-1.5373
X1.2717Y-3.0925
X1.2717Y-4.6476
X1.2717Y-6.2027
X1.2717Y-7.7578
X1.2752Y-0.7783
X1.2752Y-2.3334
X1.2752Y-3.8885
X1.2752Y-5.4436
X1.2752Y-6.9988
X1.2781Y-0.2907
X1.2781Y-1.8459
X1.2781Y-3.401
X1.2781Y-4.9561
X1.2781Y-6.5112
X1.2802Y-0.8514
X1.2802Y-0.8809
X1.2802Y-2.4065
X1.2802Y-2.436
X1.2802Y-3.9616
X1.2802Y-3.9911
X1.2802Y-5.5167
X1.2802Y-5.5462
X1.2802Y-7.0718
X1.2802Y-7.1014
X1.2843Y-0.4941
X1.2843Y-0.5236
X1.2843Y-2.0492
X1.2843Y-2.0787
X1.2843Y-3.6043
X1.2843Y-3.6339
X1.2843Y-5.1594
X1.2843Y-5.189
X1.2843Y-6.7146
X1.2843Y-6.7441
X1.2895Y-0.3535
X1.2895Y-0.383
X1.2895Y-1.9086
X1.2895Y-1.9381
X1.2895Y-3.4637
X1.2895Y-3.4932
X1.2895Y-5.0188
X1.2895Y-5.0484
X1.2895Y-6.5739
X1.2895Y-6.6035
X1.2995Y-1.392
X1.2995Y-1.4215
X1.2995Y-2.9471
X1.2995Y-2.9766
X1.2995Y-4.5022
X1.2995Y-4.5317
X1.2995Y-6.0573
X1.2995Y-6.0868
X1.2995Y-7.6124
X1.2995Y-7.642
X1.3012Y-1.5373
X1.3012Y-3.0925
X1.3012Y-4.6476
X1.3012Y-6.2027
X1.3012Y-7.7578
X1.3077Y-0.2907
X1.3077Y-1.8459
X1.3077Y-3.401
X1.3077Y-4.9561
X1.3077Y-6.5112
X1.3098Y-0.8514
X1.3098Y-0.8809
X1.3098Y-2.4065
X1.3098Y-2.436
X1.3098Y-3.9616
X1.3098Y-3.9911
X1.3098Y-5.5167
X1.3098Y-5.5462
X1.3098Y-7.0718
X1.3098Y-7.1014
X1.3139Y-0.4941
X1.3139Y-0.5236
X1.3139Y-2.0492
X1.3139Y-2.0787
X1.3139Y-3.6043
X1.3139Y-3.6339
X1.3139Y-5.1594
X1.3139Y-5.189
X1.3139Y-6.7146
X1.3139Y-6.7441
X1.3168Y-0.9264
X1.3168Y-0.9559
X1.3168Y-2.4815
X1.3168Y-2.511
X1.3168Y-4.0366
X1.3168Y-4.0661
X1.3168Y-5.5917
X1.3168Y-5.6212
X1.3168Y-7.1468
X1.3168Y-7.1764
X1.319Y-0.3535
X1.319Y-0.383
X1.319Y-1.9086
X1.319Y-1.9381
X1.319Y-3.4637
X1.319Y-3.4932
X1.319Y-5.0188
X1.319Y-5.0484
X1.319Y-6.5739
X1.319Y-6.6035
X1.329Y-1.392
X1.329Y-1.4215
X1.329Y-2.9471
X1.329Y-2.9766
X1.329Y-4.5022
X1.329Y-4.5317
X1.329Y-6.0573
X1.329Y-6.0868
X1.329Y-7.6124
X1.329Y-7.642
X1.3307Y-0.7779
X1.3307Y-1.5373
X1.3307Y-2.333
X1.3307Y-3.0925
X1.3307Y-3.8881
X1.3307Y-4.6476
X1.3307Y-5.4432
X1.3307Y-6.2027
X1.3307Y-6.9984
X1.3307Y-7.7578
X1.3356Y-1.1737
X1.3356Y-1.2032
X1.3356Y-2.7288
X1.3356Y-2.7583
X1.3356Y-4.2839
X1.3356Y-4.3134
X1.3356Y-5.839
X1.3356Y-5.8685
X1.3356Y-7.3941
X1.3356Y-7.4237
X1.3372Y-0.2907
X1.3372Y-1.8459
X1.3372Y-3.401
X1.3372Y-4.9561
X1.3372Y-6.5112
X1.3464Y-0.9264
X1.3464Y-0.9559
X1.3464Y-2.4815
X1.3464Y-2.511
X1.3464Y-4.0366
X1.3464Y-4.0661
X1.3464Y-5.5917
X1.3464Y-5.6212
X1.3464Y-7.1468
X1.3464Y-7.1764
X1.3603Y-1.5373
X1.3603Y-3.0925
X1.3603Y-4.6476
X1.3603Y-6.2027
X1.3603Y-7.7578
X1.3615Y-0.8505
X1.3615Y-0.88
X1.3615Y-2.4056
X1.3615Y-2.4351
X1.3615Y-3.9607
X1.3615Y-3.9902
X1.3615Y-5.5158
X1.3615Y-5.5453
X1.3615Y-7.0709
X1.3615Y-7.1005
X1.3651Y-1.1737
X1.3651Y-1.2032
X1.3651Y-2.7288
X1.3651Y-2.7583
X1.3651Y-4.2839
X1.3651Y-4.3134
X1.3651Y-5.839
X1.3651Y-5.8685
X1.3651Y-7.3941
X1.3651Y-7.4237
X1.3667Y-0.2907
X1.3667Y-1.8459
X1.3667Y-3.401
X1.3667Y-4.9561
X1.3667Y-6.5112
X1.3781Y-0.4954
X1.3781Y-0.525
X1.3781Y-2.0506
X1.3781Y-2.0801
X1.3781Y-3.6057
X1.3781Y-3.6352
X1.3781Y-5.1608
X1.3781Y-5.1903
X1.3781Y-6.7159
X1.3781Y-6.7454
X1.3898Y-1.5373
X1.3898Y-3.0925
X1.3898Y-4.6476
X1.3898Y-6.2027
X1.3898Y-7.7578
X1.391Y-0.8505
X1.391Y-0.88
X1.391Y-2.4056
X1.391Y-2.4351
X1.391Y-3.9607
X1.391Y-3.9902
X1.391Y-5.5158
X1.391Y-5.5453
X1.391Y-7.0709
X1.391Y-7.1005
X1.3963Y-0.2907
X1.3963Y-1.8459
X1.3963Y-3.401
X1.3963Y-4.9561
X1.3963Y-6.5112
X1.4008Y-0.7783
X1.4008Y-2.3334
X1.4008Y-3.8885
X1.4008Y-5.4436
X1.4008Y-6.9988
X1.4076Y-0.4954
X1.4076Y-0.525
X1.4076Y-2.0506
X1.4076Y-2.0801
X1.4076Y-3.6057
X1.4076Y-3.6352
X1.4076Y-5.1608
X1.4076Y-5.1903
X1.4076Y-6.7159
X1.4076Y-6.7454
X1.4097Y-0.9255
X1.4097Y-0.955
X1.4097Y-2.4806
X1.4097Y-2.5101
X1.4097Y-4.0357
X1.4097Y-4.0652
X1.4097Y-5.5908
X1.4097Y-5.6203
X1.4097Y-7.1459
X1.4097Y-7.1755
X1.4193Y-1.5373
X1.4193Y-3.0925
X1.4193Y-4.6476
X1.4193Y-6.2027
X1.4193Y-7.7578
X1.4258Y-0.2907
X1.4258Y-1.8459
X1.4258Y-3.401
X1.4258Y-4.9561
X1.4258Y-6.5112
X1.4276Y-0.3548
X1.4276Y-0.3843
X1.4276Y-1.9099
X1.4276Y-1.9395
X1.4276Y-3.465
X1.4276Y-3.4946
X1.4276Y-5.0202
X1.4276Y-5.0497
X1.4276Y-6.5753
X1.4276Y-6.6048
X1.4392Y-0.9255
X1.4392Y-0.955
X1.4392Y-2.4806
X1.4392Y-2.5101
X1.4392Y-4.0357
X1.4392Y-4.0652
X1.4392Y-5.5908
X1.4392Y-5.6203
X1.4392Y-7.1459
X1.4392Y-7.1755
X1.4489Y-1.5373
X1.4489Y-3.0925
X1.4489Y-4.6476
X1.4489Y-6.2027
X1.4489Y-7.7578
X1.4501Y-1.4342
X1.4501Y-1.4638
X1.4501Y-2.9893
X1.4501Y-3.0189
X1.4501Y-4.5445
X1.4501Y-4.574
X1.4501Y-6.0996
X1.4501Y-6.1291
X1.4501Y-7.6547
X1.4501Y-7.6842
X1.4516Y-0.8514
X1.4516Y-0.8809
X1.4516Y-2.4065
X1.4516Y-2.436
X1.4516Y-3.9616
X1.4516Y-3.9911
X1.4516Y-5.5167
X1.4516Y-5.5462
X1.4516Y-7.0718
X1.4516Y-7.1014
X1.4534Y-1.1737
X1.4534Y-1.2032
X1.4534Y-2.7288
X1.4534Y-2.7583
X1.4534Y-4.2839
X1.4534Y-4.3134
X1.4534Y-5.839
X1.4534Y-5.8685
X1.4534Y-7.3941
X1.4534Y-7.4237
X1.4553Y-0.2907
X1.4553Y-1.8459
X1.4553Y-3.401
X1.4553Y-4.9561
X1.4553Y-6.5112
X1.4572Y-0.3548
X1.4572Y-0.3843
X1.4572Y-1.9099
X1.4572Y-1.9395
X1.4572Y-3.465
X1.4572Y-3.4946
X1.4572Y-5.0202
X1.4572Y-5.0497
X1.4572Y-6.5753
X1.4572Y-6.6048
X1.4681Y-0.7779
X1.4681Y-2.333
X1.4681Y-3.8881
X1.4681Y-5.4432
X1.4681Y-6.9984
X1.4784Y-1.5373
X1.4784Y-3.0925
X1.4784Y-4.6476
X1.4784Y-6.2027
X1.4784Y-7.7578
X1.4796Y-1.4342
X1.4796Y-1.4638
X1.4796Y-2.9893
X1.4796Y-3.0189
X1.4796Y-4.5445
X1.4796Y-4.574
X1.4796Y-6.0996
X1.4796Y-6.1291
X1.4796Y-7.6547
X1.4796Y-7.6842
X1.4812Y-0.8514
X1.4812Y-0.8809
X1.4812Y-2.4065
X1.4812Y-2.436
X1.4812Y-3.9616
X1.4812Y-3.9911
X1.4812Y-5.5167
X1.4812Y-5.5462
X1.4812Y-7.0718
X1.4812Y-7.1014
X1.483Y-1.1737
X1.483Y-1.2032
X1.483Y-2.7288
X1.483Y-2.7583
X1.483Y-4.2839
X1.483Y-4.3134
X1.483Y-5.839
X1.483Y-5.8685
X1.483Y-7.3941
X1.483Y-7.4237
X1.4848Y-0.2907
X1.4848Y-1.8459
X1.4848Y-3.401
X1.4848Y-4.9561
X1.4848Y-6.5112
X1.5079Y-1.5373
X1.5079Y-3.0925
X1.5079Y-4.6476
X1.5079Y-6.2027
X1.5079Y-7.7578
X1.5124Y-0.9246
X1.5124Y-0.9541
X1.5124Y-2.4797
X1.5124Y-2.5092
X1.5124Y-4.0348
X1.5124Y-4.0643
X1.5124Y-5.5899
X1.5124Y-5.6195
X1.5124Y-7.145
X1.5124Y-7.1746
X1.5144Y-0.2907
X1.5144Y-1.8459
X1.5144Y-3.401
X1.5144Y-4.9561
X1.5144Y-6.5112
X1.516Y-0.4981
X1.516Y-0.5276
X1.516Y-2.0532
X1.516Y-2.0828
X1.516Y-3.6083
X1.516Y-3.6379
X1.516Y-5.1635
X1.516Y-5.193
X1.516Y-6.7186
X1.516Y-6.7481
X1.5359Y-0.7759
X1.5359Y-2.331
X1.5359Y-3.8862
X1.5359Y-5.4413
X1.5359Y-6.9964
X1.5374Y-1.5373
X1.5374Y-3.0925
X1.5374Y-4.6476
X1.5374Y-6.2027
X1.5374Y-7.7578
X1.5419Y-0.9246
X1.5419Y-0.9541
X1.5419Y-2.4797
X1.5419Y-2.5092
X1.5419Y-4.0348
X1.5419Y-4.0643
X1.5419Y-5.5899
X1.5419Y-5.6195
X1.5419Y-7.145
X1.5419Y-7.1746
X1.5439Y-0.2907
X1.5439Y-1.8459
X1.5439Y-3.401
X1.5439Y-4.9561
X1.5439Y-6.5112
X1.5455Y-0.4981
X1.5455Y-0.5276
X1.5455Y-2.0532
X1.5455Y-2.0828
X1.5455Y-3.6083
X1.5455Y-3.6379
X1.5455Y-5.1635
X1.5455Y-5.193
X1.5455Y-6.7186
X1.5455Y-6.7481
X1.5534Y-1.1746
X1.5534Y-1.2041
X1.5534Y-2.7297
X1.5534Y-2.7592
X1.5534Y-4.2848
X1.5534Y-4.3143
X1.5534Y-5.8399
X1.5534Y-5.8694
X1.5534Y-7.395
X1.5534Y-7.4246
X1.567Y-1.5373
X1.567Y-3.0925
X1.567Y-4.6476
X1.567Y-6.2027
X1.567Y-7.7578
X1.5734Y-0.2907
X1.5734Y-1.8459
X1.5734Y-3.401
X1.5734Y-4.9561
X1.5734Y-6.5112
X1.574Y-0.8478
X1.574Y-0.8773
X1.574Y-2.4029
X1.574Y-2.4324
X1.574Y-3.958
X1.574Y-3.9875
X1.574Y-5.5131
X1.574Y-5.5427
X1.574Y-7.0683
X1.574Y-7.0978
X1.583Y-1.1746
X1.583Y-1.2041
X1.583Y-2.7297
X1.583Y-2.7592
X1.583Y-4.2848
X1.583Y-4.3143
X1.583Y-5.8399
X1.583Y-5.8694
X1.583Y-7.395
X1.583Y-7.4246
X1.5943Y-1.4341
X1.5943Y-1.4637
X1.5943Y-2.9893
X1.5943Y-3.0188
X1.5943Y-4.5444
X1.5943Y-4.5739
X1.5943Y-6.0995
X1.5943Y-6.129
X1.5943Y-7.6546
X1.5943Y-7.6841
X1.5965Y-1.5373
X1.5965Y-3.0925
X1.5965Y-4.6476
X1.5965Y-6.2027
X1.5965Y-7.7578
X1.6029Y-0.2907
X1.6029Y-1.8459
X1.6029Y-3.401
X1.6029Y-4.9561
X1.6029Y-6.5112
X1.6035Y-0.8478
X1.6035Y-0.8773
X1.6035Y-2.4029
X1.6035Y-2.4324
X1.6035Y-3.958
X1.6035Y-3.9875
X1.6035Y-5.5131
X1.6035Y-5.5427
X1.6035Y-7.0683
X1.6035Y-7.0978
X1.6238Y-1.4341
X1.6238Y-1.4637
X1.6238Y-2.9893
X1.6238Y-3.0188
X1.6238Y-4.5444
X1.6238Y-4.5739
X1.6238Y-6.0995
X1.6238Y-6.129
X1.6238Y-7.6546
X1.6238Y-7.6841
X1.6249Y-0.9531
X1.6249Y-0.9827
X1.6249Y-2.5083
X1.6249Y-2.5378
X1.6249Y-4.0634
X1.6249Y-4.0929
X1.6249Y-5.6185
X1.6249Y-5.648
X1.6249Y-7.1736
X1.6249Y-7.2031
X1.626Y-1.5373
X1.626Y-3.0925
X1.626Y-4.6476
X1.626Y-6.2027
X1.626Y-7.7578
X1.6325Y-0.2907
X1.6325Y-1.8459
X1.6325Y-3.401
X1.6325Y-4.9561
X1.6325Y-6.5112
X1.6432Y-0.5008
X1.6432Y-0.5303
X1.6432Y-2.0559
X1.6432Y-2.0854
X1.6432Y-3.611
X1.6432Y-3.6406
X1.6432Y-5.1661
X1.6432Y-5.1957
X1.6432Y-6.7213
X1.6432Y-6.7508
X1.6544Y-0.9531
X1.6544Y-0.9827
X1.6544Y-2.5083
X1.6544Y-2.5378
X1.6544Y-4.0634
X1.6544Y-4.0929
X1.6544Y-5.6185
X1.6544Y-5.648
X1.6544Y-7.1736
X1.6544Y-7.2031
X1.6555Y-1.5373
X1.6555Y-3.0925
X1.6555Y-4.6476
X1.6555Y-6.2027
X1.6555Y-7.7578
X1.6615Y-1.1755
X1.6615Y-1.205
X1.6615Y-2.7306
X1.6615Y-2.7601
X1.6615Y-4.2857
X1.6615Y-4.3152
X1.6615Y-5.8408
X1.6615Y-5.8703
X1.6615Y-7.3959
X1.6615Y-7.4255
X1.662Y-0.2907
X1.662Y-1.8459
X1.662Y-3.401
X1.662Y-4.9561
X1.662Y-6.5112
X1.6728Y-0.5008
X1.6728Y-0.5303
X1.6728Y-2.0559
X1.6728Y-2.0854
X1.6728Y-3.611
X1.6728Y-3.6406
X1.6728Y-5.1661
X1.6728Y-5.1957
X1.6728Y-6.7213
X1.6728Y-6.7508
X1.6775Y-0.846
X1.6775Y-0.8755
X1.6775Y-2.4011
X1.6775Y-2.4306
X1.6775Y-3.9562
X1.6775Y-3.9858
X1.6775Y-5.5114
X1.6775Y-5.5409
X1.6775Y-7.0665
X1.6775Y-7.096
X1.6851Y-1.5373
X1.6851Y-3.0925
X1.6851Y-4.6476
X1.6851Y-6.2027
X1.6851Y-7.7578
X1.691Y-1.1755
X1.691Y-1.205
X1.691Y-2.7306
X1.691Y-2.7601
X1.691Y-4.2857
X1.691Y-4.3152
X1.691Y-5.8408
X1.691Y-5.8703
X1.691Y-7.3959
X1.691Y-7.4255
X1.6915Y-0.2907
X1.6915Y-1.8459
X1.6915Y-3.401
X1.6915Y-4.9561
X1.6915Y-6.5112
X1.7071Y-0.846
X1.7071Y-0.8755
X1.7071Y-2.4011
X1.7071Y-2.4306
X1.7071Y-3.9562
X1.7071Y-3.9858
X1.7071Y-5.5114
X1.7071Y-5.5409
X1.7071Y-7.0665
X1.7071Y-7.096
X1.7146Y-1.5373
X1.7146Y-3.0925
X1.7146Y-4.6476
X1.7146Y-6.2027
X1.7146Y-7.7578
X1.7211Y-0.2907
X1.7211Y-1.8459
X1.7211Y-3.401
X1.7211Y-4.9561
X1.7211Y-6.5112
X1.7427Y-0.9522
X1.7427Y-0.9818
X1.7427Y-2.5074
X1.7427Y-2.5369
X1.7427Y-4.0625
X1.7427Y-4.092
X1.7427Y-5.6176
X1.7427Y-5.6471
X1.7427Y-7.1727
X1.7427Y-7.2022
X1.7441Y-1.5373
X1.7441Y-3.0925
X1.7441Y-4.6476
X1.7441Y-6.2027
X1.7441Y-7.7578
X1.7506Y-0.2907
X1.7506Y-1.8459
X1.7506Y-3.401
X1.7506Y-4.9561
X1.7506Y-6.5112
X1.761Y-1.4261
X1.761Y-1.4556
X1.761Y-2.9812
X1.761Y-3.0108
X1.761Y-4.5363
X1.761Y-4.5659
X1.761Y-6.0915
X1.761Y-6.121
X1.761Y-7.6466
X1.761Y-7.6761
X1.7722Y-0.9522
X1.7722Y-0.9818
X1.7722Y-2.5074
X1.7722Y-2.5369
X1.7722Y-4.0625
X1.7722Y-4.092
X1.7722Y-5.6176
X1.7722Y-5.6471
X1.7722Y-7.1727
X1.7722Y-7.2022
X1.7737Y-0.7645
X1.7737Y-1.5373
X1.7737Y-2.3196
X1.7737Y-3.0925
X1.7737Y-3.8747
X1.7737Y-4.6476
X1.7737Y-5.4299
X1.7737Y-6.2027
X1.7737Y-6.985
X1.7737Y-7.7578
X1.7801Y-0.2907
X1.7801Y-1.8459
X1.7801Y-3.401
X1.7801Y-4.9561
X1.7801Y-6.5112
X1.7825Y-0.4646
X1.7825Y-0.4942
X1.7825Y-2.0197
X1.7825Y-2.0493
X1.7825Y-3.5749
X1.7825Y-3.6044
X1.7825Y-5.13
X1.7825Y-5.1595
X1.7825Y-6.6851
X1.7825Y-6.7146
X1.7838Y-1.1701
X1.7838Y-1.1996
X1.7838Y-2.7252
X1.7838Y-2.7547
X1.7838Y-4.2803
X1.7838Y-4.3099
X1.7838Y-5.8354
X1.7838Y-5.865
X1.7838Y-7.3906
X1.7838Y-7.4201
X1.7839Y-0.3521
X1.7839Y-0.3817
X1.7839Y-1.9073
X1.7839Y-1.9368
X1.7839Y-3.4624
X1.7839Y-3.4919
X1.7839Y-5.0175
X1.7839Y-5.047
X1.7839Y-6.5726
X1.7839Y-6.6021
X1.7905Y-1.4261
X1.7905Y-1.4556
X1.7905Y-2.9812
X1.7905Y-3.0108
X1.7905Y-4.5363
X1.7905Y-4.5659
X1.7905Y-6.0915
X1.7905Y-6.121
X1.7905Y-7.6466
X1.7905Y-7.6761
X1.8032Y-1.5373
X1.8032Y-3.0925
X1.8032Y-4.6476
X1.8032Y-6.2027
X1.8032Y-7.7578
X1.8096Y-0.2907
X1.8096Y-1.8459
X1.8096Y-3.401
X1.8096Y-4.9561
X1.8096Y-6.5112
X1.8121Y-0.4646
X1.8121Y-0.4942
X1.8121Y-2.0197
X1.8121Y-2.0493
X1.8121Y-3.5749
X1.8121Y-3.6044
X1.8121Y-5.13
X1.8121Y-5.1595
X1.8121Y-6.6851
X1.8121Y-6.7146
X1.8133Y-1.1701
X1.8133Y-1.1996
X1.8133Y-2.7252
X1.8133Y-2.7547
X1.8133Y-4.2803
X1.8133Y-4.3099
X1.8133Y-5.8354
X1.8133Y-5.865
X1.8133Y-7.3906
X1.8133Y-7.4201
X1.8134Y-0.3521
X1.8134Y-0.3817
X1.8134Y-1.9073
X1.8134Y-1.9368
X1.8134Y-3.4624
X1.8134Y-3.4919
X1.8134Y-5.0175
X1.8134Y-5.047
X1.8134Y-6.5726
X1.8134Y-6.6021
X1.8327Y-1.5373
X1.8327Y-3.0925
X1.8327Y-4.6476
X1.8327Y-6.2027
X1.8327Y-7.7578
X1.8392Y-0.2907
X1.8392Y-1.8459
X1.8392Y-3.401
X1.8392Y-4.9561
X1.8392Y-6.5112
X1.8469Y-0.7681
X1.8469Y-2.3232
X1.8469Y-3.8783
X1.8469Y-5.4334
X1.8469Y-6.9885
X1.8622Y-1.5373
X1.8622Y-3.0925
X1.8622Y-4.6476
X1.8622Y-6.2027
X1.8622Y-7.7578
X1.8687Y-0.2907
X1.8687Y-1.8459
X1.8687Y-3.401
X1.8687Y-4.9561
X1.8687Y-6.5112
X1.8918Y-1.5373
X1.8918Y-3.0925
X1.8918Y-4.6476
X1.8918Y-6.2027
X1.8918Y-7.7578
X1.8982Y-0.2907
X1.8982Y-1.8459
X1.8982Y-3.401
X1.8982Y-4.9561
X1.8982Y-6.5112
X1.9024Y-0.8575
X1.9024Y-2.4126
X1.9024Y-3.9677
X1.9024Y-5.5228
X1.9024Y-7.0779
X1.9186Y-1.171
X1.9186Y-1.2005
X1.9186Y-2.7261
X1.9186Y-2.7556
X1.9186Y-4.2812
X1.9186Y-4.3108
X1.9186Y-5.8363
X1.9186Y-5.8659
X1.9186Y-7.3915
X1.9186Y-7.421
X1.9213Y-1.5373
X1.9213Y-3.0925
X1.9213Y-4.6476
X1.9213Y-6.2027
X1.9213Y-7.7578
X1.9256Y-0.896
X1.9256Y-0.9255
X1.9256Y-2.4511
X1.9256Y-2.4807
X1.9256Y-4.0062
X1.9256Y-4.0358
X1.9256Y-5.5614
X1.9256Y-5.5909
X1.9256Y-7.1165
X1.9256Y-7.146
X1.9277Y-0.2907
X1.9277Y-1.8459
X1.9277Y-3.401
X1.9277Y-4.9561
X1.9277Y-6.5112
X1.9445Y-0.7398
X1.9445Y-0.7693
X1.9445Y-2.2949
X1.9445Y-2.3244
X1.9445Y-3.85
X1.9445Y-3.8795
X1.9445Y-5.4051
X1.9445Y-5.4346
X1.9445Y-6.9602
X1.9445Y-6.9898
X1.9481Y-1.171
X1.9481Y-1.2005
X1.9481Y-2.7261
X1.9481Y-2.7556
X1.9481Y-4.2812
X1.9481Y-4.3108
X1.9481Y-5.8363
X1.9481Y-5.8659
X1.9481Y-7.3915
X1.9481Y-7.421
X1.9508Y-1.5373
X1.9508Y-3.0925
X1.9508Y-4.6476
X1.9508Y-6.2027
X1.9508Y-7.7578
X1.9552Y-0.896
X1.9552Y-0.9255
X1.9552Y-2.4511
X1.9552Y-2.4807
X1.9552Y-4.0062
X1.9552Y-4.0358
X1.9552Y-5.5614
X1.9552Y-5.5909
X1.9552Y-7.1165
X1.9552Y-7.146
X1.9573Y-0.2907
X1.9573Y-1.8459
X1.9573Y-3.401
X1.9573Y-4.9561
X1.9573Y-6.5112
X1.974Y-0.7398
X1.974Y-0.7693
X1.974Y-2.2949
X1.974Y-2.3244
X1.974Y-3.85
X1.974Y-3.8795
X1.974Y-5.4051
X1.974Y-5.4346
X1.974Y-6.9602
X1.974Y-6.9898
X1.9803Y-1.5373
X1.9803Y-3.0925
X1.9803Y-4.6476
X1.9803Y-6.2027
X1.9803Y-7.7578
X1.9867Y-0.3344
X1.9867Y-1.8895
X1.9867Y-3.4447
X1.9867Y-4.9998
X1.9867Y-6.5549
X1.9874Y-0.3062
X1.9874Y-1.8614
X1.9874Y-3.4165
X1.9874Y-4.9716
X1.9874Y-6.5267
X2.0058Y-0.5733
X2.0058Y-2.1285
X2.0058Y-3.6836
X2.0058Y-5.2387
X2.0058Y-6.7938
X2.0063Y-0.9019
X2.0063Y-0.9649
X2.0063Y-2.457
X2.0063Y-2.52
X2.0063Y-4.0121
X2.0063Y-4.0751
X2.0063Y-5.5673
X2.0063Y-5.6303
X2.0063Y-7.1224
X2.0063Y-7.1854
X2.0079Y-0.4898
X2.0079Y-2.0449
X2.0079Y-3.6
X2.0079Y-5.1552
X2.0079Y-6.7103
X2.0087Y-0.5293
X2.0087Y-2.0844
X2.0087Y-3.6395
X2.0087Y-5.1946
X2.0087Y-6.7498
X2.0099Y-1.5373
X2.0099Y-3.0925
X2.0099Y-4.6476
X2.0099Y-6.2027
X2.0099Y-7.7578
X2.0394Y-1.5373
X2.0394Y-3.0925
X2.0394Y-4.6476
X2.0394Y-6.2027
X2.0394Y-7.7578
X2.0469Y-0.8751
X2.0469Y-2.4303
X2.0469Y-3.9854
X2.0469Y-5.5405
X2.0469Y-7.0956
X2.0646Y-1.0826
X2.0646Y-2.6377
X2.0646Y-4.1929
X2.0646Y-5.748
X2.0646Y-7.3031
X2.0666Y-1.1393
X2.0666Y-2.6944
X2.0666Y-4.2495
X2.0666Y-5.8047
X2.0666Y-7.3598
X2.0674Y-0.8389
X2.0674Y-2.394
X2.0674Y-3.9492
X2.0674Y-5.5043
X2.0674Y-7.0594
X2.0689Y-1.5373
X2.0689Y-3.0925
X2.0689Y-4.6476
X2.0689Y-6.2027
X2.0689Y-7.7578
X2.0694Y-1.1869
X2.0694Y-2.7421
X2.0694Y-4.2972
X2.0694Y-5.8523
X2.0694Y-7.4074
X2.0733Y-0.7562
X2.0733Y-0.7976
X2.0733Y-2.3114
X2.0733Y-2.3527
X2.0733Y-3.8665
X2.0733Y-3.9078
X2.0733Y-5.4216
X2.0733Y-5.4629
X2.0733Y-6.9767
X2.0733Y-7.0181
X2.0985Y-1.5373
X2.0985Y-3.0925
X2.0985Y-4.6476
X2.0985Y-6.2027
X2.0985Y-7.7578
X2.1154Y-0.9771
X2.1154Y-2.5322
X2.1154Y-4.0873
X2.1154Y-5.6425
X2.1154Y-7.1976
X2.1195Y-0.4028
X2.1195Y-0.4324
X2.1195Y-0.4619
X2.1195Y-0.4914
X2.1195Y-0.5209
X2.1195Y-1.9579
X2.1195Y-1.9875
X2.1195Y-2.017
X2.1195Y-2.0465
X2.1195Y-2.0761
X2.1195Y-3.5131
X2.1195Y-3.5426
X2.1195Y-3.5721
X2.1195Y-3.6016
X2.1195Y-3.6312
X2.1195Y-5.0682
X2.1195Y-5.0977
X2.1195Y-5.1272
X2.1195Y-5.1568
X2.1195Y-5.1863
X2.1195Y-6.6233
X2.1195Y-6.6528
X2.1195Y-6.6824
X2.1195Y-6.7119
X2.1195Y-6.7414
X2.1248Y-0.5591
X2.1248Y-2.1142
X2.1248Y-3.6693
X2.1248Y-5.2244
X2.1248Y-6.7795
X2.128Y-1.5373
X2.128Y-3.0925
X2.128Y-4.6476
X2.128Y-6.2027
X2.128Y-7.7578
X2.1441Y-0.3885
X2.1441Y-1.9436
X2.1441Y-3.4988
X2.1441Y-5.0539
X2.1441Y-6.609
X2.1536Y-1.1535
X2.1536Y-2.7086
X2.1536Y-4.2637
X2.1536Y-5.8188
X2.1536Y-7.374
X2.1575Y-1.5373
X2.1575Y-3.0925
X2.1575Y-4.6476
X2.1575Y-6.2027
X2.1575Y-7.7578
X2.1626Y-0.5082
X2.1626Y-2.0633
X2.1626Y-3.6184
X2.1626Y-5.1736
X2.1626Y-6.7287
X2.1662Y-0.4307
X2.1662Y-0.4637
X2.1662Y-1.9858
X2.1662Y-2.0188
X2.1662Y-3.5409
X2.1662Y-3.574
X2.1662Y-5.096
X2.1662Y-5.1291
X2.1662Y-6.6511
X2.1662Y-6.6842
X2.167Y-1.1118
X2.167Y-2.6669
X2.167Y-4.222
X2.167Y-5.7771
X2.167Y-7.3322
X2.1677Y-0.981
X2.1677Y-1.0673
X2.1677Y-2.5362
X2.1677Y-2.6224
X2.1677Y-4.0913
X2.1677Y-4.1775
X2.1677Y-5.6464
X2.1677Y-5.7326
X2.1677Y-7.2015
X2.1677Y-7.2877
X2.1681Y-1.0244
X2.1681Y-2.5795
X2.1681Y-4.1346
X2.1681Y-5.6897
X2.1681Y-7.2448
X2.1737Y-0.3885
X2.1737Y-1.9436
X2.1737Y-3.4988
X2.1737Y-5.0539
X2.1737Y-6.609
X2.187Y-1.5373
X2.187Y-3.0925
X2.187Y-4.6476
X2.187Y-6.2027
X2.187Y-7.7578
X2.2032Y-0.3885
X2.2032Y-1.9436
X2.2032Y-3.4988
X2.2032Y-5.0539
X2.2032Y-6.609
X2.2166Y-1.5373
X2.2166Y-3.0925
X2.2166Y-4.6476
X2.2166Y-6.2027
X2.2166Y-7.7578
X2.2189Y-0.4405
X2.2189Y-1.9956
X2.2189Y-3.5507
X2.2189Y-5.1058
X2.2189Y-6.661
X2.2272Y-0.5019
X2.2272Y-2.057
X2.2272Y-3.6121
X2.2272Y-5.1673
X2.2272Y-6.7224
X2.2288Y-1.024
X2.2288Y-2.5791
X2.2288Y-4.1342
X2.2288Y-5.6893
X2.2288Y-7.2444
X2.2307Y-0.6696
X2.2307Y-2.2247
X2.2307Y-3.7799
X2.2307Y-5.335
X2.2307Y-6.8901
X2.2327Y-0.3885
X2.2327Y-1.9436
X2.2327Y-3.4988
X2.2327Y-5.0539
X2.2327Y-6.609
X2.2461Y-1.5373
X2.2461Y-3.0925
X2.2461Y-4.6476
X2.2461Y-6.2027
X2.2461Y-7.7578
X2.2544Y-1.0247
X2.2544Y-1.1535
X2.2544Y-2.5799
X2.2544Y-2.7086
X2.2544Y-4.135
X2.2544Y-4.2637
X2.2544Y-5.6901
X2.2544Y-5.8188
X2.2544Y-7.2452
X2.2544Y-7.374
X2.2583Y-0.7405
X2.2583Y-2.2956
X2.2583Y-3.8507
X2.2583Y-5.4058
X2.2583Y-6.961
X2.2587Y-0.7684
X2.2587Y-2.3236
X2.2587Y-3.8787
X2.2587Y-5.4338
X2.2587Y-6.9889
X2.2599Y-1.1051
X2.2599Y-2.6602
X2.2599Y-4.2153
X2.2599Y-5.7704
X2.2599Y-7.3255
X2.2622Y-0.3885
X2.2622Y-1.9436
X2.2622Y-3.4988
X2.2622Y-5.0539
X2.2622Y-6.609
X2.2662Y-0.883
X2.2662Y-2.4381
X2.2662Y-3.9932
X2.2662Y-5.5484
X2.2662Y-7.1035
X2.2685Y-1.2932
X2.2685Y-2.8484
X2.2685Y-4.4035
X2.2685Y-5.9586
X2.2685Y-7.5137
X2.2701Y-0.6696
X2.2701Y-2.2247
X2.2701Y-3.7799
X2.2701Y-5.335
X2.2701Y-6.8901
X2.2713Y-1.2444
X2.2713Y-2.7995
X2.2713Y-4.3547
X2.2713Y-5.9098
X2.2713Y-7.4649
X2.2717Y-1.2035
X2.2717Y-2.7586
X2.2717Y-4.3137
X2.2717Y-5.8688
X2.2717Y-7.424
X2.2733Y-0.4736
X2.2733Y-2.0287
X2.2733Y-3.5838
X2.2733Y-5.1389
X2.2733Y-6.694
X2.2752Y-0.4314
X2.2752Y-1.9866
X2.2752Y-3.5417
X2.2752Y-5.0968
X2.2752Y-6.6519
X2.2756Y-1.5373
X2.2756Y-3.0925
X2.2756Y-4.6476
X2.2756Y-6.2027
X2.2756Y-7.7578
X2.2794Y-1.3776
X2.2794Y-2.9327
X2.2794Y-4.4878
X2.2794Y-6.0429
X2.2794Y-7.598
X2.2835Y-0.77
X2.2835Y-2.3251
X2.2835Y-3.8803
X2.2835Y-5.4354
X2.2835Y-6.9905
X2.2859Y-1.0342
X2.2859Y-2.5893
X2.2859Y-4.1444
X2.2859Y-5.6995
X2.2859Y-7.2547
X2.2894Y-0.7393
X2.2894Y-1.4165
X2.2894Y-2.2944
X2.2894Y-2.9716
X2.2894Y-3.8495
X2.2894Y-4.5267
X2.2894Y-5.4047
X2.2894Y-6.0818
X2.2894Y-6.9598
X2.2894Y-7.6369
X2.2918Y-0.3885
X2.2918Y-1.9436
X2.2918Y-3.4988
X2.2918Y-5.0539
X2.2918Y-6.609
X2.2926Y-1.1051
X2.2926Y-2.6602
X2.2926Y-4.2153
X2.2926Y-5.7704
X2.2926Y-7.3255
X2.3008Y-1.2948
X2.3008Y-2.8499
X2.3008Y-4.4051
X2.3008Y-5.9602
X2.3008Y-7.5153
X2.3052Y-1.5373
X2.3052Y-3.0925
X2.3052Y-4.6476
X2.3052Y-6.2027
X2.3052Y-7.7578
X2.3055Y-0.7629
X2.3055Y-2.3181
X2.3055Y-3.8732
X2.3055Y-5.4283
X2.3055Y-6.9834
X2.3213Y-0.3885
X2.3213Y-1.9436
X2.3213Y-3.4988
X2.3213Y-5.0539
X2.3213Y-6.609
X2.3233Y-0.5118
X2.3233Y-1.1043
X2.3233Y-2.0669
X2.3233Y-2.6594
X2.3233Y-3.622
X2.3233Y-4.2145
X2.3233Y-5.1771
X2.3233Y-5.7696
X2.3233Y-6.7322
X2.3233Y-7.3247
X2.3248Y-1.0106
X2.3248Y-1.0417
X2.3248Y-2.5657
X2.3248Y-2.5968
X2.3248Y-4.1208
X2.3248Y-4.1519
X2.3248Y-5.6759
X2.3248Y-5.707
X2.3248Y-7.231
X2.3248Y-7.2621
X2.326Y-1.4456
X2.326Y-3.0007
X2.326Y-4.5558
X2.326Y-6.111
X2.326Y-7.6661
X2.3268Y-1.2047
X2.3268Y-2.7598
X2.3268Y-4.3149
X2.3268Y-5.87
X2.3268Y-7.4251
X2.3315Y-0.4314
X2.3315Y-1.9866
X2.3315Y-3.5417
X2.3315Y-5.0968
X2.3315Y-6.6519
X2.3331Y-0.6236
X2.3331Y-0.6775
X2.3331Y-2.1787
X2.3331Y-2.2326
X2.3331Y-3.7338
X2.3331Y-3.7877
X2.3331Y-5.2889
X2.3331Y-5.3429
X2.3331Y-6.844
X2.3331Y-6.898
X2.3347Y-1.5373
X2.3347Y-3.0925
X2.3347Y-4.6476
X2.3347Y-6.2027
X2.3347Y-7.7578
X2.3376Y-0.7998
X2.3376Y-2.3549
X2.3376Y-3.91
X2.3376Y-5.4652
X2.3376Y-7.0203
X2.3386Y-0.4708
X2.3386Y-2.0259
X2.3386Y-3.581
X2.3386Y-5.1362
X2.3386Y-6.6913
X2.3457Y-0.5287
X2.3457Y-2.0838
X2.3457Y-3.6389
X2.3457Y-5.194
X2.3457Y-6.7492
X2.3508Y-0.3885
X2.3508Y-1.9436
X2.3508Y-3.4988
X2.3508Y-5.0539
X2.3508Y-6.609
X2.352Y-1.2047
X2.352Y-2.7598
X2.352Y-4.3149
X2.352Y-5.87
X2.352Y-7.4251
X2.3528Y-0.9188
X2.3528Y-2.474
X2.3528Y-4.0291
X2.3528Y-5.5842
X2.3528Y-7.1393
X2.3532Y-0.8555
X2.3532Y-2.4106
X2.3532Y-3.9657
X2.3532Y-5.5208
X2.3532Y-7.0759
X2.3538Y-0.8868
X2.3538Y-2.4419
X2.3538Y-3.997
X2.3538Y-5.5521
X2.3538Y-7.1072
X2.3547Y-0.9494
X2.3547Y-2.5046
X2.3547Y-4.0597
X2.3547Y-5.6148
X2.3547Y-7.1699
X2.3554Y-0.7129
X2.3554Y-2.2681
X2.3554Y-3.8232
X2.3554Y-5.3783
X2.3554Y-6.9334
X2.3642Y-1.5373
X2.3642Y-3.0925
X2.3642Y-4.6476
X2.3642Y-6.2027
X2.3642Y-7.7578
X2.365Y-0.7984
X2.365Y-2.3535
X2.365Y-3.9086
X2.365Y-5.4637
X2.365Y-7.0188
X2.3662Y-1.2866
X2.3662Y-2.8417
X2.3662Y-4.3968
X2.3662Y-5.9519
X2.3662Y-7.507
X2.3737Y-1.1492
X2.3737Y-2.7043
X2.3737Y-4.2594
X2.3737Y-5.8145
X2.3737Y-7.3696
X2.3752Y-0.4314
X2.3752Y-1.9866
X2.3752Y-3.5417
X2.3752Y-5.0968
X2.3752Y-6.6519
X2.3772Y-0.4905
X2.3772Y-2.0456
X2.3772Y-3.6007
X2.3772Y-5.1558
X2.3772Y-6.711
X2.378Y-0.5358
X2.378Y-2.0909
X2.378Y-3.646
X2.378Y-5.2011
X2.378Y-6.7562
X2.3803Y-0.3885
X2.3803Y-1.9436
X2.3803Y-3.4988
X2.3803Y-5.0539
X2.3803Y-6.609
X2.3835Y-0.8885
X2.3835Y-2.4436
X2.3835Y-3.9988
X2.3835Y-5.5539
X2.3835Y-7.109
X2.3861Y-1.0124
X2.3861Y-2.5675
X2.3861Y-4.1227
X2.3861Y-5.6778
X2.3861Y-7.2329
X2.3863Y-0.8547
X2.3863Y-1.107
X2.3863Y-2.4098
X2.3863Y-2.6621
X2.3863Y-3.9649
X2.3863Y-4.2173
X2.3863Y-5.52
X2.3863Y-5.7724
X2.3863Y-7.0751
X2.3863Y-7.3275
X2.3866Y-1.2464
X2.3866Y-2.8015
X2.3866Y-4.3566
X2.3866Y-5.9118
X2.3866Y-7.4669
X2.3874Y-1.3976
X2.3874Y-2.9527
X2.3874Y-4.5078
X2.3874Y-6.0629
X2.3874Y-7.6181
X2.3933Y-1.1606
X2.3933Y-2.7157
X2.3933Y-4.2708
X2.3933Y-5.8259
X2.3933Y-7.381
X2.3937Y-1.5373
X2.3937Y-3.0925
X2.3937Y-4.6476
X2.3937Y-6.2027
X2.3937Y-7.7578
X2.3992Y-0.4625
X2.3992Y-2.0177
X2.3992Y-3.5728
X2.3992Y-5.1279
X2.3992Y-6.683
X2.4079Y-0.744
X2.4079Y-2.2992
X2.4079Y-3.8543
X2.4079Y-5.4094
X2.4079Y-6.9645
X2.4091Y-0.4314
X2.4091Y-1.9866
X2.4091Y-3.5417
X2.4091Y-5.0968
X2.4091Y-6.6519
X2.4099Y-0.3885
X2.4099Y-1.9436
X2.4099Y-3.4988
X2.4099Y-5.0539
X2.4099Y-6.609
X2.4134Y-0.5358
X2.4134Y-2.0909
X2.4134Y-3.646
X2.4134Y-5.2011
X2.4134Y-6.7562
X2.4176Y-0.9463
X2.4176Y-2.5014
X2.4176Y-4.0565
X2.4176Y-5.6116
X2.4176Y-7.1667
X2.4176Y-1.0124
X2.4176Y-2.5675
X2.4176Y-4.1227
X2.4176Y-5.6778
X2.4176Y-7.2329
X2.4185Y-0.8531
X2.4185Y-1.074
X2.4185Y-2.4082
X2.4185Y-2.6291
X2.4185Y-3.9633
X2.4185Y-4.1842
X2.4185Y-5.5184
X2.4185Y-5.7393
X2.4185Y-7.0736
X2.4185Y-7.2944
X2.4233Y-1.448
X2.4233Y-1.5373
X2.4233Y-3.0031
X2.4233Y-3.0925
X2.4233Y-4.5582
X2.4233Y-4.6476
X2.4233Y-6.1133
X2.4233Y-6.2027
X2.4233Y-7.6684
X2.4233Y-7.7578
X2.4244Y-0.494
X2.4244Y-2.0492
X2.4244Y-3.6043
X2.4244Y-5.1594
X2.4244Y-6.7145
X2.4394Y-0.3885
X2.4394Y-1.9436
X2.4394Y-3.4988
X2.4394Y-5.0539
X2.4394Y-6.609
X2.4407Y-1.1579
X2.4407Y-2.713
X2.4407Y-4.2681
X2.4407Y-5.8232
X2.4407Y-7.3784
X2.4422Y-0.4314
X2.4422Y-1.9866
X2.4422Y-3.5417
X2.4422Y-5.0968
X2.4422Y-6.6519
X2.4449Y-1.2934
X2.4449Y-2.8486
X2.4449Y-4.4037
X2.4449Y-5.9588
X2.4449Y-7.5139
X2.4473Y-1.0747
X2.4473Y-2.6299
X2.4473Y-4.185
X2.4473Y-5.7401
X2.4473Y-7.2952
X2.4481Y-0.9173
X2.4481Y-2.4724
X2.4481Y-4.0275
X2.4481Y-5.5826
X2.4481Y-7.1377
X2.4489Y-1.0124
X2.4489Y-2.5675
X2.4489Y-4.1227
X2.4489Y-5.6778
X2.4489Y-7.2329
X2.4492Y-0.9472
X2.4492Y-2.5023
X2.4492Y-4.0574
X2.4492Y-5.6125
X2.4492Y-7.1677
X2.4528Y-1.5373
X2.4528Y-3.0925
X2.4528Y-4.6476
X2.4528Y-6.2027
X2.4528Y-7.7578
X2.4583Y-0.4625
X2.4583Y-2.0177
X2.4583Y-3.5728
X2.4583Y-5.1279
X2.4583Y-6.683
X2.4618Y-0.6169
X2.4618Y-2.172
X2.4618Y-3.7271
X2.4618Y-5.2822
X2.4618Y-6.8373
X2.4634Y-0.5358
X2.4634Y-2.0909
X2.4634Y-3.646
X2.4634Y-5.2011
X2.4634Y-6.7562
X2.4645Y-1.2195
X2.4645Y-2.7746
X2.4645Y-4.3297
X2.4645Y-5.8848
X2.4645Y-7.44
X2.4646Y-0.4948
X2.4646Y-2.0499
X2.4646Y-3.6051
X2.4646Y-5.1602
X2.4646Y-6.7153
X2.4689Y-0.3885
X2.4689Y-1.9436
X2.4689Y-3.4988
X2.4689Y-5.0539
X2.4689Y-6.609
X2.4784Y-0.8574
X2.4784Y-2.4125
X2.4784Y-3.9677
X2.4784Y-5.5228
X2.4784Y-7.0779
X2.4792Y-0.9179
X2.4792Y-2.4731
X2.4792Y-4.0282
X2.4792Y-5.5833
X2.4792Y-7.1384
X2.4806Y-0.9494
X2.4806Y-1.0124
X2.4806Y-2.5046
X2.4806Y-2.5675
X2.4806Y-4.0597
X2.4806Y-4.1227
X2.4806Y-5.6148
X2.4806Y-5.6778
X2.4806Y-7.1699
X2.4806Y-7.2329
X2.4811Y-0.9803
X2.4811Y-2.5354
X2.4811Y-4.0905
X2.4811Y-5.6456
X2.4811Y-7.2007
X2.4819Y-0.7698
X2.4819Y-2.3249
X2.4819Y-3.8801
X2.4819Y-5.4352
X2.4819Y-6.9903
X2.4823Y-1.5373
X2.4823Y-3.0925
X2.4823Y-4.6476
X2.4823Y-6.2027
X2.4823Y-7.7578
X2.4854Y-1.0744
X2.4854Y-2.6295
X2.4854Y-4.1846
X2.4854Y-5.7397
X2.4854Y-7.2949
X2.4985Y-0.3885
X2.4985Y-1.9436
X2.4985Y-3.4988
X2.4985Y-5.0539
X2.4985Y-6.609
X2.5Y-0.4287
X2.5Y-1.9838
X2.5Y-3.5389
X2.5Y-5.094
X2.5Y-6.6492
X2.5004Y-1.2249
X2.5004Y-2.7801
X2.5004Y-4.3352
X2.5004Y-5.8903
X2.5004Y-7.4454
X2.5083Y-0.5019
X2.5083Y-2.057
X2.5083Y-3.6121
X2.5083Y-5.1673
X2.5083Y-6.7224
X2.5091Y-0.459
X2.5091Y-2.0141
X2.5091Y-3.5692
X2.5091Y-5.1244
X2.5091Y-6.6795
X2.5099Y-0.5377
X2.5099Y-2.0929
X2.5099Y-3.648
X2.5099Y-5.2031
X2.5099Y-6.7582
X2.5107Y-1.2923
X2.5107Y-2.8474
X2.5107Y-4.4025
X2.5107Y-5.9576
X2.5107Y-7.5127
X2.5111Y-1.2031
X2.5111Y-2.7582
X2.5111Y-4.3133
X2.5111Y-5.8684
X2.5111Y-7.4236
X2.5118Y-0.9492
X2.5118Y-1.5373
X2.5118Y-2.5043
X2.5118Y-3.0925
X2.5118Y-4.0594
X2.5118Y-4.6476
X2.5118Y-5.6145
X2.5118Y-6.2027
X2.5118Y-7.1696
X2.5118Y-7.7578
X2.5121Y-1.0124
X2.5121Y-2.5675
X2.5121Y-4.1227
X2.5121Y-5.6778
X2.5121Y-7.2329
X2.5246Y-0.8202
X2.5246Y-2.3753
X2.5246Y-3.9305
X2.5246Y-5.4856
X2.5246Y-7.0407
X2.528Y-0.3885
X2.528Y-1.9436
X2.528Y-3.4988
X2.528Y-5.0539
X2.528Y-6.609
X2.5339Y-1.3192
X2.5339Y-2.8744
X2.5339Y-4.4295
X2.5339Y-5.9846
X2.5339Y-7.5397
X2.5341Y-0.674
X2.5341Y-2.2291
X2.5341Y-3.7843
X2.5341Y-5.3394
X2.5341Y-6.8945
X2.5354Y-0.6994
X2.5354Y-2.2545
X2.5354Y-3.8096
X2.5354Y-5.3647
X2.5354Y-6.9199
X2.5374Y-1.2066
X2.5374Y-2.7618
X2.5374Y-4.3169
X2.5374Y-5.872
X2.5374Y-7.4271
X2.5403Y-1.0439
X2.5403Y-2.599
X2.5403Y-4.1542
X2.5403Y-5.7093
X2.5403Y-7.2644
X2.5414Y-1.5373
X2.5414Y-3.0925
X2.5414Y-4.6476
X2.5414Y-6.2027
X2.5414Y-7.7578
X2.5418Y-1.1058
X2.5418Y-2.661
X2.5418Y-4.2161
X2.5418Y-5.7712
X2.5418Y-7.3263
X2.5426Y-0.8566
X2.5426Y-2.4118
X2.5426Y-3.9669
X2.5426Y-5.522
X2.5426Y-7.0771
X2.5449Y-0.4279
X2.5449Y-1.983
X2.5449Y-3.5381
X2.5449Y-5.0932
X2.5449Y-6.6484
X2.5465Y-1.1476
X2.5465Y-2.7027
X2.5465Y-4.2578
X2.5465Y-5.8129
X2.5465Y-7.3681
X2.5485Y-1.2476
X2.5485Y-2.8027
X2.5485Y-4.3578
X2.5485Y-5.9129
X2.5485Y-7.4681
X2.5563Y-0.4653
X2.5563Y-2.0204
X2.5563Y-3.5755
X2.5563Y-5.1307
X2.5563Y-6.6858
X2.5575Y-0.3885
X2.5575Y-1.9436
X2.5575Y-3.4988
X2.5575Y-5.0539
X2.5575Y-6.609
X2.5591Y-0.5019
X2.5591Y-0.5393
X2.5591Y-2.057
X2.5591Y-2.0944
X2.5591Y-3.6121
X2.5591Y-3.6495
X2.5591Y-5.1673
X2.5591Y-5.2047
X2.5591Y-6.7224
X2.5591Y-6.7598
X2.5685Y-0.7468
X2.5685Y-2.3019
X2.5685Y-3.857
X2.5685Y-5.4121
X2.5685Y-6.9673
X2.5709Y-1.5373
X2.5709Y-3.0925
X2.5709Y-4.6476
X2.5709Y-6.2027
X2.5709Y-7.7578
X2.5733Y-0.8566
X2.5733Y-2.4118
X2.5733Y-3.9669
X2.5733Y-5.522
X2.5733Y-7.0771
X2.5756Y-1.0114
X2.5756Y-2.5665
X2.5756Y-4.1216
X2.5756Y-5.6767
X2.5756Y-7.2318
X2.587Y-0.3885
X2.587Y-1.9436
X2.587Y-3.4988
X2.587Y-5.0539
X2.587Y-6.609
X2.5922Y-0.4314
X2.5922Y-1.9866
X2.5922Y-3.5417
X2.5922Y-5.0968
X2.5922Y-6.6519
X2.5929Y-0.7704
X2.5929Y-2.3255
X2.5929Y-3.8807
X2.5929Y-5.4358
X2.5929Y-6.9909
X2.6Y-0.4976
X2.6Y-2.0527
X2.6Y-3.6078
X2.6Y-5.1629
X2.6Y-6.7181
X2.6004Y-1.5373
X2.6004Y-3.0925
X2.6004Y-4.6476
X2.6004Y-6.2027
X2.6004Y-7.7578
X2.602Y-0.4602
X2.602Y-2.0153
X2.602Y-3.5704
X2.602Y-5.1255
X2.602Y-6.6807
X2.6122Y-1.0291
X2.6122Y-2.5842
X2.6122Y-4.1393
X2.6122Y-5.6944
X2.6122Y-7.2495
X2.6126Y-0.5369
X2.6126Y-1.0023
X2.6126Y-2.0921
X2.6126Y-2.5574
X2.6126Y-3.6472
X2.6126Y-4.1125
X2.6126Y-5.2023
X2.6126Y-5.6677
X2.6126Y-6.7574
X2.6126Y-7.2228
X2.6166Y-0.3885
X2.6166Y-1.9436
X2.6166Y-3.4988
X2.6166Y-5.0539
X2.6166Y-6.609
X2.6256Y-0.7677
X2.6256Y-2.3228
X2.6256Y-3.8779
X2.6256Y-5.433
X2.6256Y-6.9881
X2.63Y-1.5373
X2.63Y-3.0925
X2.63Y-4.6476
X2.63Y-6.2027
X2.63Y-7.7578
X2.6303Y-1.0653
X2.6303Y-2.6204
X2.6303Y-4.1755
X2.6303Y-5.7307
X2.6303Y-7.2858
X2.6316Y-0.9457
X2.6316Y-2.5008
X2.6316Y-4.0559
X2.6316Y-5.6111
X2.6316Y-7.1662
X2.6319Y-1.1283
X2.6319Y-2.6834
X2.6319Y-4.2385
X2.6319Y-5.7936
X2.6319Y-7.3488
X2.6411Y-0.7417
X2.6411Y-2.2968
X2.6411Y-3.852
X2.6411Y-5.4071
X2.6411Y-6.9622
X2.6414Y-0.5145
X2.6414Y-2.0696
X2.6414Y-3.6247
X2.6414Y-5.1799
X2.6414Y-6.735
X2.6419Y-0.9648
X2.6419Y-2.5199
X2.6419Y-4.075
X2.6419Y-5.6301
X2.6419Y-7.1853
X2.6449Y-0.4736
X2.6449Y-2.0287
X2.6449Y-3.5838
X2.6449Y-5.1389
X2.6449Y-6.694
X2.6461Y-0.3885
X2.6461Y-1.9436
X2.6461Y-3.4988
X2.6461Y-5.0539
X2.6461Y-6.609
X2.6477Y-0.6744
X2.6477Y-2.2295
X2.6477Y-3.7846
X2.6477Y-5.3397
X2.6477Y-6.8948
X2.6595Y-1.5373
X2.6595Y-3.0925
X2.6595Y-4.6476
X2.6595Y-6.2027
X2.6595Y-7.7578
X2.6618Y-0.4322
X2.6618Y-1.9873
X2.6618Y-3.5425
X2.6618Y-5.0976
X2.6618Y-6.6527
X2.6689Y-1.4023
X2.6689Y-2.9574
X2.6689Y-4.5125
X2.6689Y-6.0677
X2.6689Y-7.6228
X2.6756Y-0.3885
X2.6756Y-1.9436
X2.6756Y-3.4988
X2.6756Y-5.0539
X2.6756Y-6.609
X2.6761Y-1.4561
X2.6761Y-3.0112
X2.6761Y-4.5664
X2.6761Y-6.1215
X2.6761Y-7.6766
X2.6768Y-0.6736
X2.6768Y-2.2287
X2.6768Y-3.7838
X2.6768Y-5.3389
X2.6768Y-6.894
X2.6795Y-0.9142
X2.6795Y-2.4693
X2.6795Y-4.0244
X2.6795Y-5.5796
X2.6795Y-7.1347
X2.68Y-1.2625
X2.68Y-1.2873
X2.68Y-2.8177
X2.68Y-2.8425
X2.68Y-4.3728
X2.68Y-4.3976
X2.68Y-5.9279
X2.68Y-5.9527
X2.68Y-7.483
X2.68Y-7.5078
X2.6843Y-0.4724
X2.6843Y-2.0275
X2.6843Y-3.5826
X2.6843Y-5.1377
X2.6843Y-6.6929
X2.689Y-1.5373
X2.689Y-3.0925
X2.689Y-4.6476
X2.689Y-6.2027
X2.689Y-7.7578
X2.6894Y-0.5027
X2.6894Y-2.0578
X2.6894Y-3.6129
X2.6894Y-5.1681
X2.6894Y-6.7232
X2.6981Y-1.4027
X2.6981Y-2.9578
X2.6981Y-4.5129
X2.6981Y-6.0681
X2.6981Y-7.6232
X2.6996Y-1.2118
X2.6996Y-2.7669
X2.6996Y-4.322
X2.6996Y-5.8771
X2.6996Y-7.4322
X2.7052Y-0.3885
X2.7052Y-1.9436
X2.7052Y-3.4988
X2.7052Y-5.0539
X2.7052Y-6.609
X2.7077Y-0.8509
X2.7077Y-2.406
X2.7077Y-3.9611
X2.7077Y-5.5163
X2.7077Y-7.0714
X2.7087Y-1.4401
X2.7087Y-2.9952
X2.7087Y-4.5503
X2.7087Y-6.1055
X2.7087Y-7.6606
X2.7118Y-0.4314
X2.7118Y-1.9866
X2.7118Y-3.5417
X2.7118Y-5.0968
X2.7118Y-6.6519
X2.7122Y-0.6838
X2.7122Y-2.2389
X2.7122Y-3.794
X2.7122Y-5.3492
X2.7122Y-6.9043
X2.7149Y-0.9142
X2.7149Y-0.9534
X2.7149Y-0.9927
X2.7149Y-2.4693
X2.7149Y-2.5085
X2.7149Y-2.5479
X2.7149Y-4.0244
X2.7149Y-4.0636
X2.7149Y-4.103
X2.7149Y-5.5796
X2.7149Y-5.6187
X2.7149Y-5.6581
X2.7149Y-7.1347
X2.7149Y-7.1738
X2.7149Y-7.2132
X2.715Y-1.0988
X2.715Y-2.6539
X2.715Y-4.209
X2.715Y-5.7641
X2.715Y-7.3192
X2.7185Y-1.5373
X2.7185Y-3.0925
X2.7185Y-4.6476
X2.7185Y-6.2027
X2.7185Y-7.7578
X2.7213Y-1.2118
X2.7213Y-2.7669
X2.7213Y-4.322
X2.7213Y-5.8771
X2.7213Y-7.4322
X2.7272Y-1.0649
X2.7272Y-2.62
X2.7272Y-4.1751
X2.7272Y-5.7303
X2.7272Y-7.2854
X2.728Y-0.4771
X2.728Y-2.0322
X2.728Y-3.5873
X2.728Y-5.1425
X2.728Y-6.6976
X2.7288Y-0.8913
X2.7288Y-2.4464
X2.7288Y-4.0015
X2.7288Y-5.5566
X2.7288Y-7.1118
X2.7315Y-0.5145
X2.7315Y-2.0696
X2.7315Y-3.6247
X2.7315Y-5.1799
X2.7315Y-6.735
X2.7316Y-0.7193
X2.7316Y-2.2744
X2.7316Y-3.8296
X2.7316Y-5.3847
X2.7316Y-6.9398
X2.7319Y-0.694
X2.7319Y-2.2492
X2.7319Y-3.8043
X2.7319Y-5.3594
X2.7319Y-6.9145
X2.7347Y-0.3885
X2.7347Y-1.9436
X2.7347Y-3.4988
X2.7347Y-5.0539
X2.7347Y-6.609
X2.7429Y-1.2133
X2.7429Y-2.7684
X2.7429Y-4.3236
X2.7429Y-5.8787
X2.7429Y-7.4338
X2.7441Y-0.9385
X2.7441Y-2.4936
X2.7441Y-4.0488
X2.7441Y-5.6039
X2.7441Y-7.159
X2.7481Y-0.9704
X2.7481Y-1.5373
X2.7481Y-2.5255
X2.7481Y-3.0925
X2.7481Y-4.0807
X2.7481Y-4.6476
X2.7481Y-5.6358
X2.7481Y-6.2027
X2.7481Y-7.1909
X2.7481Y-7.7578
X2.7492Y-1.0023
X2.7492Y-2.5574
X2.7492Y-4.1125
X2.7492Y-5.6677
X2.7492Y-7.2228
X2.7575Y-0.4377
X2.7575Y-1.9929
X2.7575Y-3.548
X2.7575Y-5.1031
X2.7575Y-6.6582
X2.7618Y-0.848
X2.7618Y-2.4031
X2.7618Y-3.9582
X2.7618Y-5.5133
X2.7618Y-7.0684
X2.762Y-0.785
X2.762Y-2.3401
X2.762Y-3.8952
X2.762Y-5.4503
X2.762Y-7.0055
X2.7626Y-0.5181
X2.7626Y-2.0732
X2.7626Y-3.6283
X2.7626Y-5.1834
X2.7626Y-6.7385
X2.7638Y-1.0633
X2.7638Y-2.6184
X2.7638Y-4.1736
X2.7638Y-5.7287
X2.7638Y-7.2838
X2.7642Y-0.3885
X2.7642Y-1.9436
X2.7642Y-3.4988
X2.7642Y-5.0539
X2.7642Y-6.609
X2.765Y-1.2326
X2.765Y-2.7877
X2.765Y-4.3428
X2.765Y-5.8979
X2.765Y-7.4531
X2.7664Y-1.2557
X2.7664Y-2.8108
X2.7664Y-4.3659
X2.7664Y-5.9211
X2.7664Y-7.4762
X2.7666Y-0.7531
X2.7666Y-2.3082
X2.7666Y-3.8633
X2.7666Y-5.4184
X2.7666Y-6.9736
X2.7776Y-1.5373
X2.7776Y-3.0925
X2.7776Y-4.6476
X2.7776Y-6.2027
X2.7776Y-7.7578
X2.7937Y-0.3885
X2.7937Y-0.4181
X2.7937Y-0.4476
X2.7937Y-0.4771
X2.7937Y-0.5066
X2.7937Y-0.5362
X2.7937Y-0.5657
X2.7937Y-1.9436
X2.7937Y-1.9732
X2.7937Y-2.0027
X2.7937Y-2.0322
X2.7937Y-2.0618
X2.7937Y-2.0913
X2.7937Y-2.1208
X2.7937Y-3.4988
X2.7937Y-3.5283
X2.7937Y-3.5578
X2.7937Y-3.5873
X2.7937Y-3.6169
X2.7937Y-3.6464
X2.7937Y-3.6759
X2.7937Y-5.0539
X2.7937Y-5.0834
X2.7937Y-5.1129
X2.7937Y-5.1425
X2.7937Y-5.172
X2.7937Y-5.2015
X2.7937Y-5.231
X2.7937Y-6.609
X2.7937Y-6.6385
X2.7937Y-6.6681
X2.7937Y-6.6976
X2.7937Y-6.7271
X2.7937Y-6.7566
X2.7937Y-6.7862
X2.7961Y-1.3932
X2.7961Y-2.9484
X2.7961Y-4.5035
X2.7961Y-6.0586
X2.7961Y-7.6137
X2.7999Y-1.1255
X2.7999Y-2.6807
X2.7999Y-4.2358
X2.7999Y-5.7909
X2.7999Y-7.346
X2.8071Y-1.5373
X2.8071Y-3.0925
X2.8071Y-4.6476
X2.8071Y-6.2027
X2.8071Y-7.7578
X2.8366Y-1.5373
X2.8366Y-3.0925
X2.8366Y-4.6476
X2.8366Y-6.2027
X2.8366Y-7.7578
X2.8426Y-1.0673
X2.8426Y-2.6224
X2.8426Y-4.1775
X2.8426Y-5.7326
X2.8426Y-7.2877
X2.8429Y-0.881
X2.8429Y-2.4362
X2.8429Y-3.9913
X2.8429Y-5.5464
X2.8429Y-7.1015
X2.8433Y-1.459
X2.8433Y-3.0141
X2.8433Y-4.5693
X2.8433Y-6.1244
X2.8433Y-7.6795
X2.8433Y-0.9826
X2.8433Y-2.5377
X2.8433Y-4.0929
X2.8433Y-5.648
X2.8433Y-7.2031
X2.8481Y-1.1291
X2.8481Y-2.6842
X2.8481Y-4.2393
X2.8481Y-5.7944
X2.8481Y-7.3495
X2.8485Y-1.4114
X2.8485Y-2.9665
X2.8485Y-4.5216
X2.8485Y-6.0767
X2.8485Y-7.6318
X2.8622Y-0.6858
X2.8622Y-2.2409
X2.8622Y-3.796
X2.8622Y-5.3511
X2.8622Y-6.9062
X2.8662Y-1.5373
X2.8662Y-3.0925
X2.8662Y-4.6476
X2.8662Y-6.2027
X2.8662Y-7.7578
X2.8697Y-1.0688
X2.8697Y-2.624
X2.8697Y-4.1791
X2.8697Y-5.7342
X2.8697Y-7.2893
X2.8709Y-1.459
X2.8709Y-3.0141
X2.8709Y-4.5692
X2.8709Y-6.1244
X2.8709Y-7.6795
X2.8784Y-0.881
X2.8784Y-2.4362
X2.8784Y-3.9913
X2.8784Y-5.5464
X2.8784Y-7.1015
X2.8898Y-0.844
X2.8898Y-2.3992
X2.8898Y-3.9543
X2.8898Y-5.5094
X2.8898Y-7.0645
X2.8957Y-1.5373
X2.8957Y-3.0925
X2.8957Y-4.6476
X2.8957Y-6.2027
X2.8957Y-7.7578
X2.8961Y-1.0673
X2.8961Y-1.2085
X2.8961Y-2.6224
X2.8961Y-2.7636
X2.8961Y-4.1775
X2.8961Y-4.3187
X2.8961Y-5.7326
X2.8961Y-5.8739
X2.8961Y-7.2877
X2.8961Y-7.429
X2.8977Y-1.4586
X2.8977Y-3.0137
X2.8977Y-4.5688
X2.8977Y-6.124
X2.8977Y-7.6791
X2.8996Y-1.1263
X2.8996Y-2.6814
X2.8996Y-4.2366
X2.8996Y-5.7917
X2.8996Y-7.3468
X2.9079Y-0.5988
X2.9079Y-2.1539
X2.9079Y-3.709
X2.9079Y-5.2641
X2.9079Y-6.8192
X2.908Y-0.8811
X2.908Y-2.4362
X2.908Y-3.9913
X2.908Y-5.5464
X2.908Y-7.1015
X2.9099Y-0.622
X2.9099Y-2.1771
X2.9099Y-3.7322
X2.9099Y-5.2873
X2.9099Y-6.8425
X2.9152Y-0.3264
X2.9152Y-0.3559
X2.9152Y-0.3854
X2.9152Y-0.415
X2.9152Y-0.4445
X2.9152Y-0.474
X2.9152Y-0.5035
X2.9152Y-0.5331
X2.9152Y-0.5626
X2.9152Y-1.8815
X2.9152Y-1.911
X2.9152Y-1.9405
X2.9152Y-1.9701
X2.9152Y-1.9996
X2.9152Y-2.0291
X2.9152Y-2.0587
X2.9152Y-2.0882
X2.9152Y-2.1177
X2.9152Y-3.4366
X2.9152Y-3.4661
X2.9152Y-3.4957
X2.9152Y-3.5252
X2.9152Y-3.5547
X2.9152Y-3.5842
X2.9152Y-3.6138
X2.9152Y-3.6433
X2.9152Y-3.6728
X2.9152Y-4.9917
X2.9152Y-5.0213
X2.9152Y-5.0508
X2.9152Y-5.0803
X2.9152Y-5.1098
X2.9152Y-5.1394
X2.9152Y-5.1689
X2.9152Y-5.1984
X2.9152Y-5.228
X2.9152Y-6.5468
X2.9152Y-6.5764
X2.9152Y-6.6059
X2.9152Y-6.6354
X2.9152Y-6.665
X2.9152Y-6.6945
X2.9152Y-6.724
X2.9152Y-6.7535
X2.9152Y-6.7831
X2.9152Y-1.4373
X2.9152Y-2.9925
X2.9152Y-4.5476
X2.9152Y-6.1027
X2.9152Y-7.6578
X2.9154Y-1.4137
X2.9154Y-2.9688
X2.9154Y-4.524
X2.9154Y-6.0791
X2.9154Y-7.6342
X2.9158Y-1.3901
X2.9158Y-2.9452
X2.9158Y-4.5003
X2.9158Y-6.0555
X2.9158Y-7.6106
X2.9197Y-1.0673
X2.9197Y-1.2085
X2.9197Y-2.6224
X2.9197Y-2.7636
X2.9197Y-4.1775
X2.9197Y-4.3187
X2.9197Y-5.7326
X2.9197Y-5.8739
X2.9197Y-7.2877
X2.9197Y-7.429
X2.9233Y-0.6858
X2.9233Y-2.2409
X2.9233Y-3.796
X2.9233Y-5.3511
X2.9233Y-6.9062
X2.9237Y-0.7255
X2.9237Y-2.2807
X2.9237Y-3.8358
X2.9237Y-5.3909
X2.9237Y-6.946
X2.9252Y-1.5373
X2.9252Y-3.0925
X2.9252Y-4.6476
X2.9252Y-6.2027
X2.9252Y-7.7578
X2.9322Y-0.2957
X2.9322Y-1.8509
X2.9322Y-3.406
X2.9322Y-4.9611
X2.9322Y-6.5162
X2.9496Y-1.2425
X2.9496Y-2.7976
X2.9496Y-4.3527
X2.9496Y-5.9078
X2.9496Y-7.4629
X2.9504Y-0.4125
X2.9504Y-1.9677
X2.9504Y-3.5228
X2.9504Y-5.0779
X2.9504Y-6.633
X2.9528Y-0.7287
X2.9528Y-2.2838
X2.9528Y-3.8389
X2.9528Y-5.394
X2.9528Y-6.9492
X2.9532Y-0.6234
X2.9532Y-2.1785
X2.9532Y-3.7336
X2.9532Y-5.2887
X2.9532Y-6.8438
X2.9544Y-0.844
X2.9544Y-2.3992
X2.9544Y-3.9543
X2.9544Y-5.5094
X2.9544Y-7.0645
X2.9548Y-1.5373
X2.9548Y-3.0925
X2.9548Y-4.6476
X2.9548Y-6.2027
X2.9548Y-7.7578
X2.9552Y-1.3149
X2.9552Y-2.87
X2.9552Y-4.4251
X2.9552Y-5.9803
X2.9552Y-7.5354
X2.9618Y-0.2957
X2.9618Y-1.8509
X2.9618Y-3.406
X2.9618Y-4.9611
X2.9618Y-6.5162
X2.967Y-1.1224
X2.967Y-2.6775
X2.967Y-4.2326
X2.967Y-5.7877
X2.967Y-7.3429
X2.9724Y-0.8721
X2.9724Y-2.4273
X2.9724Y-3.9824
X2.9724Y-5.5375
X2.9724Y-7.0926
X2.9737Y-0.7027
X2.9737Y-2.2578
X2.9737Y-3.8129
X2.9737Y-5.3681
X2.9737Y-6.9232
X2.9776Y-1.2425
X2.9776Y-2.7976
X2.9776Y-4.3527
X2.9776Y-5.9078
X2.9776Y-7.4629
X2.9788Y-1.3153
X2.9788Y-2.8704
X2.9788Y-4.4255
X2.9788Y-5.9807
X2.9788Y-7.5358
X2.9819Y-1.5351
X2.9819Y-3.0902
X2.9819Y-4.6453
X2.9819Y-6.2004
X2.9819Y-7.7555
X2.9913Y-0.2957
X2.9913Y-1.8509
X2.9913Y-3.406
X2.9913Y-4.9611
X2.9913Y-6.5162
X2.9961Y-0.9228
X2.9961Y-2.4779
X2.9961Y-4.033
X2.9961Y-5.5881
X2.9961Y-7.1432
X2.9985Y-1.1106
X2.9985Y-2.6657
X2.9985Y-4.2208
X2.9985Y-5.7759
X2.9985Y-7.331
X3.0Y-1.0456
X3.0Y-2.6007
X3.0Y-4.1558
X3.0Y-5.711
X3.0Y-7.2661
X3.0047Y-0.4157
X3.0047Y-1.9708
X3.0047Y-3.5259
X3.0047Y-5.081
X3.0047Y-6.6362
X3.0055Y-0.9803
X3.0055Y-2.5354
X3.0055Y-4.0905
X3.0055Y-5.6456
X3.0055Y-7.2007
X3.0142Y-0.7999
X3.0142Y-2.3551
X3.0142Y-3.9102
X3.0142Y-5.4653
X3.0142Y-7.0204
X3.0173Y-1.538
X3.0173Y-3.0931
X3.0173Y-4.6483
X3.0173Y-6.2034
X3.0173Y-7.7585
X3.0208Y-0.2957
X3.0208Y-1.8509
X3.0208Y-3.406
X3.0208Y-4.9611
X3.0208Y-6.5162
X3.0292Y-1.0184
X3.0292Y-2.5736
X3.0292Y-4.1287
X3.0292Y-5.6838
X3.0292Y-7.2389
X3.0319Y-1.1224
X3.0319Y-2.6775
X3.0319Y-4.2326
X3.0319Y-5.7877
X3.0319Y-7.3429
X3.0331Y-0.4677
X3.0331Y-2.0228
X3.0331Y-3.5779
X3.0331Y-5.133
X3.0331Y-6.6881
X3.0363Y-0.6791
X3.0363Y-2.2342
X3.0363Y-3.7893
X3.0363Y-5.3444
X3.0363Y-6.8995
X3.0398Y-0.7671
X3.0398Y-2.3222
X3.0398Y-3.8773
X3.0398Y-5.4324
X3.0398Y-6.9875
X3.0504Y-0.2957
X3.0504Y-1.8509
X3.0504Y-3.406
X3.0504Y-4.9611
X3.0504Y-6.5162
X3.051Y-1.5388
X3.051Y-3.0939
X3.051Y-4.6491
X3.051Y-6.2042
X3.051Y-7.7593
X3.0618Y-0.4145
X3.0618Y-1.9696
X3.0618Y-3.5247
X3.0618Y-5.0799
X3.0618Y-6.635
X3.0646Y-1.2251
X3.0646Y-2.7803
X3.0646Y-4.3354
X3.0646Y-5.8905
X3.0646Y-7.4456
X3.0654Y-0.8759
X3.0654Y-2.431
X3.0654Y-3.9862
X3.0654Y-5.5413
X3.0654Y-7.0964
X3.0657Y-0.8444
X3.0657Y-2.3995
X3.0657Y-3.9546
X3.0657Y-5.5098
X3.0657Y-7.0649
X3.0662Y-0.907
X3.0662Y-2.4621
X3.0662Y-4.0173
X3.0662Y-5.5724
X3.0662Y-7.1275
X3.0742Y-1.0761
X3.0742Y-2.6312
X3.0742Y-4.1864
X3.0742Y-5.7415
X3.0742Y-7.2966
X3.0744Y-0.6771
X3.0744Y-2.2322
X3.0744Y-3.7873
X3.0744Y-5.3425
X3.0744Y-6.8976
X3.0799Y-0.2957
X3.0799Y-1.8509
X3.0799Y-3.406
X3.0799Y-4.9611
X3.0799Y-6.5162
X3.0824Y-1.5396
X3.0824Y-3.0947
X3.0824Y-4.6498
X3.0824Y-6.205
X3.0824Y-7.7601
X3.0835Y-1.3995
X3.0835Y-2.9547
X3.0835Y-4.5098
X3.0835Y-6.0649
X3.0835Y-7.62
X3.0929Y-1.1145
X3.0929Y-2.6696
X3.0929Y-4.2247
X3.0929Y-5.7799
X3.0929Y-7.335
X3.0969Y-1.024
X3.0969Y-2.5791
X3.0969Y-4.1342
X3.0969Y-5.6893
X3.0969Y-7.2444
X3.0976Y-0.8454
X3.0976Y-2.4005
X3.0976Y-3.9556
X3.0976Y-5.5108
X3.0976Y-7.0659
X3.0979Y-0.7677
X3.0979Y-2.3228
X3.0979Y-3.8779
X3.0979Y-5.433
X3.0979Y-6.9881
X3.0989Y-1.224
X3.0989Y-2.7791
X3.0989Y-4.3342
X3.0989Y-5.8893
X3.0989Y-7.4444
X3.1012Y-0.9074
X3.1012Y-2.4625
X3.1012Y-4.0177
X3.1012Y-5.5728
X3.1012Y-7.1279
X3.1013Y-0.8776
X3.1013Y-2.4328
X3.1013Y-3.9879
X3.1013Y-5.543
X3.1013Y-7.0981
X3.1094Y-0.2957
X3.1094Y-1.8509
X3.1094Y-3.406
X3.1094Y-4.9611
X3.1094Y-6.5162
X3.1166Y-0.4125
X3.1166Y-1.9677
X3.1166Y-3.5228
X3.1166Y-5.0779
X3.1166Y-6.633
X3.1181Y-1.5392
X3.1181Y-3.0943
X3.1181Y-4.6494
X3.1181Y-6.2046
X3.1181Y-7.7597
X3.1185Y-0.7395
X3.1185Y-2.2946
X3.1185Y-3.8497
X3.1185Y-5.4049
X3.1185Y-6.96
X3.1205Y-1.024
X3.1205Y-2.5791
X3.1205Y-4.1342
X3.1205Y-5.6893
X3.1205Y-7.2444
X3.1225Y-0.77
X3.1225Y-2.3252
X3.1225Y-3.8803
X3.1225Y-5.4354
X3.1225Y-6.9905
X3.124Y-1.2236
X3.124Y-2.7787
X3.124Y-4.3338
X3.124Y-5.8889
X3.124Y-7.444
X3.1307Y-1.259
X3.1307Y-2.8141
X3.1307Y-4.3693
X3.1307Y-5.9244
X3.1307Y-7.4795
X3.1327Y-0.6775
X3.1327Y-2.2326
X3.1327Y-3.7877
X3.1327Y-5.3429
X3.1327Y-6.898
X3.1352Y-0.8589
X3.1352Y-2.414
X3.1352Y-3.9691
X3.1352Y-5.5242
X3.1352Y-7.0793
X3.1389Y-0.2957
X3.1389Y-1.8509
X3.1389Y-3.406
X3.1389Y-4.9611
X3.1389Y-6.5162
X3.1394Y-0.9082
X3.1394Y-2.4633
X3.1394Y-4.0184
X3.1394Y-5.5736
X3.1394Y-7.1287
X3.1414Y-0.8854
X3.1414Y-2.4405
X3.1414Y-3.9956
X3.1414Y-5.5507
X3.1414Y-7.1058
X3.1455Y-1.5392
X3.1455Y-3.0943
X3.1455Y-4.6494
X3.1455Y-6.2046
X3.1455Y-7.7597
X3.1563Y-1.3995
X3.1563Y-2.9547
X3.1563Y-4.5098
X3.1563Y-6.0649
X3.1563Y-7.62
X3.1571Y-0.6779
X3.1571Y-1.0196
X3.1571Y-2.233
X3.1571Y-2.5747
X3.1571Y-3.7881
X3.1571Y-4.1299
X3.1571Y-5.3432
X3.1571Y-5.685
X3.1571Y-6.8984
X3.1571Y-7.2401
X3.1642Y-0.6369
X3.1642Y-2.1921
X3.1642Y-3.7472
X3.1642Y-5.3023
X3.1642Y-6.8574
X3.167Y-0.9963
X3.167Y-2.5515
X3.167Y-4.1066
X3.167Y-5.6617
X3.167Y-7.2168
X3.1685Y-0.2957
X3.1685Y-1.8509
X3.1685Y-3.406
X3.1685Y-4.9611
X3.1685Y-6.5162
X3.1705Y-0.5637
X3.1705Y-2.1188
X3.1705Y-3.674
X3.1705Y-5.2291
X3.1705Y-6.7842
X3.1717Y-0.9098
X3.1717Y-2.4649
X3.1717Y-4.02
X3.1717Y-5.5751
X3.1717Y-7.1303
X3.174Y-0.4157
X3.174Y-1.5393
X3.174Y-1.9708
X3.174Y-3.0944
X3.174Y-3.5259
X3.174Y-4.6495
X3.174Y-5.081
X3.174Y-6.2047
X3.174Y-6.6362
X3.174Y-7.7598
X3.176Y-0.7818
X3.176Y-2.3369
X3.176Y-3.8921
X3.176Y-5.4472
X3.176Y-7.0023
X3.1807Y-1.0133
X3.1807Y-2.5685
X3.1807Y-4.1236
X3.1807Y-5.6787
X3.1807Y-7.2338
X3.1933Y-1.1673
X3.1933Y-2.7224
X3.1933Y-4.2775
X3.1933Y-5.8326
X3.1933Y-7.3877
X3.1945Y-1.0303
X3.1945Y-2.5854
X3.1945Y-4.1405
X3.1945Y-5.6956
X3.1945Y-7.2507
X3.1952Y-1.3338
X3.1952Y-2.8889
X3.1952Y-4.4441
X3.1952Y-5.9992
X3.1952Y-7.5543
X3.1953Y-0.9098
X3.1953Y-2.4649
X3.1953Y-4.02
X3.1953Y-5.5751
X3.1953Y-7.1303
X3.1961Y-0.6137
X3.1961Y-2.1688
X3.1961Y-3.724
X3.1961Y-5.2791
X3.1961Y-6.8342
X3.198Y-0.2957
X3.198Y-1.8509
X3.198Y-3.406
X3.198Y-4.9611
X3.198Y-6.5162
X3.202Y-0.5334
X3.202Y-2.0885
X3.202Y-3.6436
X3.202Y-5.1988
X3.202Y-6.7539
X3.2024Y-1.2803
X3.2024Y-2.8354
X3.2024Y-4.3905
X3.2024Y-5.9456
X3.2024Y-7.5007
X3.2028Y-1.2531
X3.2028Y-2.8082
X3.2028Y-4.3633
X3.2028Y-5.9184
X3.2028Y-7.4736
X3.2036Y-1.5393
X3.2036Y-3.0944
X3.2036Y-4.6495
X3.2036Y-6.2047
X3.2036Y-7.7598
X3.2099Y-1.3027
X3.2099Y-2.8578
X3.2099Y-4.4129
X3.2099Y-5.9681
X3.2099Y-7.5232
X3.2198Y-0.8441
X3.2198Y-2.3992
X3.2198Y-3.9543
X3.2198Y-5.5094
X3.2198Y-7.0645
X3.2229Y-1.0673
X3.2229Y-1.1421
X3.2229Y-2.6224
X3.2229Y-2.6972
X3.2229Y-4.1775
X3.2229Y-4.2523
X3.2229Y-5.7326
X3.2229Y-5.8074
X3.2229Y-7.2877
X3.2229Y-7.3625
X3.2275Y-0.2957
X3.2275Y-1.8509
X3.2275Y-3.406
X3.2275Y-4.9611
X3.2275Y-6.5162
X3.23Y-0.4173
X3.23Y-1.9724
X3.23Y-3.5275
X3.23Y-5.0826
X3.23Y-6.6377
X3.2307Y-0.6586
X3.2307Y-2.2137
X3.2307Y-3.7688
X3.2307Y-5.324
X3.2307Y-6.8791
X3.2311Y-0.6787
X3.2311Y-2.2338
X3.2311Y-3.7889
X3.2311Y-5.344
X3.2311Y-6.8992
X3.2315Y-0.6369
X3.2315Y-2.1921
X3.2315Y-3.7472
X3.2315Y-5.3023
X3.2315Y-6.8574
X3.2331Y-1.5393
X3.2331Y-3.0944
X3.2331Y-4.6495
X3.2331Y-6.2047
X3.2331Y-7.7598
X3.2343Y-0.7543
X3.2343Y-2.3094
X3.2343Y-3.8645
X3.2343Y-5.4196
X3.2343Y-6.9747
X3.2414Y-1.4051
X3.2414Y-2.9602
X3.2414Y-4.5153
X3.2414Y-6.0704
X3.2414Y-7.6255
X3.2528Y-0.6121
X3.2528Y-2.1673
X3.2528Y-3.7224
X3.2528Y-5.2775
X3.2528Y-6.8326
X3.2559Y-1.4346
X3.2559Y-2.9897
X3.2559Y-4.5448
X3.2559Y-6.0999
X3.2559Y-7.6551
X3.2571Y-0.2957
X3.2571Y-1.8509
X3.2571Y-3.406
X3.2571Y-4.9611
X3.2571Y-6.5162
X3.2583Y-0.9767
X3.2583Y-2.5318
X3.2583Y-4.0869
X3.2583Y-5.6421
X3.2583Y-7.1972
X3.2622Y-1.1854
X3.2622Y-2.7405
X3.2622Y-4.2956
X3.2622Y-5.8507
X3.2622Y-7.4058
X3.2626Y-1.5393
X3.2626Y-3.0944
X3.2626Y-4.6495
X3.2626Y-6.2047
X3.2626Y-7.7598
X3.2662Y-1.0673
X3.2662Y-2.6224
X3.2662Y-4.1775
X3.2662Y-5.7326
X3.2662Y-7.2877
X3.274Y-1.1499
X3.274Y-2.7051
X3.274Y-4.2602
X3.274Y-5.8153
X3.274Y-7.3704
X3.2866Y-0.2957
X3.2866Y-1.8509
X3.2866Y-3.406
X3.2866Y-4.9611
X3.2866Y-6.5162
X3.2874Y-1.2271
X3.2874Y-2.7822
X3.2874Y-4.3373
X3.2874Y-5.8925
X3.2874Y-7.4476
X3.29Y-0.8952
X3.29Y-2.4503
X3.29Y-4.0055
X3.29Y-5.5606
X3.29Y-7.1157
X3.2922Y-1.5393
X3.2922Y-3.0944
X3.2922Y-4.6495
X3.2922Y-6.2047
X3.2922Y-7.7598
X3.2926Y-0.7011
X3.2926Y-2.2562
X3.2926Y-3.8114
X3.2926Y-5.3665
X3.2926Y-6.9216
X3.2977Y-0.6661
X3.2977Y-2.2212
X3.2977Y-3.7763
X3.2977Y-5.3314
X3.2977Y-6.8866
X3.2978Y-0.9183
X3.2978Y-2.4734
X3.2978Y-4.0285
X3.2978Y-5.5836
X3.2978Y-7.1387
X3.2981Y-0.814
X3.2981Y-2.3691
X3.2981Y-3.9242
X3.2981Y-5.4793
X3.2981Y-7.0344
X3.3016Y-1.0712
X3.3016Y-2.6263
X3.3016Y-4.1814
X3.3016Y-5.7366
X3.3016Y-7.2917
X3.3055Y-1.1027
X3.3055Y-2.6578
X3.3055Y-4.2129
X3.3055Y-5.7681
X3.3055Y-7.3232
X3.3134Y-1.1893
X3.3134Y-2.7444
X3.3134Y-4.2995
X3.3134Y-5.8547
X3.3134Y-7.4098
X3.3161Y-0.2957
X3.3161Y-1.8509
X3.3161Y-3.406
X3.3161Y-4.9611
X3.3161Y-6.5162
X3.3203Y-0.7484
X3.3203Y-0.7858
X3.3203Y-2.3035
X3.3203Y-2.3409
X3.3203Y-3.8586
X3.3203Y-3.896
X3.3203Y-5.4137
X3.3203Y-5.4511
X3.3203Y-6.9688
X3.3203Y-7.0062
X3.3205Y-0.8141
X3.3205Y-2.3692
X3.3205Y-3.9244
X3.3205Y-5.4795
X3.3205Y-7.0346
X3.3217Y-1.5393
X3.3217Y-3.0944
X3.3217Y-4.6495
X3.3217Y-6.2047
X3.3217Y-7.7598
X3.3292Y-1.0712
X3.3292Y-2.6263
X3.3292Y-4.1814
X3.3292Y-5.7366
X3.3292Y-7.2917
X3.3303Y-0.4751
X3.3303Y-0.5047
X3.3303Y-2.0303
X3.3303Y-2.0598
X3.3303Y-3.5854
X3.3303Y-3.6149
X3.3303Y-5.1405
X3.3303Y-5.17
X3.3303Y-6.6956
X3.3303Y-6.7251
X3.3339Y-1.3551
X3.3339Y-2.9102
X3.3339Y-4.4653
X3.3339Y-6.0204
X3.3339Y-7.5755
X3.3378Y-0.6932
X3.3378Y-2.2484
X3.3378Y-3.8035
X3.3378Y-5.3586
X3.3378Y-6.9137
X3.3398Y-1.244
X3.3398Y-2.7992
X3.3398Y-4.3543
X3.3398Y-5.9094
X3.3398Y-7.4645
X3.3402Y-1.2881
X3.3402Y-2.8432
X3.3402Y-4.3984
X3.3402Y-5.9535
X3.3402Y-7.5086
X3.3426Y-0.8137
X3.3426Y-2.3688
X3.3426Y-3.924
X3.3426Y-5.4791
X3.3426Y-7.0342
X3.3456Y-0.2957
X3.3456Y-1.8509
X3.3456Y-3.406
X3.3456Y-4.9611
X3.3456Y-6.5162
X3.3489Y-1.1421
X3.3489Y-1.4771
X3.3489Y-2.6972
X3.3489Y-3.0322
X3.3489Y-4.2523
X3.3489Y-4.5873
X3.3489Y-5.8074
X3.3489Y-6.1425
X3.3489Y-7.3625
X3.3489Y-7.6976
X3.3496Y-0.8736
X3.3496Y-2.4287
X3.3496Y-3.9838
X3.3496Y-5.5389
X3.3496Y-7.094
X3.3512Y-1.5393
X3.3512Y-3.0944
X3.3512Y-4.6495
X3.3512Y-6.2047
X3.3512Y-7.7598
X3.3557Y-0.7858
X3.3557Y-2.3409
X3.3557Y-3.896
X3.3557Y-5.4511
X3.3557Y-7.0062
X3.3559Y-0.7157
X3.3559Y-2.2708
X3.3559Y-3.8259
X3.3559Y-5.381
X3.3559Y-6.9362
X3.3598Y-0.4751
X3.3598Y-0.5047
X3.3598Y-2.0303
X3.3598Y-2.0598
X3.3598Y-3.5854
X3.3598Y-3.6149
X3.3598Y-5.1405
X3.3598Y-5.17
X3.3598Y-6.6956
X3.3598Y-6.7251
X3.3638Y-0.8133
X3.3638Y-2.3684
X3.3638Y-3.9236
X3.3638Y-5.4787
X3.3638Y-7.0338
X3.3685Y-1.0869
X3.3685Y-2.6421
X3.3685Y-4.1972
X3.3685Y-5.7523
X3.3685Y-7.3074
X3.374Y-1.4224
X3.374Y-2.9775
X3.374Y-4.5326
X3.374Y-6.0877
X3.374Y-7.6429
X3.3752Y-0.2957
X3.3752Y-1.8509
X3.3752Y-3.406
X3.3752Y-4.9611
X3.3752Y-6.5162
X3.3807Y-1.5393
X3.3807Y-3.0944
X3.3807Y-4.6495
X3.3807Y-6.2047
X3.3807Y-7.7598
X3.3843Y-1.2562
X3.3843Y-2.8114
X3.3843Y-4.3665
X3.3843Y-5.9216
X3.3843Y-7.4767
X3.3922Y-0.3188
X3.3922Y-1.874
X3.3922Y-3.4291
X3.3922Y-4.9842
X3.3922Y-6.5393
X3.4Y-1.1893
X3.4Y-2.7444
X3.4Y-4.2995
X3.4Y-5.8547
X3.4Y-7.4098
X3.4024Y-1.4192
X3.4024Y-2.9744
X3.4024Y-4.5295
X3.4024Y-6.0846
X3.4024Y-7.6397
X3.4099Y-0.9505
X3.4099Y-2.5056
X3.4099Y-4.0608
X3.4099Y-5.6159
X3.4099Y-7.171
X3.4103Y-1.5393
X3.4103Y-3.0944
X3.4103Y-4.6495
X3.4103Y-6.2047
X3.4103Y-7.7598
X3.4103Y-0.8606
X3.4103Y-2.4157
X3.4103Y-3.9708
X3.4103Y-5.5259
X3.4103Y-7.081
X3.4111Y-0.744
X3.4111Y-2.2992
X3.4111Y-3.8543
X3.4111Y-5.4094
X3.4111Y-6.9645
X3.4118Y-0.3401
X3.4118Y-0.7712
X3.4118Y-1.8952
X3.4118Y-2.3263
X3.4118Y-3.4503
X3.4118Y-3.8814
X3.4118Y-5.0055
X3.4118Y-5.4366
X3.4118Y-6.5606
X3.4118Y-6.9917
X3.4126Y-0.9775
X3.4126Y-2.5326
X3.4126Y-4.0877
X3.4126Y-5.6429
X3.4126Y-7.198
X3.4158Y-1.2877
X3.4158Y-2.8429
X3.4158Y-4.398
X3.4158Y-5.9531
X3.4158Y-7.5082
X3.4172Y-0.5466
X3.4172Y-0.5761
X3.4172Y-2.1017
X3.4172Y-2.1312
X3.4172Y-3.6568
X3.4172Y-3.6863
X3.4172Y-5.2119
X3.4172Y-5.2415
X3.4172Y-6.767
X3.4172Y-6.7966
X3.419Y-0.4686
X3.419Y-0.4981
X3.419Y-2.0237
X3.419Y-2.0532
X3.419Y-3.5788
X3.419Y-3.6084
X3.419Y-5.134
X3.419Y-5.1635
X3.419Y-6.6891
X3.419Y-6.7186
X3.4217Y-1.3204
X3.4217Y-2.8755
X3.4217Y-4.4307
X3.4217Y-5.9858
X3.4217Y-7.5409
X3.4253Y-0.896
X3.4253Y-2.4511
X3.4253Y-4.0062
X3.4253Y-5.5614
X3.4253Y-7.1165
X3.4303Y-0.3641
X3.4303Y-1.9192
X3.4303Y-3.4744
X3.4303Y-5.0295
X3.4303Y-6.5846
X3.4305Y-0.8645
X3.4305Y-2.4197
X3.4305Y-3.9748
X3.4305Y-5.5299
X3.4305Y-7.085
X3.4307Y-0.7984
X3.4307Y-2.3535
X3.4307Y-3.9086
X3.4307Y-5.4637
X3.4307Y-7.0188
X3.4327Y-1.4771
X3.4327Y-3.0322
X3.4327Y-4.5873
X3.4327Y-6.1425
X3.4327Y-7.6976
X3.4331Y-1.5023
X3.4331Y-3.0574
X3.4331Y-4.6125
X3.4331Y-6.1677
X3.4331Y-7.7228
X3.4351Y-0.9775
X3.4351Y-2.5326
X3.4351Y-4.0877
X3.4351Y-5.6429
X3.4351Y-7.198
X3.4364Y-1.4182
X3.4364Y-2.9734
X3.4364Y-4.5285
X3.4364Y-6.0836
X3.4364Y-7.6387
X3.4394Y-1.1578
X3.4394Y-1.2287
X3.4394Y-2.7129
X3.4394Y-2.7838
X3.4394Y-4.2681
X3.4394Y-4.3389
X3.4394Y-5.8232
X3.4394Y-5.894
X3.4394Y-7.3783
X3.4394Y-7.4492
X3.4398Y-1.5393
X3.4398Y-3.0944
X3.4398Y-4.6495
X3.4398Y-6.2047
X3.4398Y-7.7598
X3.4467Y-0.5466
X3.4467Y-0.5761
X3.4467Y-2.1017
X3.4467Y-2.1312
X3.4467Y-3.6568
X3.4467Y-3.6863
X3.4467Y-5.2119
X3.4467Y-5.2415
X3.4467Y-6.767
X3.4467Y-6.7966
X3.4485Y-0.4686
X3.4485Y-0.4981
X3.4485Y-2.0237
X3.4485Y-2.0532
X3.4485Y-3.5788
X3.4485Y-3.6084
X3.4485Y-5.134
X3.4485Y-5.1635
X3.4485Y-6.6891
X3.4485Y-6.7186
X3.4504Y-0.3885
X3.4504Y-1.9436
X3.4504Y-3.4988
X3.4504Y-5.0539
X3.4504Y-6.609
X3.4548Y-1.0673
X3.4548Y-2.6224
X3.4548Y-4.1775
X3.4548Y-5.7326
X3.4548Y-7.2877
X3.4552Y-1.3188
X3.4552Y-2.874
X3.4552Y-4.4291
X3.4552Y-5.9842
X3.4552Y-7.5393
X3.4567Y-0.8058
X3.4567Y-2.361
X3.4567Y-3.9161
X3.4567Y-5.4712
X3.4567Y-7.0263
X3.4571Y-0.8655
X3.4571Y-2.4206
X3.4571Y-3.9757
X3.4571Y-5.5309
X3.4571Y-7.086
X3.4614Y-0.9299
X3.4614Y-2.485
X3.4614Y-4.0401
X3.4614Y-5.5952
X3.4614Y-7.1503
X3.4618Y-0.9972
X3.4618Y-2.5523
X3.4618Y-4.1074
X3.4618Y-5.6625
X3.4618Y-7.2177
X3.4622Y-1.0452
X3.4622Y-2.6003
X3.4622Y-4.1555
X3.4622Y-5.7106
X3.4622Y-7.2657
X3.465Y-0.9582
X3.465Y-2.5133
X3.465Y-4.0684
X3.465Y-5.6236
X3.465Y-7.1787
X3.467Y-1.1775
X3.467Y-2.7326
X3.467Y-4.2877
X3.467Y-5.8429
X3.467Y-7.398
X3.4681Y-1.2578
X3.4681Y-2.8129
X3.4681Y-4.3681
X3.4681Y-5.9232
X3.4681Y-7.4783
X3.4683Y-1.2026
X3.4683Y-2.7577
X3.4683Y-4.3129
X3.4683Y-5.868
X3.4683Y-7.4231
X3.4693Y-0.4098
X3.4693Y-1.5393
X3.4693Y-1.9649
X3.4693Y-3.0944
X3.4693Y-3.52
X3.4693Y-4.6495
X3.4693Y-5.0751
X3.4693Y-6.2047
X3.4693Y-6.6303
X3.4693Y-7.7598
X3.4764Y-1.0905
X3.4764Y-2.6456
X3.4764Y-4.2007
X3.4764Y-5.7558
X3.4764Y-7.311
X3.4768Y-1.0688
X3.4768Y-2.624
X3.4768Y-4.1791
X3.4768Y-5.7342
X3.4768Y-7.2893
X3.4817Y-0.8709
X3.4817Y-2.426
X3.4817Y-3.9811
X3.4817Y-5.5363
X3.4817Y-7.0914
X3.4827Y-0.807
X3.4827Y-2.3621
X3.4827Y-3.9173
X3.4827Y-5.4724
X3.4827Y-7.0275
X3.4886Y-0.4299
X3.4886Y-1.985
X3.4886Y-3.5401
X3.4886Y-5.0952
X3.4886Y-6.6503
X3.4922Y-0.8992
X3.4922Y-2.4543
X3.4922Y-4.0094
X3.4922Y-5.5645
X3.4922Y-7.1196
X3.4945Y-0.7873
X3.4945Y-2.3425
X3.4945Y-3.8976
X3.4945Y-5.4527
X3.4945Y-7.0078
X3.4969Y-1.4183
X3.4969Y-2.9734
X3.4969Y-4.5285
X3.4969Y-6.0836
X3.4969Y-7.6387
X3.4989Y-1.5393
X3.4989Y-3.0944
X3.4989Y-4.6495
X3.4989Y-6.2047
X3.4989Y-7.7598
X3.5024Y-1.3192
X3.5024Y-2.8744
X3.5024Y-4.4295
X3.5024Y-5.9846
X3.5024Y-7.5397
X3.5082Y-0.546
X3.5082Y-0.5755
X3.5082Y-2.1011
X3.5082Y-2.1306
X3.5082Y-3.6562
X3.5082Y-3.6857
X3.5082Y-5.2113
X3.5082Y-5.2409
X3.5082Y-6.7664
X3.5082Y-6.796
X3.5099Y-0.4555
X3.5099Y-2.0106
X3.5099Y-3.5657
X3.5099Y-5.1208
X3.5099Y-6.6759
X3.5142Y-0.8094
X3.5142Y-2.3645
X3.5142Y-3.9196
X3.5142Y-5.4747
X3.5142Y-7.0299
X3.5177Y-0.8992
X3.5177Y-2.4543
X3.5177Y-4.0094
X3.5177Y-5.5645
X3.5177Y-7.1196
X3.5284Y-1.5393
X3.5284Y-3.0944
X3.5284Y-4.6495
X3.5284Y-6.2047
X3.5284Y-7.7598
X3.5288Y-0.4728
X3.5288Y-0.7295
X3.5288Y-2.0279
X3.5288Y-2.2846
X3.5288Y-3.583
X3.5288Y-3.8397
X3.5288Y-5.1381
X3.5288Y-5.3948
X3.5288Y-6.6932
X3.5288Y-6.9499
X3.5378Y-0.546
X3.5378Y-0.5755
X3.5378Y-2.1011
X3.5378Y-2.1306
X3.5378Y-3.6562
X3.5378Y-3.6857
X3.5378Y-5.2113
X3.5378Y-5.2409
X3.5378Y-6.7664
X3.5378Y-6.796
X3.5426Y-1.3232
X3.5426Y-2.8783
X3.5426Y-4.4334
X3.5426Y-5.9885
X3.5426Y-7.5436
X3.543Y-0.4887
X3.543Y-2.0439
X3.543Y-3.599
X3.543Y-5.1541
X3.543Y-6.7092
X3.5453Y-0.9011
X3.5453Y-2.4562
X3.5453Y-4.0114
X3.5453Y-5.5665
X3.5453Y-7.1216
X3.5583Y-0.7295
X3.5583Y-2.2846
X3.5583Y-3.8397
X3.5583Y-5.3948
X3.5583Y-6.9499
X3.5603Y-0.5035
X3.5603Y-2.0586
X3.5603Y-3.6137
X3.5603Y-5.1688
X3.5603Y-6.724
X3.5654Y-1.2641
X3.5654Y-2.8192
X3.5654Y-4.3744
X3.5654Y-5.9295
X3.5654Y-7.4846
X3.5688Y-1.5382
X3.5688Y-3.0933
X3.5688Y-4.6485
X3.5688Y-6.2036
X3.5688Y-7.7587
X3.5717Y-1.4326
X3.5717Y-2.9877
X3.5717Y-4.5429
X3.5717Y-6.098
X3.5717Y-7.6531
X3.5764Y-0.9027
X3.5764Y-2.4578
X3.5764Y-4.0129
X3.5764Y-5.5681
X3.5764Y-7.1232
X3.5803Y-0.5224
X3.5803Y-2.0775
X3.5803Y-3.6326
X3.5803Y-5.1877
X3.5803Y-6.7429
X3.5851Y-1.3192
X3.5851Y-2.8744
X3.5851Y-4.4295
X3.5851Y-5.9846
X3.5851Y-7.5397
X3.5866Y-0.7283
X3.5866Y-2.2834
X3.5866Y-3.8385
X3.5866Y-5.3936
X3.5866Y-6.9488
X3.5994Y-0.635
X3.5994Y-2.1901
X3.5994Y-3.7453
X3.5994Y-5.3004
X3.5994Y-6.8555
X3.5996Y-0.5444
X3.5996Y-2.0995
X3.5996Y-3.6547
X3.5996Y-5.2098
X3.5996Y-6.7649
X3.6052Y-0.811
X3.6052Y-2.3661
X3.6052Y-3.9212
X3.6052Y-5.4763
X3.6052Y-7.0314
X3.6063Y-0.9031
X3.6063Y-2.4582
X3.6063Y-4.0133
X3.6063Y-5.5684
X3.6063Y-7.1236
X3.6197Y-0.5684
X3.6197Y-2.1236
X3.6197Y-3.6787
X3.6197Y-5.2338
X3.6197Y-6.7889
X3.6217Y-0.6877
X3.6217Y-2.2429
X3.6217Y-3.798
X3.6217Y-5.3531
X3.6217Y-6.9082
X3.6244Y-1.2641
X3.6244Y-2.8192
X3.6244Y-4.3744
X3.6244Y-5.9295
X3.6244Y-7.4846
X3.6276Y-0.7216
X3.6276Y-2.2767
X3.6276Y-3.8318
X3.6276Y-5.3869
X3.6276Y-6.9421
X3.6296Y-0.6425
X3.6296Y-2.1976
X3.6296Y-3.7527
X3.6296Y-5.3078
X3.6296Y-6.8629
X3.6398Y-0.5895
X3.6398Y-2.1446
X3.6398Y-3.6998
X3.6398Y-5.2549
X3.6398Y-6.81
X3.6402Y-0.6255
X3.6402Y-2.1807
X3.6402Y-3.7358
X3.6402Y-5.2909
X3.6402Y-6.846
X3.6422Y-0.9047
X3.6422Y-2.4598
X3.6422Y-4.0149
X3.6422Y-5.57
X3.6422Y-7.1251
X3.6441Y-1.3192
X3.6441Y-2.8744
X3.6441Y-4.4295
X3.6441Y-5.9846
X3.6441Y-7.5397
X3.6561Y-0.8022
X3.6561Y-2.3573
X3.6561Y-3.9125
X3.6561Y-5.4676
X3.6561Y-7.0227
X3.6611Y-0.6159
X3.6611Y-2.171
X3.6611Y-3.7262
X3.6611Y-5.2813
X3.6611Y-6.8364
X3.663Y-0.6527
X3.663Y-2.2078
X3.663Y-3.7629
X3.663Y-5.3181
X3.663Y-6.8732
X3.6648Y-1.5406
X3.6648Y-3.0957
X3.6648Y-4.6508
X3.6648Y-6.2059
X3.6648Y-7.7611
X3.6677Y-0.9369
X3.6677Y-2.4921
X3.6677Y-4.0472
X3.6677Y-5.6023
X3.6677Y-7.1574
X3.6802Y-0.8036
X3.6802Y-2.3587
X3.6802Y-3.9138
X3.6802Y-5.4689
X3.6802Y-7.024
X3.6812Y-0.8809
X3.6812Y-2.4361
X3.6812Y-3.9912
X3.6812Y-5.5463
X3.6812Y-7.1014
X3.6823Y-0.6401
X3.6823Y-2.1952
X3.6823Y-3.7503
X3.6823Y-5.3055
X3.6823Y-6.8606
X3.6845Y-0.6799
X3.6845Y-2.235
X3.6845Y-3.7901
X3.6845Y-5.3453
X3.6845Y-6.9004
X3.6953Y-1.3184
X3.6953Y-2.8736
X3.6953Y-4.4287
X3.6953Y-5.9838
X3.6953Y-7.5389
X3.6966Y-1.541
X3.6966Y-3.0961
X3.6966Y-4.6512
X3.6966Y-6.2063
X3.6966Y-7.7615
X3.7Y-0.6614
X3.7Y-2.2165
X3.7Y-3.7716
X3.7Y-5.3267
X3.7Y-6.8818
X3.7059Y-0.8822
X3.7059Y-2.4373
X3.7059Y-3.9925
X3.7059Y-5.5476
X3.7059Y-7.1027
X3.7079Y-0.7047
X3.7079Y-2.2598
X3.7079Y-3.8149
X3.7079Y-5.37
X3.7079Y-6.9251
X3.7111Y-1.1696
X3.7111Y-1.2011
X3.7111Y-2.7247
X3.7111Y-2.7562
X3.7111Y-4.2799
X3.7111Y-4.3114
X3.7111Y-5.835
X3.7111Y-5.8665
X3.7111Y-7.3901
X3.7111Y-7.4216
X3.7146Y-1.0889
X3.7146Y-2.644
X3.7146Y-4.1992
X3.7146Y-5.7543
X3.7146Y-7.3094
X3.715Y-0.9885
X3.715Y-1.024
X3.715Y-2.5436
X3.715Y-2.5791
X3.715Y-4.0988
X3.715Y-4.1342
X3.715Y-5.6539
X3.715Y-5.6893
X3.715Y-7.209
X3.715Y-7.2444
X3.717Y-1.2307
X3.717Y-2.7858
X3.717Y-4.3409
X3.717Y-5.896
X3.717Y-7.4511
X3.7174Y-1.2562
X3.7174Y-2.8114
X3.7174Y-4.3665
X3.7174Y-5.9216
X3.7174Y-7.4767
X3.7189Y-0.9216
X3.7189Y-2.4767
X3.7189Y-4.0318
X3.7189Y-5.5869
X3.7189Y-7.1421
X3.7201Y-1.1476
X3.7201Y-2.7027
X3.7201Y-4.2578
X3.7201Y-5.8129
X3.7201Y-7.3681
X3.7217Y-0.6869
X3.7217Y-2.2421
X3.7217Y-3.7972
X3.7217Y-5.3523
X3.7217Y-6.9074
X3.73Y-0.7964
X3.73Y-2.3515
X3.73Y-3.9066
X3.73Y-5.4618
X3.73Y-7.0169
X3.7307Y-1.1854
X3.7307Y-2.7405
X3.7307Y-4.2956
X3.7307Y-5.8507
X3.7307Y-7.4058
X3.7315Y-0.7704
X3.7315Y-2.3255
X3.7315Y-3.8807
X3.7315Y-5.4358
X3.7315Y-6.9909
X3.7319Y-0.7377
X3.7319Y-2.2929
X3.7319Y-3.848
X3.7319Y-5.4031
X3.7319Y-6.9582
X3.7347Y-0.898
X3.7347Y-1.0082
X3.7347Y-2.4531
X3.7347Y-2.5633
X3.7347Y-4.0082
X3.7347Y-4.1184
X3.7347Y-5.5633
X3.7347Y-5.6736
X3.7347Y-7.1184
X3.7347Y-7.2287
X3.7426Y-0.711
X3.7426Y-2.2661
X3.7426Y-3.8212
X3.7426Y-5.3763
X3.7426Y-6.9314
X3.7465Y-1.3192
X3.7465Y-2.8744
X3.7465Y-4.4295
X3.7465Y-5.9846
X3.7465Y-7.5397
X3.7473Y-1.1448
X3.7473Y-2.6999
X3.7473Y-4.2551
X3.7473Y-5.8102
X3.7473Y-7.3653
X3.7492Y-1.0905
X3.7492Y-2.6456
X3.7492Y-4.2007
X3.7492Y-5.7558
X3.7492Y-7.311
X3.7544Y-1.2562
X3.7544Y-2.8114
X3.7544Y-4.3665
X3.7544Y-5.9216
X3.7544Y-7.4767
X3.7563Y-0.9196
X3.7563Y-0.9492
X3.7563Y-2.4747
X3.7563Y-2.5043
X3.7563Y-4.0299
X3.7563Y-4.0594
X3.7563Y-5.585
X3.7563Y-5.6145
X3.7563Y-7.1401
X3.7563Y-7.1696
X3.7579Y-0.7964
X3.7579Y-2.3515
X3.7579Y-3.9066
X3.7579Y-5.4618
X3.7579Y-7.0169
X3.7622Y-0.7354
X3.7622Y-2.2905
X3.7622Y-3.8456
X3.7622Y-5.4007
X3.7622Y-6.9558
X3.765Y-0.9786
X3.765Y-2.5337
X3.765Y-4.0889
X3.765Y-5.644
X3.765Y-7.1991
X3.774Y-1.2129
X3.774Y-2.7681
X3.774Y-4.3232
X3.774Y-5.8783
X3.774Y-7.4334
X3.7827Y-0.7594
X3.7827Y-2.3145
X3.7827Y-3.8696
X3.7827Y-5.4247
X3.7827Y-6.9799
X3.7831Y-0.796
X3.7831Y-2.3511
X3.7831Y-3.9062
X3.7831Y-5.4614
X3.7831Y-7.0165
X3.7859Y-0.9196
X3.7859Y-0.9492
X3.7859Y-2.4747
X3.7859Y-2.5043
X3.7859Y-4.0299
X3.7859Y-4.0594
X3.7859Y-5.585
X3.7859Y-5.6145
X3.7859Y-7.1401
X3.7859Y-7.1696
X3.7898Y-1.0869
X3.7898Y-1.2562
X3.7898Y-2.6421
X3.7898Y-2.8114
X3.7898Y-4.1972
X3.7898Y-4.3665
X3.7898Y-5.7523
X3.7898Y-5.9216
X3.7898Y-7.3074
X3.7898Y-7.4767
X3.7937Y-1.3192
X3.7937Y-2.8744
X3.7937Y-4.4295
X3.7937Y-5.9846
X3.7937Y-7.5397
X3.7977Y-0.8425
X3.7977Y-2.3976
X3.7977Y-3.9527
X3.7977Y-5.5078
X3.7977Y-7.0629
X3.7979Y-1.5372
X3.7979Y-3.0923
X3.7979Y-4.6474
X3.7979Y-6.2025
X3.7979Y-7.7577
X3.8Y-0.7807
X3.8Y-2.3358
X3.8Y-3.8909
X3.8Y-5.446
X3.8Y-7.0011
X3.8048Y-0.8196
X3.8048Y-2.3747
X3.8048Y-3.9299
X3.8048Y-5.485
X3.8048Y-7.0401
X3.8055Y-0.8901
X3.8055Y-2.4452
X3.8055Y-4.0003
X3.8055Y-5.5555
X3.8055Y-7.1106
X3.8063Y-1.0547
X3.8063Y-2.6098
X3.8063Y-4.1649
X3.8063Y-5.72
X3.8063Y-7.2751
X3.8083Y-1.4247
X3.8083Y-2.9799
X3.8083Y-4.535
X3.8083Y-6.0901
X3.8083Y-7.6452
X3.8095Y-0.9807
X3.8095Y-2.5358
X3.8095Y-4.0909
X3.8095Y-5.646
X3.8095Y-7.2011
X3.8189Y-0.8031
X3.8189Y-2.3582
X3.8189Y-3.9133
X3.8189Y-5.4684
X3.8189Y-7.0236
X3.8213Y-0.8425
X3.8213Y-2.3976
X3.8213Y-3.9527
X3.8213Y-5.5078
X3.8213Y-7.0629
X3.8221Y-1.2149
X3.8221Y-2.77
X3.8221Y-4.3251
X3.8221Y-5.8803
X3.8221Y-7.4354
X3.8272Y-0.9196
X3.8272Y-0.9492
X3.8272Y-2.4747
X3.8272Y-2.5043
X3.8272Y-4.0299
X3.8272Y-4.0594
X3.8272Y-5.585
X3.8272Y-5.6145
X3.8272Y-7.1401
X3.8272Y-7.1696
X3.8275Y-1.5372
X3.8275Y-3.0923
X3.8275Y-4.6474
X3.8275Y-6.2025
X3.8275Y-7.7577
X3.83Y-1.1614
X3.83Y-2.7165
X3.83Y-4.2716
X3.83Y-5.8267
X3.83Y-7.3818
X3.8331Y-1.0535
X3.8331Y-2.6086
X3.8331Y-4.1637
X3.8331Y-5.7188
X3.8331Y-7.274
X3.8386Y-0.8267
X3.8386Y-2.3818
X3.8386Y-3.9369
X3.8386Y-5.4921
X3.8386Y-7.0472
X3.841Y-1.3035
X3.841Y-2.8586
X3.841Y-4.4137
X3.841Y-5.9688
X3.841Y-7.524
X3.8422Y-1.2535
X3.8422Y-2.8086
X3.8422Y-4.3637
X3.8422Y-5.9188
X3.8422Y-7.474
X3.8449Y-0.8901
X3.8449Y-2.4452
X3.8449Y-4.0003
X3.8449Y-5.5555
X3.8449Y-7.1106
X3.8528Y-0.9807
X3.8528Y-2.5358
X3.8528Y-4.0909
X3.8528Y-5.646
X3.8528Y-7.2011
X3.8567Y-0.9196
X3.8567Y-0.9492
X3.8567Y-2.4747
X3.8567Y-2.5043
X3.8567Y-4.0299
X3.8567Y-4.0594
X3.8567Y-5.585
X3.8567Y-5.6145
X3.8567Y-7.1401
X3.8567Y-7.1696
X3.857Y-1.5372
X3.857Y-3.0923
X3.857Y-4.6474
X3.857Y-6.2025
X3.857Y-7.7577
X3.8607Y-1.2799
X3.8607Y-2.835
X3.8607Y-4.3901
X3.8607Y-5.9452
X3.8607Y-7.5003
X3.8683Y-1.1362
X3.8683Y-2.6913
X3.8683Y-4.2464
X3.8683Y-5.8015
X3.8683Y-7.3567
X3.8851Y-1.0582
X3.8851Y-2.6133
X3.8851Y-4.1684
X3.8851Y-5.7236
X3.8851Y-7.2787
X3.8865Y-1.5372
X3.8865Y-3.0923
X3.8865Y-4.6474
X3.8865Y-6.2025
X3.8865Y-7.7577
X3.8902Y-0.9511
X3.8902Y-0.9807
X3.8902Y-2.5062
X3.8902Y-2.5358
X3.8902Y-4.0614
X3.8902Y-4.0909
X3.8902Y-5.6165
X3.8902Y-5.646
X3.8902Y-7.1716
X3.8902Y-7.2011
X3.8922Y-1.2956
X3.8922Y-2.8507
X3.8922Y-4.4058
X3.8922Y-5.961
X3.8922Y-7.5161
X3.9126Y-1.374
X3.9126Y-2.9291
X3.9126Y-4.4842
X3.9126Y-6.0393
X3.9126Y-7.5944
X3.916Y-1.5372
X3.916Y-3.0923
X3.916Y-4.6474
X3.916Y-6.2025
X3.916Y-7.7577
X3.9197Y-0.9511
X3.9197Y-0.9807
X3.9197Y-2.5062
X3.9197Y-2.5358
X3.9197Y-4.0614
X3.9197Y-4.0909
X3.9197Y-5.6165
X3.9197Y-5.646
X3.9197Y-7.1716
X3.9197Y-7.2011
X3.9264Y-1.0574
X3.9264Y-2.6125
X3.9264Y-4.1677
X3.9264Y-5.7228
X3.9264Y-7.2779
X3.9276Y-1.0909
X3.9276Y-2.646
X3.9276Y-4.2011
X3.9276Y-5.7562
X3.9276Y-7.3114
X3.9315Y-1.2326
X3.9315Y-2.7877
X3.9315Y-4.3429
X3.9315Y-5.898
X3.9315Y-7.4531
X3.9374Y-1.2759
X3.9374Y-1.2988
X3.9374Y-2.831
X3.9374Y-2.8539
X3.9374Y-4.3862
X3.9374Y-4.409
X3.9374Y-5.9413
X3.9374Y-5.9641
X3.9374Y-7.4964
X3.9374Y-7.5192
X3.9456Y-1.5372
X3.9456Y-3.0923
X3.9456Y-4.6474
X3.9456Y-6.2025
X3.9456Y-7.7577
X3.9591Y-1.2326
X3.9591Y-2.7877
X3.9591Y-4.3429
X3.9591Y-5.898
X3.9591Y-7.4531
X3.9607Y-1.057
X3.9607Y-2.6121
X3.9607Y-4.1673
X3.9607Y-5.7224
X3.9607Y-7.2775
X3.9611Y-1.3944
X3.9611Y-2.9495
X3.9611Y-4.5047
X3.9611Y-6.0598
X3.9611Y-7.6149
X3.9751Y-1.5372
X3.9751Y-3.0923
X3.9751Y-4.6474
X3.9751Y-6.2025
X3.9751Y-7.7577
X3.9792Y-1.2751
X3.9792Y-2.8303
X3.9792Y-4.3854
X3.9792Y-5.9405
X3.9792Y-7.4956
X3.9859Y-1.034
X3.9859Y-2.5891
X3.9859Y-4.1442
X3.9859Y-5.6993
X3.9859Y-7.2544
X4.0046Y-1.5372
X4.0046Y-3.0923
X4.0046Y-4.6474
X4.0046Y-6.2025
X4.0046Y-7.7577
X4.0099Y-1.2917
X4.0099Y-2.8468
X4.0099Y-4.4019
X4.0099Y-5.957
X4.0099Y-7.5121
X4.0103Y-1.3153
X4.0103Y-2.8704
X4.0103Y-4.4255
X4.0103Y-5.9807
X4.0103Y-7.5358
X4.0209Y-1.1366
X4.0209Y-2.6917
X4.0209Y-4.2468
X4.0209Y-5.8019
X4.0209Y-7.357
X4.026Y-1.0649
X4.026Y-2.62
X4.026Y-4.1751
X4.026Y-5.7303
X4.026Y-7.2854
X4.0311Y-1.3279
X4.0311Y-2.883
X4.0311Y-4.4381
X4.0311Y-5.9932
X4.0311Y-7.5484
X4.0341Y-1.5372
X4.0341Y-3.0923
X4.0341Y-4.6474
X4.0341Y-6.2025
X4.0341Y-7.7577
X4.0489Y-1.1988
X4.0489Y-2.7539
X4.0489Y-4.309
X4.0489Y-5.8641
X4.0489Y-7.4192
X4.0516Y-1.3621
X4.0516Y-1.3917
X4.0516Y-2.9173
X4.0516Y-2.9468
X4.0516Y-4.4724
X4.0516Y-4.5019
X4.0516Y-6.0275
X4.0516Y-6.057
X4.0516Y-7.5826
X4.0516Y-7.6121
X4.0563Y-0.9964
X4.0563Y-2.5515
X4.0563Y-4.1066
X4.0563Y-5.6618
X4.0563Y-7.2169
X4.0572Y-1.174
X4.0572Y-2.7291
X4.0572Y-4.2843
X4.0572Y-5.8394
X4.0572Y-7.3945
X4.0583Y-1.3291
X4.0583Y-2.8842
X4.0583Y-4.4393
X4.0583Y-5.9944
X4.0583Y-7.5495
X4.0595Y-1.0413
X4.0595Y-2.5964
X4.0595Y-4.1515
X4.0595Y-5.7066
X4.0595Y-7.2618
X4.0611Y-1.1208
X4.0611Y-2.6759
X4.0611Y-4.231
X4.0611Y-5.7862
X4.0611Y-7.3413
X4.0637Y-1.5372
X4.0637Y-3.0923
X4.0637Y-4.6474
X4.0637Y-6.2025
X4.0637Y-7.7577
X4.0811Y-1.3621
X4.0811Y-1.3917
X4.0811Y-2.9173
X4.0811Y-2.9468
X4.0811Y-4.4724
X4.0811Y-4.5019
X4.0811Y-6.0275
X4.0811Y-6.057
X4.0811Y-7.5826
X4.0811Y-7.6121
X4.0932Y-1.5372
X4.0932Y-3.0923
X4.0932Y-4.6474
X4.0932Y-6.2025
X4.0932Y-7.7577
X4.0944Y-1.3294
X4.0944Y-2.8845
X4.0944Y-4.4396
X4.0944Y-5.9947
X4.0944Y-7.5498
X4.1221Y-1.1523
X4.1221Y-2.7074
X4.1221Y-4.2625
X4.1221Y-5.8177
X4.1221Y-7.3728
X4.1227Y-1.5372
X4.1227Y-3.0923
X4.1227Y-4.6474
X4.1227Y-6.2025
X4.1227Y-7.7577
X4.1233Y-1.0318
X4.1233Y-2.5869
X4.1233Y-4.1421
X4.1233Y-5.6972
X4.1233Y-7.2523
X4.1236Y-1.0886
X4.1236Y-2.6437
X4.1236Y-4.1988
X4.1236Y-5.7539
X4.1236Y-7.309
X4.1244Y-0.9696
X4.1244Y-2.5247
X4.1244Y-4.0799
X4.1244Y-5.635
X4.1244Y-7.1901
X4.1248Y-1.1893
X4.1248Y-2.7444
X4.1248Y-4.2995
X4.1248Y-5.8547
X4.1248Y-7.4098
X4.1284Y-1.2511
X4.1284Y-2.8062
X4.1284Y-4.3614
X4.1284Y-5.9165
X4.1284Y-7.4716
X4.1323Y-1.3299
X4.1323Y-2.885
X4.1323Y-4.4401
X4.1323Y-5.9952
X4.1323Y-7.5503
X4.1523Y-1.5372
X4.1523Y-3.0923
X4.1523Y-4.6474
X4.1523Y-6.2025
X4.1523Y-7.7577
X4.1544Y-0.9696
X4.1544Y-2.5247
X4.1544Y-4.0799
X4.1544Y-5.635
X4.1544Y-7.1901
X4.1575Y-1.2519
X4.1575Y-1.2803
X4.1575Y-2.807
X4.1575Y-2.8354
X4.1575Y-4.3621
X4.1575Y-4.3905
X4.1575Y-5.9173
X4.1575Y-5.9456
X4.1575Y-7.4724
X4.1575Y-7.5007
X4.1611Y-0.9366
X4.1611Y-2.4917
X4.1611Y-4.0468
X4.1611Y-5.6019
X4.1611Y-7.157
X4.1662Y-1.2086
X4.1662Y-2.7637
X4.1662Y-4.3188
X4.1662Y-5.874
X4.1662Y-7.4291
X4.1694Y-1.4343
X4.1694Y-1.4639
X4.1694Y-2.9895
X4.1694Y-3.019
X4.1694Y-4.5446
X4.1694Y-4.5741
X4.1694Y-6.0997
X4.1694Y-6.1292
X4.1694Y-7.6548
X4.1694Y-7.6843
X4.1721Y-1.3299
X4.1721Y-2.885
X4.1721Y-4.4401
X4.1721Y-5.9952
X4.1721Y-7.5503
X4.1788Y-1.1724
X4.1788Y-2.7275
X4.1788Y-4.2826
X4.1788Y-5.8377
X4.1788Y-7.3929
X4.1807Y-1.0137
X4.1807Y-2.5688
X4.1807Y-4.124
X4.1807Y-5.6791
X4.1807Y-7.2342
X4.1822Y-1.1032
X4.1822Y-2.6583
X4.1822Y-4.2134
X4.1822Y-5.7685
X4.1822Y-7.3237
X4.1851Y-1.1377
X4.1851Y-2.6929
X4.1851Y-4.248
X4.1851Y-5.8031
X4.1851Y-7.3582
X4.1855Y-1.3047
X4.1855Y-2.8599
X4.1855Y-4.415
X4.1855Y-5.9701
X4.1855Y-7.5252
X4.1866Y-0.9708
X4.1866Y-2.5259
X4.1866Y-4.081
X4.1866Y-5.6362
X4.1866Y-7.1913
X4.187Y-1.5346
X4.187Y-3.0897
X4.187Y-4.6448
X4.187Y-6.1999
X4.187Y-7.7551
X4.1878Y-1.0582
X4.1878Y-2.6133
X4.1878Y-4.1684
X4.1878Y-5.7236
X4.1878Y-7.2787
X4.1931Y-1.2496
X4.1931Y-2.8047
X4.1931Y-4.3598
X4.1931Y-5.9149
X4.1931Y-7.47
X4.1989Y-1.4343
X4.1989Y-1.4639
X4.1989Y-2.9895
X4.1989Y-3.019
X4.1989Y-4.5446
X4.1989Y-4.5741
X4.1989Y-6.0997
X4.1989Y-6.1292
X4.1989Y-7.6548
X4.1989Y-7.6843
X4.2162Y-1.3299
X4.2162Y-2.885
X4.2162Y-4.4401
X4.2162Y-5.9952
X4.2162Y-7.5503
X4.2181Y-0.9716
X4.2181Y-2.5267
X4.2181Y-4.0818
X4.2181Y-5.6369
X4.2181Y-7.1921
X4.2208Y-1.2252
X4.2208Y-2.7803
X4.2208Y-4.3355
X4.2208Y-5.8906
X4.2208Y-7.4457
X4.2209Y-1.5208
X4.2209Y-3.0759
X4.2209Y-4.631
X4.2209Y-6.1862
X4.2209Y-7.7413
X4.2217Y-1.0393
X4.2217Y-2.5944
X4.2217Y-4.1495
X4.2217Y-5.7047
X4.2217Y-7.2598
X4.2288Y-1.0956
X4.2288Y-2.6507
X4.2288Y-4.2058
X4.2288Y-5.761
X4.2288Y-7.3161
X4.2307Y-1.1547
X4.2307Y-2.7098
X4.2307Y-4.2649
X4.2307Y-5.82
X4.2307Y-7.3751
X4.2343Y-1.1905
X4.2343Y-2.7456
X4.2343Y-4.3007
X4.2343Y-5.8558
X4.2343Y-7.411
X4.2367Y-1.3577
X4.2367Y-2.9128
X4.2367Y-4.4679
X4.2367Y-6.0231
X4.2367Y-7.5782
X4.2481Y-1.4992
X4.2481Y-3.0543
X4.2481Y-4.6094
X4.2481Y-6.1645
X4.2481Y-7.7196
X4.2496Y-0.9716
X4.2496Y-2.5267
X4.2496Y-4.0818
X4.2496Y-5.6369
X4.2496Y-7.1921
X4.263Y-1.331
X4.263Y-2.8862
X4.263Y-4.4413
X4.263Y-5.9964
X4.263Y-7.5515
X4.265Y-1.0015
X4.265Y-1.031
X4.265Y-1.0606
X4.265Y-1.0901
X4.265Y-1.1196
X4.265Y-1.1492
X4.265Y-1.1787
X4.265Y-1.2082
X4.265Y-1.2377
X4.265Y-2.5566
X4.265Y-2.5862
X4.265Y-2.6157
X4.265Y-2.6452
X4.265Y-2.6747
X4.265Y-2.7043
X4.265Y-2.7338
X4.265Y-2.7633
X4.265Y-2.7929
X4.265Y-4.1118
X4.265Y-4.1413
X4.265Y-4.1708
X4.265Y-4.2003
X4.265Y-4.2299
X4.265Y-4.2594
X4.265Y-4.2889
X4.265Y-4.3184
X4.265Y-4.348
X4.265Y-5.6669
X4.265Y-5.6964
X4.265Y-5.7259
X4.265Y-5.7555
X4.265Y-5.785
X4.265Y-5.8145
X4.265Y-5.844
X4.265Y-5.8736
X4.265Y-5.9031
X4.265Y-7.222
X4.265Y-7.2515
X4.265Y-7.281
X4.265Y-7.3106
X4.265Y-7.3401
X4.265Y-7.3696
X4.265Y-7.3992
X4.265Y-7.4287
X4.265Y-7.4582
X4.2681Y-1.4574
X4.2681Y-3.0125
X4.2681Y-4.5677
X4.2681Y-6.1228
X4.2681Y-7.6779
X4.2715Y-1.4205
X4.2715Y-2.9757
X4.2715Y-4.5308
X4.2715Y-6.0859
X4.2715Y-7.641
X4.2719Y-1.3761
X4.2719Y-2.9312
X4.2719Y-4.4863
X4.2719Y-6.0414
X4.2719Y-7.5966
T2
X3.9302Y-0.9184
X3.9302Y-2.4735
X3.9302Y-4.0287
X3.9302Y-5.5838
X3.9302Y-7.1389
T3
G00X4.121Y-0.935
M15
G01X4.0797Y-0.935
M16
G05
G00X4.121Y-1.2854
M15
G01X4.0797Y-1.2854
M16
G05
G00X4.121Y-2.4901
M15
G01X4.0797Y-2.4901
M16
G05
G00X4.121Y-2.8405
M15
G01X4.0797Y-2.8405
M16
G05
G00X4.121Y-4.0452
M15
G01X4.0797Y-4.0452
M16
G05
G00X4.121Y-4.3956
M15
G01X4.0797Y-4.3956
M16
G05
G00X4.121Y-5.6003
M15
G01X4.0797Y-5.6003
M16
G05
G00X4.121Y-5.9507
M15
G01X4.0797Y-5.9507
M16
G05
G00X4.121Y-7.1555
M15
G01X4.0797Y-7.1555
M16
G05
G00X4.121Y-7.5058
M15
G01X4.0797Y-7.5058
M16
G05
G00X4.2509Y-0.935
M15
G01X4.2017Y-0.935
M16
G05
G00X4.2509Y-1.2854
M15
G01X4.2017Y-1.2854
M16
G05
G00X4.2509Y-2.4901
M15
G01X4.2017Y-2.4901
M16
G05
G00X4.2509Y-2.8405
M15
G01X4.2017Y-2.8405
M16
G05
G00X4.2509Y-4.0452
M15
G01X4.2017Y-4.0452
M16
G05
G00X4.2509Y-4.3956
M15
G01X4.2017Y-4.3956
M16
G05
G00X4.2509Y-5.6003
M15
G01X4.2017Y-5.6003
M16
G05
G00X4.2509Y-5.9507
M15
G01X4.2017Y-5.9507
M16
G05
G00X4.2509Y-7.1555
M15
G01X4.2017Y-7.1555
M16
G05
G00X4.2509Y-7.5058
M15
G01X4.2017Y-7.5058
M16
G05
M30
