%TF.GenerationSoftware,KiCad,Pcbnew,8.0.9*%
%TF.CreationDate,2025-03-25T11:17:07+05:30*%
%TF.ProjectId,Panel,50616e65-6c2e-46b6-9963-61645f706362,Rev 1.0*%
%TF.SameCoordinates,PX4eeab3dPY1312d00*%
%TF.FileFunction,Profile,NP*%
%FSLAX46Y46*%
G04 Gerber Fmt 4.6, Leading zero omitted, Abs format (unit mm)*
G04 Created by KiCad (PCBNEW 8.0.9) date 2025-03-25 11:17:07*
%MOMM*%
%LPD*%
G01*
G04 APERTURE LIST*
%TA.AperFunction,Profile*%
%ADD10C,0.100000*%
%TD*%
G04 APERTURE END LIST*
D10*
X13111085Y-11742290D02*
X13158918Y-11797636D01*
X124457140Y-10737272D02*
X124439974Y-10645469D01*
X122496758Y-12901397D02*
X122499544Y-12963006D01*
X7075788Y-88329934D02*
X7052819Y-88439509D01*
X11786965Y-34084586D02*
X11711678Y-34071914D01*
X120999913Y-125593343D02*
X120927465Y-125575788D01*
X122154994Y-53457099D02*
X122114148Y-53504362D01*
X11165151Y-53496378D02*
X11105290Y-53454048D01*
X122491441Y-171160081D02*
X122483591Y-171221350D01*
X11711678Y-129777685D02*
X11786965Y-129765013D01*
X116733538Y-51695879D02*
X116774430Y-51634951D01*
X122183971Y-7700391D02*
X122096312Y-7629705D01*
X12708896Y-50927762D02*
X12772877Y-50964192D01*
X12575297Y-172135707D02*
X12505877Y-172162549D01*
X122483591Y-170778649D02*
X122491441Y-170839918D01*
X71919748Y-133166411D02*
X71891266Y-133154364D01*
X48810815Y-5000000D02*
X76210815Y-5000000D01*
X123847119Y-167374200D02*
X123787489Y-167301656D01*
X12772877Y-90464192D02*
X12834848Y-90503621D01*
X12772877Y-112885407D02*
X12708896Y-112921837D01*
X8240105Y-117929823D02*
X8330303Y-117992782D01*
X12772877Y-31313769D02*
X12834848Y-31353195D01*
X107416750Y-39144369D02*
X107530245Y-39080355D01*
X10527685Y-13038321D02*
X10515013Y-12963034D01*
X121717735Y-90682860D02*
X121781808Y-90719853D01*
X116600453Y-12459204D02*
X116628954Y-12390629D01*
X13385707Y-191174897D02*
X13355570Y-191242603D01*
X8517736Y-197108828D02*
X8614803Y-197161749D01*
X50562298Y-46513259D02*
X50481679Y-46503340D01*
X108982908Y-194819841D02*
X108992818Y-194707516D01*
X73715646Y-86533210D02*
X73683409Y-86600209D01*
X121139300Y-132993534D02*
X121063593Y-132998656D01*
X74376639Y-7025268D02*
X74298799Y-7046450D01*
X124318791Y-89215808D02*
X124285635Y-89129000D01*
X123787489Y-167301656D02*
X123738058Y-167244864D01*
X74155282Y-46604344D02*
X74084571Y-46643080D01*
X11863473Y-11256130D02*
X11941102Y-11251135D01*
X106523741Y-157953934D02*
X106651876Y-157928320D01*
X9293647Y-7084343D02*
X9185558Y-7112676D01*
X10644429Y-150456553D02*
X10677762Y-150390659D01*
X11105290Y-90545951D02*
X11165151Y-90503621D01*
X10992290Y-112710685D02*
X10939350Y-112660250D01*
X13455951Y-130887709D02*
X13472314Y-130961678D01*
X12213034Y-149614611D02*
X12288321Y-149627282D01*
X10515013Y-91536965D02*
X10527685Y-91461678D01*
X11863473Y-172243869D02*
X11786965Y-172234986D01*
X124347164Y-56231310D02*
X124372501Y-56188586D01*
X11424702Y-129864292D02*
X11494122Y-129837450D01*
X7676443Y-166102378D02*
X7606919Y-166190838D01*
X10795951Y-51355290D02*
X10841081Y-51297636D01*
X121933487Y-93174155D02*
X121884352Y-93211586D01*
X12894709Y-132454048D02*
X12834848Y-132496378D01*
X71600000Y-9500000D02*
X53400000Y-9500000D01*
X51137585Y-165324759D02*
X51079865Y-165266675D01*
X121607088Y-51128332D02*
X121662989Y-51154467D01*
X0Y-204500000D02*
X131499463Y-204500000D01*
X12575297Y-129864292D02*
X12643003Y-129894429D01*
X121189347Y-51011973D02*
X121251367Y-51021179D01*
X109500622Y-175333629D02*
X109560842Y-175301605D01*
X12643003Y-70744012D02*
X12708896Y-70777342D01*
X123686834Y-175182389D02*
X123765511Y-175164099D01*
X124499463Y-41500000D02*
X123340815Y-41500000D01*
X12894709Y-13954048D02*
X12834848Y-13996378D01*
X121595776Y-132876620D02*
X121527022Y-132904388D01*
X10587450Y-131755877D02*
X10564003Y-131684842D01*
X7507243Y-196169740D02*
X7570204Y-196259938D01*
X13412549Y-51744122D02*
X13435996Y-51815157D01*
X10000000Y-79000000D02*
X14470815Y-79000000D01*
X116695596Y-12258868D02*
X116733538Y-12195879D01*
X9078708Y-7144979D02*
X8955763Y-7187624D01*
X124089806Y-49228405D02*
X124041537Y-49148712D01*
X122255135Y-7761941D02*
X122183971Y-7700391D01*
X11941102Y-50751135D02*
X12000000Y-50750000D01*
X121126732Y-90505348D02*
X121189347Y-90511973D01*
X8330303Y-196992782D02*
X8422875Y-197052478D01*
X121000000Y-11500000D02*
X121063593Y-11501343D01*
X10506130Y-91613473D02*
X10515013Y-91536965D01*
X124397211Y-128964055D02*
X124376994Y-128892398D01*
X109025268Y-17976639D02*
X109039270Y-17922545D01*
X51429153Y-132868512D02*
X51417863Y-132832805D01*
X122096312Y-126129705D02*
X122021451Y-126073475D01*
X116864666Y-130519669D02*
X116913812Y-130465513D01*
X117711678Y-90527685D02*
X117786965Y-90515013D01*
X71858323Y-93637698D02*
X71806698Y-93604856D01*
X81210815Y-79000000D02*
X96580815Y-79000000D01*
X71640511Y-53897348D02*
X71619563Y-53838835D01*
X10841081Y-13702363D02*
X10795951Y-13644709D01*
X116520882Y-52249163D02*
X116535412Y-52174522D01*
X7200907Y-156081631D02*
X7243042Y-156184818D01*
X12058897Y-149600735D02*
X12136526Y-149605729D01*
X13355570Y-33242603D02*
X13322237Y-33308496D01*
X11227122Y-129964192D02*
X11291103Y-129927762D01*
X11356996Y-31244012D02*
X11424702Y-31213878D01*
X122357745Y-91362427D02*
X122383319Y-91419965D01*
X13472314Y-51961678D02*
X13484986Y-52036965D01*
X122231012Y-170142921D02*
X122266045Y-170195598D01*
X72035334Y-93695754D02*
X71979247Y-93685215D01*
X71610479Y-93302204D02*
X71605005Y-93270904D01*
X123927989Y-96103768D02*
X124004746Y-96063253D01*
X118000000Y-51000000D02*
X121000000Y-51000000D01*
X12288321Y-70627282D02*
X12362290Y-70643643D01*
X13435996Y-170315157D02*
X13455951Y-170387709D01*
X13060650Y-110538912D02*
X13111085Y-110591850D01*
X73244678Y-14678503D02*
X73199525Y-14689892D01*
X7304774Y-127182569D02*
X7257670Y-127283656D01*
X13007709Y-149988479D02*
X13060650Y-150038912D01*
X12434842Y-152535596D02*
X12362290Y-152555551D01*
X9238868Y-157902597D02*
X9349045Y-157929180D01*
X43810815Y-44500000D02*
X43810815Y-46500000D01*
X117786965Y-90515013D02*
X117863473Y-90506130D01*
X13472314Y-13038321D02*
X13455951Y-13112290D01*
X121373345Y-93452831D02*
X121288265Y-93472075D01*
X10677762Y-71390659D02*
X10714192Y-71326678D01*
X9078708Y-86144979D02*
X8955763Y-86187624D01*
X13060650Y-90689350D02*
X13111085Y-90742290D01*
X71709857Y-14512606D02*
X71687987Y-14483223D01*
X7288858Y-37786049D02*
X7338269Y-37885240D01*
X10587450Y-92255877D02*
X10564003Y-92184842D01*
X13472314Y-32887921D02*
X13455951Y-32961890D01*
X10841081Y-92702363D02*
X10795951Y-92644709D01*
X8955763Y-46687624D02*
X8834828Y-46735540D01*
X13435996Y-13184842D02*
X13412549Y-13255877D01*
X71891266Y-14654364D02*
X71858323Y-14637698D01*
X121558102Y-46796662D02*
X121490709Y-46765259D01*
X53026762Y-54183559D02*
X52996473Y-54190502D01*
X122027133Y-172093191D02*
X121981104Y-172134676D01*
X10677762Y-12041103D02*
X10714192Y-11977122D01*
X53350558Y-14416681D02*
X53334740Y-14446881D01*
X108968825Y-155431415D02*
X108982908Y-155319841D01*
X108919989Y-37188224D02*
X108947180Y-37060490D01*
X117061837Y-53670458D02*
X116992290Y-53611085D01*
X10515013Y-190386543D02*
X10527685Y-190311250D01*
X10888914Y-132257709D02*
X10841081Y-132202363D01*
X126499463Y-120500000D02*
X124499463Y-120500000D01*
X12708896Y-14072237D02*
X12643003Y-14105570D01*
X106651876Y-39428320D02*
X106778544Y-39397211D01*
X120836224Y-7056365D02*
X120762727Y-7042859D01*
X10714192Y-90977122D02*
X10753621Y-90915151D01*
X124491458Y-169016315D02*
X124482908Y-168922758D01*
X8330303Y-157492782D02*
X8422875Y-157552478D01*
X73683409Y-165600209D02*
X73654212Y-165675250D01*
X109391965Y-17406099D02*
X109447783Y-17366310D01*
X11227122Y-31313769D02*
X11291103Y-31277342D01*
X118000000Y-93500000D02*
X117902153Y-93496859D01*
X11165151Y-31353195D02*
X11227122Y-31313769D01*
X7447545Y-156577169D02*
X7507243Y-156669740D01*
X7030026Y-76426090D02*
X7048335Y-76539265D01*
X124285635Y-128629000D02*
X124249811Y-128543268D01*
X106132270Y-39497085D02*
X106263765Y-39488388D01*
X13355570Y-72742603D02*
X13322237Y-72808496D01*
X116575296Y-131970555D02*
X116553583Y-131898750D01*
X121373345Y-172452831D02*
X121288265Y-172472075D01*
X9624271Y-86023614D02*
X9513113Y-86039767D01*
X71687987Y-14483223D02*
X71671405Y-14457510D01*
X13455951Y-151461890D02*
X13435996Y-151534442D01*
X7102788Y-48721455D02*
X7075788Y-48829934D01*
X108887323Y-116314441D02*
X108919989Y-116188224D01*
X121000000Y-169500000D02*
X121063593Y-169501343D01*
X12772877Y-132535807D02*
X12708896Y-132572237D01*
X10500000Y-151099600D02*
X10501135Y-151040695D01*
X7128006Y-195369721D02*
X7162533Y-195476571D01*
X122071505Y-132549740D02*
X122027133Y-132593191D01*
X121933487Y-132674155D02*
X121884352Y-132711586D01*
X124372501Y-16688586D02*
X124398394Y-16639157D01*
X109130547Y-17706009D02*
X109166310Y-17647783D01*
X11565157Y-50814003D02*
X11637709Y-50794048D01*
X7030026Y-36926090D02*
X7048335Y-37039265D01*
X12708896Y-189277342D02*
X12772877Y-189313769D01*
X51498660Y-53998122D02*
X51477854Y-53967925D01*
X11227122Y-33885407D02*
X11165151Y-33845978D01*
X13455951Y-131612290D02*
X13435996Y-131684842D01*
X71806698Y-14604856D02*
X71782559Y-14586195D01*
X108982908Y-36819841D02*
X108992818Y-36707516D01*
X117730380Y-132975832D02*
X117637709Y-132955951D01*
X10544048Y-171112290D02*
X10527685Y-171038321D01*
X11637709Y-149643643D02*
X11711678Y-149627282D01*
X122444850Y-131903091D02*
X122426872Y-131962712D01*
X43810815Y-125500000D02*
X19470815Y-125500000D01*
X122299000Y-13750000D02*
X122266045Y-13804401D01*
X9624271Y-46523614D02*
X9513113Y-46539767D01*
X74228788Y-165071466D02*
X74155282Y-165104344D01*
X120836224Y-125556365D02*
X120762727Y-125542859D01*
X5000000Y-194338519D02*
X7000000Y-194338519D01*
X73569797Y-132871033D02*
X73551892Y-132913885D01*
X122426872Y-13462712D02*
X122406362Y-13521720D01*
X109245685Y-136043499D02*
X109292900Y-135992900D01*
X51702551Y-93659388D02*
X51669148Y-93643515D01*
X10564003Y-190164721D02*
X10587450Y-190093682D01*
X122444850Y-52903091D02*
X122426872Y-52962712D01*
X11786965Y-172234986D02*
X11711678Y-172222314D01*
X10888914Y-110591850D02*
X10939350Y-110538912D01*
X10992290Y-92861085D02*
X10939350Y-92810650D01*
X73569797Y-14371033D02*
X73551892Y-14413885D01*
X10506130Y-111736126D02*
X10501135Y-111658497D01*
X124347164Y-135231310D02*
X124372501Y-135188586D01*
X13158918Y-33551963D02*
X13111085Y-33607309D01*
X108887323Y-76814441D02*
X108919989Y-76688224D01*
X122383319Y-12419965D02*
X122406362Y-12478279D01*
X13158918Y-152051963D02*
X13111085Y-152107309D01*
X109949630Y-17201268D02*
X110000000Y-17200000D01*
X120502434Y-125510018D02*
X120427327Y-125504812D01*
X12772877Y-73385407D02*
X12708896Y-73421837D01*
X76210815Y-86000002D02*
X74600000Y-86000000D01*
X8534286Y-7382451D02*
X8437820Y-7438851D01*
X116535412Y-52174522D02*
X116553583Y-52101250D01*
X7676443Y-47602378D02*
X7606919Y-47690838D01*
X11711678Y-172222314D02*
X11637709Y-172205951D01*
X108749811Y-195699331D02*
X108805851Y-195561639D01*
X14470815Y-81000000D02*
X7000000Y-81000000D01*
X10506130Y-72236126D02*
X10501135Y-72158497D01*
X13498864Y-72158497D02*
X13493869Y-72236126D01*
X12213034Y-34084586D02*
X12136526Y-34093469D01*
X7002142Y-88886582D02*
X7000059Y-88981063D01*
X7288858Y-77286049D02*
X7338269Y-77385240D01*
X123893080Y-48933438D02*
X123847119Y-48874200D01*
X122496758Y-52401397D02*
X122499544Y-52463006D01*
X122473210Y-13282329D02*
X122460296Y-13342936D01*
X7001011Y-115578658D02*
X7006281Y-115695703D01*
X14470815Y-163000000D02*
X14470815Y-165000000D01*
X12952363Y-11591081D02*
X13007709Y-11638914D01*
X109949630Y-135701268D02*
X110000000Y-135700000D01*
X121214230Y-93484651D02*
X121139300Y-93493534D01*
X73654212Y-165675250D02*
X73631121Y-165752488D01*
X110000000Y-56700000D02*
X118340815Y-56699889D01*
X50647511Y-165031121D02*
X50562298Y-165013259D01*
X73756154Y-7463433D02*
X73715646Y-7533210D01*
X122027133Y-169906808D02*
X122071505Y-169950259D01*
X7052819Y-167439509D02*
X7033924Y-167550069D01*
X12952363Y-130091081D02*
X13007709Y-130138914D01*
X10544048Y-13112290D02*
X10527685Y-13038321D01*
X73603871Y-7912076D02*
X73600000Y-8000000D01*
X9023467Y-157837476D02*
X9130315Y-157872001D01*
X13246378Y-13584848D02*
X13204048Y-13644709D01*
X121607088Y-90628332D02*
X121662989Y-90654467D01*
X117373757Y-14363408D02*
X117291103Y-14322237D01*
X8073428Y-7700391D02*
X7988243Y-7774537D01*
X11356996Y-73455170D02*
X11291103Y-73421837D01*
X116965513Y-169913812D02*
X117019669Y-169864666D01*
X124457212Y-95489351D02*
X124470397Y-95441489D01*
X51477854Y-14467925D02*
X51459260Y-14436183D01*
X12058897Y-169251135D02*
X12136526Y-169256130D01*
X124439974Y-50145469D02*
X124419989Y-50054375D01*
X12362290Y-11294048D02*
X12434842Y-11314003D01*
X10544048Y-91387709D02*
X10564003Y-91315157D01*
X12213034Y-172234986D02*
X12136526Y-172243869D01*
X123893080Y-167433438D02*
X123847119Y-167374200D01*
X123765511Y-96164099D02*
X123848089Y-96137447D01*
X53399990Y-132703056D02*
X53398329Y-132740739D01*
X121981104Y-14134676D02*
X121933487Y-14174155D01*
X81210815Y-81000000D02*
X81210815Y-79000000D01*
X122426872Y-170537287D02*
X122444850Y-170596908D01*
X11105290Y-70895521D02*
X11165151Y-70853195D01*
X50805461Y-165085903D02*
X50724749Y-165054212D01*
X7904708Y-38647032D02*
X7984581Y-38722206D01*
X122378700Y-86878700D02*
X122324518Y-86825866D01*
X121781808Y-14280146D02*
X121728539Y-14311193D01*
X117863473Y-11506130D02*
X117941102Y-11501135D01*
X13435996Y-111164721D02*
X13455951Y-111237276D01*
X107969479Y-157262965D02*
X108067118Y-157174133D01*
X13435996Y-150664721D02*
X13455951Y-150737276D01*
X71709857Y-93512606D02*
X71687987Y-93483223D01*
X73600000Y-172199900D02*
X73598576Y-172237614D01*
X106132270Y-157997085D02*
X106263765Y-157988388D01*
X11565157Y-110163595D02*
X11637709Y-110143643D01*
X7507243Y-156669740D02*
X7570204Y-156759938D01*
X116600453Y-92540795D02*
X116575296Y-92470555D01*
X71653573Y-93425279D02*
X71640511Y-93397348D01*
X10714192Y-31826678D02*
X10753621Y-31764707D01*
X108161065Y-196580775D02*
X108250559Y-196483642D01*
X53122368Y-172647717D02*
X53091350Y-172661825D01*
X51409229Y-172295998D02*
X51403364Y-172258202D01*
X9130315Y-157872001D02*
X9238868Y-157902597D01*
X53091350Y-133161825D02*
X53059444Y-133173787D01*
X19470815Y-165000000D02*
X19470815Y-163000000D01*
X11637709Y-70643643D02*
X11711678Y-70627282D01*
X121189347Y-130011973D02*
X121251367Y-130021179D01*
X12136526Y-31105729D02*
X12213034Y-31114611D01*
X71601046Y-172232511D02*
X71600000Y-172199900D01*
X13412549Y-171255877D02*
X13385707Y-171325297D01*
X13322237Y-71390659D02*
X13355570Y-71456553D01*
X11711678Y-70627282D02*
X11786965Y-70614611D01*
X13158918Y-171702363D02*
X13111085Y-171757709D01*
X12058897Y-50751135D02*
X12136526Y-50756130D01*
X11105290Y-33803648D02*
X11047636Y-33758518D01*
X96580815Y-158000000D02*
X96580815Y-160000000D01*
X109166310Y-17647783D02*
X109206099Y-17591965D01*
X10644429Y-31956553D02*
X10677762Y-31890659D01*
X52903156Y-133199890D02*
X51893436Y-133199857D01*
X13355570Y-52893003D02*
X13322237Y-52958896D01*
X12058897Y-53748864D02*
X12000000Y-53750000D01*
X7410193Y-126985805D02*
X7355630Y-127083249D01*
X9848893Y-125503805D02*
X9736234Y-125511611D01*
X109819286Y-96216465D02*
X109887167Y-96206385D01*
X96580815Y-44500000D02*
X96580815Y-46500028D01*
X109887167Y-175206385D02*
X109949630Y-175201268D01*
X8918409Y-39299105D02*
X9023467Y-39337476D01*
X116575296Y-171470555D02*
X116553583Y-171398750D01*
X124004746Y-56563253D02*
X124077900Y-56516096D01*
X107416750Y-78644369D02*
X107530245Y-78580355D01*
X51400671Y-132726031D02*
X51400000Y-126500000D01*
X51521566Y-172526663D02*
X51498660Y-172498122D01*
X124376994Y-10392398D02*
X124349253Y-10303628D01*
X7904708Y-196647032D02*
X7984581Y-196722206D01*
X7825866Y-86932881D02*
X7749440Y-87016357D01*
X11047636Y-90591081D02*
X11105290Y-90545951D01*
X117547252Y-169569541D02*
X117619434Y-169548704D01*
X123340815Y-160000000D02*
X123340815Y-135699823D01*
X124439974Y-129145469D02*
X124419989Y-129054375D01*
X53334740Y-93446881D02*
X53318574Y-93473389D01*
X124250179Y-95861221D02*
X124286240Y-95817907D01*
X10753621Y-130415151D02*
X10795951Y-130355290D01*
X122444850Y-52096908D02*
X122460296Y-52157063D01*
X7102788Y-127721455D02*
X7075788Y-127829934D01*
X13484986Y-12963034D02*
X13472314Y-13038321D01*
X13500000Y-52250000D02*
X13498864Y-52308897D01*
X51347782Y-165681118D02*
X51316590Y-165600209D01*
X122378700Y-165878700D02*
X122324518Y-165825866D01*
X7288858Y-195786049D02*
X7338269Y-195885240D01*
X8073428Y-165700391D02*
X7988243Y-165774537D01*
X117323817Y-130160702D02*
X117407611Y-130121521D01*
X107530245Y-118080355D02*
X107656607Y-118001109D01*
X122299000Y-51750000D02*
X122329638Y-51805745D01*
X121527022Y-172404388D02*
X121445023Y-172432495D01*
X51577873Y-133082292D02*
X51550797Y-133057720D01*
X116628954Y-53109370D02*
X116600453Y-53040795D01*
X11227122Y-50964192D02*
X11291103Y-50927762D01*
X12894709Y-33803648D02*
X12834848Y-33845978D01*
X71806698Y-133104856D02*
X71782559Y-133086195D01*
X12213034Y-31114611D02*
X12288321Y-31127282D01*
X50883163Y-46624484D02*
X50805461Y-46585903D01*
X121490709Y-125765259D02*
X121405425Y-125728375D01*
X12058897Y-14248864D02*
X12000000Y-14250000D01*
X122499544Y-131463006D02*
X122499544Y-131536993D01*
X43810815Y-160000000D02*
X19470815Y-160000000D01*
X124372501Y-174688586D02*
X124398394Y-174639157D01*
X12708896Y-132572237D02*
X12643003Y-132605570D01*
X116965513Y-51413812D02*
X117019669Y-51364666D01*
X76210815Y-199500000D02*
X48810815Y-199500000D01*
X12575297Y-50864292D02*
X12643003Y-50894429D01*
X107530245Y-157580355D02*
X107656607Y-157501109D01*
X10992290Y-70988479D02*
X11047636Y-70940649D01*
X120502434Y-46510018D02*
X120427327Y-46504812D01*
X7676443Y-126602378D02*
X7606919Y-126690838D01*
X14470815Y-160000000D02*
X7000000Y-160000000D01*
X122266045Y-51695598D02*
X122299000Y-51750000D01*
X8614803Y-39161749D02*
X8713993Y-39211158D01*
X107764051Y-196926524D02*
X107868400Y-196847119D01*
X73551892Y-172413885D02*
X73530067Y-172454932D01*
X13007709Y-110488479D02*
X13060650Y-110538912D01*
X121160973Y-46639322D02*
X121089739Y-46617786D01*
X116504513Y-171117220D02*
X116500505Y-171039327D01*
X8517736Y-39108828D02*
X8614803Y-39161749D01*
X13498864Y-131308897D02*
X13493869Y-131386526D01*
X7988243Y-7774537D02*
X7905641Y-7852096D01*
X73600000Y-87000000D02*
X73600000Y-93199900D01*
X10992290Y-132361085D02*
X10939350Y-132310650D01*
X51079865Y-86266675D02*
X51017907Y-86213759D01*
X53181297Y-172613253D02*
X53152388Y-172631511D01*
X7168698Y-48508218D02*
X7133773Y-48614180D01*
X72093436Y-133199857D02*
X72035334Y-133195754D01*
X10888914Y-191607309D02*
X10841081Y-191551963D01*
X9293647Y-86084343D02*
X9185558Y-86112676D01*
X5000000Y-44500000D02*
X7000000Y-44500000D01*
X122426872Y-131962712D02*
X122406362Y-132021720D01*
X10753621Y-191434448D02*
X10714192Y-191372477D01*
X10939350Y-130189350D02*
X10992290Y-130138914D01*
X96580815Y-199500000D02*
X81210815Y-199500000D01*
X108161065Y-78080775D02*
X108250559Y-77983642D01*
X7904708Y-117647032D02*
X7984581Y-117722206D01*
X12058897Y-73598464D02*
X12000000Y-73599600D01*
X10753621Y-112434448D02*
X10714192Y-112372477D01*
X11105290Y-169545951D02*
X11165151Y-169503621D01*
X108919989Y-155688224D02*
X108947180Y-155560490D01*
X51459260Y-53936183D02*
X51442990Y-53903009D01*
X11711678Y-152571914D02*
X11637709Y-152555551D01*
X109623043Y-96273784D02*
X109686999Y-96250258D01*
X122021451Y-86573475D02*
X121929539Y-86509247D01*
X43810815Y-46500000D02*
X19470815Y-46500000D01*
X13435996Y-33034442D02*
X13412549Y-33105477D01*
X124499285Y-16237806D02*
X124499286Y-16221300D01*
X122193972Y-92907991D02*
X122154994Y-92957099D01*
X10795951Y-90855290D02*
X10841081Y-90797636D01*
X13484986Y-131463034D02*
X13472314Y-131538321D01*
X122460296Y-52157063D02*
X122473210Y-52217670D01*
X120502434Y-86010018D02*
X120427327Y-86004812D01*
X124499286Y-55721300D02*
X126499463Y-55721300D01*
X73109461Y-172699810D02*
X72093436Y-172699857D01*
X121781808Y-132780146D02*
X121728539Y-132811193D01*
X7052819Y-88439509D02*
X7033924Y-88550069D01*
X116704800Y-53257066D02*
X116660702Y-53176182D01*
X117863473Y-51006130D02*
X117941102Y-51001135D01*
X121126732Y-130005348D02*
X121189347Y-130011973D01*
X7052819Y-48939509D02*
X7033924Y-49050069D01*
X7749440Y-8016357D02*
X7676443Y-8102378D01*
X53398329Y-93240739D02*
X53393867Y-93277971D01*
X108561148Y-196062179D02*
X108635531Y-195933124D01*
X51386740Y-126337701D02*
X51370397Y-126258510D01*
X13498864Y-190540695D02*
X13500000Y-190599600D01*
X108982908Y-76319841D02*
X108992818Y-76207516D01*
X124491458Y-11016315D02*
X124482908Y-10922758D01*
X117547252Y-93430458D02*
X117459204Y-93399546D01*
X7006281Y-76195703D02*
X7015980Y-76311541D01*
X10506130Y-170613473D02*
X10515013Y-170536965D01*
X121063593Y-130001343D02*
X121126732Y-130005348D01*
X10587450Y-150593682D02*
X10614292Y-150524260D01*
X123948329Y-167508938D02*
X123893080Y-167433438D01*
X13111085Y-90742290D02*
X13158918Y-90797636D01*
X7825866Y-126432881D02*
X7749440Y-126516357D01*
X8343392Y-125998890D02*
X8251111Y-126062523D01*
X116660702Y-132176182D02*
X116628954Y-132109370D01*
X121781808Y-90719853D02*
X121833769Y-90753069D01*
X13498864Y-12691102D02*
X13500000Y-12750000D01*
X109292900Y-175492900D02*
X109338778Y-175449820D01*
X121755488Y-7400844D02*
X121657724Y-7346896D01*
X5000000Y-137951233D02*
X7000038Y-137951233D01*
X110000000Y-17200000D02*
X118340815Y-17199889D01*
X122096312Y-165629705D02*
X122021451Y-165573475D01*
X7000000Y-115500000D02*
X7001011Y-115578658D01*
X117459204Y-132899546D02*
X117373757Y-132863408D01*
X116774430Y-170134951D02*
X116818172Y-170076181D01*
X124471460Y-89829723D02*
X124457140Y-89737272D01*
X9349045Y-157929180D02*
X9460760Y-157951667D01*
X7075788Y-167329934D02*
X7052819Y-167439509D01*
X109447783Y-17366310D02*
X109500622Y-17333629D01*
X121755488Y-165400844D02*
X121657724Y-165346896D01*
X50400000Y-46500000D02*
X48810815Y-46500000D01*
X14470815Y-46500000D02*
X10000000Y-46500000D01*
X5000000Y-115338519D02*
X7000000Y-115338519D01*
X13412549Y-191105477D02*
X13385707Y-191174897D01*
X11227122Y-132535807D02*
X11165151Y-132496378D01*
X71782559Y-93586195D02*
X71755184Y-93561950D01*
X11165151Y-90503621D02*
X11227122Y-90464192D01*
X10677762Y-72808496D02*
X10644429Y-72742603D01*
X10753621Y-189764707D02*
X10795951Y-189704847D01*
X7257670Y-127283656D02*
X7207518Y-127403678D01*
X13007709Y-92861085D02*
X12952363Y-92908918D01*
X10841081Y-11797636D02*
X10888914Y-11742290D01*
X116913812Y-169965513D02*
X116965513Y-169913812D01*
X10644429Y-72742603D02*
X10614292Y-72674897D01*
X121373345Y-132952831D02*
X121288265Y-132972075D01*
X117902153Y-93496859D02*
X117805982Y-93487566D01*
X10544048Y-52612290D02*
X10527685Y-52538321D01*
X9624271Y-125523614D02*
X9513113Y-125539767D01*
X10506130Y-170886526D02*
X10501135Y-170808897D01*
X123686834Y-96182389D02*
X123765511Y-96164099D01*
X122491441Y-13160081D02*
X122483591Y-13221350D01*
X13111085Y-150091850D02*
X13158918Y-150147195D01*
X7468418Y-47890344D02*
X7410193Y-47985805D01*
X53375835Y-172353450D02*
X53364272Y-172385500D01*
X12136526Y-34093469D02*
X12058897Y-34098464D01*
X122231012Y-130642921D02*
X122266045Y-130695598D01*
X118000000Y-169500000D02*
X121000000Y-169500000D01*
X8534286Y-125882451D02*
X8437820Y-125938851D01*
X13007709Y-130138914D02*
X13060650Y-130189350D01*
X73957800Y-86233472D02*
X73901878Y-86284033D01*
X109000019Y-97193687D02*
X109001604Y-97143357D01*
X10614292Y-191174897D02*
X10587450Y-191105477D01*
X116913812Y-11965513D02*
X116965513Y-11913812D01*
X13455951Y-92112290D02*
X13435996Y-92184842D01*
X9185558Y-125612676D02*
X9078708Y-125644979D01*
X51893436Y-14699857D02*
X51854496Y-14697856D01*
X10714192Y-132022877D02*
X10677762Y-131958896D01*
X12708896Y-33921837D02*
X12643003Y-33955170D01*
X117476612Y-130093846D02*
X117547252Y-130069541D01*
X7000059Y-128481063D02*
X7000049Y-132951233D01*
X14470815Y-41500000D02*
X7000000Y-41500000D01*
X107764051Y-38926524D02*
X107868400Y-38847119D01*
X107300702Y-157703337D02*
X107416750Y-157644369D01*
X7075788Y-127829934D02*
X7052819Y-127939509D01*
X122383319Y-130919965D02*
X122406362Y-130978279D01*
X121249181Y-86168698D02*
X121160973Y-86139322D01*
X7000000Y-44500000D02*
X14470815Y-44500000D01*
X11637709Y-152555551D02*
X11565157Y-152535596D01*
X120927465Y-7075788D02*
X120836224Y-7056365D01*
X73715646Y-47033210D02*
X73683409Y-47100209D01*
X122255135Y-126261941D02*
X122183971Y-126200391D01*
X73901878Y-165284033D02*
X73849820Y-165338778D01*
X121755488Y-86400844D02*
X121657724Y-86346896D01*
X116520882Y-170749163D02*
X116535412Y-170674522D01*
X12136526Y-11256130D02*
X12213034Y-11265013D01*
X116965513Y-90913812D02*
X117019669Y-90864666D01*
X11565157Y-113035596D02*
X11494122Y-113012149D01*
X10888914Y-90742290D02*
X10939350Y-90689350D01*
X51429153Y-53868512D02*
X51417863Y-53832805D01*
X7162533Y-76976571D02*
X7200907Y-77081631D01*
X12505877Y-169337450D02*
X12575297Y-169364292D01*
X11291103Y-191921837D02*
X11227122Y-191885407D01*
X11786965Y-31114611D02*
X11863473Y-31105729D01*
X123600391Y-96194948D02*
X123686834Y-96182389D01*
X12288321Y-149627282D02*
X12362290Y-149643643D01*
X13060650Y-92810650D02*
X13007709Y-92861085D01*
X10506130Y-111463058D02*
X10515013Y-111386543D01*
X12708896Y-149777342D02*
X12772877Y-149813769D01*
X11291103Y-33921837D02*
X11227122Y-33885407D01*
X117134951Y-130274430D02*
X117195879Y-130233538D01*
X7002142Y-128386582D02*
X7000059Y-128481063D01*
X122473210Y-131782329D02*
X122460296Y-131842936D01*
X53364272Y-53885500D02*
X53350558Y-53916681D01*
X117476612Y-51093846D02*
X117547252Y-51069541D01*
X11047636Y-33758518D02*
X10992290Y-33710685D01*
X116695596Y-170258868D02*
X116733538Y-170195879D01*
X73603871Y-86912076D02*
X73600000Y-87000000D01*
X11637709Y-113055551D02*
X11565157Y-113035596D01*
X10587450Y-72605477D02*
X10564003Y-72534442D01*
X116628954Y-91390629D02*
X116660702Y-91323817D01*
X12136526Y-189105729D02*
X12213034Y-189114611D01*
X13285807Y-31826678D02*
X13322237Y-31890659D01*
X106000000Y-39500000D02*
X106132270Y-39497085D01*
X51417863Y-132832805D02*
X51409229Y-132795998D01*
X108335386Y-117383044D02*
X108415474Y-117279152D01*
X11227122Y-112885407D02*
X11165151Y-112845978D01*
X109206099Y-57091965D02*
X109245685Y-57043499D01*
X73530067Y-172454932D02*
X73504440Y-172493889D01*
X122499544Y-52536993D02*
X122496758Y-52598602D01*
X7008541Y-128273715D02*
X7002142Y-128386582D01*
X10527685Y-151387921D02*
X10515013Y-151312634D01*
X124499286Y-16221300D02*
X126499463Y-16221300D01*
X11165151Y-132496378D02*
X11105290Y-132454048D01*
X120276336Y-125500059D02*
X101580815Y-125500035D01*
X71755184Y-172561950D02*
X71729649Y-172535789D01*
X10544048Y-190237276D02*
X10564003Y-190164721D01*
X121490709Y-46765259D02*
X121405425Y-46728375D01*
X7905641Y-126352096D02*
X7825866Y-126432881D01*
X51550797Y-54057720D02*
X51521566Y-54026663D01*
X122324518Y-7825866D02*
X122255135Y-7761941D01*
X81210815Y-118500000D02*
X96580815Y-118500000D01*
X13493869Y-170613473D02*
X13498864Y-170691102D01*
X116695596Y-91258868D02*
X116733538Y-91195879D01*
X12505877Y-192012149D02*
X12434842Y-192035596D01*
X13246378Y-191434448D02*
X13204048Y-191494309D01*
X12288321Y-192071914D02*
X12213034Y-192084586D01*
X121781808Y-172280146D02*
X121728539Y-172311193D01*
X106394313Y-78973980D02*
X106523741Y-78953934D01*
X10841081Y-51297636D02*
X10888914Y-51242290D01*
X11165151Y-51003621D02*
X11227122Y-50964192D01*
X120670276Y-7028539D02*
X120595891Y-7019150D01*
X116600453Y-51959204D02*
X116628954Y-51890629D01*
X12575297Y-132635707D02*
X12505877Y-132662549D01*
X9624271Y-7023614D02*
X9513113Y-7039767D01*
X11227122Y-152385407D02*
X11165151Y-152345978D01*
X13472314Y-150811250D02*
X13484986Y-150886543D01*
X8073428Y-47200391D02*
X7988243Y-47274537D01*
X12708896Y-53572237D02*
X12643003Y-53605570D01*
X13204048Y-31704847D02*
X13246378Y-31764707D01*
X11941102Y-31100735D02*
X12000000Y-31099600D01*
X19470815Y-86000000D02*
X19470815Y-84000000D01*
X123674133Y-167175481D02*
X123621300Y-167121300D01*
X81210815Y-120500000D02*
X81210815Y-118500000D01*
X116628954Y-132109370D02*
X116600453Y-132040795D01*
X124135531Y-167809475D02*
X124089806Y-167728405D01*
X13204048Y-72994309D02*
X13158918Y-73051963D01*
X7207518Y-8903678D02*
X7168698Y-9008218D01*
X124470397Y-95441489D02*
X124482389Y-95386834D01*
X11356996Y-11394429D02*
X11424702Y-11364292D01*
X10501135Y-72040695D02*
X10506130Y-71963058D01*
X12894709Y-90545951D02*
X12952363Y-90591081D01*
X13111085Y-130242290D02*
X13158918Y-130297636D01*
X13204048Y-110704847D02*
X13246378Y-110764707D01*
X11356996Y-50894429D02*
X11424702Y-50864292D01*
X121662989Y-51154467D02*
X121717735Y-51182860D01*
X12505877Y-73512149D02*
X12434842Y-73535596D01*
X121884352Y-14211586D02*
X121833769Y-14246930D01*
X121781808Y-53780146D02*
X121728539Y-53811193D01*
X73957800Y-165233472D02*
X73901878Y-165284033D01*
X51400671Y-93226031D02*
X51400000Y-87000000D01*
X11637709Y-73555551D02*
X11565157Y-73535596D01*
X11424702Y-70713878D02*
X11494122Y-70687040D01*
X122329638Y-92694254D02*
X122299000Y-92750000D01*
X7570204Y-117259938D02*
X7659083Y-117376366D01*
X122114148Y-11995637D02*
X122154994Y-12042900D01*
X11424702Y-172135707D02*
X11356996Y-172105570D01*
X122496758Y-171098602D02*
X122491441Y-171160081D01*
X122483591Y-12778649D02*
X122491441Y-12839918D01*
X11356996Y-172105570D02*
X11291103Y-172072237D01*
X107764051Y-78426524D02*
X107868400Y-78347119D01*
X12505877Y-129837450D02*
X12575297Y-129864292D01*
X13472314Y-72387921D02*
X13455951Y-72461890D01*
X73593370Y-93281049D02*
X73583662Y-93326659D01*
X13412549Y-71593682D02*
X13435996Y-71664721D01*
X11227122Y-189313769D02*
X11291103Y-189277342D01*
X124250179Y-56361221D02*
X124286240Y-56317907D01*
X117373757Y-132863408D02*
X117291103Y-132822237D01*
X108490752Y-77672139D02*
X108561148Y-77562179D01*
X7048335Y-37039265D02*
X7070824Y-37150985D01*
X14470815Y-84000000D02*
X14470815Y-86000000D01*
X12708896Y-73421837D02*
X12643003Y-73455170D01*
X9573931Y-39469975D02*
X9688475Y-39484020D01*
X12058897Y-70600735D02*
X12136526Y-70605729D01*
X13385707Y-131825297D02*
X13355570Y-131893003D01*
X121833769Y-93246930D02*
X121781808Y-93280146D01*
X101580815Y-160000000D02*
X101580815Y-158000000D01*
X121000000Y-14500000D02*
X118000000Y-14500000D01*
X12136526Y-53743869D02*
X12058897Y-53748864D01*
X13435996Y-51815157D02*
X13455951Y-51887709D01*
X11356996Y-169394429D02*
X11424702Y-169364292D01*
X12434842Y-110163595D02*
X12505877Y-110187040D01*
X71858323Y-54137698D02*
X71806698Y-54104856D01*
X11711678Y-50777685D02*
X11786965Y-50765013D01*
X7355630Y-166583249D02*
X7304774Y-166682569D01*
X116500505Y-92039327D02*
X116500126Y-91980306D01*
X12000000Y-90250000D02*
X12058897Y-90251135D01*
X71919748Y-172666411D02*
X71891266Y-172654364D01*
X9848893Y-165003805D02*
X9736234Y-165011611D01*
X13498864Y-111658497D02*
X13493869Y-111736126D01*
X7243042Y-156184818D02*
X7288858Y-156286049D01*
X12000000Y-149599600D02*
X12058897Y-149600735D01*
X50883163Y-7124484D02*
X50805461Y-7085903D01*
X13322237Y-12041103D02*
X13355570Y-12106996D01*
X13484986Y-52036965D02*
X13493869Y-52113473D01*
X73598576Y-172237614D02*
X73593370Y-172281049D01*
X124482389Y-55886834D02*
X124490484Y-55837627D01*
X101580815Y-199500000D02*
X101580815Y-197500000D01*
X124457140Y-168737272D02*
X124439974Y-168645469D01*
X124471460Y-129329723D02*
X124457140Y-129237272D01*
X74524570Y-86002847D02*
X74450020Y-86011311D01*
X51079865Y-7266675D02*
X51017907Y-7213759D01*
X71979247Y-54185215D02*
X71919748Y-54166411D01*
X107764051Y-117926524D02*
X107868400Y-117847119D01*
X108335386Y-38383044D02*
X108415474Y-38279152D01*
X121833769Y-90753069D02*
X121884352Y-90788413D01*
X73504440Y-14493889D02*
X73475128Y-14530471D01*
X13285807Y-92522877D02*
X13246378Y-92584848D01*
X11711678Y-14222314D02*
X11637709Y-14205951D01*
X52903156Y-14699890D02*
X51893436Y-14699857D01*
X117134951Y-51274430D02*
X117195879Y-51233538D01*
X73756154Y-86463433D02*
X73715646Y-86533210D01*
X13111085Y-51242290D02*
X13158918Y-51297636D01*
X71782559Y-14586195D02*
X71755184Y-14561950D01*
X117805982Y-93487566D02*
X117730380Y-93475832D01*
X48810815Y-123500000D02*
X76210815Y-123500000D01*
X121189347Y-169511973D02*
X121251367Y-169521179D01*
X12213034Y-152584586D02*
X12136526Y-152593469D01*
X7000000Y-36338519D02*
X7000000Y-36500000D01*
X121662989Y-11654467D02*
X121717735Y-11682860D01*
X19470815Y-125500000D02*
X19470815Y-123500000D01*
X53026762Y-93683559D02*
X52996473Y-93690502D01*
X116500126Y-52480306D02*
X116503140Y-52402153D01*
X12575297Y-112985307D02*
X12505877Y-113012149D01*
X13111085Y-71091850D02*
X13158918Y-71147195D01*
X116806974Y-13909333D02*
X116753621Y-13834848D01*
X124398394Y-56139157D02*
X124419050Y-56094104D01*
X12952363Y-51091081D02*
X13007709Y-51138914D01*
X108561148Y-77562179D02*
X108635531Y-77433124D01*
X106903573Y-157860677D02*
X107044236Y-157812375D01*
X11105290Y-11545951D02*
X11165151Y-11503621D01*
X7570204Y-38259938D02*
X7659083Y-38376366D01*
X8437820Y-165438851D02*
X8343392Y-165498890D01*
X108695225Y-195817430D02*
X108749811Y-195699331D01*
X116660702Y-130823817D02*
X116695596Y-130758868D01*
X13007709Y-11638914D02*
X13060650Y-11689350D01*
X48810815Y-160000000D02*
X48810815Y-158000000D01*
X11637709Y-50794048D02*
X11711678Y-50777685D01*
X7410193Y-8485805D02*
X7355630Y-8583249D01*
X71806698Y-93604856D02*
X71782559Y-93586195D01*
X121884352Y-130288413D02*
X121933487Y-130325844D01*
X53059444Y-14673787D02*
X53026762Y-14683559D01*
X123621300Y-127621300D02*
X122378700Y-126378700D01*
X116864666Y-92980330D02*
X116806974Y-92909333D01*
X108415474Y-196279152D02*
X108490752Y-196172139D01*
X117407611Y-130121521D02*
X117476612Y-130093846D01*
X10992290Y-11638914D02*
X11047636Y-11591081D01*
X109098901Y-17766418D02*
X109130547Y-17706009D01*
X122231012Y-132357078D02*
X122193972Y-132407991D01*
X51816396Y-133192938D02*
X51779247Y-133185215D01*
X7030026Y-194926090D02*
X7048335Y-195039265D01*
X51347782Y-7681118D02*
X51316590Y-7600209D01*
X71858323Y-14637698D02*
X71806698Y-14604856D01*
X108335386Y-77883044D02*
X108415474Y-77779152D01*
X124142199Y-174966527D02*
X124179865Y-174933324D01*
X12772877Y-169464192D02*
X12834848Y-169503621D01*
X51669148Y-93643515D02*
X51637160Y-93625301D01*
X122444850Y-170596908D02*
X122460296Y-170657063D01*
X12288321Y-31127282D02*
X12362290Y-31143643D01*
X11863473Y-132743869D02*
X11786965Y-132734986D01*
X10500000Y-111599600D02*
X10501135Y-111540695D01*
X108695225Y-116817430D02*
X108749811Y-116699331D01*
X12058897Y-132748864D02*
X12000000Y-132750000D01*
X122299000Y-53250000D02*
X122266045Y-53304401D01*
X53399990Y-93203056D02*
X53398329Y-93240739D01*
X53399990Y-14203056D02*
X53398329Y-14240739D01*
X13111085Y-169742290D02*
X13158918Y-169797636D01*
X122255135Y-86761941D02*
X122183971Y-86700391D01*
X11637709Y-34055551D02*
X11565157Y-34035596D01*
X13007709Y-112710685D02*
X12952363Y-112758518D01*
X12834848Y-152345978D02*
X12772877Y-152385407D01*
X124349253Y-49803628D02*
X124318791Y-49715808D01*
X50647511Y-46531121D02*
X50562298Y-46513259D01*
X73631121Y-126252488D02*
X73615359Y-126325415D01*
X116753621Y-92834848D02*
X116704800Y-92757066D01*
X108887323Y-195314441D02*
X108919989Y-195188224D01*
X7905641Y-7852096D02*
X7825866Y-7932881D01*
X110000000Y-175200000D02*
X118340815Y-175199889D01*
X124089806Y-88728405D02*
X124041537Y-88648712D01*
X12058897Y-189100735D02*
X12136526Y-189105729D01*
X120427327Y-165004812D02*
X120276336Y-165000059D01*
X50883163Y-165124484D02*
X50805461Y-165085903D01*
X124439586Y-95542274D02*
X124457212Y-95489351D01*
X71891266Y-93654364D02*
X71858323Y-93637698D01*
X12643003Y-152455170D02*
X12575297Y-152485307D01*
X13455951Y-51887709D02*
X13472314Y-51961678D01*
X11711678Y-31127282D02*
X11786965Y-31114611D01*
X116926502Y-14047645D02*
X116864666Y-13980330D01*
X10841081Y-71147195D02*
X10888914Y-71091850D01*
X122460296Y-170657063D02*
X122473210Y-170717670D01*
X12288321Y-53722314D02*
X12213034Y-53734986D01*
X12000000Y-132750000D02*
X11941102Y-132748864D01*
X12000000Y-172250000D02*
X11941102Y-172248864D01*
X8161087Y-165629705D02*
X8073428Y-165700391D01*
X14470815Y-120500000D02*
X7000000Y-120500000D01*
X12575297Y-73485307D02*
X12505877Y-73512149D01*
X9349045Y-78929180D02*
X9460760Y-78951667D01*
X109752488Y-96231121D02*
X109819286Y-96216465D01*
X117019669Y-90864666D02*
X117076181Y-90818172D01*
X10587450Y-151605477D02*
X10564003Y-151534442D01*
X7000000Y-41500000D02*
X5000000Y-41500000D01*
X12288321Y-93222314D02*
X12213034Y-93234986D01*
X116553583Y-52898750D02*
X116535412Y-52825477D01*
X53350558Y-172416681D02*
X53334740Y-172446881D01*
X122266045Y-170195598D02*
X122299000Y-170250000D01*
X9688475Y-78984020D02*
X9804307Y-78993719D01*
X11047636Y-13908918D02*
X10992290Y-13861085D01*
X7008541Y-9773715D02*
X7002142Y-9886582D01*
X10753621Y-72934448D02*
X10714192Y-72872477D01*
X74298799Y-125546450D02*
X74228788Y-125571466D01*
X122193972Y-132407991D02*
X122154994Y-132457099D01*
X10587450Y-33105477D02*
X10564003Y-33034442D01*
X12136526Y-110105729D02*
X12213034Y-110114611D01*
X73583662Y-14326659D02*
X73569797Y-14371033D01*
X11105290Y-189395521D02*
X11165151Y-189353195D01*
X12362290Y-192055551D02*
X12288321Y-192071914D01*
X122406362Y-12478279D02*
X122426872Y-12537287D01*
X7447545Y-196077169D02*
X7507243Y-196169740D01*
X81210815Y-123500000D02*
X96580815Y-123500000D01*
X51403364Y-93258202D02*
X51400671Y-93226031D01*
X51893436Y-133199857D02*
X51854496Y-133197856D01*
X71600000Y-53699900D02*
X71600000Y-49000000D01*
X11291103Y-93072237D02*
X11227122Y-93035807D01*
X11227122Y-110313769D02*
X11291103Y-110277342D01*
X51370397Y-86758510D02*
X51347782Y-86681118D01*
X12362290Y-53705951D02*
X12288321Y-53722314D01*
X107656607Y-78501109D02*
X107764051Y-78426524D01*
X11165151Y-171996378D02*
X11105290Y-171954048D01*
X51347782Y-47181118D02*
X51316590Y-47100209D01*
X73551892Y-93413885D02*
X73530067Y-93454932D01*
X8732899Y-86280751D02*
X8632682Y-86329736D01*
X8152362Y-196863686D02*
X8240105Y-196929823D01*
X11786965Y-90265013D02*
X11863473Y-90256130D01*
X109130547Y-96706009D02*
X109166310Y-96647783D01*
X12505877Y-152512149D02*
X12434842Y-152535596D01*
X51606698Y-54104856D02*
X51577873Y-54082292D01*
X71640511Y-132897348D02*
X71619563Y-132838835D01*
X101580815Y-81000000D02*
X101580815Y-79000000D01*
X12575297Y-191985307D02*
X12505877Y-192012149D01*
X73615359Y-47325415D02*
X73603871Y-47412076D01*
X11863473Y-149605729D02*
X11941102Y-149600735D01*
X10992290Y-130138914D02*
X11047636Y-130091081D01*
X10888914Y-31591850D02*
X10939350Y-31538912D01*
X11165151Y-70853195D02*
X11227122Y-70813769D01*
X122329638Y-132194254D02*
X122299000Y-132250000D01*
X8251111Y-126062523D02*
X8161087Y-126129705D01*
X124179865Y-135433324D02*
X124215966Y-135398121D01*
X43810815Y-163000000D02*
X43810815Y-165000000D01*
X51370397Y-47258510D02*
X51347782Y-47181118D01*
X73849820Y-7338778D02*
X73798570Y-7401924D01*
X8918409Y-157799105D02*
X9023467Y-157837476D01*
X124170263Y-128375282D02*
X124135531Y-128309475D01*
X10506130Y-190736126D02*
X10501135Y-190658497D01*
X10795951Y-189704847D02*
X10841081Y-189647195D01*
X8614803Y-118161749D02*
X8713993Y-118211158D01*
X73683409Y-47100209D02*
X73654212Y-47175250D01*
X121728539Y-93311193D02*
X121674032Y-93340032D01*
X12772877Y-11464192D02*
X12834848Y-11503621D01*
X53364272Y-14385500D02*
X53350558Y-14416681D01*
X122329638Y-91305745D02*
X122357745Y-91362427D01*
X121674032Y-14340032D02*
X121595776Y-14376620D01*
X124439974Y-10645469D02*
X124419989Y-10554375D01*
X13246378Y-189764707D02*
X13285807Y-189826678D01*
X12575297Y-110213878D02*
X12643003Y-110244012D01*
X122231012Y-51642921D02*
X122266045Y-51695598D01*
X122299000Y-132250000D02*
X122266045Y-132304401D01*
X122183971Y-165700391D02*
X122096312Y-165629705D01*
X10888914Y-53257709D02*
X10841081Y-53202363D01*
X117211437Y-93276227D02*
X117134951Y-93225569D01*
X7000000Y-194500000D02*
X7001011Y-194578658D01*
X13493869Y-111463058D02*
X13498864Y-111540695D01*
X116500126Y-12980306D02*
X116503140Y-12902153D01*
X10564003Y-171184842D02*
X10544048Y-171112290D01*
X7468418Y-126890344D02*
X7410193Y-126985805D01*
X73654212Y-7675250D02*
X73631121Y-7752488D01*
X71858323Y-133137698D02*
X71806698Y-133104856D01*
X71605005Y-132770904D02*
X71601046Y-132732511D01*
X19470815Y-46500000D02*
X19470815Y-44500000D01*
X73444566Y-93562208D02*
X73408984Y-93592989D01*
X124170263Y-49375282D02*
X124135531Y-49309475D01*
X12834848Y-110353195D02*
X12894709Y-110395521D01*
X13412549Y-91244122D02*
X13435996Y-91315157D01*
X7030026Y-155426090D02*
X7048335Y-155539265D01*
X9130315Y-78872001D02*
X9238868Y-78902597D01*
X12708896Y-110277342D02*
X12772877Y-110313769D01*
X121884352Y-172211586D02*
X121833769Y-172246930D01*
X71600000Y-88500000D02*
X53400000Y-88500000D01*
X116500505Y-13039327D02*
X116500126Y-12980306D01*
X121089739Y-86117786D02*
X120999913Y-86093343D01*
X13385707Y-51674702D02*
X13412549Y-51744122D01*
X13158918Y-191551963D02*
X13111085Y-191607309D01*
X124349253Y-128803628D02*
X124318791Y-128715808D01*
X116628954Y-13609370D02*
X116600453Y-13540795D01*
X13455951Y-91387709D02*
X13472314Y-91461678D01*
X124439586Y-174542274D02*
X124457212Y-174489351D01*
X121214230Y-172484651D02*
X121139300Y-172493534D01*
X10000000Y-86000000D02*
X9848893Y-86003805D01*
X13285807Y-112372477D02*
X13246378Y-112434448D01*
X116704800Y-92757066D02*
X116660702Y-92676182D01*
X11291103Y-189277342D02*
X11356996Y-189244012D01*
X10500000Y-91750000D02*
X10501135Y-91691102D01*
X73199525Y-54189892D02*
X73153307Y-54197050D01*
X12505877Y-110187040D02*
X12575297Y-110213878D01*
X13285807Y-110826678D02*
X13322237Y-110890659D01*
X10564003Y-92184842D02*
X10544048Y-92112290D01*
X108067118Y-78174133D02*
X108161065Y-78080775D01*
X9238868Y-39402597D02*
X9349045Y-39429180D01*
X109039270Y-17922545D02*
X109056243Y-17869395D01*
X5000000Y-160000000D02*
X5000000Y-154838519D01*
X50481679Y-7003340D02*
X50400000Y-7000000D01*
X13435996Y-92184842D02*
X13412549Y-92255877D01*
X11291103Y-172072237D02*
X11227122Y-172035807D01*
X12834848Y-169503621D02*
X12894709Y-169545951D01*
X124249811Y-10043268D02*
X124211345Y-9958674D01*
X51347782Y-86681118D02*
X51316590Y-86600209D01*
X11786965Y-169265013D02*
X11863473Y-169256130D01*
X12434842Y-53685996D02*
X12362290Y-53705951D01*
X10000000Y-125500000D02*
X9848893Y-125503805D01*
X10506130Y-12886526D02*
X10501135Y-12808897D01*
X13484986Y-32386543D02*
X13493869Y-32463058D01*
X124398394Y-95639157D02*
X124419050Y-95594104D01*
X121288265Y-93472075D02*
X121214230Y-93484651D01*
X116733538Y-91195879D02*
X116774430Y-91134951D01*
X73153307Y-172697050D02*
X73109461Y-172699810D01*
X122426872Y-12537287D02*
X122444850Y-12596908D01*
X73615359Y-7825415D02*
X73603871Y-7912076D01*
X124496128Y-174287923D02*
X124499285Y-174237806D01*
X11424702Y-50864292D02*
X11494122Y-50837450D01*
X12643003Y-149744012D02*
X12708896Y-149777342D01*
X109000019Y-18193687D02*
X109001604Y-18143357D01*
X123848089Y-135637447D02*
X123927989Y-135603768D01*
X71919748Y-14666411D02*
X71891266Y-14654364D01*
X73631121Y-47252488D02*
X73615359Y-47325415D01*
X116500505Y-131539327D02*
X116500126Y-131480306D01*
X73849820Y-86338778D02*
X73798570Y-86401924D01*
X124077900Y-17016096D02*
X124142199Y-16966527D01*
X53318574Y-14473389D02*
X53298868Y-14501404D01*
X7570204Y-77759938D02*
X7659083Y-77876366D01*
X12213034Y-110114611D02*
X12288321Y-110127282D01*
X122154994Y-170042900D02*
X122193972Y-170092008D01*
X108561148Y-156562179D02*
X108635531Y-156433124D01*
X13285807Y-150326678D02*
X13322237Y-150390659D01*
X12434842Y-11314003D02*
X12505877Y-11337450D01*
X10939350Y-152160250D02*
X10888914Y-152107309D01*
X73408984Y-172592989D02*
X73370920Y-172620127D01*
X120836224Y-46556365D02*
X120762727Y-46542859D01*
X122329638Y-51805745D02*
X122357745Y-51862427D01*
X11565157Y-189163595D02*
X11637709Y-189143643D01*
X12000000Y-169250000D02*
X12058897Y-169251135D01*
X10795951Y-110704847D02*
X10841081Y-110647195D01*
X96580815Y-165000028D02*
X81210815Y-165000008D01*
X13493869Y-91613473D02*
X13498864Y-91691102D01*
X9513113Y-86039767D02*
X9402869Y-86060025D01*
X10587450Y-13255877D02*
X10564003Y-13184842D01*
X124491458Y-129516315D02*
X124482908Y-129422758D01*
X53255823Y-93551162D02*
X53232998Y-93572866D01*
X13484986Y-32812634D02*
X13472314Y-32887921D01*
X117711678Y-11527685D02*
X117786965Y-11515013D01*
X73109461Y-54199810D02*
X72093436Y-54199857D01*
X50805461Y-125585903D02*
X50724749Y-125554212D01*
X12643003Y-50894429D02*
X12708896Y-50927762D01*
X12058897Y-11251135D02*
X12136526Y-11256130D01*
X124482908Y-168922758D02*
X124471460Y-168829723D01*
X126499463Y-129721300D02*
X124499462Y-129721300D01*
X73569797Y-93371033D02*
X73551892Y-93413885D01*
X122324518Y-86825866D02*
X122255135Y-86761941D01*
X51079865Y-125766675D02*
X51017907Y-125713759D01*
X118340815Y-120500000D02*
X101580815Y-120500000D01*
X10564003Y-12315157D02*
X10587450Y-12244122D01*
X10992290Y-189488479D02*
X11047636Y-189440649D01*
X13355570Y-31956553D02*
X13385707Y-32024260D01*
X8152362Y-117863686D02*
X8240105Y-117929823D01*
X122231012Y-91142921D02*
X122266045Y-91195598D01*
X51400000Y-87000000D02*
X51396659Y-86918320D01*
X50481679Y-125503340D02*
X50400000Y-125500000D01*
X118340815Y-81000000D02*
X101580815Y-81000000D01*
X14470815Y-39500000D02*
X14470815Y-41500000D01*
X122071505Y-90950259D02*
X122114148Y-90995637D01*
X101580815Y-163000000D02*
X124499463Y-163000000D01*
X13285807Y-33372477D02*
X13246378Y-33434448D01*
X12000000Y-152599600D02*
X11941102Y-152598464D01*
X10888914Y-92757709D02*
X10841081Y-92702363D01*
X107044236Y-118312375D02*
X107182274Y-118257188D01*
X7168698Y-88008218D02*
X7133773Y-88114180D01*
X5000000Y-189338519D02*
X5000000Y-177451233D01*
X116600453Y-170459204D02*
X116628954Y-170390629D01*
X13355570Y-51606996D02*
X13385707Y-51674702D01*
X7530260Y-126796976D02*
X7468418Y-126890344D01*
X11105290Y-73303648D02*
X11047636Y-73258518D01*
X81210815Y-160000000D02*
X81210815Y-158000000D01*
X11863473Y-90256130D02*
X11941102Y-90251135D01*
X117711678Y-51027685D02*
X117786965Y-51015013D01*
X10795951Y-11855290D02*
X10841081Y-11797636D01*
X122299000Y-171750000D02*
X122266045Y-171804401D01*
X121781808Y-130219853D02*
X121833769Y-130253069D01*
X11565157Y-73535596D02*
X11494122Y-73512149D01*
X110000000Y-96200000D02*
X118340815Y-96199889D01*
X73901878Y-46784033D02*
X73849820Y-46838778D01*
X51417863Y-53832805D02*
X51409229Y-53795998D01*
X7000000Y-75838519D02*
X7000000Y-76000000D01*
X9573931Y-197469975D02*
X9688475Y-197484020D01*
X7530260Y-166296976D02*
X7468418Y-166390344D01*
X109391965Y-175406099D02*
X109447783Y-175366310D01*
X121312723Y-90532924D02*
X121373345Y-90547168D01*
X12575297Y-33985307D02*
X12505877Y-34012149D01*
X10753621Y-31764707D02*
X10795951Y-31704847D01*
X116965513Y-130413812D02*
X117019669Y-130364666D01*
X13412549Y-72605477D02*
X13385707Y-72674897D01*
X12213034Y-11265013D02*
X12288321Y-11277685D01*
X73408984Y-133092989D02*
X73370920Y-133120127D01*
X12643003Y-132605570D02*
X12575297Y-132635707D01*
X12708896Y-90427762D02*
X12772877Y-90464192D01*
X7008541Y-88773715D02*
X7002142Y-88886582D01*
X14470815Y-197500000D02*
X14470815Y-199500000D01*
X108805851Y-156061639D02*
X108849253Y-155938971D01*
X123948329Y-9508938D02*
X123893080Y-9433438D01*
X117407611Y-169621521D02*
X117476612Y-169593846D01*
X51400000Y-8000000D02*
X51396659Y-7918320D01*
X7200907Y-195581631D02*
X7243042Y-195684818D01*
X12575297Y-70713878D02*
X12643003Y-70744012D01*
X109076137Y-136317312D02*
X109098901Y-136266418D01*
X73683409Y-86600209D02*
X73654212Y-86675250D01*
X7304774Y-8682569D02*
X7257670Y-8783656D01*
X12772877Y-14035807D02*
X12708896Y-14072237D01*
X122499544Y-91963006D02*
X122499544Y-92036993D01*
X121595776Y-172376620D02*
X121527022Y-172404388D01*
X108947180Y-37060490D02*
X108968825Y-36931415D01*
X122473210Y-92282329D02*
X122460296Y-92342936D01*
X122021451Y-47073475D02*
X121929539Y-47009247D01*
X10795951Y-132144709D02*
X10753621Y-132084848D01*
X9804307Y-197493719D02*
X9921345Y-197498988D01*
X13322237Y-92458896D02*
X13285807Y-92522877D01*
X106263765Y-78988388D02*
X106394313Y-78973980D01*
X71729649Y-14535789D02*
X71709857Y-14512606D01*
X124041537Y-49148712D02*
X123990752Y-49070460D01*
X11424702Y-149713878D02*
X11494122Y-149687040D01*
X121607088Y-130128332D02*
X121662989Y-130154467D01*
X13498864Y-111540695D02*
X13500000Y-111599600D01*
X51737257Y-172672807D02*
X51702551Y-172659388D01*
X10841081Y-152051963D02*
X10795951Y-151994309D01*
X13111085Y-171757709D02*
X13060650Y-171810650D01*
X53122368Y-14647717D02*
X53091350Y-14661825D01*
X73288484Y-172663001D02*
X73244678Y-172678503D01*
X122406362Y-170478279D02*
X122426872Y-170537287D01*
X120595891Y-46519150D02*
X120502434Y-46510018D01*
X13158918Y-132202363D02*
X13111085Y-132257709D01*
X116520882Y-171250836D02*
X116510091Y-171174926D01*
X7000049Y-14451233D02*
X5000000Y-14451233D01*
X13204048Y-191494309D02*
X13158918Y-191551963D01*
X72093436Y-93699857D02*
X72035334Y-93695754D01*
X123787489Y-48801656D02*
X123738058Y-48744864D01*
X13322237Y-31890659D02*
X13355570Y-31956553D01*
X10515013Y-111812634D02*
X10506130Y-111736126D01*
X51400671Y-14226031D02*
X51400000Y-8000000D01*
X117061837Y-14170458D02*
X116992290Y-14111085D01*
X7015980Y-155311541D02*
X7030026Y-155426090D01*
X124398394Y-135139157D02*
X124419050Y-135094104D01*
X11291103Y-50927762D02*
X11356996Y-50894429D01*
X8067160Y-117794452D02*
X8152362Y-117863686D01*
X12288321Y-169277685D02*
X12362290Y-169294048D01*
X131499463Y0D02*
X0Y0D01*
X12362290Y-73555551D02*
X12288321Y-73571914D01*
X124499286Y-95221300D02*
X126499463Y-95221300D01*
X7729332Y-77960702D02*
X7802565Y-78042387D01*
X10677762Y-52958896D02*
X10644429Y-52893003D01*
X51396659Y-126418320D02*
X51386740Y-126337701D01*
X7002142Y-49386582D02*
X7000059Y-49481063D01*
X10614292Y-13325297D02*
X10587450Y-13255877D01*
X10506130Y-150963058D02*
X10515013Y-150886543D01*
X53399990Y-53703056D02*
X53398329Y-53740739D01*
X12213034Y-73584586D02*
X12136526Y-73593469D01*
X121674032Y-53840032D02*
X121595776Y-53876620D01*
X50647511Y-86031121D02*
X50562298Y-86013259D01*
X122193972Y-12092008D02*
X122231012Y-12142921D01*
X122406362Y-13521720D02*
X122383319Y-13580034D01*
X117637709Y-53955951D02*
X117547252Y-53930458D01*
X12288321Y-113071914D02*
X12213034Y-113084586D01*
X12000000Y-110099600D02*
X12058897Y-110100735D01*
X117547252Y-14430458D02*
X117459204Y-14399546D01*
X116503140Y-170902153D02*
X116510091Y-170825073D01*
X48810815Y-7000000D02*
X48810815Y-5000000D01*
X50805461Y-46585903D02*
X50724749Y-46554212D01*
X11941102Y-14248864D02*
X11863473Y-14243869D01*
X9921345Y-157998988D02*
X10000000Y-158000000D01*
X81210815Y-7000008D02*
X81210815Y-5000000D01*
X8955763Y-125687624D02*
X8834828Y-125735540D01*
X11637709Y-129794048D02*
X11711678Y-129777685D01*
X108805851Y-195561639D02*
X108849253Y-195438971D01*
X122255135Y-165761941D02*
X122183971Y-165700391D01*
X12772877Y-189313769D02*
X12834848Y-189353195D01*
X109206099Y-175591965D02*
X109245685Y-175543499D01*
X19470815Y-41500000D02*
X19470815Y-39500000D01*
X11494122Y-113012149D02*
X11424702Y-112985307D01*
X72093436Y-172699857D02*
X72035334Y-172695754D01*
X51409229Y-93295998D02*
X51403364Y-93258202D01*
X13355570Y-12106996D02*
X13385707Y-12174702D01*
X106778544Y-39397211D02*
X106903573Y-39360677D01*
X108919989Y-116188224D02*
X108947180Y-116060490D01*
X117323817Y-11660702D02*
X117407611Y-11621521D01*
X122460296Y-13342936D02*
X122444850Y-13403091D01*
X7243042Y-37684818D02*
X7288858Y-37786049D01*
X7802565Y-117542387D02*
X7904708Y-117647032D01*
X10795951Y-71204847D02*
X10841081Y-71147195D01*
X121851287Y-7458462D02*
X121755488Y-7400844D01*
X124397211Y-10464055D02*
X124376994Y-10392398D01*
X116503140Y-131402153D02*
X116510091Y-131325073D01*
X11494122Y-93162549D02*
X11424702Y-93135707D01*
X51521566Y-54026663D02*
X51498660Y-53998122D01*
X11565157Y-192035596D02*
X11494122Y-192012149D01*
X122499544Y-92036993D02*
X122496758Y-92098602D01*
X51017907Y-86213759D02*
X50952216Y-86166310D01*
X124041537Y-167648712D02*
X123990752Y-167570460D01*
X13484986Y-150886543D02*
X13493869Y-150963058D01*
X109391965Y-56906099D02*
X109447783Y-56866310D01*
X7207518Y-87903678D02*
X7168698Y-88008218D01*
X116520882Y-12749163D02*
X116535412Y-12674522D01*
X73957800Y-7233472D02*
X73901878Y-7284033D01*
X109623043Y-17273784D02*
X109686999Y-17250258D01*
X109076137Y-175817312D02*
X109098901Y-175766418D01*
X122071505Y-93049740D02*
X122027133Y-93093191D01*
X124496128Y-55787923D02*
X124499285Y-55737806D01*
X13472314Y-32311250D02*
X13484986Y-32386543D01*
X53350558Y-93416681D02*
X53334740Y-93446881D01*
X10544048Y-92112290D02*
X10527685Y-92038321D01*
X50952216Y-125666310D02*
X50883163Y-125624484D01*
X108415474Y-117279152D02*
X108490752Y-117172139D01*
X53364272Y-172385500D02*
X53350558Y-172416681D01*
X7001011Y-76078658D02*
X7006281Y-76195703D01*
X10501135Y-111658497D02*
X10500000Y-111599600D01*
X11291103Y-90427762D02*
X11356996Y-90394429D01*
X101580815Y-79000000D02*
X106000000Y-79000000D01*
X101580815Y-120500000D02*
X101580815Y-118500000D01*
X124179865Y-16933324D02*
X124215966Y-16898121D01*
X124439974Y-168645469D02*
X124419989Y-168554375D01*
X121312723Y-11532924D02*
X121373345Y-11547168D01*
X53122368Y-133147717D02*
X53091350Y-133161825D01*
X121929539Y-126009247D02*
X121851287Y-125958462D01*
X122496758Y-170901397D02*
X122499544Y-170963006D01*
X9573931Y-157969975D02*
X9688475Y-157984020D01*
X8161087Y-47129705D02*
X8073428Y-47200391D01*
X124250179Y-16861221D02*
X124286240Y-16817907D01*
X120670276Y-125528539D02*
X120595891Y-125519150D01*
X12952363Y-191758518D02*
X12894709Y-191803648D01*
X51737257Y-54172807D02*
X51702551Y-54159388D01*
X116992290Y-14111085D02*
X116926502Y-14047645D01*
X116628954Y-170390629D02*
X116660702Y-170323817D01*
X74376639Y-46525268D02*
X74298799Y-46546450D01*
X13060650Y-189538912D02*
X13111085Y-189591850D01*
X122193972Y-51592008D02*
X122231012Y-51642921D01*
X73593370Y-172281049D02*
X73583662Y-172326659D01*
X108161065Y-157080775D02*
X108250559Y-156983642D01*
X121929539Y-47009247D02*
X121851287Y-46958462D01*
X122491441Y-91839918D02*
X122496758Y-91901397D01*
X74450020Y-46511311D02*
X74376639Y-46525268D01*
X13498864Y-52308897D02*
X13493869Y-52386526D01*
X121933487Y-51325844D02*
X121981104Y-51365323D01*
X122193972Y-91092008D02*
X122231012Y-91142921D01*
X74450020Y-165011311D02*
X74376639Y-165025268D01*
X73408984Y-14592989D02*
X73370920Y-14620127D01*
X13204048Y-171644709D02*
X13158918Y-171702363D01*
X107300702Y-197203337D02*
X107416750Y-197144369D01*
X9688475Y-118484020D02*
X9804307Y-118493719D01*
X11637709Y-90294048D02*
X11711678Y-90277685D01*
X124499463Y-123500000D02*
X126499463Y-123500000D01*
X13498864Y-72040695D02*
X13500000Y-72099600D01*
X53026762Y-133183559D02*
X52996473Y-133190502D01*
X76210815Y-158000000D02*
X76210815Y-160000000D01*
X107300702Y-39203337D02*
X107416750Y-39144369D01*
X51237108Y-46952980D02*
X51190086Y-46887018D01*
X13285807Y-11977122D02*
X13322237Y-12041103D01*
X7048335Y-76539265D02*
X7070824Y-76650985D01*
X7075788Y-48829934D02*
X7052819Y-48939509D01*
X117061837Y-132670458D02*
X116992290Y-132611085D01*
X13285807Y-72872477D02*
X13246378Y-72934448D01*
X9921345Y-39498988D02*
X10000000Y-39500000D01*
X76210815Y-81000000D02*
X48810815Y-81000000D01*
X116864666Y-51519669D02*
X116913812Y-51465513D01*
X13385707Y-112174897D02*
X13355570Y-112242603D01*
X10677762Y-112308496D02*
X10644429Y-112242603D01*
X121492105Y-51082994D02*
X121550104Y-51104494D01*
X13246378Y-72934448D02*
X13204048Y-72994309D01*
X13007709Y-33710685D02*
X12952363Y-33758518D01*
X117730380Y-14475832D02*
X117637709Y-14455951D01*
X11941102Y-172248864D02*
X11863473Y-172243869D01*
X116510091Y-92174926D02*
X116504513Y-92117220D01*
X116600453Y-53040795D02*
X116575296Y-52970555D01*
X7033924Y-167550069D02*
X7019150Y-167661508D01*
X12643003Y-112955170D02*
X12575297Y-112985307D01*
X122444850Y-92403091D02*
X122426872Y-92462712D01*
X122460296Y-171342936D02*
X122444850Y-171403091D01*
X13385707Y-91174702D02*
X13412549Y-91244122D01*
X8713993Y-78711158D02*
X8815223Y-78756971D01*
X9736234Y-86011611D02*
X9624271Y-86023614D01*
X116992290Y-172111085D02*
X116926502Y-172047645D01*
X8251111Y-165562523D02*
X8161087Y-165629705D01*
X9460760Y-39451667D02*
X9573931Y-39469975D01*
X73244678Y-133178503D02*
X73199525Y-133189892D01*
X126499463Y-95221300D02*
X126499463Y-120500000D01*
X108968825Y-76431415D02*
X108982908Y-76319841D01*
X10564003Y-111164721D02*
X10587450Y-111093682D01*
X52996473Y-133190502D02*
X52950195Y-133197374D01*
X12434842Y-34035596D02*
X12362290Y-34055551D01*
X10795951Y-112494309D02*
X10753621Y-112434448D01*
X124490484Y-174337627D02*
X124496128Y-174287923D01*
X109098901Y-175766418D02*
X109130547Y-175706009D01*
X10614292Y-71524260D02*
X10644429Y-71456553D01*
X13385707Y-32024260D02*
X13412549Y-32093682D01*
X10888914Y-11742290D02*
X10939350Y-11689350D01*
X109623043Y-175273784D02*
X109686999Y-175250258D01*
X121833769Y-51253069D02*
X121884352Y-51288413D01*
X13158918Y-51297636D02*
X13204048Y-51355290D01*
X48810815Y-46500000D02*
X48810815Y-44500000D01*
X122460296Y-91657063D02*
X122473210Y-91717670D01*
X11941102Y-192098464D02*
X11863473Y-192093469D01*
X108947180Y-195060490D02*
X108968825Y-194931415D01*
X124041537Y-128148712D02*
X123990752Y-128070460D01*
X8422875Y-157552478D02*
X8517736Y-157608828D01*
X122154994Y-92957099D02*
X122114148Y-93004362D01*
X122329638Y-130805745D02*
X122357745Y-130862427D01*
X9736234Y-165011611D02*
X9624271Y-165023614D01*
X72093436Y-14699857D02*
X72035334Y-14695754D01*
X117547252Y-130069541D02*
X117619434Y-130048704D01*
X12288321Y-14222314D02*
X12213034Y-14234986D01*
X13322237Y-91041103D02*
X13355570Y-91106996D01*
X121445023Y-172432495D02*
X121373345Y-172452831D01*
X7659083Y-156876366D02*
X7729332Y-156960702D01*
X122266045Y-130695598D02*
X122299000Y-130750000D01*
X124419050Y-135094104D02*
X124439586Y-135042274D01*
X13111085Y-92757709D02*
X13060650Y-92810650D01*
X11494122Y-53662549D02*
X11424702Y-53635707D01*
X14470815Y-118500000D02*
X14470815Y-120500000D01*
X53375835Y-93353450D02*
X53364272Y-93385500D01*
X10614292Y-131825297D02*
X10587450Y-131755877D01*
X124135531Y-49309475D02*
X124089806Y-49228405D01*
X48810815Y-39500000D02*
X76210815Y-39500000D01*
X19470815Y-199500000D02*
X19470815Y-197500000D01*
X8437820Y-125938851D02*
X8343392Y-125998890D01*
X53400000Y-9500000D02*
X53399990Y-14203056D01*
X109391965Y-135906099D02*
X109447783Y-135866310D01*
X12505877Y-113012149D02*
X12434842Y-113035596D01*
X12058897Y-172248864D02*
X12000000Y-172250000D01*
X109949630Y-56701268D02*
X110000000Y-56700000D01*
X122021451Y-126073475D02*
X121929539Y-126009247D01*
X7410193Y-87485805D02*
X7355630Y-87583249D01*
X116510091Y-170825073D02*
X116520882Y-170749163D01*
X73551892Y-132913885D02*
X73530067Y-132954932D01*
X123674133Y-9175481D02*
X123621300Y-9121300D01*
X117195879Y-11733538D02*
X117258868Y-11695596D01*
X11227122Y-90464192D02*
X11291103Y-90427762D01*
X116575296Y-52970555D02*
X116553583Y-52898750D01*
X7000038Y-137951233D02*
X7000011Y-149838519D01*
X124286240Y-16817907D02*
X124316096Y-16777900D01*
X121063593Y-93498656D02*
X121000000Y-93500000D01*
X9460760Y-78951667D02*
X9573931Y-78969975D01*
X122357745Y-51862427D02*
X122383319Y-51919965D01*
X13007709Y-191710685D02*
X12952363Y-191758518D01*
X12136526Y-90256130D02*
X12213034Y-90265013D01*
X7391192Y-37982308D02*
X7447545Y-38077169D01*
X122357745Y-53137572D02*
X122329638Y-53194254D01*
X121558102Y-125796662D02*
X121490709Y-125765259D01*
X109292900Y-96492900D02*
X109338778Y-96449820D01*
X12952363Y-112758518D02*
X12894709Y-112803648D01*
X10714192Y-11977122D02*
X10753621Y-11915151D01*
X73756154Y-46963433D02*
X73715646Y-47033210D01*
X73199525Y-93689892D02*
X73153307Y-93697050D01*
X118340815Y-41500000D02*
X101580815Y-41500000D01*
X121288265Y-172472075D02*
X121214230Y-172484651D01*
X109000019Y-176193687D02*
X109001604Y-176143357D01*
X71755184Y-14561950D02*
X71729649Y-14535789D01*
X7070824Y-37150985D02*
X7097409Y-37261164D01*
X116704800Y-13757066D02*
X116660702Y-13676182D01*
X123765511Y-175164099D02*
X123848089Y-175137447D01*
X10939350Y-171810650D02*
X10888914Y-171757709D01*
X51779247Y-133185215D02*
X51737257Y-133172807D01*
X13204048Y-53144709D02*
X13158918Y-53202363D01*
X13412549Y-32093682D02*
X13435996Y-32164721D01*
X11941102Y-93248864D02*
X11863473Y-93243869D01*
X117805982Y-53987566D02*
X117730380Y-53975832D01*
X73600000Y-166000000D02*
X73600000Y-172199900D01*
X10677762Y-33308496D02*
X10644429Y-33242603D01*
X121933487Y-14174155D02*
X121884352Y-14211586D01*
X11786965Y-152584586D02*
X11711678Y-152571914D01*
X71619563Y-53838835D02*
X71610479Y-53802204D01*
X124419050Y-56094104D02*
X124439586Y-56042274D01*
X12000000Y-14250000D02*
X11941102Y-14248864D01*
X124077900Y-135516096D02*
X124142199Y-135466527D01*
X53350558Y-53916681D02*
X53334740Y-53946881D01*
X13412549Y-151605477D02*
X13385707Y-151674897D01*
X12434842Y-192035596D02*
X12362290Y-192055551D01*
X13472314Y-12461678D02*
X13484986Y-12536965D01*
X13493869Y-32736126D02*
X13484986Y-32812634D01*
X73199525Y-14689892D02*
X73153307Y-14697050D01*
X7162533Y-116476571D02*
X7200907Y-116581631D01*
X116818172Y-130576181D02*
X116864666Y-130519669D01*
X10888914Y-71091850D02*
X10939350Y-71038912D01*
X122444850Y-12596908D02*
X122460296Y-12657063D01*
X10888914Y-152107309D02*
X10841081Y-152051963D01*
X73603871Y-126412076D02*
X73600000Y-126500000D01*
X50562298Y-86013259D02*
X50481679Y-86003340D01*
X122329638Y-53194254D02*
X122299000Y-53250000D01*
X122406362Y-91478279D02*
X122426872Y-91537287D01*
X5000000Y-172451233D02*
X5000000Y-163000000D01*
X74155282Y-86104344D02*
X74084571Y-86143080D01*
X10677762Y-51541103D02*
X10714192Y-51477122D01*
X121373345Y-90547168D02*
X121433162Y-90563872D01*
X7133773Y-167114180D02*
X7102788Y-167221455D01*
X12772877Y-129964192D02*
X12834848Y-130003621D01*
X101580815Y-5000000D02*
X126499463Y-5000000D01*
X12136526Y-73593469D02*
X12058897Y-73598464D01*
X53279245Y-133025741D02*
X53255823Y-133051162D01*
X101580815Y-44500000D02*
X124499463Y-44500000D01*
X9238868Y-118402597D02*
X9349045Y-118429180D01*
X10753621Y-110764707D02*
X10795951Y-110704847D01*
X121249181Y-125668698D02*
X121160973Y-125639322D01*
X109887167Y-96206385D02*
X109949630Y-96201268D01*
X51477854Y-93467925D02*
X51459260Y-93436183D01*
X12000000Y-73599600D02*
X11941102Y-73598464D01*
X109001604Y-97143357D02*
X109006385Y-97087167D01*
X51702551Y-133159388D02*
X51669148Y-133143515D01*
X118340815Y-199500000D02*
X101580815Y-199500000D01*
X122266045Y-132304401D02*
X122231012Y-132357078D01*
X10527685Y-150811250D02*
X10544048Y-150737276D01*
X116818172Y-170076181D02*
X116864666Y-170019669D01*
X121319039Y-125694148D02*
X121249181Y-125668698D01*
X121251367Y-169521179D02*
X121312723Y-169532924D01*
X51396659Y-7918320D02*
X51386740Y-7837701D01*
X10515013Y-111386543D02*
X10527685Y-111311250D01*
X12894709Y-53454048D02*
X12834848Y-53496378D01*
X5000000Y-14451233D02*
X5000000Y-5000000D01*
X12894709Y-73303648D02*
X12834848Y-73345978D01*
X109206099Y-17591965D02*
X109245685Y-17543499D01*
X122499544Y-170963006D02*
X122499544Y-171036993D01*
X11494122Y-132662549D02*
X11424702Y-132635707D01*
X12136526Y-50756130D02*
X12213034Y-50765013D01*
X11863473Y-110105729D02*
X11941102Y-110100735D01*
X11637709Y-31143643D02*
X11711678Y-31127282D01*
X8918409Y-118299105D02*
X9023467Y-118337476D01*
X126499463Y-169221300D02*
X124499462Y-169221300D01*
X51316590Y-7600209D02*
X51281441Y-7527735D01*
X11356996Y-129894429D02*
X11424702Y-129864292D01*
X12362290Y-93205951D02*
X12288321Y-93222314D01*
X73288484Y-54163001D02*
X73244678Y-54178503D01*
X51459260Y-93436183D02*
X51442990Y-93403009D01*
X124142199Y-56466527D02*
X124179865Y-56433324D01*
X116704800Y-132257066D02*
X116660702Y-132176182D01*
X81210815Y-46500008D02*
X81210815Y-44500000D01*
X117134951Y-132725569D02*
X117061837Y-132670458D01*
X7447545Y-77577169D02*
X7507243Y-77669740D01*
X9624271Y-165023614D02*
X9513113Y-165039767D01*
X8614803Y-197161749D02*
X8713993Y-197211158D01*
X10000000Y-46500000D02*
X9848893Y-46503805D01*
X13500000Y-131250000D02*
X13498864Y-131308897D01*
X12772877Y-149813769D02*
X12834848Y-149853195D01*
X50724749Y-7054212D02*
X50647511Y-7031121D01*
X117134951Y-11774430D02*
X117195879Y-11733538D01*
X13111085Y-191607309D02*
X13060650Y-191660250D01*
X122193972Y-170092008D02*
X122231012Y-170142921D01*
X12772877Y-110313769D02*
X12834848Y-110353195D01*
X109039270Y-96922545D02*
X109056243Y-96869395D01*
X121674032Y-172340032D02*
X121595776Y-172376620D01*
X121433162Y-130063872D02*
X121492105Y-130082994D01*
X71919748Y-93666411D02*
X71891266Y-93654364D01*
X51190086Y-86387018D02*
X51137585Y-86324759D01*
X11356996Y-189244012D02*
X11424702Y-189213878D01*
X71601046Y-53732511D02*
X71600000Y-53699900D01*
X73288484Y-93663001D02*
X73244678Y-93678503D01*
X51442990Y-14403009D02*
X51429153Y-14368512D01*
X13385707Y-171325297D02*
X13355570Y-171393003D01*
X117134951Y-90774430D02*
X117195879Y-90733538D01*
X10500000Y-131250000D02*
X10501135Y-131191102D01*
X116500126Y-91980306D02*
X116503140Y-91902153D01*
X51521566Y-93526663D02*
X51498660Y-93498122D01*
X122460296Y-131157063D02*
X122473210Y-131217670D01*
X5000000Y-98451233D02*
X7000038Y-98451233D01*
X109056243Y-136369395D02*
X109076137Y-136317312D01*
X121833769Y-53746930D02*
X121781808Y-53780146D01*
X12362290Y-34055551D02*
X12288321Y-34071914D01*
X124499462Y-50721300D02*
X124499463Y-50685828D01*
X122357745Y-13637572D02*
X122329638Y-13694254D01*
X109887167Y-17206385D02*
X109949630Y-17201268D01*
X10564003Y-191034442D02*
X10544048Y-190961890D01*
X9804307Y-78993719D02*
X9921345Y-78998988D01*
X73530067Y-93454932D02*
X73504440Y-93493889D01*
X52996473Y-93690502D02*
X52950195Y-93697374D01*
X122357745Y-171637572D02*
X122329638Y-171694254D01*
X122266045Y-13804401D02*
X122231012Y-13857078D01*
X10795951Y-191494309D02*
X10753621Y-191434448D01*
X117863473Y-169506130D02*
X117941102Y-169501135D01*
X116660702Y-13676182D02*
X116628954Y-13609370D01*
X117805982Y-132987566D02*
X117730380Y-132975832D01*
X109000000Y-194500000D02*
X109000019Y-176193687D01*
X11863473Y-129756130D02*
X11941102Y-129751135D01*
X52950195Y-93697374D02*
X52903156Y-93699890D01*
X71619563Y-132838835D02*
X71610479Y-132802204D01*
X11165151Y-189353195D02*
X11227122Y-189313769D01*
X53393867Y-53777971D02*
X53386663Y-53814605D01*
X13493869Y-151236126D02*
X13484986Y-151312634D01*
X12834848Y-51003621D02*
X12894709Y-51045951D01*
X13498864Y-12808897D02*
X13493869Y-12886526D01*
X123518923Y-135699821D02*
X123600391Y-135694948D01*
X10587450Y-71593682D02*
X10614292Y-71524260D01*
X120502434Y-7010018D02*
X120427327Y-7004812D01*
X12362290Y-172205951D02*
X12288321Y-172222314D01*
X74524570Y-7002847D02*
X74450020Y-7011311D01*
X11711678Y-110127282D02*
X11786965Y-110114611D01*
X13498864Y-91808897D02*
X13493869Y-91886526D01*
X117258868Y-169695596D02*
X117323817Y-169660702D01*
X107530245Y-39080355D02*
X107656607Y-39001109D01*
X13385707Y-33174897D02*
X13355570Y-33242603D01*
X11565157Y-169314003D02*
X11637709Y-169294048D01*
X7825866Y-7932881D02*
X7749440Y-8016357D01*
X8632682Y-125829736D02*
X8534286Y-125882451D01*
X13484986Y-170963034D02*
X13472314Y-171038321D01*
X13484986Y-91963034D02*
X13472314Y-92038321D01*
X12575297Y-189213878D02*
X12643003Y-189244012D01*
X117941102Y-130001135D02*
X118000000Y-130000000D01*
X121595776Y-14376620D02*
X121527022Y-14404388D01*
X10714192Y-110826678D02*
X10753621Y-110764707D01*
X12000000Y-11250000D02*
X12058897Y-11251135D01*
X76210815Y-160000000D02*
X48810815Y-160000000D01*
X12952363Y-169591081D02*
X13007709Y-169638914D01*
X43810815Y-158000000D02*
X43810815Y-160000000D01*
X11047636Y-110440649D02*
X11105290Y-110395521D01*
X116503140Y-12902153D02*
X116510091Y-12825073D01*
X11291103Y-152421837D02*
X11227122Y-152385407D01*
X12213034Y-132734986D02*
X12136526Y-132743869D01*
X74298799Y-86046450D02*
X74228788Y-86071466D01*
X121657724Y-125846896D02*
X121558102Y-125796662D01*
X124286240Y-174817907D02*
X124316096Y-174777900D01*
X10841081Y-189647195D02*
X10888914Y-189591850D01*
X5000000Y-75838519D02*
X7000000Y-75838519D01*
X96580815Y-81000000D02*
X81210815Y-81000000D01*
X124398394Y-16639157D02*
X124419050Y-16594104D01*
X51637160Y-93625301D02*
X51606698Y-93604856D01*
X71979247Y-93685215D02*
X71919748Y-93666411D01*
X10795951Y-171644709D02*
X10753621Y-171584848D01*
X123340815Y-199500000D02*
X123340815Y-175199823D01*
X7001011Y-194578658D02*
X7006281Y-194695703D01*
X117730380Y-172475832D02*
X117637709Y-172455951D01*
X73901878Y-86284033D02*
X73849820Y-86338778D01*
X10000000Y-158000000D02*
X14470815Y-158000000D01*
X9023467Y-39337476D02*
X9130315Y-39372001D01*
X51396659Y-165918320D02*
X51386740Y-165837701D01*
X8632682Y-86329736D02*
X8534286Y-86382451D01*
X7391192Y-156482308D02*
X7447545Y-156577169D01*
X124499463Y-163000000D02*
X126499463Y-163000000D01*
X96580815Y-160000000D02*
X81210815Y-160000000D01*
X10544048Y-130887709D02*
X10564003Y-130815157D01*
X121089739Y-125617786D02*
X120999913Y-125593343D01*
X121662989Y-169654467D02*
X121717735Y-169682860D01*
X11105290Y-13954048D02*
X11047636Y-13908918D01*
X51577873Y-54082292D02*
X51550797Y-54057720D01*
X7729332Y-156960702D02*
X7802565Y-157042387D01*
X10939350Y-13810650D02*
X10888914Y-13757709D01*
X13322237Y-191308496D02*
X13285807Y-191372477D01*
X71610479Y-172302204D02*
X71605005Y-172270904D01*
X107044236Y-197312375D02*
X107182274Y-197257188D01*
X53232998Y-133072866D02*
X53208984Y-133092989D01*
X13472314Y-91461678D02*
X13484986Y-91536965D01*
X7659083Y-38376366D02*
X7729332Y-38460702D01*
X124316096Y-56277900D02*
X124347164Y-56231310D01*
X121981104Y-90865323D02*
X122027133Y-90906808D01*
X51347782Y-126181118D02*
X51316590Y-126100209D01*
X11565157Y-132685996D02*
X11494122Y-132662549D01*
X124497085Y-50610329D02*
X124491458Y-50516315D01*
X53208984Y-172592989D02*
X53181297Y-172613253D01*
X8330303Y-117992782D02*
X8422875Y-118052478D01*
X53386663Y-132814605D02*
X53375835Y-132853450D01*
X10506130Y-131113473D02*
X10515013Y-131036965D01*
X71640511Y-172397348D02*
X71619563Y-172338835D01*
X116535412Y-171325477D02*
X116520882Y-171250836D01*
X116628954Y-92609370D02*
X116600453Y-92540795D01*
X13007709Y-70988479D02*
X13060650Y-71038912D01*
X10714192Y-169977122D02*
X10753621Y-169915151D01*
X108635531Y-156433124D02*
X108695225Y-156317430D01*
X13246378Y-171584848D02*
X13204048Y-171644709D01*
X13111085Y-31591850D02*
X13158918Y-31647195D01*
X117258868Y-130195596D02*
X117323817Y-130160702D01*
X124285635Y-10129000D02*
X124249811Y-10043268D01*
X109752488Y-135731121D02*
X109819286Y-135716465D01*
X7288858Y-116786049D02*
X7338269Y-116885240D01*
X14470815Y-199500000D02*
X5000000Y-199500000D01*
X122378700Y-47378700D02*
X122324518Y-47325866D01*
X116628954Y-12390629D02*
X116660702Y-12323817D01*
X109006385Y-176087167D02*
X109014290Y-176031554D01*
X51477854Y-53967925D02*
X51459260Y-53936183D01*
X12505877Y-93162549D02*
X12434842Y-93185996D01*
X13060650Y-51189350D02*
X13111085Y-51242290D01*
X121251367Y-90521179D02*
X121312723Y-90532924D01*
X120999913Y-7093343D02*
X120927465Y-7075788D01*
X120595891Y-125519150D02*
X120502434Y-125510018D01*
X11494122Y-189187040D02*
X11565157Y-189163595D01*
X107969479Y-38762965D02*
X108067118Y-38674133D01*
X50805461Y-86085903D02*
X50724749Y-86054212D01*
X109447783Y-56866310D02*
X109500622Y-56833629D01*
X5000000Y-123500000D02*
X7000000Y-123500000D01*
X121492105Y-11582994D02*
X121550104Y-11604494D01*
X71782559Y-133086195D02*
X71755184Y-133061950D01*
X116520882Y-52750836D02*
X116510091Y-52674926D01*
X122499544Y-171036993D02*
X122496758Y-171098602D01*
X51400671Y-53726031D02*
X51400000Y-47500000D01*
X121981104Y-53634676D02*
X121933487Y-53674155D01*
X10644429Y-112242603D02*
X10614292Y-112174897D01*
X71671405Y-14457510D02*
X71653573Y-14425279D01*
X124499463Y-81000000D02*
X123340815Y-81000000D01*
X5000000Y-31338519D02*
X5000000Y-19451233D01*
X13158918Y-150147195D02*
X13204048Y-150204847D01*
X121492105Y-90582994D02*
X121550104Y-90604494D01*
X71671405Y-172457510D02*
X71653573Y-172425279D01*
X123990752Y-9570460D02*
X123948329Y-9508938D01*
X108067118Y-38674133D02*
X108161065Y-38580775D01*
X108849253Y-76938971D02*
X108887323Y-76814441D01*
X53386663Y-172314605D02*
X53375835Y-172353450D01*
X109819286Y-175216465D02*
X109887167Y-175206385D01*
X10939350Y-189538912D02*
X10992290Y-189488479D01*
X12708896Y-172072237D02*
X12643003Y-172105570D01*
X12643003Y-33955170D02*
X12575297Y-33985307D01*
X73444566Y-14562208D02*
X73408984Y-14592989D01*
X122406362Y-132021720D02*
X122383319Y-132080034D01*
X53091350Y-54161825D02*
X53059444Y-54173787D01*
X12643003Y-172105570D02*
X12575297Y-172135707D01*
X51409229Y-132795998D02*
X51403364Y-132758202D01*
X124490484Y-134837627D02*
X124496128Y-134787923D01*
X122473210Y-170717670D02*
X122483591Y-170778649D01*
X13355570Y-170106996D02*
X13385707Y-170174702D01*
X122154994Y-91042900D02*
X122193972Y-91092008D01*
X117291103Y-14322237D02*
X117211437Y-14276227D01*
X10614292Y-190024260D02*
X10644429Y-189956553D01*
X13500000Y-72099600D02*
X13498864Y-72158497D01*
X10644429Y-71456553D02*
X10677762Y-71390659D01*
X73504440Y-53993889D02*
X73475128Y-54030471D01*
X51281441Y-165527735D02*
X51237108Y-165452980D01*
X12708896Y-152421837D02*
X12643003Y-152455170D01*
X13435996Y-171184842D02*
X13412549Y-171255877D01*
X71671405Y-93457510D02*
X71653573Y-93425279D01*
X10714192Y-51477122D02*
X10753621Y-51415151D01*
X11941102Y-113098464D02*
X11863473Y-113093469D01*
X10677762Y-150390659D02*
X10714192Y-150326678D01*
X121527022Y-93404388D02*
X121445023Y-93432495D01*
X116600453Y-132040795D02*
X116575296Y-131970555D01*
X106263765Y-157988388D02*
X106394313Y-157973980D01*
X19470815Y-123500000D02*
X43810815Y-123500000D01*
X109338778Y-96449820D02*
X109391965Y-96406099D01*
X48810815Y-197500000D02*
X76210815Y-197500000D01*
X13285807Y-90977122D02*
X13322237Y-91041103D01*
X116806974Y-92909333D02*
X116753621Y-92834848D01*
X124250179Y-174861221D02*
X124286240Y-174817907D01*
X11565157Y-149663595D02*
X11637709Y-149643643D01*
X117805982Y-14487566D02*
X117730380Y-14475832D01*
X51281441Y-7527735D02*
X51237108Y-7452980D01*
X109006385Y-97087167D02*
X109014290Y-97031554D01*
X73654212Y-47175250D02*
X73631121Y-47252488D01*
X7070824Y-76650985D02*
X7097409Y-76761164D01*
X10564003Y-150664721D02*
X10587450Y-150593682D01*
X10564003Y-130815157D02*
X10587450Y-130744122D01*
X108415474Y-156779152D02*
X108490752Y-156672139D01*
X52950195Y-54197374D02*
X52903156Y-54199890D01*
X121063593Y-169501343D02*
X121126732Y-169505348D01*
X12643003Y-73455170D02*
X12575297Y-73485307D01*
X121433162Y-11563872D02*
X121492105Y-11582994D01*
X13007709Y-171861085D02*
X12952363Y-171908918D01*
X124316096Y-95777900D02*
X124347164Y-95731310D01*
X10506130Y-91886526D02*
X10501135Y-91808897D01*
X13455951Y-52612290D02*
X13435996Y-52684842D01*
X13158918Y-73051963D02*
X13111085Y-73107309D01*
X51442990Y-93403009D02*
X51429153Y-93368512D01*
X123948329Y-88508938D02*
X123893080Y-88433438D01*
X10644429Y-130606996D02*
X10677762Y-130541103D01*
X13500000Y-190599600D02*
X13498864Y-190658497D01*
X13246378Y-33434448D02*
X13204048Y-33494309D01*
X107656607Y-39001109D02*
X107764051Y-38926524D01*
X124318791Y-128715808D02*
X124285635Y-128629000D01*
X51281441Y-126027735D02*
X51237108Y-125952980D01*
X74298799Y-165046450D02*
X74228788Y-165071466D01*
X124372501Y-135188586D02*
X124398394Y-135139157D01*
X73598576Y-93237614D02*
X73593370Y-93281049D01*
X13158918Y-112551963D02*
X13111085Y-112607309D01*
X74228788Y-7071466D02*
X74155282Y-7104344D01*
X10506130Y-131386526D02*
X10501135Y-131308897D01*
X13158918Y-169797636D02*
X13204048Y-169855290D01*
X10992290Y-73210685D02*
X10939350Y-73160250D01*
X13007709Y-132361085D02*
X12952363Y-132408918D01*
X109752488Y-175231121D02*
X109819286Y-175216465D01*
X12575297Y-152485307D02*
X12505877Y-152512149D01*
X73593370Y-14281049D02*
X73583662Y-14326659D01*
X123765511Y-17164099D02*
X123848089Y-17137447D01*
X108415474Y-77779152D02*
X108490752Y-77672139D01*
X124347164Y-95731310D02*
X124372501Y-95688586D01*
X10614292Y-112174897D02*
X10587450Y-112105477D01*
X5000000Y-70838519D02*
X5000000Y-58951233D01*
X118000000Y-14500000D02*
X117902153Y-14496859D01*
X108805851Y-37561639D02*
X108849253Y-37438971D01*
X116753621Y-132334848D02*
X116704800Y-132257066D01*
X96580815Y-7000028D02*
X81210815Y-7000008D01*
X51281441Y-47027735D02*
X51237108Y-46952980D01*
X122114148Y-169995637D02*
X122154994Y-170042900D01*
X109560842Y-56801605D02*
X109623043Y-56773784D01*
X121929539Y-165509247D02*
X121851287Y-165458462D01*
X53298868Y-133001404D02*
X53279245Y-133025741D01*
X109006385Y-18087167D02*
X109014290Y-18031554D01*
X116774430Y-51634951D02*
X116818172Y-51576181D01*
X51702551Y-14659388D02*
X51669148Y-14643515D01*
X124499463Y-84000000D02*
X126499463Y-84000000D01*
X53091350Y-172661825D02*
X53059444Y-172673787D01*
X10614292Y-170174702D02*
X10644429Y-170106996D01*
X10527685Y-32311250D02*
X10544048Y-32237276D01*
X12136526Y-172243869D02*
X12058897Y-172248864D01*
X11637709Y-14205951D02*
X11565157Y-14185996D01*
X121851287Y-125958462D02*
X121755488Y-125900844D01*
X51521566Y-133026663D02*
X51498660Y-132998122D01*
X48810815Y-165000000D02*
X48810815Y-163000000D01*
X13111085Y-73107309D02*
X13060650Y-73160250D01*
X7288858Y-156286049D02*
X7338269Y-156385240D01*
X121089739Y-7117786D02*
X120999913Y-7093343D01*
X10939350Y-191660250D02*
X10888914Y-191607309D01*
X11356996Y-70744012D02*
X11424702Y-70713878D01*
X101580815Y-165000035D02*
X101580815Y-163000000D01*
X122071505Y-53549740D02*
X122027133Y-53593191D01*
X106523741Y-39453934D02*
X106651876Y-39428320D01*
X73530067Y-132954932D02*
X73504440Y-132993889D01*
X7000038Y-177451233D02*
X7000011Y-189338519D01*
X123518923Y-56699821D02*
X123600391Y-56694948D01*
X13285807Y-71326678D02*
X13322237Y-71390659D01*
X50562298Y-165013259D02*
X50481679Y-165003340D01*
X124482389Y-16386834D02*
X124490484Y-16337627D01*
X122357745Y-92637572D02*
X122329638Y-92694254D01*
X13158918Y-53202363D02*
X13111085Y-53257709D01*
X7988243Y-47274537D02*
X7905641Y-47352096D01*
X7006281Y-115695703D02*
X7015980Y-115811541D01*
X122426872Y-131037287D02*
X122444850Y-131096908D01*
X74084571Y-125643080D02*
X74022099Y-125683903D01*
X11565157Y-11314003D02*
X11637709Y-11294048D01*
X116520882Y-131249163D02*
X116535412Y-131174522D01*
X121063593Y-132998656D02*
X121000000Y-133000000D01*
X123990752Y-88570460D02*
X123948329Y-88508938D01*
X116926502Y-132547645D02*
X116864666Y-132480330D01*
X51779247Y-54185215D02*
X51737257Y-54172807D01*
X5000000Y-199500000D02*
X5000000Y-194338519D01*
X12643003Y-14105570D02*
X12575297Y-14135707D01*
X117637709Y-14455951D02*
X117547252Y-14430458D01*
X12362290Y-50794048D02*
X12434842Y-50814003D01*
X122357745Y-12362427D02*
X122383319Y-12419965D01*
X12894709Y-189395521D02*
X12952363Y-189440649D01*
X10527685Y-170461678D02*
X10544048Y-170387709D01*
X122383319Y-91419965D02*
X122406362Y-91478279D01*
X124349253Y-89303628D02*
X124318791Y-89215808D01*
X10587450Y-171255877D02*
X10564003Y-171184842D01*
X117863473Y-90506130D02*
X117941102Y-90501135D01*
X12575297Y-93135707D02*
X12505877Y-93162549D01*
X13060650Y-132310650D02*
X13007709Y-132361085D01*
X13007709Y-169638914D02*
X13060650Y-169689350D01*
X5000000Y-120500000D02*
X5000000Y-115338519D01*
X121160973Y-86139322D02*
X121089739Y-86117786D01*
X11227122Y-53535807D02*
X11165151Y-53496378D01*
X13007709Y-53361085D02*
X12952363Y-53408918D01*
X117291103Y-172322237D02*
X117211437Y-172276227D01*
X122473210Y-52782329D02*
X122460296Y-52842936D01*
X12362290Y-189143643D02*
X12434842Y-189163595D01*
X13493869Y-71963058D02*
X13498864Y-72040695D01*
X10795951Y-150204847D02*
X10841081Y-150147195D01*
X7355630Y-87583249D02*
X7304774Y-87682569D01*
X117211437Y-53776227D02*
X117134951Y-53725569D01*
X9185558Y-46612676D02*
X9078708Y-46644979D01*
X10992290Y-90638914D02*
X11047636Y-90591081D01*
X10614292Y-51674702D02*
X10644429Y-51606996D01*
X10500000Y-12750000D02*
X10501135Y-12691102D01*
X8632682Y-7329736D02*
X8534286Y-7382451D01*
X13493869Y-52386526D02*
X13484986Y-52463034D01*
X109000019Y-136693687D02*
X109001604Y-136643357D01*
X74022099Y-125683903D02*
X73957800Y-125733472D01*
X12434842Y-169314003D02*
X12505877Y-169337450D01*
X14470815Y-7000000D02*
X10000000Y-7000000D01*
X71919748Y-54166411D02*
X71891266Y-54154364D01*
X53334740Y-14446881D02*
X53318574Y-14473389D01*
X121000000Y-172500000D02*
X118000000Y-172500000D01*
X10888914Y-51242290D02*
X10939350Y-51189350D01*
X11494122Y-14162549D02*
X11424702Y-14135707D01*
X109206099Y-96591965D02*
X109245685Y-96543499D01*
X10992290Y-171861085D02*
X10939350Y-171810650D01*
X51403364Y-132758202D02*
X51400671Y-132726031D01*
X108992818Y-36707516D02*
X108998511Y-36594550D01*
X74600000Y-86000000D02*
X74524570Y-86002847D01*
X10888914Y-150091850D02*
X10939350Y-150038912D01*
X13285807Y-51477122D02*
X13322237Y-51541103D01*
X51386740Y-47337701D02*
X51370397Y-47258510D01*
X7000000Y-194338519D02*
X7000000Y-194500000D01*
X12434842Y-50814003D02*
X12505877Y-50837450D01*
X48810815Y-44500000D02*
X76210815Y-44500000D01*
X12894709Y-149895521D02*
X12952363Y-149940649D01*
X10753621Y-53084848D02*
X10714192Y-53022877D01*
X126499463Y-11221300D02*
X124499462Y-11221300D01*
X13204048Y-151994309D02*
X13158918Y-152051963D01*
X51637160Y-54125301D02*
X51606698Y-54104856D01*
X116500126Y-131480306D02*
X116503140Y-131402153D01*
X122114148Y-132504362D02*
X122071505Y-132549740D01*
X108490752Y-196172139D02*
X108561148Y-196062179D01*
X122473210Y-171282329D02*
X122460296Y-171342936D01*
X122496758Y-131401397D02*
X122499544Y-131463006D01*
X13060650Y-13810650D02*
X13007709Y-13861085D01*
X8152362Y-157363686D02*
X8240105Y-157429823D01*
X116575296Y-170529444D02*
X116600453Y-170459204D01*
X13246378Y-151934448D02*
X13204048Y-151994309D01*
X124077900Y-56516096D02*
X124142199Y-56466527D01*
X7391192Y-195982308D02*
X7447545Y-196077169D01*
X10515013Y-52463034D02*
X10506130Y-52386526D01*
X73600000Y-8000000D02*
X73600000Y-14199900D01*
X117291103Y-93322237D02*
X117211437Y-93276227D01*
X12213034Y-129765013D02*
X12288321Y-129777685D01*
X73600000Y-132699900D02*
X73598576Y-132737614D01*
X12708896Y-31277342D02*
X12772877Y-31313769D01*
X12058897Y-152598464D02*
X12000000Y-152599600D01*
X126499463Y-84000000D02*
X126499463Y-90221300D01*
X124457212Y-174489351D02*
X124470397Y-174441489D01*
X96580815Y-41500000D02*
X81210815Y-41500000D01*
X8834828Y-86235540D02*
X8732899Y-86280751D01*
X120595891Y-7019150D02*
X120502434Y-7010018D01*
X116510091Y-52325073D02*
X116520882Y-52249163D01*
X71600000Y-172199900D02*
X71600000Y-167500000D01*
X71653573Y-14425279D02*
X71640511Y-14397348D01*
X121558102Y-7296662D02*
X121490709Y-7265259D01*
X109338778Y-135949820D02*
X109391965Y-135906099D01*
X10506130Y-32736126D02*
X10501135Y-32658497D01*
X74155282Y-165104344D02*
X74084571Y-165143080D01*
X13246378Y-132084848D02*
X13204048Y-132144709D01*
X117195879Y-130233538D02*
X117258868Y-130195596D01*
X8534286Y-165382451D02*
X8437820Y-165438851D01*
X11494122Y-169337450D02*
X11565157Y-169314003D01*
X74022099Y-165183903D02*
X73957800Y-165233472D01*
X109025268Y-175976639D02*
X109039270Y-175922545D01*
X10714192Y-151872477D02*
X10677762Y-151808496D01*
X121884352Y-90788413D02*
X121933487Y-90825844D01*
X19470815Y-118500000D02*
X43810815Y-118500000D01*
X51669148Y-54143515D02*
X51637160Y-54125301D01*
X124179865Y-95933324D02*
X124215966Y-95898121D01*
X7002142Y-9886582D02*
X7000059Y-9981063D01*
X51498660Y-132998122D02*
X51477854Y-132967925D01*
X108161065Y-38580775D02*
X108250559Y-38483642D01*
X10501135Y-12691102D02*
X10506130Y-12613473D01*
X71605005Y-172270904D02*
X71601046Y-172232511D01*
X50400000Y-165000000D02*
X48810815Y-165000000D01*
X12505877Y-90337450D02*
X12575297Y-90364292D01*
X11786965Y-149614611D02*
X11863473Y-149605729D01*
X53393867Y-93277971D02*
X53386663Y-93314605D01*
X12288321Y-11277685D02*
X12362290Y-11294048D01*
X124470397Y-55941489D02*
X124482389Y-55886834D01*
X122114148Y-14004362D02*
X122071505Y-14049740D01*
X73715646Y-126033210D02*
X73683409Y-126100209D01*
X122183971Y-47200391D02*
X122096312Y-47129705D01*
X122255135Y-47261941D02*
X122183971Y-47200391D01*
X14470815Y-79000000D02*
X14470815Y-81000000D01*
X12136526Y-192093469D02*
X12058897Y-192098464D01*
X11424702Y-11364292D02*
X11494122Y-11337450D01*
X121851287Y-86458462D02*
X121755488Y-86400844D01*
X108947180Y-155560490D02*
X108968825Y-155431415D01*
X9238868Y-197402597D02*
X9349045Y-197429180D01*
X107416750Y-197144369D02*
X107530245Y-197080355D01*
X116660702Y-171676182D02*
X116628954Y-171609370D01*
X8251111Y-47062523D02*
X8161087Y-47129705D01*
X7097409Y-195261164D02*
X7128006Y-195369721D01*
X48810815Y-86000000D02*
X48810815Y-84000000D01*
X13385707Y-52825297D02*
X13355570Y-52893003D01*
X124499462Y-90221300D02*
X124499463Y-90185828D01*
X107868400Y-117847119D02*
X107969479Y-117762965D01*
X10753621Y-13584848D02*
X10714192Y-13522877D01*
X109001604Y-57643357D02*
X109006385Y-57587167D01*
X43810815Y-120500000D02*
X19470815Y-120500000D01*
X9402869Y-165060025D02*
X9293647Y-165084343D01*
X124496128Y-95287923D02*
X124499285Y-95237806D01*
X73593370Y-53781049D02*
X73583662Y-53826659D01*
X5000000Y-154838519D02*
X7000000Y-154838519D01*
X121933487Y-53674155D02*
X121884352Y-53711586D01*
X13484986Y-12536965D02*
X13493869Y-12613473D01*
X12288321Y-172222314D02*
X12213034Y-172234986D01*
X12834848Y-33845978D02*
X12772877Y-33885407D01*
X11356996Y-149744012D02*
X11424702Y-149713878D01*
X10527685Y-52538321D02*
X10515013Y-52463034D01*
X117786965Y-169515013D02*
X117863473Y-169506130D01*
X12288321Y-152571914D02*
X12213034Y-152584586D01*
X43810815Y-5000000D02*
X43810815Y-7000000D01*
X121251367Y-130021179D02*
X121312723Y-130032924D01*
X10501135Y-52191102D02*
X10506130Y-52113473D01*
X108998511Y-76094550D02*
X109000000Y-76000000D01*
X19470815Y-81000000D02*
X19470815Y-79000000D01*
X121433162Y-169563872D02*
X121492105Y-169582994D01*
X13111085Y-53257709D02*
X13060650Y-53310650D01*
X107182274Y-118257188D02*
X107300702Y-118203337D01*
X13412549Y-130744122D02*
X13435996Y-130815157D01*
X11941102Y-149600735D02*
X12000000Y-149599600D01*
X124499462Y-169221300D02*
X124499463Y-169185828D01*
X12058897Y-113098464D02*
X12000000Y-113099600D01*
X109056243Y-175869395D02*
X109076137Y-175817312D01*
X52950195Y-172697374D02*
X52903156Y-172699890D01*
X122406362Y-53021720D02*
X122383319Y-53080034D01*
X53393867Y-172277971D02*
X53386663Y-172314605D01*
X122460296Y-131842936D02*
X122444850Y-131903091D01*
X124215966Y-95898121D02*
X124250179Y-95861221D01*
X101580815Y-123500000D02*
X124499463Y-123500000D01*
X116575296Y-91529444D02*
X116600453Y-91459204D01*
X116864666Y-171980330D02*
X116806974Y-171909333D01*
X124482908Y-10922758D02*
X124471460Y-10829723D01*
X117195879Y-90733538D02*
X117258868Y-90695596D01*
X12834848Y-53496378D02*
X12772877Y-53535807D01*
X50481679Y-165003340D02*
X50400000Y-165000000D01*
X13060650Y-130189350D02*
X13111085Y-130242290D01*
X10795951Y-53144709D02*
X10753621Y-53084848D01*
X7128006Y-116369721D02*
X7162533Y-116476571D01*
X7102788Y-167221455D02*
X7075788Y-167329934D01*
X7000011Y-189338519D02*
X5000000Y-189338519D01*
X108250559Y-196483642D02*
X108335386Y-196383044D01*
X13455951Y-111961890D02*
X13435996Y-112034442D01*
X124470397Y-174441489D02*
X124482389Y-174386834D01*
X11637709Y-172205951D02*
X11565157Y-172185996D01*
X48810815Y-163000000D02*
X76210815Y-163000000D01*
X81210815Y-125500008D02*
X81210815Y-123500000D01*
X7984581Y-117722206D02*
X8067160Y-117794452D01*
X11424702Y-132635707D02*
X11356996Y-132605570D01*
X121755488Y-46900844D02*
X121657724Y-46846896D01*
X117076181Y-130318172D02*
X117134951Y-130274430D01*
X53181297Y-14613253D02*
X53152388Y-14631511D01*
X53279245Y-14525741D02*
X53255823Y-14551162D01*
X126499463Y-50721300D02*
X124499462Y-50721300D01*
X9804307Y-157993719D02*
X9921345Y-157998988D01*
X51190086Y-46887018D02*
X51137585Y-46824759D01*
X126499463Y-123500000D02*
X126499463Y-129721300D01*
X43810815Y-197500000D02*
X43810815Y-199500000D01*
X53386663Y-14314605D02*
X53375835Y-14353450D01*
X71601046Y-93232511D02*
X71600000Y-93199900D01*
X7000000Y-160000000D02*
X5000000Y-160000000D01*
X109039270Y-175922545D02*
X109056243Y-175869395D01*
X7019150Y-167661508D02*
X7008541Y-167773715D01*
X109000000Y-115500000D02*
X109000019Y-97193687D01*
X13285807Y-130477122D02*
X13322237Y-130541103D01*
X10564003Y-52684842D02*
X10544048Y-52612290D01*
X9460760Y-118451667D02*
X9573931Y-118469975D01*
X73603871Y-165912076D02*
X73600000Y-166000000D01*
X11941102Y-90251135D02*
X12000000Y-90250000D01*
X123787489Y-127801656D02*
X123738058Y-127744864D01*
X9688475Y-157984020D02*
X9804307Y-157993719D01*
X51477854Y-172467925D02*
X51459260Y-172436183D01*
X10939350Y-73160250D02*
X10888914Y-73107309D01*
X121981104Y-93134676D02*
X121933487Y-93174155D01*
X71600000Y-49000000D02*
X53400000Y-49000000D01*
X10564003Y-91315157D02*
X10587450Y-91244122D01*
X71979247Y-14685215D02*
X71919748Y-14666411D01*
X9513113Y-7039767D02*
X9402869Y-7060025D01*
X116575296Y-52029444D02*
X116600453Y-51959204D01*
X7257670Y-87783656D02*
X7207518Y-87903678D01*
X43810815Y-165000000D02*
X19470815Y-165000000D01*
X121249181Y-165168698D02*
X121160973Y-165139322D01*
X122324518Y-126325866D02*
X122255135Y-126261941D01*
X53255823Y-14551162D02*
X53232998Y-14572866D01*
X9349045Y-118429180D02*
X9460760Y-118451667D01*
X8815223Y-118256971D02*
X8918409Y-118299105D01*
X12708896Y-93072237D02*
X12643003Y-93105570D01*
X50647511Y-125531121D02*
X50562298Y-125513259D01*
X11494122Y-70687040D02*
X11565157Y-70663595D01*
X9078708Y-165144979D02*
X8955763Y-165187624D01*
X124490484Y-95337627D02*
X124496128Y-95287923D01*
X10644429Y-52893003D02*
X10614292Y-52825297D01*
X13285807Y-189826678D02*
X13322237Y-189890659D01*
X13007709Y-13861085D02*
X12952363Y-13908918D01*
X43810815Y-199500000D02*
X19470815Y-199500000D01*
X109686999Y-56750258D02*
X109752488Y-56731121D01*
X73654212Y-126175250D02*
X73631121Y-126252488D01*
X10527685Y-111311250D02*
X10544048Y-111237276D01*
X73583662Y-93326659D02*
X73569797Y-93371033D01*
X50724749Y-165054212D02*
X50647511Y-165031121D01*
X124249811Y-128543268D02*
X124211345Y-128458674D01*
X123340815Y-120500000D02*
X123340815Y-96199823D01*
X11227122Y-172035807D02*
X11165151Y-171996378D01*
X117637709Y-93455951D02*
X117547252Y-93430458D01*
X10992290Y-152210685D02*
X10939350Y-152160250D01*
X106651876Y-118428320D02*
X106778544Y-118397211D01*
X13285807Y-13522877D02*
X13246378Y-13584848D01*
X13385707Y-190024260D02*
X13412549Y-190093682D01*
X109006385Y-57587167D02*
X109014290Y-57531554D01*
X51550797Y-93557720D02*
X51521566Y-93526663D01*
X108635531Y-195933124D02*
X108695225Y-195817430D01*
X13355570Y-91106996D02*
X13385707Y-91174702D01*
X124004746Y-96063253D02*
X124077900Y-96016096D01*
X116535412Y-131174522D02*
X116553583Y-131101250D01*
X12952363Y-149940649D02*
X13007709Y-149988479D01*
X116520882Y-92250836D02*
X116510091Y-92174926D01*
X13493869Y-131113473D02*
X13498864Y-131191102D01*
X19470815Y-84000000D02*
X43810815Y-84000000D01*
X106263765Y-197488388D02*
X106394313Y-197473980D01*
X116913812Y-130465513D02*
X116965513Y-130413812D01*
X10992290Y-53361085D02*
X10939350Y-53310650D01*
X11227122Y-149813769D02*
X11291103Y-149777342D01*
X13412549Y-111093682D02*
X13435996Y-111164721D01*
X73615359Y-86825415D02*
X73603871Y-86912076D01*
X51429153Y-93368512D02*
X51417863Y-93332805D01*
X109014290Y-57531554D02*
X109025268Y-57476639D01*
X109098901Y-96766418D02*
X109130547Y-96706009D01*
X117902153Y-14496859D02*
X117805982Y-14487566D01*
X13412549Y-170244122D02*
X13435996Y-170315157D01*
X124490484Y-16337627D02*
X124496128Y-16287923D01*
X13472314Y-71811250D02*
X13484986Y-71886543D01*
X118000000Y-172500000D02*
X117902153Y-172496859D01*
X11863473Y-50756130D02*
X11941102Y-50751135D01*
X109686999Y-175250258D02*
X109752488Y-175231121D01*
X53318574Y-53973389D02*
X53298868Y-54001404D01*
X7468418Y-166390344D02*
X7410193Y-166485805D01*
X126499463Y-81000000D02*
X124499463Y-81000000D01*
X11711678Y-53722314D02*
X11637709Y-53705951D01*
X12434842Y-149663595D02*
X12505877Y-149687040D01*
X116553583Y-91601250D02*
X116575296Y-91529444D01*
X11786965Y-70614611D02*
X11863473Y-70605729D01*
X7048335Y-155539265D02*
X7070824Y-155650985D01*
X51521566Y-14526663D02*
X51498660Y-14498122D01*
X10714192Y-33372477D02*
X10677762Y-33308496D01*
X124318791Y-49715808D02*
X124285635Y-49629000D01*
X124376994Y-168392398D02*
X124349253Y-168303628D01*
X51854496Y-14697856D02*
X51816396Y-14692938D01*
X10515013Y-170536965D02*
X10527685Y-170461678D01*
X13435996Y-12315157D02*
X13455951Y-12387709D01*
X109130547Y-175706009D02*
X109166310Y-175647783D01*
X13246378Y-112434448D02*
X13204048Y-112494309D01*
X8534286Y-86382451D02*
X8437820Y-86438851D01*
X73583662Y-53826659D02*
X73569797Y-53871033D01*
X96580815Y-84000000D02*
X96580815Y-86000028D01*
X13285807Y-171522877D02*
X13246378Y-171584848D01*
X108490752Y-38172139D02*
X108561148Y-38062179D01*
X7355630Y-48083249D02*
X7304774Y-48182569D01*
X117619434Y-51048704D02*
X117711678Y-51027685D01*
X53122368Y-93647717D02*
X53091350Y-93661825D01*
X71891266Y-133154364D02*
X71858323Y-133137698D01*
X13472314Y-111311250D02*
X13484986Y-111386543D01*
X121833769Y-132746930D02*
X121781808Y-132780146D01*
X117619434Y-11548704D02*
X117711678Y-11527685D01*
X10795951Y-92644709D02*
X10753621Y-92584848D01*
X74228788Y-125571466D02*
X74155282Y-125604344D01*
X7606919Y-47690838D02*
X7530260Y-47796976D01*
X116535412Y-170674522D02*
X116553583Y-170601250D01*
X11105290Y-191803648D02*
X11047636Y-191758518D01*
X12058897Y-93248864D02*
X12000000Y-93250000D01*
X9804307Y-118493719D02*
X9921345Y-118498988D01*
X10000000Y-39500000D02*
X14470815Y-39500000D01*
X81210815Y-84000000D02*
X96580815Y-84000000D01*
X73153307Y-93697050D02*
X73109461Y-93699810D01*
X53255823Y-133051162D02*
X53232998Y-133072866D01*
X126499463Y-90221300D02*
X124499462Y-90221300D01*
X74084571Y-86143080D02*
X74022099Y-86183903D01*
X11165151Y-112845978D02*
X11105290Y-112803648D01*
X11424702Y-33985307D02*
X11356996Y-33955170D01*
X8422875Y-78552478D02*
X8517736Y-78608828D01*
X10515013Y-12963034D02*
X10506130Y-12886526D01*
X10888914Y-171757709D02*
X10841081Y-171702363D01*
X52903156Y-93699890D02*
X51893436Y-93699857D01*
X11291103Y-73421837D02*
X11227122Y-73385407D01*
X7984581Y-196722206D02*
X8067160Y-196794452D01*
X10714192Y-150326678D02*
X10753621Y-150264707D01*
X53152388Y-54131511D02*
X53122368Y-54147717D01*
X7659083Y-77876366D02*
X7729332Y-77960702D01*
X53232998Y-14572866D02*
X53208984Y-14592989D01*
X10506130Y-190463058D02*
X10515013Y-190386543D01*
X10644429Y-189956553D02*
X10677762Y-189890659D01*
X8834828Y-125735540D02*
X8732899Y-125780751D01*
X107300702Y-78703337D02*
X107416750Y-78644369D01*
X10515013Y-12536965D02*
X10527685Y-12461678D01*
X107764051Y-157426524D02*
X107868400Y-157347119D01*
X116504513Y-52617220D02*
X116500505Y-52539327D01*
X13158918Y-31647195D02*
X13204048Y-31704847D01*
X109130547Y-136206009D02*
X109166310Y-136147783D01*
X10527685Y-12461678D02*
X10544048Y-12387709D01*
X121884352Y-132711586D02*
X121833769Y-132746930D01*
X122491441Y-92160081D02*
X122483591Y-92221350D01*
X121000000Y-54000000D02*
X118000000Y-54000000D01*
X50647511Y-7031121D02*
X50562298Y-7013259D01*
X50724749Y-86054212D02*
X50647511Y-86031121D01*
X8713993Y-118211158D02*
X8815223Y-118256971D01*
X117291103Y-53822237D02*
X117211437Y-53776227D01*
X12434842Y-31163595D02*
X12505877Y-31187040D01*
X13484986Y-111386543D02*
X13493869Y-111463058D01*
X12575297Y-11364292D02*
X12643003Y-11394429D01*
X10677762Y-91041103D02*
X10714192Y-90977122D01*
X120762727Y-165042859D02*
X120670276Y-165028539D01*
X51370397Y-7758510D02*
X51347782Y-7681118D01*
X106263765Y-118488388D02*
X106394313Y-118473980D01*
X73600000Y-14199900D02*
X73598576Y-14237614D01*
X13500000Y-111599600D02*
X13498864Y-111658497D01*
X123518923Y-17199821D02*
X123600391Y-17194948D01*
X12213034Y-90265013D02*
X12288321Y-90277685D01*
X122406362Y-92521720D02*
X122383319Y-92580034D01*
X124349253Y-168303628D02*
X124318791Y-168215808D01*
X10795951Y-130355290D02*
X10841081Y-130297636D01*
X73631121Y-86752488D02*
X73615359Y-86825415D01*
X14470815Y-5000000D02*
X14470815Y-7000000D01*
X74600000Y-125500000D02*
X74524570Y-125502847D01*
X116913812Y-90965513D02*
X116965513Y-90913812D01*
X76210815Y-163000000D02*
X76210815Y-165000002D01*
X11047636Y-70940649D02*
X11105290Y-70895521D01*
X108067118Y-196674133D02*
X108161065Y-196580775D01*
X12952363Y-132408918D02*
X12894709Y-132454048D01*
X51429153Y-14368512D02*
X51417863Y-14332805D01*
X11494122Y-129837450D02*
X11565157Y-129814003D01*
X11711678Y-73571914D02*
X11637709Y-73555551D01*
X51017907Y-7213759D02*
X50952216Y-7166310D01*
X51079865Y-46766675D02*
X51017907Y-46713759D01*
X11047636Y-11591081D02*
X11105290Y-11545951D01*
X121251367Y-51021179D02*
X121312723Y-51032924D01*
X53334740Y-132946881D02*
X53318574Y-132973389D01*
X124179865Y-56433324D02*
X124215966Y-56398121D01*
X11291103Y-14072237D02*
X11227122Y-14035807D01*
X106903573Y-78860677D02*
X107044236Y-78812375D01*
X12894709Y-130045951D02*
X12952363Y-130091081D01*
X12952363Y-90591081D02*
X13007709Y-90638914D01*
X121833769Y-14246930D02*
X121781808Y-14280146D01*
X122231012Y-13857078D02*
X122193972Y-13907991D01*
X11711678Y-93222314D02*
X11637709Y-93205951D01*
X73849820Y-46838778D02*
X73798570Y-46901924D01*
X10527685Y-131538321D02*
X10515013Y-131463034D01*
X121405425Y-165228375D02*
X121319039Y-165194148D01*
X10992290Y-191710685D02*
X10939350Y-191660250D01*
X120670276Y-86028539D02*
X120595891Y-86019150D01*
X11637709Y-110143643D02*
X11711678Y-110127282D01*
X116733538Y-12195879D02*
X116774430Y-12134951D01*
X9293647Y-165084343D02*
X9185558Y-165112676D01*
X124004746Y-135563253D02*
X124077900Y-135516096D01*
X71653573Y-132925279D02*
X71640511Y-132897348D01*
X7070824Y-116150985D02*
X7097409Y-116261164D01*
X121929539Y-86509247D02*
X121851287Y-86458462D01*
X124285635Y-168129000D02*
X124249811Y-168043268D01*
X109887167Y-56706385D02*
X109949630Y-56701268D01*
X76210815Y-39500000D02*
X76210815Y-41500000D01*
X116753621Y-13834848D02*
X116704800Y-13757066D01*
X11941102Y-169251135D02*
X12000000Y-169250000D01*
X122383319Y-171580034D02*
X122357745Y-171637572D01*
X7410193Y-47985805D02*
X7355630Y-48083249D01*
X121063593Y-172498656D02*
X121000000Y-172500000D01*
X122426872Y-91537287D02*
X122444850Y-91596908D01*
X51854496Y-133197856D02*
X51816396Y-133192938D01*
X12058897Y-90251135D02*
X12136526Y-90256130D01*
X124457212Y-55989351D02*
X124470397Y-55941489D01*
X13007709Y-73210685D02*
X12952363Y-73258518D01*
X101580815Y-7000035D02*
X101580815Y-5000000D01*
X53318574Y-93473389D02*
X53298868Y-93501404D01*
X13484986Y-190386543D02*
X13493869Y-190463058D01*
X11291103Y-31277342D02*
X11356996Y-31244012D01*
X106903573Y-39360677D02*
X107044236Y-39312375D01*
X108805851Y-77061639D02*
X108849253Y-76938971D01*
X12952363Y-189440649D02*
X13007709Y-189488479D01*
X12643003Y-93105570D02*
X12575297Y-93135707D01*
X10614292Y-33174897D02*
X10587450Y-33105477D01*
X108968825Y-194931415D02*
X108982908Y-194819841D01*
X108998511Y-155094550D02*
X109000000Y-155000000D01*
X13285807Y-132022877D02*
X13246378Y-132084848D01*
X43810815Y-118500000D02*
X43810815Y-120500000D01*
X124499463Y-160000000D02*
X123340815Y-160000000D01*
X11424702Y-112985307D02*
X11356996Y-112955170D01*
X12136526Y-14243869D02*
X12058897Y-14248864D01*
X7338269Y-77385240D02*
X7391192Y-77482308D01*
X122406362Y-51978279D02*
X122426872Y-52037287D01*
X11786965Y-14234986D02*
X11711678Y-14222314D01*
X10614292Y-12174702D02*
X10644429Y-12106996D01*
X72093436Y-54199857D02*
X72035334Y-54195754D01*
X124211345Y-49458674D02*
X124170263Y-49375282D01*
X50724749Y-125554212D02*
X50647511Y-125531121D01*
X120427327Y-46504812D02*
X120276336Y-46500059D01*
X73370920Y-93620127D02*
X73330659Y-93643503D01*
X9736234Y-7011611D02*
X9624271Y-7023614D01*
X7257670Y-8783656D02*
X7207518Y-8903678D01*
X51459260Y-14436183D02*
X51442990Y-14403009D01*
X73600000Y-53699900D02*
X73598576Y-53737614D01*
X13246378Y-31764707D02*
X13285807Y-31826678D01*
X117902153Y-53996859D02*
X117805982Y-53987566D01*
X117637709Y-172455951D02*
X117547252Y-172430458D01*
X7102788Y-88221455D02*
X7075788Y-88329934D01*
X11047636Y-112758518D02*
X10992290Y-112710685D01*
X13204048Y-51355290D02*
X13246378Y-51415151D01*
X106132270Y-78997085D02*
X106263765Y-78988388D01*
X96580815Y-125500028D02*
X81210815Y-125500008D01*
X74298799Y-7046450D02*
X74228788Y-7071466D01*
X48810815Y-125500000D02*
X48810815Y-123500000D01*
X7000049Y-172451233D02*
X5000000Y-172451233D01*
X7000011Y-149838519D02*
X5000000Y-149838519D01*
X7168698Y-127508218D02*
X7133773Y-127614180D01*
X13498864Y-91691102D02*
X13500000Y-91750000D01*
X118340815Y-135699889D02*
X118340815Y-160000000D01*
X13385707Y-92325297D02*
X13355570Y-92393003D01*
X10714192Y-92522877D02*
X10677762Y-92458896D01*
X121445023Y-53932495D02*
X121373345Y-53952831D01*
X12213034Y-70614611D02*
X12288321Y-70627282D01*
X11786965Y-192084586D02*
X11711678Y-192071914D01*
X121319039Y-86194148D02*
X121249181Y-86168698D01*
X7000059Y-49481063D02*
X7000049Y-53951233D01*
X124419050Y-174594104D02*
X124439586Y-174542274D01*
X7988243Y-126274537D02*
X7905641Y-126352096D01*
X53298868Y-14501404D02*
X53279245Y-14525741D01*
X13484986Y-72312634D02*
X13472314Y-72387921D01*
X116660702Y-12323817D02*
X116695596Y-12258868D01*
X13500000Y-91750000D02*
X13498864Y-91808897D01*
X12894709Y-110395521D02*
X12952363Y-110440649D01*
X19470815Y-5000000D02*
X43810815Y-5000000D01*
X11105290Y-130045951D02*
X11165151Y-130003621D01*
X13385707Y-170174702D02*
X13412549Y-170244122D01*
X8240105Y-78429823D02*
X8330303Y-78492782D01*
X109014290Y-18031554D02*
X109025268Y-17976639D01*
X71729649Y-54035789D02*
X71709857Y-54012606D01*
X10939350Y-112660250D02*
X10888914Y-112607309D01*
X106523741Y-197453934D02*
X106651876Y-197428320D01*
X122154994Y-130542900D02*
X122193972Y-130592008D01*
X10992290Y-110488479D02*
X11047636Y-110440649D01*
X12434842Y-129814003D02*
X12505877Y-129837450D01*
X9736234Y-46511611D02*
X9624271Y-46523614D01*
X7257670Y-48283656D02*
X7207518Y-48403678D01*
X120927465Y-125575788D02*
X120836224Y-125556365D01*
X71891266Y-172654364D02*
X71858323Y-172637698D01*
X13111085Y-33607309D02*
X13060650Y-33660250D01*
X7015980Y-194811541D02*
X7030026Y-194926090D01*
X73109461Y-14699810D02*
X72093436Y-14699857D01*
X123893080Y-127933438D02*
X123847119Y-127874200D01*
X122483591Y-131721350D02*
X122473210Y-131782329D01*
X10939350Y-11689350D02*
X10992290Y-11638914D01*
X123738058Y-167244864D02*
X123674133Y-167175481D01*
X13246378Y-130415151D02*
X13285807Y-130477122D01*
X12505877Y-189187040D02*
X12575297Y-189213878D01*
X53059444Y-133173787D02*
X53026762Y-133183559D01*
X12362290Y-149643643D02*
X12434842Y-149663595D01*
X12505877Y-132662549D02*
X12434842Y-132685996D01*
X7338269Y-195885240D02*
X7391192Y-195982308D01*
X7133773Y-127614180D02*
X7102788Y-127721455D01*
X10501135Y-131308897D02*
X10500000Y-131250000D01*
X13498864Y-190658497D02*
X13493869Y-190736126D01*
X101580815Y-118500000D02*
X106000000Y-118500000D01*
X10644429Y-191242603D02*
X10614292Y-191174897D01*
X109560842Y-96301605D02*
X109623043Y-96273784D01*
X73370920Y-172620127D02*
X73330659Y-172643503D01*
X116553583Y-170601250D02*
X116575296Y-170529444D01*
X43810815Y-84000000D02*
X43810815Y-86000000D01*
X10888914Y-13757709D02*
X10841081Y-13702363D01*
X121662989Y-130154467D02*
X121717735Y-130182860D01*
X13455951Y-190237276D02*
X13472314Y-190311250D01*
X122329638Y-13694254D02*
X122299000Y-13750000D01*
X13246378Y-90915151D02*
X13285807Y-90977122D01*
X101580815Y-84000000D02*
X124499463Y-84000000D01*
X19470815Y-79000000D02*
X43810815Y-79000000D01*
X7015980Y-36811541D02*
X7030026Y-36926090D01*
X7243042Y-195684818D02*
X7288858Y-195786049D01*
X10564003Y-131684842D02*
X10544048Y-131612290D01*
X123848089Y-96137447D02*
X123927989Y-96103768D01*
X13355570Y-150456553D02*
X13385707Y-150524260D01*
X13355570Y-131893003D02*
X13322237Y-131958896D01*
X10506130Y-12613473D02*
X10515013Y-12536965D01*
X12894709Y-51045951D02*
X12952363Y-51091081D01*
X13493869Y-32463058D02*
X13498864Y-32540695D01*
X120762727Y-46542859D02*
X120670276Y-46528539D01*
X10614292Y-52825297D02*
X10587450Y-52755877D01*
X73798570Y-125901924D02*
X73756154Y-125963433D01*
X7984581Y-157222206D02*
X8067160Y-157294452D01*
X73288484Y-133163001D02*
X73244678Y-133178503D01*
X53350558Y-132916681D02*
X53334740Y-132946881D01*
X124419989Y-10554375D02*
X124397211Y-10464055D01*
X109039270Y-57422545D02*
X109056243Y-57369395D01*
X8330303Y-38992782D02*
X8422875Y-39052478D01*
X71619563Y-14338835D02*
X71610479Y-14302204D01*
X53208984Y-14592989D02*
X53181297Y-14613253D01*
X11711678Y-90277685D02*
X11786965Y-90265013D01*
X7207518Y-48403678D02*
X7168698Y-48508218D01*
X73583662Y-132826659D02*
X73569797Y-132871033D01*
X19470815Y-197500000D02*
X43810815Y-197500000D01*
X106394313Y-197473980D02*
X106523741Y-197453934D01*
X7052819Y-9439509D02*
X7033924Y-9550069D01*
X109000000Y-76000000D02*
X109000019Y-57693687D01*
X51386740Y-165837701D02*
X51370397Y-165758510D01*
X14470815Y-125500000D02*
X10000000Y-125500000D01*
X121595776Y-53876620D02*
X121527022Y-53904388D01*
X12213034Y-14234986D02*
X12136526Y-14243869D01*
X9023467Y-118337476D02*
X9130315Y-118372001D01*
X122154994Y-171957099D02*
X122114148Y-172004362D01*
X12894709Y-171954048D02*
X12834848Y-171996378D01*
X12000000Y-34099600D02*
X11941102Y-34098464D01*
X109338778Y-56949820D02*
X109391965Y-56906099D01*
X7507243Y-117169740D02*
X7570204Y-117259938D01*
X71891266Y-54154364D02*
X71858323Y-54137698D01*
X51370397Y-126258510D02*
X51347782Y-126181118D01*
X71610479Y-53802204D02*
X71605005Y-53770904D01*
X121373345Y-14452831D02*
X121288265Y-14472075D01*
X7097409Y-116261164D02*
X7128006Y-116369721D01*
X71605005Y-53770904D02*
X71601046Y-53732511D01*
X51316590Y-165600209D02*
X51281441Y-165527735D01*
X124215966Y-16898121D02*
X124250179Y-16861221D01*
X122378700Y-7878700D02*
X122324518Y-7825866D01*
X108635531Y-37933124D02*
X108695225Y-37817430D01*
X121884352Y-169788413D02*
X121933487Y-169825844D01*
X10795951Y-31704847D02*
X10841081Y-31647195D01*
X13435996Y-191034442D02*
X13412549Y-191105477D01*
X8330303Y-78492782D02*
X8422875Y-78552478D01*
X117134951Y-14225569D02*
X117061837Y-14170458D01*
X11047636Y-149940649D02*
X11105290Y-149895521D01*
X7000000Y-163000000D02*
X14470815Y-163000000D01*
X12362290Y-129794048D02*
X12434842Y-129814003D01*
X8067160Y-157294452D02*
X8152362Y-157363686D01*
X12434842Y-93185996D02*
X12362290Y-93205951D01*
X7391192Y-77482308D02*
X7447545Y-77577169D01*
X10500000Y-72099600D02*
X10501135Y-72040695D01*
X7243042Y-116684818D02*
X7288858Y-116786049D01*
X10677762Y-130541103D02*
X10714192Y-130477122D01*
X12834848Y-90503621D02*
X12894709Y-90545951D01*
X73408984Y-54092989D02*
X73370920Y-54120127D01*
X7006281Y-36695703D02*
X7015980Y-36811541D01*
X10544048Y-32237276D02*
X10564003Y-32164721D01*
X124499463Y-50685828D02*
X124497085Y-50610329D01*
X124419989Y-129054375D02*
X124397211Y-128964055D01*
X10677762Y-191308496D02*
X10644429Y-191242603D01*
X7162533Y-37476571D02*
X7200907Y-37581631D01*
X108849253Y-195438971D02*
X108887323Y-195314441D01*
X10939350Y-33660250D02*
X10888914Y-33607309D01*
X122183971Y-126200391D02*
X122096312Y-126129705D01*
X11227122Y-11464192D02*
X11291103Y-11427762D01*
X10587450Y-32093682D02*
X10614292Y-32024260D01*
X124470397Y-134941489D02*
X124482389Y-134886834D01*
X121717735Y-51182860D02*
X121781808Y-51219853D01*
X43810815Y-81000000D02*
X19470815Y-81000000D01*
X53091350Y-14661825D02*
X53059444Y-14673787D01*
X14470815Y-165000000D02*
X10000000Y-165000000D01*
X7988243Y-165774537D02*
X7905641Y-165852096D01*
X124347164Y-16731310D02*
X124372501Y-16688586D01*
X10544048Y-131612290D02*
X10527685Y-131538321D01*
X107182274Y-157757188D02*
X107300702Y-157703337D01*
X13435996Y-71664721D02*
X13455951Y-71737276D01*
X13385707Y-13325297D02*
X13355570Y-13393003D01*
X124496128Y-16287923D02*
X124499285Y-16237806D01*
X73583662Y-172326659D02*
X73569797Y-172371033D01*
X101580815Y-86000035D02*
X101580815Y-84000000D01*
X9078708Y-46644979D02*
X8955763Y-46687624D01*
X117619434Y-90548704D02*
X117711678Y-90527685D01*
X122383319Y-92580034D02*
X122357745Y-92637572D01*
X12834848Y-31353195D02*
X12894709Y-31395521D01*
X121781808Y-11719853D02*
X121833769Y-11753069D01*
X19470815Y-158000000D02*
X43810815Y-158000000D01*
X122483591Y-52721350D02*
X122473210Y-52782329D01*
X108067118Y-157174133D02*
X108161065Y-157080775D01*
X11165151Y-11503621D02*
X11227122Y-11464192D01*
X11047636Y-130091081D02*
X11105290Y-130045951D01*
X108250559Y-38483642D02*
X108335386Y-38383044D01*
X96580815Y-86000028D02*
X81210815Y-86000008D01*
X121492105Y-169582994D02*
X121550104Y-169604494D01*
X10544048Y-111961890D02*
X10527685Y-111887921D01*
X53364272Y-132885500D02*
X53350558Y-132916681D01*
X7128006Y-37369721D02*
X7162533Y-37476571D01*
X11105290Y-92954048D02*
X11047636Y-92908918D01*
X123738058Y-127744864D02*
X123674133Y-127675481D01*
X10501135Y-111540695D02*
X10506130Y-111463058D01*
X7802565Y-196542387D02*
X7904708Y-196647032D01*
X10992290Y-31488479D02*
X11047636Y-31440649D01*
X10564003Y-72534442D02*
X10544048Y-72461890D01*
X9023467Y-78837476D02*
X9130315Y-78872001D01*
X123787489Y-9301656D02*
X123738058Y-9244864D01*
X14470815Y-86000000D02*
X10000000Y-86000000D01*
X13385707Y-111024260D02*
X13412549Y-111093682D01*
X122473210Y-131217670D02*
X122483591Y-131278649D01*
X51409229Y-53795998D02*
X51403364Y-53758202D01*
X107182274Y-197257188D02*
X107300702Y-197203337D01*
X116695596Y-51758868D02*
X116733538Y-51695879D01*
X10841081Y-150147195D02*
X10888914Y-150091850D01*
X13484986Y-52463034D02*
X13472314Y-52538321D01*
X122114148Y-130495637D02*
X122154994Y-130542900D01*
X12834848Y-132496378D02*
X12772877Y-132535807D01*
X73569797Y-53871033D02*
X73551892Y-53913885D01*
X121558102Y-86296662D02*
X121490709Y-86265259D01*
X116535412Y-91674522D02*
X116553583Y-91601250D01*
X13204048Y-150204847D02*
X13246378Y-150264707D01*
X12894709Y-152303648D02*
X12834848Y-152345978D01*
X11047636Y-73258518D02*
X10992290Y-73210685D01*
X7468418Y-8390344D02*
X7410193Y-8485805D01*
X109006385Y-136587167D02*
X109014290Y-136531554D01*
X48810815Y-41500000D02*
X48810815Y-39500000D01*
X11565157Y-152535596D02*
X11494122Y-152512149D01*
X121063593Y-53998656D02*
X121000000Y-54000000D01*
X7825866Y-47432881D02*
X7749440Y-47516357D01*
X124482908Y-129422758D02*
X124471460Y-129329723D01*
X10677762Y-92458896D02*
X10644429Y-92393003D01*
X117547252Y-90569541D02*
X117619434Y-90548704D01*
X12362290Y-90294048D02*
X12434842Y-90314003D01*
X7391192Y-116982308D02*
X7447545Y-117077169D01*
X50400000Y-125500000D02*
X48810815Y-125500000D01*
X51190086Y-125887018D02*
X51137585Y-125824759D01*
X116575296Y-13470555D02*
X116553583Y-13398750D01*
X12213034Y-93234986D02*
X12136526Y-93243869D01*
X13246378Y-92584848D02*
X13204048Y-92644709D01*
X10527685Y-190311250D02*
X10544048Y-190237276D01*
X13472314Y-111887921D02*
X13455951Y-111961890D01*
X8067160Y-78294452D02*
X8152362Y-78363686D01*
X12288321Y-90277685D02*
X12362290Y-90294048D01*
X10644429Y-151742603D02*
X10614292Y-151674897D01*
X10564003Y-51815157D02*
X10587450Y-51744122D01*
X108635531Y-77433124D02*
X108695225Y-77317430D01*
X122324518Y-47325866D02*
X122255135Y-47261941D01*
X117786965Y-11515013D02*
X117863473Y-11506130D01*
X11863473Y-169256130D02*
X11941102Y-169251135D01*
X53181297Y-133113253D02*
X53152388Y-133131511D01*
X12362290Y-14205951D02*
X12288321Y-14222314D01*
X71979247Y-172685215D02*
X71919748Y-172666411D01*
X124135531Y-88809475D02*
X124089806Y-88728405D01*
X121833769Y-169753069D02*
X121884352Y-169788413D01*
X109098901Y-57266418D02*
X109130547Y-57206009D01*
X116864666Y-132480330D02*
X116806974Y-132409333D01*
X7000049Y-53951233D02*
X5000000Y-53951233D01*
X109039270Y-136422545D02*
X109056243Y-136369395D01*
X51403364Y-53758202D02*
X51400671Y-53726031D01*
X124457140Y-129237272D02*
X124439974Y-129145469D01*
X73370920Y-14620127D02*
X73330659Y-14643503D01*
X51400000Y-166000000D02*
X51396659Y-165918320D01*
X121674032Y-132840032D02*
X121595776Y-132876620D01*
X120762727Y-125542859D02*
X120670276Y-125528539D01*
X7033924Y-88550069D02*
X7019150Y-88661508D01*
X10506130Y-32463058D02*
X10515013Y-32386543D01*
X123340815Y-96199823D02*
X123518923Y-96199821D01*
X122231012Y-171857078D02*
X122193972Y-171907991D01*
X7000000Y-155000000D02*
X7001011Y-155078658D01*
X11165151Y-13996378D02*
X11105290Y-13954048D01*
X7802565Y-157042387D02*
X7904708Y-157147032D01*
X13472314Y-171038321D02*
X13455951Y-171112290D01*
X8343392Y-46998890D02*
X8251111Y-47062523D01*
X10939350Y-53310650D02*
X10888914Y-53257709D01*
X7447545Y-117077169D02*
X7507243Y-117169740D01*
X7729332Y-117460702D02*
X7802565Y-117542387D01*
X124347164Y-174731310D02*
X124372501Y-174688586D01*
X108749811Y-156199331D02*
X108805851Y-156061639D01*
X74022099Y-46683903D02*
X73957800Y-46733472D01*
X10506130Y-71963058D02*
X10515013Y-71886543D01*
X7749440Y-87016357D02*
X7676443Y-87102378D01*
X121000000Y-130000000D02*
X121063593Y-130001343D01*
X8732899Y-125780751D02*
X8632682Y-125829736D01*
X8437820Y-7438851D02*
X8343392Y-7498890D01*
X124318791Y-168215808D02*
X124285635Y-168129000D01*
X11105290Y-31395521D02*
X11165151Y-31353195D01*
X10841081Y-73051963D02*
X10795951Y-72994309D01*
X13007709Y-31488479D02*
X13060650Y-31538912D01*
X8152362Y-38863686D02*
X8240105Y-38929823D01*
X120670276Y-46528539D02*
X120595891Y-46519150D01*
X13355570Y-13393003D02*
X13322237Y-13458896D01*
X117076181Y-11818172D02*
X117134951Y-11774430D01*
X73600000Y-93199900D02*
X73598576Y-93237614D01*
X122496758Y-13098602D02*
X122491441Y-13160081D01*
X11424702Y-90364292D02*
X11494122Y-90337450D01*
X53399990Y-172203056D02*
X53398329Y-172240739D01*
X73153307Y-54197050D02*
X73109461Y-54199810D01*
X124215966Y-56398121D02*
X124250179Y-56361221D01*
X121833769Y-172246930D02*
X121781808Y-172280146D01*
X116806974Y-171909333D02*
X116753621Y-171834848D01*
X107182274Y-39257188D02*
X107300702Y-39203337D01*
X121319039Y-46694148D02*
X121249181Y-46668698D01*
X10515013Y-32812634D02*
X10506130Y-32736126D01*
X116575296Y-12529444D02*
X116600453Y-12459204D01*
X11565157Y-31163595D02*
X11637709Y-31143643D01*
X124499286Y-134721300D02*
X126499463Y-134721300D01*
X51137585Y-46824759D02*
X51079865Y-46766675D01*
X71619563Y-93338835D02*
X71610479Y-93302204D01*
X10841081Y-110647195D02*
X10888914Y-110591850D01*
X11863473Y-73593469D02*
X11786965Y-73584586D01*
X51606698Y-133104856D02*
X51577873Y-133082292D01*
X108250559Y-77983642D02*
X108335386Y-77883044D01*
X5000000Y-93451233D02*
X5000000Y-84000000D01*
X7530260Y-47796976D02*
X7468418Y-47890344D01*
X7102788Y-9221455D02*
X7075788Y-9329934D01*
X116535412Y-52825477D02*
X116520882Y-52750836D01*
X81210815Y-41500000D02*
X81210815Y-39500000D01*
X12834848Y-92996378D02*
X12772877Y-93035807D01*
X71687987Y-93483223D02*
X71671405Y-93457510D01*
X12000000Y-31099600D02*
X12058897Y-31100735D01*
X10939350Y-51189350D02*
X10992290Y-51138914D01*
X13322237Y-51541103D02*
X13355570Y-51606996D01*
X124419989Y-89554375D02*
X124397211Y-89464055D01*
X117941102Y-90501135D02*
X118000000Y-90500000D01*
X118340815Y-96199889D02*
X118340815Y-120500000D01*
X109001604Y-136643357D02*
X109006385Y-136587167D01*
X50952216Y-46666310D02*
X50883163Y-46624484D01*
X121251367Y-11521179D02*
X121312723Y-11532924D01*
X74376639Y-86025268D02*
X74298799Y-86046450D01*
X121657724Y-46846896D02*
X121558102Y-46796662D01*
X7000000Y-154838519D02*
X7000000Y-155000000D01*
X11786965Y-93234986D02*
X11711678Y-93222314D01*
X12136526Y-129756130D02*
X12213034Y-129765013D01*
X123927989Y-135603768D02*
X124004746Y-135563253D01*
X121717735Y-169682860D02*
X121781808Y-169719853D01*
X123738058Y-48744864D02*
X123674133Y-48675481D01*
X109623043Y-56773784D02*
X109686999Y-56750258D01*
X108695225Y-77317430D02*
X108749811Y-77199331D01*
X117476612Y-90593846D02*
X117547252Y-90569541D01*
X12058897Y-110100735D02*
X12136526Y-110105729D01*
X10501135Y-151158497D02*
X10500000Y-151099600D01*
X12952363Y-110440649D02*
X13007709Y-110488479D01*
X50400000Y-86000000D02*
X48810815Y-86000000D01*
X121929539Y-7509247D02*
X121851287Y-7458462D01*
X5000000Y-110338519D02*
X5000000Y-98451233D01*
X122193972Y-171907991D02*
X122154994Y-171957099D01*
X124372501Y-95688586D02*
X124398394Y-95639157D01*
X7984581Y-78222206D02*
X8067160Y-78294452D01*
X13412549Y-13255877D02*
X13385707Y-13325297D01*
X121433162Y-51063872D02*
X121492105Y-51082994D01*
X120427327Y-86004812D02*
X120276336Y-86000059D01*
X10753621Y-71264707D02*
X10795951Y-71204847D01*
X10753621Y-150264707D02*
X10795951Y-150204847D01*
X107868400Y-196847119D02*
X107969479Y-196762965D01*
X53279245Y-54025741D02*
X53255823Y-54051162D01*
X74155282Y-125604344D02*
X74084571Y-125643080D01*
X19470815Y-160000000D02*
X19470815Y-158000000D01*
X10000000Y-197500000D02*
X14470815Y-197500000D01*
X116864666Y-91019669D02*
X116913812Y-90965513D01*
X53318574Y-172473389D02*
X53298868Y-172501404D01*
X8632682Y-165329736D02*
X8534286Y-165382451D01*
X121781808Y-169719853D02*
X121833769Y-169753069D01*
X11047636Y-169591081D02*
X11105290Y-169545951D01*
X121214230Y-14484651D02*
X121139300Y-14493534D01*
X7200907Y-77081631D02*
X7243042Y-77184818D01*
X11941102Y-189100735D02*
X12000000Y-189099600D01*
X122114148Y-172004362D02*
X122071505Y-172049740D01*
X51637160Y-172625301D02*
X51606698Y-172604856D01*
X74524570Y-125502847D02*
X74450020Y-125511311D01*
X13322237Y-33308496D02*
X13285807Y-33372477D01*
X7001011Y-155078658D02*
X7006281Y-155195703D01*
X123848089Y-175137447D02*
X123927989Y-175103768D01*
X110000000Y-135700000D02*
X118340815Y-135699889D01*
X109500622Y-17333629D02*
X109560842Y-17301605D01*
X73244678Y-54178503D02*
X73199525Y-54189892D01*
X12952363Y-171908918D02*
X12894709Y-171954048D01*
X51281441Y-86527735D02*
X51237108Y-86452980D01*
X109000019Y-57693687D02*
X109001604Y-57643357D01*
X8713993Y-197211158D02*
X8815223Y-197256971D01*
X117076181Y-90818172D02*
X117134951Y-90774430D01*
X7133773Y-48614180D02*
X7102788Y-48721455D01*
X121981104Y-169865323D02*
X122027133Y-169906808D01*
X121063593Y-11501343D02*
X121126732Y-11505348D01*
X12136526Y-93243869D02*
X12058897Y-93248864D01*
X121657724Y-7346896D02*
X121558102Y-7296662D01*
X10501135Y-131191102D02*
X10506130Y-131113473D01*
X10587450Y-112105477D02*
X10564003Y-112034442D01*
X13060650Y-150038912D02*
X13111085Y-150091850D01*
X108992818Y-115707516D02*
X108998511Y-115594550D01*
X52903156Y-172699890D02*
X51893436Y-172699857D01*
X8834828Y-46735540D02*
X8732899Y-46780751D01*
X51386740Y-86837701D02*
X51370397Y-86758510D01*
X9921345Y-197498988D02*
X10000000Y-197500000D01*
X71729649Y-133035789D02*
X71709857Y-133012606D01*
X122444850Y-91596908D02*
X122460296Y-91657063D01*
X106651876Y-157928320D02*
X106778544Y-157897211D01*
X124482908Y-89922758D02*
X124471460Y-89829723D01*
X118000000Y-11500000D02*
X121000000Y-11500000D01*
X121550104Y-130104494D02*
X121607088Y-130128332D01*
X13355570Y-189956553D02*
X13385707Y-190024260D01*
X124179865Y-174933324D02*
X124215966Y-174898121D01*
X53208984Y-54092989D02*
X53181297Y-54113253D01*
X13498864Y-170691102D02*
X13500000Y-170750000D01*
X11047636Y-53408918D02*
X10992290Y-53361085D01*
X12952363Y-70940649D02*
X13007709Y-70988479D01*
X7000011Y-31338519D02*
X5000000Y-31338519D01*
X11424702Y-53635707D02*
X11356996Y-53605570D01*
X10939350Y-31538912D02*
X10992290Y-31488479D01*
X121139300Y-93493534D02*
X121063593Y-93498656D01*
X11227122Y-73385407D02*
X11165151Y-73345978D01*
X9349045Y-197429180D02*
X9460760Y-197451667D01*
X121833769Y-130253069D02*
X121884352Y-130288413D01*
X101580815Y-158000000D02*
X106000000Y-158000000D01*
X11494122Y-149687040D02*
X11565157Y-149663595D01*
X51893436Y-172699857D02*
X51854496Y-172697856D01*
X121063593Y-90501343D02*
X121126732Y-90505348D01*
X51637160Y-133125301D02*
X51606698Y-133104856D01*
X13285807Y-169977122D02*
X13322237Y-170041103D01*
X121288265Y-14472075D02*
X121214230Y-14484651D01*
X107300702Y-118203337D02*
X107416750Y-118144369D01*
X109560842Y-175301605D02*
X109623043Y-175273784D01*
X7355630Y-127083249D02*
X7304774Y-127182569D01*
X116992290Y-93111085D02*
X116926502Y-93047645D01*
X73330659Y-93643503D02*
X73288484Y-93663001D01*
X13246378Y-53084848D02*
X13204048Y-53144709D01*
X10888914Y-189591850D02*
X10939350Y-189538912D01*
X74600000Y-7000000D02*
X74524570Y-7002847D01*
X13472314Y-190311250D02*
X13484986Y-190386543D01*
X121490709Y-165265259D02*
X121405425Y-165228375D01*
X122021451Y-7573475D02*
X121929539Y-7509247D01*
X8732899Y-165280751D02*
X8632682Y-165329736D01*
X10753621Y-171584848D02*
X10714192Y-171522877D01*
X124376994Y-128892398D02*
X124349253Y-128803628D01*
X73330659Y-54143503D02*
X73288484Y-54163001D01*
X48810815Y-118500000D02*
X76210815Y-118500000D01*
X12772877Y-93035807D02*
X12708896Y-93072237D01*
X126499463Y-44500000D02*
X126499463Y-50721300D01*
X53334740Y-172446881D02*
X53318574Y-172473389D01*
X116500126Y-170980306D02*
X116503140Y-170902153D01*
X101580815Y-39500000D02*
X106000000Y-39500000D01*
X74084571Y-46643080D02*
X74022099Y-46683903D01*
X8251111Y-86562523D02*
X8161087Y-86629705D01*
X7070824Y-195150985D02*
X7097409Y-195261164D01*
X10714192Y-189826678D02*
X10753621Y-189764707D01*
X73475128Y-14530471D02*
X73444566Y-14562208D01*
X122406362Y-171521720D02*
X122383319Y-171580034D01*
X53298868Y-93501404D02*
X53279245Y-93525741D01*
X51396659Y-47418320D02*
X51386740Y-47337701D01*
X10515013Y-32386543D02*
X10527685Y-32311250D01*
X7447545Y-38077169D02*
X7507243Y-38169740D01*
X51442990Y-53903009D02*
X51429153Y-53868512D01*
X11494122Y-192012149D02*
X11424702Y-191985307D01*
X108749811Y-116699331D02*
X108805851Y-116561639D01*
X12575297Y-31213878D02*
X12643003Y-31244012D01*
X73901878Y-7284033D02*
X73849820Y-7338778D01*
X73551892Y-53913885D02*
X73530067Y-53954932D01*
X74600000Y-165000000D02*
X74524570Y-165002847D01*
X13246378Y-150264707D02*
X13285807Y-150326678D01*
X11424702Y-73485307D02*
X11356996Y-73455170D01*
X123990752Y-167570460D02*
X123948329Y-167508938D01*
X13498864Y-32658497D02*
X13493869Y-32736126D01*
X11637709Y-169294048D02*
X11711678Y-169277685D01*
X122460296Y-12657063D02*
X122473210Y-12717670D01*
X117061837Y-93170458D02*
X116992290Y-93111085D01*
X11356996Y-132605570D02*
X11291103Y-132572237D01*
X12505877Y-31187040D02*
X12575297Y-31213878D01*
X8713993Y-39211158D02*
X8815223Y-39256971D01*
X108998511Y-115594550D02*
X109000000Y-115500000D01*
X121063593Y-14498656D02*
X121000000Y-14500000D01*
X123948329Y-49008938D02*
X123893080Y-48933438D01*
X7257670Y-166783656D02*
X7207518Y-166903678D01*
X109098901Y-136266418D02*
X109130547Y-136206009D01*
X13385707Y-130674702D02*
X13412549Y-130744122D01*
X117373757Y-172363408D02*
X117291103Y-172322237D01*
X11786965Y-132734986D02*
X11711678Y-132722314D01*
X12505877Y-53662549D02*
X12434842Y-53685996D01*
X124286240Y-95817907D02*
X124316096Y-95777900D01*
X122483591Y-92221350D02*
X122473210Y-92282329D01*
X10992290Y-33710685D02*
X10939350Y-33660250D01*
X121981104Y-172134676D02*
X121933487Y-172174155D01*
X51737257Y-93672807D02*
X51702551Y-93659388D01*
X124397211Y-49964055D02*
X124376994Y-49892398D01*
X10501135Y-72158497D02*
X10500000Y-72099600D01*
X7530260Y-87296976D02*
X7468418Y-87390344D01*
X116926502Y-53547645D02*
X116864666Y-53480330D01*
X10888914Y-73107309D02*
X10841081Y-73051963D01*
X12643003Y-53605570D02*
X12575297Y-53635707D01*
X13007709Y-51138914D02*
X13060650Y-51189350D01*
X13435996Y-130815157D02*
X13455951Y-130887709D01*
X48810815Y-199500000D02*
X48810815Y-197500000D01*
X51669148Y-133143515D02*
X51637160Y-133125301D01*
X122491441Y-170839918D02*
X122496758Y-170901397D01*
X73244678Y-172678503D02*
X73199525Y-172689892D01*
X13498864Y-151158497D02*
X13493869Y-151236126D01*
X122383319Y-170419965D02*
X122406362Y-170478279D01*
X74600000Y-46500000D02*
X74524570Y-46502847D01*
X7507243Y-77669740D02*
X7570204Y-77759938D01*
X116520882Y-91749163D02*
X116535412Y-91674522D01*
X51550797Y-133057720D02*
X51521566Y-133026663D01*
X109025268Y-96976639D02*
X109039270Y-96922545D01*
X12952363Y-13908918D02*
X12894709Y-13954048D01*
X11565157Y-70663595D02*
X11637709Y-70643643D01*
X8240105Y-157429823D02*
X8330303Y-157492782D01*
X10841081Y-31647195D02*
X10888914Y-31591850D01*
X122096312Y-7629705D02*
X122021451Y-7573475D01*
X13484986Y-71886543D02*
X13493869Y-71963058D01*
X116733538Y-170195879D02*
X116774430Y-170134951D01*
X116535412Y-92325477D02*
X116520882Y-92250836D01*
X121884352Y-11788413D02*
X121933487Y-11825844D01*
X109391965Y-96406099D02*
X109447783Y-96366310D01*
X108490752Y-117172139D02*
X108561148Y-117062179D01*
X11047636Y-171908918D02*
X10992290Y-171861085D01*
X51403364Y-14258202D02*
X51400671Y-14226031D01*
X117195879Y-51233538D02*
X117258868Y-51195596D01*
X109819286Y-56716465D02*
X109887167Y-56706385D01*
X52996473Y-172690502D02*
X52950195Y-172697374D01*
X109949630Y-175201268D02*
X110000000Y-175200000D01*
X11105290Y-149895521D02*
X11165151Y-149853195D01*
X106132270Y-197497085D02*
X106263765Y-197488388D01*
X50481679Y-86003340D02*
X50400000Y-86000000D01*
X122329638Y-171694254D02*
X122299000Y-171750000D01*
X12288321Y-73571914D02*
X12213034Y-73584586D01*
X124491458Y-90016315D02*
X124482908Y-89922758D01*
X73957800Y-125733472D02*
X73901878Y-125784033D01*
X73600000Y-47500000D02*
X73600000Y-53699900D01*
X13472314Y-92038321D02*
X13455951Y-92112290D01*
X121319039Y-165194148D02*
X121249181Y-165168698D01*
X106394313Y-118473980D02*
X106523741Y-118453934D01*
X123927989Y-56603768D02*
X124004746Y-56563253D01*
X11565157Y-53685996D02*
X11494122Y-53662549D01*
X9185558Y-86112676D02*
X9078708Y-86144979D01*
X7905641Y-86852096D02*
X7825866Y-86932881D01*
X109025268Y-57476639D02*
X109039270Y-57422545D01*
X11786965Y-11265013D02*
X11863473Y-11256130D01*
X13455951Y-32961890D02*
X13435996Y-33034442D01*
X109292900Y-56992900D02*
X109338778Y-56949820D01*
X11047636Y-191758518D02*
X10992290Y-191710685D01*
X121160973Y-125639322D02*
X121089739Y-125617786D01*
X116992290Y-132611085D02*
X116926502Y-132547645D01*
X76210815Y-120500000D02*
X48810815Y-120500000D01*
X10714192Y-171522877D02*
X10677762Y-171458896D01*
X124499463Y-120500000D02*
X123340815Y-120500000D01*
X53122368Y-54147717D02*
X53091350Y-54161825D01*
X13493869Y-190463058D02*
X13498864Y-190540695D01*
X12952363Y-31440649D02*
X13007709Y-31488479D01*
X121933487Y-172174155D02*
X121884352Y-172211586D01*
X10506130Y-151236126D02*
X10501135Y-151158497D01*
X12213034Y-169265013D02*
X12288321Y-169277685D01*
X7749440Y-126516357D02*
X7676443Y-126602378D01*
X11863473Y-70605729D02*
X11941102Y-70600735D01*
X9460760Y-157951667D02*
X9573931Y-157969975D01*
X73530067Y-14454932D02*
X73504440Y-14493889D01*
X122096312Y-86629705D02*
X122021451Y-86573475D01*
X76210815Y-5000000D02*
X76210815Y-7000002D01*
X7075788Y-9329934D02*
X7052819Y-9439509D01*
X12834848Y-70853195D02*
X12894709Y-70895521D01*
X48810815Y-79000000D02*
X76210815Y-79000000D01*
X11227122Y-70813769D02*
X11291103Y-70777342D01*
X12708896Y-11427762D02*
X12772877Y-11464192D01*
X51737257Y-14672807D02*
X51702551Y-14659388D01*
X124286240Y-56317907D02*
X124316096Y-56277900D01*
X12434842Y-73535596D02*
X12362290Y-73555551D01*
X121373345Y-169547168D02*
X121433162Y-169563872D01*
X71600000Y-132699900D02*
X71600000Y-128000000D01*
X10527685Y-72387921D02*
X10515013Y-72312634D01*
X124471460Y-168829723D02*
X124457140Y-168737272D01*
X43810815Y-123500000D02*
X43810815Y-125500000D01*
X108250559Y-156983642D02*
X108335386Y-156883044D01*
X116733538Y-130695879D02*
X116774430Y-130634951D01*
X10515013Y-170963034D02*
X10506130Y-170886526D01*
X73153307Y-133197050D02*
X73109461Y-133199810D01*
X121089739Y-46617786D02*
X120999913Y-46593343D01*
X7000049Y-132951233D02*
X5000000Y-132951233D01*
X13204048Y-169855290D02*
X13246378Y-169915151D01*
X123848089Y-17137447D02*
X123927989Y-17103768D01*
X7000038Y-58951233D02*
X7000011Y-70838519D01*
X10527685Y-130961678D02*
X10544048Y-130887709D01*
X50952216Y-86166310D02*
X50883163Y-86124484D01*
X13204048Y-13644709D02*
X13158918Y-13702363D01*
X81210815Y-39500000D02*
X96580815Y-39500000D01*
X10644429Y-92393003D02*
X10614292Y-92325297D01*
X124457140Y-50237272D02*
X124439974Y-50145469D01*
X11941102Y-73598464D02*
X11863473Y-73593469D01*
X53059444Y-172673787D02*
X53026762Y-172683559D01*
X117547252Y-53930458D02*
X117459204Y-53899546D01*
X122021451Y-165573475D02*
X121929539Y-165509247D01*
X11494122Y-152512149D02*
X11424702Y-152485307D01*
X10992290Y-51138914D02*
X11047636Y-51091081D01*
X81210815Y-44500000D02*
X96580815Y-44500000D01*
X107656607Y-197001109D02*
X107764051Y-196926524D01*
X122027133Y-11906808D02*
X122071505Y-11950259D01*
X51237108Y-7452980D02*
X51190086Y-7387018D01*
X13435996Y-72534442D02*
X13412549Y-72605477D01*
X13246378Y-110764707D02*
X13285807Y-110826678D01*
X121490709Y-7265259D02*
X121405425Y-7228375D01*
X108947180Y-116060490D02*
X108968825Y-115931415D01*
X13385707Y-12174702D02*
X13412549Y-12244122D01*
X106523741Y-78953934D02*
X106651876Y-78928320D01*
X116553583Y-13398750D02*
X116535412Y-13325477D01*
X5000000Y-53951233D02*
X5000000Y-44500000D01*
X7530260Y-8296976D02*
X7468418Y-8390344D01*
X107044236Y-157812375D02*
X107182274Y-157757188D01*
X10841081Y-33551963D02*
X10795951Y-33494309D01*
X122154994Y-132457099D02*
X122114148Y-132504362D01*
X13111085Y-112607309D02*
X13060650Y-112660250D01*
X74524570Y-165002847D02*
X74450020Y-165011311D01*
X12575297Y-53635707D02*
X12505877Y-53662549D01*
X13498864Y-131191102D02*
X13500000Y-131250000D01*
X9402869Y-7060025D02*
X9293647Y-7084343D01*
X7128006Y-76869721D02*
X7162533Y-76976571D01*
X8152362Y-78363686D02*
X8240105Y-78429823D01*
X53393867Y-132777971D02*
X53386663Y-132814605D01*
X11494122Y-172162549D02*
X11424702Y-172135707D01*
X53400000Y-88500000D02*
X53399990Y-93203056D01*
X73615359Y-165825415D02*
X73603871Y-165912076D01*
X5000000Y-41500000D02*
X5000000Y-36338519D01*
X124482389Y-174386834D02*
X124490484Y-174337627D01*
X117407611Y-90621521D02*
X117476612Y-90593846D01*
X13355570Y-92393003D02*
X13322237Y-92458896D01*
X109245685Y-175543499D02*
X109292900Y-175492900D01*
X13060650Y-53310650D02*
X13007709Y-53361085D01*
X7410193Y-166485805D02*
X7355630Y-166583249D01*
X108992818Y-155207516D02*
X108998511Y-155094550D01*
X7905641Y-165852096D02*
X7825866Y-165932881D01*
X109292900Y-17492900D02*
X109338778Y-17449820D01*
X116600453Y-91459204D02*
X116628954Y-91390629D01*
X11227122Y-191885407D02*
X11165151Y-191845978D01*
X81210815Y-86000008D02*
X81210815Y-84000000D01*
X116660702Y-170323817D02*
X116695596Y-170258868D01*
X117941102Y-51001135D02*
X118000000Y-51000000D01*
X11941102Y-152598464D02*
X11863473Y-152593469D01*
X116774430Y-91134951D02*
X116818172Y-91076181D01*
X8437820Y-86438851D02*
X8343392Y-86498890D01*
X71640511Y-14397348D02*
X71619563Y-14338835D01*
X117941102Y-169501135D02*
X118000000Y-169500000D01*
X117547252Y-172430458D02*
X117459204Y-172399546D01*
X7052819Y-127939509D02*
X7033924Y-128050069D01*
X8437820Y-46938851D02*
X8343392Y-46998890D01*
X11494122Y-73512149D02*
X11424702Y-73485307D01*
X117619434Y-169548704D02*
X117711678Y-169527685D01*
X122114148Y-51495637D02*
X122154994Y-51542900D01*
X13355570Y-151742603D02*
X13322237Y-151808496D01*
X122299000Y-91250000D02*
X122329638Y-91305745D01*
X123927989Y-175103768D02*
X124004746Y-175063253D01*
X73244678Y-93678503D02*
X73199525Y-93689892D01*
X106651876Y-197428320D02*
X106778544Y-197397211D01*
X7606919Y-126690838D02*
X7530260Y-126796976D01*
X10527685Y-92038321D02*
X10515013Y-91963034D01*
X10677762Y-110890659D02*
X10714192Y-110826678D01*
X121595776Y-93376620D02*
X121527022Y-93404388D01*
X10992290Y-13861085D02*
X10939350Y-13810650D01*
X124499463Y-129685828D02*
X124497085Y-129610329D01*
X51669148Y-172643515D02*
X51637160Y-172625301D01*
X10677762Y-170041103D02*
X10714192Y-169977122D01*
X117323817Y-90660702D02*
X117407611Y-90621521D01*
X109500622Y-56833629D02*
X109560842Y-56801605D01*
X122027133Y-14093191D02*
X121981104Y-14134676D01*
X9848893Y-46503805D02*
X9736234Y-46511611D01*
X123600391Y-17194948D02*
X123686834Y-17182389D01*
X10501135Y-52308897D02*
X10500000Y-52250000D01*
X10677762Y-131958896D02*
X10644429Y-131893003D01*
X122299000Y-130750000D02*
X122329638Y-130805745D01*
X126499463Y-199500000D02*
X123340815Y-199500000D01*
X7000000Y-115338519D02*
X7000000Y-115500000D01*
X120999913Y-46593343D02*
X120927465Y-46575788D01*
X12434842Y-113035596D02*
X12362290Y-113055551D01*
X108561148Y-117062179D02*
X108635531Y-116933124D01*
X5000000Y-36338519D02*
X7000000Y-36338519D01*
X10501135Y-91808897D02*
X10500000Y-91750000D01*
X43810815Y-41500000D02*
X19470815Y-41500000D01*
X10644429Y-110956553D02*
X10677762Y-110890659D01*
X51459260Y-172436183D02*
X51442990Y-172403009D01*
X51316590Y-126100209D02*
X51281441Y-126027735D01*
X120276336Y-7000059D02*
X101580815Y-7000035D01*
X124419050Y-16594104D02*
X124439586Y-16542274D01*
X124419050Y-95594104D02*
X124439586Y-95542274D01*
X121728539Y-172311193D02*
X121674032Y-172340032D01*
X117134951Y-172225569D02*
X117061837Y-172170458D01*
X117459204Y-14399546D02*
X117373757Y-14363408D01*
X74450020Y-125511311D02*
X74376639Y-125525268D01*
X81210815Y-5000000D02*
X96580815Y-5000000D01*
X106778544Y-78897211D02*
X106903573Y-78860677D01*
X109338778Y-17449820D02*
X109391965Y-17406099D01*
X53364272Y-93385500D02*
X53350558Y-93416681D01*
X116553583Y-131898750D02*
X116535412Y-131825477D01*
X7304774Y-166682569D02*
X7257670Y-166783656D01*
X8073428Y-126200391D02*
X7988243Y-126274537D01*
X71709857Y-54012606D02*
X71687987Y-53983223D01*
X101580815Y-41500000D02*
X101580815Y-39500000D01*
X10544048Y-150737276D02*
X10564003Y-150664721D01*
X71709857Y-133012606D02*
X71687987Y-132983223D01*
X124077900Y-175016096D02*
X124142199Y-174966527D01*
X117730380Y-93475832D02*
X117637709Y-93455951D01*
X12952363Y-152258518D02*
X12894709Y-152303648D01*
X109752488Y-17231121D02*
X109819286Y-17216465D01*
X10501135Y-32540695D02*
X10506130Y-32463058D01*
X10644429Y-91106996D02*
X10677762Y-91041103D01*
X10515013Y-72312634D02*
X10506130Y-72236126D01*
X7019150Y-49161508D02*
X7008541Y-49273715D01*
X51079865Y-165266675D02*
X51017907Y-165213759D01*
X122299000Y-170250000D02*
X122329638Y-170305745D01*
X10501135Y-32658497D02*
X10500000Y-32599600D01*
X10501135Y-190540695D02*
X10506130Y-190463058D01*
X117711678Y-130027685D02*
X117786965Y-130015013D01*
X12058897Y-192098464D02*
X12000000Y-192099600D01*
X109447783Y-175366310D02*
X109500622Y-175333629D01*
X9130315Y-39372001D02*
X9238868Y-39402597D01*
X13322237Y-13458896D02*
X13285807Y-13522877D01*
X108982908Y-115819841D02*
X108992818Y-115707516D01*
X124316096Y-135277900D02*
X124347164Y-135231310D01*
X11105290Y-51045951D02*
X11165151Y-51003621D01*
X73957800Y-46733472D02*
X73901878Y-46784033D01*
X12708896Y-191921837D02*
X12643003Y-191955170D01*
X10795951Y-169855290D02*
X10841081Y-169797636D01*
X124004746Y-175063253D02*
X124077900Y-175016096D01*
X53255823Y-172551162D02*
X53232998Y-172572866D01*
X124349253Y-10303628D02*
X124318791Y-10215808D01*
X51386740Y-7837701D02*
X51370397Y-7758510D01*
X13204048Y-33494309D02*
X13158918Y-33551963D01*
X124471460Y-50329723D02*
X124457140Y-50237272D01*
X14470815Y-123500000D02*
X14470815Y-125500000D01*
X7243042Y-77184818D02*
X7288858Y-77286049D01*
X12834848Y-171996378D02*
X12772877Y-172035807D01*
X12434842Y-132685996D02*
X12362290Y-132705951D01*
X53059444Y-54173787D02*
X53026762Y-54183559D01*
X10544048Y-190961890D02*
X10527685Y-190887921D01*
X7033924Y-128050069D02*
X7019150Y-128161508D01*
X96580815Y-163000000D02*
X96580815Y-165000028D01*
X10587450Y-52755877D02*
X10564003Y-52684842D01*
X123340815Y-56699823D02*
X123518923Y-56699821D01*
X124497085Y-129610329D02*
X124491458Y-129516315D01*
X109001604Y-176143357D02*
X109006385Y-176087167D01*
X124497085Y-11110329D02*
X124491458Y-11016315D01*
X9736234Y-125511611D02*
X9624271Y-125523614D01*
X108335386Y-196383044D02*
X108415474Y-196279152D01*
X120762727Y-7042859D02*
X120670276Y-7028539D01*
X124211345Y-88958674D02*
X124170263Y-88875282D01*
X121160973Y-165139322D02*
X121089739Y-165117786D01*
X7338269Y-156385240D02*
X7391192Y-156482308D01*
X11863473Y-113093469D02*
X11786965Y-113084586D01*
X10795951Y-33494309D02*
X10753621Y-33434448D01*
X124499463Y-90185828D02*
X124497085Y-90110329D01*
X71601046Y-132732511D02*
X71600000Y-132699900D01*
X13484986Y-170536965D02*
X13493869Y-170613473D01*
X53318574Y-132973389D02*
X53298868Y-133001404D01*
X76210815Y-118500000D02*
X76210815Y-120500000D01*
X74298799Y-46546450D02*
X74228788Y-46571466D01*
X7000049Y-93451233D02*
X5000000Y-93451233D01*
X11637709Y-53705951D02*
X11565157Y-53685996D01*
X107044236Y-39312375D02*
X107182274Y-39257188D01*
X117786965Y-51015013D02*
X117863473Y-51006130D01*
X13498864Y-151040695D02*
X13500000Y-151099600D01*
X13455951Y-72461890D02*
X13435996Y-72534442D01*
X123340815Y-135699823D02*
X123518923Y-135699821D01*
X108561148Y-38062179D02*
X108635531Y-37933124D01*
X106263765Y-39488388D02*
X106394313Y-39473980D01*
X131499463Y-204500000D02*
X131499463Y0D01*
X73715646Y-7533210D02*
X73683409Y-7600209D01*
X124249811Y-89043268D02*
X124211345Y-88958674D01*
X51316590Y-86600209D02*
X51281441Y-86527735D01*
X73631121Y-7752488D02*
X73615359Y-7825415D01*
X9513113Y-46539767D02*
X9402869Y-46560025D01*
X7984581Y-38722206D02*
X8067160Y-38794452D01*
X13472314Y-170461678D02*
X13484986Y-170536965D01*
X12000000Y-53750000D02*
X11941102Y-53748864D01*
X107969479Y-196762965D02*
X108067118Y-196674133D01*
X13007709Y-189488479D02*
X13060650Y-189538912D01*
X53208984Y-133092989D02*
X53181297Y-133113253D01*
X8067160Y-38794452D02*
X8152362Y-38863686D01*
X8732899Y-46780751D02*
X8632682Y-46829736D01*
X12434842Y-14185996D02*
X12362290Y-14205951D01*
X121728539Y-14311193D02*
X121674032Y-14340032D01*
X116520882Y-13250836D02*
X116510091Y-13174926D01*
X121312723Y-169532924D02*
X121373345Y-169547168D01*
X121445023Y-14432495D02*
X121373345Y-14452831D01*
X51137585Y-125824759D02*
X51079865Y-125766675D01*
X101580815Y-125500035D02*
X101580815Y-123500000D01*
X122357745Y-130862427D02*
X122383319Y-130919965D01*
X109338778Y-175449820D02*
X109391965Y-175406099D01*
X116510091Y-131325073D02*
X116520882Y-131249163D01*
X74376639Y-125525268D02*
X74298799Y-125546450D01*
X109014290Y-176031554D02*
X109025268Y-175976639D01*
X11356996Y-14105570D02*
X11291103Y-14072237D01*
X11711678Y-149627282D02*
X11786965Y-149614611D01*
X11291103Y-112921837D02*
X11227122Y-112885407D01*
X12136526Y-70605729D02*
X12213034Y-70614611D01*
X8632682Y-46829736D02*
X8534286Y-46882451D01*
X122071505Y-172049740D02*
X122027133Y-172093191D01*
X13322237Y-151808496D02*
X13285807Y-151872477D01*
X106778544Y-197397211D02*
X106903573Y-197360677D01*
X12505877Y-70687040D02*
X12575297Y-70713878D01*
X8955763Y-7187624D02*
X8834828Y-7235540D01*
X121933487Y-90825844D02*
X121981104Y-90865323D01*
X10888914Y-33607309D02*
X10841081Y-33551963D01*
X124170263Y-88875282D02*
X124135531Y-88809475D01*
X10753621Y-51415151D02*
X10795951Y-51355290D01*
X13385707Y-151674897D02*
X13355570Y-151742603D01*
X12434842Y-172185996D02*
X12362290Y-172205951D01*
X5000000Y-5000000D02*
X14470815Y-5000000D01*
X53386663Y-53814605D02*
X53375835Y-53853450D01*
X53398329Y-172240739D02*
X53393867Y-172277971D01*
X11291103Y-149777342D02*
X11356996Y-149744012D01*
X107416750Y-118144369D02*
X107530245Y-118080355D01*
X7015980Y-115811541D02*
X7030026Y-115926090D01*
X71709857Y-172512606D02*
X71687987Y-172483223D01*
X12894709Y-70895521D02*
X12952363Y-70940649D01*
X13246378Y-169915151D02*
X13285807Y-169977122D01*
X51893436Y-54199857D02*
X51854496Y-54197856D01*
X116864666Y-12019669D02*
X116913812Y-11965513D01*
X12000000Y-189099600D02*
X12058897Y-189100735D01*
X11565157Y-34035596D02*
X11494122Y-34012149D01*
X121527022Y-14404388D02*
X121445023Y-14432495D01*
X10501135Y-190658497D02*
X10500000Y-190599600D01*
X124499462Y-129721300D02*
X124499463Y-129685828D01*
X123674133Y-88175481D02*
X123621300Y-88121300D01*
X122266045Y-53304401D02*
X122231012Y-53357078D01*
X117211437Y-132776227D02*
X117134951Y-132725569D01*
X8067160Y-196794452D02*
X8152362Y-196863686D01*
X120427327Y-125504812D02*
X120276336Y-125500059D01*
X12362290Y-169294048D02*
X12434842Y-169314003D01*
X10644429Y-171393003D02*
X10614292Y-171325297D01*
X13412549Y-112105477D02*
X13385707Y-112174897D01*
X11047636Y-51091081D02*
X11105290Y-51045951D01*
X121717735Y-130182860D02*
X121781808Y-130219853D01*
X122027133Y-130406808D02*
X122071505Y-130450259D01*
X122154994Y-12042900D02*
X122193972Y-12092008D01*
X10939350Y-132310650D02*
X10888914Y-132257709D01*
X122383319Y-13580034D02*
X122357745Y-13637572D01*
X51316590Y-47100209D02*
X51281441Y-47027735D01*
X121527022Y-53904388D02*
X121445023Y-53932495D01*
X116818172Y-91076181D02*
X116864666Y-91019669D01*
X10544048Y-71737276D02*
X10564003Y-71664721D01*
X121755488Y-125900844D02*
X121657724Y-125846896D01*
X12952363Y-92908918D02*
X12894709Y-92954048D01*
X10841081Y-169797636D02*
X10888914Y-169742290D01*
X11565157Y-129814003D02*
X11637709Y-129794048D01*
X121851287Y-46958462D02*
X121755488Y-46900844D01*
X72035334Y-54195754D02*
X71979247Y-54185215D01*
X13472314Y-190887921D02*
X13455951Y-190961890D01*
X10614292Y-32024260D02*
X10644429Y-31956553D01*
X73683409Y-126100209D02*
X73654212Y-126175250D01*
X124211345Y-167958674D02*
X124170263Y-167875282D01*
X73631121Y-165752488D02*
X73615359Y-165825415D01*
X118000000Y-133000000D02*
X117902153Y-132996859D01*
X13158918Y-189647195D02*
X13204048Y-189704847D01*
X122071505Y-11950259D02*
X122114148Y-11995637D01*
X122266045Y-91195598D02*
X122299000Y-91250000D01*
X12000000Y-93250000D02*
X11941102Y-93248864D01*
X109130547Y-57206009D02*
X109166310Y-57147783D01*
X10500000Y-170750000D02*
X10501135Y-170691102D01*
X10753621Y-169915151D02*
X10795951Y-169855290D01*
X117619434Y-130048704D02*
X117711678Y-130027685D01*
X121550104Y-169604494D02*
X121607088Y-169628332D01*
X13493869Y-190736126D02*
X13484986Y-190812634D01*
X11291103Y-129927762D02*
X11356996Y-129894429D01*
X108968825Y-36931415D02*
X108982908Y-36819841D01*
X51409229Y-14295998D02*
X51403364Y-14258202D01*
X73504440Y-132993889D02*
X73475128Y-133030471D01*
X13158918Y-90797636D02*
X13204048Y-90855290D01*
X13204048Y-112494309D02*
X13158918Y-112551963D01*
X117061837Y-172170458D02*
X116992290Y-172111085D01*
X13455951Y-170387709D02*
X13472314Y-170461678D01*
X13385707Y-150524260D02*
X13412549Y-150593682D01*
X122357745Y-132137572D02*
X122329638Y-132194254D01*
X121933487Y-11825844D02*
X121981104Y-11865323D01*
X71605005Y-93270904D02*
X71601046Y-93232511D01*
X8240105Y-38929823D02*
X8330303Y-38992782D01*
X109686999Y-17250258D02*
X109752488Y-17231121D01*
X51779247Y-14685215D02*
X51737257Y-14672807D01*
X50481679Y-46503340D02*
X50400000Y-46500000D01*
X50883163Y-86124484D02*
X50805461Y-86085903D01*
X10527685Y-111887921D02*
X10515013Y-111812634D01*
X10644429Y-33242603D02*
X10614292Y-33174897D01*
X5000000Y-149838519D02*
X5000000Y-137951233D01*
X7097409Y-155761164D02*
X7128006Y-155869721D01*
X106778544Y-118397211D02*
X106903573Y-118360677D01*
X9513113Y-165039767D02*
X9402869Y-165060025D01*
X12894709Y-31395521D02*
X12952363Y-31440649D01*
X109752488Y-56731121D02*
X109819286Y-56716465D01*
X7304774Y-48182569D02*
X7257670Y-48283656D01*
X122444850Y-171403091D02*
X122426872Y-171462712D01*
X11941102Y-53748864D02*
X11863473Y-53743869D01*
X13246378Y-51415151D02*
X13285807Y-51477122D01*
X10587450Y-170244122D02*
X10614292Y-170174702D01*
X73756154Y-125963433D02*
X73715646Y-126033210D01*
X7570204Y-156759938D02*
X7659083Y-156876366D01*
X12505877Y-34012149D02*
X12434842Y-34035596D01*
X117637709Y-132955951D02*
X117547252Y-132930458D01*
X109076137Y-96817312D02*
X109098901Y-96766418D01*
X81210815Y-197500000D02*
X96580815Y-197500000D01*
X124499463Y-44500000D02*
X126499463Y-44500000D01*
X7749440Y-47516357D02*
X7676443Y-47602378D01*
X116864666Y-13980330D02*
X116806974Y-13909333D01*
X11565157Y-14185996D02*
X11494122Y-14162549D01*
X51237108Y-86452980D02*
X51190086Y-86387018D01*
X73683409Y-7600209D02*
X73654212Y-7675250D01*
X73330659Y-172643503D02*
X73288484Y-172663001D01*
X74155282Y-7104344D02*
X74084571Y-7143080D01*
X13285807Y-151872477D02*
X13246378Y-151934448D01*
X81210815Y-163000000D02*
X96580815Y-163000000D01*
X122154994Y-13957099D02*
X122114148Y-14004362D01*
X122027133Y-53593191D02*
X121981104Y-53634676D01*
X72035334Y-14695754D02*
X71979247Y-14685215D01*
X7825866Y-165932881D02*
X7749440Y-166016357D01*
X48810815Y-158000000D02*
X76210815Y-158000000D01*
X7606919Y-166190838D02*
X7530260Y-166296976D01*
X120999913Y-86093343D02*
X120927465Y-86075788D01*
X76210815Y-44500000D02*
X76210815Y-46500002D01*
X121781808Y-51219853D02*
X121833769Y-51253069D01*
X51400000Y-126500000D02*
X51396659Y-126418320D01*
X118340815Y-160000000D02*
X101580815Y-160000000D01*
X13500000Y-170750000D02*
X13498864Y-170808897D01*
X123738058Y-88244864D02*
X123674133Y-88175481D01*
X71979247Y-133185215D02*
X71919748Y-133166411D01*
X122473210Y-52217670D02*
X122483591Y-52278649D01*
X116504513Y-131617220D02*
X116500505Y-131539327D01*
X12643003Y-191955170D02*
X12575297Y-191985307D01*
X122231012Y-92857078D02*
X122193972Y-92907991D01*
X109447783Y-96366310D02*
X109500622Y-96333629D01*
X10500000Y-190599600D02*
X10501135Y-190540695D01*
X7030026Y-115926090D02*
X7048335Y-116039265D01*
X51477854Y-132967925D02*
X51459260Y-132936183D01*
X121000000Y-93500000D02*
X118000000Y-93500000D01*
X13472314Y-131538321D02*
X13455951Y-131612290D01*
X124142199Y-135466527D02*
X124179865Y-135433324D01*
X117547252Y-51069541D02*
X117619434Y-51048704D01*
X124211345Y-128458674D02*
X124170263Y-128375282D01*
X51417863Y-93332805D02*
X51409229Y-93295998D01*
X108849253Y-37438971D02*
X108887323Y-37314441D01*
X122491441Y-52660081D02*
X122483591Y-52721350D01*
X106778544Y-157897211D02*
X106903573Y-157860677D01*
X74376639Y-165025268D02*
X74298799Y-165046450D01*
X10564003Y-170315157D02*
X10587450Y-170244122D01*
X7905641Y-47352096D02*
X7825866Y-47432881D01*
X11165151Y-92996378D02*
X11105290Y-92954048D01*
X13322237Y-72808496D02*
X13285807Y-72872477D01*
X123340815Y-17199823D02*
X123518923Y-17199821D01*
X122071505Y-169950259D02*
X122114148Y-169995637D01*
X117211437Y-14276227D02*
X117134951Y-14225569D01*
X10753621Y-92584848D02*
X10714192Y-92522877D01*
X117373757Y-93363408D02*
X117291103Y-93322237D01*
X124041537Y-88648712D02*
X123990752Y-88570460D01*
X116660702Y-51823817D02*
X116695596Y-51758868D01*
X124499463Y-169185828D02*
X124497085Y-169110329D01*
X116864666Y-53480330D02*
X116806974Y-53409333D01*
X51606698Y-172604856D02*
X51577873Y-172582292D01*
X10515013Y-131036965D02*
X10527685Y-130961678D01*
X12952363Y-53408918D02*
X12894709Y-53454048D01*
X116628954Y-130890629D02*
X116660702Y-130823817D01*
X5000000Y-84000000D02*
X7000000Y-84000000D01*
X11494122Y-110187040D02*
X11565157Y-110163595D01*
X10841081Y-171702363D02*
X10795951Y-171644709D01*
X11047636Y-31440649D02*
X11105290Y-31395521D01*
X123738058Y-9244864D02*
X123674133Y-9175481D01*
X50562298Y-7013259D02*
X50481679Y-7003340D01*
X123340815Y-175199823D02*
X123518923Y-175199821D01*
X117323817Y-51160702D02*
X117407611Y-51121521D01*
X11786965Y-50765013D02*
X11863473Y-50756130D01*
X10939350Y-90689350D02*
X10992290Y-90638914D01*
X108968825Y-115931415D02*
X108982908Y-115819841D01*
X107868400Y-78347119D02*
X107969479Y-78262965D01*
X109076137Y-17817312D02*
X109098901Y-17766418D01*
X13158918Y-110647195D02*
X13204048Y-110704847D01*
X122483591Y-91778649D02*
X122491441Y-91839918D01*
X121781808Y-93280146D02*
X121728539Y-93311193D01*
X109447783Y-135866310D02*
X109500622Y-135833629D01*
X13484986Y-91536965D02*
X13493869Y-91613473D01*
X123674133Y-48675481D02*
X123621300Y-48621300D01*
X51816396Y-172692938D02*
X51779247Y-172685215D01*
X13060650Y-73160250D02*
X13007709Y-73210685D01*
X73370920Y-54120127D02*
X73330659Y-54143503D01*
X116504513Y-92117220D02*
X116500505Y-92039327D01*
X12505877Y-11337450D02*
X12575297Y-11364292D01*
X7000059Y-9981063D02*
X7000049Y-14451233D01*
X71671405Y-132957510D02*
X71653573Y-132925279D01*
X108335386Y-156883044D02*
X108415474Y-156779152D01*
X11637709Y-189143643D02*
X11711678Y-189127282D01*
X11711678Y-34071914D02*
X11637709Y-34055551D01*
X122473210Y-91717670D02*
X122483591Y-91778649D01*
X10888914Y-169742290D02*
X10939350Y-169689350D01*
X108695225Y-37817430D02*
X108749811Y-37699331D01*
X10714192Y-53022877D02*
X10677762Y-52958896D01*
X81210815Y-158000000D02*
X96580815Y-158000000D01*
X124089806Y-9728405D02*
X124041537Y-9648712D01*
X13111085Y-152107309D02*
X13060650Y-152160250D01*
X117258868Y-11695596D02*
X117323817Y-11660702D01*
X51137585Y-7324759D02*
X51079865Y-7266675D01*
X50724749Y-46554212D02*
X50647511Y-46531121D01*
X116753621Y-53334848D02*
X116704800Y-53257066D01*
X124285635Y-89129000D02*
X124249811Y-89043268D01*
X122378700Y-126378700D02*
X122324518Y-126325866D01*
X101580815Y-46500035D02*
X101580815Y-44500000D01*
X121288265Y-53972075D02*
X121214230Y-53984651D01*
X51017907Y-165213759D02*
X50952216Y-165166310D01*
X121550104Y-90604494D02*
X121607088Y-90628332D01*
X8713993Y-157711158D02*
X8815223Y-157756971D01*
X10587450Y-91244122D02*
X10614292Y-91174702D01*
X7015980Y-76311541D02*
X7030026Y-76426090D01*
X117373757Y-53863408D02*
X117291103Y-53822237D01*
X121126732Y-51005348D02*
X121189347Y-51011973D01*
X116553583Y-92398750D02*
X116535412Y-92325477D01*
X11637709Y-11294048D02*
X11711678Y-11277685D01*
X10714192Y-130477122D02*
X10753621Y-130415151D01*
X126499463Y-174221300D02*
X126499463Y-199500000D01*
X121405425Y-86228375D02*
X121319039Y-86194148D01*
X123765511Y-56664099D02*
X123848089Y-56637447D01*
X109166310Y-136147783D02*
X109206099Y-136091965D01*
X116774430Y-12134951D02*
X116818172Y-12076181D01*
X118000000Y-54000000D02*
X117902153Y-53996859D01*
X13158918Y-11797636D02*
X13204048Y-11855290D01*
X121249181Y-46668698D02*
X121160973Y-46639322D01*
X13060650Y-171810650D02*
X13007709Y-171861085D01*
X117258868Y-51195596D02*
X117323817Y-51160702D01*
X13455951Y-12387709D02*
X13472314Y-12461678D01*
X109166310Y-175647783D02*
X109206099Y-175591965D01*
X116600453Y-130959204D02*
X116628954Y-130890629D01*
X71600000Y-128000000D02*
X53400000Y-128000000D01*
X116600453Y-13540795D02*
X116575296Y-13470555D01*
X121214230Y-132984651D02*
X121139300Y-132993534D01*
X74228788Y-86071466D02*
X74155282Y-86104344D01*
X121657724Y-86346896D02*
X121558102Y-86296662D01*
X10841081Y-132202363D02*
X10795951Y-132144709D01*
X74084571Y-7143080D02*
X74022099Y-7183903D01*
X50562298Y-125513259D02*
X50481679Y-125503340D01*
X122266045Y-92804401D02*
X122231012Y-92857078D01*
X13322237Y-112308496D02*
X13285807Y-112372477D01*
X14470815Y-44500000D02*
X14470815Y-46500000D01*
X109500622Y-135833629D02*
X109560842Y-135801605D01*
X7000038Y-98451233D02*
X7000011Y-110338519D01*
X71806698Y-172604856D02*
X71782559Y-172586195D01*
X13204048Y-71204847D02*
X13246378Y-71264707D01*
X12772877Y-172035807D02*
X12708896Y-172072237D01*
X108998511Y-36594550D02*
X109000000Y-36500000D01*
X122426872Y-171462712D02*
X122406362Y-171521720D01*
X51237108Y-165452980D02*
X51190086Y-165387018D01*
X124499285Y-134737806D02*
X124499286Y-134721300D01*
X108695225Y-156317430D02*
X108749811Y-156199331D01*
X51854496Y-93697856D02*
X51816396Y-93692938D01*
X122491441Y-52339918D02*
X122496758Y-52401397D01*
X10795951Y-151994309D02*
X10753621Y-151934448D01*
X7355630Y-8583249D02*
X7304774Y-8682569D01*
X13246378Y-11915151D02*
X13285807Y-11977122D01*
X13435996Y-52684842D02*
X13412549Y-52755877D01*
X71755184Y-54061950D02*
X71729649Y-54035789D01*
X10841081Y-90797636D02*
X10888914Y-90742290D01*
X7000000Y-76000000D02*
X7001011Y-76078658D01*
X73598576Y-53737614D02*
X73593370Y-53781049D01*
X72035334Y-133195754D02*
X71979247Y-133185215D01*
X11711678Y-113071914D02*
X11637709Y-113055551D01*
X53152388Y-93631511D02*
X53122368Y-93647717D01*
X73109461Y-93699810D02*
X72093436Y-93699857D01*
X7033924Y-49050069D02*
X7019150Y-49161508D01*
X12288321Y-189127282D02*
X12362290Y-189143643D01*
X109560842Y-135801605D02*
X109623043Y-135773784D01*
X53181297Y-54113253D02*
X53152388Y-54131511D01*
X108992818Y-194707516D02*
X108998511Y-194594550D01*
X73444566Y-54062208D02*
X73408984Y-54092989D01*
X73153307Y-14697050D02*
X73109461Y-14699810D01*
X122383319Y-51919965D02*
X122406362Y-51978279D01*
X121717735Y-11682860D02*
X121781808Y-11719853D01*
X7000011Y-70838519D02*
X5000000Y-70838519D01*
X123621300Y-48621300D02*
X122378700Y-47378700D01*
X11105290Y-171954048D02*
X11047636Y-171908918D01*
X74450020Y-86011311D02*
X74376639Y-86025268D01*
X13111085Y-110591850D02*
X13158918Y-110647195D01*
X123686834Y-17182389D02*
X123765511Y-17164099D01*
X73603871Y-47412076D02*
X73600000Y-47500000D01*
X13285807Y-191372477D02*
X13246378Y-191434448D01*
X52950195Y-14697374D02*
X52903156Y-14699890D01*
X106523741Y-118453934D02*
X106651876Y-118428320D01*
X51779247Y-172685215D02*
X51737257Y-172672807D01*
X43810815Y-39500000D02*
X43810815Y-41500000D01*
X50952216Y-7166310D02*
X50883163Y-7124484D01*
X107969479Y-117762965D02*
X108067118Y-117674133D01*
X50952216Y-165166310D02*
X50883163Y-165124484D01*
X12434842Y-189163595D02*
X12505877Y-189187040D01*
X11637709Y-132705951D02*
X11565157Y-132685996D01*
X124439586Y-56042274D02*
X124457212Y-55989351D01*
X12362290Y-110143643D02*
X12434842Y-110163595D01*
X122071505Y-130450259D02*
X122114148Y-130495637D01*
X53375835Y-14353450D02*
X53364272Y-14385500D01*
X12362290Y-113055551D02*
X12288321Y-113071914D01*
X124215966Y-174898121D02*
X124250179Y-174861221D01*
X53375835Y-53853450D02*
X53364272Y-53885500D01*
X10841081Y-112551963D02*
X10795951Y-112494309D01*
X117195879Y-169733538D02*
X117258868Y-169695596D01*
X11291103Y-132572237D02*
X11227122Y-132535807D01*
X71653573Y-53925279D02*
X71640511Y-53897348D01*
X13435996Y-190164721D02*
X13455951Y-190237276D01*
X11165151Y-110353195D02*
X11227122Y-110313769D01*
X13158918Y-71147195D02*
X13204048Y-71204847D01*
X109014290Y-97031554D02*
X109025268Y-96976639D01*
X9293647Y-125584343D02*
X9185558Y-125612676D01*
X121312723Y-130032924D02*
X121373345Y-130047168D01*
X11863473Y-53743869D02*
X11786965Y-53734986D01*
X12894709Y-191803648D02*
X12834848Y-191845978D01*
X13204048Y-92644709D02*
X13158918Y-92702363D01*
X51429153Y-172368512D02*
X51417863Y-172332805D01*
X12136526Y-132743869D02*
X12058897Y-132748864D01*
X12505877Y-149687040D02*
X12575297Y-149713878D01*
X121373345Y-130047168D02*
X121433162Y-130063872D01*
X73444566Y-172562208D02*
X73408984Y-172592989D01*
X118340815Y-17199889D02*
X118340815Y-41500000D01*
X53400000Y-49000000D02*
X53399990Y-53703056D01*
X124439586Y-135042274D02*
X124457212Y-134989351D01*
X11786965Y-110114611D02*
X11863473Y-110105729D01*
X11105290Y-152303648D02*
X11047636Y-152258518D01*
X8422875Y-197052478D02*
X8517736Y-197108828D01*
X12000000Y-50750000D02*
X12058897Y-50751135D01*
X7207518Y-127403678D02*
X7168698Y-127508218D01*
X7904708Y-78147032D02*
X7984581Y-78222206D01*
X10677762Y-189890659D02*
X10714192Y-189826678D01*
X51400000Y-47500000D02*
X51396659Y-47418320D01*
X101580815Y-197500000D02*
X106000000Y-197500000D01*
X10888914Y-130242290D02*
X10939350Y-130189350D01*
X12708896Y-129927762D02*
X12772877Y-129964192D01*
X9402869Y-125560025D02*
X9293647Y-125584343D01*
X51396659Y-86918320D02*
X51386740Y-86837701D01*
X107416750Y-157644369D02*
X107530245Y-157580355D01*
X73288484Y-14663001D02*
X73244678Y-14678503D01*
X73330659Y-14643503D02*
X73288484Y-14663001D01*
X10515013Y-71886543D02*
X10527685Y-71811250D01*
X116926502Y-172047645D02*
X116864666Y-171980330D01*
X71671405Y-53957510D02*
X71653573Y-53925279D01*
X13204048Y-132144709D02*
X13158918Y-132202363D01*
X7000000Y-84000000D02*
X14470815Y-84000000D01*
X117134951Y-169774430D02*
X117195879Y-169733538D01*
X11047636Y-92908918D02*
X10992290Y-92861085D01*
X13322237Y-150390659D02*
X13355570Y-150456553D01*
X10544048Y-111237276D02*
X10564003Y-111164721D01*
X9402869Y-86060025D02*
X9293647Y-86084343D01*
X10506130Y-52113473D02*
X10515013Y-52036965D01*
X13435996Y-32164721D02*
X13455951Y-32237276D01*
X12288321Y-132722314D02*
X12213034Y-132734986D01*
X13493869Y-91886526D02*
X13484986Y-91963034D01*
X108887323Y-155814441D02*
X108919989Y-155688224D01*
X122406362Y-130978279D02*
X122426872Y-131037287D01*
X7033924Y-9550069D02*
X7019150Y-9661508D01*
X73598576Y-14237614D02*
X73593370Y-14281049D01*
X123847119Y-127874200D02*
X123787489Y-127801656D01*
X109560842Y-17301605D02*
X109623043Y-17273784D01*
X8161087Y-86629705D02*
X8073428Y-86700391D01*
X122114148Y-90995637D02*
X122154994Y-91042900D01*
X13493869Y-72236126D02*
X13484986Y-72312634D01*
X10753621Y-11915151D02*
X10795951Y-11855290D01*
X10500000Y-52250000D02*
X10501135Y-52191102D01*
X73475128Y-54030471D02*
X73444566Y-54062208D01*
X116553583Y-171398750D02*
X116535412Y-171325477D01*
X109500622Y-96333629D02*
X109560842Y-96301605D01*
X8918409Y-78799105D02*
X9023467Y-78837476D01*
X109166310Y-96647783D02*
X109206099Y-96591965D01*
X51237108Y-125952980D02*
X51190086Y-125887018D01*
X96580815Y-39500000D02*
X96580815Y-41500000D01*
X11565157Y-90314003D02*
X11637709Y-90294048D01*
X71640511Y-93397348D02*
X71619563Y-93338835D01*
X116500505Y-171039327D02*
X116500126Y-170980306D01*
X13355570Y-130606996D02*
X13385707Y-130674702D01*
X13493869Y-52113473D02*
X13498864Y-52191102D01*
X117459204Y-172399546D02*
X117373757Y-172363408D01*
X121981104Y-11865323D02*
X122027133Y-11906808D01*
X13493869Y-12613473D02*
X13498864Y-12691102D01*
X13493869Y-111736126D02*
X13484986Y-111812634D01*
X10587450Y-130744122D02*
X10614292Y-130674702D01*
X121405425Y-7228375D02*
X121319039Y-7194148D01*
X116535412Y-131825477D02*
X116520882Y-131750836D01*
X109056243Y-57369395D02*
X109076137Y-57317312D01*
X124089806Y-128228405D02*
X124041537Y-128148712D01*
X117476612Y-169593846D02*
X117547252Y-169569541D01*
X108992818Y-76207516D02*
X108998511Y-76094550D01*
X7000059Y-167981063D02*
X7000049Y-172451233D01*
X7168698Y-9008218D02*
X7133773Y-9114180D01*
X10644429Y-131893003D02*
X10614292Y-131825297D01*
X12575297Y-149713878D02*
X12643003Y-149744012D01*
X109887167Y-135706385D02*
X109949630Y-135701268D01*
X7304774Y-87682569D02*
X7257670Y-87783656D01*
X107044236Y-78812375D02*
X107182274Y-78757188D01*
X71600000Y-14199900D02*
X71600000Y-9500000D01*
X11711678Y-169277685D02*
X11786965Y-169265013D01*
X116600453Y-171540795D02*
X116575296Y-171470555D01*
X13204048Y-90855290D02*
X13246378Y-90915151D01*
X11165151Y-169503621D02*
X11227122Y-169464192D01*
X13322237Y-189890659D02*
X13355570Y-189956553D01*
X8834828Y-165235540D02*
X8732899Y-165280751D01*
X8422875Y-39052478D02*
X8517736Y-39108828D01*
X10753621Y-151934448D02*
X10714192Y-151872477D01*
X11786965Y-113084586D02*
X11711678Y-113071914D01*
X13355570Y-110956553D02*
X13385707Y-111024260D01*
X10515013Y-150886543D02*
X10527685Y-150811250D01*
X13455951Y-71737276D02*
X13472314Y-71811250D01*
X116926502Y-93047645D02*
X116864666Y-92980330D01*
X10544048Y-72461890D02*
X10527685Y-72387921D01*
X7048335Y-195039265D02*
X7070824Y-195150985D01*
X107656607Y-157501109D02*
X107764051Y-157426524D01*
X123893080Y-9433438D02*
X123847119Y-9374199D01*
X126499463Y-160000000D02*
X124499463Y-160000000D01*
X123847119Y-88374200D02*
X123787489Y-88301656D01*
X76210815Y-165000002D02*
X74600000Y-165000000D01*
X122027133Y-90906808D02*
X122071505Y-90950259D01*
X10939350Y-92810650D02*
X10888914Y-92757709D01*
X116774430Y-130634951D02*
X116818172Y-130576181D01*
X9402869Y-46560025D02*
X9293647Y-46584343D01*
X11565157Y-93185996D02*
X11494122Y-93162549D01*
X5000000Y-163000000D02*
X7000000Y-163000000D01*
X13412549Y-12244122D02*
X13435996Y-12315157D01*
X116510091Y-52674926D02*
X116504513Y-52617220D01*
X121728539Y-53811193D02*
X121674032Y-53840032D01*
X10000000Y-7000000D02*
X9848893Y-7003805D01*
X10515013Y-190812634D02*
X10506130Y-190736126D01*
X120427327Y-7004812D02*
X120276336Y-7000059D01*
X12058897Y-129751135D02*
X12136526Y-129756130D01*
X74524570Y-46502847D02*
X74450020Y-46511311D01*
X10714192Y-71326678D02*
X10753621Y-71264707D01*
X109292900Y-135992900D02*
X109338778Y-135949820D01*
X10753621Y-132084848D02*
X10714192Y-132022877D01*
X10501135Y-170691102D02*
X10506130Y-170613473D01*
X122483591Y-131278649D02*
X122491441Y-131339918D01*
X7802565Y-78042387D02*
X7904708Y-78147032D01*
X53152388Y-172631511D02*
X53122368Y-172647717D01*
X108998511Y-194594550D02*
X109000000Y-194500000D01*
X117019669Y-169864666D02*
X117076181Y-169818172D01*
X51190086Y-165387018D02*
X51137585Y-165324759D01*
X71687987Y-132983223D02*
X71671405Y-132957510D01*
X10506130Y-52386526D02*
X10501135Y-52308897D01*
X13111085Y-132257709D02*
X13060650Y-132310650D01*
X10527685Y-71811250D02*
X10544048Y-71737276D01*
X126499463Y-16221300D02*
X126499463Y-41500000D01*
X121288265Y-132972075D02*
X121214230Y-132984651D01*
X121139300Y-53993534D02*
X121063593Y-53998656D01*
X122426872Y-52962712D02*
X122406362Y-53021720D01*
X11356996Y-110244012D02*
X11424702Y-110213878D01*
X53152388Y-14631511D02*
X53122368Y-14647717D01*
X12708896Y-169427762D02*
X12772877Y-169464192D01*
X9848893Y-7003805D02*
X9736234Y-7011611D01*
X12834848Y-149853195D02*
X12894709Y-149895521D01*
X10939350Y-110538912D02*
X10992290Y-110488479D01*
X108250559Y-117483642D02*
X108335386Y-117383044D01*
X13472314Y-130961678D02*
X13484986Y-131036965D01*
X123787489Y-88301656D02*
X123738058Y-88244864D01*
X11711678Y-132722314D02*
X11637709Y-132705951D01*
X10544048Y-151461890D02*
X10527685Y-151387921D01*
X117019669Y-51364666D02*
X117076181Y-51318172D01*
X121000000Y-51000000D02*
X121063593Y-51001343D01*
X108919989Y-195188224D02*
X108947180Y-195060490D01*
X10992290Y-169638914D02*
X11047636Y-169591081D01*
X96580815Y-79000000D02*
X96580815Y-81000000D01*
X13493869Y-131386526D02*
X13484986Y-131463034D01*
X5000000Y-19451233D02*
X7000038Y-19451233D01*
X121405425Y-125728375D02*
X121319039Y-125694148D01*
X123948329Y-128008938D02*
X123893080Y-127933438D01*
X51403364Y-172258202D02*
X51400671Y-172226031D01*
X120927465Y-46575788D02*
X120836224Y-46556365D01*
X9921345Y-78998988D02*
X10000000Y-79000000D01*
X121089739Y-165117786D02*
X120999913Y-165093343D01*
X121884352Y-93211586D02*
X121833769Y-93246930D01*
X73109461Y-133199810D02*
X72093436Y-133199857D01*
X76210815Y-41500000D02*
X48810815Y-41500000D01*
X116660702Y-91323817D02*
X116695596Y-91258868D01*
X73615359Y-126325415D02*
X73603871Y-126412076D01*
X10614292Y-92325297D02*
X10587450Y-92255877D01*
X13412549Y-52755877D02*
X13385707Y-52825297D01*
X106000000Y-197500000D02*
X106132270Y-197497085D01*
X8815223Y-39256971D02*
X8918409Y-39299105D01*
X117476612Y-11593846D02*
X117547252Y-11569541D01*
X10677762Y-171458896D02*
X10644429Y-171393003D01*
X10515013Y-52036965D02*
X10527685Y-51961678D01*
X73593370Y-132781049D02*
X73583662Y-132826659D01*
X10614292Y-72674897D02*
X10587450Y-72605477D01*
X12643003Y-169394429D02*
X12708896Y-169427762D01*
X53400000Y-167500000D02*
X53399990Y-172203056D01*
X7200907Y-37581631D02*
X7243042Y-37684818D01*
X11424702Y-31213878D02*
X11494122Y-31187040D01*
X7070824Y-155650985D02*
X7097409Y-155761164D01*
X73849820Y-125838778D02*
X73798570Y-125901924D01*
X12772877Y-152385407D02*
X12708896Y-152421837D01*
X122460296Y-92342936D02*
X122444850Y-92403091D01*
X11424702Y-110213878D02*
X11494122Y-110187040D01*
X12288321Y-50777685D02*
X12362290Y-50794048D01*
X10888914Y-112607309D02*
X10841081Y-112551963D01*
X7659083Y-196376366D02*
X7729332Y-196460702D01*
X53059444Y-93673787D02*
X53026762Y-93683559D01*
X13204048Y-130355290D02*
X13246378Y-130415151D01*
X13355570Y-112242603D02*
X13322237Y-112308496D01*
X109245685Y-17543499D02*
X109292900Y-17492900D01*
X53375835Y-132853450D02*
X53364272Y-132885500D01*
X73798570Y-46901924D02*
X73756154Y-46963433D01*
X117941102Y-11501135D02*
X118000000Y-11500000D01*
X126499463Y-5000000D02*
X126499463Y-11221300D01*
X71610479Y-132802204D02*
X71605005Y-132770904D01*
X122231012Y-12142921D02*
X122266045Y-12195598D01*
X109819286Y-17216465D02*
X109887167Y-17206385D01*
X12213034Y-189114611D02*
X12288321Y-189127282D01*
X13435996Y-131684842D02*
X13412549Y-131755877D01*
X19470815Y-120500000D02*
X19470815Y-118500000D01*
X121981104Y-51365323D02*
X122027133Y-51406808D01*
X43810815Y-7000000D02*
X19470815Y-7000000D01*
X11786965Y-53734986D02*
X11711678Y-53722314D01*
X50400000Y-7000000D02*
X48810815Y-7000000D01*
X12643003Y-129894429D02*
X12708896Y-129927762D01*
X12834848Y-130003621D02*
X12894709Y-130045951D01*
X19470815Y-7000000D02*
X19470815Y-5000000D01*
X43810815Y-79000000D02*
X43810815Y-81000000D01*
X12362290Y-31143643D02*
X12434842Y-31163595D01*
X8732899Y-7280751D02*
X8632682Y-7329736D01*
X117902153Y-132996859D02*
X117805982Y-132987566D01*
X121249181Y-7168698D02*
X121160973Y-7139322D01*
X124499285Y-55737806D02*
X124499286Y-55721300D01*
X8343392Y-165498890D02*
X8251111Y-165562523D01*
X7000059Y-88981063D02*
X7000049Y-93451233D01*
X121405425Y-46728375D02*
X121319039Y-46694148D01*
X12643003Y-189244012D02*
X12708896Y-189277342D01*
X10714192Y-72872477D02*
X10677762Y-72808496D01*
X121139300Y-14493534D02*
X121063593Y-14498656D01*
X120999913Y-165093343D02*
X120927465Y-165075788D01*
X121490709Y-86265259D02*
X121405425Y-86228375D01*
X13493869Y-150963058D02*
X13498864Y-151040695D01*
X11863473Y-192093469D02*
X11786965Y-192084586D01*
X124135531Y-9809475D02*
X124089806Y-9728405D01*
X10644429Y-12106996D02*
X10677762Y-12041103D01*
X123340815Y-41500000D02*
X123340815Y-17199823D01*
X107969479Y-78262965D02*
X108067118Y-78174133D01*
X73444566Y-133062208D02*
X73408984Y-133092989D01*
X51442990Y-172403009D02*
X51429153Y-172368512D01*
X108749811Y-77199331D02*
X108805851Y-77061639D01*
X122460296Y-52842936D02*
X122444850Y-52903091D01*
X122383319Y-132080034D02*
X122357745Y-132137572D01*
X122426872Y-92462712D02*
X122406362Y-92521720D01*
X122357745Y-170362427D02*
X122383319Y-170419965D01*
X12213034Y-50765013D02*
X12288321Y-50777685D01*
X13385707Y-72674897D02*
X13355570Y-72742603D01*
X13455951Y-32237276D02*
X13472314Y-32311250D01*
X11291103Y-110277342D02*
X11356996Y-110244012D01*
X10000000Y-165000000D02*
X9848893Y-165003805D01*
X118340815Y-56699889D02*
X118340815Y-81000000D01*
X8918409Y-197299105D02*
X9023467Y-197337476D01*
X73199525Y-133189892D02*
X73153307Y-133197050D01*
X71755184Y-133061950D02*
X71729649Y-133035789D01*
X11637709Y-93205951D02*
X11565157Y-93185996D01*
X11863473Y-152593469D02*
X11786965Y-152584586D01*
X124499286Y-174221300D02*
X126499463Y-174221300D01*
X13472314Y-151387921D02*
X13455951Y-151461890D01*
X13498864Y-32540695D02*
X13500000Y-32599600D01*
X12505877Y-50837450D02*
X12575297Y-50864292D01*
X13060650Y-31538912D02*
X13111085Y-31591850D01*
X124497085Y-90110329D02*
X124491458Y-90016315D01*
X11291103Y-169427762D02*
X11356996Y-169394429D01*
X51854496Y-54197856D02*
X51816396Y-54192938D01*
X126499463Y-134721300D02*
X126499463Y-160000000D01*
X13285807Y-53022877D02*
X13246378Y-53084848D01*
X10614292Y-150524260D02*
X10644429Y-150456553D01*
X121492105Y-130082994D02*
X121550104Y-130104494D01*
X12000000Y-70599600D02*
X12058897Y-70600735D01*
X122324518Y-165825866D02*
X122255135Y-165761941D01*
X123927989Y-17103768D02*
X124004746Y-17063253D01*
X122114148Y-93004362D02*
X122071505Y-93049740D01*
X123686834Y-56682389D02*
X123765511Y-56664099D01*
X13484986Y-111812634D02*
X13472314Y-111887921D01*
X121674032Y-93340032D02*
X121595776Y-93376620D01*
X12575297Y-169364292D02*
X12643003Y-169394429D01*
X13007709Y-90638914D02*
X13060650Y-90689350D01*
X8534286Y-46882451D02*
X8437820Y-46938851D01*
X116510091Y-131674926D02*
X116504513Y-131617220D01*
X11356996Y-152455170D02*
X11291103Y-152421837D01*
X96580815Y-123500000D02*
X96580815Y-125500028D01*
X12136526Y-169256130D02*
X12213034Y-169265013D01*
X122299000Y-12250000D02*
X122329638Y-12305745D01*
X12834848Y-73345978D02*
X12772877Y-73385407D01*
X11105290Y-110395521D02*
X11165151Y-110353195D01*
X10614292Y-171325297D02*
X10587450Y-171255877D01*
X116806974Y-53409333D02*
X116753621Y-53334848D01*
X117076181Y-169818172D02*
X117134951Y-169774430D01*
X13355570Y-171393003D02*
X13322237Y-171458896D01*
X117547252Y-132930458D02*
X117459204Y-132899546D01*
X13484986Y-151312634D02*
X13472314Y-151387921D01*
X117407611Y-51121521D02*
X117476612Y-51093846D01*
X71619563Y-172338835D02*
X71610479Y-172302204D01*
X120276336Y-46500059D02*
X101580815Y-46500035D01*
X11941102Y-132748864D02*
X11863473Y-132743869D01*
X116535412Y-13325477D02*
X116520882Y-13250836D01*
X9688475Y-197484020D02*
X9804307Y-197493719D01*
X11941102Y-129751135D02*
X12000000Y-129750000D01*
X12894709Y-11545951D02*
X12952363Y-11591081D01*
X122329638Y-12305745D02*
X122357745Y-12362427D01*
X12643003Y-110244012D02*
X12708896Y-110277342D01*
X81210815Y-199500000D02*
X81210815Y-197500000D01*
X74450020Y-7011311D02*
X74376639Y-7025268D01*
X11424702Y-152485307D02*
X11356996Y-152455170D01*
X7019150Y-9661508D02*
X7008541Y-9773715D01*
X13111085Y-13757709D02*
X13060650Y-13810650D01*
X13322237Y-171458896D02*
X13285807Y-171522877D01*
X116553583Y-131101250D02*
X116575296Y-131029444D01*
X121319039Y-7194148D02*
X121249181Y-7168698D01*
X120595891Y-165019150D02*
X120502434Y-165010018D01*
X121884352Y-53711586D02*
X121833769Y-53746930D01*
X116818172Y-12076181D02*
X116864666Y-12019669D01*
X73654212Y-86675250D02*
X73631121Y-86752488D01*
X109166310Y-57147783D02*
X109206099Y-57091965D01*
X51893436Y-93699857D02*
X51854496Y-93697856D01*
X13060650Y-169689350D02*
X13111085Y-169742290D01*
X106394313Y-39473980D02*
X106523741Y-39453934D01*
X124397211Y-168464055D02*
X124376994Y-168392398D01*
X73330659Y-133143503D02*
X73288484Y-133163001D01*
X81210815Y-165000008D02*
X81210815Y-163000000D01*
X11786965Y-73584586D02*
X11711678Y-73571914D01*
X11356996Y-112955170D02*
X11291103Y-112921837D01*
X121373345Y-53952831D02*
X121288265Y-53972075D01*
X76210815Y-7000002D02*
X74600000Y-7000000D01*
X118000000Y-90500000D02*
X121000000Y-90500000D01*
X51017907Y-125713759D02*
X50952216Y-125666310D01*
X117076181Y-51318172D02*
X117134951Y-51274430D01*
X8240105Y-196929823D02*
X8330303Y-196992782D01*
X123765511Y-135664099D02*
X123848089Y-135637447D01*
X10501135Y-170808897D02*
X10500000Y-170750000D01*
X106903573Y-118360677D02*
X107044236Y-118312375D01*
X53393867Y-14277971D02*
X53386663Y-14314605D01*
X124250179Y-135361221D02*
X124286240Y-135317907D01*
X10614292Y-130674702D02*
X10644429Y-130606996D01*
X53181297Y-93613253D02*
X53152388Y-93631511D01*
X13500000Y-151099600D02*
X13498864Y-151158497D01*
X48810815Y-120500000D02*
X48810815Y-118500000D01*
X13322237Y-52958896D02*
X13285807Y-53022877D01*
X116553583Y-52101250D02*
X116575296Y-52029444D01*
X116510091Y-12825073D02*
X116520882Y-12749163D01*
X124286240Y-135317907D02*
X124316096Y-135277900D01*
X123686834Y-135682389D02*
X123765511Y-135664099D01*
X124398394Y-174639157D02*
X124419050Y-174594104D01*
X122154994Y-51542900D02*
X122193972Y-51592008D01*
X51137585Y-86324759D02*
X51079865Y-86266675D01*
X12362290Y-152555551D02*
X12288321Y-152571914D01*
X122496758Y-92098602D02*
X122491441Y-92160081D01*
X10544048Y-170387709D02*
X10564003Y-170315157D01*
X122473210Y-12717670D02*
X122483591Y-12778649D01*
X5000000Y-177451233D02*
X7000038Y-177451233D01*
X10501135Y-151040695D02*
X10506130Y-150963058D01*
X10614292Y-151674897D02*
X10587450Y-151605477D01*
X7162533Y-195476571D02*
X7200907Y-195581631D01*
X10527685Y-91461678D02*
X10544048Y-91387709D01*
X13455951Y-190961890D02*
X13435996Y-191034442D01*
X74022099Y-7183903D02*
X73957800Y-7233472D01*
X53298868Y-172501404D02*
X53279245Y-172525741D01*
X7128006Y-155869721D02*
X7162533Y-155976571D01*
X121550104Y-11604494D02*
X121607088Y-11628332D01*
X7338269Y-116885240D02*
X7391192Y-116982308D01*
X12575297Y-90364292D02*
X12643003Y-90394429D01*
X12213034Y-192084586D02*
X12136526Y-192093469D01*
X53091350Y-93661825D02*
X53059444Y-93673787D01*
X8073428Y-86700391D02*
X7988243Y-86774537D01*
X8343392Y-7498890D02*
X8251111Y-7562523D01*
X126499463Y-163000000D02*
X126499463Y-169221300D01*
X11291103Y-70777342D02*
X11356996Y-70744012D01*
X71806698Y-54104856D02*
X71782559Y-54086195D01*
X12894709Y-169545951D02*
X12952363Y-169591081D01*
X12834848Y-13996378D02*
X12772877Y-14035807D01*
X13158918Y-13702363D02*
X13111085Y-13757709D01*
X11786965Y-129765013D02*
X11863473Y-129756130D01*
X117863473Y-130006130D02*
X117941102Y-130001135D01*
X124439586Y-16542274D02*
X124457212Y-16489351D01*
X13435996Y-112034442D02*
X13412549Y-112105477D01*
X121433162Y-90563872D02*
X121492105Y-90582994D01*
X116660702Y-53176182D02*
X116628954Y-53109370D01*
X109000000Y-155000000D02*
X109000019Y-136693687D01*
X51816396Y-54192938D02*
X51779247Y-54185215D01*
X13158918Y-92702363D02*
X13111085Y-92757709D01*
X11494122Y-11337450D02*
X11565157Y-11314003D01*
X109623043Y-135773784D02*
X109686999Y-135750258D01*
X10841081Y-191551963D02*
X10795951Y-191494309D01*
X9573931Y-78969975D02*
X9688475Y-78984020D01*
X76210815Y-46500002D02*
X74600000Y-46500000D01*
X118000000Y-130000000D02*
X121000000Y-130000000D01*
X13412549Y-92255877D02*
X13385707Y-92325297D01*
X121000000Y-90500000D02*
X121063593Y-90501343D01*
X106000000Y-118500000D02*
X106132270Y-118497085D01*
X51854496Y-172697856D02*
X51816396Y-172692938D01*
X9349045Y-39429180D02*
X9460760Y-39451667D01*
X124004746Y-17063253D02*
X124077900Y-17016096D01*
X10564003Y-112034442D02*
X10544048Y-111961890D01*
X10527685Y-32887921D02*
X10515013Y-32812634D01*
X10992290Y-149988479D02*
X11047636Y-149940649D01*
X12505877Y-172162549D02*
X12434842Y-172185996D01*
X13500000Y-12750000D02*
X13498864Y-12808897D01*
X121550104Y-51104494D02*
X121607088Y-51128332D01*
X96580815Y-118500000D02*
X96580815Y-120500000D01*
X9513113Y-125539767D02*
X9402869Y-125560025D01*
X109686999Y-135750258D02*
X109752488Y-135731121D01*
X96580815Y-5000000D02*
X96580815Y-7000028D01*
X117547252Y-11569541D02*
X117619434Y-11548704D01*
X51737257Y-133172807D02*
X51702551Y-133159388D01*
X73475128Y-133030471D02*
X73444566Y-133062208D01*
X124249811Y-168043268D02*
X124211345Y-167958674D01*
X13472314Y-52538321D02*
X13455951Y-52612290D01*
X19470815Y-39500000D02*
X43810815Y-39500000D01*
X124482389Y-134886834D02*
X124490484Y-134837627D01*
X124499463Y-11185828D02*
X124497085Y-11110329D01*
X122483591Y-13221350D02*
X122473210Y-13282329D01*
X71782559Y-172586195D02*
X71755184Y-172561950D01*
X13412549Y-33105477D02*
X13385707Y-33174897D01*
X123518923Y-96199821D02*
X123600391Y-96194948D01*
X71729649Y-93535789D02*
X71709857Y-93512606D01*
X116806974Y-132409333D02*
X116753621Y-132334848D01*
X106394313Y-157973980D02*
X106523741Y-157953934D01*
X11047636Y-152258518D02*
X10992290Y-152210685D01*
X10515013Y-151312634D02*
X10506130Y-151236126D01*
X108161065Y-117580775D02*
X108250559Y-117483642D01*
X53208984Y-93592989D02*
X53181297Y-93613253D01*
X124496128Y-134787923D02*
X124499285Y-134737806D01*
X11356996Y-90394429D02*
X11424702Y-90364292D01*
X124457212Y-16489351D02*
X124470397Y-16441489D01*
X10939350Y-71038912D02*
X10992290Y-70988479D01*
X8161087Y-7629705D02*
X8073428Y-7700391D01*
X7606919Y-8190838D02*
X7530260Y-8296976D01*
X107530245Y-78580355D02*
X107656607Y-78501109D01*
X117134951Y-53725569D02*
X117061837Y-53670458D01*
X10677762Y-151808496D02*
X10644429Y-151742603D01*
X11941102Y-11251135D02*
X12000000Y-11250000D01*
X13455951Y-171112290D02*
X13435996Y-171184842D01*
X11165151Y-152345978D02*
X11105290Y-152303648D01*
X124457212Y-134989351D02*
X124470397Y-134941489D01*
X13060650Y-33660250D02*
X13007709Y-33710685D01*
X12505877Y-14162549D02*
X12434842Y-14185996D01*
X122496758Y-131598602D02*
X122491441Y-131660081D01*
X11291103Y-53572237D02*
X11227122Y-53535807D01*
X109686999Y-96250258D02*
X109752488Y-96231121D01*
X11105290Y-53454048D02*
X11047636Y-53408918D01*
X124482908Y-50422758D02*
X124471460Y-50329723D01*
X7988243Y-86774537D02*
X7905641Y-86852096D01*
X7019150Y-88661508D02*
X7008541Y-88773715D01*
X122096312Y-47129705D02*
X122021451Y-47073475D01*
X50883163Y-125624484D02*
X50805461Y-125585903D01*
X120276336Y-165000059D02*
X101580815Y-165000035D01*
X117019669Y-130364666D02*
X117076181Y-130318172D01*
X13204048Y-11855290D02*
X13246378Y-11915151D01*
X11863473Y-14243869D02*
X11786965Y-14234986D01*
X9688475Y-39484020D02*
X9804307Y-39493719D01*
X108982908Y-155319841D02*
X108992818Y-155207516D01*
X121445023Y-132932495D02*
X121373345Y-132952831D01*
X7097409Y-37261164D02*
X7128006Y-37369721D01*
X7729332Y-196460702D02*
X7802565Y-196542387D01*
X109056243Y-96869395D02*
X109076137Y-96817312D01*
X116628954Y-51890629D02*
X116660702Y-51823817D01*
X11565157Y-172185996D02*
X11494122Y-172162549D01*
X10527685Y-51961678D02*
X10544048Y-51887709D01*
X12643003Y-11394429D02*
X12708896Y-11427762D01*
X13455951Y-150737276D02*
X13472314Y-150811250D01*
X8955763Y-86187624D02*
X8834828Y-86235540D01*
X13455951Y-13112290D02*
X13435996Y-13184842D01*
X121981104Y-132634676D02*
X121933487Y-132674155D01*
X10527685Y-190887921D02*
X10515013Y-190812634D01*
X121833769Y-11753069D02*
X121884352Y-11788413D01*
X8955763Y-165187624D02*
X8834828Y-165235540D01*
X11227122Y-169464192D02*
X11291103Y-169427762D01*
X124316096Y-16777900D02*
X124347164Y-16731310D01*
X51550797Y-14557720D02*
X51521566Y-14526663D01*
X7008541Y-49273715D02*
X7002142Y-49386582D01*
X11165151Y-130003621D02*
X11227122Y-129964192D01*
X8815223Y-197256971D02*
X8918409Y-197299105D01*
X107182274Y-78757188D02*
X107300702Y-78703337D01*
X7904708Y-157147032D02*
X7984581Y-157222206D01*
X48810815Y-84000000D02*
X76210815Y-84000000D01*
X11165151Y-73345978D02*
X11105290Y-73303648D01*
X116553583Y-12601250D02*
X116575296Y-12529444D01*
X10564003Y-151534442D02*
X10544048Y-151461890D01*
X11863473Y-31105729D02*
X11941102Y-31100735D01*
X12834848Y-189353195D02*
X12894709Y-189395521D01*
X121933487Y-130325844D02*
X121981104Y-130365323D01*
X73475128Y-93530471D02*
X73444566Y-93562208D01*
X116818172Y-51576181D02*
X116864666Y-51519669D01*
X53232998Y-54072866D02*
X53208984Y-54092989D01*
X11356996Y-191955170D02*
X11291103Y-191921837D01*
X10000000Y-118500000D02*
X14470815Y-118500000D01*
X50805461Y-7085903D02*
X50724749Y-7054212D01*
X43810815Y-86000000D02*
X19470815Y-86000000D01*
X108415474Y-38279152D02*
X108490752Y-38172139D01*
X124497085Y-169110329D02*
X124491458Y-169016315D01*
X53232998Y-172572866D02*
X53208984Y-172592989D01*
X0Y0D02*
X0Y-204500000D01*
X12362290Y-132705951D02*
X12288321Y-132722314D01*
X121126732Y-11505348D02*
X121189347Y-11511973D01*
X11105290Y-132454048D02*
X11047636Y-132408918D01*
X12772877Y-53535807D02*
X12708896Y-53572237D01*
X12288321Y-34071914D02*
X12213034Y-34084586D01*
X11711678Y-192071914D02*
X11637709Y-192055551D01*
X7676443Y-8102378D02*
X7606919Y-8190838D01*
X7000038Y-19451233D02*
X7000011Y-31338519D01*
X7168698Y-167008218D02*
X7133773Y-167114180D01*
X10587450Y-111093682D02*
X10614292Y-111024260D01*
X96580815Y-46500028D02*
X81210815Y-46500008D01*
X109206099Y-136091965D02*
X109245685Y-136043499D01*
X71687987Y-172483223D02*
X71671405Y-172457510D01*
X13158918Y-130297636D02*
X13204048Y-130355290D01*
X124285635Y-49629000D02*
X124249811Y-49543268D01*
X74022099Y-86183903D02*
X73957800Y-86233472D01*
X11047636Y-189440649D02*
X11105290Y-189395521D01*
X117459204Y-93399546D02*
X117373757Y-93363408D01*
X124470397Y-16441489D02*
X124482389Y-16386834D01*
X10564003Y-13184842D02*
X10544048Y-13112290D01*
X12058897Y-31100735D02*
X12136526Y-31105729D01*
X7749440Y-166016357D02*
X7676443Y-166102378D01*
X10564003Y-33034442D02*
X10544048Y-32961890D01*
X10841081Y-130297636D02*
X10888914Y-130242290D01*
X7338269Y-37885240D02*
X7391192Y-37982308D01*
X8614803Y-157661749D02*
X8713993Y-157711158D01*
X12288321Y-129777685D02*
X12362290Y-129794048D01*
X52996473Y-54190502D02*
X52950195Y-54197374D01*
X7570204Y-196259938D02*
X7659083Y-196376366D01*
X124318791Y-10215808D02*
X124285635Y-10129000D01*
X108635531Y-116933124D02*
X108695225Y-116817430D01*
X10677762Y-13458896D02*
X10644429Y-13393003D01*
X76210815Y-197500000D02*
X76210815Y-199500000D01*
X108919989Y-76688224D02*
X108947180Y-76560490D01*
X12136526Y-152593469D02*
X12058897Y-152598464D01*
X124457140Y-89737272D02*
X124439974Y-89645469D01*
X11047636Y-132408918D02*
X10992290Y-132361085D01*
X116660702Y-92676182D02*
X116628954Y-92609370D01*
X73798570Y-86401924D02*
X73756154Y-86463433D01*
X53152388Y-133131511D02*
X53122368Y-133147717D01*
X11941102Y-110100735D02*
X12000000Y-110099600D01*
X71687987Y-53983223D02*
X71671405Y-53957510D01*
X117786965Y-130015013D02*
X117863473Y-130006130D01*
X11424702Y-14135707D02*
X11356996Y-14105570D01*
X13498864Y-52191102D02*
X13500000Y-52250000D01*
X7000000Y-123500000D02*
X14470815Y-123500000D01*
X109949630Y-96201268D02*
X110000000Y-96200000D01*
X73199525Y-172689892D02*
X73153307Y-172697050D01*
X73504440Y-93493889D02*
X73475128Y-93530471D01*
X10515013Y-91963034D02*
X10506130Y-91886526D01*
X116503140Y-52402153D02*
X116510091Y-52325073D01*
X7006281Y-194695703D02*
X7015980Y-194811541D01*
X10841081Y-53202363D02*
X10795951Y-53144709D01*
X122496758Y-91901397D02*
X122499544Y-91963006D01*
X124041537Y-9648712D02*
X123990752Y-9570460D01*
X121189347Y-90511973D02*
X121251367Y-90521179D01*
X12213034Y-113084586D02*
X12136526Y-113093469D01*
X116628954Y-171609370D02*
X116600453Y-171540795D01*
X8161087Y-126129705D02*
X8073428Y-126200391D01*
X116510091Y-91825073D02*
X116520882Y-91749163D01*
X116704800Y-171757066D02*
X116660702Y-171676182D01*
X121000000Y-133000000D02*
X118000000Y-133000000D01*
X124491458Y-50516315D02*
X124482908Y-50422758D01*
X12575297Y-14135707D02*
X12505877Y-14162549D01*
X51577873Y-172582292D02*
X51550797Y-172557720D01*
X7000011Y-110338519D02*
X5000000Y-110338519D01*
X10795951Y-72994309D02*
X10753621Y-72934448D01*
X12772877Y-50964192D02*
X12834848Y-51003621D01*
X124471460Y-10829723D02*
X124457140Y-10737272D01*
X10527685Y-171038321D02*
X10515013Y-170963034D01*
X120502434Y-165010018D02*
X120427327Y-165004812D01*
X123990752Y-49070460D02*
X123948329Y-49008938D01*
X109014290Y-136531554D02*
X109025268Y-136476639D01*
X11863473Y-34093469D02*
X11786965Y-34084586D01*
X73598576Y-132737614D02*
X73593370Y-132781049D01*
X10939350Y-169689350D02*
X10992290Y-169638914D01*
X13435996Y-151534442D02*
X13412549Y-151605477D01*
X11165151Y-33845978D02*
X11105290Y-33803648D01*
X122071505Y-14049740D02*
X122027133Y-14093191D01*
X72035334Y-172695754D02*
X71979247Y-172685215D01*
X7606919Y-87190838D02*
X7530260Y-87296976D01*
X7676443Y-87102378D02*
X7606919Y-87190838D01*
X108805851Y-116561639D02*
X108849253Y-116438971D01*
X108947180Y-76560490D02*
X108968825Y-76431415D01*
X53298868Y-54001404D02*
X53279245Y-54025741D01*
X8834828Y-7235540D02*
X8732899Y-7280751D01*
X121189347Y-11511973D02*
X121251367Y-11521179D01*
X7002142Y-167886582D02*
X7000059Y-167981063D01*
X12136526Y-113093469D02*
X12058897Y-113098464D01*
X13322237Y-110890659D02*
X13355570Y-110956553D01*
X7162533Y-155976571D02*
X7200907Y-156081631D01*
X13484986Y-190812634D02*
X13472314Y-190887921D01*
X71782559Y-54086195D02*
X71755184Y-54061950D01*
X51779247Y-93685215D02*
X51737257Y-93672807D01*
X13060650Y-112660250D02*
X13007709Y-112710685D01*
X121981104Y-130365323D02*
X122027133Y-130406808D01*
X7019150Y-128161508D02*
X7008541Y-128273715D01*
X108749811Y-37699331D02*
X108805851Y-37561639D01*
X53334740Y-53946881D02*
X53318574Y-53973389D01*
X10614292Y-91174702D02*
X10644429Y-91106996D01*
X121851287Y-165458462D02*
X121755488Y-165400844D01*
X12643003Y-31244012D02*
X12708896Y-31277342D01*
X53026762Y-14683559D02*
X52996473Y-14690502D01*
X116510091Y-171174926D02*
X116504513Y-171117220D01*
X7006281Y-155195703D02*
X7015980Y-155311541D01*
X19470815Y-163000000D02*
X43810815Y-163000000D01*
X7008541Y-167773715D02*
X7002142Y-167886582D01*
X12772877Y-191885407D02*
X12708896Y-191921837D01*
X122483591Y-52278649D02*
X122491441Y-52339918D01*
X51400671Y-172226031D02*
X51400000Y-166000000D01*
X124077900Y-96016096D02*
X124142199Y-95966527D01*
X13498864Y-170808897D02*
X13493869Y-170886526D01*
X118340815Y-175199889D02*
X118340815Y-199500000D01*
X122299000Y-92750000D02*
X122266045Y-92804401D01*
X10644429Y-51606996D02*
X10677762Y-51541103D01*
X13060650Y-152160250D02*
X13007709Y-152210685D01*
X11494122Y-31187040D02*
X11565157Y-31163595D01*
X76210815Y-84000000D02*
X76210815Y-86000002D01*
X7207518Y-166903678D02*
X7168698Y-167008218D01*
X13355570Y-71456553D02*
X13385707Y-71524260D01*
X122491441Y-131660081D02*
X122483591Y-131721350D01*
X121884352Y-51288413D02*
X121933487Y-51325844D01*
X73849820Y-165338778D02*
X73798570Y-165401924D01*
X109001604Y-18143357D02*
X109006385Y-18087167D01*
X7200907Y-116581631D02*
X7243042Y-116684818D01*
X122426872Y-52037287D02*
X122444850Y-52096908D01*
X13007709Y-152210685D02*
X12952363Y-152258518D01*
X9848893Y-86003805D02*
X9736234Y-86011611D01*
X19470815Y-44500000D02*
X43810815Y-44500000D01*
X122499544Y-12963006D02*
X122499544Y-13036993D01*
X124215966Y-135398121D02*
X124250179Y-135361221D01*
X121063593Y-51001343D02*
X121126732Y-51005348D01*
X10714192Y-112372477D02*
X10677762Y-112308496D01*
X11356996Y-53605570D02*
X11291103Y-53572237D01*
X124376994Y-49892398D02*
X124349253Y-49803628D01*
X124170263Y-167875282D02*
X124135531Y-167809475D01*
X121527022Y-132904388D02*
X121445023Y-132932495D01*
X9293647Y-46584343D02*
X9185558Y-46612676D01*
X7133773Y-88114180D02*
X7102788Y-88221455D01*
X7001011Y-36578658D02*
X7006281Y-36695703D01*
X124499462Y-11221300D02*
X124499463Y-11185828D01*
X11424702Y-169364292D02*
X11494122Y-169337450D01*
X5000000Y-132951233D02*
X5000000Y-123500000D01*
X121126732Y-169505348D02*
X121189347Y-169511973D01*
X121160973Y-7139322D02*
X121089739Y-7117786D01*
X71653573Y-172425279D02*
X71640511Y-172397348D01*
X12643003Y-90394429D02*
X12708896Y-90427762D01*
X106132270Y-118497085D02*
X106263765Y-118488388D01*
X51816396Y-14692938D02*
X51779247Y-14685215D01*
X117805982Y-172487566D02*
X117730380Y-172475832D01*
X123847119Y-48874200D02*
X123787489Y-48801656D01*
X51417863Y-14332805D02*
X51409229Y-14295998D01*
X117211437Y-172276227D02*
X117134951Y-172225569D01*
X73475128Y-172530471D02*
X73444566Y-172562208D01*
X121445023Y-93432495D02*
X121373345Y-93452831D01*
X13412549Y-131755877D02*
X13385707Y-131825297D01*
X123340815Y-81000000D02*
X123340815Y-56699823D01*
X52996473Y-14690502D02*
X52950195Y-14697374D01*
X122329638Y-170305745D02*
X122357745Y-170362427D01*
X11165151Y-149853195D02*
X11227122Y-149813769D01*
X8422875Y-118052478D02*
X8517736Y-118108828D01*
X8815223Y-157756971D02*
X8918409Y-157799105D01*
X12708896Y-112921837D02*
X12643003Y-112955170D01*
X116504513Y-13117220D02*
X116500505Y-13039327D01*
X122383319Y-53080034D02*
X122357745Y-53137572D01*
X109076137Y-57317312D02*
X109098901Y-57266418D01*
X122266045Y-12195598D02*
X122299000Y-12250000D01*
X11863473Y-93243869D02*
X11786965Y-93234986D01*
X12288321Y-110127282D02*
X12362290Y-110143643D01*
X73756154Y-165463433D02*
X73715646Y-165533210D01*
X7000000Y-36500000D02*
X7001011Y-36578658D01*
X8517736Y-78608828D02*
X8614803Y-78661749D01*
X10587450Y-12244122D02*
X10614292Y-12174702D01*
X10500000Y-32599600D02*
X10501135Y-32540695D01*
X126499463Y-55721300D02*
X126499463Y-81000000D01*
X109000000Y-36500000D02*
X109000019Y-18193687D01*
X122027133Y-132593191D02*
X121981104Y-132634676D01*
X7802565Y-38542387D02*
X7904708Y-38647032D01*
X51190086Y-7387018D02*
X51137585Y-7324759D01*
X11227122Y-14035807D02*
X11165151Y-13996378D01*
X12058897Y-34098464D02*
X12000000Y-34099600D01*
X73551892Y-14413885D02*
X73530067Y-14454932D01*
X8517736Y-157608828D02*
X8614803Y-157661749D01*
X51017907Y-46713759D02*
X50952216Y-46666310D01*
X123674133Y-127675481D02*
X123621300Y-127621300D01*
X11356996Y-93105570D02*
X11291103Y-93072237D01*
X116913812Y-51465513D02*
X116965513Y-51413812D01*
X122193972Y-13907991D02*
X122154994Y-13957099D01*
X10644429Y-170106996D02*
X10677762Y-170041103D01*
X73715646Y-165533210D02*
X73683409Y-165600209D01*
X124439974Y-89645469D02*
X124419989Y-89554375D01*
X122027133Y-51406808D02*
X122071505Y-51450259D01*
X8815223Y-78756971D02*
X8918409Y-78799105D01*
X51702551Y-54159388D02*
X51669148Y-54143515D01*
X108490752Y-156672139D02*
X108561148Y-156562179D01*
X117407611Y-11621521D02*
X117476612Y-11593846D01*
X116753621Y-171834848D02*
X116704800Y-171757066D01*
X74228788Y-46571466D02*
X74155282Y-46604344D01*
X10587450Y-51744122D02*
X10614292Y-51674702D01*
X124170263Y-9875282D02*
X124135531Y-9809475D01*
X107656607Y-118001109D02*
X107764051Y-117926524D01*
X12772877Y-70813769D02*
X12834848Y-70853195D01*
X53279245Y-93525741D02*
X53255823Y-93551162D01*
X53400000Y-128000000D02*
X53399990Y-132703056D01*
X9130315Y-197372001D02*
X9238868Y-197402597D01*
X12000000Y-192099600D02*
X11941102Y-192098464D01*
X124499285Y-95237806D02*
X124499286Y-95221300D01*
X121657724Y-165346896D02*
X121558102Y-165296662D01*
X10587450Y-191105477D02*
X10564003Y-191034442D01*
X11291103Y-11427762D02*
X11356996Y-11394429D01*
X11494122Y-50837450D02*
X11565157Y-50814003D01*
X10753621Y-33434448D02*
X10714192Y-33372477D01*
X121662989Y-90654467D02*
X121717735Y-90682860D01*
X12772877Y-33885407D02*
X12708896Y-33921837D01*
X12894709Y-92954048D02*
X12834848Y-92996378D01*
X11165151Y-191845978D02*
X11105290Y-191803648D01*
X12434842Y-70663595D02*
X12505877Y-70687040D01*
X12834848Y-191845978D02*
X12772877Y-191885407D01*
X53398329Y-14240739D02*
X53393867Y-14277971D01*
X13412549Y-150593682D02*
X13435996Y-150664721D01*
X122114148Y-53504362D02*
X122071505Y-53549740D01*
X7048335Y-116039265D02*
X7070824Y-116150985D01*
X51459260Y-132936183D02*
X51442990Y-132903009D01*
X52950195Y-133197374D02*
X52903156Y-133199890D01*
X8251111Y-7562523D02*
X8161087Y-7629705D01*
X5000000Y-58951233D02*
X7000038Y-58951233D01*
X121933487Y-169825844D02*
X121981104Y-169865323D01*
X109245685Y-57043499D02*
X109292900Y-56992900D01*
X12834848Y-112845978D02*
X12772877Y-112885407D01*
X12000000Y-113099600D02*
X11941102Y-113098464D01*
X10614292Y-111024260D02*
X10644429Y-110956553D01*
X73530067Y-53954932D02*
X73504440Y-53993889D01*
X73798570Y-165401924D02*
X73756154Y-165463433D01*
X51702551Y-172659388D02*
X51669148Y-172643515D01*
X10753621Y-90915151D02*
X10795951Y-90855290D01*
X116520882Y-131750836D02*
X116510091Y-131674926D01*
X120927465Y-165075788D02*
X120836224Y-165056365D01*
X107868400Y-38847119D02*
X107969479Y-38762965D01*
X73901878Y-125784033D02*
X73849820Y-125838778D01*
X10795951Y-13644709D02*
X10753621Y-13584848D01*
X11424702Y-189213878D02*
X11494122Y-189187040D01*
X121214230Y-53984651D02*
X121139300Y-53993534D01*
X53398329Y-53740739D02*
X53393867Y-53777971D01*
X10714192Y-191372477D02*
X10677762Y-191308496D01*
X120595891Y-86019150D02*
X120502434Y-86010018D01*
X11356996Y-33955170D02*
X11291103Y-33921837D01*
X7133773Y-9114180D02*
X7102788Y-9221455D01*
X9023467Y-197337476D02*
X9130315Y-197372001D01*
X123621300Y-167121300D02*
X122378700Y-165878700D01*
X121558102Y-165296662D02*
X121490709Y-165265259D01*
X124376994Y-89392398D02*
X124349253Y-89303628D01*
X126499463Y-41500000D02*
X124499463Y-41500000D01*
X10501135Y-91691102D02*
X10506130Y-91613473D01*
X51577873Y-93582292D02*
X51550797Y-93557720D01*
X8614803Y-78661749D02*
X8713993Y-78711158D01*
X122491441Y-12839918D02*
X122496758Y-12901397D01*
X109819286Y-135716465D02*
X109887167Y-135706385D01*
X106000000Y-158000000D02*
X106132270Y-157997085D01*
X124490484Y-55837627D02*
X124496128Y-55787923D01*
X117134951Y-93225569D02*
X117061837Y-93170458D01*
X124142199Y-16966527D02*
X124179865Y-16933324D01*
X108887323Y-37314441D02*
X108919989Y-37188224D01*
X71605005Y-14270904D02*
X71601046Y-14232511D01*
X120927465Y-86075788D02*
X120836224Y-86056365D01*
X13355570Y-191242603D02*
X13322237Y-191308496D01*
X120670276Y-165028539D02*
X120595891Y-165019150D01*
X107530245Y-197080355D02*
X107656607Y-197001109D01*
X51370397Y-165758510D02*
X51347782Y-165681118D01*
X51577873Y-14582292D02*
X51550797Y-14557720D01*
X13500000Y-32599600D02*
X13498864Y-32658497D01*
X124419989Y-50054375D02*
X124397211Y-49964055D01*
X9130315Y-118372001D02*
X9238868Y-118402597D01*
X7507243Y-38169740D02*
X7570204Y-38259938D01*
X124211345Y-9958674D02*
X124170263Y-9875282D01*
X116864666Y-170019669D02*
X116913812Y-169965513D01*
X51550797Y-172557720D02*
X51521566Y-172526663D01*
X108849253Y-116438971D02*
X108887323Y-116314441D01*
X13484986Y-131036965D02*
X13493869Y-131113473D01*
X124249811Y-49543268D02*
X124211345Y-49458674D01*
X51498660Y-14498122D02*
X51477854Y-14467925D01*
X124316096Y-174777900D02*
X124347164Y-174731310D01*
X12894709Y-112803648D02*
X12834848Y-112845978D01*
X10587450Y-190093682D02*
X10614292Y-190024260D01*
X123990752Y-128070460D02*
X123948329Y-128008938D01*
X11494122Y-90337450D02*
X11565157Y-90314003D01*
X11941102Y-70600735D02*
X12000000Y-70599600D01*
X10515013Y-131463034D02*
X10506130Y-131386526D01*
X122491441Y-131339918D02*
X122496758Y-131401397D01*
X120762727Y-86042859D02*
X120670276Y-86028539D01*
X116695596Y-130758868D02*
X116733538Y-130695879D01*
X73798570Y-7401924D02*
X73756154Y-7463433D01*
X11711678Y-189127282D02*
X11786965Y-189114611D01*
X13111085Y-189591850D02*
X13158918Y-189647195D01*
X117902153Y-172496859D02*
X117805982Y-172487566D01*
X120836224Y-86056365D02*
X120762727Y-86042859D01*
X116992290Y-53611085D02*
X116926502Y-53547645D01*
X108067118Y-117674133D02*
X108161065Y-117580775D01*
X13412549Y-190093682D02*
X13435996Y-190164721D01*
X116510091Y-13174926D02*
X116504513Y-13117220D01*
X123893080Y-88433438D02*
X123847119Y-88374200D01*
X7000000Y-120500000D02*
X5000000Y-120500000D01*
X48810815Y-81000000D02*
X48810815Y-79000000D01*
X7097409Y-76761164D02*
X7128006Y-76869721D01*
X7659083Y-117376366D02*
X7729332Y-117460702D01*
X12362290Y-70643643D02*
X12434842Y-70663595D01*
X10939350Y-150038912D02*
X10992290Y-149988479D01*
X13435996Y-91315157D02*
X13455951Y-91387709D01*
X121607088Y-11628332D02*
X121662989Y-11654467D01*
X53026762Y-172683559D02*
X52996473Y-172690502D01*
X52903156Y-54199890D02*
X51893436Y-54199857D01*
X73569797Y-172371033D02*
X73551892Y-172413885D01*
X117711678Y-169527685D02*
X117786965Y-169515013D01*
X122444850Y-13403091D02*
X122426872Y-13462712D01*
X11711678Y-11277685D02*
X11786965Y-11265013D01*
X12434842Y-90314003D02*
X12505877Y-90337450D01*
X13322237Y-170041103D02*
X13355570Y-170106996D01*
X116965513Y-11913812D02*
X117019669Y-11864666D01*
X122193972Y-130592008D02*
X122231012Y-130642921D01*
X10544048Y-12387709D02*
X10564003Y-12315157D01*
X122499544Y-52463006D02*
X122499544Y-52536993D01*
X13493869Y-12886526D02*
X13484986Y-12963034D01*
X123600391Y-175194948D02*
X123686834Y-175182389D01*
X123600391Y-56694948D02*
X123686834Y-56682389D01*
X124089806Y-167728405D02*
X124041537Y-167648712D01*
X117258868Y-90695596D02*
X117323817Y-90660702D01*
X13385707Y-71524260D02*
X13412549Y-71593682D01*
X117019669Y-11864666D02*
X117076181Y-11818172D01*
X10644429Y-13393003D02*
X10614292Y-13325297D01*
X109056243Y-17869395D02*
X109076137Y-17817312D01*
X51442990Y-132903009D02*
X51429153Y-132868512D01*
X122231012Y-53357078D02*
X122193972Y-53407991D01*
X10544048Y-51887709D02*
X10564003Y-51815157D01*
X124499285Y-174237806D02*
X124499286Y-174221300D01*
X7468418Y-87390344D02*
X7410193Y-87485805D01*
X121728539Y-132811193D02*
X121674032Y-132840032D01*
X122444850Y-131096908D02*
X122460296Y-131157063D01*
X7729332Y-38460702D02*
X7802565Y-38542387D01*
X74084571Y-165143080D02*
X74022099Y-165183903D01*
X122071505Y-51450259D02*
X122114148Y-51495637D01*
X9078708Y-125644979D02*
X8955763Y-125687624D01*
X73600000Y-126500000D02*
X73600000Y-132699900D01*
X122499544Y-131536993D02*
X122496758Y-131598602D01*
X117291103Y-132822237D02*
X117211437Y-132776227D01*
X11941102Y-34098464D02*
X11863473Y-34093469D01*
X73408984Y-93592989D02*
X73370920Y-93620127D01*
X106651876Y-78928320D02*
X106778544Y-78897211D01*
X117730380Y-53975832D02*
X117637709Y-53955951D01*
X12000000Y-129750000D02*
X12058897Y-129751135D01*
X122266045Y-171804401D02*
X122231012Y-171857078D01*
X76210815Y-125500002D02*
X74600000Y-125500000D01*
X11424702Y-191985307D02*
X11356996Y-191955170D01*
X123621300Y-88121300D02*
X122378700Y-86878700D01*
X14470815Y-158000000D02*
X14470815Y-160000000D01*
X117459204Y-53899546D02*
X117373757Y-53863408D01*
X8517736Y-118108828D02*
X8614803Y-118161749D01*
X71610479Y-14302204D02*
X71605005Y-14270904D01*
X120276336Y-86000059D02*
X101580815Y-86000035D01*
X9573931Y-118469975D02*
X9688475Y-118484020D01*
X116575296Y-131029444D02*
X116600453Y-130959204D01*
X123621300Y-9121300D02*
X122378700Y-7878700D01*
X121312723Y-51032924D02*
X121373345Y-51047168D01*
X12834848Y-11503621D02*
X12894709Y-11545951D01*
X124135531Y-128309475D02*
X124089806Y-128228405D01*
X73504440Y-172493889D02*
X73475128Y-172530471D01*
X13455951Y-111237276D02*
X13472314Y-111311250D01*
X12136526Y-149605729D02*
X12213034Y-149614611D01*
X53255823Y-54051162D02*
X53232998Y-54072866D01*
X122483591Y-171221350D02*
X122473210Y-171282329D01*
X53386663Y-93314605D02*
X53375835Y-93353450D01*
X11227122Y-93035807D02*
X11165151Y-92996378D01*
X11424702Y-93135707D02*
X11356996Y-93105570D01*
X13322237Y-130541103D02*
X13355570Y-130606996D01*
X96580815Y-120500000D02*
X81210815Y-120500000D01*
X11863473Y-189105729D02*
X11941102Y-189100735D01*
X116575296Y-92470555D02*
X116553583Y-92398750D01*
X121607088Y-169628332D02*
X121662989Y-169654467D01*
X122027133Y-93093191D02*
X121981104Y-93134676D01*
X124397211Y-89464055D02*
X124376994Y-89392398D01*
X51669148Y-14643515D02*
X51637160Y-14625301D01*
X10501135Y-12808897D02*
X10500000Y-12750000D01*
X51606698Y-93604856D02*
X51577873Y-93582292D01*
X10714192Y-13522877D02*
X10677762Y-13458896D01*
X11637709Y-192055551D02*
X11565157Y-192035596D01*
X123518923Y-175199821D02*
X123600391Y-175194948D01*
X10544048Y-32961890D02*
X10527685Y-32887921D01*
X11786965Y-189114611D02*
X11863473Y-189105729D01*
X76210815Y-123500000D02*
X76210815Y-125500002D01*
X9921345Y-118498988D02*
X10000000Y-118500000D01*
X53279245Y-172525741D02*
X53255823Y-172551162D01*
X8343392Y-86498890D02*
X8251111Y-86562523D01*
X106903573Y-197360677D02*
X107044236Y-197312375D01*
X51816396Y-93692938D02*
X51779247Y-93685215D01*
X71729649Y-172535789D02*
X71709857Y-172512606D01*
X116500505Y-52539327D02*
X116500126Y-52480306D01*
X122496758Y-52598602D02*
X122491441Y-52660081D01*
X9804307Y-39493719D02*
X9921345Y-39498988D01*
X51498660Y-93498122D02*
X51477854Y-93467925D01*
X116535412Y-12674522D02*
X116553583Y-12601250D01*
X13246378Y-71264707D02*
X13285807Y-71326678D01*
X13060650Y-11689350D02*
X13111085Y-11742290D01*
X124482389Y-95386834D02*
X124490484Y-95337627D01*
X122183971Y-86700391D02*
X122096312Y-86629705D01*
X96580815Y-197500000D02*
X96580815Y-199500000D01*
X53232998Y-93572866D02*
X53208984Y-93592989D01*
X117323817Y-169660702D02*
X117407611Y-169621521D01*
X108849253Y-155938971D02*
X108887323Y-155814441D01*
X121373345Y-11547168D02*
X121433162Y-11563872D01*
X10677762Y-31890659D02*
X10714192Y-31826678D01*
X71601046Y-14232511D02*
X71600000Y-14199900D01*
X5000000Y-81000000D02*
X5000000Y-75838519D01*
X106000000Y-79000000D02*
X106132270Y-78997085D01*
X13493869Y-170886526D02*
X13484986Y-170963034D01*
X124419989Y-168554375D02*
X124397211Y-168464055D01*
X123600391Y-135694948D02*
X123686834Y-135682389D01*
X12952363Y-73258518D02*
X12894709Y-73303648D01*
X71600000Y-93199900D02*
X71600000Y-88500000D01*
X73370920Y-133120127D02*
X73330659Y-133143503D01*
X116503140Y-91902153D02*
X116510091Y-91825073D01*
X122499544Y-13036993D02*
X122496758Y-13098602D01*
X9185558Y-165112676D02*
X9078708Y-165144979D01*
X9185558Y-7112676D02*
X9078708Y-7144979D01*
X121139300Y-172493534D02*
X121063593Y-172498656D01*
X71755184Y-93561950D02*
X71729649Y-93535789D01*
X51417863Y-172332805D02*
X51409229Y-172295998D01*
X124142199Y-95966527D02*
X124179865Y-95933324D01*
X76210815Y-79000000D02*
X76210815Y-81000000D01*
X71600000Y-167500000D02*
X53400000Y-167500000D01*
X123847119Y-9374199D02*
X123787489Y-9301656D01*
X10564003Y-71664721D02*
X10587450Y-71593682D01*
X13322237Y-131958896D02*
X13285807Y-132022877D01*
X107868400Y-157347119D02*
X107969479Y-157262965D01*
X7000000Y-81000000D02*
X5000000Y-81000000D01*
X11494122Y-34012149D02*
X11424702Y-33985307D01*
X109025268Y-136476639D02*
X109039270Y-136422545D01*
X12213034Y-53734986D02*
X12136526Y-53743869D01*
X12952363Y-33758518D02*
X12894709Y-33803648D01*
X53398329Y-132740739D02*
X53393867Y-132777971D01*
X71858323Y-172637698D02*
X71806698Y-172604856D01*
X124372501Y-56188586D02*
X124398394Y-56139157D01*
X123848089Y-56637447D02*
X123927989Y-56603768D01*
X51606698Y-14604856D02*
X51577873Y-14582292D01*
X9460760Y-197451667D02*
X9573931Y-197469975D01*
X13204048Y-189704847D02*
X13246378Y-189764707D01*
X13060650Y-71038912D02*
X13111085Y-71091850D01*
X109245685Y-96543499D02*
X109292900Y-96492900D01*
X10564003Y-32164721D02*
X10587450Y-32093682D01*
X121373345Y-51047168D02*
X121433162Y-51063872D01*
X13060650Y-191660250D02*
X13007709Y-191710685D01*
X12708896Y-70777342D02*
X12772877Y-70813769D01*
X122193972Y-53407991D02*
X122154994Y-53457099D01*
X51498660Y-172498122D02*
X51477854Y-172467925D01*
X9238868Y-78902597D02*
X9349045Y-78929180D01*
X120836224Y-165056365D02*
X120762727Y-165042859D01*
X11105290Y-112803648D02*
X11047636Y-112758518D01*
X51637160Y-14625301D02*
X51606698Y-14604856D01*
M02*
