M48
; DRILL file {KiCad 8.0.9} date 2025-03-25T11:17:14+0530
; FORMAT={-:-/ absolute / inch / decimal}
; #@! TF.CreationDate,2025-03-25T11:17:14+05:30
; #@! TF.GenerationSoftware,Kicad,Pcbnew,8.0.9
; #@! TF.FileFunction,NonPlated,1,4,NPTH
FMAT,2
INCH
; #@! TA.AperFunction,NonPlated,NPTH,ComponentDrill
T1C0.0197
; #@! TA.AperFunction,NonPlated,NPTH,ComponentDrill
T2C0.0787
; #@! TA.AperFunction,NonPlated,NPTH,ComponentDrill
T3C0.0866
%
G90
G05
T1
X0.2677Y-1.4307
X0.2677Y-2.9858
X0.2677Y-4.5409
X0.2677Y-6.096
X0.2677Y-7.6511
X0.2677Y-1.3978
X0.2677Y-2.953
X0.2677Y-4.5081
X0.2677Y-6.0632
X0.2677Y-7.6183
X0.2677Y-1.365
X0.2677Y-2.9202
X0.2677Y-4.4753
X0.2677Y-6.0304
X0.2677Y-7.5855
X0.2677Y-1.3322
X0.2677Y-2.8873
X0.2677Y-4.4425
X0.2677Y-5.9976
X0.2677Y-7.5527
X0.2677Y-1.2994
X0.2677Y-2.8545
X0.2677Y-4.4097
X0.2677Y-5.9648
X0.2677Y-7.5199
X0.2677Y-1.2666
X0.2677Y-2.8217
X0.2677Y-4.3768
X0.2677Y-5.932
X0.2677Y-7.4871
X0.2677Y-1.2338
X0.2677Y-2.7889
X0.2677Y-4.344
X0.2677Y-5.8992
X0.2677Y-7.4543
X0.2677Y-0.7658
X0.2677Y-2.3209
X0.2677Y-3.876
X0.2677Y-5.4312
X0.2677Y-6.9863
X0.2677Y-0.733
X0.2677Y-2.2881
X0.2677Y-3.8432
X0.2677Y-5.3983
X0.2677Y-6.9535
X0.2677Y-0.7002
X0.2677Y-2.2553
X0.2677Y-3.8104
X0.2677Y-5.3655
X0.2677Y-6.9207
X0.2677Y-0.6674
X0.2677Y-2.2225
X0.2677Y-3.7776
X0.2677Y-5.3327
X0.2677Y-6.8878
X0.2677Y-0.6346
X0.2677Y-2.1897
X0.2677Y-3.7448
X0.2677Y-5.2999
X0.2677Y-6.855
X0.2677Y-0.6018
X0.2677Y-2.1569
X0.2677Y-3.712
X0.2677Y-5.2671
X0.2677Y-6.8222
X0.2677Y-0.5689
X0.2677Y-2.1241
X0.2677Y-3.6792
X0.2677Y-5.2343
X0.2677Y-6.7894
X0.2756Y0.0
X0.2756Y-0.0328
X0.2756Y-0.0656
X0.2756Y-0.0984
X0.2756Y-0.1312
X0.2756Y-0.164
X0.2756Y-0.1969
X0.2756Y-1.6339
X0.2756Y-1.6732
X0.2756Y-1.7126
X0.2756Y-1.752
X0.2756Y-3.189
X0.2756Y-3.2283
X0.2756Y-3.2677
X0.2756Y-3.3071
X0.2756Y-4.7441
X0.2756Y-4.7835
X0.2756Y-4.8228
X0.2756Y-4.8622
X0.2756Y-6.2992
X0.2756Y-6.3386
X0.2756Y-6.378
X0.2756Y-6.4173
X0.2756Y-7.8543
X0.2756Y-7.8871
X0.2756Y-7.9199
X0.2756Y-7.9528
X0.2756Y-7.9856
X0.2756Y-8.0184
X0.2756Y-8.0512
X0.5697Y-0.2677
X0.5697Y-1.563
X0.5697Y-1.8228
X0.5697Y-3.1181
X0.5697Y-3.378
X0.5697Y-4.6732
X0.5697Y-4.9331
X0.5697Y-6.2283
X0.5697Y-6.4882
X0.5697Y-7.7835
X0.6025Y-0.2677
X0.6025Y-1.563
X0.6025Y-1.8228
X0.6025Y-3.1181
X0.6025Y-3.378
X0.6025Y-4.6732
X0.6025Y-4.9331
X0.6025Y-6.2283
X0.6025Y-6.4882
X0.6025Y-7.7835
X0.6353Y-0.2677
X0.6353Y-1.563
X0.6353Y-1.8228
X0.6353Y-3.1181
X0.6353Y-3.378
X0.6353Y-4.6732
X0.6353Y-4.9331
X0.6353Y-6.2283
X0.6353Y-6.4882
X0.6353Y-7.7835
X0.6681Y-0.2677
X0.6681Y-1.563
X0.6681Y-1.8228
X0.6681Y-3.1181
X0.6681Y-3.378
X0.6681Y-4.6732
X0.6681Y-4.9331
X0.6681Y-6.2283
X0.6681Y-6.4882
X0.6681Y-7.7835
X0.701Y-0.2677
X0.701Y-1.563
X0.701Y-1.8228
X0.701Y-3.1181
X0.701Y-3.378
X0.701Y-4.6732
X0.701Y-4.9331
X0.701Y-6.2283
X0.701Y-6.4882
X0.701Y-7.7835
X0.7338Y-0.2677
X0.7338Y-1.563
X0.7338Y-1.8228
X0.7338Y-3.1181
X0.7338Y-3.378
X0.7338Y-4.6732
X0.7338Y-4.9331
X0.7338Y-6.2283
X0.7338Y-6.4882
X0.7338Y-7.7835
X0.7666Y-0.2677
X0.7666Y-1.563
X0.7666Y-1.8228
X0.7666Y-3.1181
X0.7666Y-3.378
X0.7666Y-4.6732
X0.7666Y-4.9331
X0.7666Y-6.2283
X0.7666Y-6.4882
X0.7666Y-7.7835
X1.7248Y-0.2677
X1.7248Y-1.563
X1.7248Y-1.8228
X1.7248Y-3.1181
X1.7248Y-3.378
X1.7248Y-4.6732
X1.7248Y-4.9331
X1.7248Y-6.2283
X1.7248Y-6.4882
X1.7248Y-7.7835
X1.7576Y-0.2677
X1.7576Y-1.563
X1.7576Y-1.8228
X1.7576Y-3.1181
X1.7576Y-3.378
X1.7576Y-4.6732
X1.7576Y-4.9331
X1.7576Y-6.2283
X1.7576Y-6.4882
X1.7576Y-7.7835
X1.7905Y-0.2677
X1.7905Y-1.563
X1.7905Y-1.8228
X1.7905Y-3.1181
X1.7905Y-3.378
X1.7905Y-4.6732
X1.7905Y-4.9331
X1.7905Y-6.2283
X1.7905Y-6.4882
X1.7905Y-7.7835
X1.8233Y-0.2677
X1.8233Y-1.563
X1.8233Y-1.8228
X1.8233Y-3.1181
X1.8233Y-3.378
X1.8233Y-4.6732
X1.8233Y-4.9331
X1.8233Y-6.2283
X1.8233Y-6.4882
X1.8233Y-7.7835
X1.8561Y-0.2677
X1.8561Y-1.563
X1.8561Y-1.8228
X1.8561Y-3.1181
X1.8561Y-3.378
X1.8561Y-4.6732
X1.8561Y-4.9331
X1.8561Y-6.2283
X1.8561Y-6.4882
X1.8561Y-7.7835
X1.8889Y-0.2677
X1.8889Y-1.563
X1.8889Y-1.8228
X1.8889Y-3.1181
X1.8889Y-3.378
X1.8889Y-4.6732
X1.8889Y-4.9331
X1.8889Y-6.2283
X1.8889Y-6.4882
X1.8889Y-7.7835
X1.9217Y-0.2677
X1.9217Y-1.563
X1.9217Y-1.8228
X1.9217Y-3.1181
X1.9217Y-3.378
X1.9217Y-4.6732
X1.9217Y-4.9331
X1.9217Y-6.2283
X1.9217Y-6.4882
X1.9217Y-7.7835
X3.0004Y-0.2677
X3.0004Y-1.563
X3.0004Y-1.8228
X3.0004Y-3.1181
X3.0004Y-3.378
X3.0004Y-4.6732
X3.0004Y-4.9331
X3.0004Y-6.2283
X3.0004Y-6.4882
X3.0004Y-7.7835
X3.0332Y-0.2677
X3.0332Y-1.563
X3.0332Y-1.8228
X3.0332Y-3.1181
X3.0332Y-3.378
X3.0332Y-4.6732
X3.0332Y-4.9331
X3.0332Y-6.2283
X3.0332Y-6.4882
X3.0332Y-7.7835
X3.066Y-0.2677
X3.066Y-1.563
X3.066Y-1.8228
X3.066Y-3.1181
X3.066Y-3.378
X3.066Y-4.6732
X3.066Y-4.9331
X3.066Y-6.2283
X3.066Y-6.4882
X3.066Y-7.7835
X3.0989Y-0.2677
X3.0989Y-1.563
X3.0989Y-1.8228
X3.0989Y-3.1181
X3.0989Y-3.378
X3.0989Y-4.6732
X3.0989Y-4.9331
X3.0989Y-6.2283
X3.0989Y-6.4882
X3.0989Y-7.7835
X3.1317Y-0.2677
X3.1317Y-1.563
X3.1317Y-1.8228
X3.1317Y-3.1181
X3.1317Y-3.378
X3.1317Y-4.6732
X3.1317Y-4.9331
X3.1317Y-6.2283
X3.1317Y-6.4882
X3.1317Y-7.7835
X3.1645Y-0.2677
X3.1645Y-1.563
X3.1645Y-1.8228
X3.1645Y-3.1181
X3.1645Y-3.378
X3.1645Y-4.6732
X3.1645Y-4.9331
X3.1645Y-6.2283
X3.1645Y-6.4882
X3.1645Y-7.7835
X3.1973Y-0.2677
X3.1973Y-1.563
X3.1973Y-1.8228
X3.1973Y-3.1181
X3.1973Y-3.378
X3.1973Y-4.6732
X3.1973Y-4.9331
X3.1973Y-6.2283
X3.1973Y-6.4882
X3.1973Y-7.7835
X3.8024Y-0.2677
X3.8024Y-1.563
X3.8024Y-1.8228
X3.8024Y-3.1181
X3.8024Y-3.378
X3.8024Y-4.6732
X3.8024Y-4.9331
X3.8024Y-6.2283
X3.8024Y-6.4882
X3.8024Y-7.7835
X3.8352Y-0.2677
X3.8352Y-1.563
X3.8352Y-1.8228
X3.8352Y-3.1181
X3.8352Y-3.378
X3.8352Y-4.6732
X3.8352Y-4.9331
X3.8352Y-6.2283
X3.8352Y-6.4882
X3.8352Y-7.7835
X3.868Y-0.2677
X3.868Y-1.563
X3.868Y-1.8228
X3.868Y-3.1181
X3.868Y-3.378
X3.868Y-4.6732
X3.868Y-4.9331
X3.868Y-6.2283
X3.868Y-6.4882
X3.868Y-7.7835
X3.9008Y-0.2677
X3.9008Y-1.563
X3.9008Y-1.8228
X3.9008Y-3.1181
X3.9008Y-3.378
X3.9008Y-4.6732
X3.9008Y-4.9331
X3.9008Y-6.2283
X3.9008Y-6.4882
X3.9008Y-7.7835
X3.9336Y-0.2677
X3.9336Y-1.563
X3.9336Y-1.8228
X3.9336Y-3.1181
X3.9336Y-3.378
X3.9336Y-4.6732
X3.9336Y-4.9331
X3.9336Y-6.2283
X3.9336Y-6.4882
X3.9336Y-7.7835
X3.9664Y-0.2677
X3.9664Y-1.563
X3.9664Y-1.8228
X3.9664Y-3.1181
X3.9664Y-3.378
X3.9664Y-4.6732
X3.9664Y-4.9331
X3.9664Y-6.2283
X3.9664Y-6.4882
X3.9664Y-7.7835
X3.9992Y-0.2677
X3.9992Y-1.563
X3.9992Y-1.8228
X3.9992Y-3.1181
X3.9992Y-3.378
X3.9992Y-4.6732
X3.9992Y-4.9331
X3.9992Y-6.2283
X3.9992Y-6.4882
X3.9992Y-7.7835
X4.6591Y-0.685
X4.6591Y-2.2402
X4.6591Y-3.7953
X4.6591Y-5.3504
X4.6591Y-6.9055
X4.6919Y-0.685
X4.6919Y-2.2402
X4.6919Y-3.7953
X4.6919Y-5.3504
X4.6919Y-6.9055
X4.7247Y-0.685
X4.7247Y-2.2402
X4.7247Y-3.7953
X4.7247Y-5.3504
X4.7247Y-6.9055
X4.7575Y-0.685
X4.7575Y-2.2402
X4.7575Y-3.7953
X4.7575Y-5.3504
X4.7575Y-6.9055
X4.7903Y-0.685
X4.7903Y-2.2402
X4.7903Y-3.7953
X4.7903Y-5.3504
X4.7903Y-6.9055
X4.8231Y-0.685
X4.8231Y-2.2402
X4.8231Y-3.7953
X4.8231Y-5.3504
X4.8231Y-6.9055
X4.8559Y-0.685
X4.8559Y-2.2402
X4.8559Y-3.7953
X4.8559Y-5.3504
X4.8559Y-6.9055
X4.9016Y0.0
X4.9016Y-0.0328
X4.9016Y-0.0656
X4.9016Y-0.0984
X4.9016Y-0.1312
X4.9016Y-0.164
X4.9016Y-0.1969
X4.9016Y-1.6339
X4.9016Y-1.6732
X4.9016Y-1.7126
X4.9016Y-1.752
X4.9016Y-3.189
X4.9016Y-3.2283
X4.9016Y-3.2677
X4.9016Y-3.3071
X4.9016Y-4.7441
X4.9016Y-4.7835
X4.9016Y-4.8228
X4.9016Y-4.8622
X4.9016Y-6.2992
X4.9016Y-6.3386
X4.9016Y-6.378
X4.9016Y-6.4173
X4.9016Y-7.8543
X4.9016Y-7.8871
X4.9016Y-7.9199
X4.9016Y-7.9528
X4.9016Y-7.9856
X4.9016Y-8.0184
X4.9016Y-8.0512
X4.9094Y-0.6386
X4.9094Y-2.1938
X4.9094Y-3.7489
X4.9094Y-5.304
X4.9094Y-6.8591
X4.9094Y-0.6058
X4.9094Y-2.1609
X4.9094Y-3.7161
X4.9094Y-5.2712
X4.9094Y-6.8263
X4.9094Y-0.573
X4.9094Y-2.1281
X4.9094Y-3.6833
X4.9094Y-5.2384
X4.9094Y-6.7935
X4.9094Y-0.5402
X4.9094Y-2.0953
X4.9094Y-3.6504
X4.9094Y-5.2056
X4.9094Y-6.7607
X4.9094Y-0.5074
X4.9094Y-2.0625
X4.9094Y-3.6176
X4.9094Y-5.1728
X4.9094Y-6.7279
X4.9094Y-0.4746
X4.9094Y-2.0297
X4.9094Y-3.5848
X4.9094Y-5.1399
X4.9094Y-6.6951
X4.9094Y-0.4418
X4.9094Y-1.9969
X4.9094Y-3.552
X4.9094Y-5.1071
X4.9094Y-6.6623
T2
X0.3543Y-0.0945
X0.3543Y-7.9567
X4.8228Y-0.0945
X4.8228Y-7.9567
T3
X2.1153Y-1.4491
X2.1153Y-3.0043
X2.1153Y-4.5594
X2.1153Y-6.1145
X2.1153Y-7.6696
X3.3224Y-0.3754
X3.3224Y-1.9305
X3.3224Y-3.4856
X3.3224Y-5.0408
X3.3224Y-6.5959
M30
