M48
; DRILL file {KiCad 9.0.4} date 2025-08-22T17:01:21+0530
; FORMAT={-:-/ absolute / inch / decimal}
; #@! TF.CreationDate,2025-08-22T17:01:21+05:30
; #@! TF.GenerationSoftware,Kicad,Pcbnew,9.0.4
; #@! TF.FileFunction,Plated,1,4,PTH
FMAT,2
INCH
; #@! TA.AperFunction,Plated,PTH,ViaDrill
T1C0.0098
; #@! TA.AperFunction,Plated,PTH,ComponentDrill
T2C0.0118
; #@! TA.AperFunction,Plated,PTH,ComponentDrill
T3C0.0157
%
G90
G05
T1
X-0.0474Y0.3866
X-0.0474Y0.3571
X-0.0474Y0.3275
X-0.0474Y0.298
X-0.0474Y0.2685
X-0.0474Y0.239
X-0.0474Y0.2094
X-0.0474Y0.1799
X-0.0474Y0.1504
X-0.0474Y0.1209
X-0.0474Y0.0913
X-0.0474Y0.0618
X-0.0474Y0.0323
X-0.0468Y-0.0005
X-0.0457Y-0.0325
X-0.0425Y0.4571
X-0.0424Y1.003
X-0.0424Y0.9735
X-0.0424Y0.9439
X-0.0424Y0.9144
X-0.0424Y0.8849
X-0.0424Y0.8553
X-0.0424Y0.8258
X-0.0424Y0.7963
X-0.0424Y0.7668
X-0.0424Y0.7372
X-0.0424Y0.7077
X-0.0424Y0.6782
X-0.0424Y0.6487
X-0.0418Y1.0353
X-0.0415Y-0.0641
X-0.0413Y0.5634
X-0.0406Y0.5319
X-0.0406Y0.5
X-0.0189Y1.0717
X-0.0183Y-0.0956
X0.0097Y-0.1171
X0.0122Y0.8366
X0.0122Y0.8071
X0.013Y1.098
X0.0244Y1.0346
X0.0244Y1.0051
X0.0417Y0.8366
X0.0417Y0.8071
X0.0449Y-0.1354
X0.0485Y-0.0122
X0.0485Y-0.0418
X0.0513Y1.1112
X0.0524Y0.4047
X0.0527Y0.7297
X0.0527Y0.7002
X0.0527Y0.6739
X0.0527Y0.6444
X0.0535Y0.3823
X0.0539Y1.0346
X0.0539Y1.0051
X0.0744Y-0.1354
X0.0776Y0.3823
X0.078Y-0.0122
X0.078Y-0.0418
X0.0787Y0.4051
X0.0809Y1.1112
X0.0822Y0.7297
X0.0822Y0.7002
X0.0822Y0.6739
X0.0822Y0.6444
X0.1Y0.3827
X0.1008Y0.4059
X0.1039Y-0.1354
X0.1104Y1.1112
X0.1109Y0.6739
X0.1109Y0.6444
X0.1119Y1.0467
X0.1119Y1.0171
X0.1122Y0.7319
X0.1122Y0.7023
X0.1197Y0.3823
X0.1335Y-0.1354
X0.1399Y1.1112
X0.14Y0.62
X0.1404Y0.6739
X0.1404Y0.6444
X0.1414Y1.0467
X0.1414Y1.0171
X0.1418Y0.7319
X0.1418Y0.7023
X0.1445Y0.3823
X0.163Y-0.1354
X0.1665Y0.6235
X0.1665Y0.3831
X0.1695Y1.1112
X0.17Y0.69
X0.174Y0.7295
X0.1768Y0.6539
X0.1776Y0.428
X0.178Y0.4051
X0.189Y0.6063
X0.1925Y-0.1354
X0.199Y1.1112
X0.2004Y0.6309
X0.2016Y0.4362
X0.2074Y1.0475
X0.2074Y1.018
X0.2079Y0.6677
X0.2169Y0.5807
X0.2181Y0.6988
X0.2181Y0.6071
X0.222Y-0.1354
X0.2259Y0.6305
X0.2285Y1.1112
X0.2287Y0.4362
X0.237Y1.0475
X0.237Y1.018
X0.2376Y0.502
X0.2465Y0.6198
X0.2467Y0.6408
X0.2516Y-0.1354
X0.2579Y0.5697
X0.258Y1.1112
X0.2598Y0.7283
X0.2685Y0.7
X0.2692Y0.6309
X0.2764Y0.0513
X0.2764Y0.0218
X0.2811Y-0.1354
X0.285Y0.5705
X0.2876Y1.1112
X0.2917Y0.6198
X0.2922Y0.6414
X0.3059Y0.2976
X0.3059Y0.0513
X0.3059Y0.0218
X0.3102Y0.3583
X0.3106Y0.4374
X0.3106Y-0.1354
X0.3126Y0.6996
X0.3126Y0.631
X0.3137Y0.2043
X0.3137Y0.1747
X0.3171Y1.1112
X0.3197Y0.5043
X0.3209Y0.4772
X0.3319Y0.615
X0.3402Y-0.1354
X0.3432Y0.2043
X0.3432Y0.1747
X0.3445Y0.7299
X0.3466Y1.1112
X0.3504Y0.4402
X0.3646Y0.5459
X0.3697Y-0.1354
X0.3761Y1.1112
X0.3823Y0.4409
X0.3898Y-0.0389
X0.3898Y-0.0684
X0.3933Y0.5459
X0.3992Y-0.1354
X0.4057Y1.1112
X0.4083Y0.5071
X0.4087Y0.4795
X0.4091Y0.4543
X0.4124Y0.6285
X0.4127Y0.6037
X0.4181Y0.5459
X0.4193Y-0.0389
X0.4193Y-0.0684
X0.4287Y-0.1354
X0.4343Y0.6177
X0.4352Y1.1112
X0.4353Y0.062
X0.4353Y0.0325
X0.4583Y-0.1354
X0.4612Y0.4816
X0.4612Y0.452
X0.4614Y0.6469
X0.4614Y0.6173
X0.4647Y1.1112
X0.4649Y0.062
X0.4649Y0.0325
X0.4736Y1.0475
X0.4736Y1.018
X0.4878Y-0.1354
X0.4907Y0.4816
X0.4907Y0.452
X0.4909Y0.6469
X0.4909Y0.6173
X0.4943Y1.1112
X0.5031Y1.0475
X0.5031Y1.018
X0.5173Y-0.1354
X0.5209Y0.6469
X0.5209Y0.6173
X0.5228Y-0.0398
X0.5228Y-0.0693
X0.5238Y1.1112
X0.5382Y0.4815
X0.5382Y0.452
X0.5469Y-0.1354
X0.5504Y0.6469
X0.5504Y0.6173
X0.5523Y-0.0398
X0.5523Y-0.0693
X0.5533Y1.1112
X0.5655Y1.0511
X0.5655Y1.0216
X0.5672Y0.1886
X0.5672Y0.1591
X0.5677Y0.4815
X0.5677Y0.452
X0.5764Y0.5862
X0.5764Y-0.1354
X0.5792Y0.647
X0.5792Y0.6175
X0.5828Y1.1112
X0.595Y1.0511
X0.595Y1.0216
X0.5968Y0.1886
X0.5968Y0.1591
X0.6059Y-0.1354
X0.6087Y0.647
X0.6087Y0.6175
X0.6124Y1.1112
X0.6246Y0.9534
X0.6246Y0.9238
X0.6248Y0.4787
X0.6248Y0.4492
X0.6354Y-0.1354
X0.6391Y0.6482
X0.6391Y0.6187
X0.6419Y1.1112
X0.6541Y0.9534
X0.6541Y0.9238
X0.6543Y0.4787
X0.6543Y0.4492
X0.6648Y-0.0273
X0.6648Y-0.0568
X0.665Y-0.1354
X0.6686Y0.6482
X0.6686Y0.6187
X0.6714Y1.1112
X0.6931Y1.0484
X0.6931Y1.0189
X0.6943Y-0.0273
X0.6943Y-0.0568
X0.6945Y-0.1354
X0.7009Y1.1112
X0.703Y0.6462
X0.703Y0.6167
X0.715Y0.4768
X0.715Y0.4472
X0.7227Y1.0484
X0.7227Y1.0189
X0.724Y-0.1354
X0.7241Y0.2675
X0.7241Y0.238
X0.7305Y1.1112
X0.7325Y0.6462
X0.7325Y0.6167
X0.7398Y0.9092
X0.7398Y0.8796
X0.7445Y0.4768
X0.7445Y0.4472
X0.7535Y-0.1354
X0.7536Y0.2675
X0.7536Y0.238
X0.76Y1.1112
X0.7693Y0.9092
X0.7693Y0.8796
X0.7831Y-0.1354
X0.7895Y1.1112
X0.8126Y-0.1354
X0.8163Y-0.0323
X0.8163Y-0.0618
X0.8185Y0.476
X0.8185Y0.4465
X0.819Y1.0475
X0.819Y1.018
X0.8191Y1.1112
X0.8421Y-0.1354
X0.8442Y0.9065
X0.8442Y0.8769
X0.8458Y-0.0323
X0.8458Y-0.0618
X0.848Y0.476
X0.848Y0.4465
X0.8486Y1.0475
X0.8486Y1.018
X0.8486Y1.1112
X0.858Y0.5506
X0.858Y0.521
X0.8696Y0.2309
X0.8696Y0.2014
X0.8717Y-0.1354
X0.8738Y0.9065
X0.8738Y0.8769
X0.8781Y1.1112
X0.8875Y0.5506
X0.8875Y0.521
X0.8946Y0.4747
X0.8946Y0.4451
X0.8991Y0.2309
X0.8991Y0.2014
X0.9012Y-0.1354
X0.9076Y1.1112
X0.9241Y0.4747
X0.9241Y0.4451
X0.9307Y-0.1354
X0.9343Y0.6236
X0.9372Y1.1112
X0.9393Y0.5506
X0.9393Y0.521
X0.9433Y0.9078
X0.9433Y0.8783
X0.9485Y1.0484
X0.9485Y1.0189
X0.9585Y0.0099
X0.9585Y-0.0196
X0.9602Y-0.1354
X0.9667Y1.1112
X0.9688Y0.5506
X0.9688Y0.521
X0.9729Y0.9078
X0.9729Y0.8783
X0.9759Y0.4756
X0.9759Y0.446
X0.978Y1.0484
X0.978Y1.0189
X0.988Y0.0099
X0.988Y-0.0196
X0.9898Y0.624
X0.9898Y-0.1354
X0.9946Y0.2282
X0.9946Y0.1987
X0.9962Y1.1112
X1.0054Y0.4756
X1.0054Y0.446
X1.0193Y-0.1354
X1.0205Y0.5514
X1.0205Y0.5219
X1.0241Y0.2282
X1.0241Y0.1987
X1.0257Y1.1112
X1.0371Y0.9065
X1.0371Y0.8769
X1.0488Y-0.1354
X1.05Y0.5514
X1.05Y0.5219
X1.0553Y1.1112
X1.0598Y0.6236
X1.0666Y0.9065
X1.0666Y0.8769
X1.0687Y0.4764
X1.0687Y0.4469
X1.0783Y-0.1354
X1.0848Y1.1112
X1.0866Y1.0471
X1.0866Y1.0176
X1.0982Y0.4764
X1.0982Y0.4469
X1.1079Y-0.1354
X1.1091Y-0.0323
X1.1091Y-0.0618
X1.1107Y0.5506
X1.1107Y0.521
X1.1125Y0.2282
X1.1125Y0.1987
X1.1143Y1.1112
X1.1162Y1.0471
X1.1162Y1.0176
X1.1272Y0.624
X1.1374Y-0.1354
X1.1386Y-0.0323
X1.1386Y-0.0618
X1.1402Y0.5506
X1.1402Y0.521
X1.142Y0.2282
X1.142Y0.1987
X1.1439Y1.1112
X1.1669Y-0.1354
X1.1714Y0.4773
X1.1714Y0.4478
X1.1734Y1.1112
X1.175Y0.9038
X1.175Y0.8743
X1.1949Y0.626
X1.1965Y-0.1354
X1.2009Y0.4773
X1.2009Y0.4478
X1.2029Y1.1112
X1.2046Y0.9038
X1.2046Y0.8743
X1.2125Y0.2274
X1.2125Y0.1978
X1.226Y-0.1354
X1.2324Y1.1112
X1.233Y0.5541
X1.233Y0.5246
X1.242Y0.2274
X1.242Y0.1978
X1.2533Y-0.0322
X1.2533Y-0.0618
X1.2555Y-0.1354
X1.262Y1.1112
X1.2625Y0.5541
X1.2625Y0.5246
X1.2828Y-0.0322
X1.2828Y-0.0618
X1.2839Y0.4488
X1.2839Y0.4192
X1.285Y-0.1354
X1.2915Y1.1112
X1.3023Y0.9011
X1.3023Y0.8716
X1.3134Y0.4488
X1.3134Y0.4192
X1.3146Y-0.1354
X1.3205Y0.2265
X1.3205Y0.1969
X1.321Y1.1112
X1.3318Y0.9011
X1.3318Y0.8716
X1.3366Y0.5559
X1.3366Y0.5264
X1.3441Y-0.1354
X1.35Y0.2265
X1.35Y0.1969
X1.3506Y1.1112
X1.3661Y0.5559
X1.3661Y0.5264
X1.3736Y-0.1354
X1.3801Y1.1112
X1.4017Y0.4497
X1.4017Y0.4201
X1.4031Y-0.1354
X1.4096Y1.1112
X1.42Y-0.0242
X1.42Y-0.0537
X1.4313Y0.4497
X1.4313Y0.4201
X1.4327Y0.6374
X1.4327Y-0.1354
X1.4391Y1.1112
X1.4415Y0.9373
X1.4415Y0.9078
X1.4428Y0.2318
X1.4428Y0.2023
X1.4429Y1.0498
X1.4429Y1.0202
X1.4496Y-0.0242
X1.4496Y-0.0537
X1.4622Y-0.1354
X1.4687Y1.1112
X1.4711Y0.9373
X1.4711Y0.9078
X1.4723Y0.2318
X1.4723Y0.2023
X1.4724Y1.0498
X1.4724Y1.0202
X1.4917Y-0.1354
X1.4982Y1.1112
X1.5059Y0.6339
X1.5213Y-0.1354
X1.5277Y1.1112
X1.5508Y-0.1354
X1.5572Y1.1112
X1.5614Y0.5444
X1.5776Y0.2309
X1.5776Y0.2014
X1.5803Y-0.1354
X1.5846Y0.5059
X1.5846Y0.4764
X1.5868Y1.1112
X1.6035Y0.6622
X1.6035Y0.6326
X1.6071Y0.2309
X1.6071Y0.2014
X1.6098Y-0.1354
X1.6142Y0.5059
X1.6142Y0.4764
X1.6163Y1.1112
X1.633Y0.6622
X1.633Y0.6326
X1.6394Y-0.1354
X1.6458Y1.0675
X1.6465Y1.0957
X1.6648Y0.8286
X1.6654Y0.5
X1.6654Y0.437
X1.6669Y0.9121
X1.6678Y0.8726
X1.6689Y-0.1354
X1.6984Y-0.1354
X1.7059Y0.5268
X1.7236Y0.3193
X1.7256Y0.2626
X1.7264Y0.563
X1.728Y-0.1354
X1.7284Y0.215
X1.7323Y0.6457
X1.7323Y0.6043
X1.7575Y-0.1354
X1.7744Y0.4248
X1.7785Y0.9991
X1.7785Y0.9696
X1.7785Y0.94
X1.7785Y0.9105
X1.7785Y0.881
X1.7838Y0.8429
X1.787Y-0.1354
X1.8031Y1.0134
X1.8126Y0.2484
X1.8165Y-0.1354
X1.8217Y0.8937
X1.8252Y0.9713
X1.8252Y0.9382
X1.826Y0.2902
X1.8268Y0.4209
X1.8268Y0.3346
X1.8272Y0.3776
X1.8327Y1.0134
X1.8461Y-0.1354
X1.8622Y1.0134
X1.8756Y-0.1354
X1.878Y0.9614
X1.8862Y0.9
X1.8878Y0.378
X1.8898Y0.7323
X1.8917Y1.0134
X1.9051Y-0.1354
X1.9134Y0.3772
X1.9134Y0.2484
X1.9173Y0.6614
X1.9177Y0.6335
X1.9189Y0.2969
X1.9213Y1.0134
X1.9252Y0.5189
X1.9276Y0.1087
X1.9291Y0.7323
X1.9303Y0.1575
X1.9307Y0.1984
X1.9323Y0.9283
X1.9343Y0.9705
X1.9346Y-0.1354
X1.9384Y0.0243
X1.9425Y0.6319
X1.9449Y0.3677
X1.9484Y0.6626
X1.9484Y-0.0146
X1.9508Y1.0134
X1.9516Y0.2969
X1.9598Y0.1071
X1.9642Y-0.1354
X1.9646Y0.639
X1.9803Y1.0134
X1.9823Y0.8902
X1.9823Y0.2976
X1.9839Y0.3913
X1.9839Y0.3602
X1.985Y-0.0437
X1.9858Y0.1972
X1.9906Y0.9705
X1.9921Y0.7783
X1.9921Y0.7244
X1.9937Y-0.1354
X1.9966Y0.6021
X1.9976Y0.9311
X2.0047Y0.8732
X2.0098Y1.0134
X2.011Y0.1972
X2.0118Y0.4831
X2.0122Y0.5465
X2.0128Y0.5152
X2.0137Y0.4525
X2.0144Y0.689
X2.0232Y-0.1354
X2.024Y0.6035
X2.0252Y0.1154
X2.0327Y0.2528
X2.0343Y0.9705
X2.0362Y0.9114
X2.037Y0.8661
X2.0394Y1.0134
X2.0425Y0.5134
X2.0452Y0.3895
X2.0453Y0.5472
X2.0453Y0.2949
X2.0457Y0.1555
X2.0465Y0.0043
X2.0524Y0.2413
X2.0528Y-0.1354
X2.0583Y0.9394
X2.0669Y0.6579
X2.0681Y0.9705
X2.0689Y1.0134
X2.0724Y0.8661
X2.0766Y0.4557
X2.0767Y0.3895
X2.0776Y0.5488
X2.0776Y0.328
X2.0823Y-0.0461
X2.0823Y-0.1354
X2.0835Y0.9079
X2.0984Y1.0134
X2.0997Y0.244
X2.1012Y0.9705
X2.1039Y0.1085
X2.1063Y0.3272
X2.1071Y0.4846
X2.1079Y0.3895
X2.1083Y0.4547
X2.1118Y-0.1354
X2.1173Y0.9394
X2.1209Y0.785
X2.1224Y0.8661
X2.1235Y0.1824
X2.1236Y0.9071
X2.128Y1.0134
X2.1374Y0.5445
X2.1382Y0.484
X2.1397Y0.4525
X2.1397Y0.3895
X2.1402Y0.4217
X2.1409Y0.6321
X2.1413Y-0.1354
X2.1444Y0.3275
X2.1575Y1.0134
X2.1591Y0.9732
X2.1594Y0.177
X2.1673Y0.9
X2.1681Y0.9429
X2.1689Y0.8642
X2.1697Y0.1096
X2.1701Y0.1988
X2.1709Y0.4528
X2.1709Y-0.1354
X2.1712Y0.3895
X2.1837Y0.5817
X2.187Y1.0134
X2.1929Y0.0827
X2.1931Y0.7279
X2.1945Y0.7025
X2.1965Y0.1953
X2.1994Y0.358
X2.2004Y-0.1354
X2.2008Y0.2961
X2.2016Y0.5453
X2.2039Y0.974
X2.2055Y0.2543
X2.2075Y0.1543
X2.2154Y0.9366
X2.2165Y1.0134
X2.2181Y0.9
X2.2181Y0.8626
X2.2276Y0.6551
X2.2299Y-0.1354
X2.2323Y0.5453
X2.2346Y0.3906
X2.2461Y1.0134
X2.2512Y0.9705
X2.252Y0.6315
X2.2591Y0.9043
X2.2594Y-0.1354
X2.261Y0.9417
X2.2713Y0.3728
X2.2717Y0.865
X2.2717Y0.3996
X2.2756Y1.0134
X2.2846Y0.6343
X2.289Y-0.1354
X2.2894Y0.3366
X2.2906Y0.4562
X2.2909Y0.2736
X2.3002Y0.6602
X2.3004Y0.8874
X2.3009Y0.4371
X2.3039Y0.9283
X2.3051Y1.0134
X2.3067Y0.7276
X2.3185Y-0.1354
X2.3209Y0.9697
X2.328Y-0.0004
X2.3346Y1.0134
X2.3351Y-0.0542
X2.3358Y0.7283
X2.3385Y0.4877
X2.339Y0.1394
X2.339Y0.1146
X2.3433Y0.9295
X2.348Y-0.1354
X2.3484Y0.8992
X2.3571Y-0.0008
X2.3587Y0.1902
X2.3642Y1.0134
X2.3667Y0.551
X2.3677Y-0.0382
X2.3709Y0.9705
X2.3713Y0.7181
X2.3739Y0.4877
X2.3739Y0.4485
X2.3739Y0.4092
X2.374Y0.3031
X2.3776Y-0.1354
X2.3803Y0.1902
X2.3862Y0.337
X2.387Y0.9248
X2.3878Y0.5106
X2.3906Y0.8874
X2.3906Y0.6826
X2.3909Y0.7079
X2.3937Y1.0134
X2.402Y0.1886
X2.4031Y0.4634
X2.4071Y0.4315
X2.4071Y-0.1354
X2.4083Y0.3996
X2.4165Y0.9642
X2.4209Y0.5539
X2.4211Y0.6169
X2.4217Y0.8839
X2.4228Y0.3386
X2.4232Y1.0134
X2.4241Y0.1693
X2.4255Y0.1462
X2.4256Y0.6488
X2.4366Y-0.1354
X2.4528Y1.0134
X2.4528Y0.9839
X2.4528Y0.9543
X2.4528Y0.9248
X2.4528Y0.8953
X2.4528Y0.8657
X2.4528Y0.8362
X2.4551Y0.0087
X2.4589Y0.2764
X2.4661Y-0.1354
X2.4957Y-0.1354
X2.5016Y0.3346
X2.502Y0.5209
X2.5023Y-0.0571
X2.5024Y0.4193
X2.5071Y0.2728
X2.5075Y-0.0094
X2.5213Y0.7161
X2.5252Y-0.1354
X2.5287Y0.3331
X2.5299Y-0.0571
X2.5374Y0.5209
X2.5488Y0.5579
X2.5547Y-0.1354
X2.5551Y0.3346
X2.5551Y0.1934
X2.5567Y-0.0567
X2.5587Y0.2756
X2.5669Y0.8031
X2.567Y0.5209
X2.5689Y0.7799
X2.5742Y1.0755
X2.5742Y1.046
X2.5742Y1.0165
X2.5742Y0.987
X2.5742Y0.9574
X2.5742Y0.9279
X2.5742Y0.8984
X2.5742Y0.8688
X2.5742Y0.8393
X2.5743Y-0.0354
X2.5744Y-0.0118
X2.5748Y0.0118
X2.5787Y0.3346
X2.5787Y0.1934
X2.5823Y0.7161
X2.5827Y0.6764
X2.5843Y-0.1354
X2.5913Y1.1062
X2.6087Y0.1594
X2.6094Y0.9894
X2.6118Y0.6732
X2.6122Y0.7785
X2.6134Y0.5579
X2.6138Y-0.1354
X2.6142Y0.087
X2.6208Y1.1062
X2.626Y0.2795
X2.6314Y0.5298
X2.6327Y0.6992
X2.6366Y0.1594
X2.6378Y0.0866
X2.6409Y-0.1332
X2.6503Y1.1062
X2.6551Y0.4791
X2.6575Y0.2913
X2.6591Y0.3563
X2.6637Y0.9862
X2.6646Y0.4217
X2.6732Y0.602
X2.6763Y-0.1361
X2.6799Y1.1062
X2.6882Y0.3835
X2.6909Y0.2795
X2.6921Y0.9343
X2.6953Y0.7228
X2.6988Y0.6348
X2.7094Y1.1062
X2.7101Y-0.1369
X2.7209Y0.9874
X2.7236Y0.1768
X2.7244Y0.526
X2.7247Y0.5575
X2.7252Y0.4949
X2.7333Y0.3258
X2.7335Y0.7248
X2.7389Y1.1062
X2.7414Y-0.1377
X2.7425Y0.0024
X2.752Y0.2874
X2.7559Y0.378
X2.7566Y0.5565
X2.7569Y0.6343
X2.7579Y0.178
X2.7602Y0.4945
X2.7603Y0.5243
X2.7684Y1.1062
X2.7756Y0.9894
X2.7771Y-0.1373
X2.7776Y0.6624
X2.7795Y0.378
X2.7815Y0.6319
X2.7831Y0.1783
X2.7898Y0.1429
X2.7917Y0.7244
X2.7943Y0.543
X2.798Y1.1062
X2.7984Y0.4937
X2.8004Y0.5165
X2.8045Y-0.1373
X2.8154Y0.0024
X2.8161Y0.724
X2.8161Y0.3823
X2.8232Y0.765
X2.826Y0.4056
X2.8275Y1.1062
X2.8295Y0.8382
X2.8307Y0.4921
X2.8331Y0.9862
X2.8331Y-0.1374
X2.835Y0.6201
X2.8398Y0.3886
X2.8524Y0.2346
X2.8535Y0.3717
X2.8543Y0.0681
X2.8543Y0.4921
X2.8551Y0.7882
X2.857Y1.1062
X2.861Y0.8685
X2.8614Y0.1217
X2.8618Y0.1488
X2.8626Y-0.1374
X2.8689Y0.0992
X2.8788Y0.5578
X2.8819Y0.3346
X2.8819Y0.2598
X2.8865Y1.1062
X2.889Y0.9846
X2.8898Y0.7433
X2.8902Y0.7232
X2.8906Y0.765
X2.8921Y-0.1374
X2.8933Y0.6476
X2.9004Y-0.0031
X2.9118Y0.7898
X2.915Y-0.0327
X2.9161Y1.1062
X2.9173Y0.4252
X2.9213Y0.2165
X2.9217Y-0.1374
X2.9252Y0.3346
X2.9331Y0.252
X2.9456Y1.1062
X2.9465Y0.1748
X2.949Y0.5067
X2.9512Y-0.1374
X2.9516Y0.7008
X2.9567Y0.7358
X2.9569Y0.4836
X2.9571Y0.588
X2.9606Y0.3307
X2.9646Y0.2992
X2.9724Y0.2126
X2.9751Y1.1062
X2.9793Y0.6535
X2.9793Y0.6161
X2.9795Y0.5878
X2.9807Y-0.1374
X2.9882Y0.3307
X2.9893Y0.9268
X2.9893Y0.8972
X2.9929Y0.0469
X2.9969Y0.7087
X2.9988Y0.1579
X2.9992Y0.1138
X3.0016Y0.5882
X3.0047Y1.1062
X3.0079Y0.2598
X3.0079Y-0.0752
X3.0087Y0.5283
X3.0102Y-0.1374
X3.0148Y0.6161
X3.015Y0.6862
X3.0188Y0.9268
X3.0188Y0.8972
X3.0228Y0.5886
X3.0276Y0.315
X3.0331Y-0.0205
X3.0342Y1.1062
X3.0398Y-0.1374
X3.0433Y0.1457
X3.0512Y1.0831
X3.0591Y0.2126
X3.0614Y-0.0173
X3.0689Y0.4514
X3.0693Y-0.1374
X3.0693Y0.5413
X3.0701Y0.6579
X3.0709Y1.0618
X3.0709Y0.6307
X3.0717Y0.4244
X3.0748Y0.1142
X3.0762Y0.8553
X3.0762Y0.8258
X3.078Y0.9333
X3.078Y0.9038
X3.0807Y0.0815
X3.0844Y0.5059
X3.0894Y1.0378
X3.0896Y0.5374
X3.0898Y0.6035
X3.0917Y-0.0752
X3.0921Y-0.1004
X3.0941Y0.4244
X3.0955Y-0.0163
X3.0984Y0.2441
X3.0984Y0.1732
X3.0988Y-0.1374
X3.1057Y0.8553
X3.1057Y0.8258
X3.1075Y0.9333
X3.1075Y0.9038
X3.1094Y1.0134
X3.1138Y0.3346
X3.1142Y0.0831
X3.1157Y0.5961
X3.1162Y0.5364
X3.1205Y0.472
X3.1209Y0.4047
X3.1213Y0.3567
X3.124Y0.4437
X3.126Y0.2244
X3.1272Y0.1441
X3.1273Y0.1993
X3.1283Y0.9921
X3.1283Y-0.1374
X3.1354Y0.3114
X3.1358Y0.3331
X3.1407Y0.531
X3.1417Y0.5949
X3.1476Y0.972
X3.1512Y0.5028
X3.1535Y0.6146
X3.1559Y-0.0163
X3.1579Y-0.1374
X3.1614Y0.0827
X3.1673Y0.8559
X3.1673Y0.8264
X3.1689Y0.9465
X3.1732Y0.5925
X3.1768Y0.5028
X3.1874Y-0.1374
X3.1878Y0.9291
X3.1878Y0.6724
X3.1968Y0.8559
X3.1968Y0.8264
X3.2016Y0.0787
X3.202Y0.9132
X3.2043Y0.5008
X3.2173Y0.6724
X3.2193Y0.8984
X3.2244Y0.1378
X3.2278Y-0.1363
X3.2307Y-0.0307
X3.2354Y0.4992
X3.2394Y0.8795
X3.2441Y0.0827
X3.2457Y0.6736
X3.2584Y0.7669
X3.2587Y0.8575
X3.2642Y0.5909
X3.2654Y0.4988
X3.2787Y0.8335
X3.2807Y0.7142
X3.2835Y0.1378
X3.2866Y0.6803
X3.2886Y0.7594
X3.2988Y0.8124
X3.2992Y0.7764
X3.3012Y0.4972
X3.3031Y0.0827
X3.3152Y0.5997
X3.3201Y0.786
X3.322Y0.7492
X3.3239Y-0.1387
X3.3268Y0.465
X3.3392Y0.5983
X3.3402Y0.521
X3.3413Y0.7618
X3.3435Y0.722
X3.3543Y0.0835
X3.3556Y-0.1391
X3.3591Y0.7406
X3.365Y0.5197
X3.3669Y0.6972
X3.3701Y0.2323
X3.3701Y0.2008
X3.3736Y0.313
X3.374Y0.4134
X3.374Y0.378
X3.376Y0.1713
X3.3764Y0.1457
X3.378Y0.4803
X3.3791Y0.2543
X3.3807Y0.715
X3.389Y0.6055
X3.3898Y0.2165
X3.3906Y0.6315
X3.3909Y0.6642
X3.3937Y0.5039
X3.3937Y0.3937
X3.4016Y0.6909
X3.4055Y0.0827
X3.4063Y0.2571
X3.4083Y0.3114
X3.4134Y0.1457
X3.4154Y0.4823
X3.4154Y0.4528
X3.4169Y0.6055
X3.4213Y0.6665
X3.424Y0.4233
X3.4331Y0.189
X3.4417Y0.6425
X3.4421Y0.6059
X3.4449Y0.4823
X3.4449Y0.4528
X3.4488Y0.315
X3.4488Y0.1457
X3.4528Y0.0827
X3.4567Y0.5594
X3.4569Y-0.1353
X3.4591Y0.6213
X3.4638Y0.5823
X3.4646Y0.5118
X3.4654Y0.3472
X3.4673Y-0.0228
X3.4685Y0.4213
X3.478Y0.5988
X3.4803Y0.5594
X3.4811Y0.187
X3.4862Y0.4823
X3.4862Y0.4528
X3.4865Y-0.1353
X3.489Y0.2406
X3.4921Y0.3484
X3.4976Y0.5752
X3.5Y0.0984
X3.5012Y0.1484
X3.5039Y0.5118
X3.5118Y0.4213
X3.5157Y0.4823
X3.5157Y0.4528
X3.516Y-0.1353
X3.5197Y0.122
X3.5273Y0.2657
X3.5441Y0.3437
X3.5455Y-0.1353
X3.5492Y0.4508
X3.5492Y0.4213
X3.5512Y0.1063
X3.5717Y0.028
X3.5751Y-0.1353
X3.5787Y0.4508
X3.5787Y0.4213
X3.5854Y0.3445
X3.5866Y0.311
X3.5906Y0.1693
X3.5965Y0.126
X3.5965Y0.1031
X3.6046Y-0.1353
X3.6181Y0.1693
X3.6197Y0.3449
X3.6201Y0.0075
X3.6341Y-0.1353
X3.6382Y0.1268
X3.6449Y0.3679
X3.6636Y-0.1353
X3.6689Y0.1102
X3.6693Y0.0866
X3.6799Y0.2654
X3.685Y0.337
X3.6902Y0.074
X3.6932Y-0.1353
X3.7079Y0.2031
X3.7106Y0.0398
X3.7106Y0.0102
X3.7154Y0.4055
X3.7162Y0.2279
X3.7173Y0.0728
X3.7185Y0.3606
X3.7201Y0.2811
X3.7227Y-0.1353
X3.7402Y0.0398
X3.7402Y0.0102
X3.7522Y-0.1353
X3.7534Y0.0725
X3.7811Y0.2496
X3.7817Y-0.1353
X3.7823Y0.3701
X3.7826Y0.3134
X3.7835Y0.4323
X3.7839Y0.2126
X3.7874Y0.1508
X3.7913Y0.072
X3.8113Y-0.1353
X3.8134Y0.4323
X3.8165Y0.15
X3.8165Y0.1217
X3.8201Y0.4654
X3.8252Y0.1933
X3.8284Y-0.0324
X3.8284Y-0.062
X3.8311Y0.072
X3.8378Y0.2295
X3.8398Y0.3882
X3.8413Y0.2987
X3.8441Y0.2642
X3.8445Y0.0972
X3.8457Y0.4311
X3.8461Y-0.1327
X3.8469Y0.3437
X3.8521Y0.1524
X3.8579Y-0.0324
X3.8579Y-0.062
X3.8752Y0.072
X3.8772Y0.4303
X3.8798Y0.1767
X3.8799Y-0.1189
X3.8807Y0.3626
X3.8878Y0.3063
X3.8898Y0.2472
X3.8933Y0.2114
X3.8957Y0.0442
X3.9071Y-0.0972
X3.9087Y0.4303
X3.922Y0.0709
X3.924Y0.4004
X3.924Y0.3709
X3.924Y0.3413
X3.924Y0.3118
X3.924Y0.2823
X3.924Y0.2528
X3.924Y0.2232
X3.924Y0.1937
X3.924Y0.1642
X3.9272Y-0.0555
X3.9305Y-0.0186
X3.9309Y0.0258
T2
X3.5893Y0.4835
T3
G00X3.78Y0.4669
M15
G01X3.7387Y0.4669
M16
G05
G00X3.78Y0.1165
M15
G01X3.7387Y0.1165
M16
G05
G00X3.91Y0.4669
M15
G01X3.8607Y0.4669
M16
G05
G00X3.91Y0.1165
M15
G01X3.8607Y0.1165
M16
G05
M30
