M48
; DRILL file {KiCad 9.0.3} date 2025-08-30T17:40:13+0530
; FORMAT={-:-/ absolute / metric / decimal}
; #@! TF.CreationDate,2025-08-30T17:40:13+05:30
; #@! TF.GenerationSoftware,Kicad,Pcbnew,9.0.3
; #@! TF.FileFunction,NonPlated,1,2,NPTH
FMAT,2
METRIC
; #@! TA.AperFunction,NonPlated,NPTH,ComponentDrill
T1C0.650
; #@! TA.AperFunction,NonPlated,NPTH,ComponentDrill
T2C1.500
%
G90
G05
T1
X89.85Y-28.3
X89.85Y-34.6
X89.85Y-40.9
X89.85Y-47.2
X89.85Y-53.5
X89.85Y-59.8
X89.85Y-66.1
X89.85Y-72.4
X89.85Y-78.7
X89.85Y-85.0
X97.35Y-26.7
X97.35Y-33.0
X97.35Y-39.3
X97.35Y-45.6
X97.35Y-51.9
X97.35Y-58.2
X97.35Y-64.5
X97.35Y-70.8
X97.35Y-77.1
X97.35Y-83.4
X102.05Y-28.3
X102.05Y-34.6
X102.05Y-40.9
X102.05Y-47.2
X102.05Y-53.5
X102.05Y-59.8
X102.05Y-66.1
X102.05Y-72.4
X102.05Y-78.7
X102.05Y-85.0
X109.55Y-26.7
X109.55Y-33.0
X109.55Y-39.3
X109.55Y-45.6
X109.55Y-51.9
X109.55Y-58.2
X109.55Y-64.5
X109.55Y-70.8
X109.55Y-77.1
X109.55Y-83.4
X114.25Y-28.3
X114.25Y-34.6
X114.25Y-40.9
X114.25Y-47.2
X114.25Y-53.5
X114.25Y-59.8
X114.25Y-66.1
X114.25Y-72.4
X114.25Y-78.7
X114.25Y-85.0
X121.75Y-26.7
X121.75Y-33.0
X121.75Y-39.3
X121.75Y-45.6
X121.75Y-51.9
X121.75Y-58.2
X121.75Y-64.5
X121.75Y-70.8
X121.75Y-77.1
X121.75Y-83.4
X126.45Y-28.3
X126.45Y-34.6
X126.45Y-40.9
X126.45Y-47.2
X126.45Y-53.5
X126.45Y-59.8
X126.45Y-66.1
X126.45Y-72.4
X126.45Y-78.7
X126.45Y-85.0
X133.95Y-26.7
X133.95Y-33.0
X133.95Y-39.3
X133.95Y-45.6
X133.95Y-51.9
X133.95Y-58.2
X133.95Y-64.5
X133.95Y-70.8
X133.95Y-77.1
X133.95Y-83.4
X138.65Y-28.3
X138.65Y-34.6
X138.65Y-40.9
X138.65Y-47.2
X138.65Y-53.5
X138.65Y-59.8
X138.65Y-66.1
X138.65Y-72.4
X138.65Y-78.7
X138.65Y-85.0
X146.15Y-26.7
X146.15Y-33.0
X146.15Y-39.3
X146.15Y-45.6
X146.15Y-51.9
X146.15Y-58.2
X146.15Y-64.5
X146.15Y-70.8
X146.15Y-77.1
X146.15Y-83.4
X150.85Y-28.3
X150.85Y-34.6
X150.85Y-40.9
X150.85Y-47.2
X150.85Y-53.5
X150.85Y-59.8
X150.85Y-66.1
X150.85Y-72.4
X150.85Y-78.7
X150.85Y-85.0
X158.35Y-26.7
X158.35Y-33.0
X158.35Y-39.3
X158.35Y-45.6
X158.35Y-51.9
X158.35Y-58.2
X158.35Y-64.5
X158.35Y-70.8
X158.35Y-77.1
X158.35Y-83.4
X163.05Y-28.3
X163.05Y-34.6
X163.05Y-40.9
X163.05Y-47.2
X163.05Y-53.5
X163.05Y-59.8
X163.05Y-66.1
X163.05Y-72.4
X163.05Y-78.7
X163.05Y-85.0
X170.55Y-26.7
X170.55Y-33.0
X170.55Y-39.3
X170.55Y-45.6
X170.55Y-51.9
X170.55Y-58.2
X170.55Y-64.5
X170.55Y-70.8
X170.55Y-77.1
X170.55Y-83.4
X175.25Y-28.3
X175.25Y-34.6
X175.25Y-40.9
X175.25Y-47.2
X175.25Y-53.5
X175.25Y-59.8
X175.25Y-66.1
X175.25Y-72.4
X175.25Y-78.7
X175.25Y-85.0
X182.75Y-26.7
X182.75Y-33.0
X182.75Y-39.3
X182.75Y-45.6
X182.75Y-51.9
X182.75Y-58.2
X182.75Y-64.5
X182.75Y-70.8
X182.75Y-77.1
X182.75Y-83.4
X187.45Y-28.3
X187.45Y-34.6
X187.45Y-40.9
X187.45Y-47.2
X187.45Y-53.5
X187.45Y-59.8
X187.45Y-66.1
X187.45Y-72.4
X187.45Y-78.7
X187.45Y-85.0
X194.95Y-26.7
X194.95Y-33.0
X194.95Y-39.3
X194.95Y-45.6
X194.95Y-51.9
X194.95Y-58.2
X194.95Y-64.5
X194.95Y-70.8
X194.95Y-77.1
X194.95Y-83.4
X199.65Y-28.3
X199.65Y-34.6
X199.65Y-40.9
X199.65Y-47.2
X199.65Y-53.5
X199.65Y-59.8
X199.65Y-66.1
X199.65Y-72.4
X199.65Y-78.7
X199.65Y-85.0
X207.15Y-26.7
X207.15Y-33.0
X207.15Y-39.3
X207.15Y-45.6
X207.15Y-51.9
X207.15Y-58.2
X207.15Y-64.5
X207.15Y-70.8
X207.15Y-77.1
X207.15Y-83.4
T2
X91.4Y-21.5
X91.4Y-87.7
X205.6Y-21.5
X205.6Y-87.7
M30
