M48
; DRILL file {KiCad 9.0.3} date 2025-08-30T17:40:13+0530
; FORMAT={-:-/ absolute / metric / decimal}
; #@! TF.CreationDate,2025-08-30T17:40:13+05:30
; #@! TF.GenerationSoftware,Kicad,Pcbnew,9.0.3
; #@! TF.FileFunction,Plated,1,2,PTH
FMAT,2
METRIC
; #@! TA.AperFunction,Plated,PTH,ViaDrill
T1C0.300
; #@! TA.AperFunction,Plated,PTH,ComponentDrill
T2C0.600
%
G90
G05
T1
X88.0Y-24.25
X88.0Y-25.5
X88.0Y-30.55
X88.0Y-31.8
X88.0Y-36.85
X88.0Y-38.1
X88.0Y-43.15
X88.0Y-44.4
X88.0Y-49.45
X88.0Y-50.7
X88.0Y-55.75
X88.0Y-57.0
X88.0Y-62.05
X88.0Y-63.3
X88.0Y-68.35
X88.0Y-69.6
X88.0Y-74.65
X88.0Y-75.9
X88.0Y-80.95
X88.0Y-82.2
X88.35Y-26.75
X88.35Y-33.05
X88.35Y-39.35
X88.35Y-45.65
X88.35Y-51.95
X88.35Y-58.25
X88.35Y-64.55
X88.35Y-70.85
X88.35Y-77.15
X88.35Y-83.45
X88.55Y-23.55
X88.55Y-29.85
X88.55Y-36.15
X88.55Y-42.45
X88.55Y-48.75
X88.55Y-55.05
X88.55Y-61.35
X88.55Y-67.65
X88.55Y-73.95
X88.55Y-80.25
X88.8Y-28.85
X88.8Y-35.15
X88.8Y-41.45
X88.8Y-47.75
X88.8Y-54.05
X88.8Y-60.35
X88.8Y-66.65
X88.8Y-72.95
X88.8Y-79.25
X88.8Y-85.55
X88.85Y-26.2
X88.85Y-32.5
X88.85Y-38.8
X88.85Y-45.1
X88.85Y-51.4
X88.85Y-57.7
X88.85Y-64.0
X88.85Y-70.3
X88.85Y-76.6
X88.85Y-82.9
X89.75Y-25.95
X89.75Y-32.25
X89.75Y-38.55
X89.75Y-44.85
X89.75Y-51.15
X89.75Y-57.45
X89.75Y-63.75
X89.75Y-70.05
X89.75Y-76.35
X89.75Y-82.65
X91.85Y-27.55
X91.85Y-33.85
X91.85Y-40.15
X91.85Y-46.45
X91.85Y-52.75
X91.85Y-59.05
X91.85Y-65.35
X91.85Y-71.65
X91.85Y-77.95
X91.85Y-84.25
X92.85Y-25.5
X92.85Y-27.5
X92.85Y-31.8
X92.85Y-33.8
X92.85Y-38.1
X92.85Y-40.1
X92.85Y-44.4
X92.85Y-46.4
X92.85Y-50.7
X92.85Y-52.7
X92.85Y-57.0
X92.85Y-59.0
X92.85Y-63.3
X92.85Y-65.3
X92.85Y-69.6
X92.85Y-71.6
X92.85Y-75.9
X92.85Y-77.9
X92.85Y-82.2
X92.85Y-84.2
X93.6Y-25.5
X93.6Y-31.8
X93.6Y-38.1
X93.6Y-44.4
X93.6Y-50.7
X93.6Y-57.0
X93.6Y-63.3
X93.6Y-69.6
X93.6Y-75.9
X93.6Y-82.2
X94.7Y-25.49
X94.7Y-31.79
X94.7Y-38.09
X94.7Y-44.39
X94.7Y-50.69
X94.7Y-56.99
X94.7Y-63.29
X94.7Y-69.59
X94.7Y-75.89
X94.7Y-82.19
X96.75Y-25.6
X96.75Y-31.9
X96.75Y-38.2
X96.75Y-44.5
X96.75Y-50.8
X96.75Y-57.1
X96.75Y-63.4
X96.75Y-69.7
X96.75Y-76.0
X96.75Y-82.3
X97.35Y-28.95
X97.35Y-35.25
X97.35Y-41.55
X97.35Y-47.85
X97.35Y-54.15
X97.35Y-60.45
X97.35Y-66.75
X97.35Y-73.05
X97.35Y-79.35
X97.35Y-85.65
X97.85Y-25.9
X97.85Y-32.2
X97.85Y-38.5
X97.85Y-44.8
X97.85Y-51.1
X97.85Y-57.4
X97.85Y-63.7
X97.85Y-70.0
X97.85Y-76.3
X97.85Y-82.6
X99.1Y-23.65
X99.1Y-29.95
X99.1Y-36.25
X99.1Y-42.55
X99.1Y-48.85
X99.1Y-55.15
X99.1Y-61.45
X99.1Y-67.75
X99.1Y-74.05
X99.1Y-80.35
X99.15Y-25.65
X99.15Y-26.65
X99.15Y-31.95
X99.15Y-32.95
X99.15Y-38.25
X99.15Y-39.25
X99.15Y-44.55
X99.15Y-45.55
X99.15Y-50.85
X99.15Y-51.85
X99.15Y-57.15
X99.15Y-58.15
X99.15Y-63.45
X99.15Y-64.45
X99.15Y-69.75
X99.15Y-70.75
X99.15Y-76.05
X99.15Y-77.05
X99.15Y-82.35
X99.15Y-83.35
X99.2Y-24.6
X99.2Y-27.65
X99.2Y-28.5
X99.2Y-30.9
X99.2Y-33.95
X99.2Y-34.8
X99.2Y-37.2
X99.2Y-40.25
X99.2Y-41.1
X99.2Y-43.5
X99.2Y-46.55
X99.2Y-47.4
X99.2Y-49.8
X99.2Y-52.85
X99.2Y-53.7
X99.2Y-56.1
X99.2Y-59.15
X99.2Y-60.0
X99.2Y-62.4
X99.2Y-65.45
X99.2Y-66.3
X99.2Y-68.7
X99.2Y-71.75
X99.2Y-72.6
X99.2Y-75.0
X99.2Y-78.05
X99.2Y-78.9
X99.2Y-81.3
X99.2Y-84.35
X99.2Y-85.2
X100.2Y-24.25
X100.2Y-25.5
X100.2Y-30.55
X100.2Y-31.8
X100.2Y-36.85
X100.2Y-38.1
X100.2Y-43.15
X100.2Y-44.4
X100.2Y-49.45
X100.2Y-50.7
X100.2Y-55.75
X100.2Y-57.0
X100.2Y-62.05
X100.2Y-63.3
X100.2Y-68.35
X100.2Y-69.6
X100.2Y-74.65
X100.2Y-75.9
X100.2Y-80.95
X100.2Y-82.2
X100.55Y-26.75
X100.55Y-33.05
X100.55Y-39.35
X100.55Y-45.65
X100.55Y-51.95
X100.55Y-58.25
X100.55Y-64.55
X100.55Y-70.85
X100.55Y-77.15
X100.55Y-83.45
X100.75Y-23.55
X100.75Y-29.85
X100.75Y-36.15
X100.75Y-42.45
X100.75Y-48.75
X100.75Y-55.05
X100.75Y-61.35
X100.75Y-67.65
X100.75Y-73.95
X100.75Y-80.25
X101.0Y-28.85
X101.0Y-35.15
X101.0Y-41.45
X101.0Y-47.75
X101.0Y-54.05
X101.0Y-60.35
X101.0Y-66.65
X101.0Y-72.95
X101.0Y-79.25
X101.0Y-85.55
X101.05Y-26.2
X101.05Y-32.5
X101.05Y-38.8
X101.05Y-45.1
X101.05Y-51.4
X101.05Y-57.7
X101.05Y-64.0
X101.05Y-70.3
X101.05Y-76.6
X101.05Y-82.9
X101.95Y-25.95
X101.95Y-32.25
X101.95Y-38.55
X101.95Y-44.85
X101.95Y-51.15
X101.95Y-57.45
X101.95Y-63.75
X101.95Y-70.05
X101.95Y-76.35
X101.95Y-82.65
X104.05Y-27.55
X104.05Y-33.85
X104.05Y-40.15
X104.05Y-46.45
X104.05Y-52.75
X104.05Y-59.05
X104.05Y-65.35
X104.05Y-71.65
X104.05Y-77.95
X104.05Y-84.25
X105.05Y-25.5
X105.05Y-27.5
X105.05Y-31.8
X105.05Y-33.8
X105.05Y-38.1
X105.05Y-40.1
X105.05Y-44.4
X105.05Y-46.4
X105.05Y-50.7
X105.05Y-52.7
X105.05Y-57.0
X105.05Y-59.0
X105.05Y-63.3
X105.05Y-65.3
X105.05Y-69.6
X105.05Y-71.6
X105.05Y-75.9
X105.05Y-77.9
X105.05Y-82.2
X105.05Y-84.2
X105.8Y-25.5
X105.8Y-31.8
X105.8Y-38.1
X105.8Y-44.4
X105.8Y-50.7
X105.8Y-57.0
X105.8Y-63.3
X105.8Y-69.6
X105.8Y-75.9
X105.8Y-82.2
X106.9Y-25.49
X106.9Y-31.79
X106.9Y-38.09
X106.9Y-44.39
X106.9Y-50.69
X106.9Y-56.99
X106.9Y-63.29
X106.9Y-69.59
X106.9Y-75.89
X106.9Y-82.19
X108.95Y-25.6
X108.95Y-31.9
X108.95Y-38.2
X108.95Y-44.5
X108.95Y-50.8
X108.95Y-57.1
X108.95Y-63.4
X108.95Y-69.7
X108.95Y-76.0
X108.95Y-82.3
X109.55Y-28.95
X109.55Y-35.25
X109.55Y-41.55
X109.55Y-47.85
X109.55Y-54.15
X109.55Y-60.45
X109.55Y-66.75
X109.55Y-73.05
X109.55Y-79.35
X109.55Y-85.65
X110.05Y-25.9
X110.05Y-32.2
X110.05Y-38.5
X110.05Y-44.8
X110.05Y-51.1
X110.05Y-57.4
X110.05Y-63.7
X110.05Y-70.0
X110.05Y-76.3
X110.05Y-82.6
X111.3Y-23.65
X111.3Y-29.95
X111.3Y-36.25
X111.3Y-42.55
X111.3Y-48.85
X111.3Y-55.15
X111.3Y-61.45
X111.3Y-67.75
X111.3Y-74.05
X111.3Y-80.35
X111.35Y-25.65
X111.35Y-26.65
X111.35Y-31.95
X111.35Y-32.95
X111.35Y-38.25
X111.35Y-39.25
X111.35Y-44.55
X111.35Y-45.55
X111.35Y-50.85
X111.35Y-51.85
X111.35Y-57.15
X111.35Y-58.15
X111.35Y-63.45
X111.35Y-64.45
X111.35Y-69.75
X111.35Y-70.75
X111.35Y-76.05
X111.35Y-77.05
X111.35Y-82.35
X111.35Y-83.35
X111.4Y-24.6
X111.4Y-27.65
X111.4Y-28.5
X111.4Y-30.9
X111.4Y-33.95
X111.4Y-34.8
X111.4Y-37.2
X111.4Y-40.25
X111.4Y-41.1
X111.4Y-43.5
X111.4Y-46.55
X111.4Y-47.4
X111.4Y-49.8
X111.4Y-52.85
X111.4Y-53.7
X111.4Y-56.1
X111.4Y-59.15
X111.4Y-60.0
X111.4Y-62.4
X111.4Y-65.45
X111.4Y-66.3
X111.4Y-68.7
X111.4Y-71.75
X111.4Y-72.6
X111.4Y-75.0
X111.4Y-78.05
X111.4Y-78.9
X111.4Y-81.3
X111.4Y-84.35
X111.4Y-85.2
X112.4Y-24.25
X112.4Y-25.5
X112.4Y-30.55
X112.4Y-31.8
X112.4Y-36.85
X112.4Y-38.1
X112.4Y-43.15
X112.4Y-44.4
X112.4Y-49.45
X112.4Y-50.7
X112.4Y-55.75
X112.4Y-57.0
X112.4Y-62.05
X112.4Y-63.3
X112.4Y-68.35
X112.4Y-69.6
X112.4Y-74.65
X112.4Y-75.9
X112.4Y-80.95
X112.4Y-82.2
X112.75Y-26.75
X112.75Y-33.05
X112.75Y-39.35
X112.75Y-45.65
X112.75Y-51.95
X112.75Y-58.25
X112.75Y-64.55
X112.75Y-70.85
X112.75Y-77.15
X112.75Y-83.45
X112.95Y-23.55
X112.95Y-29.85
X112.95Y-36.15
X112.95Y-42.45
X112.95Y-48.75
X112.95Y-55.05
X112.95Y-61.35
X112.95Y-67.65
X112.95Y-73.95
X112.95Y-80.25
X113.2Y-28.85
X113.2Y-35.15
X113.2Y-41.45
X113.2Y-47.75
X113.2Y-54.05
X113.2Y-60.35
X113.2Y-66.65
X113.2Y-72.95
X113.2Y-79.25
X113.2Y-85.55
X113.25Y-26.2
X113.25Y-32.5
X113.25Y-38.8
X113.25Y-45.1
X113.25Y-51.4
X113.25Y-57.7
X113.25Y-64.0
X113.25Y-70.3
X113.25Y-76.6
X113.25Y-82.9
X114.15Y-25.95
X114.15Y-32.25
X114.15Y-38.55
X114.15Y-44.85
X114.15Y-51.15
X114.15Y-57.45
X114.15Y-63.75
X114.15Y-70.05
X114.15Y-76.35
X114.15Y-82.65
X116.25Y-27.55
X116.25Y-33.85
X116.25Y-40.15
X116.25Y-46.45
X116.25Y-52.75
X116.25Y-59.05
X116.25Y-65.35
X116.25Y-71.65
X116.25Y-77.95
X116.25Y-84.25
X117.25Y-25.5
X117.25Y-27.5
X117.25Y-31.8
X117.25Y-33.8
X117.25Y-38.1
X117.25Y-40.1
X117.25Y-44.4
X117.25Y-46.4
X117.25Y-50.7
X117.25Y-52.7
X117.25Y-57.0
X117.25Y-59.0
X117.25Y-63.3
X117.25Y-65.3
X117.25Y-69.6
X117.25Y-71.6
X117.25Y-75.9
X117.25Y-77.9
X117.25Y-82.2
X117.25Y-84.2
X118.0Y-25.5
X118.0Y-31.8
X118.0Y-38.1
X118.0Y-44.4
X118.0Y-50.7
X118.0Y-57.0
X118.0Y-63.3
X118.0Y-69.6
X118.0Y-75.9
X118.0Y-82.2
X119.1Y-25.49
X119.1Y-31.79
X119.1Y-38.09
X119.1Y-44.39
X119.1Y-50.69
X119.1Y-56.99
X119.1Y-63.29
X119.1Y-69.59
X119.1Y-75.89
X119.1Y-82.19
X121.15Y-25.6
X121.15Y-31.9
X121.15Y-38.2
X121.15Y-44.5
X121.15Y-50.8
X121.15Y-57.1
X121.15Y-63.4
X121.15Y-69.7
X121.15Y-76.0
X121.15Y-82.3
X121.75Y-28.95
X121.75Y-35.25
X121.75Y-41.55
X121.75Y-47.85
X121.75Y-54.15
X121.75Y-60.45
X121.75Y-66.75
X121.75Y-73.05
X121.75Y-79.35
X121.75Y-85.65
X122.25Y-25.9
X122.25Y-32.2
X122.25Y-38.5
X122.25Y-44.8
X122.25Y-51.1
X122.25Y-57.4
X122.25Y-63.7
X122.25Y-70.0
X122.25Y-76.3
X122.25Y-82.6
X123.5Y-23.65
X123.5Y-29.95
X123.5Y-36.25
X123.5Y-42.55
X123.5Y-48.85
X123.5Y-55.15
X123.5Y-61.45
X123.5Y-67.75
X123.5Y-74.05
X123.5Y-80.35
X123.55Y-25.65
X123.55Y-26.65
X123.55Y-31.95
X123.55Y-32.95
X123.55Y-38.25
X123.55Y-39.25
X123.55Y-44.55
X123.55Y-45.55
X123.55Y-50.85
X123.55Y-51.85
X123.55Y-57.15
X123.55Y-58.15
X123.55Y-63.45
X123.55Y-64.45
X123.55Y-69.75
X123.55Y-70.75
X123.55Y-76.05
X123.55Y-77.05
X123.55Y-82.35
X123.55Y-83.35
X123.6Y-24.6
X123.6Y-27.65
X123.6Y-28.5
X123.6Y-30.9
X123.6Y-33.95
X123.6Y-34.8
X123.6Y-37.2
X123.6Y-40.25
X123.6Y-41.1
X123.6Y-43.5
X123.6Y-46.55
X123.6Y-47.4
X123.6Y-49.8
X123.6Y-52.85
X123.6Y-53.7
X123.6Y-56.1
X123.6Y-59.15
X123.6Y-60.0
X123.6Y-62.4
X123.6Y-65.45
X123.6Y-66.3
X123.6Y-68.7
X123.6Y-71.75
X123.6Y-72.6
X123.6Y-75.0
X123.6Y-78.05
X123.6Y-78.9
X123.6Y-81.3
X123.6Y-84.35
X123.6Y-85.2
X124.6Y-24.25
X124.6Y-25.5
X124.6Y-30.55
X124.6Y-31.8
X124.6Y-36.85
X124.6Y-38.1
X124.6Y-43.15
X124.6Y-44.4
X124.6Y-49.45
X124.6Y-50.7
X124.6Y-55.75
X124.6Y-57.0
X124.6Y-62.05
X124.6Y-63.3
X124.6Y-68.35
X124.6Y-69.6
X124.6Y-74.65
X124.6Y-75.9
X124.6Y-80.95
X124.6Y-82.2
X124.95Y-26.75
X124.95Y-33.05
X124.95Y-39.35
X124.95Y-45.65
X124.95Y-51.95
X124.95Y-58.25
X124.95Y-64.55
X124.95Y-70.85
X124.95Y-77.15
X124.95Y-83.45
X125.15Y-23.55
X125.15Y-29.85
X125.15Y-36.15
X125.15Y-42.45
X125.15Y-48.75
X125.15Y-55.05
X125.15Y-61.35
X125.15Y-67.65
X125.15Y-73.95
X125.15Y-80.25
X125.4Y-28.85
X125.4Y-35.15
X125.4Y-41.45
X125.4Y-47.75
X125.4Y-54.05
X125.4Y-60.35
X125.4Y-66.65
X125.4Y-72.95
X125.4Y-79.25
X125.4Y-85.55
X125.45Y-26.2
X125.45Y-32.5
X125.45Y-38.8
X125.45Y-45.1
X125.45Y-51.4
X125.45Y-57.7
X125.45Y-64.0
X125.45Y-70.3
X125.45Y-76.6
X125.45Y-82.9
X126.35Y-25.95
X126.35Y-32.25
X126.35Y-38.55
X126.35Y-44.85
X126.35Y-51.15
X126.35Y-57.45
X126.35Y-63.75
X126.35Y-70.05
X126.35Y-76.35
X126.35Y-82.65
X128.45Y-27.55
X128.45Y-33.85
X128.45Y-40.15
X128.45Y-46.45
X128.45Y-52.75
X128.45Y-59.05
X128.45Y-65.35
X128.45Y-71.65
X128.45Y-77.95
X128.45Y-84.25
X129.45Y-25.5
X129.45Y-27.5
X129.45Y-31.8
X129.45Y-33.8
X129.45Y-38.1
X129.45Y-40.1
X129.45Y-44.4
X129.45Y-46.4
X129.45Y-50.7
X129.45Y-52.7
X129.45Y-57.0
X129.45Y-59.0
X129.45Y-63.3
X129.45Y-65.3
X129.45Y-69.6
X129.45Y-71.6
X129.45Y-75.9
X129.45Y-77.9
X129.45Y-82.2
X129.45Y-84.2
X130.2Y-25.5
X130.2Y-31.8
X130.2Y-38.1
X130.2Y-44.4
X130.2Y-50.7
X130.2Y-57.0
X130.2Y-63.3
X130.2Y-69.6
X130.2Y-75.9
X130.2Y-82.2
X131.3Y-25.49
X131.3Y-31.79
X131.3Y-38.09
X131.3Y-44.39
X131.3Y-50.69
X131.3Y-56.99
X131.3Y-63.29
X131.3Y-69.59
X131.3Y-75.89
X131.3Y-82.19
X133.35Y-25.6
X133.35Y-31.9
X133.35Y-38.2
X133.35Y-44.5
X133.35Y-50.8
X133.35Y-57.1
X133.35Y-63.4
X133.35Y-69.7
X133.35Y-76.0
X133.35Y-82.3
X133.95Y-28.95
X133.95Y-35.25
X133.95Y-41.55
X133.95Y-47.85
X133.95Y-54.15
X133.95Y-60.45
X133.95Y-66.75
X133.95Y-73.05
X133.95Y-79.35
X133.95Y-85.65
X134.45Y-25.9
X134.45Y-32.2
X134.45Y-38.5
X134.45Y-44.8
X134.45Y-51.1
X134.45Y-57.4
X134.45Y-63.7
X134.45Y-70.0
X134.45Y-76.3
X134.45Y-82.6
X135.7Y-23.65
X135.7Y-29.95
X135.7Y-36.25
X135.7Y-42.55
X135.7Y-48.85
X135.7Y-55.15
X135.7Y-61.45
X135.7Y-67.75
X135.7Y-74.05
X135.7Y-80.35
X135.75Y-25.65
X135.75Y-26.65
X135.75Y-31.95
X135.75Y-32.95
X135.75Y-38.25
X135.75Y-39.25
X135.75Y-44.55
X135.75Y-45.55
X135.75Y-50.85
X135.75Y-51.85
X135.75Y-57.15
X135.75Y-58.15
X135.75Y-63.45
X135.75Y-64.45
X135.75Y-69.75
X135.75Y-70.75
X135.75Y-76.05
X135.75Y-77.05
X135.75Y-82.35
X135.75Y-83.35
X135.8Y-24.6
X135.8Y-27.65
X135.8Y-28.5
X135.8Y-30.9
X135.8Y-33.95
X135.8Y-34.8
X135.8Y-37.2
X135.8Y-40.25
X135.8Y-41.1
X135.8Y-43.5
X135.8Y-46.55
X135.8Y-47.4
X135.8Y-49.8
X135.8Y-52.85
X135.8Y-53.7
X135.8Y-56.1
X135.8Y-59.15
X135.8Y-60.0
X135.8Y-62.4
X135.8Y-65.45
X135.8Y-66.3
X135.8Y-68.7
X135.8Y-71.75
X135.8Y-72.6
X135.8Y-75.0
X135.8Y-78.05
X135.8Y-78.9
X135.8Y-81.3
X135.8Y-84.35
X135.8Y-85.2
X136.8Y-24.25
X136.8Y-25.5
X136.8Y-30.55
X136.8Y-31.8
X136.8Y-36.85
X136.8Y-38.1
X136.8Y-43.15
X136.8Y-44.4
X136.8Y-49.45
X136.8Y-50.7
X136.8Y-55.75
X136.8Y-57.0
X136.8Y-62.05
X136.8Y-63.3
X136.8Y-68.35
X136.8Y-69.6
X136.8Y-74.65
X136.8Y-75.9
X136.8Y-80.95
X136.8Y-82.2
X137.15Y-26.75
X137.15Y-33.05
X137.15Y-39.35
X137.15Y-45.65
X137.15Y-51.95
X137.15Y-58.25
X137.15Y-64.55
X137.15Y-70.85
X137.15Y-77.15
X137.15Y-83.45
X137.35Y-23.55
X137.35Y-29.85
X137.35Y-36.15
X137.35Y-42.45
X137.35Y-48.75
X137.35Y-55.05
X137.35Y-61.35
X137.35Y-67.65
X137.35Y-73.95
X137.35Y-80.25
X137.6Y-28.85
X137.6Y-35.15
X137.6Y-41.45
X137.6Y-47.75
X137.6Y-54.05
X137.6Y-60.35
X137.6Y-66.65
X137.6Y-72.95
X137.6Y-79.25
X137.6Y-85.55
X137.65Y-26.2
X137.65Y-32.5
X137.65Y-38.8
X137.65Y-45.1
X137.65Y-51.4
X137.65Y-57.7
X137.65Y-64.0
X137.65Y-70.3
X137.65Y-76.6
X137.65Y-82.9
X138.55Y-25.95
X138.55Y-32.25
X138.55Y-38.55
X138.55Y-44.85
X138.55Y-51.15
X138.55Y-57.45
X138.55Y-63.75
X138.55Y-70.05
X138.55Y-76.35
X138.55Y-82.65
X140.65Y-27.55
X140.65Y-33.85
X140.65Y-40.15
X140.65Y-46.45
X140.65Y-52.75
X140.65Y-59.05
X140.65Y-65.35
X140.65Y-71.65
X140.65Y-77.95
X140.65Y-84.25
X141.65Y-25.5
X141.65Y-27.5
X141.65Y-31.8
X141.65Y-33.8
X141.65Y-38.1
X141.65Y-40.1
X141.65Y-44.4
X141.65Y-46.4
X141.65Y-50.7
X141.65Y-52.7
X141.65Y-57.0
X141.65Y-59.0
X141.65Y-63.3
X141.65Y-65.3
X141.65Y-69.6
X141.65Y-71.6
X141.65Y-75.9
X141.65Y-77.9
X141.65Y-82.2
X141.65Y-84.2
X142.4Y-25.5
X142.4Y-31.8
X142.4Y-38.1
X142.4Y-44.4
X142.4Y-50.7
X142.4Y-57.0
X142.4Y-63.3
X142.4Y-69.6
X142.4Y-75.9
X142.4Y-82.2
X143.5Y-25.49
X143.5Y-31.79
X143.5Y-38.09
X143.5Y-44.39
X143.5Y-50.69
X143.5Y-56.99
X143.5Y-63.29
X143.5Y-69.59
X143.5Y-75.89
X143.5Y-82.19
X145.55Y-25.6
X145.55Y-31.9
X145.55Y-38.2
X145.55Y-44.5
X145.55Y-50.8
X145.55Y-57.1
X145.55Y-63.4
X145.55Y-69.7
X145.55Y-76.0
X145.55Y-82.3
X146.15Y-28.95
X146.15Y-35.25
X146.15Y-41.55
X146.15Y-47.85
X146.15Y-54.15
X146.15Y-60.45
X146.15Y-66.75
X146.15Y-73.05
X146.15Y-79.35
X146.15Y-85.65
X146.65Y-25.9
X146.65Y-32.2
X146.65Y-38.5
X146.65Y-44.8
X146.65Y-51.1
X146.65Y-57.4
X146.65Y-63.7
X146.65Y-70.0
X146.65Y-76.3
X146.65Y-82.6
X147.9Y-23.65
X147.9Y-29.95
X147.9Y-36.25
X147.9Y-42.55
X147.9Y-48.85
X147.9Y-55.15
X147.9Y-61.45
X147.9Y-67.75
X147.9Y-74.05
X147.9Y-80.35
X147.95Y-25.65
X147.95Y-26.65
X147.95Y-31.95
X147.95Y-32.95
X147.95Y-38.25
X147.95Y-39.25
X147.95Y-44.55
X147.95Y-45.55
X147.95Y-50.85
X147.95Y-51.85
X147.95Y-57.15
X147.95Y-58.15
X147.95Y-63.45
X147.95Y-64.45
X147.95Y-69.75
X147.95Y-70.75
X147.95Y-76.05
X147.95Y-77.05
X147.95Y-82.35
X147.95Y-83.35
X148.0Y-24.6
X148.0Y-27.65
X148.0Y-28.5
X148.0Y-30.9
X148.0Y-33.95
X148.0Y-34.8
X148.0Y-37.2
X148.0Y-40.25
X148.0Y-41.1
X148.0Y-43.5
X148.0Y-46.55
X148.0Y-47.4
X148.0Y-49.8
X148.0Y-52.85
X148.0Y-53.7
X148.0Y-56.1
X148.0Y-59.15
X148.0Y-60.0
X148.0Y-62.4
X148.0Y-65.45
X148.0Y-66.3
X148.0Y-68.7
X148.0Y-71.75
X148.0Y-72.6
X148.0Y-75.0
X148.0Y-78.05
X148.0Y-78.9
X148.0Y-81.3
X148.0Y-84.35
X148.0Y-85.2
X149.0Y-24.25
X149.0Y-25.5
X149.0Y-30.55
X149.0Y-31.8
X149.0Y-36.85
X149.0Y-38.1
X149.0Y-43.15
X149.0Y-44.4
X149.0Y-49.45
X149.0Y-50.7
X149.0Y-55.75
X149.0Y-57.0
X149.0Y-62.05
X149.0Y-63.3
X149.0Y-68.35
X149.0Y-69.6
X149.0Y-74.65
X149.0Y-75.9
X149.0Y-80.95
X149.0Y-82.2
X149.35Y-26.75
X149.35Y-33.05
X149.35Y-39.35
X149.35Y-45.65
X149.35Y-51.95
X149.35Y-58.25
X149.35Y-64.55
X149.35Y-70.85
X149.35Y-77.15
X149.35Y-83.45
X149.55Y-23.55
X149.55Y-29.85
X149.55Y-36.15
X149.55Y-42.45
X149.55Y-48.75
X149.55Y-55.05
X149.55Y-61.35
X149.55Y-67.65
X149.55Y-73.95
X149.55Y-80.25
X149.8Y-28.85
X149.8Y-35.15
X149.8Y-41.45
X149.8Y-47.75
X149.8Y-54.05
X149.8Y-60.35
X149.8Y-66.65
X149.8Y-72.95
X149.8Y-79.25
X149.8Y-85.55
X149.85Y-26.2
X149.85Y-32.5
X149.85Y-38.8
X149.85Y-45.1
X149.85Y-51.4
X149.85Y-57.7
X149.85Y-64.0
X149.85Y-70.3
X149.85Y-76.6
X149.85Y-82.9
X150.75Y-25.95
X150.75Y-32.25
X150.75Y-38.55
X150.75Y-44.85
X150.75Y-51.15
X150.75Y-57.45
X150.75Y-63.75
X150.75Y-70.05
X150.75Y-76.35
X150.75Y-82.65
X152.85Y-27.55
X152.85Y-33.85
X152.85Y-40.15
X152.85Y-46.45
X152.85Y-52.75
X152.85Y-59.05
X152.85Y-65.35
X152.85Y-71.65
X152.85Y-77.95
X152.85Y-84.25
X153.85Y-25.5
X153.85Y-27.5
X153.85Y-31.8
X153.85Y-33.8
X153.85Y-38.1
X153.85Y-40.1
X153.85Y-44.4
X153.85Y-46.4
X153.85Y-50.7
X153.85Y-52.7
X153.85Y-57.0
X153.85Y-59.0
X153.85Y-63.3
X153.85Y-65.3
X153.85Y-69.6
X153.85Y-71.6
X153.85Y-75.9
X153.85Y-77.9
X153.85Y-82.2
X153.85Y-84.2
X154.6Y-25.5
X154.6Y-31.8
X154.6Y-38.1
X154.6Y-44.4
X154.6Y-50.7
X154.6Y-57.0
X154.6Y-63.3
X154.6Y-69.6
X154.6Y-75.9
X154.6Y-82.2
X155.7Y-25.49
X155.7Y-31.79
X155.7Y-38.09
X155.7Y-44.39
X155.7Y-50.69
X155.7Y-56.99
X155.7Y-63.29
X155.7Y-69.59
X155.7Y-75.89
X155.7Y-82.19
X157.75Y-25.6
X157.75Y-31.9
X157.75Y-38.2
X157.75Y-44.5
X157.75Y-50.8
X157.75Y-57.1
X157.75Y-63.4
X157.75Y-69.7
X157.75Y-76.0
X157.75Y-82.3
X158.35Y-28.95
X158.35Y-35.25
X158.35Y-41.55
X158.35Y-47.85
X158.35Y-54.15
X158.35Y-60.45
X158.35Y-66.75
X158.35Y-73.05
X158.35Y-79.35
X158.35Y-85.65
X158.85Y-25.9
X158.85Y-32.2
X158.85Y-38.5
X158.85Y-44.8
X158.85Y-51.1
X158.85Y-57.4
X158.85Y-63.7
X158.85Y-70.0
X158.85Y-76.3
X158.85Y-82.6
X160.1Y-23.65
X160.1Y-29.95
X160.1Y-36.25
X160.1Y-42.55
X160.1Y-48.85
X160.1Y-55.15
X160.1Y-61.45
X160.1Y-67.75
X160.1Y-74.05
X160.1Y-80.35
X160.15Y-25.65
X160.15Y-26.65
X160.15Y-31.95
X160.15Y-32.95
X160.15Y-38.25
X160.15Y-39.25
X160.15Y-44.55
X160.15Y-45.55
X160.15Y-50.85
X160.15Y-51.85
X160.15Y-57.15
X160.15Y-58.15
X160.15Y-63.45
X160.15Y-64.45
X160.15Y-69.75
X160.15Y-70.75
X160.15Y-76.05
X160.15Y-77.05
X160.15Y-82.35
X160.15Y-83.35
X160.2Y-24.6
X160.2Y-27.65
X160.2Y-28.5
X160.2Y-30.9
X160.2Y-33.95
X160.2Y-34.8
X160.2Y-37.2
X160.2Y-40.25
X160.2Y-41.1
X160.2Y-43.5
X160.2Y-46.55
X160.2Y-47.4
X160.2Y-49.8
X160.2Y-52.85
X160.2Y-53.7
X160.2Y-56.1
X160.2Y-59.15
X160.2Y-60.0
X160.2Y-62.4
X160.2Y-65.45
X160.2Y-66.3
X160.2Y-68.7
X160.2Y-71.75
X160.2Y-72.6
X160.2Y-75.0
X160.2Y-78.05
X160.2Y-78.9
X160.2Y-81.3
X160.2Y-84.35
X160.2Y-85.2
X161.2Y-24.25
X161.2Y-25.5
X161.2Y-30.55
X161.2Y-31.8
X161.2Y-36.85
X161.2Y-38.1
X161.2Y-43.15
X161.2Y-44.4
X161.2Y-49.45
X161.2Y-50.7
X161.2Y-55.75
X161.2Y-57.0
X161.2Y-62.05
X161.2Y-63.3
X161.2Y-68.35
X161.2Y-69.6
X161.2Y-74.65
X161.2Y-75.9
X161.2Y-80.95
X161.2Y-82.2
X161.55Y-26.75
X161.55Y-33.05
X161.55Y-39.35
X161.55Y-45.65
X161.55Y-51.95
X161.55Y-58.25
X161.55Y-64.55
X161.55Y-70.85
X161.55Y-77.15
X161.55Y-83.45
X161.75Y-23.55
X161.75Y-29.85
X161.75Y-36.15
X161.75Y-42.45
X161.75Y-48.75
X161.75Y-55.05
X161.75Y-61.35
X161.75Y-67.65
X161.75Y-73.95
X161.75Y-80.25
X162.0Y-28.85
X162.0Y-35.15
X162.0Y-41.45
X162.0Y-47.75
X162.0Y-54.05
X162.0Y-60.35
X162.0Y-66.65
X162.0Y-72.95
X162.0Y-79.25
X162.0Y-85.55
X162.05Y-26.2
X162.05Y-32.5
X162.05Y-38.8
X162.05Y-45.1
X162.05Y-51.4
X162.05Y-57.7
X162.05Y-64.0
X162.05Y-70.3
X162.05Y-76.6
X162.05Y-82.9
X162.95Y-25.95
X162.95Y-32.25
X162.95Y-38.55
X162.95Y-44.85
X162.95Y-51.15
X162.95Y-57.45
X162.95Y-63.75
X162.95Y-70.05
X162.95Y-76.35
X162.95Y-82.65
X165.05Y-27.55
X165.05Y-33.85
X165.05Y-40.15
X165.05Y-46.45
X165.05Y-52.75
X165.05Y-59.05
X165.05Y-65.35
X165.05Y-71.65
X165.05Y-77.95
X165.05Y-84.25
X166.05Y-25.5
X166.05Y-27.5
X166.05Y-31.8
X166.05Y-33.8
X166.05Y-38.1
X166.05Y-40.1
X166.05Y-44.4
X166.05Y-46.4
X166.05Y-50.7
X166.05Y-52.7
X166.05Y-57.0
X166.05Y-59.0
X166.05Y-63.3
X166.05Y-65.3
X166.05Y-69.6
X166.05Y-71.6
X166.05Y-75.9
X166.05Y-77.9
X166.05Y-82.2
X166.05Y-84.2
X166.8Y-25.5
X166.8Y-31.8
X166.8Y-38.1
X166.8Y-44.4
X166.8Y-50.7
X166.8Y-57.0
X166.8Y-63.3
X166.8Y-69.6
X166.8Y-75.9
X166.8Y-82.2
X167.9Y-25.49
X167.9Y-31.79
X167.9Y-38.09
X167.9Y-44.39
X167.9Y-50.69
X167.9Y-56.99
X167.9Y-63.29
X167.9Y-69.59
X167.9Y-75.89
X167.9Y-82.19
X169.95Y-25.6
X169.95Y-31.9
X169.95Y-38.2
X169.95Y-44.5
X169.95Y-50.8
X169.95Y-57.1
X169.95Y-63.4
X169.95Y-69.7
X169.95Y-76.0
X169.95Y-82.3
X170.55Y-28.95
X170.55Y-35.25
X170.55Y-41.55
X170.55Y-47.85
X170.55Y-54.15
X170.55Y-60.45
X170.55Y-66.75
X170.55Y-73.05
X170.55Y-79.35
X170.55Y-85.65
X171.05Y-25.9
X171.05Y-32.2
X171.05Y-38.5
X171.05Y-44.8
X171.05Y-51.1
X171.05Y-57.4
X171.05Y-63.7
X171.05Y-70.0
X171.05Y-76.3
X171.05Y-82.6
X172.3Y-23.65
X172.3Y-29.95
X172.3Y-36.25
X172.3Y-42.55
X172.3Y-48.85
X172.3Y-55.15
X172.3Y-61.45
X172.3Y-67.75
X172.3Y-74.05
X172.3Y-80.35
X172.35Y-25.65
X172.35Y-26.65
X172.35Y-31.95
X172.35Y-32.95
X172.35Y-38.25
X172.35Y-39.25
X172.35Y-44.55
X172.35Y-45.55
X172.35Y-50.85
X172.35Y-51.85
X172.35Y-57.15
X172.35Y-58.15
X172.35Y-63.45
X172.35Y-64.45
X172.35Y-69.75
X172.35Y-70.75
X172.35Y-76.05
X172.35Y-77.05
X172.35Y-82.35
X172.35Y-83.35
X172.4Y-24.6
X172.4Y-27.65
X172.4Y-28.5
X172.4Y-30.9
X172.4Y-33.95
X172.4Y-34.8
X172.4Y-37.2
X172.4Y-40.25
X172.4Y-41.1
X172.4Y-43.5
X172.4Y-46.55
X172.4Y-47.4
X172.4Y-49.8
X172.4Y-52.85
X172.4Y-53.7
X172.4Y-56.1
X172.4Y-59.15
X172.4Y-60.0
X172.4Y-62.4
X172.4Y-65.45
X172.4Y-66.3
X172.4Y-68.7
X172.4Y-71.75
X172.4Y-72.6
X172.4Y-75.0
X172.4Y-78.05
X172.4Y-78.9
X172.4Y-81.3
X172.4Y-84.35
X172.4Y-85.2
X173.4Y-24.25
X173.4Y-25.5
X173.4Y-30.55
X173.4Y-31.8
X173.4Y-36.85
X173.4Y-38.1
X173.4Y-43.15
X173.4Y-44.4
X173.4Y-49.45
X173.4Y-50.7
X173.4Y-55.75
X173.4Y-57.0
X173.4Y-62.05
X173.4Y-63.3
X173.4Y-68.35
X173.4Y-69.6
X173.4Y-74.65
X173.4Y-75.9
X173.4Y-80.95
X173.4Y-82.2
X173.75Y-26.75
X173.75Y-33.05
X173.75Y-39.35
X173.75Y-45.65
X173.75Y-51.95
X173.75Y-58.25
X173.75Y-64.55
X173.75Y-70.85
X173.75Y-77.15
X173.75Y-83.45
X173.95Y-23.55
X173.95Y-29.85
X173.95Y-36.15
X173.95Y-42.45
X173.95Y-48.75
X173.95Y-55.05
X173.95Y-61.35
X173.95Y-67.65
X173.95Y-73.95
X173.95Y-80.25
X174.2Y-28.85
X174.2Y-35.15
X174.2Y-41.45
X174.2Y-47.75
X174.2Y-54.05
X174.2Y-60.35
X174.2Y-66.65
X174.2Y-72.95
X174.2Y-79.25
X174.2Y-85.55
X174.25Y-26.2
X174.25Y-32.5
X174.25Y-38.8
X174.25Y-45.1
X174.25Y-51.4
X174.25Y-57.7
X174.25Y-64.0
X174.25Y-70.3
X174.25Y-76.6
X174.25Y-82.9
X175.15Y-25.95
X175.15Y-32.25
X175.15Y-38.55
X175.15Y-44.85
X175.15Y-51.15
X175.15Y-57.45
X175.15Y-63.75
X175.15Y-70.05
X175.15Y-76.35
X175.15Y-82.65
X177.25Y-27.55
X177.25Y-33.85
X177.25Y-40.15
X177.25Y-46.45
X177.25Y-52.75
X177.25Y-59.05
X177.25Y-65.35
X177.25Y-71.65
X177.25Y-77.95
X177.25Y-84.25
X178.25Y-25.5
X178.25Y-27.5
X178.25Y-31.8
X178.25Y-33.8
X178.25Y-38.1
X178.25Y-40.1
X178.25Y-44.4
X178.25Y-46.4
X178.25Y-50.7
X178.25Y-52.7
X178.25Y-57.0
X178.25Y-59.0
X178.25Y-63.3
X178.25Y-65.3
X178.25Y-69.6
X178.25Y-71.6
X178.25Y-75.9
X178.25Y-77.9
X178.25Y-82.2
X178.25Y-84.2
X179.0Y-25.5
X179.0Y-31.8
X179.0Y-38.1
X179.0Y-44.4
X179.0Y-50.7
X179.0Y-57.0
X179.0Y-63.3
X179.0Y-69.6
X179.0Y-75.9
X179.0Y-82.2
X180.1Y-25.49
X180.1Y-31.79
X180.1Y-38.09
X180.1Y-44.39
X180.1Y-50.69
X180.1Y-56.99
X180.1Y-63.29
X180.1Y-69.59
X180.1Y-75.89
X180.1Y-82.19
X182.15Y-25.6
X182.15Y-31.9
X182.15Y-38.2
X182.15Y-44.5
X182.15Y-50.8
X182.15Y-57.1
X182.15Y-63.4
X182.15Y-69.7
X182.15Y-76.0
X182.15Y-82.3
X182.75Y-28.95
X182.75Y-35.25
X182.75Y-41.55
X182.75Y-47.85
X182.75Y-54.15
X182.75Y-60.45
X182.75Y-66.75
X182.75Y-73.05
X182.75Y-79.35
X182.75Y-85.65
X183.25Y-25.9
X183.25Y-32.2
X183.25Y-38.5
X183.25Y-44.8
X183.25Y-51.1
X183.25Y-57.4
X183.25Y-63.7
X183.25Y-70.0
X183.25Y-76.3
X183.25Y-82.6
X184.5Y-23.65
X184.5Y-29.95
X184.5Y-36.25
X184.5Y-42.55
X184.5Y-48.85
X184.5Y-55.15
X184.5Y-61.45
X184.5Y-67.75
X184.5Y-74.05
X184.5Y-80.35
X184.55Y-25.65
X184.55Y-26.65
X184.55Y-31.95
X184.55Y-32.95
X184.55Y-38.25
X184.55Y-39.25
X184.55Y-44.55
X184.55Y-45.55
X184.55Y-50.85
X184.55Y-51.85
X184.55Y-57.15
X184.55Y-58.15
X184.55Y-63.45
X184.55Y-64.45
X184.55Y-69.75
X184.55Y-70.75
X184.55Y-76.05
X184.55Y-77.05
X184.55Y-82.35
X184.55Y-83.35
X184.6Y-24.6
X184.6Y-27.65
X184.6Y-28.5
X184.6Y-30.9
X184.6Y-33.95
X184.6Y-34.8
X184.6Y-37.2
X184.6Y-40.25
X184.6Y-41.1
X184.6Y-43.5
X184.6Y-46.55
X184.6Y-47.4
X184.6Y-49.8
X184.6Y-52.85
X184.6Y-53.7
X184.6Y-56.1
X184.6Y-59.15
X184.6Y-60.0
X184.6Y-62.4
X184.6Y-65.45
X184.6Y-66.3
X184.6Y-68.7
X184.6Y-71.75
X184.6Y-72.6
X184.6Y-75.0
X184.6Y-78.05
X184.6Y-78.9
X184.6Y-81.3
X184.6Y-84.35
X184.6Y-85.2
X185.6Y-24.25
X185.6Y-25.5
X185.6Y-30.55
X185.6Y-31.8
X185.6Y-36.85
X185.6Y-38.1
X185.6Y-43.15
X185.6Y-44.4
X185.6Y-49.45
X185.6Y-50.7
X185.6Y-55.75
X185.6Y-57.0
X185.6Y-62.05
X185.6Y-63.3
X185.6Y-68.35
X185.6Y-69.6
X185.6Y-74.65
X185.6Y-75.9
X185.6Y-80.95
X185.6Y-82.2
X185.95Y-26.75
X185.95Y-33.05
X185.95Y-39.35
X185.95Y-45.65
X185.95Y-51.95
X185.95Y-58.25
X185.95Y-64.55
X185.95Y-70.85
X185.95Y-77.15
X185.95Y-83.45
X186.15Y-23.55
X186.15Y-29.85
X186.15Y-36.15
X186.15Y-42.45
X186.15Y-48.75
X186.15Y-55.05
X186.15Y-61.35
X186.15Y-67.65
X186.15Y-73.95
X186.15Y-80.25
X186.4Y-28.85
X186.4Y-35.15
X186.4Y-41.45
X186.4Y-47.75
X186.4Y-54.05
X186.4Y-60.35
X186.4Y-66.65
X186.4Y-72.95
X186.4Y-79.25
X186.4Y-85.55
X186.45Y-26.2
X186.45Y-32.5
X186.45Y-38.8
X186.45Y-45.1
X186.45Y-51.4
X186.45Y-57.7
X186.45Y-64.0
X186.45Y-70.3
X186.45Y-76.6
X186.45Y-82.9
X187.35Y-25.95
X187.35Y-32.25
X187.35Y-38.55
X187.35Y-44.85
X187.35Y-51.15
X187.35Y-57.45
X187.35Y-63.75
X187.35Y-70.05
X187.35Y-76.35
X187.35Y-82.65
X189.45Y-27.55
X189.45Y-33.85
X189.45Y-40.15
X189.45Y-46.45
X189.45Y-52.75
X189.45Y-59.05
X189.45Y-65.35
X189.45Y-71.65
X189.45Y-77.95
X189.45Y-84.25
X190.45Y-25.5
X190.45Y-27.5
X190.45Y-31.8
X190.45Y-33.8
X190.45Y-38.1
X190.45Y-40.1
X190.45Y-44.4
X190.45Y-46.4
X190.45Y-50.7
X190.45Y-52.7
X190.45Y-57.0
X190.45Y-59.0
X190.45Y-63.3
X190.45Y-65.3
X190.45Y-69.6
X190.45Y-71.6
X190.45Y-75.9
X190.45Y-77.9
X190.45Y-82.2
X190.45Y-84.2
X191.2Y-25.5
X191.2Y-31.8
X191.2Y-38.1
X191.2Y-44.4
X191.2Y-50.7
X191.2Y-57.0
X191.2Y-63.3
X191.2Y-69.6
X191.2Y-75.9
X191.2Y-82.2
X192.3Y-25.49
X192.3Y-31.79
X192.3Y-38.09
X192.3Y-44.39
X192.3Y-50.69
X192.3Y-56.99
X192.3Y-63.29
X192.3Y-69.59
X192.3Y-75.89
X192.3Y-82.19
X194.35Y-25.6
X194.35Y-31.9
X194.35Y-38.2
X194.35Y-44.5
X194.35Y-50.8
X194.35Y-57.1
X194.35Y-63.4
X194.35Y-69.7
X194.35Y-76.0
X194.35Y-82.3
X194.95Y-28.95
X194.95Y-35.25
X194.95Y-41.55
X194.95Y-47.85
X194.95Y-54.15
X194.95Y-60.45
X194.95Y-66.75
X194.95Y-73.05
X194.95Y-79.35
X194.95Y-85.65
X195.45Y-25.9
X195.45Y-32.2
X195.45Y-38.5
X195.45Y-44.8
X195.45Y-51.1
X195.45Y-57.4
X195.45Y-63.7
X195.45Y-70.0
X195.45Y-76.3
X195.45Y-82.6
X196.7Y-23.65
X196.7Y-29.95
X196.7Y-36.25
X196.7Y-42.55
X196.7Y-48.85
X196.7Y-55.15
X196.7Y-61.45
X196.7Y-67.75
X196.7Y-74.05
X196.7Y-80.35
X196.75Y-25.65
X196.75Y-26.65
X196.75Y-31.95
X196.75Y-32.95
X196.75Y-38.25
X196.75Y-39.25
X196.75Y-44.55
X196.75Y-45.55
X196.75Y-50.85
X196.75Y-51.85
X196.75Y-57.15
X196.75Y-58.15
X196.75Y-63.45
X196.75Y-64.45
X196.75Y-69.75
X196.75Y-70.75
X196.75Y-76.05
X196.75Y-77.05
X196.75Y-82.35
X196.75Y-83.35
X196.8Y-24.6
X196.8Y-27.65
X196.8Y-28.5
X196.8Y-30.9
X196.8Y-33.95
X196.8Y-34.8
X196.8Y-37.2
X196.8Y-40.25
X196.8Y-41.1
X196.8Y-43.5
X196.8Y-46.55
X196.8Y-47.4
X196.8Y-49.8
X196.8Y-52.85
X196.8Y-53.7
X196.8Y-56.1
X196.8Y-59.15
X196.8Y-60.0
X196.8Y-62.4
X196.8Y-65.45
X196.8Y-66.3
X196.8Y-68.7
X196.8Y-71.75
X196.8Y-72.6
X196.8Y-75.0
X196.8Y-78.05
X196.8Y-78.9
X196.8Y-81.3
X196.8Y-84.35
X196.8Y-85.2
X197.8Y-24.25
X197.8Y-25.5
X197.8Y-30.55
X197.8Y-31.8
X197.8Y-36.85
X197.8Y-38.1
X197.8Y-43.15
X197.8Y-44.4
X197.8Y-49.45
X197.8Y-50.7
X197.8Y-55.75
X197.8Y-57.0
X197.8Y-62.05
X197.8Y-63.3
X197.8Y-68.35
X197.8Y-69.6
X197.8Y-74.65
X197.8Y-75.9
X197.8Y-80.95
X197.8Y-82.2
X198.15Y-26.75
X198.15Y-33.05
X198.15Y-39.35
X198.15Y-45.65
X198.15Y-51.95
X198.15Y-58.25
X198.15Y-64.55
X198.15Y-70.85
X198.15Y-77.15
X198.15Y-83.45
X198.35Y-23.55
X198.35Y-29.85
X198.35Y-36.15
X198.35Y-42.45
X198.35Y-48.75
X198.35Y-55.05
X198.35Y-61.35
X198.35Y-67.65
X198.35Y-73.95
X198.35Y-80.25
X198.6Y-28.85
X198.6Y-35.15
X198.6Y-41.45
X198.6Y-47.75
X198.6Y-54.05
X198.6Y-60.35
X198.6Y-66.65
X198.6Y-72.95
X198.6Y-79.25
X198.6Y-85.55
X198.65Y-26.2
X198.65Y-32.5
X198.65Y-38.8
X198.65Y-45.1
X198.65Y-51.4
X198.65Y-57.7
X198.65Y-64.0
X198.65Y-70.3
X198.65Y-76.6
X198.65Y-82.9
X199.55Y-25.95
X199.55Y-32.25
X199.55Y-38.55
X199.55Y-44.85
X199.55Y-51.15
X199.55Y-57.45
X199.55Y-63.75
X199.55Y-70.05
X199.55Y-76.35
X199.55Y-82.65
X201.65Y-27.55
X201.65Y-33.85
X201.65Y-40.15
X201.65Y-46.45
X201.65Y-52.75
X201.65Y-59.05
X201.65Y-65.35
X201.65Y-71.65
X201.65Y-77.95
X201.65Y-84.25
X202.65Y-25.5
X202.65Y-27.5
X202.65Y-31.8
X202.65Y-33.8
X202.65Y-38.1
X202.65Y-40.1
X202.65Y-44.4
X202.65Y-46.4
X202.65Y-50.7
X202.65Y-52.7
X202.65Y-57.0
X202.65Y-59.0
X202.65Y-63.3
X202.65Y-65.3
X202.65Y-69.6
X202.65Y-71.6
X202.65Y-75.9
X202.65Y-77.9
X202.65Y-82.2
X202.65Y-84.2
X203.4Y-25.5
X203.4Y-31.8
X203.4Y-38.1
X203.4Y-44.4
X203.4Y-50.7
X203.4Y-57.0
X203.4Y-63.3
X203.4Y-69.6
X203.4Y-75.9
X203.4Y-82.2
X204.5Y-25.49
X204.5Y-31.79
X204.5Y-38.09
X204.5Y-44.39
X204.5Y-50.69
X204.5Y-56.99
X204.5Y-63.29
X204.5Y-69.59
X204.5Y-75.89
X204.5Y-82.19
X206.55Y-25.6
X206.55Y-31.9
X206.55Y-38.2
X206.55Y-44.5
X206.55Y-50.8
X206.55Y-57.1
X206.55Y-63.4
X206.55Y-69.7
X206.55Y-76.0
X206.55Y-82.3
X207.15Y-28.95
X207.15Y-35.25
X207.15Y-41.55
X207.15Y-47.85
X207.15Y-54.15
X207.15Y-60.45
X207.15Y-66.75
X207.15Y-73.05
X207.15Y-79.35
X207.15Y-85.65
X207.65Y-25.9
X207.65Y-32.2
X207.65Y-38.5
X207.65Y-44.8
X207.65Y-51.1
X207.65Y-57.4
X207.65Y-63.7
X207.65Y-70.0
X207.65Y-76.3
X207.65Y-82.6
X208.9Y-23.65
X208.9Y-29.95
X208.9Y-36.25
X208.9Y-42.55
X208.9Y-48.85
X208.9Y-55.15
X208.9Y-61.45
X208.9Y-67.75
X208.9Y-74.05
X208.9Y-80.35
X208.95Y-25.65
X208.95Y-26.65
X208.95Y-31.95
X208.95Y-32.95
X208.95Y-38.25
X208.95Y-39.25
X208.95Y-44.55
X208.95Y-45.55
X208.95Y-50.85
X208.95Y-51.85
X208.95Y-57.15
X208.95Y-58.15
X208.95Y-63.45
X208.95Y-64.45
X208.95Y-69.75
X208.95Y-70.75
X208.95Y-76.05
X208.95Y-77.05
X208.95Y-82.35
X208.95Y-83.35
X209.0Y-24.6
X209.0Y-27.65
X209.0Y-28.5
X209.0Y-30.9
X209.0Y-33.95
X209.0Y-34.8
X209.0Y-37.2
X209.0Y-40.25
X209.0Y-41.1
X209.0Y-43.5
X209.0Y-46.55
X209.0Y-47.4
X209.0Y-49.8
X209.0Y-52.85
X209.0Y-53.7
X209.0Y-56.1
X209.0Y-59.15
X209.0Y-60.0
X209.0Y-62.4
X209.0Y-65.45
X209.0Y-66.3
X209.0Y-68.7
X209.0Y-71.75
X209.0Y-72.6
X209.0Y-75.0
X209.0Y-78.05
X209.0Y-78.9
X209.0Y-81.3
X209.0Y-84.35
X209.0Y-85.2
T2
X89.59Y-27.5
X89.59Y-33.8
X89.59Y-40.1
X89.59Y-46.4
X89.59Y-52.7
X89.59Y-59.0
X89.59Y-65.3
X89.59Y-71.6
X89.59Y-77.9
X89.59Y-84.2
X97.61Y-27.5
X97.61Y-33.8
X97.61Y-40.1
X97.61Y-46.4
X97.61Y-52.7
X97.61Y-59.0
X97.61Y-65.3
X97.61Y-71.6
X97.61Y-77.9
X97.61Y-84.2
X101.79Y-27.5
X101.79Y-33.8
X101.79Y-40.1
X101.79Y-46.4
X101.79Y-52.7
X101.79Y-59.0
X101.79Y-65.3
X101.79Y-71.6
X101.79Y-77.9
X101.79Y-84.2
X109.81Y-27.5
X109.81Y-33.8
X109.81Y-40.1
X109.81Y-46.4
X109.81Y-52.7
X109.81Y-59.0
X109.81Y-65.3
X109.81Y-71.6
X109.81Y-77.9
X109.81Y-84.2
X113.99Y-27.5
X113.99Y-33.8
X113.99Y-40.1
X113.99Y-46.4
X113.99Y-52.7
X113.99Y-59.0
X113.99Y-65.3
X113.99Y-71.6
X113.99Y-77.9
X113.99Y-84.2
X122.01Y-27.5
X122.01Y-33.8
X122.01Y-40.1
X122.01Y-46.4
X122.01Y-52.7
X122.01Y-59.0
X122.01Y-65.3
X122.01Y-71.6
X122.01Y-77.9
X122.01Y-84.2
X126.19Y-27.5
X126.19Y-33.8
X126.19Y-40.1
X126.19Y-46.4
X126.19Y-52.7
X126.19Y-59.0
X126.19Y-65.3
X126.19Y-71.6
X126.19Y-77.9
X126.19Y-84.2
X134.21Y-27.5
X134.21Y-33.8
X134.21Y-40.1
X134.21Y-46.4
X134.21Y-52.7
X134.21Y-59.0
X134.21Y-65.3
X134.21Y-71.6
X134.21Y-77.9
X134.21Y-84.2
X138.39Y-27.5
X138.39Y-33.8
X138.39Y-40.1
X138.39Y-46.4
X138.39Y-52.7
X138.39Y-59.0
X138.39Y-65.3
X138.39Y-71.6
X138.39Y-77.9
X138.39Y-84.2
X146.41Y-27.5
X146.41Y-33.8
X146.41Y-40.1
X146.41Y-46.4
X146.41Y-52.7
X146.41Y-59.0
X146.41Y-65.3
X146.41Y-71.6
X146.41Y-77.9
X146.41Y-84.2
X150.59Y-27.5
X150.59Y-33.8
X150.59Y-40.1
X150.59Y-46.4
X150.59Y-52.7
X150.59Y-59.0
X150.59Y-65.3
X150.59Y-71.6
X150.59Y-77.9
X150.59Y-84.2
X158.61Y-27.5
X158.61Y-33.8
X158.61Y-40.1
X158.61Y-46.4
X158.61Y-52.7
X158.61Y-59.0
X158.61Y-65.3
X158.61Y-71.6
X158.61Y-77.9
X158.61Y-84.2
X162.79Y-27.5
X162.79Y-33.8
X162.79Y-40.1
X162.79Y-46.4
X162.79Y-52.7
X162.79Y-59.0
X162.79Y-65.3
X162.79Y-71.6
X162.79Y-77.9
X162.79Y-84.2
X170.81Y-27.5
X170.81Y-33.8
X170.81Y-40.1
X170.81Y-46.4
X170.81Y-52.7
X170.81Y-59.0
X170.81Y-65.3
X170.81Y-71.6
X170.81Y-77.9
X170.81Y-84.2
X174.99Y-27.5
X174.99Y-33.8
X174.99Y-40.1
X174.99Y-46.4
X174.99Y-52.7
X174.99Y-59.0
X174.99Y-65.3
X174.99Y-71.6
X174.99Y-77.9
X174.99Y-84.2
X183.01Y-27.5
X183.01Y-33.8
X183.01Y-40.1
X183.01Y-46.4
X183.01Y-52.7
X183.01Y-59.0
X183.01Y-65.3
X183.01Y-71.6
X183.01Y-77.9
X183.01Y-84.2
X187.19Y-27.5
X187.19Y-33.8
X187.19Y-40.1
X187.19Y-46.4
X187.19Y-52.7
X187.19Y-59.0
X187.19Y-65.3
X187.19Y-71.6
X187.19Y-77.9
X187.19Y-84.2
X195.21Y-27.5
X195.21Y-33.8
X195.21Y-40.1
X195.21Y-46.4
X195.21Y-52.7
X195.21Y-59.0
X195.21Y-65.3
X195.21Y-71.6
X195.21Y-77.9
X195.21Y-84.2
X199.39Y-27.5
X199.39Y-33.8
X199.39Y-40.1
X199.39Y-46.4
X199.39Y-52.7
X199.39Y-59.0
X199.39Y-65.3
X199.39Y-71.6
X199.39Y-77.9
X199.39Y-84.2
X207.41Y-27.5
X207.41Y-33.8
X207.41Y-40.1
X207.41Y-46.4
X207.41Y-52.7
X207.41Y-59.0
X207.41Y-65.3
X207.41Y-71.6
X207.41Y-77.9
X207.41Y-84.2
M30
