%TF.GenerationSoftware,KiCad,Pcbnew,9.0.3*%
%TF.CreationDate,2025-08-30T17:40:09+05:30*%
%TF.ProjectId,Panel,50616e65-6c2e-46b6-9963-61645f706362,Rev 1.0*%
%TF.SameCoordinates,Original*%
%TF.FileFunction,Other,Comment*%
%FSLAX46Y46*%
G04 Gerber Fmt 4.6, Leading zero omitted, Abs format (unit mm)*
G04 Created by KiCad (PCBNEW 9.0.3) date 2025-08-30 17:40:09*
%MOMM*%
%LPD*%
G01*
G04 APERTURE LIST*
%ADD10C,0.300000*%
G04 APERTURE END LIST*
D10*
X148400000Y-17000000D02*
X148400000Y-92200000D01*
X81400000Y-48200000D02*
X215600000Y-48200000D01*
X99800000Y-17000000D02*
X99800000Y-92200000D01*
X81400000Y-86000000D02*
X215600000Y-86000000D01*
X81400000Y-35800000D02*
X215600000Y-35800000D01*
X112000000Y-17000000D02*
X112000000Y-92200000D01*
X124200000Y-17000000D02*
X124200000Y-92200000D01*
X81400000Y-61000000D02*
X215600000Y-61000000D01*
X81400000Y-42100000D02*
X215600000Y-42100000D01*
X136400000Y-17000000D02*
X136400000Y-92200000D01*
X81400000Y-67300000D02*
X215600000Y-67300000D01*
X172800000Y-17000000D02*
X172800000Y-92200000D01*
X81400000Y-41900000D02*
X215600000Y-41900000D01*
X87600000Y-17000000D02*
X87600000Y-92200000D01*
X209400000Y-17000000D02*
X209400000Y-92200000D01*
X148600000Y-17000000D02*
X148600000Y-92200000D01*
X81400000Y-29300000D02*
X215600000Y-29300000D01*
X81400000Y-54700000D02*
X215600000Y-54700000D01*
X81400000Y-79900000D02*
X215600000Y-79900000D01*
X81400000Y-67100000D02*
X215600000Y-67100000D01*
X81400000Y-54500000D02*
X215600000Y-54500000D01*
X81400000Y-60800000D02*
X215600000Y-60800000D01*
X81400000Y-73400000D02*
X215600000Y-73400000D01*
X173000000Y-17000000D02*
X173000000Y-92200000D01*
X197400000Y-17000000D02*
X197400000Y-92200000D01*
X81400000Y-48400000D02*
X215600000Y-48400000D01*
X124000000Y-17000000D02*
X124000000Y-92200000D01*
X197200000Y-17000000D02*
X197200000Y-92200000D01*
X185000000Y-17000000D02*
X185000000Y-92200000D01*
X160800000Y-17000000D02*
X160800000Y-92200000D01*
X136200000Y-17000000D02*
X136200000Y-92200000D01*
X160600000Y-17000000D02*
X160600000Y-92200000D01*
X99600000Y-17000000D02*
X99600000Y-92200000D01*
X81400000Y-73600000D02*
X215600000Y-73600000D01*
X81400000Y-35600000D02*
X215600000Y-35600000D01*
X81400000Y-23200000D02*
X215600000Y-23200000D01*
X81400000Y-79700000D02*
X215600000Y-79700000D01*
X81400000Y-29500000D02*
X215600000Y-29500000D01*
X111800000Y-17000000D02*
X111800000Y-92200000D01*
X185200000Y-17000000D02*
X185200000Y-92200000D01*
X171709638Y-13612155D02*
X173709638Y-12945489D01*
X173709638Y-12945489D02*
X171709638Y-12278822D01*
X172947733Y-11612155D02*
X172947733Y-10088346D01*
X173519161Y-7993108D02*
X173614400Y-8088346D01*
X173614400Y-8088346D02*
X173709638Y-8374060D01*
X173709638Y-8374060D02*
X173709638Y-8564536D01*
X173709638Y-8564536D02*
X173614400Y-8850251D01*
X173614400Y-8850251D02*
X173423923Y-9040727D01*
X173423923Y-9040727D02*
X173233447Y-9135965D01*
X173233447Y-9135965D02*
X172852495Y-9231203D01*
X172852495Y-9231203D02*
X172566780Y-9231203D01*
X172566780Y-9231203D02*
X172185828Y-9135965D01*
X172185828Y-9135965D02*
X171995352Y-9040727D01*
X171995352Y-9040727D02*
X171804876Y-8850251D01*
X171804876Y-8850251D02*
X171709638Y-8564536D01*
X171709638Y-8564536D02*
X171709638Y-8374060D01*
X171709638Y-8374060D02*
X171804876Y-8088346D01*
X171804876Y-8088346D02*
X171900114Y-7993108D01*
X171709638Y-7135965D02*
X173328685Y-7135965D01*
X173328685Y-7135965D02*
X173519161Y-7040727D01*
X173519161Y-7040727D02*
X173614400Y-6945489D01*
X173614400Y-6945489D02*
X173709638Y-6755013D01*
X173709638Y-6755013D02*
X173709638Y-6374060D01*
X173709638Y-6374060D02*
X173614400Y-6183584D01*
X173614400Y-6183584D02*
X173519161Y-6088346D01*
X173519161Y-6088346D02*
X173328685Y-5993108D01*
X173328685Y-5993108D02*
X171709638Y-5993108D01*
X171709638Y-5326441D02*
X171709638Y-4183584D01*
X173709638Y-4755013D02*
X171709638Y-4755013D01*
X218987844Y-66209638D02*
X219654510Y-68209638D01*
X219654510Y-68209638D02*
X220321177Y-66209638D01*
X220987844Y-67447733D02*
X222511654Y-67447733D01*
X224606891Y-68019161D02*
X224511653Y-68114400D01*
X224511653Y-68114400D02*
X224225939Y-68209638D01*
X224225939Y-68209638D02*
X224035463Y-68209638D01*
X224035463Y-68209638D02*
X223749748Y-68114400D01*
X223749748Y-68114400D02*
X223559272Y-67923923D01*
X223559272Y-67923923D02*
X223464034Y-67733447D01*
X223464034Y-67733447D02*
X223368796Y-67352495D01*
X223368796Y-67352495D02*
X223368796Y-67066780D01*
X223368796Y-67066780D02*
X223464034Y-66685828D01*
X223464034Y-66685828D02*
X223559272Y-66495352D01*
X223559272Y-66495352D02*
X223749748Y-66304876D01*
X223749748Y-66304876D02*
X224035463Y-66209638D01*
X224035463Y-66209638D02*
X224225939Y-66209638D01*
X224225939Y-66209638D02*
X224511653Y-66304876D01*
X224511653Y-66304876D02*
X224606891Y-66400114D01*
X225464034Y-66209638D02*
X225464034Y-67828685D01*
X225464034Y-67828685D02*
X225559272Y-68019161D01*
X225559272Y-68019161D02*
X225654510Y-68114400D01*
X225654510Y-68114400D02*
X225844986Y-68209638D01*
X225844986Y-68209638D02*
X226225939Y-68209638D01*
X226225939Y-68209638D02*
X226416415Y-68114400D01*
X226416415Y-68114400D02*
X226511653Y-68019161D01*
X226511653Y-68019161D02*
X226606891Y-67828685D01*
X226606891Y-67828685D02*
X226606891Y-66209638D01*
X227273558Y-66209638D02*
X228416415Y-66209638D01*
X227844986Y-68209638D02*
X227844986Y-66209638D01*
X171909638Y-13612155D02*
X173909638Y-12945489D01*
X173909638Y-12945489D02*
X171909638Y-12278822D01*
X173147733Y-11612155D02*
X173147733Y-10088346D01*
X173719161Y-7993108D02*
X173814400Y-8088346D01*
X173814400Y-8088346D02*
X173909638Y-8374060D01*
X173909638Y-8374060D02*
X173909638Y-8564536D01*
X173909638Y-8564536D02*
X173814400Y-8850251D01*
X173814400Y-8850251D02*
X173623923Y-9040727D01*
X173623923Y-9040727D02*
X173433447Y-9135965D01*
X173433447Y-9135965D02*
X173052495Y-9231203D01*
X173052495Y-9231203D02*
X172766780Y-9231203D01*
X172766780Y-9231203D02*
X172385828Y-9135965D01*
X172385828Y-9135965D02*
X172195352Y-9040727D01*
X172195352Y-9040727D02*
X172004876Y-8850251D01*
X172004876Y-8850251D02*
X171909638Y-8564536D01*
X171909638Y-8564536D02*
X171909638Y-8374060D01*
X171909638Y-8374060D02*
X172004876Y-8088346D01*
X172004876Y-8088346D02*
X172100114Y-7993108D01*
X171909638Y-7135965D02*
X173528685Y-7135965D01*
X173528685Y-7135965D02*
X173719161Y-7040727D01*
X173719161Y-7040727D02*
X173814400Y-6945489D01*
X173814400Y-6945489D02*
X173909638Y-6755013D01*
X173909638Y-6755013D02*
X173909638Y-6374060D01*
X173909638Y-6374060D02*
X173814400Y-6183584D01*
X173814400Y-6183584D02*
X173719161Y-6088346D01*
X173719161Y-6088346D02*
X173528685Y-5993108D01*
X173528685Y-5993108D02*
X171909638Y-5993108D01*
X171909638Y-5326441D02*
X171909638Y-4183584D01*
X173909638Y-4755013D02*
X171909638Y-4755013D01*
X218987844Y-66009638D02*
X219654510Y-68009638D01*
X219654510Y-68009638D02*
X220321177Y-66009638D01*
X220987844Y-67247733D02*
X222511654Y-67247733D01*
X224606891Y-67819161D02*
X224511653Y-67914400D01*
X224511653Y-67914400D02*
X224225939Y-68009638D01*
X224225939Y-68009638D02*
X224035463Y-68009638D01*
X224035463Y-68009638D02*
X223749748Y-67914400D01*
X223749748Y-67914400D02*
X223559272Y-67723923D01*
X223559272Y-67723923D02*
X223464034Y-67533447D01*
X223464034Y-67533447D02*
X223368796Y-67152495D01*
X223368796Y-67152495D02*
X223368796Y-66866780D01*
X223368796Y-66866780D02*
X223464034Y-66485828D01*
X223464034Y-66485828D02*
X223559272Y-66295352D01*
X223559272Y-66295352D02*
X223749748Y-66104876D01*
X223749748Y-66104876D02*
X224035463Y-66009638D01*
X224035463Y-66009638D02*
X224225939Y-66009638D01*
X224225939Y-66009638D02*
X224511653Y-66104876D01*
X224511653Y-66104876D02*
X224606891Y-66200114D01*
X225464034Y-66009638D02*
X225464034Y-67628685D01*
X225464034Y-67628685D02*
X225559272Y-67819161D01*
X225559272Y-67819161D02*
X225654510Y-67914400D01*
X225654510Y-67914400D02*
X225844986Y-68009638D01*
X225844986Y-68009638D02*
X226225939Y-68009638D01*
X226225939Y-68009638D02*
X226416415Y-67914400D01*
X226416415Y-67914400D02*
X226511653Y-67819161D01*
X226511653Y-67819161D02*
X226606891Y-67628685D01*
X226606891Y-67628685D02*
X226606891Y-66009638D01*
X227273558Y-66009638D02*
X228416415Y-66009638D01*
X227844986Y-68009638D02*
X227844986Y-66009638D01*
X208309638Y-13612155D02*
X210309638Y-12945489D01*
X210309638Y-12945489D02*
X208309638Y-12278822D01*
X209547733Y-11612155D02*
X209547733Y-10088346D01*
X210119161Y-7993108D02*
X210214400Y-8088346D01*
X210214400Y-8088346D02*
X210309638Y-8374060D01*
X210309638Y-8374060D02*
X210309638Y-8564536D01*
X210309638Y-8564536D02*
X210214400Y-8850251D01*
X210214400Y-8850251D02*
X210023923Y-9040727D01*
X210023923Y-9040727D02*
X209833447Y-9135965D01*
X209833447Y-9135965D02*
X209452495Y-9231203D01*
X209452495Y-9231203D02*
X209166780Y-9231203D01*
X209166780Y-9231203D02*
X208785828Y-9135965D01*
X208785828Y-9135965D02*
X208595352Y-9040727D01*
X208595352Y-9040727D02*
X208404876Y-8850251D01*
X208404876Y-8850251D02*
X208309638Y-8564536D01*
X208309638Y-8564536D02*
X208309638Y-8374060D01*
X208309638Y-8374060D02*
X208404876Y-8088346D01*
X208404876Y-8088346D02*
X208500114Y-7993108D01*
X208309638Y-7135965D02*
X209928685Y-7135965D01*
X209928685Y-7135965D02*
X210119161Y-7040727D01*
X210119161Y-7040727D02*
X210214400Y-6945489D01*
X210214400Y-6945489D02*
X210309638Y-6755013D01*
X210309638Y-6755013D02*
X210309638Y-6374060D01*
X210309638Y-6374060D02*
X210214400Y-6183584D01*
X210214400Y-6183584D02*
X210119161Y-6088346D01*
X210119161Y-6088346D02*
X209928685Y-5993108D01*
X209928685Y-5993108D02*
X208309638Y-5993108D01*
X208309638Y-5326441D02*
X208309638Y-4183584D01*
X210309638Y-4755013D02*
X208309638Y-4755013D01*
X218987844Y-34709638D02*
X219654510Y-36709638D01*
X219654510Y-36709638D02*
X220321177Y-34709638D01*
X220987844Y-35947733D02*
X222511654Y-35947733D01*
X224606891Y-36519161D02*
X224511653Y-36614400D01*
X224511653Y-36614400D02*
X224225939Y-36709638D01*
X224225939Y-36709638D02*
X224035463Y-36709638D01*
X224035463Y-36709638D02*
X223749748Y-36614400D01*
X223749748Y-36614400D02*
X223559272Y-36423923D01*
X223559272Y-36423923D02*
X223464034Y-36233447D01*
X223464034Y-36233447D02*
X223368796Y-35852495D01*
X223368796Y-35852495D02*
X223368796Y-35566780D01*
X223368796Y-35566780D02*
X223464034Y-35185828D01*
X223464034Y-35185828D02*
X223559272Y-34995352D01*
X223559272Y-34995352D02*
X223749748Y-34804876D01*
X223749748Y-34804876D02*
X224035463Y-34709638D01*
X224035463Y-34709638D02*
X224225939Y-34709638D01*
X224225939Y-34709638D02*
X224511653Y-34804876D01*
X224511653Y-34804876D02*
X224606891Y-34900114D01*
X225464034Y-34709638D02*
X225464034Y-36328685D01*
X225464034Y-36328685D02*
X225559272Y-36519161D01*
X225559272Y-36519161D02*
X225654510Y-36614400D01*
X225654510Y-36614400D02*
X225844986Y-36709638D01*
X225844986Y-36709638D02*
X226225939Y-36709638D01*
X226225939Y-36709638D02*
X226416415Y-36614400D01*
X226416415Y-36614400D02*
X226511653Y-36519161D01*
X226511653Y-36519161D02*
X226606891Y-36328685D01*
X226606891Y-36328685D02*
X226606891Y-34709638D01*
X227273558Y-34709638D02*
X228416415Y-34709638D01*
X227844986Y-36709638D02*
X227844986Y-34709638D01*
X98509638Y-13612155D02*
X100509638Y-12945489D01*
X100509638Y-12945489D02*
X98509638Y-12278822D01*
X99747733Y-11612155D02*
X99747733Y-10088346D01*
X100319161Y-7993108D02*
X100414400Y-8088346D01*
X100414400Y-8088346D02*
X100509638Y-8374060D01*
X100509638Y-8374060D02*
X100509638Y-8564536D01*
X100509638Y-8564536D02*
X100414400Y-8850251D01*
X100414400Y-8850251D02*
X100223923Y-9040727D01*
X100223923Y-9040727D02*
X100033447Y-9135965D01*
X100033447Y-9135965D02*
X99652495Y-9231203D01*
X99652495Y-9231203D02*
X99366780Y-9231203D01*
X99366780Y-9231203D02*
X98985828Y-9135965D01*
X98985828Y-9135965D02*
X98795352Y-9040727D01*
X98795352Y-9040727D02*
X98604876Y-8850251D01*
X98604876Y-8850251D02*
X98509638Y-8564536D01*
X98509638Y-8564536D02*
X98509638Y-8374060D01*
X98509638Y-8374060D02*
X98604876Y-8088346D01*
X98604876Y-8088346D02*
X98700114Y-7993108D01*
X98509638Y-7135965D02*
X100128685Y-7135965D01*
X100128685Y-7135965D02*
X100319161Y-7040727D01*
X100319161Y-7040727D02*
X100414400Y-6945489D01*
X100414400Y-6945489D02*
X100509638Y-6755013D01*
X100509638Y-6755013D02*
X100509638Y-6374060D01*
X100509638Y-6374060D02*
X100414400Y-6183584D01*
X100414400Y-6183584D02*
X100319161Y-6088346D01*
X100319161Y-6088346D02*
X100128685Y-5993108D01*
X100128685Y-5993108D02*
X98509638Y-5993108D01*
X98509638Y-5326441D02*
X98509638Y-4183584D01*
X100509638Y-4755013D02*
X98509638Y-4755013D01*
X183909638Y-13612155D02*
X185909638Y-12945489D01*
X185909638Y-12945489D02*
X183909638Y-12278822D01*
X185147733Y-11612155D02*
X185147733Y-10088346D01*
X185719161Y-7993108D02*
X185814400Y-8088346D01*
X185814400Y-8088346D02*
X185909638Y-8374060D01*
X185909638Y-8374060D02*
X185909638Y-8564536D01*
X185909638Y-8564536D02*
X185814400Y-8850251D01*
X185814400Y-8850251D02*
X185623923Y-9040727D01*
X185623923Y-9040727D02*
X185433447Y-9135965D01*
X185433447Y-9135965D02*
X185052495Y-9231203D01*
X185052495Y-9231203D02*
X184766780Y-9231203D01*
X184766780Y-9231203D02*
X184385828Y-9135965D01*
X184385828Y-9135965D02*
X184195352Y-9040727D01*
X184195352Y-9040727D02*
X184004876Y-8850251D01*
X184004876Y-8850251D02*
X183909638Y-8564536D01*
X183909638Y-8564536D02*
X183909638Y-8374060D01*
X183909638Y-8374060D02*
X184004876Y-8088346D01*
X184004876Y-8088346D02*
X184100114Y-7993108D01*
X183909638Y-7135965D02*
X185528685Y-7135965D01*
X185528685Y-7135965D02*
X185719161Y-7040727D01*
X185719161Y-7040727D02*
X185814400Y-6945489D01*
X185814400Y-6945489D02*
X185909638Y-6755013D01*
X185909638Y-6755013D02*
X185909638Y-6374060D01*
X185909638Y-6374060D02*
X185814400Y-6183584D01*
X185814400Y-6183584D02*
X185719161Y-6088346D01*
X185719161Y-6088346D02*
X185528685Y-5993108D01*
X185528685Y-5993108D02*
X183909638Y-5993108D01*
X183909638Y-5326441D02*
X183909638Y-4183584D01*
X185909638Y-4755013D02*
X183909638Y-4755013D01*
X218987844Y-53409638D02*
X219654510Y-55409638D01*
X219654510Y-55409638D02*
X220321177Y-53409638D01*
X220987844Y-54647733D02*
X222511654Y-54647733D01*
X224606891Y-55219161D02*
X224511653Y-55314400D01*
X224511653Y-55314400D02*
X224225939Y-55409638D01*
X224225939Y-55409638D02*
X224035463Y-55409638D01*
X224035463Y-55409638D02*
X223749748Y-55314400D01*
X223749748Y-55314400D02*
X223559272Y-55123923D01*
X223559272Y-55123923D02*
X223464034Y-54933447D01*
X223464034Y-54933447D02*
X223368796Y-54552495D01*
X223368796Y-54552495D02*
X223368796Y-54266780D01*
X223368796Y-54266780D02*
X223464034Y-53885828D01*
X223464034Y-53885828D02*
X223559272Y-53695352D01*
X223559272Y-53695352D02*
X223749748Y-53504876D01*
X223749748Y-53504876D02*
X224035463Y-53409638D01*
X224035463Y-53409638D02*
X224225939Y-53409638D01*
X224225939Y-53409638D02*
X224511653Y-53504876D01*
X224511653Y-53504876D02*
X224606891Y-53600114D01*
X225464034Y-53409638D02*
X225464034Y-55028685D01*
X225464034Y-55028685D02*
X225559272Y-55219161D01*
X225559272Y-55219161D02*
X225654510Y-55314400D01*
X225654510Y-55314400D02*
X225844986Y-55409638D01*
X225844986Y-55409638D02*
X226225939Y-55409638D01*
X226225939Y-55409638D02*
X226416415Y-55314400D01*
X226416415Y-55314400D02*
X226511653Y-55219161D01*
X226511653Y-55219161D02*
X226606891Y-55028685D01*
X226606891Y-55028685D02*
X226606891Y-53409638D01*
X227273558Y-53409638D02*
X228416415Y-53409638D01*
X227844986Y-55409638D02*
X227844986Y-53409638D01*
X218987844Y-47109638D02*
X219654510Y-49109638D01*
X219654510Y-49109638D02*
X220321177Y-47109638D01*
X220987844Y-48347733D02*
X222511654Y-48347733D01*
X224606891Y-48919161D02*
X224511653Y-49014400D01*
X224511653Y-49014400D02*
X224225939Y-49109638D01*
X224225939Y-49109638D02*
X224035463Y-49109638D01*
X224035463Y-49109638D02*
X223749748Y-49014400D01*
X223749748Y-49014400D02*
X223559272Y-48823923D01*
X223559272Y-48823923D02*
X223464034Y-48633447D01*
X223464034Y-48633447D02*
X223368796Y-48252495D01*
X223368796Y-48252495D02*
X223368796Y-47966780D01*
X223368796Y-47966780D02*
X223464034Y-47585828D01*
X223464034Y-47585828D02*
X223559272Y-47395352D01*
X223559272Y-47395352D02*
X223749748Y-47204876D01*
X223749748Y-47204876D02*
X224035463Y-47109638D01*
X224035463Y-47109638D02*
X224225939Y-47109638D01*
X224225939Y-47109638D02*
X224511653Y-47204876D01*
X224511653Y-47204876D02*
X224606891Y-47300114D01*
X225464034Y-47109638D02*
X225464034Y-48728685D01*
X225464034Y-48728685D02*
X225559272Y-48919161D01*
X225559272Y-48919161D02*
X225654510Y-49014400D01*
X225654510Y-49014400D02*
X225844986Y-49109638D01*
X225844986Y-49109638D02*
X226225939Y-49109638D01*
X226225939Y-49109638D02*
X226416415Y-49014400D01*
X226416415Y-49014400D02*
X226511653Y-48919161D01*
X226511653Y-48919161D02*
X226606891Y-48728685D01*
X226606891Y-48728685D02*
X226606891Y-47109638D01*
X227273558Y-47109638D02*
X228416415Y-47109638D01*
X227844986Y-49109638D02*
X227844986Y-47109638D01*
X135309638Y-13612155D02*
X137309638Y-12945489D01*
X137309638Y-12945489D02*
X135309638Y-12278822D01*
X136547733Y-11612155D02*
X136547733Y-10088346D01*
X137119161Y-7993108D02*
X137214400Y-8088346D01*
X137214400Y-8088346D02*
X137309638Y-8374060D01*
X137309638Y-8374060D02*
X137309638Y-8564536D01*
X137309638Y-8564536D02*
X137214400Y-8850251D01*
X137214400Y-8850251D02*
X137023923Y-9040727D01*
X137023923Y-9040727D02*
X136833447Y-9135965D01*
X136833447Y-9135965D02*
X136452495Y-9231203D01*
X136452495Y-9231203D02*
X136166780Y-9231203D01*
X136166780Y-9231203D02*
X135785828Y-9135965D01*
X135785828Y-9135965D02*
X135595352Y-9040727D01*
X135595352Y-9040727D02*
X135404876Y-8850251D01*
X135404876Y-8850251D02*
X135309638Y-8564536D01*
X135309638Y-8564536D02*
X135309638Y-8374060D01*
X135309638Y-8374060D02*
X135404876Y-8088346D01*
X135404876Y-8088346D02*
X135500114Y-7993108D01*
X135309638Y-7135965D02*
X136928685Y-7135965D01*
X136928685Y-7135965D02*
X137119161Y-7040727D01*
X137119161Y-7040727D02*
X137214400Y-6945489D01*
X137214400Y-6945489D02*
X137309638Y-6755013D01*
X137309638Y-6755013D02*
X137309638Y-6374060D01*
X137309638Y-6374060D02*
X137214400Y-6183584D01*
X137214400Y-6183584D02*
X137119161Y-6088346D01*
X137119161Y-6088346D02*
X136928685Y-5993108D01*
X136928685Y-5993108D02*
X135309638Y-5993108D01*
X135309638Y-5326441D02*
X135309638Y-4183584D01*
X137309638Y-4755013D02*
X135309638Y-4755013D01*
X123109638Y-13612155D02*
X125109638Y-12945489D01*
X125109638Y-12945489D02*
X123109638Y-12278822D01*
X124347733Y-11612155D02*
X124347733Y-10088346D01*
X124919161Y-7993108D02*
X125014400Y-8088346D01*
X125014400Y-8088346D02*
X125109638Y-8374060D01*
X125109638Y-8374060D02*
X125109638Y-8564536D01*
X125109638Y-8564536D02*
X125014400Y-8850251D01*
X125014400Y-8850251D02*
X124823923Y-9040727D01*
X124823923Y-9040727D02*
X124633447Y-9135965D01*
X124633447Y-9135965D02*
X124252495Y-9231203D01*
X124252495Y-9231203D02*
X123966780Y-9231203D01*
X123966780Y-9231203D02*
X123585828Y-9135965D01*
X123585828Y-9135965D02*
X123395352Y-9040727D01*
X123395352Y-9040727D02*
X123204876Y-8850251D01*
X123204876Y-8850251D02*
X123109638Y-8564536D01*
X123109638Y-8564536D02*
X123109638Y-8374060D01*
X123109638Y-8374060D02*
X123204876Y-8088346D01*
X123204876Y-8088346D02*
X123300114Y-7993108D01*
X123109638Y-7135965D02*
X124728685Y-7135965D01*
X124728685Y-7135965D02*
X124919161Y-7040727D01*
X124919161Y-7040727D02*
X125014400Y-6945489D01*
X125014400Y-6945489D02*
X125109638Y-6755013D01*
X125109638Y-6755013D02*
X125109638Y-6374060D01*
X125109638Y-6374060D02*
X125014400Y-6183584D01*
X125014400Y-6183584D02*
X124919161Y-6088346D01*
X124919161Y-6088346D02*
X124728685Y-5993108D01*
X124728685Y-5993108D02*
X123109638Y-5993108D01*
X123109638Y-5326441D02*
X123109638Y-4183584D01*
X125109638Y-4755013D02*
X123109638Y-4755013D01*
X218987844Y-28409638D02*
X219654510Y-30409638D01*
X219654510Y-30409638D02*
X220321177Y-28409638D01*
X220987844Y-29647733D02*
X222511654Y-29647733D01*
X224606891Y-30219161D02*
X224511653Y-30314400D01*
X224511653Y-30314400D02*
X224225939Y-30409638D01*
X224225939Y-30409638D02*
X224035463Y-30409638D01*
X224035463Y-30409638D02*
X223749748Y-30314400D01*
X223749748Y-30314400D02*
X223559272Y-30123923D01*
X223559272Y-30123923D02*
X223464034Y-29933447D01*
X223464034Y-29933447D02*
X223368796Y-29552495D01*
X223368796Y-29552495D02*
X223368796Y-29266780D01*
X223368796Y-29266780D02*
X223464034Y-28885828D01*
X223464034Y-28885828D02*
X223559272Y-28695352D01*
X223559272Y-28695352D02*
X223749748Y-28504876D01*
X223749748Y-28504876D02*
X224035463Y-28409638D01*
X224035463Y-28409638D02*
X224225939Y-28409638D01*
X224225939Y-28409638D02*
X224511653Y-28504876D01*
X224511653Y-28504876D02*
X224606891Y-28600114D01*
X225464034Y-28409638D02*
X225464034Y-30028685D01*
X225464034Y-30028685D02*
X225559272Y-30219161D01*
X225559272Y-30219161D02*
X225654510Y-30314400D01*
X225654510Y-30314400D02*
X225844986Y-30409638D01*
X225844986Y-30409638D02*
X226225939Y-30409638D01*
X226225939Y-30409638D02*
X226416415Y-30314400D01*
X226416415Y-30314400D02*
X226511653Y-30219161D01*
X226511653Y-30219161D02*
X226606891Y-30028685D01*
X226606891Y-30028685D02*
X226606891Y-28409638D01*
X227273558Y-28409638D02*
X228416415Y-28409638D01*
X227844986Y-30409638D02*
X227844986Y-28409638D01*
X218987844Y-78609638D02*
X219654510Y-80609638D01*
X219654510Y-80609638D02*
X220321177Y-78609638D01*
X220987844Y-79847733D02*
X222511654Y-79847733D01*
X224606891Y-80419161D02*
X224511653Y-80514400D01*
X224511653Y-80514400D02*
X224225939Y-80609638D01*
X224225939Y-80609638D02*
X224035463Y-80609638D01*
X224035463Y-80609638D02*
X223749748Y-80514400D01*
X223749748Y-80514400D02*
X223559272Y-80323923D01*
X223559272Y-80323923D02*
X223464034Y-80133447D01*
X223464034Y-80133447D02*
X223368796Y-79752495D01*
X223368796Y-79752495D02*
X223368796Y-79466780D01*
X223368796Y-79466780D02*
X223464034Y-79085828D01*
X223464034Y-79085828D02*
X223559272Y-78895352D01*
X223559272Y-78895352D02*
X223749748Y-78704876D01*
X223749748Y-78704876D02*
X224035463Y-78609638D01*
X224035463Y-78609638D02*
X224225939Y-78609638D01*
X224225939Y-78609638D02*
X224511653Y-78704876D01*
X224511653Y-78704876D02*
X224606891Y-78800114D01*
X225464034Y-78609638D02*
X225464034Y-80228685D01*
X225464034Y-80228685D02*
X225559272Y-80419161D01*
X225559272Y-80419161D02*
X225654510Y-80514400D01*
X225654510Y-80514400D02*
X225844986Y-80609638D01*
X225844986Y-80609638D02*
X226225939Y-80609638D01*
X226225939Y-80609638D02*
X226416415Y-80514400D01*
X226416415Y-80514400D02*
X226511653Y-80419161D01*
X226511653Y-80419161D02*
X226606891Y-80228685D01*
X226606891Y-80228685D02*
X226606891Y-78609638D01*
X227273558Y-78609638D02*
X228416415Y-78609638D01*
X227844986Y-80609638D02*
X227844986Y-78609638D01*
X218987844Y-34509638D02*
X219654510Y-36509638D01*
X219654510Y-36509638D02*
X220321177Y-34509638D01*
X220987844Y-35747733D02*
X222511654Y-35747733D01*
X224606891Y-36319161D02*
X224511653Y-36414400D01*
X224511653Y-36414400D02*
X224225939Y-36509638D01*
X224225939Y-36509638D02*
X224035463Y-36509638D01*
X224035463Y-36509638D02*
X223749748Y-36414400D01*
X223749748Y-36414400D02*
X223559272Y-36223923D01*
X223559272Y-36223923D02*
X223464034Y-36033447D01*
X223464034Y-36033447D02*
X223368796Y-35652495D01*
X223368796Y-35652495D02*
X223368796Y-35366780D01*
X223368796Y-35366780D02*
X223464034Y-34985828D01*
X223464034Y-34985828D02*
X223559272Y-34795352D01*
X223559272Y-34795352D02*
X223749748Y-34604876D01*
X223749748Y-34604876D02*
X224035463Y-34509638D01*
X224035463Y-34509638D02*
X224225939Y-34509638D01*
X224225939Y-34509638D02*
X224511653Y-34604876D01*
X224511653Y-34604876D02*
X224606891Y-34700114D01*
X225464034Y-34509638D02*
X225464034Y-36128685D01*
X225464034Y-36128685D02*
X225559272Y-36319161D01*
X225559272Y-36319161D02*
X225654510Y-36414400D01*
X225654510Y-36414400D02*
X225844986Y-36509638D01*
X225844986Y-36509638D02*
X226225939Y-36509638D01*
X226225939Y-36509638D02*
X226416415Y-36414400D01*
X226416415Y-36414400D02*
X226511653Y-36319161D01*
X226511653Y-36319161D02*
X226606891Y-36128685D01*
X226606891Y-36128685D02*
X226606891Y-34509638D01*
X227273558Y-34509638D02*
X228416415Y-34509638D01*
X227844986Y-36509638D02*
X227844986Y-34509638D01*
X196109638Y-13612155D02*
X198109638Y-12945489D01*
X198109638Y-12945489D02*
X196109638Y-12278822D01*
X197347733Y-11612155D02*
X197347733Y-10088346D01*
X197919161Y-7993108D02*
X198014400Y-8088346D01*
X198014400Y-8088346D02*
X198109638Y-8374060D01*
X198109638Y-8374060D02*
X198109638Y-8564536D01*
X198109638Y-8564536D02*
X198014400Y-8850251D01*
X198014400Y-8850251D02*
X197823923Y-9040727D01*
X197823923Y-9040727D02*
X197633447Y-9135965D01*
X197633447Y-9135965D02*
X197252495Y-9231203D01*
X197252495Y-9231203D02*
X196966780Y-9231203D01*
X196966780Y-9231203D02*
X196585828Y-9135965D01*
X196585828Y-9135965D02*
X196395352Y-9040727D01*
X196395352Y-9040727D02*
X196204876Y-8850251D01*
X196204876Y-8850251D02*
X196109638Y-8564536D01*
X196109638Y-8564536D02*
X196109638Y-8374060D01*
X196109638Y-8374060D02*
X196204876Y-8088346D01*
X196204876Y-8088346D02*
X196300114Y-7993108D01*
X196109638Y-7135965D02*
X197728685Y-7135965D01*
X197728685Y-7135965D02*
X197919161Y-7040727D01*
X197919161Y-7040727D02*
X198014400Y-6945489D01*
X198014400Y-6945489D02*
X198109638Y-6755013D01*
X198109638Y-6755013D02*
X198109638Y-6374060D01*
X198109638Y-6374060D02*
X198014400Y-6183584D01*
X198014400Y-6183584D02*
X197919161Y-6088346D01*
X197919161Y-6088346D02*
X197728685Y-5993108D01*
X197728685Y-5993108D02*
X196109638Y-5993108D01*
X196109638Y-5326441D02*
X196109638Y-4183584D01*
X198109638Y-4755013D02*
X196109638Y-4755013D01*
X196309638Y-13612155D02*
X198309638Y-12945489D01*
X198309638Y-12945489D02*
X196309638Y-12278822D01*
X197547733Y-11612155D02*
X197547733Y-10088346D01*
X198119161Y-7993108D02*
X198214400Y-8088346D01*
X198214400Y-8088346D02*
X198309638Y-8374060D01*
X198309638Y-8374060D02*
X198309638Y-8564536D01*
X198309638Y-8564536D02*
X198214400Y-8850251D01*
X198214400Y-8850251D02*
X198023923Y-9040727D01*
X198023923Y-9040727D02*
X197833447Y-9135965D01*
X197833447Y-9135965D02*
X197452495Y-9231203D01*
X197452495Y-9231203D02*
X197166780Y-9231203D01*
X197166780Y-9231203D02*
X196785828Y-9135965D01*
X196785828Y-9135965D02*
X196595352Y-9040727D01*
X196595352Y-9040727D02*
X196404876Y-8850251D01*
X196404876Y-8850251D02*
X196309638Y-8564536D01*
X196309638Y-8564536D02*
X196309638Y-8374060D01*
X196309638Y-8374060D02*
X196404876Y-8088346D01*
X196404876Y-8088346D02*
X196500114Y-7993108D01*
X196309638Y-7135965D02*
X197928685Y-7135965D01*
X197928685Y-7135965D02*
X198119161Y-7040727D01*
X198119161Y-7040727D02*
X198214400Y-6945489D01*
X198214400Y-6945489D02*
X198309638Y-6755013D01*
X198309638Y-6755013D02*
X198309638Y-6374060D01*
X198309638Y-6374060D02*
X198214400Y-6183584D01*
X198214400Y-6183584D02*
X198119161Y-6088346D01*
X198119161Y-6088346D02*
X197928685Y-5993108D01*
X197928685Y-5993108D02*
X196309638Y-5993108D01*
X196309638Y-5326441D02*
X196309638Y-4183584D01*
X198309638Y-4755013D02*
X196309638Y-4755013D01*
X122909638Y-13612155D02*
X124909638Y-12945489D01*
X124909638Y-12945489D02*
X122909638Y-12278822D01*
X124147733Y-11612155D02*
X124147733Y-10088346D01*
X124719161Y-7993108D02*
X124814400Y-8088346D01*
X124814400Y-8088346D02*
X124909638Y-8374060D01*
X124909638Y-8374060D02*
X124909638Y-8564536D01*
X124909638Y-8564536D02*
X124814400Y-8850251D01*
X124814400Y-8850251D02*
X124623923Y-9040727D01*
X124623923Y-9040727D02*
X124433447Y-9135965D01*
X124433447Y-9135965D02*
X124052495Y-9231203D01*
X124052495Y-9231203D02*
X123766780Y-9231203D01*
X123766780Y-9231203D02*
X123385828Y-9135965D01*
X123385828Y-9135965D02*
X123195352Y-9040727D01*
X123195352Y-9040727D02*
X123004876Y-8850251D01*
X123004876Y-8850251D02*
X122909638Y-8564536D01*
X122909638Y-8564536D02*
X122909638Y-8374060D01*
X122909638Y-8374060D02*
X123004876Y-8088346D01*
X123004876Y-8088346D02*
X123100114Y-7993108D01*
X122909638Y-7135965D02*
X124528685Y-7135965D01*
X124528685Y-7135965D02*
X124719161Y-7040727D01*
X124719161Y-7040727D02*
X124814400Y-6945489D01*
X124814400Y-6945489D02*
X124909638Y-6755013D01*
X124909638Y-6755013D02*
X124909638Y-6374060D01*
X124909638Y-6374060D02*
X124814400Y-6183584D01*
X124814400Y-6183584D02*
X124719161Y-6088346D01*
X124719161Y-6088346D02*
X124528685Y-5993108D01*
X124528685Y-5993108D02*
X122909638Y-5993108D01*
X122909638Y-5326441D02*
X122909638Y-4183584D01*
X124909638Y-4755013D02*
X122909638Y-4755013D01*
X218987844Y-59909638D02*
X219654510Y-61909638D01*
X219654510Y-61909638D02*
X220321177Y-59909638D01*
X220987844Y-61147733D02*
X222511654Y-61147733D01*
X224606891Y-61719161D02*
X224511653Y-61814400D01*
X224511653Y-61814400D02*
X224225939Y-61909638D01*
X224225939Y-61909638D02*
X224035463Y-61909638D01*
X224035463Y-61909638D02*
X223749748Y-61814400D01*
X223749748Y-61814400D02*
X223559272Y-61623923D01*
X223559272Y-61623923D02*
X223464034Y-61433447D01*
X223464034Y-61433447D02*
X223368796Y-61052495D01*
X223368796Y-61052495D02*
X223368796Y-60766780D01*
X223368796Y-60766780D02*
X223464034Y-60385828D01*
X223464034Y-60385828D02*
X223559272Y-60195352D01*
X223559272Y-60195352D02*
X223749748Y-60004876D01*
X223749748Y-60004876D02*
X224035463Y-59909638D01*
X224035463Y-59909638D02*
X224225939Y-59909638D01*
X224225939Y-59909638D02*
X224511653Y-60004876D01*
X224511653Y-60004876D02*
X224606891Y-60100114D01*
X225464034Y-59909638D02*
X225464034Y-61528685D01*
X225464034Y-61528685D02*
X225559272Y-61719161D01*
X225559272Y-61719161D02*
X225654510Y-61814400D01*
X225654510Y-61814400D02*
X225844986Y-61909638D01*
X225844986Y-61909638D02*
X226225939Y-61909638D01*
X226225939Y-61909638D02*
X226416415Y-61814400D01*
X226416415Y-61814400D02*
X226511653Y-61719161D01*
X226511653Y-61719161D02*
X226606891Y-61528685D01*
X226606891Y-61528685D02*
X226606891Y-59909638D01*
X227273558Y-59909638D02*
X228416415Y-59909638D01*
X227844986Y-61909638D02*
X227844986Y-59909638D01*
X135109638Y-13612155D02*
X137109638Y-12945489D01*
X137109638Y-12945489D02*
X135109638Y-12278822D01*
X136347733Y-11612155D02*
X136347733Y-10088346D01*
X136919161Y-7993108D02*
X137014400Y-8088346D01*
X137014400Y-8088346D02*
X137109638Y-8374060D01*
X137109638Y-8374060D02*
X137109638Y-8564536D01*
X137109638Y-8564536D02*
X137014400Y-8850251D01*
X137014400Y-8850251D02*
X136823923Y-9040727D01*
X136823923Y-9040727D02*
X136633447Y-9135965D01*
X136633447Y-9135965D02*
X136252495Y-9231203D01*
X136252495Y-9231203D02*
X135966780Y-9231203D01*
X135966780Y-9231203D02*
X135585828Y-9135965D01*
X135585828Y-9135965D02*
X135395352Y-9040727D01*
X135395352Y-9040727D02*
X135204876Y-8850251D01*
X135204876Y-8850251D02*
X135109638Y-8564536D01*
X135109638Y-8564536D02*
X135109638Y-8374060D01*
X135109638Y-8374060D02*
X135204876Y-8088346D01*
X135204876Y-8088346D02*
X135300114Y-7993108D01*
X135109638Y-7135965D02*
X136728685Y-7135965D01*
X136728685Y-7135965D02*
X136919161Y-7040727D01*
X136919161Y-7040727D02*
X137014400Y-6945489D01*
X137014400Y-6945489D02*
X137109638Y-6755013D01*
X137109638Y-6755013D02*
X137109638Y-6374060D01*
X137109638Y-6374060D02*
X137014400Y-6183584D01*
X137014400Y-6183584D02*
X136919161Y-6088346D01*
X136919161Y-6088346D02*
X136728685Y-5993108D01*
X136728685Y-5993108D02*
X135109638Y-5993108D01*
X135109638Y-5326441D02*
X135109638Y-4183584D01*
X137109638Y-4755013D02*
X135109638Y-4755013D01*
X218987844Y-47309638D02*
X219654510Y-49309638D01*
X219654510Y-49309638D02*
X220321177Y-47309638D01*
X220987844Y-48547733D02*
X222511654Y-48547733D01*
X224606891Y-49119161D02*
X224511653Y-49214400D01*
X224511653Y-49214400D02*
X224225939Y-49309638D01*
X224225939Y-49309638D02*
X224035463Y-49309638D01*
X224035463Y-49309638D02*
X223749748Y-49214400D01*
X223749748Y-49214400D02*
X223559272Y-49023923D01*
X223559272Y-49023923D02*
X223464034Y-48833447D01*
X223464034Y-48833447D02*
X223368796Y-48452495D01*
X223368796Y-48452495D02*
X223368796Y-48166780D01*
X223368796Y-48166780D02*
X223464034Y-47785828D01*
X223464034Y-47785828D02*
X223559272Y-47595352D01*
X223559272Y-47595352D02*
X223749748Y-47404876D01*
X223749748Y-47404876D02*
X224035463Y-47309638D01*
X224035463Y-47309638D02*
X224225939Y-47309638D01*
X224225939Y-47309638D02*
X224511653Y-47404876D01*
X224511653Y-47404876D02*
X224606891Y-47500114D01*
X225464034Y-47309638D02*
X225464034Y-48928685D01*
X225464034Y-48928685D02*
X225559272Y-49119161D01*
X225559272Y-49119161D02*
X225654510Y-49214400D01*
X225654510Y-49214400D02*
X225844986Y-49309638D01*
X225844986Y-49309638D02*
X226225939Y-49309638D01*
X226225939Y-49309638D02*
X226416415Y-49214400D01*
X226416415Y-49214400D02*
X226511653Y-49119161D01*
X226511653Y-49119161D02*
X226606891Y-48928685D01*
X226606891Y-48928685D02*
X226606891Y-47309638D01*
X227273558Y-47309638D02*
X228416415Y-47309638D01*
X227844986Y-49309638D02*
X227844986Y-47309638D01*
X184109638Y-13612155D02*
X186109638Y-12945489D01*
X186109638Y-12945489D02*
X184109638Y-12278822D01*
X185347733Y-11612155D02*
X185347733Y-10088346D01*
X185919161Y-7993108D02*
X186014400Y-8088346D01*
X186014400Y-8088346D02*
X186109638Y-8374060D01*
X186109638Y-8374060D02*
X186109638Y-8564536D01*
X186109638Y-8564536D02*
X186014400Y-8850251D01*
X186014400Y-8850251D02*
X185823923Y-9040727D01*
X185823923Y-9040727D02*
X185633447Y-9135965D01*
X185633447Y-9135965D02*
X185252495Y-9231203D01*
X185252495Y-9231203D02*
X184966780Y-9231203D01*
X184966780Y-9231203D02*
X184585828Y-9135965D01*
X184585828Y-9135965D02*
X184395352Y-9040727D01*
X184395352Y-9040727D02*
X184204876Y-8850251D01*
X184204876Y-8850251D02*
X184109638Y-8564536D01*
X184109638Y-8564536D02*
X184109638Y-8374060D01*
X184109638Y-8374060D02*
X184204876Y-8088346D01*
X184204876Y-8088346D02*
X184300114Y-7993108D01*
X184109638Y-7135965D02*
X185728685Y-7135965D01*
X185728685Y-7135965D02*
X185919161Y-7040727D01*
X185919161Y-7040727D02*
X186014400Y-6945489D01*
X186014400Y-6945489D02*
X186109638Y-6755013D01*
X186109638Y-6755013D02*
X186109638Y-6374060D01*
X186109638Y-6374060D02*
X186014400Y-6183584D01*
X186014400Y-6183584D02*
X185919161Y-6088346D01*
X185919161Y-6088346D02*
X185728685Y-5993108D01*
X185728685Y-5993108D02*
X184109638Y-5993108D01*
X184109638Y-5326441D02*
X184109638Y-4183584D01*
X186109638Y-4755013D02*
X184109638Y-4755013D01*
X86509638Y-13612155D02*
X88509638Y-12945489D01*
X88509638Y-12945489D02*
X86509638Y-12278822D01*
X87747733Y-11612155D02*
X87747733Y-10088346D01*
X88319161Y-7993108D02*
X88414400Y-8088346D01*
X88414400Y-8088346D02*
X88509638Y-8374060D01*
X88509638Y-8374060D02*
X88509638Y-8564536D01*
X88509638Y-8564536D02*
X88414400Y-8850251D01*
X88414400Y-8850251D02*
X88223923Y-9040727D01*
X88223923Y-9040727D02*
X88033447Y-9135965D01*
X88033447Y-9135965D02*
X87652495Y-9231203D01*
X87652495Y-9231203D02*
X87366780Y-9231203D01*
X87366780Y-9231203D02*
X86985828Y-9135965D01*
X86985828Y-9135965D02*
X86795352Y-9040727D01*
X86795352Y-9040727D02*
X86604876Y-8850251D01*
X86604876Y-8850251D02*
X86509638Y-8564536D01*
X86509638Y-8564536D02*
X86509638Y-8374060D01*
X86509638Y-8374060D02*
X86604876Y-8088346D01*
X86604876Y-8088346D02*
X86700114Y-7993108D01*
X86509638Y-7135965D02*
X88128685Y-7135965D01*
X88128685Y-7135965D02*
X88319161Y-7040727D01*
X88319161Y-7040727D02*
X88414400Y-6945489D01*
X88414400Y-6945489D02*
X88509638Y-6755013D01*
X88509638Y-6755013D02*
X88509638Y-6374060D01*
X88509638Y-6374060D02*
X88414400Y-6183584D01*
X88414400Y-6183584D02*
X88319161Y-6088346D01*
X88319161Y-6088346D02*
X88128685Y-5993108D01*
X88128685Y-5993108D02*
X86509638Y-5993108D01*
X86509638Y-5326441D02*
X86509638Y-4183584D01*
X88509638Y-4755013D02*
X86509638Y-4755013D01*
X110709638Y-13612155D02*
X112709638Y-12945489D01*
X112709638Y-12945489D02*
X110709638Y-12278822D01*
X111947733Y-11612155D02*
X111947733Y-10088346D01*
X112519161Y-7993108D02*
X112614400Y-8088346D01*
X112614400Y-8088346D02*
X112709638Y-8374060D01*
X112709638Y-8374060D02*
X112709638Y-8564536D01*
X112709638Y-8564536D02*
X112614400Y-8850251D01*
X112614400Y-8850251D02*
X112423923Y-9040727D01*
X112423923Y-9040727D02*
X112233447Y-9135965D01*
X112233447Y-9135965D02*
X111852495Y-9231203D01*
X111852495Y-9231203D02*
X111566780Y-9231203D01*
X111566780Y-9231203D02*
X111185828Y-9135965D01*
X111185828Y-9135965D02*
X110995352Y-9040727D01*
X110995352Y-9040727D02*
X110804876Y-8850251D01*
X110804876Y-8850251D02*
X110709638Y-8564536D01*
X110709638Y-8564536D02*
X110709638Y-8374060D01*
X110709638Y-8374060D02*
X110804876Y-8088346D01*
X110804876Y-8088346D02*
X110900114Y-7993108D01*
X110709638Y-7135965D02*
X112328685Y-7135965D01*
X112328685Y-7135965D02*
X112519161Y-7040727D01*
X112519161Y-7040727D02*
X112614400Y-6945489D01*
X112614400Y-6945489D02*
X112709638Y-6755013D01*
X112709638Y-6755013D02*
X112709638Y-6374060D01*
X112709638Y-6374060D02*
X112614400Y-6183584D01*
X112614400Y-6183584D02*
X112519161Y-6088346D01*
X112519161Y-6088346D02*
X112328685Y-5993108D01*
X112328685Y-5993108D02*
X110709638Y-5993108D01*
X110709638Y-5326441D02*
X110709638Y-4183584D01*
X112709638Y-4755013D02*
X110709638Y-4755013D01*
X218987844Y-28209638D02*
X219654510Y-30209638D01*
X219654510Y-30209638D02*
X220321177Y-28209638D01*
X220987844Y-29447733D02*
X222511654Y-29447733D01*
X224606891Y-30019161D02*
X224511653Y-30114400D01*
X224511653Y-30114400D02*
X224225939Y-30209638D01*
X224225939Y-30209638D02*
X224035463Y-30209638D01*
X224035463Y-30209638D02*
X223749748Y-30114400D01*
X223749748Y-30114400D02*
X223559272Y-29923923D01*
X223559272Y-29923923D02*
X223464034Y-29733447D01*
X223464034Y-29733447D02*
X223368796Y-29352495D01*
X223368796Y-29352495D02*
X223368796Y-29066780D01*
X223368796Y-29066780D02*
X223464034Y-28685828D01*
X223464034Y-28685828D02*
X223559272Y-28495352D01*
X223559272Y-28495352D02*
X223749748Y-28304876D01*
X223749748Y-28304876D02*
X224035463Y-28209638D01*
X224035463Y-28209638D02*
X224225939Y-28209638D01*
X224225939Y-28209638D02*
X224511653Y-28304876D01*
X224511653Y-28304876D02*
X224606891Y-28400114D01*
X225464034Y-28209638D02*
X225464034Y-29828685D01*
X225464034Y-29828685D02*
X225559272Y-30019161D01*
X225559272Y-30019161D02*
X225654510Y-30114400D01*
X225654510Y-30114400D02*
X225844986Y-30209638D01*
X225844986Y-30209638D02*
X226225939Y-30209638D01*
X226225939Y-30209638D02*
X226416415Y-30114400D01*
X226416415Y-30114400D02*
X226511653Y-30019161D01*
X226511653Y-30019161D02*
X226606891Y-29828685D01*
X226606891Y-29828685D02*
X226606891Y-28209638D01*
X227273558Y-28209638D02*
X228416415Y-28209638D01*
X227844986Y-30209638D02*
X227844986Y-28209638D01*
X218987844Y-84909638D02*
X219654510Y-86909638D01*
X219654510Y-86909638D02*
X220321177Y-84909638D01*
X220987844Y-86147733D02*
X222511654Y-86147733D01*
X224606891Y-86719161D02*
X224511653Y-86814400D01*
X224511653Y-86814400D02*
X224225939Y-86909638D01*
X224225939Y-86909638D02*
X224035463Y-86909638D01*
X224035463Y-86909638D02*
X223749748Y-86814400D01*
X223749748Y-86814400D02*
X223559272Y-86623923D01*
X223559272Y-86623923D02*
X223464034Y-86433447D01*
X223464034Y-86433447D02*
X223368796Y-86052495D01*
X223368796Y-86052495D02*
X223368796Y-85766780D01*
X223368796Y-85766780D02*
X223464034Y-85385828D01*
X223464034Y-85385828D02*
X223559272Y-85195352D01*
X223559272Y-85195352D02*
X223749748Y-85004876D01*
X223749748Y-85004876D02*
X224035463Y-84909638D01*
X224035463Y-84909638D02*
X224225939Y-84909638D01*
X224225939Y-84909638D02*
X224511653Y-85004876D01*
X224511653Y-85004876D02*
X224606891Y-85100114D01*
X225464034Y-84909638D02*
X225464034Y-86528685D01*
X225464034Y-86528685D02*
X225559272Y-86719161D01*
X225559272Y-86719161D02*
X225654510Y-86814400D01*
X225654510Y-86814400D02*
X225844986Y-86909638D01*
X225844986Y-86909638D02*
X226225939Y-86909638D01*
X226225939Y-86909638D02*
X226416415Y-86814400D01*
X226416415Y-86814400D02*
X226511653Y-86719161D01*
X226511653Y-86719161D02*
X226606891Y-86528685D01*
X226606891Y-86528685D02*
X226606891Y-84909638D01*
X227273558Y-84909638D02*
X228416415Y-84909638D01*
X227844986Y-86909638D02*
X227844986Y-84909638D01*
X98709638Y-13612155D02*
X100709638Y-12945489D01*
X100709638Y-12945489D02*
X98709638Y-12278822D01*
X99947733Y-11612155D02*
X99947733Y-10088346D01*
X100519161Y-7993108D02*
X100614400Y-8088346D01*
X100614400Y-8088346D02*
X100709638Y-8374060D01*
X100709638Y-8374060D02*
X100709638Y-8564536D01*
X100709638Y-8564536D02*
X100614400Y-8850251D01*
X100614400Y-8850251D02*
X100423923Y-9040727D01*
X100423923Y-9040727D02*
X100233447Y-9135965D01*
X100233447Y-9135965D02*
X99852495Y-9231203D01*
X99852495Y-9231203D02*
X99566780Y-9231203D01*
X99566780Y-9231203D02*
X99185828Y-9135965D01*
X99185828Y-9135965D02*
X98995352Y-9040727D01*
X98995352Y-9040727D02*
X98804876Y-8850251D01*
X98804876Y-8850251D02*
X98709638Y-8564536D01*
X98709638Y-8564536D02*
X98709638Y-8374060D01*
X98709638Y-8374060D02*
X98804876Y-8088346D01*
X98804876Y-8088346D02*
X98900114Y-7993108D01*
X98709638Y-7135965D02*
X100328685Y-7135965D01*
X100328685Y-7135965D02*
X100519161Y-7040727D01*
X100519161Y-7040727D02*
X100614400Y-6945489D01*
X100614400Y-6945489D02*
X100709638Y-6755013D01*
X100709638Y-6755013D02*
X100709638Y-6374060D01*
X100709638Y-6374060D02*
X100614400Y-6183584D01*
X100614400Y-6183584D02*
X100519161Y-6088346D01*
X100519161Y-6088346D02*
X100328685Y-5993108D01*
X100328685Y-5993108D02*
X98709638Y-5993108D01*
X98709638Y-5326441D02*
X98709638Y-4183584D01*
X100709638Y-4755013D02*
X98709638Y-4755013D01*
X159509638Y-13612155D02*
X161509638Y-12945489D01*
X161509638Y-12945489D02*
X159509638Y-12278822D01*
X160747733Y-11612155D02*
X160747733Y-10088346D01*
X161319161Y-7993108D02*
X161414400Y-8088346D01*
X161414400Y-8088346D02*
X161509638Y-8374060D01*
X161509638Y-8374060D02*
X161509638Y-8564536D01*
X161509638Y-8564536D02*
X161414400Y-8850251D01*
X161414400Y-8850251D02*
X161223923Y-9040727D01*
X161223923Y-9040727D02*
X161033447Y-9135965D01*
X161033447Y-9135965D02*
X160652495Y-9231203D01*
X160652495Y-9231203D02*
X160366780Y-9231203D01*
X160366780Y-9231203D02*
X159985828Y-9135965D01*
X159985828Y-9135965D02*
X159795352Y-9040727D01*
X159795352Y-9040727D02*
X159604876Y-8850251D01*
X159604876Y-8850251D02*
X159509638Y-8564536D01*
X159509638Y-8564536D02*
X159509638Y-8374060D01*
X159509638Y-8374060D02*
X159604876Y-8088346D01*
X159604876Y-8088346D02*
X159700114Y-7993108D01*
X159509638Y-7135965D02*
X161128685Y-7135965D01*
X161128685Y-7135965D02*
X161319161Y-7040727D01*
X161319161Y-7040727D02*
X161414400Y-6945489D01*
X161414400Y-6945489D02*
X161509638Y-6755013D01*
X161509638Y-6755013D02*
X161509638Y-6374060D01*
X161509638Y-6374060D02*
X161414400Y-6183584D01*
X161414400Y-6183584D02*
X161319161Y-6088346D01*
X161319161Y-6088346D02*
X161128685Y-5993108D01*
X161128685Y-5993108D02*
X159509638Y-5993108D01*
X159509638Y-5326441D02*
X159509638Y-4183584D01*
X161509638Y-4755013D02*
X159509638Y-4755013D01*
X218987844Y-40809638D02*
X219654510Y-42809638D01*
X219654510Y-42809638D02*
X220321177Y-40809638D01*
X220987844Y-42047733D02*
X222511654Y-42047733D01*
X224606891Y-42619161D02*
X224511653Y-42714400D01*
X224511653Y-42714400D02*
X224225939Y-42809638D01*
X224225939Y-42809638D02*
X224035463Y-42809638D01*
X224035463Y-42809638D02*
X223749748Y-42714400D01*
X223749748Y-42714400D02*
X223559272Y-42523923D01*
X223559272Y-42523923D02*
X223464034Y-42333447D01*
X223464034Y-42333447D02*
X223368796Y-41952495D01*
X223368796Y-41952495D02*
X223368796Y-41666780D01*
X223368796Y-41666780D02*
X223464034Y-41285828D01*
X223464034Y-41285828D02*
X223559272Y-41095352D01*
X223559272Y-41095352D02*
X223749748Y-40904876D01*
X223749748Y-40904876D02*
X224035463Y-40809638D01*
X224035463Y-40809638D02*
X224225939Y-40809638D01*
X224225939Y-40809638D02*
X224511653Y-40904876D01*
X224511653Y-40904876D02*
X224606891Y-41000114D01*
X225464034Y-40809638D02*
X225464034Y-42428685D01*
X225464034Y-42428685D02*
X225559272Y-42619161D01*
X225559272Y-42619161D02*
X225654510Y-42714400D01*
X225654510Y-42714400D02*
X225844986Y-42809638D01*
X225844986Y-42809638D02*
X226225939Y-42809638D01*
X226225939Y-42809638D02*
X226416415Y-42714400D01*
X226416415Y-42714400D02*
X226511653Y-42619161D01*
X226511653Y-42619161D02*
X226606891Y-42428685D01*
X226606891Y-42428685D02*
X226606891Y-40809638D01*
X227273558Y-40809638D02*
X228416415Y-40809638D01*
X227844986Y-42809638D02*
X227844986Y-40809638D01*
X147509638Y-13612155D02*
X149509638Y-12945489D01*
X149509638Y-12945489D02*
X147509638Y-12278822D01*
X148747733Y-11612155D02*
X148747733Y-10088346D01*
X149319161Y-7993108D02*
X149414400Y-8088346D01*
X149414400Y-8088346D02*
X149509638Y-8374060D01*
X149509638Y-8374060D02*
X149509638Y-8564536D01*
X149509638Y-8564536D02*
X149414400Y-8850251D01*
X149414400Y-8850251D02*
X149223923Y-9040727D01*
X149223923Y-9040727D02*
X149033447Y-9135965D01*
X149033447Y-9135965D02*
X148652495Y-9231203D01*
X148652495Y-9231203D02*
X148366780Y-9231203D01*
X148366780Y-9231203D02*
X147985828Y-9135965D01*
X147985828Y-9135965D02*
X147795352Y-9040727D01*
X147795352Y-9040727D02*
X147604876Y-8850251D01*
X147604876Y-8850251D02*
X147509638Y-8564536D01*
X147509638Y-8564536D02*
X147509638Y-8374060D01*
X147509638Y-8374060D02*
X147604876Y-8088346D01*
X147604876Y-8088346D02*
X147700114Y-7993108D01*
X147509638Y-7135965D02*
X149128685Y-7135965D01*
X149128685Y-7135965D02*
X149319161Y-7040727D01*
X149319161Y-7040727D02*
X149414400Y-6945489D01*
X149414400Y-6945489D02*
X149509638Y-6755013D01*
X149509638Y-6755013D02*
X149509638Y-6374060D01*
X149509638Y-6374060D02*
X149414400Y-6183584D01*
X149414400Y-6183584D02*
X149319161Y-6088346D01*
X149319161Y-6088346D02*
X149128685Y-5993108D01*
X149128685Y-5993108D02*
X147509638Y-5993108D01*
X147509638Y-5326441D02*
X147509638Y-4183584D01*
X149509638Y-4755013D02*
X147509638Y-4755013D01*
X218987844Y-41009638D02*
X219654510Y-43009638D01*
X219654510Y-43009638D02*
X220321177Y-41009638D01*
X220987844Y-42247733D02*
X222511654Y-42247733D01*
X224606891Y-42819161D02*
X224511653Y-42914400D01*
X224511653Y-42914400D02*
X224225939Y-43009638D01*
X224225939Y-43009638D02*
X224035463Y-43009638D01*
X224035463Y-43009638D02*
X223749748Y-42914400D01*
X223749748Y-42914400D02*
X223559272Y-42723923D01*
X223559272Y-42723923D02*
X223464034Y-42533447D01*
X223464034Y-42533447D02*
X223368796Y-42152495D01*
X223368796Y-42152495D02*
X223368796Y-41866780D01*
X223368796Y-41866780D02*
X223464034Y-41485828D01*
X223464034Y-41485828D02*
X223559272Y-41295352D01*
X223559272Y-41295352D02*
X223749748Y-41104876D01*
X223749748Y-41104876D02*
X224035463Y-41009638D01*
X224035463Y-41009638D02*
X224225939Y-41009638D01*
X224225939Y-41009638D02*
X224511653Y-41104876D01*
X224511653Y-41104876D02*
X224606891Y-41200114D01*
X225464034Y-41009638D02*
X225464034Y-42628685D01*
X225464034Y-42628685D02*
X225559272Y-42819161D01*
X225559272Y-42819161D02*
X225654510Y-42914400D01*
X225654510Y-42914400D02*
X225844986Y-43009638D01*
X225844986Y-43009638D02*
X226225939Y-43009638D01*
X226225939Y-43009638D02*
X226416415Y-42914400D01*
X226416415Y-42914400D02*
X226511653Y-42819161D01*
X226511653Y-42819161D02*
X226606891Y-42628685D01*
X226606891Y-42628685D02*
X226606891Y-41009638D01*
X227273558Y-41009638D02*
X228416415Y-41009638D01*
X227844986Y-43009638D02*
X227844986Y-41009638D01*
X218987844Y-72509638D02*
X219654510Y-74509638D01*
X219654510Y-74509638D02*
X220321177Y-72509638D01*
X220987844Y-73747733D02*
X222511654Y-73747733D01*
X224606891Y-74319161D02*
X224511653Y-74414400D01*
X224511653Y-74414400D02*
X224225939Y-74509638D01*
X224225939Y-74509638D02*
X224035463Y-74509638D01*
X224035463Y-74509638D02*
X223749748Y-74414400D01*
X223749748Y-74414400D02*
X223559272Y-74223923D01*
X223559272Y-74223923D02*
X223464034Y-74033447D01*
X223464034Y-74033447D02*
X223368796Y-73652495D01*
X223368796Y-73652495D02*
X223368796Y-73366780D01*
X223368796Y-73366780D02*
X223464034Y-72985828D01*
X223464034Y-72985828D02*
X223559272Y-72795352D01*
X223559272Y-72795352D02*
X223749748Y-72604876D01*
X223749748Y-72604876D02*
X224035463Y-72509638D01*
X224035463Y-72509638D02*
X224225939Y-72509638D01*
X224225939Y-72509638D02*
X224511653Y-72604876D01*
X224511653Y-72604876D02*
X224606891Y-72700114D01*
X225464034Y-72509638D02*
X225464034Y-74128685D01*
X225464034Y-74128685D02*
X225559272Y-74319161D01*
X225559272Y-74319161D02*
X225654510Y-74414400D01*
X225654510Y-74414400D02*
X225844986Y-74509638D01*
X225844986Y-74509638D02*
X226225939Y-74509638D01*
X226225939Y-74509638D02*
X226416415Y-74414400D01*
X226416415Y-74414400D02*
X226511653Y-74319161D01*
X226511653Y-74319161D02*
X226606891Y-74128685D01*
X226606891Y-74128685D02*
X226606891Y-72509638D01*
X227273558Y-72509638D02*
X228416415Y-72509638D01*
X227844986Y-74509638D02*
X227844986Y-72509638D01*
X218987844Y-72309638D02*
X219654510Y-74309638D01*
X219654510Y-74309638D02*
X220321177Y-72309638D01*
X220987844Y-73547733D02*
X222511654Y-73547733D01*
X224606891Y-74119161D02*
X224511653Y-74214400D01*
X224511653Y-74214400D02*
X224225939Y-74309638D01*
X224225939Y-74309638D02*
X224035463Y-74309638D01*
X224035463Y-74309638D02*
X223749748Y-74214400D01*
X223749748Y-74214400D02*
X223559272Y-74023923D01*
X223559272Y-74023923D02*
X223464034Y-73833447D01*
X223464034Y-73833447D02*
X223368796Y-73452495D01*
X223368796Y-73452495D02*
X223368796Y-73166780D01*
X223368796Y-73166780D02*
X223464034Y-72785828D01*
X223464034Y-72785828D02*
X223559272Y-72595352D01*
X223559272Y-72595352D02*
X223749748Y-72404876D01*
X223749748Y-72404876D02*
X224035463Y-72309638D01*
X224035463Y-72309638D02*
X224225939Y-72309638D01*
X224225939Y-72309638D02*
X224511653Y-72404876D01*
X224511653Y-72404876D02*
X224606891Y-72500114D01*
X225464034Y-72309638D02*
X225464034Y-73928685D01*
X225464034Y-73928685D02*
X225559272Y-74119161D01*
X225559272Y-74119161D02*
X225654510Y-74214400D01*
X225654510Y-74214400D02*
X225844986Y-74309638D01*
X225844986Y-74309638D02*
X226225939Y-74309638D01*
X226225939Y-74309638D02*
X226416415Y-74214400D01*
X226416415Y-74214400D02*
X226511653Y-74119161D01*
X226511653Y-74119161D02*
X226606891Y-73928685D01*
X226606891Y-73928685D02*
X226606891Y-72309638D01*
X227273558Y-72309638D02*
X228416415Y-72309638D01*
X227844986Y-74309638D02*
X227844986Y-72309638D01*
X159709638Y-13612155D02*
X161709638Y-12945489D01*
X161709638Y-12945489D02*
X159709638Y-12278822D01*
X160947733Y-11612155D02*
X160947733Y-10088346D01*
X161519161Y-7993108D02*
X161614400Y-8088346D01*
X161614400Y-8088346D02*
X161709638Y-8374060D01*
X161709638Y-8374060D02*
X161709638Y-8564536D01*
X161709638Y-8564536D02*
X161614400Y-8850251D01*
X161614400Y-8850251D02*
X161423923Y-9040727D01*
X161423923Y-9040727D02*
X161233447Y-9135965D01*
X161233447Y-9135965D02*
X160852495Y-9231203D01*
X160852495Y-9231203D02*
X160566780Y-9231203D01*
X160566780Y-9231203D02*
X160185828Y-9135965D01*
X160185828Y-9135965D02*
X159995352Y-9040727D01*
X159995352Y-9040727D02*
X159804876Y-8850251D01*
X159804876Y-8850251D02*
X159709638Y-8564536D01*
X159709638Y-8564536D02*
X159709638Y-8374060D01*
X159709638Y-8374060D02*
X159804876Y-8088346D01*
X159804876Y-8088346D02*
X159900114Y-7993108D01*
X159709638Y-7135965D02*
X161328685Y-7135965D01*
X161328685Y-7135965D02*
X161519161Y-7040727D01*
X161519161Y-7040727D02*
X161614400Y-6945489D01*
X161614400Y-6945489D02*
X161709638Y-6755013D01*
X161709638Y-6755013D02*
X161709638Y-6374060D01*
X161709638Y-6374060D02*
X161614400Y-6183584D01*
X161614400Y-6183584D02*
X161519161Y-6088346D01*
X161519161Y-6088346D02*
X161328685Y-5993108D01*
X161328685Y-5993108D02*
X159709638Y-5993108D01*
X159709638Y-5326441D02*
X159709638Y-4183584D01*
X161709638Y-4755013D02*
X159709638Y-4755013D01*
X110909638Y-13612155D02*
X112909638Y-12945489D01*
X112909638Y-12945489D02*
X110909638Y-12278822D01*
X112147733Y-11612155D02*
X112147733Y-10088346D01*
X112719161Y-7993108D02*
X112814400Y-8088346D01*
X112814400Y-8088346D02*
X112909638Y-8374060D01*
X112909638Y-8374060D02*
X112909638Y-8564536D01*
X112909638Y-8564536D02*
X112814400Y-8850251D01*
X112814400Y-8850251D02*
X112623923Y-9040727D01*
X112623923Y-9040727D02*
X112433447Y-9135965D01*
X112433447Y-9135965D02*
X112052495Y-9231203D01*
X112052495Y-9231203D02*
X111766780Y-9231203D01*
X111766780Y-9231203D02*
X111385828Y-9135965D01*
X111385828Y-9135965D02*
X111195352Y-9040727D01*
X111195352Y-9040727D02*
X111004876Y-8850251D01*
X111004876Y-8850251D02*
X110909638Y-8564536D01*
X110909638Y-8564536D02*
X110909638Y-8374060D01*
X110909638Y-8374060D02*
X111004876Y-8088346D01*
X111004876Y-8088346D02*
X111100114Y-7993108D01*
X110909638Y-7135965D02*
X112528685Y-7135965D01*
X112528685Y-7135965D02*
X112719161Y-7040727D01*
X112719161Y-7040727D02*
X112814400Y-6945489D01*
X112814400Y-6945489D02*
X112909638Y-6755013D01*
X112909638Y-6755013D02*
X112909638Y-6374060D01*
X112909638Y-6374060D02*
X112814400Y-6183584D01*
X112814400Y-6183584D02*
X112719161Y-6088346D01*
X112719161Y-6088346D02*
X112528685Y-5993108D01*
X112528685Y-5993108D02*
X110909638Y-5993108D01*
X110909638Y-5326441D02*
X110909638Y-4183584D01*
X112909638Y-4755013D02*
X110909638Y-4755013D01*
X147309638Y-13612155D02*
X149309638Y-12945489D01*
X149309638Y-12945489D02*
X147309638Y-12278822D01*
X148547733Y-11612155D02*
X148547733Y-10088346D01*
X149119161Y-7993108D02*
X149214400Y-8088346D01*
X149214400Y-8088346D02*
X149309638Y-8374060D01*
X149309638Y-8374060D02*
X149309638Y-8564536D01*
X149309638Y-8564536D02*
X149214400Y-8850251D01*
X149214400Y-8850251D02*
X149023923Y-9040727D01*
X149023923Y-9040727D02*
X148833447Y-9135965D01*
X148833447Y-9135965D02*
X148452495Y-9231203D01*
X148452495Y-9231203D02*
X148166780Y-9231203D01*
X148166780Y-9231203D02*
X147785828Y-9135965D01*
X147785828Y-9135965D02*
X147595352Y-9040727D01*
X147595352Y-9040727D02*
X147404876Y-8850251D01*
X147404876Y-8850251D02*
X147309638Y-8564536D01*
X147309638Y-8564536D02*
X147309638Y-8374060D01*
X147309638Y-8374060D02*
X147404876Y-8088346D01*
X147404876Y-8088346D02*
X147500114Y-7993108D01*
X147309638Y-7135965D02*
X148928685Y-7135965D01*
X148928685Y-7135965D02*
X149119161Y-7040727D01*
X149119161Y-7040727D02*
X149214400Y-6945489D01*
X149214400Y-6945489D02*
X149309638Y-6755013D01*
X149309638Y-6755013D02*
X149309638Y-6374060D01*
X149309638Y-6374060D02*
X149214400Y-6183584D01*
X149214400Y-6183584D02*
X149119161Y-6088346D01*
X149119161Y-6088346D02*
X148928685Y-5993108D01*
X148928685Y-5993108D02*
X147309638Y-5993108D01*
X147309638Y-5326441D02*
X147309638Y-4183584D01*
X149309638Y-4755013D02*
X147309638Y-4755013D01*
X218987844Y-22109638D02*
X219654510Y-24109638D01*
X219654510Y-24109638D02*
X220321177Y-22109638D01*
X220987844Y-23347733D02*
X222511654Y-23347733D01*
X224606891Y-23919161D02*
X224511653Y-24014400D01*
X224511653Y-24014400D02*
X224225939Y-24109638D01*
X224225939Y-24109638D02*
X224035463Y-24109638D01*
X224035463Y-24109638D02*
X223749748Y-24014400D01*
X223749748Y-24014400D02*
X223559272Y-23823923D01*
X223559272Y-23823923D02*
X223464034Y-23633447D01*
X223464034Y-23633447D02*
X223368796Y-23252495D01*
X223368796Y-23252495D02*
X223368796Y-22966780D01*
X223368796Y-22966780D02*
X223464034Y-22585828D01*
X223464034Y-22585828D02*
X223559272Y-22395352D01*
X223559272Y-22395352D02*
X223749748Y-22204876D01*
X223749748Y-22204876D02*
X224035463Y-22109638D01*
X224035463Y-22109638D02*
X224225939Y-22109638D01*
X224225939Y-22109638D02*
X224511653Y-22204876D01*
X224511653Y-22204876D02*
X224606891Y-22300114D01*
X225464034Y-22109638D02*
X225464034Y-23728685D01*
X225464034Y-23728685D02*
X225559272Y-23919161D01*
X225559272Y-23919161D02*
X225654510Y-24014400D01*
X225654510Y-24014400D02*
X225844986Y-24109638D01*
X225844986Y-24109638D02*
X226225939Y-24109638D01*
X226225939Y-24109638D02*
X226416415Y-24014400D01*
X226416415Y-24014400D02*
X226511653Y-23919161D01*
X226511653Y-23919161D02*
X226606891Y-23728685D01*
X226606891Y-23728685D02*
X226606891Y-22109638D01*
X227273558Y-22109638D02*
X228416415Y-22109638D01*
X227844986Y-24109638D02*
X227844986Y-22109638D01*
X218987844Y-78809638D02*
X219654510Y-80809638D01*
X219654510Y-80809638D02*
X220321177Y-78809638D01*
X220987844Y-80047733D02*
X222511654Y-80047733D01*
X224606891Y-80619161D02*
X224511653Y-80714400D01*
X224511653Y-80714400D02*
X224225939Y-80809638D01*
X224225939Y-80809638D02*
X224035463Y-80809638D01*
X224035463Y-80809638D02*
X223749748Y-80714400D01*
X223749748Y-80714400D02*
X223559272Y-80523923D01*
X223559272Y-80523923D02*
X223464034Y-80333447D01*
X223464034Y-80333447D02*
X223368796Y-79952495D01*
X223368796Y-79952495D02*
X223368796Y-79666780D01*
X223368796Y-79666780D02*
X223464034Y-79285828D01*
X223464034Y-79285828D02*
X223559272Y-79095352D01*
X223559272Y-79095352D02*
X223749748Y-78904876D01*
X223749748Y-78904876D02*
X224035463Y-78809638D01*
X224035463Y-78809638D02*
X224225939Y-78809638D01*
X224225939Y-78809638D02*
X224511653Y-78904876D01*
X224511653Y-78904876D02*
X224606891Y-79000114D01*
X225464034Y-78809638D02*
X225464034Y-80428685D01*
X225464034Y-80428685D02*
X225559272Y-80619161D01*
X225559272Y-80619161D02*
X225654510Y-80714400D01*
X225654510Y-80714400D02*
X225844986Y-80809638D01*
X225844986Y-80809638D02*
X226225939Y-80809638D01*
X226225939Y-80809638D02*
X226416415Y-80714400D01*
X226416415Y-80714400D02*
X226511653Y-80619161D01*
X226511653Y-80619161D02*
X226606891Y-80428685D01*
X226606891Y-80428685D02*
X226606891Y-78809638D01*
X227273558Y-78809638D02*
X228416415Y-78809638D01*
X227844986Y-80809638D02*
X227844986Y-78809638D01*
X218987844Y-59709638D02*
X219654510Y-61709638D01*
X219654510Y-61709638D02*
X220321177Y-59709638D01*
X220987844Y-60947733D02*
X222511654Y-60947733D01*
X224606891Y-61519161D02*
X224511653Y-61614400D01*
X224511653Y-61614400D02*
X224225939Y-61709638D01*
X224225939Y-61709638D02*
X224035463Y-61709638D01*
X224035463Y-61709638D02*
X223749748Y-61614400D01*
X223749748Y-61614400D02*
X223559272Y-61423923D01*
X223559272Y-61423923D02*
X223464034Y-61233447D01*
X223464034Y-61233447D02*
X223368796Y-60852495D01*
X223368796Y-60852495D02*
X223368796Y-60566780D01*
X223368796Y-60566780D02*
X223464034Y-60185828D01*
X223464034Y-60185828D02*
X223559272Y-59995352D01*
X223559272Y-59995352D02*
X223749748Y-59804876D01*
X223749748Y-59804876D02*
X224035463Y-59709638D01*
X224035463Y-59709638D02*
X224225939Y-59709638D01*
X224225939Y-59709638D02*
X224511653Y-59804876D01*
X224511653Y-59804876D02*
X224606891Y-59900114D01*
X225464034Y-59709638D02*
X225464034Y-61328685D01*
X225464034Y-61328685D02*
X225559272Y-61519161D01*
X225559272Y-61519161D02*
X225654510Y-61614400D01*
X225654510Y-61614400D02*
X225844986Y-61709638D01*
X225844986Y-61709638D02*
X226225939Y-61709638D01*
X226225939Y-61709638D02*
X226416415Y-61614400D01*
X226416415Y-61614400D02*
X226511653Y-61519161D01*
X226511653Y-61519161D02*
X226606891Y-61328685D01*
X226606891Y-61328685D02*
X226606891Y-59709638D01*
X227273558Y-59709638D02*
X228416415Y-59709638D01*
X227844986Y-61709638D02*
X227844986Y-59709638D01*
X218987844Y-53609638D02*
X219654510Y-55609638D01*
X219654510Y-55609638D02*
X220321177Y-53609638D01*
X220987844Y-54847733D02*
X222511654Y-54847733D01*
X224606891Y-55419161D02*
X224511653Y-55514400D01*
X224511653Y-55514400D02*
X224225939Y-55609638D01*
X224225939Y-55609638D02*
X224035463Y-55609638D01*
X224035463Y-55609638D02*
X223749748Y-55514400D01*
X223749748Y-55514400D02*
X223559272Y-55323923D01*
X223559272Y-55323923D02*
X223464034Y-55133447D01*
X223464034Y-55133447D02*
X223368796Y-54752495D01*
X223368796Y-54752495D02*
X223368796Y-54466780D01*
X223368796Y-54466780D02*
X223464034Y-54085828D01*
X223464034Y-54085828D02*
X223559272Y-53895352D01*
X223559272Y-53895352D02*
X223749748Y-53704876D01*
X223749748Y-53704876D02*
X224035463Y-53609638D01*
X224035463Y-53609638D02*
X224225939Y-53609638D01*
X224225939Y-53609638D02*
X224511653Y-53704876D01*
X224511653Y-53704876D02*
X224606891Y-53800114D01*
X225464034Y-53609638D02*
X225464034Y-55228685D01*
X225464034Y-55228685D02*
X225559272Y-55419161D01*
X225559272Y-55419161D02*
X225654510Y-55514400D01*
X225654510Y-55514400D02*
X225844986Y-55609638D01*
X225844986Y-55609638D02*
X226225939Y-55609638D01*
X226225939Y-55609638D02*
X226416415Y-55514400D01*
X226416415Y-55514400D02*
X226511653Y-55419161D01*
X226511653Y-55419161D02*
X226606891Y-55228685D01*
X226606891Y-55228685D02*
X226606891Y-53609638D01*
X227273558Y-53609638D02*
X228416415Y-53609638D01*
X227844986Y-55609638D02*
X227844986Y-53609638D01*
M02*
