%TF.GenerationSoftware,KiCad,Pcbnew,9.0.3*%
%TF.CreationDate,2025-08-30T17:40:09+05:30*%
%TF.ProjectId,Panel,50616e65-6c2e-46b6-9963-61645f706362,Rev 1.0*%
%TF.SameCoordinates,Original*%
%TF.FileFunction,Paste,Top*%
%TF.FilePolarity,Positive*%
%FSLAX46Y46*%
G04 Gerber Fmt 4.6, Leading zero omitted, Abs format (unit mm)*
G04 Created by KiCad (PCBNEW 9.0.3) date 2025-08-30 17:40:09*
%MOMM*%
%LPD*%
G01*
G04 APERTURE LIST*
%ADD10R,0.280000X1.060000*%
G04 APERTURE END LIST*
D10*
%TO.C,J4*%
X145150000Y-64320000D03*
X144650000Y-64320000D03*
X144150000Y-64320000D03*
X143650000Y-64320000D03*
X143150000Y-64320000D03*
X142650000Y-64320000D03*
X142150000Y-64320000D03*
X141650000Y-64320000D03*
X141150000Y-64320000D03*
X140650000Y-64320000D03*
X140150000Y-64320000D03*
X139650000Y-64320000D03*
X139650000Y-66280000D03*
X140150000Y-66280000D03*
X140650000Y-66280000D03*
X141150000Y-66280000D03*
X141650000Y-66280000D03*
X142150000Y-66280000D03*
X142650000Y-66280000D03*
X143150000Y-66280000D03*
X143650000Y-66280000D03*
X144150000Y-66280000D03*
X144650000Y-66280000D03*
X145150000Y-66280000D03*
%TD*%
%TO.C,J4*%
X120750000Y-45420000D03*
X120250000Y-45420000D03*
X119750000Y-45420000D03*
X119250000Y-45420000D03*
X118750000Y-45420000D03*
X118250000Y-45420000D03*
X117750000Y-45420000D03*
X117250000Y-45420000D03*
X116750000Y-45420000D03*
X116250000Y-45420000D03*
X115750000Y-45420000D03*
X115250000Y-45420000D03*
X115250000Y-47380000D03*
X115750000Y-47380000D03*
X116250000Y-47380000D03*
X116750000Y-47380000D03*
X117250000Y-47380000D03*
X117750000Y-47380000D03*
X118250000Y-47380000D03*
X118750000Y-47380000D03*
X119250000Y-47380000D03*
X119750000Y-47380000D03*
X120250000Y-47380000D03*
X120750000Y-47380000D03*
%TD*%
%TO.C,J4*%
X193950000Y-58020000D03*
X193450000Y-58020000D03*
X192950000Y-58020000D03*
X192450000Y-58020000D03*
X191950000Y-58020000D03*
X191450000Y-58020000D03*
X190950000Y-58020000D03*
X190450000Y-58020000D03*
X189950000Y-58020000D03*
X189450000Y-58020000D03*
X188950000Y-58020000D03*
X188450000Y-58020000D03*
X188450000Y-59980000D03*
X188950000Y-59980000D03*
X189450000Y-59980000D03*
X189950000Y-59980000D03*
X190450000Y-59980000D03*
X190950000Y-59980000D03*
X191450000Y-59980000D03*
X191950000Y-59980000D03*
X192450000Y-59980000D03*
X192950000Y-59980000D03*
X193450000Y-59980000D03*
X193950000Y-59980000D03*
%TD*%
%TO.C,J4*%
X169550000Y-76920000D03*
X169050000Y-76920000D03*
X168550000Y-76920000D03*
X168050000Y-76920000D03*
X167550000Y-76920000D03*
X167050000Y-76920000D03*
X166550000Y-76920000D03*
X166050000Y-76920000D03*
X165550000Y-76920000D03*
X165050000Y-76920000D03*
X164550000Y-76920000D03*
X164050000Y-76920000D03*
X164050000Y-78880000D03*
X164550000Y-78880000D03*
X165050000Y-78880000D03*
X165550000Y-78880000D03*
X166050000Y-78880000D03*
X166550000Y-78880000D03*
X167050000Y-78880000D03*
X167550000Y-78880000D03*
X168050000Y-78880000D03*
X168550000Y-78880000D03*
X169050000Y-78880000D03*
X169550000Y-78880000D03*
%TD*%
%TO.C,J4*%
X145150000Y-83220000D03*
X144650000Y-83220000D03*
X144150000Y-83220000D03*
X143650000Y-83220000D03*
X143150000Y-83220000D03*
X142650000Y-83220000D03*
X142150000Y-83220000D03*
X141650000Y-83220000D03*
X141150000Y-83220000D03*
X140650000Y-83220000D03*
X140150000Y-83220000D03*
X139650000Y-83220000D03*
X139650000Y-85180000D03*
X140150000Y-85180000D03*
X140650000Y-85180000D03*
X141150000Y-85180000D03*
X141650000Y-85180000D03*
X142150000Y-85180000D03*
X142650000Y-85180000D03*
X143150000Y-85180000D03*
X143650000Y-85180000D03*
X144150000Y-85180000D03*
X144650000Y-85180000D03*
X145150000Y-85180000D03*
%TD*%
%TO.C,J4*%
X157350000Y-26520000D03*
X156850000Y-26520000D03*
X156350000Y-26520000D03*
X155850000Y-26520000D03*
X155350000Y-26520000D03*
X154850000Y-26520000D03*
X154350000Y-26520000D03*
X153850000Y-26520000D03*
X153350000Y-26520000D03*
X152850000Y-26520000D03*
X152350000Y-26520000D03*
X151850000Y-26520000D03*
X151850000Y-28480000D03*
X152350000Y-28480000D03*
X152850000Y-28480000D03*
X153350000Y-28480000D03*
X153850000Y-28480000D03*
X154350000Y-28480000D03*
X154850000Y-28480000D03*
X155350000Y-28480000D03*
X155850000Y-28480000D03*
X156350000Y-28480000D03*
X156850000Y-28480000D03*
X157350000Y-28480000D03*
%TD*%
%TO.C,J4*%
X96350000Y-39120000D03*
X95850000Y-39120000D03*
X95350000Y-39120000D03*
X94850000Y-39120000D03*
X94350000Y-39120000D03*
X93850000Y-39120000D03*
X93350000Y-39120000D03*
X92850000Y-39120000D03*
X92350000Y-39120000D03*
X91850000Y-39120000D03*
X91350000Y-39120000D03*
X90850000Y-39120000D03*
X90850000Y-41080000D03*
X91350000Y-41080000D03*
X91850000Y-41080000D03*
X92350000Y-41080000D03*
X92850000Y-41080000D03*
X93350000Y-41080000D03*
X93850000Y-41080000D03*
X94350000Y-41080000D03*
X94850000Y-41080000D03*
X95350000Y-41080000D03*
X95850000Y-41080000D03*
X96350000Y-41080000D03*
%TD*%
%TO.C,J4*%
X120750000Y-76920000D03*
X120250000Y-76920000D03*
X119750000Y-76920000D03*
X119250000Y-76920000D03*
X118750000Y-76920000D03*
X118250000Y-76920000D03*
X117750000Y-76920000D03*
X117250000Y-76920000D03*
X116750000Y-76920000D03*
X116250000Y-76920000D03*
X115750000Y-76920000D03*
X115250000Y-76920000D03*
X115250000Y-78880000D03*
X115750000Y-78880000D03*
X116250000Y-78880000D03*
X116750000Y-78880000D03*
X117250000Y-78880000D03*
X117750000Y-78880000D03*
X118250000Y-78880000D03*
X118750000Y-78880000D03*
X119250000Y-78880000D03*
X119750000Y-78880000D03*
X120250000Y-78880000D03*
X120750000Y-78880000D03*
%TD*%
%TO.C,J4*%
X181750000Y-51720000D03*
X181250000Y-51720000D03*
X180750000Y-51720000D03*
X180250000Y-51720000D03*
X179750000Y-51720000D03*
X179250000Y-51720000D03*
X178750000Y-51720000D03*
X178250000Y-51720000D03*
X177750000Y-51720000D03*
X177250000Y-51720000D03*
X176750000Y-51720000D03*
X176250000Y-51720000D03*
X176250000Y-53680000D03*
X176750000Y-53680000D03*
X177250000Y-53680000D03*
X177750000Y-53680000D03*
X178250000Y-53680000D03*
X178750000Y-53680000D03*
X179250000Y-53680000D03*
X179750000Y-53680000D03*
X180250000Y-53680000D03*
X180750000Y-53680000D03*
X181250000Y-53680000D03*
X181750000Y-53680000D03*
%TD*%
%TO.C,J4*%
X96350000Y-45420000D03*
X95850000Y-45420000D03*
X95350000Y-45420000D03*
X94850000Y-45420000D03*
X94350000Y-45420000D03*
X93850000Y-45420000D03*
X93350000Y-45420000D03*
X92850000Y-45420000D03*
X92350000Y-45420000D03*
X91850000Y-45420000D03*
X91350000Y-45420000D03*
X90850000Y-45420000D03*
X90850000Y-47380000D03*
X91350000Y-47380000D03*
X91850000Y-47380000D03*
X92350000Y-47380000D03*
X92850000Y-47380000D03*
X93350000Y-47380000D03*
X93850000Y-47380000D03*
X94350000Y-47380000D03*
X94850000Y-47380000D03*
X95350000Y-47380000D03*
X95850000Y-47380000D03*
X96350000Y-47380000D03*
%TD*%
%TO.C,J4*%
X157350000Y-39120000D03*
X156850000Y-39120000D03*
X156350000Y-39120000D03*
X155850000Y-39120000D03*
X155350000Y-39120000D03*
X154850000Y-39120000D03*
X154350000Y-39120000D03*
X153850000Y-39120000D03*
X153350000Y-39120000D03*
X152850000Y-39120000D03*
X152350000Y-39120000D03*
X151850000Y-39120000D03*
X151850000Y-41080000D03*
X152350000Y-41080000D03*
X152850000Y-41080000D03*
X153350000Y-41080000D03*
X153850000Y-41080000D03*
X154350000Y-41080000D03*
X154850000Y-41080000D03*
X155350000Y-41080000D03*
X155850000Y-41080000D03*
X156350000Y-41080000D03*
X156850000Y-41080000D03*
X157350000Y-41080000D03*
%TD*%
%TO.C,J4*%
X120750000Y-64320000D03*
X120250000Y-64320000D03*
X119750000Y-64320000D03*
X119250000Y-64320000D03*
X118750000Y-64320000D03*
X118250000Y-64320000D03*
X117750000Y-64320000D03*
X117250000Y-64320000D03*
X116750000Y-64320000D03*
X116250000Y-64320000D03*
X115750000Y-64320000D03*
X115250000Y-64320000D03*
X115250000Y-66280000D03*
X115750000Y-66280000D03*
X116250000Y-66280000D03*
X116750000Y-66280000D03*
X117250000Y-66280000D03*
X117750000Y-66280000D03*
X118250000Y-66280000D03*
X118750000Y-66280000D03*
X119250000Y-66280000D03*
X119750000Y-66280000D03*
X120250000Y-66280000D03*
X120750000Y-66280000D03*
%TD*%
%TO.C,J4*%
X120750000Y-32820000D03*
X120250000Y-32820000D03*
X119750000Y-32820000D03*
X119250000Y-32820000D03*
X118750000Y-32820000D03*
X118250000Y-32820000D03*
X117750000Y-32820000D03*
X117250000Y-32820000D03*
X116750000Y-32820000D03*
X116250000Y-32820000D03*
X115750000Y-32820000D03*
X115250000Y-32820000D03*
X115250000Y-34780000D03*
X115750000Y-34780000D03*
X116250000Y-34780000D03*
X116750000Y-34780000D03*
X117250000Y-34780000D03*
X117750000Y-34780000D03*
X118250000Y-34780000D03*
X118750000Y-34780000D03*
X119250000Y-34780000D03*
X119750000Y-34780000D03*
X120250000Y-34780000D03*
X120750000Y-34780000D03*
%TD*%
%TO.C,J4*%
X206150000Y-51720000D03*
X205650000Y-51720000D03*
X205150000Y-51720000D03*
X204650000Y-51720000D03*
X204150000Y-51720000D03*
X203650000Y-51720000D03*
X203150000Y-51720000D03*
X202650000Y-51720000D03*
X202150000Y-51720000D03*
X201650000Y-51720000D03*
X201150000Y-51720000D03*
X200650000Y-51720000D03*
X200650000Y-53680000D03*
X201150000Y-53680000D03*
X201650000Y-53680000D03*
X202150000Y-53680000D03*
X202650000Y-53680000D03*
X203150000Y-53680000D03*
X203650000Y-53680000D03*
X204150000Y-53680000D03*
X204650000Y-53680000D03*
X205150000Y-53680000D03*
X205650000Y-53680000D03*
X206150000Y-53680000D03*
%TD*%
%TO.C,J4*%
X206150000Y-39120000D03*
X205650000Y-39120000D03*
X205150000Y-39120000D03*
X204650000Y-39120000D03*
X204150000Y-39120000D03*
X203650000Y-39120000D03*
X203150000Y-39120000D03*
X202650000Y-39120000D03*
X202150000Y-39120000D03*
X201650000Y-39120000D03*
X201150000Y-39120000D03*
X200650000Y-39120000D03*
X200650000Y-41080000D03*
X201150000Y-41080000D03*
X201650000Y-41080000D03*
X202150000Y-41080000D03*
X202650000Y-41080000D03*
X203150000Y-41080000D03*
X203650000Y-41080000D03*
X204150000Y-41080000D03*
X204650000Y-41080000D03*
X205150000Y-41080000D03*
X205650000Y-41080000D03*
X206150000Y-41080000D03*
%TD*%
%TO.C,J4*%
X132950000Y-64320000D03*
X132450000Y-64320000D03*
X131950000Y-64320000D03*
X131450000Y-64320000D03*
X130950000Y-64320000D03*
X130450000Y-64320000D03*
X129950000Y-64320000D03*
X129450000Y-64320000D03*
X128950000Y-64320000D03*
X128450000Y-64320000D03*
X127950000Y-64320000D03*
X127450000Y-64320000D03*
X127450000Y-66280000D03*
X127950000Y-66280000D03*
X128450000Y-66280000D03*
X128950000Y-66280000D03*
X129450000Y-66280000D03*
X129950000Y-66280000D03*
X130450000Y-66280000D03*
X130950000Y-66280000D03*
X131450000Y-66280000D03*
X131950000Y-66280000D03*
X132450000Y-66280000D03*
X132950000Y-66280000D03*
%TD*%
%TO.C,J4*%
X193950000Y-39120000D03*
X193450000Y-39120000D03*
X192950000Y-39120000D03*
X192450000Y-39120000D03*
X191950000Y-39120000D03*
X191450000Y-39120000D03*
X190950000Y-39120000D03*
X190450000Y-39120000D03*
X189950000Y-39120000D03*
X189450000Y-39120000D03*
X188950000Y-39120000D03*
X188450000Y-39120000D03*
X188450000Y-41080000D03*
X188950000Y-41080000D03*
X189450000Y-41080000D03*
X189950000Y-41080000D03*
X190450000Y-41080000D03*
X190950000Y-41080000D03*
X191450000Y-41080000D03*
X191950000Y-41080000D03*
X192450000Y-41080000D03*
X192950000Y-41080000D03*
X193450000Y-41080000D03*
X193950000Y-41080000D03*
%TD*%
%TO.C,J4*%
X145150000Y-39120000D03*
X144650000Y-39120000D03*
X144150000Y-39120000D03*
X143650000Y-39120000D03*
X143150000Y-39120000D03*
X142650000Y-39120000D03*
X142150000Y-39120000D03*
X141650000Y-39120000D03*
X141150000Y-39120000D03*
X140650000Y-39120000D03*
X140150000Y-39120000D03*
X139650000Y-39120000D03*
X139650000Y-41080000D03*
X140150000Y-41080000D03*
X140650000Y-41080000D03*
X141150000Y-41080000D03*
X141650000Y-41080000D03*
X142150000Y-41080000D03*
X142650000Y-41080000D03*
X143150000Y-41080000D03*
X143650000Y-41080000D03*
X144150000Y-41080000D03*
X144650000Y-41080000D03*
X145150000Y-41080000D03*
%TD*%
%TO.C,J4*%
X132950000Y-32820000D03*
X132450000Y-32820000D03*
X131950000Y-32820000D03*
X131450000Y-32820000D03*
X130950000Y-32820000D03*
X130450000Y-32820000D03*
X129950000Y-32820000D03*
X129450000Y-32820000D03*
X128950000Y-32820000D03*
X128450000Y-32820000D03*
X127950000Y-32820000D03*
X127450000Y-32820000D03*
X127450000Y-34780000D03*
X127950000Y-34780000D03*
X128450000Y-34780000D03*
X128950000Y-34780000D03*
X129450000Y-34780000D03*
X129950000Y-34780000D03*
X130450000Y-34780000D03*
X130950000Y-34780000D03*
X131450000Y-34780000D03*
X131950000Y-34780000D03*
X132450000Y-34780000D03*
X132950000Y-34780000D03*
%TD*%
%TO.C,J4*%
X169550000Y-26520000D03*
X169050000Y-26520000D03*
X168550000Y-26520000D03*
X168050000Y-26520000D03*
X167550000Y-26520000D03*
X167050000Y-26520000D03*
X166550000Y-26520000D03*
X166050000Y-26520000D03*
X165550000Y-26520000D03*
X165050000Y-26520000D03*
X164550000Y-26520000D03*
X164050000Y-26520000D03*
X164050000Y-28480000D03*
X164550000Y-28480000D03*
X165050000Y-28480000D03*
X165550000Y-28480000D03*
X166050000Y-28480000D03*
X166550000Y-28480000D03*
X167050000Y-28480000D03*
X167550000Y-28480000D03*
X168050000Y-28480000D03*
X168550000Y-28480000D03*
X169050000Y-28480000D03*
X169550000Y-28480000D03*
%TD*%
%TO.C,J4*%
X193950000Y-32820000D03*
X193450000Y-32820000D03*
X192950000Y-32820000D03*
X192450000Y-32820000D03*
X191950000Y-32820000D03*
X191450000Y-32820000D03*
X190950000Y-32820000D03*
X190450000Y-32820000D03*
X189950000Y-32820000D03*
X189450000Y-32820000D03*
X188950000Y-32820000D03*
X188450000Y-32820000D03*
X188450000Y-34780000D03*
X188950000Y-34780000D03*
X189450000Y-34780000D03*
X189950000Y-34780000D03*
X190450000Y-34780000D03*
X190950000Y-34780000D03*
X191450000Y-34780000D03*
X191950000Y-34780000D03*
X192450000Y-34780000D03*
X192950000Y-34780000D03*
X193450000Y-34780000D03*
X193950000Y-34780000D03*
%TD*%
%TO.C,J4*%
X145150000Y-70620000D03*
X144650000Y-70620000D03*
X144150000Y-70620000D03*
X143650000Y-70620000D03*
X143150000Y-70620000D03*
X142650000Y-70620000D03*
X142150000Y-70620000D03*
X141650000Y-70620000D03*
X141150000Y-70620000D03*
X140650000Y-70620000D03*
X140150000Y-70620000D03*
X139650000Y-70620000D03*
X139650000Y-72580000D03*
X140150000Y-72580000D03*
X140650000Y-72580000D03*
X141150000Y-72580000D03*
X141650000Y-72580000D03*
X142150000Y-72580000D03*
X142650000Y-72580000D03*
X143150000Y-72580000D03*
X143650000Y-72580000D03*
X144150000Y-72580000D03*
X144650000Y-72580000D03*
X145150000Y-72580000D03*
%TD*%
%TO.C,J4*%
X169550000Y-83220000D03*
X169050000Y-83220000D03*
X168550000Y-83220000D03*
X168050000Y-83220000D03*
X167550000Y-83220000D03*
X167050000Y-83220000D03*
X166550000Y-83220000D03*
X166050000Y-83220000D03*
X165550000Y-83220000D03*
X165050000Y-83220000D03*
X164550000Y-83220000D03*
X164050000Y-83220000D03*
X164050000Y-85180000D03*
X164550000Y-85180000D03*
X165050000Y-85180000D03*
X165550000Y-85180000D03*
X166050000Y-85180000D03*
X166550000Y-85180000D03*
X167050000Y-85180000D03*
X167550000Y-85180000D03*
X168050000Y-85180000D03*
X168550000Y-85180000D03*
X169050000Y-85180000D03*
X169550000Y-85180000D03*
%TD*%
%TO.C,J4*%
X108550000Y-58020000D03*
X108050000Y-58020000D03*
X107550000Y-58020000D03*
X107050000Y-58020000D03*
X106550000Y-58020000D03*
X106050000Y-58020000D03*
X105550000Y-58020000D03*
X105050000Y-58020000D03*
X104550000Y-58020000D03*
X104050000Y-58020000D03*
X103550000Y-58020000D03*
X103050000Y-58020000D03*
X103050000Y-59980000D03*
X103550000Y-59980000D03*
X104050000Y-59980000D03*
X104550000Y-59980000D03*
X105050000Y-59980000D03*
X105550000Y-59980000D03*
X106050000Y-59980000D03*
X106550000Y-59980000D03*
X107050000Y-59980000D03*
X107550000Y-59980000D03*
X108050000Y-59980000D03*
X108550000Y-59980000D03*
%TD*%
%TO.C,J4*%
X206150000Y-83220000D03*
X205650000Y-83220000D03*
X205150000Y-83220000D03*
X204650000Y-83220000D03*
X204150000Y-83220000D03*
X203650000Y-83220000D03*
X203150000Y-83220000D03*
X202650000Y-83220000D03*
X202150000Y-83220000D03*
X201650000Y-83220000D03*
X201150000Y-83220000D03*
X200650000Y-83220000D03*
X200650000Y-85180000D03*
X201150000Y-85180000D03*
X201650000Y-85180000D03*
X202150000Y-85180000D03*
X202650000Y-85180000D03*
X203150000Y-85180000D03*
X203650000Y-85180000D03*
X204150000Y-85180000D03*
X204650000Y-85180000D03*
X205150000Y-85180000D03*
X205650000Y-85180000D03*
X206150000Y-85180000D03*
%TD*%
%TO.C,J4*%
X181750000Y-70620000D03*
X181250000Y-70620000D03*
X180750000Y-70620000D03*
X180250000Y-70620000D03*
X179750000Y-70620000D03*
X179250000Y-70620000D03*
X178750000Y-70620000D03*
X178250000Y-70620000D03*
X177750000Y-70620000D03*
X177250000Y-70620000D03*
X176750000Y-70620000D03*
X176250000Y-70620000D03*
X176250000Y-72580000D03*
X176750000Y-72580000D03*
X177250000Y-72580000D03*
X177750000Y-72580000D03*
X178250000Y-72580000D03*
X178750000Y-72580000D03*
X179250000Y-72580000D03*
X179750000Y-72580000D03*
X180250000Y-72580000D03*
X180750000Y-72580000D03*
X181250000Y-72580000D03*
X181750000Y-72580000D03*
%TD*%
%TO.C,J4*%
X108550000Y-76920000D03*
X108050000Y-76920000D03*
X107550000Y-76920000D03*
X107050000Y-76920000D03*
X106550000Y-76920000D03*
X106050000Y-76920000D03*
X105550000Y-76920000D03*
X105050000Y-76920000D03*
X104550000Y-76920000D03*
X104050000Y-76920000D03*
X103550000Y-76920000D03*
X103050000Y-76920000D03*
X103050000Y-78880000D03*
X103550000Y-78880000D03*
X104050000Y-78880000D03*
X104550000Y-78880000D03*
X105050000Y-78880000D03*
X105550000Y-78880000D03*
X106050000Y-78880000D03*
X106550000Y-78880000D03*
X107050000Y-78880000D03*
X107550000Y-78880000D03*
X108050000Y-78880000D03*
X108550000Y-78880000D03*
%TD*%
%TO.C,J4*%
X206150000Y-32820000D03*
X205650000Y-32820000D03*
X205150000Y-32820000D03*
X204650000Y-32820000D03*
X204150000Y-32820000D03*
X203650000Y-32820000D03*
X203150000Y-32820000D03*
X202650000Y-32820000D03*
X202150000Y-32820000D03*
X201650000Y-32820000D03*
X201150000Y-32820000D03*
X200650000Y-32820000D03*
X200650000Y-34780000D03*
X201150000Y-34780000D03*
X201650000Y-34780000D03*
X202150000Y-34780000D03*
X202650000Y-34780000D03*
X203150000Y-34780000D03*
X203650000Y-34780000D03*
X204150000Y-34780000D03*
X204650000Y-34780000D03*
X205150000Y-34780000D03*
X205650000Y-34780000D03*
X206150000Y-34780000D03*
%TD*%
%TO.C,J4*%
X157350000Y-58020000D03*
X156850000Y-58020000D03*
X156350000Y-58020000D03*
X155850000Y-58020000D03*
X155350000Y-58020000D03*
X154850000Y-58020000D03*
X154350000Y-58020000D03*
X153850000Y-58020000D03*
X153350000Y-58020000D03*
X152850000Y-58020000D03*
X152350000Y-58020000D03*
X151850000Y-58020000D03*
X151850000Y-59980000D03*
X152350000Y-59980000D03*
X152850000Y-59980000D03*
X153350000Y-59980000D03*
X153850000Y-59980000D03*
X154350000Y-59980000D03*
X154850000Y-59980000D03*
X155350000Y-59980000D03*
X155850000Y-59980000D03*
X156350000Y-59980000D03*
X156850000Y-59980000D03*
X157350000Y-59980000D03*
%TD*%
%TO.C,J4*%
X169550000Y-70620000D03*
X169050000Y-70620000D03*
X168550000Y-70620000D03*
X168050000Y-70620000D03*
X167550000Y-70620000D03*
X167050000Y-70620000D03*
X166550000Y-70620000D03*
X166050000Y-70620000D03*
X165550000Y-70620000D03*
X165050000Y-70620000D03*
X164550000Y-70620000D03*
X164050000Y-70620000D03*
X164050000Y-72580000D03*
X164550000Y-72580000D03*
X165050000Y-72580000D03*
X165550000Y-72580000D03*
X166050000Y-72580000D03*
X166550000Y-72580000D03*
X167050000Y-72580000D03*
X167550000Y-72580000D03*
X168050000Y-72580000D03*
X168550000Y-72580000D03*
X169050000Y-72580000D03*
X169550000Y-72580000D03*
%TD*%
%TO.C,J4*%
X96350000Y-64320000D03*
X95850000Y-64320000D03*
X95350000Y-64320000D03*
X94850000Y-64320000D03*
X94350000Y-64320000D03*
X93850000Y-64320000D03*
X93350000Y-64320000D03*
X92850000Y-64320000D03*
X92350000Y-64320000D03*
X91850000Y-64320000D03*
X91350000Y-64320000D03*
X90850000Y-64320000D03*
X90850000Y-66280000D03*
X91350000Y-66280000D03*
X91850000Y-66280000D03*
X92350000Y-66280000D03*
X92850000Y-66280000D03*
X93350000Y-66280000D03*
X93850000Y-66280000D03*
X94350000Y-66280000D03*
X94850000Y-66280000D03*
X95350000Y-66280000D03*
X95850000Y-66280000D03*
X96350000Y-66280000D03*
%TD*%
%TO.C,J4*%
X193950000Y-70620000D03*
X193450000Y-70620000D03*
X192950000Y-70620000D03*
X192450000Y-70620000D03*
X191950000Y-70620000D03*
X191450000Y-70620000D03*
X190950000Y-70620000D03*
X190450000Y-70620000D03*
X189950000Y-70620000D03*
X189450000Y-70620000D03*
X188950000Y-70620000D03*
X188450000Y-70620000D03*
X188450000Y-72580000D03*
X188950000Y-72580000D03*
X189450000Y-72580000D03*
X189950000Y-72580000D03*
X190450000Y-72580000D03*
X190950000Y-72580000D03*
X191450000Y-72580000D03*
X191950000Y-72580000D03*
X192450000Y-72580000D03*
X192950000Y-72580000D03*
X193450000Y-72580000D03*
X193950000Y-72580000D03*
%TD*%
%TO.C,J4*%
X157350000Y-70620000D03*
X156850000Y-70620000D03*
X156350000Y-70620000D03*
X155850000Y-70620000D03*
X155350000Y-70620000D03*
X154850000Y-70620000D03*
X154350000Y-70620000D03*
X153850000Y-70620000D03*
X153350000Y-70620000D03*
X152850000Y-70620000D03*
X152350000Y-70620000D03*
X151850000Y-70620000D03*
X151850000Y-72580000D03*
X152350000Y-72580000D03*
X152850000Y-72580000D03*
X153350000Y-72580000D03*
X153850000Y-72580000D03*
X154350000Y-72580000D03*
X154850000Y-72580000D03*
X155350000Y-72580000D03*
X155850000Y-72580000D03*
X156350000Y-72580000D03*
X156850000Y-72580000D03*
X157350000Y-72580000D03*
%TD*%
%TO.C,J4*%
X169550000Y-64320000D03*
X169050000Y-64320000D03*
X168550000Y-64320000D03*
X168050000Y-64320000D03*
X167550000Y-64320000D03*
X167050000Y-64320000D03*
X166550000Y-64320000D03*
X166050000Y-64320000D03*
X165550000Y-64320000D03*
X165050000Y-64320000D03*
X164550000Y-64320000D03*
X164050000Y-64320000D03*
X164050000Y-66280000D03*
X164550000Y-66280000D03*
X165050000Y-66280000D03*
X165550000Y-66280000D03*
X166050000Y-66280000D03*
X166550000Y-66280000D03*
X167050000Y-66280000D03*
X167550000Y-66280000D03*
X168050000Y-66280000D03*
X168550000Y-66280000D03*
X169050000Y-66280000D03*
X169550000Y-66280000D03*
%TD*%
%TO.C,J4*%
X193950000Y-51720000D03*
X193450000Y-51720000D03*
X192950000Y-51720000D03*
X192450000Y-51720000D03*
X191950000Y-51720000D03*
X191450000Y-51720000D03*
X190950000Y-51720000D03*
X190450000Y-51720000D03*
X189950000Y-51720000D03*
X189450000Y-51720000D03*
X188950000Y-51720000D03*
X188450000Y-51720000D03*
X188450000Y-53680000D03*
X188950000Y-53680000D03*
X189450000Y-53680000D03*
X189950000Y-53680000D03*
X190450000Y-53680000D03*
X190950000Y-53680000D03*
X191450000Y-53680000D03*
X191950000Y-53680000D03*
X192450000Y-53680000D03*
X192950000Y-53680000D03*
X193450000Y-53680000D03*
X193950000Y-53680000D03*
%TD*%
%TO.C,J4*%
X96350000Y-26520000D03*
X95850000Y-26520000D03*
X95350000Y-26520000D03*
X94850000Y-26520000D03*
X94350000Y-26520000D03*
X93850000Y-26520000D03*
X93350000Y-26520000D03*
X92850000Y-26520000D03*
X92350000Y-26520000D03*
X91850000Y-26520000D03*
X91350000Y-26520000D03*
X90850000Y-26520000D03*
X90850000Y-28480000D03*
X91350000Y-28480000D03*
X91850000Y-28480000D03*
X92350000Y-28480000D03*
X92850000Y-28480000D03*
X93350000Y-28480000D03*
X93850000Y-28480000D03*
X94350000Y-28480000D03*
X94850000Y-28480000D03*
X95350000Y-28480000D03*
X95850000Y-28480000D03*
X96350000Y-28480000D03*
%TD*%
%TO.C,J4*%
X157350000Y-51720000D03*
X156850000Y-51720000D03*
X156350000Y-51720000D03*
X155850000Y-51720000D03*
X155350000Y-51720000D03*
X154850000Y-51720000D03*
X154350000Y-51720000D03*
X153850000Y-51720000D03*
X153350000Y-51720000D03*
X152850000Y-51720000D03*
X152350000Y-51720000D03*
X151850000Y-51720000D03*
X151850000Y-53680000D03*
X152350000Y-53680000D03*
X152850000Y-53680000D03*
X153350000Y-53680000D03*
X153850000Y-53680000D03*
X154350000Y-53680000D03*
X154850000Y-53680000D03*
X155350000Y-53680000D03*
X155850000Y-53680000D03*
X156350000Y-53680000D03*
X156850000Y-53680000D03*
X157350000Y-53680000D03*
%TD*%
%TO.C,J4*%
X206150000Y-26520000D03*
X205650000Y-26520000D03*
X205150000Y-26520000D03*
X204650000Y-26520000D03*
X204150000Y-26520000D03*
X203650000Y-26520000D03*
X203150000Y-26520000D03*
X202650000Y-26520000D03*
X202150000Y-26520000D03*
X201650000Y-26520000D03*
X201150000Y-26520000D03*
X200650000Y-26520000D03*
X200650000Y-28480000D03*
X201150000Y-28480000D03*
X201650000Y-28480000D03*
X202150000Y-28480000D03*
X202650000Y-28480000D03*
X203150000Y-28480000D03*
X203650000Y-28480000D03*
X204150000Y-28480000D03*
X204650000Y-28480000D03*
X205150000Y-28480000D03*
X205650000Y-28480000D03*
X206150000Y-28480000D03*
%TD*%
%TO.C,J4*%
X181750000Y-45420000D03*
X181250000Y-45420000D03*
X180750000Y-45420000D03*
X180250000Y-45420000D03*
X179750000Y-45420000D03*
X179250000Y-45420000D03*
X178750000Y-45420000D03*
X178250000Y-45420000D03*
X177750000Y-45420000D03*
X177250000Y-45420000D03*
X176750000Y-45420000D03*
X176250000Y-45420000D03*
X176250000Y-47380000D03*
X176750000Y-47380000D03*
X177250000Y-47380000D03*
X177750000Y-47380000D03*
X178250000Y-47380000D03*
X178750000Y-47380000D03*
X179250000Y-47380000D03*
X179750000Y-47380000D03*
X180250000Y-47380000D03*
X180750000Y-47380000D03*
X181250000Y-47380000D03*
X181750000Y-47380000D03*
%TD*%
%TO.C,J4*%
X132950000Y-26520000D03*
X132450000Y-26520000D03*
X131950000Y-26520000D03*
X131450000Y-26520000D03*
X130950000Y-26520000D03*
X130450000Y-26520000D03*
X129950000Y-26520000D03*
X129450000Y-26520000D03*
X128950000Y-26520000D03*
X128450000Y-26520000D03*
X127950000Y-26520000D03*
X127450000Y-26520000D03*
X127450000Y-28480000D03*
X127950000Y-28480000D03*
X128450000Y-28480000D03*
X128950000Y-28480000D03*
X129450000Y-28480000D03*
X129950000Y-28480000D03*
X130450000Y-28480000D03*
X130950000Y-28480000D03*
X131450000Y-28480000D03*
X131950000Y-28480000D03*
X132450000Y-28480000D03*
X132950000Y-28480000D03*
%TD*%
%TO.C,J4*%
X193950000Y-64320000D03*
X193450000Y-64320000D03*
X192950000Y-64320000D03*
X192450000Y-64320000D03*
X191950000Y-64320000D03*
X191450000Y-64320000D03*
X190950000Y-64320000D03*
X190450000Y-64320000D03*
X189950000Y-64320000D03*
X189450000Y-64320000D03*
X188950000Y-64320000D03*
X188450000Y-64320000D03*
X188450000Y-66280000D03*
X188950000Y-66280000D03*
X189450000Y-66280000D03*
X189950000Y-66280000D03*
X190450000Y-66280000D03*
X190950000Y-66280000D03*
X191450000Y-66280000D03*
X191950000Y-66280000D03*
X192450000Y-66280000D03*
X192950000Y-66280000D03*
X193450000Y-66280000D03*
X193950000Y-66280000D03*
%TD*%
%TO.C,J4*%
X181750000Y-58020000D03*
X181250000Y-58020000D03*
X180750000Y-58020000D03*
X180250000Y-58020000D03*
X179750000Y-58020000D03*
X179250000Y-58020000D03*
X178750000Y-58020000D03*
X178250000Y-58020000D03*
X177750000Y-58020000D03*
X177250000Y-58020000D03*
X176750000Y-58020000D03*
X176250000Y-58020000D03*
X176250000Y-59980000D03*
X176750000Y-59980000D03*
X177250000Y-59980000D03*
X177750000Y-59980000D03*
X178250000Y-59980000D03*
X178750000Y-59980000D03*
X179250000Y-59980000D03*
X179750000Y-59980000D03*
X180250000Y-59980000D03*
X180750000Y-59980000D03*
X181250000Y-59980000D03*
X181750000Y-59980000D03*
%TD*%
%TO.C,J4*%
X145150000Y-58020000D03*
X144650000Y-58020000D03*
X144150000Y-58020000D03*
X143650000Y-58020000D03*
X143150000Y-58020000D03*
X142650000Y-58020000D03*
X142150000Y-58020000D03*
X141650000Y-58020000D03*
X141150000Y-58020000D03*
X140650000Y-58020000D03*
X140150000Y-58020000D03*
X139650000Y-58020000D03*
X139650000Y-59980000D03*
X140150000Y-59980000D03*
X140650000Y-59980000D03*
X141150000Y-59980000D03*
X141650000Y-59980000D03*
X142150000Y-59980000D03*
X142650000Y-59980000D03*
X143150000Y-59980000D03*
X143650000Y-59980000D03*
X144150000Y-59980000D03*
X144650000Y-59980000D03*
X145150000Y-59980000D03*
%TD*%
%TO.C,J4*%
X120750000Y-70620000D03*
X120250000Y-70620000D03*
X119750000Y-70620000D03*
X119250000Y-70620000D03*
X118750000Y-70620000D03*
X118250000Y-70620000D03*
X117750000Y-70620000D03*
X117250000Y-70620000D03*
X116750000Y-70620000D03*
X116250000Y-70620000D03*
X115750000Y-70620000D03*
X115250000Y-70620000D03*
X115250000Y-72580000D03*
X115750000Y-72580000D03*
X116250000Y-72580000D03*
X116750000Y-72580000D03*
X117250000Y-72580000D03*
X117750000Y-72580000D03*
X118250000Y-72580000D03*
X118750000Y-72580000D03*
X119250000Y-72580000D03*
X119750000Y-72580000D03*
X120250000Y-72580000D03*
X120750000Y-72580000D03*
%TD*%
%TO.C,J4*%
X96350000Y-76920000D03*
X95850000Y-76920000D03*
X95350000Y-76920000D03*
X94850000Y-76920000D03*
X94350000Y-76920000D03*
X93850000Y-76920000D03*
X93350000Y-76920000D03*
X92850000Y-76920000D03*
X92350000Y-76920000D03*
X91850000Y-76920000D03*
X91350000Y-76920000D03*
X90850000Y-76920000D03*
X90850000Y-78880000D03*
X91350000Y-78880000D03*
X91850000Y-78880000D03*
X92350000Y-78880000D03*
X92850000Y-78880000D03*
X93350000Y-78880000D03*
X93850000Y-78880000D03*
X94350000Y-78880000D03*
X94850000Y-78880000D03*
X95350000Y-78880000D03*
X95850000Y-78880000D03*
X96350000Y-78880000D03*
%TD*%
%TO.C,J4*%
X145150000Y-76920000D03*
X144650000Y-76920000D03*
X144150000Y-76920000D03*
X143650000Y-76920000D03*
X143150000Y-76920000D03*
X142650000Y-76920000D03*
X142150000Y-76920000D03*
X141650000Y-76920000D03*
X141150000Y-76920000D03*
X140650000Y-76920000D03*
X140150000Y-76920000D03*
X139650000Y-76920000D03*
X139650000Y-78880000D03*
X140150000Y-78880000D03*
X140650000Y-78880000D03*
X141150000Y-78880000D03*
X141650000Y-78880000D03*
X142150000Y-78880000D03*
X142650000Y-78880000D03*
X143150000Y-78880000D03*
X143650000Y-78880000D03*
X144150000Y-78880000D03*
X144650000Y-78880000D03*
X145150000Y-78880000D03*
%TD*%
%TO.C,J4*%
X132950000Y-83220000D03*
X132450000Y-83220000D03*
X131950000Y-83220000D03*
X131450000Y-83220000D03*
X130950000Y-83220000D03*
X130450000Y-83220000D03*
X129950000Y-83220000D03*
X129450000Y-83220000D03*
X128950000Y-83220000D03*
X128450000Y-83220000D03*
X127950000Y-83220000D03*
X127450000Y-83220000D03*
X127450000Y-85180000D03*
X127950000Y-85180000D03*
X128450000Y-85180000D03*
X128950000Y-85180000D03*
X129450000Y-85180000D03*
X129950000Y-85180000D03*
X130450000Y-85180000D03*
X130950000Y-85180000D03*
X131450000Y-85180000D03*
X131950000Y-85180000D03*
X132450000Y-85180000D03*
X132950000Y-85180000D03*
%TD*%
%TO.C,J4*%
X169550000Y-58020000D03*
X169050000Y-58020000D03*
X168550000Y-58020000D03*
X168050000Y-58020000D03*
X167550000Y-58020000D03*
X167050000Y-58020000D03*
X166550000Y-58020000D03*
X166050000Y-58020000D03*
X165550000Y-58020000D03*
X165050000Y-58020000D03*
X164550000Y-58020000D03*
X164050000Y-58020000D03*
X164050000Y-59980000D03*
X164550000Y-59980000D03*
X165050000Y-59980000D03*
X165550000Y-59980000D03*
X166050000Y-59980000D03*
X166550000Y-59980000D03*
X167050000Y-59980000D03*
X167550000Y-59980000D03*
X168050000Y-59980000D03*
X168550000Y-59980000D03*
X169050000Y-59980000D03*
X169550000Y-59980000D03*
%TD*%
%TO.C,J4*%
X145150000Y-51720000D03*
X144650000Y-51720000D03*
X144150000Y-51720000D03*
X143650000Y-51720000D03*
X143150000Y-51720000D03*
X142650000Y-51720000D03*
X142150000Y-51720000D03*
X141650000Y-51720000D03*
X141150000Y-51720000D03*
X140650000Y-51720000D03*
X140150000Y-51720000D03*
X139650000Y-51720000D03*
X139650000Y-53680000D03*
X140150000Y-53680000D03*
X140650000Y-53680000D03*
X141150000Y-53680000D03*
X141650000Y-53680000D03*
X142150000Y-53680000D03*
X142650000Y-53680000D03*
X143150000Y-53680000D03*
X143650000Y-53680000D03*
X144150000Y-53680000D03*
X144650000Y-53680000D03*
X145150000Y-53680000D03*
%TD*%
%TO.C,J4*%
X108550000Y-26520000D03*
X108050000Y-26520000D03*
X107550000Y-26520000D03*
X107050000Y-26520000D03*
X106550000Y-26520000D03*
X106050000Y-26520000D03*
X105550000Y-26520000D03*
X105050000Y-26520000D03*
X104550000Y-26520000D03*
X104050000Y-26520000D03*
X103550000Y-26520000D03*
X103050000Y-26520000D03*
X103050000Y-28480000D03*
X103550000Y-28480000D03*
X104050000Y-28480000D03*
X104550000Y-28480000D03*
X105050000Y-28480000D03*
X105550000Y-28480000D03*
X106050000Y-28480000D03*
X106550000Y-28480000D03*
X107050000Y-28480000D03*
X107550000Y-28480000D03*
X108050000Y-28480000D03*
X108550000Y-28480000D03*
%TD*%
%TO.C,J4*%
X96350000Y-83220000D03*
X95850000Y-83220000D03*
X95350000Y-83220000D03*
X94850000Y-83220000D03*
X94350000Y-83220000D03*
X93850000Y-83220000D03*
X93350000Y-83220000D03*
X92850000Y-83220000D03*
X92350000Y-83220000D03*
X91850000Y-83220000D03*
X91350000Y-83220000D03*
X90850000Y-83220000D03*
X90850000Y-85180000D03*
X91350000Y-85180000D03*
X91850000Y-85180000D03*
X92350000Y-85180000D03*
X92850000Y-85180000D03*
X93350000Y-85180000D03*
X93850000Y-85180000D03*
X94350000Y-85180000D03*
X94850000Y-85180000D03*
X95350000Y-85180000D03*
X95850000Y-85180000D03*
X96350000Y-85180000D03*
%TD*%
%TO.C,J4*%
X132950000Y-51720000D03*
X132450000Y-51720000D03*
X131950000Y-51720000D03*
X131450000Y-51720000D03*
X130950000Y-51720000D03*
X130450000Y-51720000D03*
X129950000Y-51720000D03*
X129450000Y-51720000D03*
X128950000Y-51720000D03*
X128450000Y-51720000D03*
X127950000Y-51720000D03*
X127450000Y-51720000D03*
X127450000Y-53680000D03*
X127950000Y-53680000D03*
X128450000Y-53680000D03*
X128950000Y-53680000D03*
X129450000Y-53680000D03*
X129950000Y-53680000D03*
X130450000Y-53680000D03*
X130950000Y-53680000D03*
X131450000Y-53680000D03*
X131950000Y-53680000D03*
X132450000Y-53680000D03*
X132950000Y-53680000D03*
%TD*%
%TO.C,J4*%
X108550000Y-51720000D03*
X108050000Y-51720000D03*
X107550000Y-51720000D03*
X107050000Y-51720000D03*
X106550000Y-51720000D03*
X106050000Y-51720000D03*
X105550000Y-51720000D03*
X105050000Y-51720000D03*
X104550000Y-51720000D03*
X104050000Y-51720000D03*
X103550000Y-51720000D03*
X103050000Y-51720000D03*
X103050000Y-53680000D03*
X103550000Y-53680000D03*
X104050000Y-53680000D03*
X104550000Y-53680000D03*
X105050000Y-53680000D03*
X105550000Y-53680000D03*
X106050000Y-53680000D03*
X106550000Y-53680000D03*
X107050000Y-53680000D03*
X107550000Y-53680000D03*
X108050000Y-53680000D03*
X108550000Y-53680000D03*
%TD*%
%TO.C,J4*%
X96350000Y-58020000D03*
X95850000Y-58020000D03*
X95350000Y-58020000D03*
X94850000Y-58020000D03*
X94350000Y-58020000D03*
X93850000Y-58020000D03*
X93350000Y-58020000D03*
X92850000Y-58020000D03*
X92350000Y-58020000D03*
X91850000Y-58020000D03*
X91350000Y-58020000D03*
X90850000Y-58020000D03*
X90850000Y-59980000D03*
X91350000Y-59980000D03*
X91850000Y-59980000D03*
X92350000Y-59980000D03*
X92850000Y-59980000D03*
X93350000Y-59980000D03*
X93850000Y-59980000D03*
X94350000Y-59980000D03*
X94850000Y-59980000D03*
X95350000Y-59980000D03*
X95850000Y-59980000D03*
X96350000Y-59980000D03*
%TD*%
%TO.C,J4*%
X145150000Y-45420000D03*
X144650000Y-45420000D03*
X144150000Y-45420000D03*
X143650000Y-45420000D03*
X143150000Y-45420000D03*
X142650000Y-45420000D03*
X142150000Y-45420000D03*
X141650000Y-45420000D03*
X141150000Y-45420000D03*
X140650000Y-45420000D03*
X140150000Y-45420000D03*
X139650000Y-45420000D03*
X139650000Y-47380000D03*
X140150000Y-47380000D03*
X140650000Y-47380000D03*
X141150000Y-47380000D03*
X141650000Y-47380000D03*
X142150000Y-47380000D03*
X142650000Y-47380000D03*
X143150000Y-47380000D03*
X143650000Y-47380000D03*
X144150000Y-47380000D03*
X144650000Y-47380000D03*
X145150000Y-47380000D03*
%TD*%
%TO.C,J4*%
X206150000Y-45420000D03*
X205650000Y-45420000D03*
X205150000Y-45420000D03*
X204650000Y-45420000D03*
X204150000Y-45420000D03*
X203650000Y-45420000D03*
X203150000Y-45420000D03*
X202650000Y-45420000D03*
X202150000Y-45420000D03*
X201650000Y-45420000D03*
X201150000Y-45420000D03*
X200650000Y-45420000D03*
X200650000Y-47380000D03*
X201150000Y-47380000D03*
X201650000Y-47380000D03*
X202150000Y-47380000D03*
X202650000Y-47380000D03*
X203150000Y-47380000D03*
X203650000Y-47380000D03*
X204150000Y-47380000D03*
X204650000Y-47380000D03*
X205150000Y-47380000D03*
X205650000Y-47380000D03*
X206150000Y-47380000D03*
%TD*%
%TO.C,J4*%
X169550000Y-39120000D03*
X169050000Y-39120000D03*
X168550000Y-39120000D03*
X168050000Y-39120000D03*
X167550000Y-39120000D03*
X167050000Y-39120000D03*
X166550000Y-39120000D03*
X166050000Y-39120000D03*
X165550000Y-39120000D03*
X165050000Y-39120000D03*
X164550000Y-39120000D03*
X164050000Y-39120000D03*
X164050000Y-41080000D03*
X164550000Y-41080000D03*
X165050000Y-41080000D03*
X165550000Y-41080000D03*
X166050000Y-41080000D03*
X166550000Y-41080000D03*
X167050000Y-41080000D03*
X167550000Y-41080000D03*
X168050000Y-41080000D03*
X168550000Y-41080000D03*
X169050000Y-41080000D03*
X169550000Y-41080000D03*
%TD*%
%TO.C,J4*%
X108550000Y-32820000D03*
X108050000Y-32820000D03*
X107550000Y-32820000D03*
X107050000Y-32820000D03*
X106550000Y-32820000D03*
X106050000Y-32820000D03*
X105550000Y-32820000D03*
X105050000Y-32820000D03*
X104550000Y-32820000D03*
X104050000Y-32820000D03*
X103550000Y-32820000D03*
X103050000Y-32820000D03*
X103050000Y-34780000D03*
X103550000Y-34780000D03*
X104050000Y-34780000D03*
X104550000Y-34780000D03*
X105050000Y-34780000D03*
X105550000Y-34780000D03*
X106050000Y-34780000D03*
X106550000Y-34780000D03*
X107050000Y-34780000D03*
X107550000Y-34780000D03*
X108050000Y-34780000D03*
X108550000Y-34780000D03*
%TD*%
%TO.C,J4*%
X120750000Y-58020000D03*
X120250000Y-58020000D03*
X119750000Y-58020000D03*
X119250000Y-58020000D03*
X118750000Y-58020000D03*
X118250000Y-58020000D03*
X117750000Y-58020000D03*
X117250000Y-58020000D03*
X116750000Y-58020000D03*
X116250000Y-58020000D03*
X115750000Y-58020000D03*
X115250000Y-58020000D03*
X115250000Y-59980000D03*
X115750000Y-59980000D03*
X116250000Y-59980000D03*
X116750000Y-59980000D03*
X117250000Y-59980000D03*
X117750000Y-59980000D03*
X118250000Y-59980000D03*
X118750000Y-59980000D03*
X119250000Y-59980000D03*
X119750000Y-59980000D03*
X120250000Y-59980000D03*
X120750000Y-59980000D03*
%TD*%
%TO.C,J4*%
X132950000Y-70620000D03*
X132450000Y-70620000D03*
X131950000Y-70620000D03*
X131450000Y-70620000D03*
X130950000Y-70620000D03*
X130450000Y-70620000D03*
X129950000Y-70620000D03*
X129450000Y-70620000D03*
X128950000Y-70620000D03*
X128450000Y-70620000D03*
X127950000Y-70620000D03*
X127450000Y-70620000D03*
X127450000Y-72580000D03*
X127950000Y-72580000D03*
X128450000Y-72580000D03*
X128950000Y-72580000D03*
X129450000Y-72580000D03*
X129950000Y-72580000D03*
X130450000Y-72580000D03*
X130950000Y-72580000D03*
X131450000Y-72580000D03*
X131950000Y-72580000D03*
X132450000Y-72580000D03*
X132950000Y-72580000D03*
%TD*%
%TO.C,J4*%
X169550000Y-51720000D03*
X169050000Y-51720000D03*
X168550000Y-51720000D03*
X168050000Y-51720000D03*
X167550000Y-51720000D03*
X167050000Y-51720000D03*
X166550000Y-51720000D03*
X166050000Y-51720000D03*
X165550000Y-51720000D03*
X165050000Y-51720000D03*
X164550000Y-51720000D03*
X164050000Y-51720000D03*
X164050000Y-53680000D03*
X164550000Y-53680000D03*
X165050000Y-53680000D03*
X165550000Y-53680000D03*
X166050000Y-53680000D03*
X166550000Y-53680000D03*
X167050000Y-53680000D03*
X167550000Y-53680000D03*
X168050000Y-53680000D03*
X168550000Y-53680000D03*
X169050000Y-53680000D03*
X169550000Y-53680000D03*
%TD*%
%TO.C,J4*%
X181750000Y-26520000D03*
X181250000Y-26520000D03*
X180750000Y-26520000D03*
X180250000Y-26520000D03*
X179750000Y-26520000D03*
X179250000Y-26520000D03*
X178750000Y-26520000D03*
X178250000Y-26520000D03*
X177750000Y-26520000D03*
X177250000Y-26520000D03*
X176750000Y-26520000D03*
X176250000Y-26520000D03*
X176250000Y-28480000D03*
X176750000Y-28480000D03*
X177250000Y-28480000D03*
X177750000Y-28480000D03*
X178250000Y-28480000D03*
X178750000Y-28480000D03*
X179250000Y-28480000D03*
X179750000Y-28480000D03*
X180250000Y-28480000D03*
X180750000Y-28480000D03*
X181250000Y-28480000D03*
X181750000Y-28480000D03*
%TD*%
%TO.C,J4*%
X96350000Y-51720000D03*
X95850000Y-51720000D03*
X95350000Y-51720000D03*
X94850000Y-51720000D03*
X94350000Y-51720000D03*
X93850000Y-51720000D03*
X93350000Y-51720000D03*
X92850000Y-51720000D03*
X92350000Y-51720000D03*
X91850000Y-51720000D03*
X91350000Y-51720000D03*
X90850000Y-51720000D03*
X90850000Y-53680000D03*
X91350000Y-53680000D03*
X91850000Y-53680000D03*
X92350000Y-53680000D03*
X92850000Y-53680000D03*
X93350000Y-53680000D03*
X93850000Y-53680000D03*
X94350000Y-53680000D03*
X94850000Y-53680000D03*
X95350000Y-53680000D03*
X95850000Y-53680000D03*
X96350000Y-53680000D03*
%TD*%
%TO.C,J4*%
X120750000Y-51720000D03*
X120250000Y-51720000D03*
X119750000Y-51720000D03*
X119250000Y-51720000D03*
X118750000Y-51720000D03*
X118250000Y-51720000D03*
X117750000Y-51720000D03*
X117250000Y-51720000D03*
X116750000Y-51720000D03*
X116250000Y-51720000D03*
X115750000Y-51720000D03*
X115250000Y-51720000D03*
X115250000Y-53680000D03*
X115750000Y-53680000D03*
X116250000Y-53680000D03*
X116750000Y-53680000D03*
X117250000Y-53680000D03*
X117750000Y-53680000D03*
X118250000Y-53680000D03*
X118750000Y-53680000D03*
X119250000Y-53680000D03*
X119750000Y-53680000D03*
X120250000Y-53680000D03*
X120750000Y-53680000D03*
%TD*%
%TO.C,J4*%
X181750000Y-32820000D03*
X181250000Y-32820000D03*
X180750000Y-32820000D03*
X180250000Y-32820000D03*
X179750000Y-32820000D03*
X179250000Y-32820000D03*
X178750000Y-32820000D03*
X178250000Y-32820000D03*
X177750000Y-32820000D03*
X177250000Y-32820000D03*
X176750000Y-32820000D03*
X176250000Y-32820000D03*
X176250000Y-34780000D03*
X176750000Y-34780000D03*
X177250000Y-34780000D03*
X177750000Y-34780000D03*
X178250000Y-34780000D03*
X178750000Y-34780000D03*
X179250000Y-34780000D03*
X179750000Y-34780000D03*
X180250000Y-34780000D03*
X180750000Y-34780000D03*
X181250000Y-34780000D03*
X181750000Y-34780000D03*
%TD*%
%TO.C,J4*%
X120750000Y-26520000D03*
X120250000Y-26520000D03*
X119750000Y-26520000D03*
X119250000Y-26520000D03*
X118750000Y-26520000D03*
X118250000Y-26520000D03*
X117750000Y-26520000D03*
X117250000Y-26520000D03*
X116750000Y-26520000D03*
X116250000Y-26520000D03*
X115750000Y-26520000D03*
X115250000Y-26520000D03*
X115250000Y-28480000D03*
X115750000Y-28480000D03*
X116250000Y-28480000D03*
X116750000Y-28480000D03*
X117250000Y-28480000D03*
X117750000Y-28480000D03*
X118250000Y-28480000D03*
X118750000Y-28480000D03*
X119250000Y-28480000D03*
X119750000Y-28480000D03*
X120250000Y-28480000D03*
X120750000Y-28480000D03*
%TD*%
%TO.C,J4*%
X108550000Y-83220000D03*
X108050000Y-83220000D03*
X107550000Y-83220000D03*
X107050000Y-83220000D03*
X106550000Y-83220000D03*
X106050000Y-83220000D03*
X105550000Y-83220000D03*
X105050000Y-83220000D03*
X104550000Y-83220000D03*
X104050000Y-83220000D03*
X103550000Y-83220000D03*
X103050000Y-83220000D03*
X103050000Y-85180000D03*
X103550000Y-85180000D03*
X104050000Y-85180000D03*
X104550000Y-85180000D03*
X105050000Y-85180000D03*
X105550000Y-85180000D03*
X106050000Y-85180000D03*
X106550000Y-85180000D03*
X107050000Y-85180000D03*
X107550000Y-85180000D03*
X108050000Y-85180000D03*
X108550000Y-85180000D03*
%TD*%
%TO.C,J4*%
X132950000Y-76920000D03*
X132450000Y-76920000D03*
X131950000Y-76920000D03*
X131450000Y-76920000D03*
X130950000Y-76920000D03*
X130450000Y-76920000D03*
X129950000Y-76920000D03*
X129450000Y-76920000D03*
X128950000Y-76920000D03*
X128450000Y-76920000D03*
X127950000Y-76920000D03*
X127450000Y-76920000D03*
X127450000Y-78880000D03*
X127950000Y-78880000D03*
X128450000Y-78880000D03*
X128950000Y-78880000D03*
X129450000Y-78880000D03*
X129950000Y-78880000D03*
X130450000Y-78880000D03*
X130950000Y-78880000D03*
X131450000Y-78880000D03*
X131950000Y-78880000D03*
X132450000Y-78880000D03*
X132950000Y-78880000D03*
%TD*%
%TO.C,J4*%
X157350000Y-32820000D03*
X156850000Y-32820000D03*
X156350000Y-32820000D03*
X155850000Y-32820000D03*
X155350000Y-32820000D03*
X154850000Y-32820000D03*
X154350000Y-32820000D03*
X153850000Y-32820000D03*
X153350000Y-32820000D03*
X152850000Y-32820000D03*
X152350000Y-32820000D03*
X151850000Y-32820000D03*
X151850000Y-34780000D03*
X152350000Y-34780000D03*
X152850000Y-34780000D03*
X153350000Y-34780000D03*
X153850000Y-34780000D03*
X154350000Y-34780000D03*
X154850000Y-34780000D03*
X155350000Y-34780000D03*
X155850000Y-34780000D03*
X156350000Y-34780000D03*
X156850000Y-34780000D03*
X157350000Y-34780000D03*
%TD*%
%TO.C,J4*%
X157350000Y-64320000D03*
X156850000Y-64320000D03*
X156350000Y-64320000D03*
X155850000Y-64320000D03*
X155350000Y-64320000D03*
X154850000Y-64320000D03*
X154350000Y-64320000D03*
X153850000Y-64320000D03*
X153350000Y-64320000D03*
X152850000Y-64320000D03*
X152350000Y-64320000D03*
X151850000Y-64320000D03*
X151850000Y-66280000D03*
X152350000Y-66280000D03*
X152850000Y-66280000D03*
X153350000Y-66280000D03*
X153850000Y-66280000D03*
X154350000Y-66280000D03*
X154850000Y-66280000D03*
X155350000Y-66280000D03*
X155850000Y-66280000D03*
X156350000Y-66280000D03*
X156850000Y-66280000D03*
X157350000Y-66280000D03*
%TD*%
%TO.C,J4*%
X96350000Y-32820000D03*
X95850000Y-32820000D03*
X95350000Y-32820000D03*
X94850000Y-32820000D03*
X94350000Y-32820000D03*
X93850000Y-32820000D03*
X93350000Y-32820000D03*
X92850000Y-32820000D03*
X92350000Y-32820000D03*
X91850000Y-32820000D03*
X91350000Y-32820000D03*
X90850000Y-32820000D03*
X90850000Y-34780000D03*
X91350000Y-34780000D03*
X91850000Y-34780000D03*
X92350000Y-34780000D03*
X92850000Y-34780000D03*
X93350000Y-34780000D03*
X93850000Y-34780000D03*
X94350000Y-34780000D03*
X94850000Y-34780000D03*
X95350000Y-34780000D03*
X95850000Y-34780000D03*
X96350000Y-34780000D03*
%TD*%
%TO.C,J4*%
X181750000Y-76920000D03*
X181250000Y-76920000D03*
X180750000Y-76920000D03*
X180250000Y-76920000D03*
X179750000Y-76920000D03*
X179250000Y-76920000D03*
X178750000Y-76920000D03*
X178250000Y-76920000D03*
X177750000Y-76920000D03*
X177250000Y-76920000D03*
X176750000Y-76920000D03*
X176250000Y-76920000D03*
X176250000Y-78880000D03*
X176750000Y-78880000D03*
X177250000Y-78880000D03*
X177750000Y-78880000D03*
X178250000Y-78880000D03*
X178750000Y-78880000D03*
X179250000Y-78880000D03*
X179750000Y-78880000D03*
X180250000Y-78880000D03*
X180750000Y-78880000D03*
X181250000Y-78880000D03*
X181750000Y-78880000D03*
%TD*%
%TO.C,J4*%
X120750000Y-83220000D03*
X120250000Y-83220000D03*
X119750000Y-83220000D03*
X119250000Y-83220000D03*
X118750000Y-83220000D03*
X118250000Y-83220000D03*
X117750000Y-83220000D03*
X117250000Y-83220000D03*
X116750000Y-83220000D03*
X116250000Y-83220000D03*
X115750000Y-83220000D03*
X115250000Y-83220000D03*
X115250000Y-85180000D03*
X115750000Y-85180000D03*
X116250000Y-85180000D03*
X116750000Y-85180000D03*
X117250000Y-85180000D03*
X117750000Y-85180000D03*
X118250000Y-85180000D03*
X118750000Y-85180000D03*
X119250000Y-85180000D03*
X119750000Y-85180000D03*
X120250000Y-85180000D03*
X120750000Y-85180000D03*
%TD*%
%TO.C,J4*%
X169550000Y-45420000D03*
X169050000Y-45420000D03*
X168550000Y-45420000D03*
X168050000Y-45420000D03*
X167550000Y-45420000D03*
X167050000Y-45420000D03*
X166550000Y-45420000D03*
X166050000Y-45420000D03*
X165550000Y-45420000D03*
X165050000Y-45420000D03*
X164550000Y-45420000D03*
X164050000Y-45420000D03*
X164050000Y-47380000D03*
X164550000Y-47380000D03*
X165050000Y-47380000D03*
X165550000Y-47380000D03*
X166050000Y-47380000D03*
X166550000Y-47380000D03*
X167050000Y-47380000D03*
X167550000Y-47380000D03*
X168050000Y-47380000D03*
X168550000Y-47380000D03*
X169050000Y-47380000D03*
X169550000Y-47380000D03*
%TD*%
%TO.C,J4*%
X206150000Y-70620000D03*
X205650000Y-70620000D03*
X205150000Y-70620000D03*
X204650000Y-70620000D03*
X204150000Y-70620000D03*
X203650000Y-70620000D03*
X203150000Y-70620000D03*
X202650000Y-70620000D03*
X202150000Y-70620000D03*
X201650000Y-70620000D03*
X201150000Y-70620000D03*
X200650000Y-70620000D03*
X200650000Y-72580000D03*
X201150000Y-72580000D03*
X201650000Y-72580000D03*
X202150000Y-72580000D03*
X202650000Y-72580000D03*
X203150000Y-72580000D03*
X203650000Y-72580000D03*
X204150000Y-72580000D03*
X204650000Y-72580000D03*
X205150000Y-72580000D03*
X205650000Y-72580000D03*
X206150000Y-72580000D03*
%TD*%
%TO.C,J4*%
X193950000Y-83220000D03*
X193450000Y-83220000D03*
X192950000Y-83220000D03*
X192450000Y-83220000D03*
X191950000Y-83220000D03*
X191450000Y-83220000D03*
X190950000Y-83220000D03*
X190450000Y-83220000D03*
X189950000Y-83220000D03*
X189450000Y-83220000D03*
X188950000Y-83220000D03*
X188450000Y-83220000D03*
X188450000Y-85180000D03*
X188950000Y-85180000D03*
X189450000Y-85180000D03*
X189950000Y-85180000D03*
X190450000Y-85180000D03*
X190950000Y-85180000D03*
X191450000Y-85180000D03*
X191950000Y-85180000D03*
X192450000Y-85180000D03*
X192950000Y-85180000D03*
X193450000Y-85180000D03*
X193950000Y-85180000D03*
%TD*%
%TO.C,J4*%
X132950000Y-58020000D03*
X132450000Y-58020000D03*
X131950000Y-58020000D03*
X131450000Y-58020000D03*
X130950000Y-58020000D03*
X130450000Y-58020000D03*
X129950000Y-58020000D03*
X129450000Y-58020000D03*
X128950000Y-58020000D03*
X128450000Y-58020000D03*
X127950000Y-58020000D03*
X127450000Y-58020000D03*
X127450000Y-59980000D03*
X127950000Y-59980000D03*
X128450000Y-59980000D03*
X128950000Y-59980000D03*
X129450000Y-59980000D03*
X129950000Y-59980000D03*
X130450000Y-59980000D03*
X130950000Y-59980000D03*
X131450000Y-59980000D03*
X131950000Y-59980000D03*
X132450000Y-59980000D03*
X132950000Y-59980000D03*
%TD*%
%TO.C,J4*%
X145150000Y-32820000D03*
X144650000Y-32820000D03*
X144150000Y-32820000D03*
X143650000Y-32820000D03*
X143150000Y-32820000D03*
X142650000Y-32820000D03*
X142150000Y-32820000D03*
X141650000Y-32820000D03*
X141150000Y-32820000D03*
X140650000Y-32820000D03*
X140150000Y-32820000D03*
X139650000Y-32820000D03*
X139650000Y-34780000D03*
X140150000Y-34780000D03*
X140650000Y-34780000D03*
X141150000Y-34780000D03*
X141650000Y-34780000D03*
X142150000Y-34780000D03*
X142650000Y-34780000D03*
X143150000Y-34780000D03*
X143650000Y-34780000D03*
X144150000Y-34780000D03*
X144650000Y-34780000D03*
X145150000Y-34780000D03*
%TD*%
%TO.C,J4*%
X145150000Y-26520000D03*
X144650000Y-26520000D03*
X144150000Y-26520000D03*
X143650000Y-26520000D03*
X143150000Y-26520000D03*
X142650000Y-26520000D03*
X142150000Y-26520000D03*
X141650000Y-26520000D03*
X141150000Y-26520000D03*
X140650000Y-26520000D03*
X140150000Y-26520000D03*
X139650000Y-26520000D03*
X139650000Y-28480000D03*
X140150000Y-28480000D03*
X140650000Y-28480000D03*
X141150000Y-28480000D03*
X141650000Y-28480000D03*
X142150000Y-28480000D03*
X142650000Y-28480000D03*
X143150000Y-28480000D03*
X143650000Y-28480000D03*
X144150000Y-28480000D03*
X144650000Y-28480000D03*
X145150000Y-28480000D03*
%TD*%
%TO.C,J4*%
X157350000Y-45420000D03*
X156850000Y-45420000D03*
X156350000Y-45420000D03*
X155850000Y-45420000D03*
X155350000Y-45420000D03*
X154850000Y-45420000D03*
X154350000Y-45420000D03*
X153850000Y-45420000D03*
X153350000Y-45420000D03*
X152850000Y-45420000D03*
X152350000Y-45420000D03*
X151850000Y-45420000D03*
X151850000Y-47380000D03*
X152350000Y-47380000D03*
X152850000Y-47380000D03*
X153350000Y-47380000D03*
X153850000Y-47380000D03*
X154350000Y-47380000D03*
X154850000Y-47380000D03*
X155350000Y-47380000D03*
X155850000Y-47380000D03*
X156350000Y-47380000D03*
X156850000Y-47380000D03*
X157350000Y-47380000D03*
%TD*%
%TO.C,J4*%
X206150000Y-76920000D03*
X205650000Y-76920000D03*
X205150000Y-76920000D03*
X204650000Y-76920000D03*
X204150000Y-76920000D03*
X203650000Y-76920000D03*
X203150000Y-76920000D03*
X202650000Y-76920000D03*
X202150000Y-76920000D03*
X201650000Y-76920000D03*
X201150000Y-76920000D03*
X200650000Y-76920000D03*
X200650000Y-78880000D03*
X201150000Y-78880000D03*
X201650000Y-78880000D03*
X202150000Y-78880000D03*
X202650000Y-78880000D03*
X203150000Y-78880000D03*
X203650000Y-78880000D03*
X204150000Y-78880000D03*
X204650000Y-78880000D03*
X205150000Y-78880000D03*
X205650000Y-78880000D03*
X206150000Y-78880000D03*
%TD*%
%TO.C,J4*%
X169550000Y-32820000D03*
X169050000Y-32820000D03*
X168550000Y-32820000D03*
X168050000Y-32820000D03*
X167550000Y-32820000D03*
X167050000Y-32820000D03*
X166550000Y-32820000D03*
X166050000Y-32820000D03*
X165550000Y-32820000D03*
X165050000Y-32820000D03*
X164550000Y-32820000D03*
X164050000Y-32820000D03*
X164050000Y-34780000D03*
X164550000Y-34780000D03*
X165050000Y-34780000D03*
X165550000Y-34780000D03*
X166050000Y-34780000D03*
X166550000Y-34780000D03*
X167050000Y-34780000D03*
X167550000Y-34780000D03*
X168050000Y-34780000D03*
X168550000Y-34780000D03*
X169050000Y-34780000D03*
X169550000Y-34780000D03*
%TD*%
%TO.C,J4*%
X193950000Y-26520000D03*
X193450000Y-26520000D03*
X192950000Y-26520000D03*
X192450000Y-26520000D03*
X191950000Y-26520000D03*
X191450000Y-26520000D03*
X190950000Y-26520000D03*
X190450000Y-26520000D03*
X189950000Y-26520000D03*
X189450000Y-26520000D03*
X188950000Y-26520000D03*
X188450000Y-26520000D03*
X188450000Y-28480000D03*
X188950000Y-28480000D03*
X189450000Y-28480000D03*
X189950000Y-28480000D03*
X190450000Y-28480000D03*
X190950000Y-28480000D03*
X191450000Y-28480000D03*
X191950000Y-28480000D03*
X192450000Y-28480000D03*
X192950000Y-28480000D03*
X193450000Y-28480000D03*
X193950000Y-28480000D03*
%TD*%
%TO.C,J4*%
X181750000Y-64320000D03*
X181250000Y-64320000D03*
X180750000Y-64320000D03*
X180250000Y-64320000D03*
X179750000Y-64320000D03*
X179250000Y-64320000D03*
X178750000Y-64320000D03*
X178250000Y-64320000D03*
X177750000Y-64320000D03*
X177250000Y-64320000D03*
X176750000Y-64320000D03*
X176250000Y-64320000D03*
X176250000Y-66280000D03*
X176750000Y-66280000D03*
X177250000Y-66280000D03*
X177750000Y-66280000D03*
X178250000Y-66280000D03*
X178750000Y-66280000D03*
X179250000Y-66280000D03*
X179750000Y-66280000D03*
X180250000Y-66280000D03*
X180750000Y-66280000D03*
X181250000Y-66280000D03*
X181750000Y-66280000D03*
%TD*%
%TO.C,J4*%
X96350000Y-70620000D03*
X95850000Y-70620000D03*
X95350000Y-70620000D03*
X94850000Y-70620000D03*
X94350000Y-70620000D03*
X93850000Y-70620000D03*
X93350000Y-70620000D03*
X92850000Y-70620000D03*
X92350000Y-70620000D03*
X91850000Y-70620000D03*
X91350000Y-70620000D03*
X90850000Y-70620000D03*
X90850000Y-72580000D03*
X91350000Y-72580000D03*
X91850000Y-72580000D03*
X92350000Y-72580000D03*
X92850000Y-72580000D03*
X93350000Y-72580000D03*
X93850000Y-72580000D03*
X94350000Y-72580000D03*
X94850000Y-72580000D03*
X95350000Y-72580000D03*
X95850000Y-72580000D03*
X96350000Y-72580000D03*
%TD*%
%TO.C,J4*%
X206150000Y-58020000D03*
X205650000Y-58020000D03*
X205150000Y-58020000D03*
X204650000Y-58020000D03*
X204150000Y-58020000D03*
X203650000Y-58020000D03*
X203150000Y-58020000D03*
X202650000Y-58020000D03*
X202150000Y-58020000D03*
X201650000Y-58020000D03*
X201150000Y-58020000D03*
X200650000Y-58020000D03*
X200650000Y-59980000D03*
X201150000Y-59980000D03*
X201650000Y-59980000D03*
X202150000Y-59980000D03*
X202650000Y-59980000D03*
X203150000Y-59980000D03*
X203650000Y-59980000D03*
X204150000Y-59980000D03*
X204650000Y-59980000D03*
X205150000Y-59980000D03*
X205650000Y-59980000D03*
X206150000Y-59980000D03*
%TD*%
%TO.C,J4*%
X108550000Y-70620000D03*
X108050000Y-70620000D03*
X107550000Y-70620000D03*
X107050000Y-70620000D03*
X106550000Y-70620000D03*
X106050000Y-70620000D03*
X105550000Y-70620000D03*
X105050000Y-70620000D03*
X104550000Y-70620000D03*
X104050000Y-70620000D03*
X103550000Y-70620000D03*
X103050000Y-70620000D03*
X103050000Y-72580000D03*
X103550000Y-72580000D03*
X104050000Y-72580000D03*
X104550000Y-72580000D03*
X105050000Y-72580000D03*
X105550000Y-72580000D03*
X106050000Y-72580000D03*
X106550000Y-72580000D03*
X107050000Y-72580000D03*
X107550000Y-72580000D03*
X108050000Y-72580000D03*
X108550000Y-72580000D03*
%TD*%
%TO.C,J4*%
X181750000Y-83220000D03*
X181250000Y-83220000D03*
X180750000Y-83220000D03*
X180250000Y-83220000D03*
X179750000Y-83220000D03*
X179250000Y-83220000D03*
X178750000Y-83220000D03*
X178250000Y-83220000D03*
X177750000Y-83220000D03*
X177250000Y-83220000D03*
X176750000Y-83220000D03*
X176250000Y-83220000D03*
X176250000Y-85180000D03*
X176750000Y-85180000D03*
X177250000Y-85180000D03*
X177750000Y-85180000D03*
X178250000Y-85180000D03*
X178750000Y-85180000D03*
X179250000Y-85180000D03*
X179750000Y-85180000D03*
X180250000Y-85180000D03*
X180750000Y-85180000D03*
X181250000Y-85180000D03*
X181750000Y-85180000D03*
%TD*%
%TO.C,J4*%
X193950000Y-76920000D03*
X193450000Y-76920000D03*
X192950000Y-76920000D03*
X192450000Y-76920000D03*
X191950000Y-76920000D03*
X191450000Y-76920000D03*
X190950000Y-76920000D03*
X190450000Y-76920000D03*
X189950000Y-76920000D03*
X189450000Y-76920000D03*
X188950000Y-76920000D03*
X188450000Y-76920000D03*
X188450000Y-78880000D03*
X188950000Y-78880000D03*
X189450000Y-78880000D03*
X189950000Y-78880000D03*
X190450000Y-78880000D03*
X190950000Y-78880000D03*
X191450000Y-78880000D03*
X191950000Y-78880000D03*
X192450000Y-78880000D03*
X192950000Y-78880000D03*
X193450000Y-78880000D03*
X193950000Y-78880000D03*
%TD*%
%TO.C,J4*%
X108550000Y-64320000D03*
X108050000Y-64320000D03*
X107550000Y-64320000D03*
X107050000Y-64320000D03*
X106550000Y-64320000D03*
X106050000Y-64320000D03*
X105550000Y-64320000D03*
X105050000Y-64320000D03*
X104550000Y-64320000D03*
X104050000Y-64320000D03*
X103550000Y-64320000D03*
X103050000Y-64320000D03*
X103050000Y-66280000D03*
X103550000Y-66280000D03*
X104050000Y-66280000D03*
X104550000Y-66280000D03*
X105050000Y-66280000D03*
X105550000Y-66280000D03*
X106050000Y-66280000D03*
X106550000Y-66280000D03*
X107050000Y-66280000D03*
X107550000Y-66280000D03*
X108050000Y-66280000D03*
X108550000Y-66280000D03*
%TD*%
%TO.C,J4*%
X132950000Y-45420000D03*
X132450000Y-45420000D03*
X131950000Y-45420000D03*
X131450000Y-45420000D03*
X130950000Y-45420000D03*
X130450000Y-45420000D03*
X129950000Y-45420000D03*
X129450000Y-45420000D03*
X128950000Y-45420000D03*
X128450000Y-45420000D03*
X127950000Y-45420000D03*
X127450000Y-45420000D03*
X127450000Y-47380000D03*
X127950000Y-47380000D03*
X128450000Y-47380000D03*
X128950000Y-47380000D03*
X129450000Y-47380000D03*
X129950000Y-47380000D03*
X130450000Y-47380000D03*
X130950000Y-47380000D03*
X131450000Y-47380000D03*
X131950000Y-47380000D03*
X132450000Y-47380000D03*
X132950000Y-47380000D03*
%TD*%
%TO.C,J4*%
X157350000Y-83220000D03*
X156850000Y-83220000D03*
X156350000Y-83220000D03*
X155850000Y-83220000D03*
X155350000Y-83220000D03*
X154850000Y-83220000D03*
X154350000Y-83220000D03*
X153850000Y-83220000D03*
X153350000Y-83220000D03*
X152850000Y-83220000D03*
X152350000Y-83220000D03*
X151850000Y-83220000D03*
X151850000Y-85180000D03*
X152350000Y-85180000D03*
X152850000Y-85180000D03*
X153350000Y-85180000D03*
X153850000Y-85180000D03*
X154350000Y-85180000D03*
X154850000Y-85180000D03*
X155350000Y-85180000D03*
X155850000Y-85180000D03*
X156350000Y-85180000D03*
X156850000Y-85180000D03*
X157350000Y-85180000D03*
%TD*%
%TO.C,J4*%
X132950000Y-39120000D03*
X132450000Y-39120000D03*
X131950000Y-39120000D03*
X131450000Y-39120000D03*
X130950000Y-39120000D03*
X130450000Y-39120000D03*
X129950000Y-39120000D03*
X129450000Y-39120000D03*
X128950000Y-39120000D03*
X128450000Y-39120000D03*
X127950000Y-39120000D03*
X127450000Y-39120000D03*
X127450000Y-41080000D03*
X127950000Y-41080000D03*
X128450000Y-41080000D03*
X128950000Y-41080000D03*
X129450000Y-41080000D03*
X129950000Y-41080000D03*
X130450000Y-41080000D03*
X130950000Y-41080000D03*
X131450000Y-41080000D03*
X131950000Y-41080000D03*
X132450000Y-41080000D03*
X132950000Y-41080000D03*
%TD*%
%TO.C,J4*%
X108550000Y-39120000D03*
X108050000Y-39120000D03*
X107550000Y-39120000D03*
X107050000Y-39120000D03*
X106550000Y-39120000D03*
X106050000Y-39120000D03*
X105550000Y-39120000D03*
X105050000Y-39120000D03*
X104550000Y-39120000D03*
X104050000Y-39120000D03*
X103550000Y-39120000D03*
X103050000Y-39120000D03*
X103050000Y-41080000D03*
X103550000Y-41080000D03*
X104050000Y-41080000D03*
X104550000Y-41080000D03*
X105050000Y-41080000D03*
X105550000Y-41080000D03*
X106050000Y-41080000D03*
X106550000Y-41080000D03*
X107050000Y-41080000D03*
X107550000Y-41080000D03*
X108050000Y-41080000D03*
X108550000Y-41080000D03*
%TD*%
%TO.C,J4*%
X206150000Y-64320000D03*
X205650000Y-64320000D03*
X205150000Y-64320000D03*
X204650000Y-64320000D03*
X204150000Y-64320000D03*
X203650000Y-64320000D03*
X203150000Y-64320000D03*
X202650000Y-64320000D03*
X202150000Y-64320000D03*
X201650000Y-64320000D03*
X201150000Y-64320000D03*
X200650000Y-64320000D03*
X200650000Y-66280000D03*
X201150000Y-66280000D03*
X201650000Y-66280000D03*
X202150000Y-66280000D03*
X202650000Y-66280000D03*
X203150000Y-66280000D03*
X203650000Y-66280000D03*
X204150000Y-66280000D03*
X204650000Y-66280000D03*
X205150000Y-66280000D03*
X205650000Y-66280000D03*
X206150000Y-66280000D03*
%TD*%
%TO.C,J4*%
X193950000Y-45420000D03*
X193450000Y-45420000D03*
X192950000Y-45420000D03*
X192450000Y-45420000D03*
X191950000Y-45420000D03*
X191450000Y-45420000D03*
X190950000Y-45420000D03*
X190450000Y-45420000D03*
X189950000Y-45420000D03*
X189450000Y-45420000D03*
X188950000Y-45420000D03*
X188450000Y-45420000D03*
X188450000Y-47380000D03*
X188950000Y-47380000D03*
X189450000Y-47380000D03*
X189950000Y-47380000D03*
X190450000Y-47380000D03*
X190950000Y-47380000D03*
X191450000Y-47380000D03*
X191950000Y-47380000D03*
X192450000Y-47380000D03*
X192950000Y-47380000D03*
X193450000Y-47380000D03*
X193950000Y-47380000D03*
%TD*%
%TO.C,J4*%
X120750000Y-39120000D03*
X120250000Y-39120000D03*
X119750000Y-39120000D03*
X119250000Y-39120000D03*
X118750000Y-39120000D03*
X118250000Y-39120000D03*
X117750000Y-39120000D03*
X117250000Y-39120000D03*
X116750000Y-39120000D03*
X116250000Y-39120000D03*
X115750000Y-39120000D03*
X115250000Y-39120000D03*
X115250000Y-41080000D03*
X115750000Y-41080000D03*
X116250000Y-41080000D03*
X116750000Y-41080000D03*
X117250000Y-41080000D03*
X117750000Y-41080000D03*
X118250000Y-41080000D03*
X118750000Y-41080000D03*
X119250000Y-41080000D03*
X119750000Y-41080000D03*
X120250000Y-41080000D03*
X120750000Y-41080000D03*
%TD*%
%TO.C,J4*%
X108550000Y-45420000D03*
X108050000Y-45420000D03*
X107550000Y-45420000D03*
X107050000Y-45420000D03*
X106550000Y-45420000D03*
X106050000Y-45420000D03*
X105550000Y-45420000D03*
X105050000Y-45420000D03*
X104550000Y-45420000D03*
X104050000Y-45420000D03*
X103550000Y-45420000D03*
X103050000Y-45420000D03*
X103050000Y-47380000D03*
X103550000Y-47380000D03*
X104050000Y-47380000D03*
X104550000Y-47380000D03*
X105050000Y-47380000D03*
X105550000Y-47380000D03*
X106050000Y-47380000D03*
X106550000Y-47380000D03*
X107050000Y-47380000D03*
X107550000Y-47380000D03*
X108050000Y-47380000D03*
X108550000Y-47380000D03*
%TD*%
%TO.C,J4*%
X157350000Y-76920000D03*
X156850000Y-76920000D03*
X156350000Y-76920000D03*
X155850000Y-76920000D03*
X155350000Y-76920000D03*
X154850000Y-76920000D03*
X154350000Y-76920000D03*
X153850000Y-76920000D03*
X153350000Y-76920000D03*
X152850000Y-76920000D03*
X152350000Y-76920000D03*
X151850000Y-76920000D03*
X151850000Y-78880000D03*
X152350000Y-78880000D03*
X152850000Y-78880000D03*
X153350000Y-78880000D03*
X153850000Y-78880000D03*
X154350000Y-78880000D03*
X154850000Y-78880000D03*
X155350000Y-78880000D03*
X155850000Y-78880000D03*
X156350000Y-78880000D03*
X156850000Y-78880000D03*
X157350000Y-78880000D03*
%TD*%
%TO.C,J4*%
X181750000Y-39120000D03*
X181250000Y-39120000D03*
X180750000Y-39120000D03*
X180250000Y-39120000D03*
X179750000Y-39120000D03*
X179250000Y-39120000D03*
X178750000Y-39120000D03*
X178250000Y-39120000D03*
X177750000Y-39120000D03*
X177250000Y-39120000D03*
X176750000Y-39120000D03*
X176250000Y-39120000D03*
X176250000Y-41080000D03*
X176750000Y-41080000D03*
X177250000Y-41080000D03*
X177750000Y-41080000D03*
X178250000Y-41080000D03*
X178750000Y-41080000D03*
X179250000Y-41080000D03*
X179750000Y-41080000D03*
X180250000Y-41080000D03*
X180750000Y-41080000D03*
X181250000Y-41080000D03*
X181750000Y-41080000D03*
%TD*%
M02*
