%TF.GenerationSoftware,KiCad,Pcbnew,9.0.3*%
%TF.CreationDate,2025-08-30T17:40:09+05:30*%
%TF.ProjectId,Panel,50616e65-6c2e-46b6-9963-61645f706362,Rev 1.0*%
%TF.SameCoordinates,Original*%
%TF.FileFunction,Profile,NP*%
%FSLAX46Y46*%
G04 Gerber Fmt 4.6, Leading zero omitted, Abs format (unit mm)*
G04 Created by KiCad (PCBNEW 9.0.3) date 2025-08-30 17:40:09*
%MOMM*%
%LPD*%
G01*
G04 APERTURE LIST*
%TA.AperFunction,Profile*%
%ADD10C,0.100000*%
%TD*%
G04 APERTURE END LIST*
D10*
X136400000Y-23000500D02*
X136300000Y-23000500D01*
X87400000Y-23000000D02*
X209600000Y-23000000D01*
X160700000Y-23000500D02*
X160600000Y-23000500D01*
X197400000Y-23000500D02*
X197300000Y-23000500D01*
X84400000Y-20000000D02*
X84400000Y-89200000D01*
X185100000Y-23000500D02*
X185000000Y-23000500D01*
X136200000Y-23000500D02*
X124200000Y-23000500D01*
X112000000Y-23000500D02*
X111900000Y-23000500D01*
X185000000Y-23000500D02*
X173000000Y-23000500D01*
X212600000Y-89200000D02*
X212600000Y-20000000D01*
X172900000Y-23000500D02*
X172800000Y-23000500D01*
X99600000Y-23000500D02*
X87600000Y-23000500D01*
X197300000Y-23000500D02*
X197200000Y-23000500D01*
X99700000Y-23000500D02*
X99600000Y-23000500D01*
X185200000Y-23000500D02*
X185100000Y-23000500D01*
X148400000Y-23000500D02*
X136400000Y-23000500D01*
X111900000Y-23000500D02*
X111800000Y-23000500D01*
X87600000Y-23000500D02*
X87400000Y-23000500D01*
X84400000Y-89200000D02*
X212600000Y-89200000D01*
X136300000Y-23000500D02*
X136200000Y-23000500D01*
X124200000Y-23000500D02*
X124100000Y-23000500D01*
X212600000Y-20000000D02*
X84400000Y-20000000D01*
X172800000Y-23000500D02*
X160800000Y-23000500D01*
X124000000Y-23000500D02*
X112000000Y-23000500D01*
X111800000Y-23000500D02*
X99800000Y-23000500D01*
X209600000Y-23000500D02*
X209400000Y-23000500D01*
X160600000Y-23000500D02*
X148600000Y-23000500D01*
X197200000Y-23000500D02*
X185200000Y-23000500D01*
X173000000Y-23000500D02*
X172900000Y-23000500D01*
X160800000Y-23000500D02*
X160700000Y-23000500D01*
X99800000Y-23000500D02*
X99700000Y-23000500D01*
X148600000Y-23000500D02*
X148500000Y-23000500D01*
X124100000Y-23000500D02*
X124000000Y-23000500D01*
X209400000Y-23000500D02*
X197400000Y-23000500D01*
X148500000Y-23000500D02*
X148400000Y-23000500D01*
M02*
