%TF.GenerationSoftware,KiCad,Pcbnew,9.0.3*%
%TF.CreationDate,2026-04-13T10:41:49+05:30*%
%TF.ProjectId,USBC_FEMALE_BREAKOUT,55534243-5f46-4454-9d41-4c455f425245,rev?*%
%TF.SameCoordinates,Original*%
%TF.FileFunction,Legend,Top*%
%TF.FilePolarity,Positive*%
%FSLAX46Y46*%
G04 Gerber Fmt 4.6, Leading zero omitted, Abs format (unit mm)*
G04 Created by KiCad (PCBNEW 9.0.3) date 2026-04-13 10:41:49*
%MOMM*%
%LPD*%
G01*
G04 APERTURE LIST*
%ADD10C,0.082500*%
%ADD11C,0.142500*%
%ADD12C,0.120000*%
%ADD13C,0.000000*%
G04 APERTURE END LIST*
D10*
X210023333Y-64687019D02*
X210023333Y-65044162D01*
X210023333Y-65044162D02*
X209999524Y-65115590D01*
X209999524Y-65115590D02*
X209951905Y-65163210D01*
X209951905Y-65163210D02*
X209880476Y-65187019D01*
X209880476Y-65187019D02*
X209832857Y-65187019D01*
X210523333Y-65187019D02*
X210237619Y-65187019D01*
X210380476Y-65187019D02*
X210380476Y-64687019D01*
X210380476Y-64687019D02*
X210332857Y-64758448D01*
X210332857Y-64758448D02*
X210285238Y-64806067D01*
X210285238Y-64806067D02*
X210237619Y-64829876D01*
D11*
X220810000Y-80216282D02*
X220810000Y-80623425D01*
X220810000Y-80623425D02*
X220782857Y-80704854D01*
X220782857Y-80704854D02*
X220728571Y-80759140D01*
X220728571Y-80759140D02*
X220647143Y-80786282D01*
X220647143Y-80786282D02*
X220592857Y-80786282D01*
X221054286Y-80270568D02*
X221081429Y-80243425D01*
X221081429Y-80243425D02*
X221135715Y-80216282D01*
X221135715Y-80216282D02*
X221271429Y-80216282D01*
X221271429Y-80216282D02*
X221325715Y-80243425D01*
X221325715Y-80243425D02*
X221352857Y-80270568D01*
X221352857Y-80270568D02*
X221380000Y-80324854D01*
X221380000Y-80324854D02*
X221380000Y-80379140D01*
X221380000Y-80379140D02*
X221352857Y-80460568D01*
X221352857Y-80460568D02*
X221027143Y-80786282D01*
X221027143Y-80786282D02*
X221380000Y-80786282D01*
D12*
%TO.C,H1*%
X219850000Y-67670000D02*
G75*
G02*
X216350000Y-67670000I-1750000J0D01*
G01*
X216350000Y-67670000D02*
G75*
G02*
X219850000Y-67670000I1750000J0D01*
G01*
D13*
%TO.C,G\u002A\u002A\u002A*%
G36*
X194584300Y-73260590D02*
G01*
X194612947Y-73280892D01*
X194630878Y-73310409D01*
X194632447Y-73315774D01*
X194634213Y-73351322D01*
X194622845Y-73381628D01*
X194601612Y-73404798D01*
X194573780Y-73418935D01*
X194542615Y-73422142D01*
X194511385Y-73412524D01*
X194491614Y-73397526D01*
X194471868Y-73367742D01*
X194466082Y-73335303D01*
X194472769Y-73303913D01*
X194490442Y-73277278D01*
X194517614Y-73259103D01*
X194549606Y-73253038D01*
X194584300Y-73260590D01*
G37*
G36*
X194813784Y-71577755D02*
G01*
X194813784Y-71645443D01*
X194636102Y-71645443D01*
X194458421Y-71645443D01*
X194458421Y-71708900D01*
X194458421Y-71772358D01*
X194614950Y-71772358D01*
X194771479Y-71772358D01*
X194771479Y-71840046D01*
X194771479Y-71907735D01*
X194614950Y-71907735D01*
X194458421Y-71907735D01*
X194458421Y-71975255D01*
X194458421Y-72042774D01*
X194638218Y-72045058D01*
X194818015Y-72047342D01*
X194820486Y-72112914D01*
X194822957Y-72178487D01*
X194564540Y-72178487D01*
X194306122Y-72178487D01*
X194306122Y-71844277D01*
X194306122Y-71510066D01*
X194559953Y-71510066D01*
X194813784Y-71510066D01*
X194813784Y-71577755D01*
G37*
G36*
X196142165Y-71577755D02*
G01*
X196142165Y-71645443D01*
X195964484Y-71645443D01*
X195786802Y-71645443D01*
X195786802Y-71708900D01*
X195786802Y-71772358D01*
X195943331Y-71772358D01*
X196099860Y-71772358D01*
X196099860Y-71840046D01*
X196099860Y-71907735D01*
X195943331Y-71907735D01*
X195786802Y-71907735D01*
X195786802Y-71975423D01*
X195786802Y-72043111D01*
X195964484Y-72043111D01*
X196142165Y-72043111D01*
X196142165Y-72110799D01*
X196142165Y-72178487D01*
X195888334Y-72178487D01*
X195634504Y-72178487D01*
X195634504Y-71844277D01*
X195634504Y-71510066D01*
X195888334Y-71510066D01*
X196142165Y-71510066D01*
X196142165Y-71577755D01*
G37*
G36*
X198147348Y-71641988D02*
G01*
X198175169Y-71688836D01*
X198195898Y-71722651D01*
X198210807Y-71745111D01*
X198221168Y-71757892D01*
X198228256Y-71762671D01*
X198233341Y-71761126D01*
X198235653Y-71758328D01*
X198243518Y-71745956D01*
X198258364Y-71721969D01*
X198278429Y-71689236D01*
X198301950Y-71650630D01*
X198316647Y-71626405D01*
X198387116Y-71510066D01*
X198470337Y-71510066D01*
X198505536Y-71510485D01*
X198533364Y-71511612D01*
X198550209Y-71513255D01*
X198553557Y-71514497D01*
X198549181Y-71522502D01*
X198536824Y-71542889D01*
X198517649Y-71573800D01*
X198492817Y-71613376D01*
X198463488Y-71659758D01*
X198430825Y-71711088D01*
X198426642Y-71717640D01*
X198299727Y-71916351D01*
X198299727Y-72047419D01*
X198299727Y-72178487D01*
X198223577Y-72178487D01*
X198147428Y-72178487D01*
X198147428Y-72045931D01*
X198147428Y-71913375D01*
X198026238Y-71722297D01*
X197993748Y-71671045D01*
X197964083Y-71624194D01*
X197938497Y-71583732D01*
X197918247Y-71551649D01*
X197904589Y-71529931D01*
X197898823Y-71520643D01*
X197899715Y-71515743D01*
X197910678Y-71512532D01*
X197933844Y-71510737D01*
X197971341Y-71510084D01*
X197981084Y-71510066D01*
X198069568Y-71510066D01*
X198147348Y-71641988D01*
G37*
G36*
X192006839Y-71511580D02*
G01*
X192067168Y-71512599D01*
X192113276Y-71513776D01*
X192147861Y-71515387D01*
X192173625Y-71517706D01*
X192193267Y-71521010D01*
X192209486Y-71525575D01*
X192224983Y-71531676D01*
X192231375Y-71534513D01*
X192273125Y-71559875D01*
X192310203Y-71594327D01*
X192338217Y-71633204D01*
X192350136Y-71660731D01*
X192357410Y-71700053D01*
X192359669Y-71747294D01*
X192356879Y-71794199D01*
X192350818Y-71826551D01*
X192335560Y-71858272D01*
X192308893Y-71892123D01*
X192275110Y-71923920D01*
X192238501Y-71949479D01*
X192211947Y-71961975D01*
X192179794Y-71970079D01*
X192135291Y-71976676D01*
X192082989Y-71981118D01*
X192074527Y-71981569D01*
X191979340Y-71986244D01*
X191979340Y-72082366D01*
X191979340Y-72178487D01*
X191903191Y-72178487D01*
X191827042Y-72178487D01*
X191827042Y-71848507D01*
X191979340Y-71848507D01*
X192046857Y-71848507D01*
X192096503Y-71845992D01*
X192136320Y-71838873D01*
X192148715Y-71834767D01*
X192181542Y-71814043D01*
X192201104Y-71783143D01*
X192207783Y-71741456D01*
X192207788Y-71740075D01*
X192202500Y-71705329D01*
X192185913Y-71679141D01*
X192156938Y-71660878D01*
X192114489Y-71649911D01*
X192057478Y-71645607D01*
X192044913Y-71645490D01*
X191979340Y-71645443D01*
X191979340Y-71746975D01*
X191979340Y-71848507D01*
X191827042Y-71848507D01*
X191827042Y-71843675D01*
X191827042Y-71746975D01*
X191827042Y-71508863D01*
X192006839Y-71511580D01*
G37*
G36*
X195659887Y-72966298D02*
G01*
X195653642Y-72996221D01*
X195637516Y-73029299D01*
X195615419Y-73058885D01*
X195595352Y-73076022D01*
X195577253Y-73084943D01*
X195553876Y-73091568D01*
X195521521Y-73096640D01*
X195476484Y-73100905D01*
X195468639Y-73101504D01*
X195409467Y-73107551D01*
X195363822Y-73115735D01*
X195335855Y-73124630D01*
X195305333Y-73143356D01*
X195272984Y-73171282D01*
X195243357Y-73203632D01*
X195221007Y-73235631D01*
X195212537Y-73253982D01*
X195209251Y-73271365D01*
X195205788Y-73302576D01*
X195202392Y-73344523D01*
X195199307Y-73394118D01*
X195196777Y-73448269D01*
X195196407Y-73458059D01*
X195190051Y-73632521D01*
X195164302Y-73664881D01*
X195141107Y-73688066D01*
X195111524Y-73709689D01*
X195081001Y-73726406D01*
X195054987Y-73734877D01*
X195049470Y-73735316D01*
X195034911Y-73728311D01*
X195030262Y-73720509D01*
X195029124Y-73708335D01*
X195028304Y-73681638D01*
X195027821Y-73642819D01*
X195027691Y-73594273D01*
X195027933Y-73538399D01*
X195028512Y-73481485D01*
X195029506Y-73412700D01*
X195030617Y-73358524D01*
X195032020Y-73316645D01*
X195033889Y-73284750D01*
X195036399Y-73260527D01*
X195039723Y-73241663D01*
X195044037Y-73225844D01*
X195048800Y-73212584D01*
X195087422Y-73135585D01*
X195138871Y-73069354D01*
X195202375Y-73014740D01*
X195260599Y-72980346D01*
X195316769Y-72952671D01*
X195488328Y-72949932D01*
X195659887Y-72947193D01*
X195659887Y-72966298D01*
G37*
G36*
X196448877Y-71511853D02*
G01*
X196509829Y-71513089D01*
X196556641Y-71514497D01*
X196592095Y-71516354D01*
X196618973Y-71518935D01*
X196640056Y-71522517D01*
X196658125Y-71527377D01*
X196675964Y-71533791D01*
X196678118Y-71534637D01*
X196737845Y-71566052D01*
X196791393Y-71609268D01*
X196835746Y-71661041D01*
X196867887Y-71718123D01*
X196879428Y-71751206D01*
X196886416Y-71793709D01*
X196888202Y-71844804D01*
X196884980Y-71897040D01*
X196876940Y-71942969D01*
X196874218Y-71952538D01*
X196847496Y-72011106D01*
X196807108Y-72065030D01*
X196756237Y-72111208D01*
X196698069Y-72146539D01*
X196659512Y-72161705D01*
X196638179Y-72167675D01*
X196615958Y-72172071D01*
X196589831Y-72175120D01*
X196556777Y-72177050D01*
X196513778Y-72178091D01*
X196457813Y-72178469D01*
X196437410Y-72178487D01*
X196269080Y-72178487D01*
X196269080Y-72043111D01*
X196421379Y-72043111D01*
X196495413Y-72043064D01*
X196533800Y-72041986D01*
X196569847Y-72039166D01*
X196597118Y-72035154D01*
X196602062Y-72033960D01*
X196626783Y-72022943D01*
X196655169Y-72004401D01*
X196671970Y-71990528D01*
X196705512Y-71948767D01*
X196725879Y-71899684D01*
X196732967Y-71846703D01*
X196726674Y-71793248D01*
X196706895Y-71742744D01*
X196680566Y-71705962D01*
X196653090Y-71681745D01*
X196619716Y-71664751D01*
X196577137Y-71653854D01*
X196522047Y-71647925D01*
X196508104Y-71647184D01*
X196421379Y-71643225D01*
X196421379Y-71843168D01*
X196421379Y-72043111D01*
X196269080Y-72043111D01*
X196269080Y-71843550D01*
X196269080Y-71843168D01*
X196269080Y-71508612D01*
X196448877Y-71511853D01*
G37*
G36*
X198521994Y-72949265D02*
G01*
X198542189Y-72950448D01*
X198554123Y-72952657D01*
X198559959Y-72956071D01*
X198561863Y-72960869D01*
X198562019Y-72964328D01*
X198555088Y-72997645D01*
X198536772Y-73032893D01*
X198510786Y-73064368D01*
X198483438Y-73085012D01*
X198469225Y-73088959D01*
X198442188Y-73093420D01*
X198406390Y-73097811D01*
X198371257Y-73101123D01*
X198329103Y-73105446D01*
X198290195Y-73111020D01*
X198259408Y-73117058D01*
X198243911Y-73121689D01*
X198191409Y-73152507D01*
X198147554Y-73196410D01*
X198125993Y-73229148D01*
X198117646Y-73244712D01*
X198111354Y-73258728D01*
X198106753Y-73273922D01*
X198103476Y-73293018D01*
X198101160Y-73318741D01*
X198099438Y-73353816D01*
X198097945Y-73400968D01*
X198096711Y-73447641D01*
X198094821Y-73511502D01*
X198092502Y-73560945D01*
X198089218Y-73598477D01*
X198084428Y-73626603D01*
X198077595Y-73647826D01*
X198068178Y-73664654D01*
X198055640Y-73679589D01*
X198044469Y-73690492D01*
X198019351Y-73708568D01*
X197988020Y-73724099D01*
X197957933Y-73733739D01*
X197944635Y-73735316D01*
X197939381Y-73734809D01*
X197935323Y-73731997D01*
X197932307Y-73724945D01*
X197930178Y-73711717D01*
X197928783Y-73690379D01*
X197927966Y-73658995D01*
X197927574Y-73615630D01*
X197927450Y-73558349D01*
X197927442Y-73519976D01*
X197927831Y-73452161D01*
X197928942Y-73390470D01*
X197930683Y-73337364D01*
X197932967Y-73295301D01*
X197935703Y-73266740D01*
X197936872Y-73259800D01*
X197960634Y-73186680D01*
X197999067Y-73118746D01*
X198050119Y-73058597D01*
X198111737Y-73008835D01*
X198154287Y-72984368D01*
X198218372Y-72952671D01*
X198390195Y-72950072D01*
X198448161Y-72949256D01*
X198491373Y-72948927D01*
X198521994Y-72949265D01*
G37*
G36*
X195145879Y-71511514D02*
G01*
X195209699Y-71512543D01*
X195259052Y-71513720D01*
X195296396Y-71515260D01*
X195324187Y-71517375D01*
X195344881Y-71520281D01*
X195360935Y-71524190D01*
X195374803Y-71529318D01*
X195380768Y-71531978D01*
X195430920Y-71563775D01*
X195470832Y-71606829D01*
X195487216Y-71634270D01*
X195498690Y-71670674D01*
X195503806Y-71716103D01*
X195502644Y-71764058D01*
X195495287Y-71808043D01*
X195484672Y-71836617D01*
X195462491Y-71868937D01*
X195432486Y-71900623D01*
X195400565Y-71925873D01*
X195384755Y-71934725D01*
X195377677Y-71938613D01*
X195374471Y-71943893D01*
X195376193Y-71952831D01*
X195383895Y-71967692D01*
X195398631Y-71990740D01*
X195421457Y-72024242D01*
X195436618Y-72046177D01*
X195462477Y-72083684D01*
X195485371Y-72117164D01*
X195503328Y-72143713D01*
X195514375Y-72160426D01*
X195516403Y-72163681D01*
X195519069Y-72170297D01*
X195515951Y-72174587D01*
X195504382Y-72177050D01*
X195481697Y-72178182D01*
X195445228Y-72178483D01*
X195437152Y-72178487D01*
X195349199Y-72178487D01*
X195279140Y-72072725D01*
X195209082Y-71966962D01*
X195151040Y-71966962D01*
X195092998Y-71966962D01*
X195092998Y-72072725D01*
X195092998Y-72178487D01*
X195021079Y-72178487D01*
X194949160Y-72178487D01*
X194949160Y-71843595D01*
X194949160Y-71832965D01*
X195092998Y-71832965D01*
X195198105Y-71830160D01*
X195242484Y-71828749D01*
X195273341Y-71826890D01*
X195294072Y-71823962D01*
X195308077Y-71819343D01*
X195318754Y-71812412D01*
X195324891Y-71806964D01*
X195346495Y-71776107D01*
X195352560Y-71740170D01*
X195342719Y-71701574D01*
X195341355Y-71698692D01*
X195328232Y-71678216D01*
X195310199Y-71663621D01*
X195284507Y-71654009D01*
X195248409Y-71648483D01*
X195199154Y-71646144D01*
X195179723Y-71645920D01*
X195092998Y-71645443D01*
X195092998Y-71739204D01*
X195092998Y-71832965D01*
X194949160Y-71832965D01*
X194949160Y-71739204D01*
X194949160Y-71508703D01*
X195145879Y-71511514D01*
G37*
G36*
X190177454Y-72178472D02*
G01*
X190255235Y-72202374D01*
X190327685Y-72240549D01*
X190392964Y-72291714D01*
X190449232Y-72354583D01*
X190494648Y-72427873D01*
X190508546Y-72457878D01*
X190513900Y-72471005D01*
X190518181Y-72483699D01*
X190521508Y-72497952D01*
X190524003Y-72515758D01*
X190525785Y-72539110D01*
X190526975Y-72570000D01*
X190527694Y-72610422D01*
X190528063Y-72662368D01*
X190528200Y-72727833D01*
X190528224Y-72783451D01*
X190528274Y-73062665D01*
X190274444Y-73064176D01*
X190210359Y-73064465D01*
X190151655Y-73064556D01*
X190100493Y-73064457D01*
X190059033Y-73064180D01*
X190029438Y-73063736D01*
X190013868Y-73063134D01*
X190012152Y-73062895D01*
X189999867Y-73059001D01*
X189977148Y-73051918D01*
X189957889Y-73045953D01*
X189890027Y-73016598D01*
X189826532Y-72973035D01*
X189769923Y-72917875D01*
X189722723Y-72853732D01*
X189687451Y-72783217D01*
X189677816Y-72755671D01*
X189666830Y-72704619D01*
X189661474Y-72645136D01*
X189661730Y-72601793D01*
X189966144Y-72601793D01*
X189969052Y-72646110D01*
X189983826Y-72688099D01*
X190010193Y-72724460D01*
X190047879Y-72751889D01*
X190053475Y-72754572D01*
X190101033Y-72768769D01*
X190147117Y-72766679D01*
X190175183Y-72757664D01*
X190220448Y-72731106D01*
X190251614Y-72695328D01*
X190268418Y-72650712D01*
X190271507Y-72618797D01*
X190264549Y-72568519D01*
X190244561Y-72526179D01*
X190214128Y-72493184D01*
X190175832Y-72470944D01*
X190132255Y-72460865D01*
X190085981Y-72464356D01*
X190039591Y-72482823D01*
X190031356Y-72487893D01*
X189997022Y-72519383D01*
X189975376Y-72558450D01*
X189966144Y-72601793D01*
X189661730Y-72601793D01*
X189661835Y-72583966D01*
X189668000Y-72527853D01*
X189674518Y-72499427D01*
X189705567Y-72421153D01*
X189749427Y-72350819D01*
X189804197Y-72289907D01*
X189867982Y-72239900D01*
X189938882Y-72202279D01*
X190014999Y-72178528D01*
X190094436Y-72170128D01*
X190096182Y-72170127D01*
X190177454Y-72178472D01*
G37*
G36*
X197554755Y-71510549D02*
G01*
X197613260Y-71512274D01*
X197659570Y-71515661D01*
X197696039Y-71521126D01*
X197725021Y-71529089D01*
X197748870Y-71539968D01*
X197769939Y-71554179D01*
X197780753Y-71563179D01*
X197811727Y-71598223D01*
X197829018Y-71638644D01*
X197834370Y-71688313D01*
X197827288Y-71740470D01*
X197806510Y-71784080D01*
X197783084Y-71809572D01*
X197759203Y-71829666D01*
X197799415Y-71854663D01*
X197837270Y-71887271D01*
X197862248Y-71928066D01*
X197874068Y-71973941D01*
X197872453Y-72021785D01*
X197857123Y-72068490D01*
X197827798Y-72110946D01*
X197822872Y-72116063D01*
X197803474Y-72133955D01*
X197783607Y-72148107D01*
X197761047Y-72158945D01*
X197733568Y-72166899D01*
X197698946Y-72172398D01*
X197654955Y-72175868D01*
X197599372Y-72177739D01*
X197529970Y-72178439D01*
X197498624Y-72178487D01*
X197301326Y-72178487D01*
X197301326Y-72051572D01*
X197453624Y-72051572D01*
X197540350Y-72051370D01*
X197581216Y-72050506D01*
X197619561Y-72048353D01*
X197649750Y-72045286D01*
X197660919Y-72043327D01*
X197694109Y-72029428D01*
X197715601Y-72007773D01*
X197724190Y-71981568D01*
X197718672Y-71954019D01*
X197702569Y-71932477D01*
X197692681Y-71924136D01*
X197681672Y-71918309D01*
X197666323Y-71914443D01*
X197643411Y-71911984D01*
X197609717Y-71910377D01*
X197567192Y-71909194D01*
X197453624Y-71906423D01*
X197453624Y-71978998D01*
X197453624Y-72051572D01*
X197301326Y-72051572D01*
X197301326Y-71978998D01*
X197301326Y-71844277D01*
X197301326Y-71780819D01*
X197453624Y-71780819D01*
X197534276Y-71780819D01*
X197585107Y-71779117D01*
X197624177Y-71774221D01*
X197644323Y-71768537D01*
X197671196Y-71749894D01*
X197684474Y-71724667D01*
X197683751Y-71696868D01*
X197668625Y-71670510D01*
X197655340Y-71658988D01*
X197641481Y-71652438D01*
X197620229Y-71648259D01*
X197588380Y-71646059D01*
X197544813Y-71645443D01*
X197453624Y-71645443D01*
X197453624Y-71713131D01*
X197453624Y-71780819D01*
X197301326Y-71780819D01*
X197301326Y-71713131D01*
X197301326Y-71510066D01*
X197481702Y-71510066D01*
X197554755Y-71510549D01*
G37*
G36*
X192718310Y-72748854D02*
G01*
X192733876Y-72756641D01*
X192752910Y-72766313D01*
X192755202Y-72767419D01*
X192796133Y-72793778D01*
X192818659Y-72819818D01*
X192824052Y-72828987D01*
X192828383Y-72838568D01*
X192831807Y-72850494D01*
X192834477Y-72866700D01*
X192836544Y-72889117D01*
X192838162Y-72919681D01*
X192839485Y-72960324D01*
X192840664Y-73012979D01*
X192841853Y-73079580D01*
X192842551Y-73121892D01*
X192843818Y-73196964D01*
X192845009Y-73257143D01*
X192846283Y-73304454D01*
X192847795Y-73340923D01*
X192849703Y-73368578D01*
X192852164Y-73389445D01*
X192855335Y-73405550D01*
X192859373Y-73418920D01*
X192864435Y-73431580D01*
X192866998Y-73437384D01*
X192898847Y-73488723D01*
X192942566Y-73529172D01*
X192996125Y-73557497D01*
X193057495Y-73572463D01*
X193092346Y-73574557D01*
X193139444Y-73577103D01*
X193184531Y-73584055D01*
X193222631Y-73594383D01*
X193248494Y-73606861D01*
X193267277Y-73626305D01*
X193285769Y-73654706D01*
X193300377Y-73685447D01*
X193307508Y-73711911D01*
X193307721Y-73715956D01*
X193307271Y-73723546D01*
X193304195Y-73728810D01*
X193295906Y-73732143D01*
X193279815Y-73733935D01*
X193253335Y-73734580D01*
X193213877Y-73734470D01*
X193187152Y-73734243D01*
X193138479Y-73733348D01*
X193091035Y-73731661D01*
X193049762Y-73729410D01*
X193019600Y-73726822D01*
X193015816Y-73726350D01*
X192934504Y-73707934D01*
X192863294Y-73675955D01*
X192802319Y-73630521D01*
X192751712Y-73571742D01*
X192711605Y-73499729D01*
X192697047Y-73463114D01*
X192692256Y-73449116D01*
X192688342Y-73435510D01*
X192685215Y-73420483D01*
X192682784Y-73402220D01*
X192680958Y-73378906D01*
X192679648Y-73348728D01*
X192678763Y-73309871D01*
X192678211Y-73260520D01*
X192677903Y-73198861D01*
X192677748Y-73123081D01*
X192677695Y-73075356D01*
X192677504Y-72989121D01*
X192677340Y-72918438D01*
X192677548Y-72861941D01*
X192678472Y-72818262D01*
X192680456Y-72786036D01*
X192683843Y-72763896D01*
X192688979Y-72750474D01*
X192696205Y-72744404D01*
X192705868Y-72744320D01*
X192718310Y-72748854D01*
G37*
G36*
X192839593Y-71506063D02*
G01*
X192870952Y-71507275D01*
X192894421Y-71510262D01*
X192914516Y-71515819D01*
X192935753Y-71524737D01*
X192954183Y-71533634D01*
X193020259Y-71574732D01*
X193073276Y-71626571D01*
X193113330Y-71689245D01*
X193115777Y-71694307D01*
X193127537Y-71720193D01*
X193135269Y-71741722D01*
X193139812Y-71763695D01*
X193142006Y-71790917D01*
X193142692Y-71828190D01*
X193142731Y-71848507D01*
X193142439Y-71891540D01*
X193141037Y-71922237D01*
X193137736Y-71945181D01*
X193131747Y-71964956D01*
X193122283Y-71986146D01*
X193117348Y-71996042D01*
X193076152Y-72059306D01*
X193022632Y-72112222D01*
X192958952Y-72153185D01*
X192887277Y-72180589D01*
X192860211Y-72186773D01*
X192819771Y-72192924D01*
X192784291Y-72194016D01*
X192746298Y-72189842D01*
X192709114Y-72182579D01*
X192638389Y-72159220D01*
X192576813Y-72123045D01*
X192525329Y-72076038D01*
X192484882Y-72020183D01*
X192456415Y-71957465D01*
X192440875Y-71889868D01*
X192439817Y-71845218D01*
X192597485Y-71845218D01*
X192603260Y-71896403D01*
X192620737Y-71944576D01*
X192649796Y-71986912D01*
X192690313Y-72020589D01*
X192709608Y-72030960D01*
X192765579Y-72048639D01*
X192821327Y-72049402D01*
X192877021Y-72033248D01*
X192881430Y-72031247D01*
X192927759Y-72000845D01*
X192962235Y-71958423D01*
X192982685Y-71911002D01*
X192991969Y-71872834D01*
X192993625Y-71839840D01*
X192987586Y-71803955D01*
X192981609Y-71782236D01*
X192957837Y-71729081D01*
X192922283Y-71687565D01*
X192876359Y-71658728D01*
X192821476Y-71643613D01*
X192790935Y-71641525D01*
X192756664Y-71642643D01*
X192731227Y-71647844D01*
X192706655Y-71659206D01*
X192693857Y-71666819D01*
X192651599Y-71701821D01*
X192621532Y-71745103D01*
X192603535Y-71793844D01*
X192597485Y-71845218D01*
X192439817Y-71845218D01*
X192439204Y-71819375D01*
X192452348Y-71747972D01*
X192474787Y-71690247D01*
X192511529Y-71633173D01*
X192561551Y-71582631D01*
X192621540Y-71541835D01*
X192634960Y-71534872D01*
X192660711Y-71522561D01*
X192681576Y-71514336D01*
X192702112Y-71509374D01*
X192726880Y-71506852D01*
X192760437Y-71505948D01*
X192795829Y-71505836D01*
X192839593Y-71506063D01*
G37*
G36*
X197520629Y-72954852D02*
G01*
X197571984Y-72961776D01*
X197616157Y-72974962D01*
X197657839Y-72995802D01*
X197701028Y-73025173D01*
X197761325Y-73080289D01*
X197807561Y-73144605D01*
X197839267Y-73217239D01*
X197855970Y-73297307D01*
X197857796Y-73319213D01*
X197854889Y-73401389D01*
X197836375Y-73477273D01*
X197802589Y-73546246D01*
X197753867Y-73607693D01*
X197690544Y-73660996D01*
X197662245Y-73679274D01*
X197594634Y-73710521D01*
X197519736Y-73728770D01*
X197441909Y-73733301D01*
X197378391Y-73726165D01*
X197309185Y-73704415D01*
X197243126Y-73668187D01*
X197183328Y-73619925D01*
X197132907Y-73562074D01*
X197100046Y-73507791D01*
X197086818Y-73480426D01*
X197077950Y-73458819D01*
X197072570Y-73438363D01*
X197069808Y-73414449D01*
X197068791Y-73382472D01*
X197068675Y-73349760D01*
X197233823Y-73349760D01*
X197242202Y-73407788D01*
X197265784Y-73461062D01*
X197303016Y-73507173D01*
X197352342Y-73543712D01*
X197362550Y-73549171D01*
X197393598Y-73563796D01*
X197417921Y-73571339D01*
X197443283Y-73573463D01*
X197470546Y-73572310D01*
X197512880Y-73566326D01*
X197550256Y-73555376D01*
X197560525Y-73550768D01*
X197611187Y-73515853D01*
X197652707Y-73468815D01*
X197667445Y-73444548D01*
X197681949Y-73402578D01*
X197687509Y-73352361D01*
X197684240Y-73299943D01*
X197672263Y-73251369D01*
X197663287Y-73230872D01*
X197628875Y-73180361D01*
X197587248Y-73143394D01*
X197540508Y-73119389D01*
X197490759Y-73107764D01*
X197440103Y-73107937D01*
X197390642Y-73119325D01*
X197344479Y-73141348D01*
X197303716Y-73173422D01*
X197270456Y-73214967D01*
X197246801Y-73265398D01*
X197234853Y-73324136D01*
X197233823Y-73349760D01*
X197068675Y-73349760D01*
X197068647Y-73341837D01*
X197068808Y-73298485D01*
X197069900Y-73267391D01*
X197072835Y-73243891D01*
X197078527Y-73223321D01*
X197087888Y-73201016D01*
X197101829Y-73172316D01*
X197142826Y-73104124D01*
X197192879Y-73048924D01*
X197254672Y-73004034D01*
X197288293Y-72985853D01*
X197317037Y-72971889D01*
X197339350Y-72962527D01*
X197359910Y-72956851D01*
X197383398Y-72953947D01*
X197414492Y-72952900D01*
X197457403Y-72952796D01*
X197520629Y-72954852D01*
G37*
G36*
X194069214Y-73166650D02*
G01*
X194068927Y-73243609D01*
X194067856Y-73306104D01*
X194065685Y-73356584D01*
X194062100Y-73397501D01*
X194056786Y-73431304D01*
X194049426Y-73460445D01*
X194039707Y-73487374D01*
X194027312Y-73514542D01*
X194023485Y-73522199D01*
X193982563Y-73584908D01*
X193929468Y-73638147D01*
X193866733Y-73680817D01*
X193796890Y-73711823D01*
X193722471Y-73730067D01*
X193646008Y-73734452D01*
X193570034Y-73723882D01*
X193562437Y-73721926D01*
X193488971Y-73693666D01*
X193423120Y-73651372D01*
X193366878Y-73596974D01*
X193322236Y-73532398D01*
X193291189Y-73459572D01*
X193291187Y-73459566D01*
X193284717Y-73429840D01*
X193278925Y-73386655D01*
X193273984Y-73333467D01*
X193270066Y-73273730D01*
X193267346Y-73210900D01*
X193265996Y-73148432D01*
X193266189Y-73089782D01*
X193268099Y-73038405D01*
X193269268Y-73022014D01*
X193272386Y-72986756D01*
X193275442Y-72965066D01*
X193279771Y-72953647D01*
X193286709Y-72949205D01*
X193297590Y-72948442D01*
X193299064Y-72948441D01*
X193325249Y-72954805D01*
X193355973Y-72971465D01*
X193386192Y-72994769D01*
X193410859Y-73021066D01*
X193420771Y-73036517D01*
X193426750Y-73050111D01*
X193431373Y-73066250D01*
X193434929Y-73087554D01*
X193437707Y-73116645D01*
X193439994Y-73156145D01*
X193442079Y-73208674D01*
X193443102Y-73239582D01*
X193445513Y-73300092D01*
X193448559Y-73352245D01*
X193452057Y-73393764D01*
X193455824Y-73422368D01*
X193458747Y-73434052D01*
X193487205Y-73481406D01*
X193528220Y-73521606D01*
X193578013Y-73551918D01*
X193632805Y-73569608D01*
X193649425Y-73572021D01*
X193707314Y-73570476D01*
X193760834Y-73553089D01*
X193811057Y-73519448D01*
X193829220Y-73502597D01*
X193851940Y-73478086D01*
X193869289Y-73453992D01*
X193881971Y-73427549D01*
X193890690Y-73395990D01*
X193896152Y-73356551D01*
X193899060Y-73306465D01*
X193900120Y-73242966D01*
X193900179Y-73224004D01*
X193900504Y-73168802D01*
X193901490Y-73127559D01*
X193903402Y-73097319D01*
X193906503Y-73075121D01*
X193911054Y-73058010D01*
X193916034Y-73045743D01*
X193942509Y-73004145D01*
X193977314Y-72972460D01*
X194017017Y-72953208D01*
X194048612Y-72948441D01*
X194069214Y-72948441D01*
X194069214Y-73166650D01*
G37*
G36*
X191867414Y-72748340D02*
G01*
X191900214Y-72759312D01*
X191934197Y-72779407D01*
X191962027Y-72803888D01*
X191970490Y-72814919D01*
X191978945Y-72833167D01*
X191988670Y-72861405D01*
X191996436Y-72889214D01*
X192010079Y-72944210D01*
X192170276Y-72948779D01*
X192228754Y-72950670D01*
X192273296Y-72952777D01*
X192306891Y-72955431D01*
X192332524Y-72958968D01*
X192353181Y-72963719D01*
X192371850Y-72970017D01*
X192376249Y-72971749D01*
X192452206Y-73010471D01*
X192515541Y-73059996D01*
X192565610Y-73119311D01*
X192601769Y-73187405D01*
X192623374Y-73263268D01*
X192629783Y-73345889D01*
X192628873Y-73368456D01*
X192616558Y-73447020D01*
X192589853Y-73517354D01*
X192548218Y-73580440D01*
X192491111Y-73637259D01*
X192472541Y-73651978D01*
X192438845Y-73674799D01*
X192401732Y-73695867D01*
X192371291Y-73709770D01*
X192320925Y-73723438D01*
X192262874Y-73731059D01*
X192203892Y-73732273D01*
X192150731Y-73726719D01*
X192132589Y-73722516D01*
X192057131Y-73692961D01*
X191988617Y-73649671D01*
X191929584Y-73594764D01*
X191882571Y-73530357D01*
X191866953Y-73500841D01*
X191839767Y-73443411D01*
X191835318Y-73257268D01*
X191835217Y-73253038D01*
X191833959Y-73184470D01*
X191833216Y-73109076D01*
X191833205Y-73104970D01*
X192008954Y-73104970D01*
X192008954Y-73257268D01*
X192009149Y-73313205D01*
X192009903Y-73355073D01*
X192011467Y-73385722D01*
X192014093Y-73408001D01*
X192018034Y-73424762D01*
X192023541Y-73438854D01*
X192025341Y-73442593D01*
X192057377Y-73489688D01*
X192102011Y-73530139D01*
X192143466Y-73554829D01*
X192172862Y-73566939D01*
X192199964Y-73572333D01*
X192233338Y-73572514D01*
X192241632Y-73572050D01*
X192284033Y-73566278D01*
X192320850Y-73555543D01*
X192330473Y-73551183D01*
X192376924Y-73518428D01*
X192417099Y-73472467D01*
X192437243Y-73439180D01*
X192453190Y-73392576D01*
X192458414Y-73339129D01*
X192452992Y-73285022D01*
X192437000Y-73236441D01*
X192434696Y-73231885D01*
X192404067Y-73184752D01*
X192366875Y-73150139D01*
X192322514Y-73125466D01*
X192304664Y-73118347D01*
X192286249Y-73113259D01*
X192263950Y-73109838D01*
X192234452Y-73107722D01*
X192194437Y-73106545D01*
X192144832Y-73105975D01*
X192008954Y-73104970D01*
X191833205Y-73104970D01*
X191833005Y-73032829D01*
X191833343Y-72961706D01*
X191834216Y-72903097D01*
X191837766Y-72743529D01*
X191867414Y-72748340D01*
G37*
G36*
X194622333Y-72955102D02*
G01*
X194696472Y-72978085D01*
X194763717Y-73014525D01*
X194822331Y-73062927D01*
X194870582Y-73121795D01*
X194906735Y-73189633D01*
X194929057Y-73264944D01*
X194931979Y-73282651D01*
X194935080Y-73313066D01*
X194937496Y-73353770D01*
X194939234Y-73401988D01*
X194940305Y-73454949D01*
X194940717Y-73509878D01*
X194940480Y-73564005D01*
X194939601Y-73614554D01*
X194938091Y-73658754D01*
X194935958Y-73693831D01*
X194933211Y-73717013D01*
X194930546Y-73725163D01*
X194919308Y-73728123D01*
X194893884Y-73730525D01*
X194856999Y-73732363D01*
X194811379Y-73733628D01*
X194759752Y-73734313D01*
X194704842Y-73734409D01*
X194649377Y-73733909D01*
X194596083Y-73732804D01*
X194547686Y-73731088D01*
X194506912Y-73728751D01*
X194481873Y-73726460D01*
X194412201Y-73714155D01*
X194354099Y-73693757D01*
X194303314Y-73663174D01*
X194255594Y-73620316D01*
X194246686Y-73610791D01*
X194197085Y-73545480D01*
X194162806Y-73476496D01*
X194143109Y-73405497D01*
X194137372Y-73335546D01*
X194308906Y-73335546D01*
X194315312Y-73393899D01*
X194335602Y-73448566D01*
X194368305Y-73496828D01*
X194411947Y-73535969D01*
X194465054Y-73563270D01*
X194475288Y-73566651D01*
X194490893Y-73568928D01*
X194519929Y-73570949D01*
X194558901Y-73572553D01*
X194604319Y-73573578D01*
X194629757Y-73573829D01*
X194682993Y-73573782D01*
X194721157Y-73572879D01*
X194746085Y-73570985D01*
X194759612Y-73567966D01*
X194763572Y-73563980D01*
X194763694Y-73552295D01*
X194763679Y-73526775D01*
X194763535Y-73490509D01*
X194763275Y-73446585D01*
X194763043Y-73414588D01*
X194762460Y-73362139D01*
X194761405Y-73323439D01*
X194759503Y-73295314D01*
X194756380Y-73274592D01*
X194751662Y-73258098D01*
X194744974Y-73242661D01*
X194742092Y-73236906D01*
X194707429Y-73185776D01*
X194663083Y-73146376D01*
X194611651Y-73119765D01*
X194555728Y-73107001D01*
X194497910Y-73109143D01*
X194456627Y-73120486D01*
X194416192Y-73143312D01*
X194377403Y-73178154D01*
X194344462Y-73220297D01*
X194321567Y-73265029D01*
X194317859Y-73276224D01*
X194308906Y-73335546D01*
X194137372Y-73335546D01*
X194137256Y-73334137D01*
X194144506Y-73264074D01*
X194164120Y-73196963D01*
X194195359Y-73134460D01*
X194237483Y-73078221D01*
X194289753Y-73029903D01*
X194351429Y-72991162D01*
X194421772Y-72963653D01*
X194500043Y-72949033D01*
X194543031Y-72947074D01*
X194622333Y-72955102D01*
G37*
G36*
X193374126Y-71592561D02*
G01*
X193385879Y-71630859D01*
X193400880Y-71679952D01*
X193417481Y-71734436D01*
X193434033Y-71788906D01*
X193439919Y-71808318D01*
X193453682Y-71852771D01*
X193466059Y-71890934D01*
X193476135Y-71920128D01*
X193482993Y-71937669D01*
X193485404Y-71941579D01*
X193489279Y-71933873D01*
X193497616Y-71912145D01*
X193509684Y-71878477D01*
X193524749Y-71834953D01*
X193542080Y-71783654D01*
X193560946Y-71726664D01*
X193561222Y-71725823D01*
X193631935Y-71510066D01*
X193698093Y-71510066D01*
X193764252Y-71510066D01*
X193834117Y-71725823D01*
X193852780Y-71782909D01*
X193869931Y-71834326D01*
X193884846Y-71877987D01*
X193896801Y-71911807D01*
X193905073Y-71933700D01*
X193908938Y-71941578D01*
X193908953Y-71941579D01*
X193912882Y-71933894D01*
X193920761Y-71912548D01*
X193931725Y-71880100D01*
X193944906Y-71839110D01*
X193958376Y-71795626D01*
X193974595Y-71742418D01*
X193990892Y-71689038D01*
X194005900Y-71639950D01*
X194018256Y-71599621D01*
X194024326Y-71579870D01*
X194045825Y-71510066D01*
X194126113Y-71510066D01*
X194163304Y-71510330D01*
X194186426Y-71511498D01*
X194198331Y-71514140D01*
X194201868Y-71518823D01*
X194200409Y-71524873D01*
X194196341Y-71536199D01*
X194187535Y-71561573D01*
X194174671Y-71599011D01*
X194158426Y-71646531D01*
X194139480Y-71702149D01*
X194118510Y-71763880D01*
X194102732Y-71810433D01*
X194080028Y-71877451D01*
X194058258Y-71941660D01*
X194038222Y-72000700D01*
X194020723Y-72052214D01*
X194006561Y-72093843D01*
X193996536Y-72123228D01*
X193992818Y-72134067D01*
X193974589Y-72186948D01*
X193909164Y-72186948D01*
X193843738Y-72186948D01*
X193773441Y-71981769D01*
X193754183Y-71925920D01*
X193736524Y-71875386D01*
X193721251Y-71832369D01*
X193709154Y-71799075D01*
X193701023Y-71777706D01*
X193697803Y-71770548D01*
X193693745Y-71776554D01*
X193685048Y-71796571D01*
X193672483Y-71828580D01*
X193656822Y-71870557D01*
X193638838Y-71920483D01*
X193620241Y-71973613D01*
X193548020Y-72182718D01*
X193482794Y-72185190D01*
X193449866Y-72186182D01*
X193429842Y-72185319D01*
X193418722Y-72181478D01*
X193412503Y-72173534D01*
X193408710Y-72164366D01*
X193403449Y-72149664D01*
X193393816Y-72121883D01*
X193380510Y-72083100D01*
X193364232Y-72035388D01*
X193345683Y-71980820D01*
X193325561Y-71921472D01*
X193304568Y-71859416D01*
X193283404Y-71796727D01*
X193262768Y-71735479D01*
X193243361Y-71677746D01*
X193225884Y-71625602D01*
X193211036Y-71581121D01*
X193199517Y-71546377D01*
X193192028Y-71523443D01*
X193189269Y-71514395D01*
X193189267Y-71514360D01*
X193197112Y-71512508D01*
X193218189Y-71511057D01*
X193248806Y-71510207D01*
X193268990Y-71510066D01*
X193348712Y-71510066D01*
X193374126Y-71592561D01*
G37*
G36*
X196045675Y-72956002D02*
G01*
X196116678Y-72980048D01*
X196180991Y-73015954D01*
X196230673Y-73058087D01*
X196253567Y-73077616D01*
X196273130Y-73082001D01*
X196293582Y-73071241D01*
X196307488Y-73058087D01*
X196363086Y-73011862D01*
X196427924Y-72977924D01*
X196499232Y-72956638D01*
X196574239Y-72948368D01*
X196650175Y-72953481D01*
X196724271Y-72972341D01*
X196777664Y-72996102D01*
X196836713Y-73036712D01*
X196888659Y-73089466D01*
X196930787Y-73150696D01*
X196960378Y-73216731D01*
X196971011Y-73257268D01*
X196974353Y-73285510D01*
X196976752Y-73329125D01*
X196978166Y-73386586D01*
X196978555Y-73456370D01*
X196978105Y-73519560D01*
X196975576Y-73731086D01*
X196950193Y-73728412D01*
X196911846Y-73717080D01*
X196874488Y-73693528D01*
X196843917Y-73661763D01*
X196835878Y-73649420D01*
X196828657Y-73635994D01*
X196823209Y-73622628D01*
X196819199Y-73606626D01*
X196816294Y-73585293D01*
X196814160Y-73555933D01*
X196812463Y-73515850D01*
X196810870Y-73462347D01*
X196810365Y-73443411D01*
X196808384Y-73378851D01*
X196805832Y-73328502D01*
X196802069Y-73289657D01*
X196796454Y-73259604D01*
X196788349Y-73235633D01*
X196777113Y-73215036D01*
X196762106Y-73195103D01*
X196747880Y-73178834D01*
X196702988Y-73140639D01*
X196652152Y-73116730D01*
X196597950Y-73106770D01*
X196542959Y-73110427D01*
X196489757Y-73127365D01*
X196440923Y-73157251D01*
X196399034Y-73199749D01*
X196381023Y-73226431D01*
X196357921Y-73265729D01*
X196355314Y-73500814D01*
X196352707Y-73735898D01*
X196321470Y-73730634D01*
X196282542Y-73717273D01*
X196244351Y-73692810D01*
X196213682Y-73661949D01*
X196206029Y-73650589D01*
X196199983Y-73638753D01*
X196195360Y-73624846D01*
X196191872Y-73606279D01*
X196189234Y-73580465D01*
X196187158Y-73544813D01*
X196185359Y-73496736D01*
X196184044Y-73451872D01*
X196182209Y-73392137D01*
X196180237Y-73346588D01*
X196177836Y-73312488D01*
X196174715Y-73287103D01*
X196170583Y-73267695D01*
X196165146Y-73251530D01*
X196161853Y-73243820D01*
X196129354Y-73191198D01*
X196085644Y-73149971D01*
X196033103Y-73121695D01*
X195974110Y-73107928D01*
X195952371Y-73106825D01*
X195901784Y-73111213D01*
X195858310Y-73126330D01*
X195816542Y-73154371D01*
X195800425Y-73168472D01*
X195777295Y-73190977D01*
X195759341Y-73212369D01*
X195745835Y-73235253D01*
X195736046Y-73262237D01*
X195729245Y-73295927D01*
X195724702Y-73338930D01*
X195721687Y-73393853D01*
X195719638Y-73457059D01*
X195714883Y-73632242D01*
X195688603Y-73664742D01*
X195649671Y-73702509D01*
X195605799Y-73724847D01*
X195585531Y-73729905D01*
X195563750Y-73731178D01*
X195553504Y-73723916D01*
X195552987Y-73722715D01*
X195551863Y-73711249D01*
X195551103Y-73685215D01*
X195550718Y-73646962D01*
X195550720Y-73598839D01*
X195551119Y-73543197D01*
X195551902Y-73483838D01*
X195553120Y-73414565D01*
X195554411Y-73359879D01*
X195555959Y-73317444D01*
X195557944Y-73284923D01*
X195560549Y-73259983D01*
X195563957Y-73240287D01*
X195568350Y-73223499D01*
X195573364Y-73208760D01*
X195607834Y-73138783D01*
X195655839Y-73076870D01*
X195715228Y-73024741D01*
X195783850Y-72984115D01*
X195859552Y-72956712D01*
X195898980Y-72948569D01*
X195971827Y-72945086D01*
X196045675Y-72956002D01*
G37*
G36*
X190311065Y-71525490D02*
G01*
X190434257Y-71552746D01*
X190554488Y-71594311D01*
X190670451Y-71650353D01*
X190780839Y-71721040D01*
X190864432Y-71788403D01*
X190963118Y-71886636D01*
X191047092Y-71992944D01*
X191116651Y-72107844D01*
X191172095Y-72231851D01*
X191213722Y-72365483D01*
X191224056Y-72409818D01*
X191231620Y-72458322D01*
X191236686Y-72518881D01*
X191239261Y-72586813D01*
X191239352Y-72657436D01*
X191236963Y-72726069D01*
X191232103Y-72788031D01*
X191224776Y-72838640D01*
X191223468Y-72844947D01*
X191186259Y-72977931D01*
X191134770Y-73103443D01*
X191069962Y-73220535D01*
X190992792Y-73328257D01*
X190904219Y-73425661D01*
X190805201Y-73511798D01*
X190696696Y-73585720D01*
X190579663Y-73646476D01*
X190455060Y-73693120D01*
X190337390Y-73722218D01*
X190283560Y-73730085D01*
X190219740Y-73735750D01*
X190151743Y-73738998D01*
X190085383Y-73739617D01*
X190026474Y-73737390D01*
X189998150Y-73734727D01*
X189862991Y-73709787D01*
X189734268Y-73669710D01*
X189612921Y-73615365D01*
X189499892Y-73547623D01*
X189396124Y-73467351D01*
X189302558Y-73375419D01*
X189220134Y-73272697D01*
X189149796Y-73160053D01*
X189092484Y-73038355D01*
X189049141Y-72908475D01*
X189033821Y-72844655D01*
X189021771Y-72766920D01*
X189015513Y-72679496D01*
X189015158Y-72610000D01*
X189369330Y-72610000D01*
X189370591Y-72676512D01*
X189374812Y-72731231D01*
X189383040Y-72779177D01*
X189396322Y-72825372D01*
X189415705Y-72874836D01*
X189432191Y-72911372D01*
X189485426Y-73009377D01*
X189547244Y-73093481D01*
X189585636Y-73134666D01*
X189640654Y-73184101D01*
X189697102Y-73224413D01*
X189757789Y-73256776D01*
X189825522Y-73282366D01*
X189903110Y-73302354D01*
X189993360Y-73317917D01*
X190037535Y-73323633D01*
X190051179Y-73324297D01*
X190079871Y-73324969D01*
X190121737Y-73325627D01*
X190174902Y-73326252D01*
X190237493Y-73326824D01*
X190307635Y-73327322D01*
X190383454Y-73327725D01*
X190432588Y-73327919D01*
X190532868Y-73328093D01*
X190616739Y-73327863D01*
X190684708Y-73327218D01*
X190737283Y-73326147D01*
X190774973Y-73324640D01*
X190798285Y-73322686D01*
X190807727Y-73320275D01*
X190807893Y-73320072D01*
X190809014Y-73309988D01*
X190810005Y-73284701D01*
X190810849Y-73245929D01*
X190811525Y-73195390D01*
X190812017Y-73134802D01*
X190812304Y-73065883D01*
X190812369Y-72990351D01*
X190812227Y-72919832D01*
X190811830Y-72820744D01*
X190811245Y-72736842D01*
X190810314Y-72666392D01*
X190808878Y-72607659D01*
X190806779Y-72558909D01*
X190803858Y-72518405D01*
X190799957Y-72484414D01*
X190794916Y-72455199D01*
X190788578Y-72429027D01*
X190780783Y-72404162D01*
X190771373Y-72378870D01*
X190760284Y-72351641D01*
X190712118Y-72256619D01*
X190651376Y-72170744D01*
X190579697Y-72094963D01*
X190498719Y-72030219D01*
X190410082Y-71977458D01*
X190315426Y-71937626D01*
X190216390Y-71911668D01*
X190114612Y-71900528D01*
X190011733Y-71905152D01*
X189990999Y-71908078D01*
X189888493Y-71931972D01*
X189789984Y-71969920D01*
X189697586Y-72020449D01*
X189613415Y-72082091D01*
X189539585Y-72153372D01*
X189478212Y-72232822D01*
X189446794Y-72286603D01*
X189416910Y-72347973D01*
X189395551Y-72401417D01*
X189381428Y-72452310D01*
X189373253Y-72506032D01*
X189369739Y-72567957D01*
X189369330Y-72610000D01*
X189015158Y-72610000D01*
X189015049Y-72588542D01*
X189020380Y-72500218D01*
X189031507Y-72420681D01*
X189033743Y-72409572D01*
X189060444Y-72302426D01*
X189093788Y-72206154D01*
X189136065Y-72115277D01*
X189189563Y-72024316D01*
X189203723Y-72002767D01*
X189284664Y-71896218D01*
X189375710Y-71802291D01*
X189475555Y-71721154D01*
X189582891Y-71652976D01*
X189696413Y-71597925D01*
X189814813Y-71556171D01*
X189936785Y-71527882D01*
X190061022Y-71513226D01*
X190186218Y-71512372D01*
X190311065Y-71525490D01*
G37*
D12*
%TO.C,H2*%
X193510000Y-67670000D02*
G75*
G02*
X190010000Y-67670000I-1750000J0D01*
G01*
X190010000Y-67670000D02*
G75*
G02*
X193510000Y-67670000I1750000J0D01*
G01*
%TD*%
M02*
