%TF.GenerationSoftware,KiCad,Pcbnew,9.0.3*%
%TF.CreationDate,2026-04-13T10:41:49+05:30*%
%TF.ProjectId,USBC_FEMALE_BREAKOUT,55534243-5f46-4454-9d41-4c455f425245,rev?*%
%TF.SameCoordinates,Original*%
%TF.FileFunction,Copper,L1,Top*%
%TF.FilePolarity,Positive*%
%FSLAX46Y46*%
G04 Gerber Fmt 4.6, Leading zero omitted, Abs format (unit mm)*
G04 Created by KiCad (PCBNEW 9.0.3) date 2026-04-13 10:41:49*
%MOMM*%
%LPD*%
G01*
G04 APERTURE LIST*
G04 Aperture macros list*
%AMOutline4P*
0 Free polygon, 4 corners , with rotation*
0 The origin of the aperture is its center*
0 number of corners: always 4*
0 $1 to $8 corner X, Y*
0 $9 Rotation angle, in degrees counterclockwise*
0 create outline with 4 corners*
4,1,4,$1,$2,$3,$4,$5,$6,$7,$8,$1,$2,$9*%
%AMOutline5P*
0 Free polygon, 5 corners , with rotation*
0 The origin of the aperture is its center*
0 number of corners: always 5*
0 $1 to $10 corner X, Y*
0 $11 Rotation angle, in degrees counterclockwise*
0 create outline with 5 corners*
4,1,5,$1,$2,$3,$4,$5,$6,$7,$8,$9,$10,$1,$2,$11*%
%AMOutline6P*
0 Free polygon, 6 corners , with rotation*
0 The origin of the aperture is its center*
0 number of corners: always 6*
0 $1 to $12 corner X, Y*
0 $13 Rotation angle, in degrees counterclockwise*
0 create outline with 6 corners*
4,1,6,$1,$2,$3,$4,$5,$6,$7,$8,$9,$10,$11,$12,$1,$2,$13*%
%AMOutline7P*
0 Free polygon, 7 corners , with rotation*
0 The origin of the aperture is its center*
0 number of corners: always 7*
0 $1 to $14 corner X, Y*
0 $15 Rotation angle, in degrees counterclockwise*
0 create outline with 7 corners*
4,1,7,$1,$2,$3,$4,$5,$6,$7,$8,$9,$10,$11,$12,$13,$14,$1,$2,$15*%
%AMOutline8P*
0 Free polygon, 8 corners , with rotation*
0 The origin of the aperture is its center*
0 number of corners: always 8*
0 $1 to $16 corner X, Y*
0 $17 Rotation angle, in degrees counterclockwise*
0 create outline with 8 corners*
4,1,8,$1,$2,$3,$4,$5,$6,$7,$8,$9,$10,$11,$12,$13,$14,$15,$16,$1,$2,$17*%
G04 Aperture macros list end*
%TA.AperFunction,SMDPad,CuDef*%
%ADD10R,0.300000X1.691000*%
%TD*%
%TA.AperFunction,SMDPad,CuDef*%
%ADD11R,0.305000X1.691000*%
%TD*%
%TA.AperFunction,SMDPad,CuDef*%
%ADD12R,0.297000X1.691000*%
%TD*%
%TA.AperFunction,SMDPad,CuDef*%
%ADD13R,0.800000X1.900000*%
%TD*%
%TA.AperFunction,ComponentPad*%
%ADD14Outline5P,-0.827500X1.047500X0.827500X1.047500X0.827500X-1.047500X-0.496500X-1.047500X-0.827500X-0.716500X180.000000*%
%TD*%
%TA.AperFunction,ComponentPad*%
%ADD15Outline4P,-0.792500X-1.042500X0.792500X-1.042500X0.792500X1.042500X-0.792500X1.042500X180.000000*%
%TD*%
%TA.AperFunction,ComponentPad*%
%ADD16R,1.670000X2.095000*%
%TD*%
%TA.AperFunction,ComponentPad*%
%ADD17R,1.645000X2.085000*%
%TD*%
%TA.AperFunction,ComponentPad*%
%ADD18R,1.655000X2.105000*%
%TD*%
%TA.AperFunction,ComponentPad*%
%ADD19R,1.625000X2.075000*%
%TD*%
%TA.AperFunction,ComponentPad*%
%ADD20R,1.675000X2.105000*%
%TD*%
%TA.AperFunction,ComponentPad*%
%ADD21R,1.615000X2.085000*%
%TD*%
%TA.AperFunction,ComponentPad*%
%ADD22R,1.665000X2.075000*%
%TD*%
%TA.AperFunction,ComponentPad*%
%ADD23R,1.665000X2.095000*%
%TD*%
%TA.AperFunction,ComponentPad*%
%ADD24R,1.695000X2.085000*%
%TD*%
%TA.AperFunction,ComponentPad*%
%ADD25R,1.675000X2.095000*%
%TD*%
%TA.AperFunction,ComponentPad*%
%ADD26R,1.655000X2.085000*%
%TD*%
%TA.AperFunction,ComponentPad*%
%ADD27R,1.685000X2.095000*%
%TD*%
%TA.AperFunction,ComponentPad*%
%ADD28R,1.635000X2.085000*%
%TD*%
%TA.AperFunction,ComponentPad*%
%ADD29R,1.685000X2.085000*%
%TD*%
%TA.AperFunction,ComponentPad*%
%ADD30R,1.685000X2.065000*%
%TD*%
%TA.AperFunction,Conductor*%
%ADD31C,0.200000*%
%TD*%
G04 APERTURE END LIST*
D10*
%TO.P,J1,A1,GNDA*%
%TO.N,/A1*%
X202210000Y-64740500D03*
%TO.P,J1,A2,TX1_P*%
%TO.N,/A2*%
X202710000Y-64740500D03*
D11*
%TO.P,J1,A3,TX1_N*%
%TO.N,/A3*%
X203207500Y-64740500D03*
D12*
%TO.P,J1,A4,VBUS_A*%
%TO.N,/A4*%
X203711500Y-64740500D03*
D10*
%TO.P,J1,A5,CC1*%
%TO.N,/A5*%
X204210000Y-64740500D03*
%TO.P,J1,A6,DA_P*%
%TO.N,/A6*%
X204710000Y-64740500D03*
%TO.P,J1,A7,DA_N*%
%TO.N,/A7*%
X205210000Y-64740500D03*
%TO.P,J1,A8,SBU1*%
%TO.N,/A8*%
X205710000Y-64740500D03*
%TO.P,J1,A9,VBUS_A*%
%TO.N,/A9*%
X206210000Y-64740500D03*
%TO.P,J1,A10,RX2_N*%
%TO.N,/A10*%
X206710000Y-64740500D03*
%TO.P,J1,A11,RX2_P*%
%TO.N,/A11*%
X207210000Y-64740500D03*
%TO.P,J1,A12,GNDA*%
%TO.N,/A12*%
X207710000Y-64740500D03*
D13*
%TO.P,J1,S1*%
%TO.N,N/C*%
X200718418Y-65425779D03*
%TO.P,J1,S2*%
X209195526Y-65425779D03*
%TD*%
D14*
%TO.P,J2,1,Pin_1*%
%TO.N,/B1*%
X218927500Y-82122500D03*
D15*
%TO.P,J2,2,Pin_2*%
%TO.N,/A12*%
X218962500Y-79162500D03*
D16*
%TO.P,J2,3,Pin_3*%
%TO.N,/B2*%
X216380000Y-82122500D03*
D17*
%TO.P,J2,4,Pin_4*%
%TO.N,/A11*%
X216372500Y-79162500D03*
D18*
%TO.P,J2,5,Pin_5*%
%TO.N,/B3*%
X213847500Y-82127500D03*
D19*
%TO.P,J2,6,Pin_6*%
%TO.N,/A10*%
X213862500Y-79167500D03*
D20*
%TO.P,J2,7,Pin_7*%
%TO.N,/B4*%
X211297500Y-82127500D03*
D21*
%TO.P,J2,8,Pin_8*%
%TO.N,/A9*%
X211327500Y-79162500D03*
D16*
%TO.P,J2,9,Pin_9*%
%TO.N,/B5*%
X208760000Y-82122500D03*
D22*
%TO.P,J2,10,Pin_10*%
%TO.N,/A8*%
X208762500Y-79167500D03*
D23*
%TO.P,J2,11,Pin_11*%
%TO.N,/B6*%
X206222500Y-82122500D03*
D24*
%TO.P,J2,12,Pin_12*%
%TO.N,/A7*%
X206207500Y-79162500D03*
D25*
%TO.P,J2,13,Pin_13*%
%TO.N,/B7*%
X203677500Y-82122500D03*
D26*
%TO.P,J2,14,Pin_14*%
%TO.N,/A6*%
X203687500Y-79162500D03*
D25*
%TO.P,J2,15,Pin_15*%
%TO.N,/B8*%
X201137500Y-82122500D03*
D17*
%TO.P,J2,16,Pin_16*%
%TO.N,/A5*%
X201152500Y-79162500D03*
D27*
%TO.P,J2,17,Pin_17*%
%TO.N,/B9*%
X198592500Y-82122500D03*
D28*
%TO.P,J2,18,Pin_18*%
%TO.N,/A4*%
X198617500Y-79162500D03*
D23*
%TO.P,J2,19,Pin_19*%
%TO.N,/B10*%
X196062500Y-82122500D03*
D27*
%TO.P,J2,20,Pin_20*%
%TO.N,/A3*%
X196052500Y-79157500D03*
D25*
%TO.P,J2,21,Pin_21*%
%TO.N,/B11*%
X193517500Y-82122500D03*
D29*
%TO.P,J2,22,Pin_22*%
%TO.N,/A2*%
X193512500Y-79162500D03*
D16*
%TO.P,J2,23,Pin_23*%
%TO.N,/B12*%
X190980000Y-82122500D03*
D30*
%TO.P,J2,24,Pin_24*%
%TO.N,/A1*%
X190972500Y-79172500D03*
%TD*%
D31*
%TO.N,/A9*%
X211320000Y-79380000D02*
X211320000Y-73461300D01*
X206299000Y-64829500D02*
X206210000Y-64740500D01*
X211320000Y-73461300D02*
X206299000Y-68440300D01*
X206299000Y-68440300D02*
X206299000Y-64829500D01*
%TO.N,/A1*%
X191000000Y-79300000D02*
X202259000Y-68041000D01*
X191000000Y-79380000D02*
X191000000Y-79300000D01*
X202259000Y-68041000D02*
X202259000Y-64818942D01*
%TO.N,/A10*%
X206750000Y-64780500D02*
X206710000Y-64740500D01*
X213860000Y-75434200D02*
X206750000Y-68324200D01*
X213860000Y-79380000D02*
X213860000Y-75434200D01*
X206750000Y-68324200D02*
X206750000Y-64780500D01*
%TO.N,/A4*%
X203701000Y-68380300D02*
X203701000Y-64751000D01*
X203701000Y-64751000D02*
X203711500Y-64740500D01*
X198620000Y-79380000D02*
X198620000Y-73461300D01*
X198620000Y-73461300D02*
X203701000Y-68380300D01*
%TO.N,/A12*%
X207710000Y-65720000D02*
X207710000Y-65589000D01*
X207710000Y-65720000D02*
X207710000Y-64740500D01*
X207710000Y-65589000D02*
X207701000Y-65580000D01*
X218940000Y-79380000D02*
X207710000Y-68150000D01*
X207710000Y-68150000D02*
X207710000Y-65720000D01*
%TO.N,/A7*%
X205250000Y-64780500D02*
X205210000Y-64740500D01*
X206240000Y-69515500D02*
X205250000Y-68525500D01*
X205250000Y-68525500D02*
X205250000Y-64780500D01*
X206240000Y-79380000D02*
X206240000Y-69515500D01*
%TO.N,/A5*%
X204250000Y-68398400D02*
X204250000Y-64780500D01*
X204250000Y-64780500D02*
X204210000Y-64740500D01*
X201160000Y-71488400D02*
X204250000Y-68398400D01*
X201160000Y-79380000D02*
X201160000Y-71488400D01*
%TO.N,/A3*%
X196080000Y-79380000D02*
X196080000Y-75434200D01*
X196080000Y-75434200D02*
X203207500Y-68306700D01*
X203207500Y-68306700D02*
X203207500Y-64740500D01*
%TO.N,/A8*%
X208780000Y-71488400D02*
X205750000Y-68458400D01*
X205750000Y-68458400D02*
X205750000Y-64780500D01*
X208780000Y-79380000D02*
X208780000Y-71488400D01*
X205750000Y-64780500D02*
X205710000Y-64740500D01*
%TO.N,/A11*%
X216400000Y-79380000D02*
X216400000Y-77407100D01*
X207250000Y-64780500D02*
X207210000Y-64740500D01*
X207250000Y-68257100D02*
X207250000Y-64780500D01*
X216400000Y-77407100D02*
X207250000Y-68257100D01*
%TO.N,/A2*%
X193540000Y-79380000D02*
X193540000Y-77407100D01*
X202710000Y-68237100D02*
X202710000Y-64740500D01*
X193540000Y-77407100D02*
X202710000Y-68237100D01*
%TO.N,/A6*%
X204750000Y-64780500D02*
X204710000Y-64740500D01*
X203700000Y-69515500D02*
X204750000Y-68465500D01*
X204750000Y-68465500D02*
X204750000Y-64780500D01*
X203700000Y-79380000D02*
X203700000Y-69515500D01*
%TD*%
M02*
