M48
; DRILL file {KiCad 9.0.3} date 2026-04-13T10:41:57+0530
; FORMAT={-:-/ absolute / metric / decimal}
; #@! TF.CreationDate,2026-04-13T10:41:57+05:30
; #@! TF.GenerationSoftware,Kicad,Pcbnew,9.0.3
; #@! TF.FileFunction,Plated,1,2,PTH
FMAT,2
METRIC
; #@! TA.AperFunction,Plated,PTH,ComponentDrill
T1C1.000
%
G90
G05
T1
X190.98Y-79.37
X190.98Y-81.91
X193.52Y-79.37
X193.52Y-81.91
X196.06Y-79.37
X196.06Y-81.91
X198.6Y-79.37
X198.6Y-81.91
X201.14Y-79.37
X201.14Y-81.91
X203.68Y-79.37
X203.68Y-81.91
X206.22Y-79.37
X206.22Y-81.91
X208.76Y-79.37
X208.76Y-81.91
X211.3Y-79.37
X211.3Y-81.91
X213.84Y-79.37
X213.84Y-81.91
X216.36Y-79.37
X216.38Y-81.91
X218.92Y-79.37
X218.92Y-81.91
M30
